<?xml version="1.0" encoding="UTF-8" standalone="no"?>
<!DOCTYPE svg PUBLIC "-//W3C//DTD SVG 1.1//EN"
 "http://www.w3.org/Graphics/SVG/1.1/DTD/svg11.dtd">
<!-- Generated by graphviz version 2.43.0 (0)
 -->
<!-- Title: DroneArmDomain Pages: 1 -->
<svg width="141pt" height="471pt"
 viewBox="0.00 0.00 141.00 471.00" xmlns="http://www.w3.org/2000/svg" xmlns:xlink="http://www.w3.org/1999/xlink">
<g id="graph0" class="graph" transform="scale(1 1) rotate(0) translate(4 467)">
<title>DroneArmDomain</title>
<!-- Node1 -->
<g id="Node000001" class="node">
<title>Node1</title>
<g id="a_Node000001"><a xlink:title=" ">
<polygon fill="#999999" stroke="transparent" points="125,-169 8,-169 8,0 125,0 125,-169"/>
<text text-anchor="start" x="23" y="-156.5" font-family="Helvetica,sans-Serif" font-size="10.00">DroneArmDomain</text>
<text text-anchor="start" x="12.5" y="-141.5" font-family="Helvetica,sans-Serif" font-size="10.00">+</text>
<text text-anchor="start" x="25.5" y="-141.5" font-family="Helvetica,sans-Serif" font-size="10.00">arm</text>
<text text-anchor="start" x="12.5" y="-126.5" font-family="Helvetica,sans-Serif" font-size="10.00">+</text>
<text text-anchor="start" x="25.5" y="-126.5" font-family="Helvetica,sans-Serif" font-size="10.00">motor_housing</text>
<text text-anchor="start" x="12.5" y="-111.5" font-family="Helvetica,sans-Serif" font-size="10.00">+</text>
<text text-anchor="start" x="25.5" y="-111.5" font-family="Helvetica,sans-Serif" font-size="10.00">cabin</text>
<text text-anchor="start" x="12.5" y="-96.5" font-family="Helvetica,sans-Serif" font-size="10.00">+</text>
<text text-anchor="start" x="25.5" y="-96.5" font-family="Helvetica,sans-Serif" font-size="10.00">motor_offset</text>
<text text-anchor="start" x="12.5" y="-81.5" font-family="Helvetica,sans-Serif" font-size="10.00">+</text>
<text text-anchor="start" x="25.5" y="-81.5" font-family="Helvetica,sans-Serif" font-size="10.00">cabin_offset</text>
<text text-anchor="start" x="12.5" y="-66.5" font-family="Helvetica,sans-Serif" font-size="10.00">+</text>
<text text-anchor="start" x="25.5" y="-66.5" font-family="Helvetica,sans-Serif" font-size="10.00">DroneArmDomain()</text>
<text text-anchor="start" x="12.5" y="-51.5" font-family="Helvetica,sans-Serif" font-size="10.00">+</text>
<text text-anchor="start" x="25.5" y="-51.5" font-family="Helvetica,sans-Serif" font-size="10.00">getBounds()</text>
<text text-anchor="start" x="12.5" y="-36.5" font-family="Helvetica,sans-Serif" font-size="10.00">+</text>
<text text-anchor="start" x="25.5" y="-36.5" font-family="Helvetica,sans-Serif" font-size="10.00">getBoxVolume()</text>
<text text-anchor="start" x="12.5" y="-21.5" font-family="Helvetica,sans-Serif" font-size="10.00">+</text>
<text text-anchor="start" x="25.5" y="-21.5" font-family="Helvetica,sans-Serif" font-size="10.00">isInside()</text>
<text text-anchor="start" x="12.5" y="-6.5" font-family="Helvetica,sans-Serif" font-size="10.00">+</text>
<text text-anchor="start" x="25.5" y="-6.5" font-family="Helvetica,sans-Serif" font-size="10.00">exportGeometry()</text>
<polygon fill="#666666" stroke="#666666" points="8.5,-151.5 8.5,-151.5 125.5,-151.5 125.5,-151.5 8.5,-151.5"/>
<polygon fill="#666666" stroke="#666666" points="8.5,-76.5 8.5,-76.5 23.5,-76.5 23.5,-76.5 8.5,-76.5"/>
<polygon fill="#666666" stroke="#666666" points="23.5,-76.5 23.5,-76.5 125.5,-76.5 125.5,-76.5 23.5,-76.5"/>
<polygon fill="none" stroke="#666666" points="8,0 8,-169 125,-169 125,0 8,0"/>
</a>
</g>
</g>
<!-- Node2 -->
<g id="Node000002" class="node">
<title>Node2</title>
<g id="a_Node000002"><a xlink:href="classmc_1_1domains_1_1IntegrationDomain.html" target="_top" xlink:title=" ">
<polygon fill="white" stroke="transparent" points="133,-311 0,-311 0,-206 133,-206 133,-311"/>
<text text-anchor="start" x="5.5" y="-298.5" font-family="Helvetica,sans-Serif" font-size="10.00">mc::domains::Integration</text>
<text text-anchor="start" x="26.5" y="-287.5" font-family="Helvetica,sans-Serif" font-size="10.00">Domain&lt; DIM &gt;</text>
<text text-anchor="start" x="65" y="-272.5" font-family="Helvetica,sans-Serif" font-size="10.00"> </text>
<text text-anchor="start" x="5.5" y="-257.5" font-family="Helvetica,sans-Serif" font-size="10.00">+</text>
<text text-anchor="start" x="19.5" y="-257.5" font-family="Helvetica,sans-Serif" font-size="10.00">getBounds()</text>
<text text-anchor="start" x="5.5" y="-242.5" font-family="Helvetica,sans-Serif" font-size="10.00">+</text>
<text text-anchor="start" x="19.5" y="-242.5" font-family="Helvetica,sans-Serif" font-size="10.00">getBoxVolume()</text>
<text text-anchor="start" x="5.5" y="-227.5" font-family="Helvetica,sans-Serif" font-size="10.00">+</text>
<text text-anchor="start" x="19.5" y="-227.5" font-family="Helvetica,sans-Serif" font-size="10.00">isInside()</text>
<text text-anchor="start" x="5.5" y="-212.5" font-family="Helvetica,sans-Serif" font-size="10.00">+</text>
<text text-anchor="start" x="19.5" y="-212.5" font-family="Helvetica,sans-Serif" font-size="10.00">~IntegrationDomain()</text>
<polygon fill="#666666" stroke="#666666" points="0.5,-282.5 0.5,-282.5 133.5,-282.5 133.5,-282.5 0.5,-282.5"/>
<polygon fill="#666666" stroke="#666666" points="0.5,-267.5 0.5,-267.5 133.5,-267.5 133.5,-267.5 0.5,-267.5"/>
<polygon fill="none" stroke="#666666" points="0,-206 0,-311 133,-311 133,-206 0,-206"/>
</a>
</g>
</g>
<!-- Node2&#45;&gt;Node1 -->
<g id="edge1_Node000001_Node000002" class="edge">
<title>Node2&#45;&gt;Node1</title>
<g id="a_edge1_Node000001_Node000002"><a xlink:title=" ">
<path fill="none" stroke="#63b8ff" d="M66.5,-195.63C66.5,-187.05 66.5,-178.13 66.5,-169.23"/>
<polygon fill="none" stroke="#63b8ff" points="63,-195.89 66.5,-205.89 70,-195.89 63,-195.89"/>
</a>
</g>
</g>
<!-- Node3 -->
<g id="Node000003" class="node">
<title>Node3</title>
<g id="a_Node000003"><a xlink:href="classmc_1_1domains_1_1IntegrationDomain.html" target="_top" xlink:title="Abstract base class for N&#45;dimensional integration domains.">
<polygon fill="white" stroke="transparent" points="133,-463 0,-463 0,-358 133,-358 133,-463"/>
<text text-anchor="start" x="5.5" y="-450.5" font-family="Helvetica,sans-Serif" font-size="10.00">mc::domains::Integration</text>
<text text-anchor="start" x="27" y="-439.5" font-family="Helvetica,sans-Serif" font-size="10.00">Domain&lt; dim &gt;</text>
<text text-anchor="start" x="65" y="-424.5" font-family="Helvetica,sans-Serif" font-size="10.00"> </text>
<text text-anchor="start" x="5.5" y="-409.5" font-family="Helvetica,sans-Serif" font-size="10.00">+</text>
<text text-anchor="start" x="19.5" y="-409.5" font-family="Helvetica,sans-Serif" font-size="10.00">getBounds()</text>
<text text-anchor="start" x="5.5" y="-394.5" font-family="Helvetica,sans-Serif" font-size="10.00">+</text>
<text text-anchor="start" x="19.5" y="-394.5" font-family="Helvetica,sans-Serif" font-size="10.00">getBoxVolume()</text>
<text text-anchor="start" x="5.5" y="-379.5" font-family="Helvetica,sans-Serif" font-size="10.00">+</text>
<text text-anchor="start" x="19.5" y="-379.5" font-family="Helvetica,sans-Serif" font-size="10.00">isInside()</text>
<text text-anchor="start" x="5.5" y="-364.5" font-family="Helvetica,sans-Serif" font-size="10.00">+</text>
<text text-anchor="start" x="19.5" y="-364.5" font-family="Helvetica,sans-Serif" font-size="10.00">~IntegrationDomain()</text>
<polygon fill="#666666" stroke="#666666" points="0.5,-434.5 0.5,-434.5 133.5,-434.5 133.5,-434.5 0.5,-434.5"/>
<polygon fill="#666666" stroke="#666666" points="0.5,-419.5 0.5,-419.5 133.5,-419.5 133.5,-419.5 0.5,-419.5"/>
<polygon fill="none" stroke="#666666" points="0,-358 0,-463 133,-463 133,-358 0,-358"/>
</a>
</g>
</g>
<!-- Node3&#45;&gt;Node2 -->
<g id="edge2_Node000002_Node000003" class="edge">
<title>Node3&#45;&gt;Node2</title>
<g id="a_edge2_Node000002_Node000003"><a xlink:title=" ">
<path fill="none" stroke="orange" d="M66.5,-347.81C66.5,-335.65 66.5,-323.01 66.5,-311.22"/>
<polygon fill="orange" stroke="orange" points="63,-347.88 66.5,-357.88 70,-347.88 63,-347.88"/>
</a>
</g>
<text text-anchor="middle" x="89.5" y="-332" font-family="Helvetica,sans-Serif" font-size="10.00" fill="grey"> &lt; DIM &gt;</text>
</g>
</g>
</svg>
