<?xml version="1.0" encoding="UTF-8" standalone="no"?>
<!DOCTYPE svg PUBLIC "-//W3C//DTD SVG 1.1//EN"
 "http://www.w3.org/Graphics/SVG/1.1/DTD/svg11.dtd">
<!-- Generated by graphviz version 2.43.0 (0)
 -->
<!-- Title: mc::proposals::MixtureProposal&lt; dim &gt; Pages: 1 -->
<svg width="172pt" height="254pt"
 viewBox="0.00 0.00 172.00 254.00" xmlns="http://www.w3.org/2000/svg" xmlns:xlink="http://www.w3.org/1999/xlink">

<svg id="main" version="1.1" xmlns="http://www.w3.org/2000/svg" xmlns:xlink="http://www.w3.org/1999/xlink" xml:space="preserve" onload="init(evt)">
<style type="text/css"><![CDATA[
.node, .edge {opacity: 0.7;}
.node.selected, .edge.selected {opacity: 1;}
.edge:hover path { stroke: red; }
.edge:hover polygon { stroke: red; fill: red; }
]]></style>
<script type="application/ecmascript" xlink:href="svg.min.js"/>
<svg id="graph" class="graph">
<g id="graph0" class="graph" transform="scale(1 1) rotate(0) translate(4 250)">
<title>mc::proposals::MixtureProposal&lt; dim &gt;</title>
<!-- Node1 -->
<g id="Node000001" class="node">
<title>Node1</title>
<g id="a_Node000001"><a xlink:title=" ">
<polygon fill="#999999" stroke="transparent" points="164,-120 0,-120 0,0 164,0 164,-120"/>
<text text-anchor="start" x="5" y="-108" font-family="Helvetica,sans-Serif" font-size="10.00">mc::proposals::MixtureProposal</text>
<text text-anchor="start" x="61" y="-97" font-family="Helvetica,sans-Serif" font-size="10.00">&lt; dim &gt;</text>
<text text-anchor="start" x="80" y="-82" font-family="Helvetica,sans-Serif" font-size="10.00"> </text>
<text text-anchor="start" x="17" y="-67" font-family="Helvetica,sans-Serif" font-size="10.00">+</text>
<text text-anchor="start" x="43" y="-67" font-family="Helvetica,sans-Serif" font-size="10.00">MixtureProposal()</text>
<text text-anchor="start" x="17" y="-52" font-family="Helvetica,sans-Serif" font-size="10.00">+</text>
<text text-anchor="start" x="43" y="-52" font-family="Helvetica,sans-Serif" font-size="10.00">sample()</text>
<text text-anchor="start" x="17" y="-37" font-family="Helvetica,sans-Serif" font-size="10.00">+</text>
<text text-anchor="start" x="43" y="-37" font-family="Helvetica,sans-Serif" font-size="10.00">pdf()</text>
<text text-anchor="start" x="17" y="-22" font-family="Helvetica,sans-Serif" font-size="10.00">+</text>
<text text-anchor="start" x="43" y="-22" font-family="Helvetica,sans-Serif" font-size="10.00">numComponents()</text>
<text text-anchor="start" x="17" y="-7" font-family="Helvetica,sans-Serif" font-size="10.00">+</text>
<text text-anchor="start" x="43" y="-7" font-family="Helvetica,sans-Serif" font-size="10.00">getWeights()</text>
<polygon fill="#666666" stroke="#666666" points="0,-92 0,-92 164,-92 164,-92 0,-92"/>
<polygon fill="#666666" stroke="#666666" points="0,-77 0,-77 164,-77 164,-77 0,-77"/>
<polygon fill="none" stroke="#666666" points="0,0 0,-120 164,-120 164,0 0,0"/>
</a>
</g>
</g>
<!-- Node2 -->
<g id="Node000002" class="node">
<title>Node2</title>
<g id="a_Node000002"><a xlink:href="classmc_1_1proposals_1_1Proposal.html" target="_top" xlink:title="Abstract proposal distribution interface.">
<polygon fill="white" stroke="transparent" points="145.5,-246 18.5,-246 18.5,-156 145.5,-156 145.5,-246"/>
<text text-anchor="start" x="24" y="-234" font-family="Helvetica,sans-Serif" font-size="10.00">mc::proposals::Proposal</text>
<text text-anchor="start" x="61.5" y="-223" font-family="Helvetica,sans-Serif" font-size="10.00">&lt; dim &gt;</text>
<text text-anchor="start" x="80.5" y="-208" font-family="Helvetica,sans-Serif" font-size="10.00"> </text>
<text text-anchor="start" x="35" y="-193" font-family="Helvetica,sans-Serif" font-size="10.00">+</text>
<text text-anchor="start" x="60" y="-193" font-family="Helvetica,sans-Serif" font-size="10.00">~Proposal()</text>
<text text-anchor="start" x="35" y="-178" font-family="Helvetica,sans-Serif" font-size="10.00">+</text>
<text text-anchor="start" x="60" y="-178" font-family="Helvetica,sans-Serif" font-size="10.00">sample()</text>
<text text-anchor="start" x="35" y="-163" font-family="Helvetica,sans-Serif" font-size="10.00">+</text>
<text text-anchor="start" x="60" y="-163" font-family="Helvetica,sans-Serif" font-size="10.00">pdf()</text>
<polygon fill="#666666" stroke="#666666" points="19,-218 19,-218 146,-218 146,-218 19,-218"/>
<polygon fill="#666666" stroke="#666666" points="19,-203 19,-203 146,-203 146,-203 19,-203"/>
<polygon fill="none" stroke="#666666" points="18.5,-156 18.5,-246 145.5,-246 145.5,-156 18.5,-156"/>
</a>
</g>
</g>
<!-- Node2&#45;&gt;Node1 -->
<g id="edge1_Node000001_Node000002" class="edge">
<title>Node2&#45;&gt;Node1</title>
<g id="a_edge1_Node000001_Node000002"><a xlink:title=" ">
<path fill="none" stroke="#63b8ff" d="M82,-145.63C82,-137.28 82,-128.61 82,-120.16"/>
<polygon fill="none" stroke="#63b8ff" points="78.5,-145.64 82,-155.64 85.5,-145.64 78.5,-145.64"/>
</a>
</g>
</g>
</g>
</svg>
</svg>

<style type='text/css'>
<![CDATA[
[data-mouse-over-selected='false'] { opacity: 0.7; }
[data-mouse-over-selected='true']  { opacity: 1.0; }
]]>
</style>
<script type="application/ecmascript"><![CDATA[
document.addEventListener('DOMContentLoaded', (event) => {
  highlightEdges();
  highlightAdjacentNodes();
});
]]></script>
</svg>
