<?xml version="1.0" encoding="UTF-8" standalone="no"?>
<!DOCTYPE svg PUBLIC "-//W3C//DTD SVG 1.1//EN"
 "http://www.w3.org/Graphics/SVG/1.1/DTD/svg11.dtd">
<!-- Generated by graphviz version 2.43.0 (0)
 -->
<!-- Title: mc::domains::IntegrationDomain&lt; dim &gt; Pages: 1 -->
<!--zoomable 471 -->

<svg id="main" version="1.1" xmlns="http://www.w3.org/2000/svg" xmlns:xlink="http://www.w3.org/1999/xlink" xml:space="preserve" onload="init(evt)">
<style type="text/css"><![CDATA[
.node, .edge {opacity: 0.7;}
.node.selected, .edge.selected {opacity: 1;}
.edge:hover path { stroke: red; }
.edge:hover polygon { stroke: red; fill: red; }
]]></style>

<defs>
  <circle id="rim" cx="0" cy="0" r="7"/>
  <circle id="rim2" cx="0" cy="0" r="3.5"/>
  <g id="zoomPlus">
    <use xlink:href="#rim" fill="#404040"><set attributeName="fill" to="#808080" begin="zoomplus.mouseover" end="zoomplus.mouseout"/></use>
    <path d="M-4,0h8M0,-4v8" fill="none" stroke="white" stroke-width="1.5" pointer-events="none"/>
  </g>
  <g id="zoomMin">
    <use xlink:href="#rim" fill="#404040"><set attributeName="fill" to="#808080" begin="zoomminus.mouseover" end="zoomminus.mouseout"/></use>
    <path d="M-4,0h8" fill="none" stroke="white" stroke-width="1.5" pointer-events="none"/>
  </g>
  <g id="arrowUp" transform="translate(30 24)">
    <use xlink:href="#rim"/>
    <path pointer-events="none" fill="none" stroke="white" stroke-width="1.5" d="M0,-3.0v7 M-2.5,-0.5L0,-3.0L2.5,-0.5"/>
  </g>
  <g id="arrowRight" transform="rotate(90) translate(36 -43)">
    <use xlink:href="#rim"/>
    <path pointer-events="none" fill="none" stroke="white" stroke-width="1.5" d="M0,-3.0v7 M-2.5,-0.5L0,-3.0L2.5,-0.5"/>
  </g>
  <g id="arrowDown" transform="rotate(180) translate(-30 -48)">
    <use xlink:href="#rim"/>
    <path pointer-events="none" fill="none" stroke="white" stroke-width="1.5" d="M0,-3.0v7 M-2.5,-0.5L0,-3.0L2.5,-0.5"/>
  </g>
  <g id="arrowLeft" transform="rotate(270) translate(-36 17)">
    <use xlink:href="#rim"/>
    <path pointer-events="none" fill="none" stroke="white" stroke-width="1.5" d="M0,-3.0v7 M-2.5,-0.5L0,-3.0L2.5,-0.5"/>
  </g>
  <g id="resetDef">
    <use xlink:href="#rim2" fill="#404040"><set attributeName="fill" to="#808080" begin="reset.mouseover" end="reset.mouseout"/></use>
  </g>
</defs>
<script type="application/ecmascript">
var viewWidth = 785;
var viewHeight = 471;
var sectionId = 'dynsection-0';
</script>
<script type="application/ecmascript" xlink:href="svg.min.js"/>
<svg id="graph" class="graph">
<g id="viewport">
<title>mc::domains::IntegrationDomain&lt; dim &gt;</title>
<!-- Node1 -->
<g id="Node000001" class="node">
<title>Node1</title>
<g id="a_Node000001"><a xlink:title="Abstract base class for N&#45;dimensional integration domains.">
<polygon fill="#999999" stroke="transparent" points="480,-463 347,-463 347,-358 480,-358 480,-463"/>
<text text-anchor="start" x="352.5" y="-450.5" font-family="Helvetica,sans-Serif" font-size="10.00">mc::domains::Integration</text>
<text text-anchor="start" x="374" y="-439.5" font-family="Helvetica,sans-Serif" font-size="10.00">Domain&lt; dim &gt;</text>
<text text-anchor="start" x="412" y="-424.5" font-family="Helvetica,sans-Serif" font-size="10.00"> </text>
<text text-anchor="start" x="352.5" y="-409.5" font-family="Helvetica,sans-Serif" font-size="10.00">+</text>
<text text-anchor="start" x="366.5" y="-409.5" font-family="Helvetica,sans-Serif" font-size="10.00">getBounds()</text>
<text text-anchor="start" x="352.5" y="-394.5" font-family="Helvetica,sans-Serif" font-size="10.00">+</text>
<text text-anchor="start" x="366.5" y="-394.5" font-family="Helvetica,sans-Serif" font-size="10.00">getBoxVolume()</text>
<text text-anchor="start" x="352.5" y="-379.5" font-family="Helvetica,sans-Serif" font-size="10.00">+</text>
<text text-anchor="start" x="366.5" y="-379.5" font-family="Helvetica,sans-Serif" font-size="10.00">isInside()</text>
<text text-anchor="start" x="352.5" y="-364.5" font-family="Helvetica,sans-Serif" font-size="10.00">+</text>
<text text-anchor="start" x="366.5" y="-364.5" font-family="Helvetica,sans-Serif" font-size="10.00">~IntegrationDomain()</text>
<polygon fill="#666666" stroke="#666666" points="347.5,-434.5 347.5,-434.5 480.5,-434.5 480.5,-434.5 347.5,-434.5"/>
<polygon fill="#666666" stroke="#666666" points="347.5,-419.5 347.5,-419.5 480.5,-419.5 480.5,-419.5 347.5,-419.5"/>
<polygon fill="none" stroke="#666666" points="347,-358 347,-463 480,-463 480,-358 347,-358"/>
</a>
</g>
</g>
<!-- Node2 -->
<g id="Node000002" class="node">
<title>Node2</title>
<g id="a_Node000002"><a xlink:href="classmc_1_1domains_1_1HyperCylinder.html" target="_top" xlink:title="N&#45;dimensional hypercylinder.">
<polygon fill="white" stroke="transparent" points="149,-311 0,-311 0,-206 149,-206 149,-311"/>
<text text-anchor="start" x="5.5" y="-298.5" font-family="Helvetica,sans-Serif" font-size="10.00">mc::domains::HyperCylinder</text>
<text text-anchor="start" x="54" y="-287.5" font-family="Helvetica,sans-Serif" font-size="10.00">&lt; dim &gt;</text>
<text text-anchor="start" x="73" y="-272.5" font-family="Helvetica,sans-Serif" font-size="10.00"> </text>
<text text-anchor="start" x="16.5" y="-257.5" font-family="Helvetica,sans-Serif" font-size="10.00">+</text>
<text text-anchor="start" x="41.5" y="-257.5" font-family="Helvetica,sans-Serif" font-size="10.00">HyperCylinder()</text>
<text text-anchor="start" x="16.5" y="-242.5" font-family="Helvetica,sans-Serif" font-size="10.00">+</text>
<text text-anchor="start" x="41.5" y="-242.5" font-family="Helvetica,sans-Serif" font-size="10.00">getBounds()</text>
<text text-anchor="start" x="16.5" y="-227.5" font-family="Helvetica,sans-Serif" font-size="10.00">+</text>
<text text-anchor="start" x="41.5" y="-227.5" font-family="Helvetica,sans-Serif" font-size="10.00">getBoxVolume()</text>
<text text-anchor="start" x="16.5" y="-212.5" font-family="Helvetica,sans-Serif" font-size="10.00">+</text>
<text text-anchor="start" x="41.5" y="-212.5" font-family="Helvetica,sans-Serif" font-size="10.00">isInside()</text>
<polygon fill="#666666" stroke="#666666" points="0.5,-282.5 0.5,-282.5 149.5,-282.5 149.5,-282.5 0.5,-282.5"/>
<polygon fill="#666666" stroke="#666666" points="0.5,-267.5 0.5,-267.5 149.5,-267.5 149.5,-267.5 0.5,-267.5"/>
<polygon fill="none" stroke="#666666" points="0,-206 0,-311 149,-311 149,-206 0,-206"/>
</a>
</g>
</g>
<!-- Node1&#45;&gt;Node2 -->
<g id="edge1_Node000001_Node000002" class="edge">
<title>Node1&#45;&gt;Node2</title>
<g id="a_edge1_Node000001_Node000002"><a xlink:title=" ">
<path fill="none" stroke="#63b8ff" d="M337.35,-384.44C285.58,-366.38 216.11,-340.14 157.5,-311 154.77,-309.64 152.01,-308.22 149.24,-306.75"/>
<polygon fill="none" stroke="#63b8ff" points="336.21,-387.75 346.81,-387.71 338.5,-381.13 336.21,-387.75"/>
</a>
</g>
</g>
<!-- Node3 -->
<g id="Node000003" class="node">
<title>Node3</title>
<g id="a_Node000003"><a xlink:href="classmc_1_1domains_1_1HyperRectangle.html" target="_top" xlink:title="Axis&#45;aligned hyperrectangular domain.">
<polygon fill="white" stroke="transparent" points="324.5,-311 166.5,-311 166.5,-206 324.5,-206 324.5,-311"/>
<text text-anchor="start" x="171.5" y="-298.5" font-family="Helvetica,sans-Serif" font-size="10.00">mc::domains::HyperRectangle</text>
<text text-anchor="start" x="224.5" y="-287.5" font-family="Helvetica,sans-Serif" font-size="10.00">&lt; dim &gt;</text>
<text text-anchor="start" x="243.5" y="-272.5" font-family="Helvetica,sans-Serif" font-size="10.00"> </text>
<text text-anchor="start" x="183" y="-257.5" font-family="Helvetica,sans-Serif" font-size="10.00">+</text>
<text text-anchor="start" x="208.5" y="-257.5" font-family="Helvetica,sans-Serif" font-size="10.00">HyperRectangle()</text>
<text text-anchor="start" x="183" y="-242.5" font-family="Helvetica,sans-Serif" font-size="10.00">+</text>
<text text-anchor="start" x="208.5" y="-242.5" font-family="Helvetica,sans-Serif" font-size="10.00">getBounds()</text>
<text text-anchor="start" x="183" y="-227.5" font-family="Helvetica,sans-Serif" font-size="10.00">+</text>
<text text-anchor="start" x="208.5" y="-227.5" font-family="Helvetica,sans-Serif" font-size="10.00">getBoxVolume()</text>
<text text-anchor="start" x="183" y="-212.5" font-family="Helvetica,sans-Serif" font-size="10.00">+</text>
<text text-anchor="start" x="208.5" y="-212.5" font-family="Helvetica,sans-Serif" font-size="10.00">isInside()</text>
<polygon fill="#666666" stroke="#666666" points="166.5,-282.5 166.5,-282.5 324.5,-282.5 324.5,-282.5 166.5,-282.5"/>
<polygon fill="#666666" stroke="#666666" points="166.5,-267.5 166.5,-267.5 324.5,-267.5 324.5,-267.5 166.5,-267.5"/>
<polygon fill="none" stroke="#666666" points="166.5,-206 166.5,-311 324.5,-311 324.5,-206 166.5,-206"/>
</a>
</g>
</g>
<!-- Node1&#45;&gt;Node3 -->
<g id="edge2_Node000001_Node000003" class="edge">
<title>Node1&#45;&gt;Node3</title>
<g id="a_edge2_Node000001_Node000003"><a xlink:title=" ">
<path fill="none" stroke="#63b8ff" d="M348.07,-351.08C333.34,-337.93 317.82,-324.07 303.42,-311.22"/>
<polygon fill="none" stroke="#63b8ff" points="345.89,-353.83 355.68,-357.88 350.56,-348.61 345.89,-353.83"/>
</a>
</g>
</g>
<!-- Node4 -->
<g id="Node000004" class="node">
<title>Node4</title>
<g id="a_Node000004"><a xlink:href="classmc_1_1domains_1_1Hypersphere.html" target="_top" xlink:title="N&#45;dimensional ball (solid sphere).">
<polygon fill="white" stroke="transparent" points="484.5,-311 342.5,-311 342.5,-206 484.5,-206 484.5,-311"/>
<text text-anchor="start" x="347.5" y="-298.5" font-family="Helvetica,sans-Serif" font-size="10.00">mc::domains::Hypersphere</text>
<text text-anchor="start" x="392.5" y="-287.5" font-family="Helvetica,sans-Serif" font-size="10.00">&lt; dim &gt;</text>
<text text-anchor="start" x="411.5" y="-272.5" font-family="Helvetica,sans-Serif" font-size="10.00"> </text>
<text text-anchor="start" x="357" y="-257.5" font-family="Helvetica,sans-Serif" font-size="10.00">+</text>
<text text-anchor="start" x="380.5" y="-257.5" font-family="Helvetica,sans-Serif" font-size="10.00">Hypersphere()</text>
<text text-anchor="start" x="357" y="-242.5" font-family="Helvetica,sans-Serif" font-size="10.00">+</text>
<text text-anchor="start" x="380.5" y="-242.5" font-family="Helvetica,sans-Serif" font-size="10.00">getBounds()</text>
<text text-anchor="start" x="357" y="-227.5" font-family="Helvetica,sans-Serif" font-size="10.00">+</text>
<text text-anchor="start" x="380.5" y="-227.5" font-family="Helvetica,sans-Serif" font-size="10.00">getBoxVolume()</text>
<text text-anchor="start" x="357" y="-212.5" font-family="Helvetica,sans-Serif" font-size="10.00">+</text>
<text text-anchor="start" x="380.5" y="-212.5" font-family="Helvetica,sans-Serif" font-size="10.00">isInside()</text>
<polygon fill="#666666" stroke="#666666" points="342.5,-282.5 342.5,-282.5 484.5,-282.5 484.5,-282.5 342.5,-282.5"/>
<polygon fill="#666666" stroke="#666666" points="342.5,-267.5 342.5,-267.5 484.5,-267.5 484.5,-267.5 342.5,-267.5"/>
<polygon fill="none" stroke="#666666" points="342.5,-206 342.5,-311 484.5,-311 484.5,-206 342.5,-206"/>
</a>
</g>
</g>
<!-- Node1&#45;&gt;Node4 -->
<g id="edge3_Node000001_Node000004" class="edge">
<title>Node1&#45;&gt;Node4</title>
<g id="a_edge3_Node000001_Node000004"><a xlink:title=" ">
<path fill="none" stroke="#63b8ff" d="M413.5,-347.81C413.5,-335.65 413.5,-323.01 413.5,-311.22"/>
<polygon fill="none" stroke="#63b8ff" points="410,-347.88 413.5,-357.88 417,-347.88 410,-347.88"/>
</a>
</g>
</g>
<!-- Node5 -->
<g id="Node000005" class="node">
<title>Node5</title>
<g id="a_Node000005"><a xlink:href="classmc_1_1domains_1_1PolyTope.html" target="_top" xlink:title="Convex polytope (convex polyhedron) integration domain.">
<polygon fill="white" stroke="transparent" points="626,-311 503,-311 503,-206 626,-206 626,-311"/>
<text text-anchor="start" x="508.5" y="-298.5" font-family="Helvetica,sans-Serif" font-size="10.00">mc::domains::PolyTope</text>
<text text-anchor="start" x="544" y="-287.5" font-family="Helvetica,sans-Serif" font-size="10.00">&lt; dim &gt;</text>
<text text-anchor="start" x="563" y="-272.5" font-family="Helvetica,sans-Serif" font-size="10.00"> </text>
<text text-anchor="start" x="513" y="-257.5" font-family="Helvetica,sans-Serif" font-size="10.00">+</text>
<text text-anchor="start" x="531.5" y="-257.5" font-family="Helvetica,sans-Serif" font-size="10.00">PolyTope()</text>
<text text-anchor="start" x="513" y="-242.5" font-family="Helvetica,sans-Serif" font-size="10.00">+</text>
<text text-anchor="start" x="531.5" y="-242.5" font-family="Helvetica,sans-Serif" font-size="10.00">getBounds()</text>
<text text-anchor="start" x="513" y="-227.5" font-family="Helvetica,sans-Serif" font-size="10.00">+</text>
<text text-anchor="start" x="531.5" y="-227.5" font-family="Helvetica,sans-Serif" font-size="10.00">getBoxVolume()</text>
<text text-anchor="start" x="513" y="-212.5" font-family="Helvetica,sans-Serif" font-size="10.00">+</text>
<text text-anchor="start" x="531.5" y="-212.5" font-family="Helvetica,sans-Serif" font-size="10.00">isInside()</text>
<polygon fill="#666666" stroke="#666666" points="503.5,-282.5 503.5,-282.5 626.5,-282.5 626.5,-282.5 503.5,-282.5"/>
<polygon fill="#666666" stroke="#666666" points="503.5,-267.5 503.5,-267.5 626.5,-267.5 626.5,-267.5 503.5,-267.5"/>
<polygon fill="none" stroke="#666666" points="503,-206 503,-311 626,-311 626,-206 503,-206"/>
</a>
</g>
</g>
<!-- Node1&#45;&gt;Node5 -->
<g id="edge4_Node000001_Node000005" class="edge">
<title>Node1&#45;&gt;Node5</title>
<g id="a_edge4_Node000001_Node000005"><a xlink:title=" ">
<path fill="none" stroke="#63b8ff" d="M472.68,-350.72C485.8,-337.68 499.62,-323.95 512.44,-311.22"/>
<polygon fill="none" stroke="#63b8ff" points="470.09,-348.35 465.47,-357.88 475.03,-353.31 470.09,-348.35"/>
</a>
</g>
</g>
<!-- Node6 -->
<g id="Node000006" class="node">
<title>Node6</title>
<g id="a_Node000006"><a xlink:href="classmc_1_1domains_1_1IntegrationDomain.html" target="_top" xlink:title=" ">
<polygon fill="white" stroke="transparent" points="777,-311 644,-311 644,-206 777,-206 777,-311"/>
<text text-anchor="start" x="649.5" y="-298.5" font-family="Helvetica,sans-Serif" font-size="10.00">mc::domains::Integration</text>
<text text-anchor="start" x="670.5" y="-287.5" font-family="Helvetica,sans-Serif" font-size="10.00">Domain&lt; DIM &gt;</text>
<text text-anchor="start" x="709" y="-272.5" font-family="Helvetica,sans-Serif" font-size="10.00"> </text>
<text text-anchor="start" x="649.5" y="-257.5" font-family="Helvetica,sans-Serif" font-size="10.00">+</text>
<text text-anchor="start" x="663.5" y="-257.5" font-family="Helvetica,sans-Serif" font-size="10.00">getBounds()</text>
<text text-anchor="start" x="649.5" y="-242.5" font-family="Helvetica,sans-Serif" font-size="10.00">+</text>
<text text-anchor="start" x="663.5" y="-242.5" font-family="Helvetica,sans-Serif" font-size="10.00">getBoxVolume()</text>
<text text-anchor="start" x="649.5" y="-227.5" font-family="Helvetica,sans-Serif" font-size="10.00">+</text>
<text text-anchor="start" x="663.5" y="-227.5" font-family="Helvetica,sans-Serif" font-size="10.00">isInside()</text>
<text text-anchor="start" x="649.5" y="-212.5" font-family="Helvetica,sans-Serif" font-size="10.00">+</text>
<text text-anchor="start" x="663.5" y="-212.5" font-family="Helvetica,sans-Serif" font-size="10.00">~IntegrationDomain()</text>
<polygon fill="#666666" stroke="#666666" points="644.5,-282.5 644.5,-282.5 777.5,-282.5 777.5,-282.5 644.5,-282.5"/>
<polygon fill="#666666" stroke="#666666" points="644.5,-267.5 644.5,-267.5 777.5,-267.5 777.5,-267.5 644.5,-267.5"/>
<polygon fill="none" stroke="#666666" points="644,-206 644,-311 777,-311 777,-206 644,-206"/>
</a>
</g>
</g>
<!-- Node1&#45;&gt;Node6 -->
<g id="edge5_Node000001_Node000006" class="edge">
<title>Node1&#45;&gt;Node6</title>
<g id="a_edge5_Node000001_Node000006"><a xlink:title=" ">
<path fill="none" stroke="orange" d="M489.54,-379.84C533.2,-361.82 588.52,-337.26 635.5,-311 638.26,-309.46 641.04,-307.84 643.83,-306.18"/>
<polygon fill="orange" stroke="orange" points="488.05,-376.67 480.12,-383.71 490.71,-383.15 488.05,-376.67"/>
</a>
</g>
<text text-anchor="middle" x="622.5" y="-332" font-family="Helvetica,sans-Serif" font-size="10.00" fill="grey"> &lt; DIM &gt;</text>
</g>
<!-- Node7 -->
<g id="Node000007" class="node">
<title>Node7</title>
<g id="a_Node000007"><a xlink:href="classDroneArmDomain.html" target="_top" xlink:title=" ">
<polygon fill="white" stroke="transparent" points="769,-169 652,-169 652,0 769,0 769,-169"/>
<text text-anchor="start" x="667" y="-156.5" font-family="Helvetica,sans-Serif" font-size="10.00">DroneArmDomain</text>
<text text-anchor="start" x="656.5" y="-141.5" font-family="Helvetica,sans-Serif" font-size="10.00">+</text>
<text text-anchor="start" x="669.5" y="-141.5" font-family="Helvetica,sans-Serif" font-size="10.00">arm</text>
<text text-anchor="start" x="656.5" y="-126.5" font-family="Helvetica,sans-Serif" font-size="10.00">+</text>
<text text-anchor="start" x="669.5" y="-126.5" font-family="Helvetica,sans-Serif" font-size="10.00">motor_housing</text>
<text text-anchor="start" x="656.5" y="-111.5" font-family="Helvetica,sans-Serif" font-size="10.00">+</text>
<text text-anchor="start" x="669.5" y="-111.5" font-family="Helvetica,sans-Serif" font-size="10.00">cabin</text>
<text text-anchor="start" x="656.5" y="-96.5" font-family="Helvetica,sans-Serif" font-size="10.00">+</text>
<text text-anchor="start" x="669.5" y="-96.5" font-family="Helvetica,sans-Serif" font-size="10.00">motor_offset</text>
<text text-anchor="start" x="656.5" y="-81.5" font-family="Helvetica,sans-Serif" font-size="10.00">+</text>
<text text-anchor="start" x="669.5" y="-81.5" font-family="Helvetica,sans-Serif" font-size="10.00">cabin_offset</text>
<text text-anchor="start" x="656.5" y="-66.5" font-family="Helvetica,sans-Serif" font-size="10.00">+</text>
<text text-anchor="start" x="669.5" y="-66.5" font-family="Helvetica,sans-Serif" font-size="10.00">DroneArmDomain()</text>
<text text-anchor="start" x="656.5" y="-51.5" font-family="Helvetica,sans-Serif" font-size="10.00">+</text>
<text text-anchor="start" x="669.5" y="-51.5" font-family="Helvetica,sans-Serif" font-size="10.00">getBounds()</text>
<text text-anchor="start" x="656.5" y="-36.5" font-family="Helvetica,sans-Serif" font-size="10.00">+</text>
<text text-anchor="start" x="669.5" y="-36.5" font-family="Helvetica,sans-Serif" font-size="10.00">getBoxVolume()</text>
<text text-anchor="start" x="656.5" y="-21.5" font-family="Helvetica,sans-Serif" font-size="10.00">+</text>
<text text-anchor="start" x="669.5" y="-21.5" font-family="Helvetica,sans-Serif" font-size="10.00">isInside()</text>
<text text-anchor="start" x="656.5" y="-6.5" font-family="Helvetica,sans-Serif" font-size="10.00">+</text>
<text text-anchor="start" x="669.5" y="-6.5" font-family="Helvetica,sans-Serif" font-size="10.00">exportGeometry()</text>
<polygon fill="#666666" stroke="#666666" points="652.5,-151.5 652.5,-151.5 769.5,-151.5 769.5,-151.5 652.5,-151.5"/>
<polygon fill="#666666" stroke="#666666" points="652.5,-76.5 652.5,-76.5 667.5,-76.5 667.5,-76.5 652.5,-76.5"/>
<polygon fill="#666666" stroke="#666666" points="667.5,-76.5 667.5,-76.5 769.5,-76.5 769.5,-76.5 667.5,-76.5"/>
<polygon fill="none" stroke="#666666" points="652,0 652,-169 769,-169 769,0 652,0"/>
</a>
</g>
</g>
<!-- Node6&#45;&gt;Node7 -->
<g id="edge6_Node000006_Node000007" class="edge">
<title>Node6&#45;&gt;Node7</title>
<g id="a_edge6_Node000006_Node000007"><a xlink:title=" ">
<path fill="none" stroke="#63b8ff" d="M710.5,-195.63C710.5,-187.05 710.5,-178.13 710.5,-169.23"/>
<polygon fill="none" stroke="#63b8ff" points="707,-195.89 710.5,-205.89 714,-195.89 707,-195.89"/>
</a>
</g>
</g>
</g>
</svg>

<g id="navigator" transform="translate(0 0)" fill="#404254">
  <rect fill="#f2f5e9" fill-opacity="0.5" stroke="#606060" stroke-width=".5" x="0" y="0" width="60" height="60"/>
  <use id="zoomplus" xlink:href="#zoomPlus" x="17" y="9" onmousedown="handleZoom(evt,'in')"/>
  <use id="zoomminus" xlink:href="#zoomMin" x="42" y="9" onmousedown="handleZoom(evt,'out')"/>
  <use id="reset" xlink:href="#resetDef" x="30" y="36" onmousedown="handleReset()"/>
   <use id="arrowup" xlink:href="#arrowUp" x="0" y="0" onmousedown="handlePan(0,-1)"/>
  <use id="arrowright" xlink:href="#arrowRight" x="0" y="0" onmousedown="handlePan(1,0)"/>
  <use id="arrowdown" xlink:href="#arrowDown" x="0" y="0" onmousedown="handlePan(0,1)"/>
  <use id="arrowleft" xlink:href="#arrowLeft" x="0" y="0" onmousedown="handlePan(-1,0)"/>
</g>
<svg viewBox="0 0 15 15" width="100%" height="30px" preserveAspectRatio="xMaxYMin meet">
 <g id="arrow_out" transform="scale(0.3 0.3)">
  <a xlink:href="classmc_1_1domains_1_1IntegrationDomain__inherit__graph_org.svg" target="_base">
   <rect id="button" ry="5" rx="5" y="6" x="6" height="38" width="38"
        fill="#f2f5e9" fill-opacity="0.5" stroke="#606060" stroke-width="1.0"/>
   <path id="arrow"
     d="M 11.500037,31.436501 C 11.940474,20.09759 22.043105,11.32322 32.158766,21.979434 L 37.068811,17.246167 C 37.068811,17.246167 37.088388,32 37.088388,32 L 22.160133,31.978069 C 22.160133,31.978069 26.997745,27.140456 26.997745,27.140456 C 18.528582,18.264221 13.291696,25.230495 11.500037,31.436501 z"
     style="fill:#404040;"/>
  </a>
 </g>
</svg>

<style type='text/css'>
<![CDATA[
[data-mouse-over-selected='false'] { opacity: 0.7; }
[data-mouse-over-selected='true']  { opacity: 1.0; }
]]>
</style>
<script type="application/ecmascript"><![CDATA[
document.addEventListener('DOMContentLoaded', (event) => {
  highlightEdges();
  highlightAdjacentNodes();
});
]]></script>
</svg>
