<?xml version="1.0" encoding="UTF-8" standalone="no"?>
<!DOCTYPE svg PUBLIC "-//W3C//DTD SVG 1.1//EN"
 "http://www.w3.org/Graphics/SVG/1.1/DTD/svg11.dtd">
<!-- Generated by graphviz version 2.43.0 (0)
 -->
<!-- Title: mc::optim::PSO::optimize Pages: 1 -->
<!--zoomable 124 -->

<svg id="main" version="1.1" xmlns="http://www.w3.org/2000/svg" xmlns:xlink="http://www.w3.org/1999/xlink" xml:space="preserve" onload="init(evt)">
<style type="text/css"><![CDATA[
.node, .edge {opacity: 0.7;}
.node.selected, .edge.selected {opacity: 1;}
.edge:hover path { stroke: red; }
.edge:hover polygon { stroke: red; fill: red; }
]]></style>

<defs>
  <circle id="rim" cx="0" cy="0" r="7"/>
  <circle id="rim2" cx="0" cy="0" r="3.5"/>
  <g id="zoomPlus">
    <use xlink:href="#rim" fill="#404040"><set attributeName="fill" to="#808080" begin="zoomplus.mouseover" end="zoomplus.mouseout"/></use>
    <path d="M-4,0h8M0,-4v8" fill="none" stroke="white" stroke-width="1.5" pointer-events="none"/>
  </g>
  <g id="zoomMin">
    <use xlink:href="#rim" fill="#404040"><set attributeName="fill" to="#808080" begin="zoomminus.mouseover" end="zoomminus.mouseout"/></use>
    <path d="M-4,0h8" fill="none" stroke="white" stroke-width="1.5" pointer-events="none"/>
  </g>
  <g id="arrowUp" transform="translate(30 24)">
    <use xlink:href="#rim"/>
    <path pointer-events="none" fill="none" stroke="white" stroke-width="1.5" d="M0,-3.0v7 M-2.5,-0.5L0,-3.0L2.5,-0.5"/>
  </g>
  <g id="arrowRight" transform="rotate(90) translate(36 -43)">
    <use xlink:href="#rim"/>
    <path pointer-events="none" fill="none" stroke="white" stroke-width="1.5" d="M0,-3.0v7 M-2.5,-0.5L0,-3.0L2.5,-0.5"/>
  </g>
  <g id="arrowDown" transform="rotate(180) translate(-30 -48)">
    <use xlink:href="#rim"/>
    <path pointer-events="none" fill="none" stroke="white" stroke-width="1.5" d="M0,-3.0v7 M-2.5,-0.5L0,-3.0L2.5,-0.5"/>
  </g>
  <g id="arrowLeft" transform="rotate(270) translate(-36 17)">
    <use xlink:href="#rim"/>
    <path pointer-events="none" fill="none" stroke="white" stroke-width="1.5" d="M0,-3.0v7 M-2.5,-0.5L0,-3.0L2.5,-0.5"/>
  </g>
  <g id="resetDef">
    <use xlink:href="#rim2" fill="#404040"><set attributeName="fill" to="#808080" begin="reset.mouseover" end="reset.mouseout"/></use>
  </g>
</defs>
<script type="application/ecmascript">
var viewWidth = 844;
var viewHeight = 124;
var sectionId = 'dynsection-2';
</script>
<script type="application/ecmascript" xlink:href="svg.min.js"/>
<svg id="graph" class="graph">
<g id="viewport">
<title>mc::optim::PSO::optimize</title>
<!-- Node1 -->
<g id="Node000001" class="node">
<title>Node1</title>
<g id="a_Node000001"><a xlink:title="Execute the optimization loop for max_iterations.">
<polygon fill="#999999" stroke="#666666" points="140,-62 0,-62 0,-43 140,-43 140,-62"/>
<text text-anchor="middle" x="70" y="-50" font-family="Helvetica,sans-Serif" font-size="10.00">mc::optim::PSO::optimize</text>
</a>
</g>
</g>
<!-- Node2 -->
<g id="Node000002" class="node">
<title>Node2</title>
<g id="a_Node000002"><a xlink:href="classmc_1_1optim_1_1PSO.html#ab0e385c2603febae1bf503d8f6e36803" target="_top" xlink:title="Perform one PSO iteration: update velocity/position, evaluate, update personal and global bests.">
<polygon fill="white" stroke="#666666" points="295,-62 176,-62 176,-43 295,-43 295,-62"/>
<text text-anchor="middle" x="235.5" y="-50" font-family="Helvetica,sans-Serif" font-size="10.00">mc::optim::PSO::step</text>
</a>
</g>
</g>
<!-- Node1&#45;&gt;Node2 -->
<g id="edge1_Node000001_Node000002" class="edge">
<title>Node1&#45;&gt;Node2</title>
<g id="a_edge1_Node000001_Node000002"><a xlink:title=" ">
<path fill="none" stroke="#63b8ff" d="M140.34,-52.5C148.75,-52.5 157.35,-52.5 165.76,-52.5"/>
<polygon fill="#63b8ff" stroke="#63b8ff" points="165.89,-56 175.89,-52.5 165.89,-49 165.89,-56"/>
</a>
</g>
</g>
<!-- Node3 -->
<g id="Node000003" class="node">
<title>Node3</title>
<g id="a_Node000003"><a xlink:href="namespacemc_1_1rng.html#acc040fd4a9536fb66cae8144bc232ddd" target="_top" xlink:title="Create a deterministic RNG engine for a specific stream.">
<polygon fill="white" stroke="#666666" points="456,-62 331,-62 331,-43 456,-43 456,-62"/>
<text text-anchor="middle" x="393.5" y="-50" font-family="Helvetica,sans-Serif" font-size="10.00">mc::rng::make_engine</text>
</a>
</g>
</g>
<!-- Node2&#45;&gt;Node3 -->
<g id="edge2_Node000002_Node000003" class="edge">
<title>Node2&#45;&gt;Node3</title>
<g id="a_edge2_Node000002_Node000003"><a xlink:title=" ">
<path fill="none" stroke="#63b8ff" d="M295.03,-52.5C303.42,-52.5 312.13,-52.5 320.74,-52.5"/>
<polygon fill="#63b8ff" stroke="#63b8ff" points="320.77,-56 330.77,-52.5 320.77,-49 320.77,-56"/>
</a>
</g>
</g>
<!-- Node4 -->
<g id="Node000004" class="node">
<title>Node4</title>
<g id="a_Node000004"><a xlink:href="namespacemc_1_1rng_1_1detail.html#a38d2bbfd85016beeafdb31e4c1715477" target="_top" xlink:title=" ">
<polygon fill="white" stroke="#666666" points="629,-115.5 494,-115.5 494,-85.5 629,-85.5 629,-115.5"/>
<text text-anchor="start" x="502" y="-103.5" font-family="Helvetica,sans-Serif" font-size="10.00">mc::rng::detail::combine</text>
<text text-anchor="middle" x="561.5" y="-92.5" font-family="Helvetica,sans-Serif" font-size="10.00">_seeds</text>
</a>
</g>
</g>
<!-- Node3&#45;&gt;Node4 -->
<g id="edge3_Node000003_Node000004" class="edge">
<title>Node3&#45;&gt;Node4</title>
<g id="a_edge3_Node000003_Node000004"><a xlink:title=" ">
<path fill="none" stroke="#63b8ff" d="M427.69,-62.1C447.98,-67.97 474.58,-75.65 498.63,-82.61"/>
<polygon fill="#63b8ff" stroke="#63b8ff" points="497.83,-86.02 508.41,-85.44 499.77,-79.3 497.83,-86.02"/>
</a>
</g>
</g>
<!-- Node6 -->
<g id="Node000006" class="node">
<title>Node6</title>
<g id="a_Node000006"><a xlink:href="namespacemc_1_1rng_1_1detail.html#ab57e549b90087ff17a6516ced8a196ae" target="_top" xlink:title="Create mt19937 from a 64&#45;bit seed.">
<polygon fill="white" stroke="#666666" points="623.5,-67.5 499.5,-67.5 499.5,-37.5 623.5,-37.5 623.5,-67.5"/>
<text text-anchor="start" x="507.5" y="-55.5" font-family="Helvetica,sans-Serif" font-size="10.00">mc::rng::detail::create</text>
<text text-anchor="middle" x="561.5" y="-44.5" font-family="Helvetica,sans-Serif" font-size="10.00">_mt19937</text>
</a>
</g>
</g>
<!-- Node3&#45;&gt;Node6 -->
<g id="edge5_Node000003_Node000006" class="edge">
<title>Node3&#45;&gt;Node6</title>
<g id="a_edge5_Node000003_Node000006"><a xlink:title=" ">
<path fill="none" stroke="#63b8ff" d="M456.31,-52.5C467.11,-52.5 478.42,-52.5 489.44,-52.5"/>
<polygon fill="#63b8ff" stroke="#63b8ff" points="489.46,-56 499.46,-52.5 489.46,-49 489.46,-56"/>
</a>
</g>
</g>
<!-- Node7 -->
<g id="Node000007" class="node">
<title>Node7</title>
<g id="a_Node000007"><a xlink:href="namespacemc_1_1rng.html#ae8ce618a80ac94df709f1fd752932c0c" target="_top" xlink:title="Get the current global seed.">
<polygon fill="white" stroke="#666666" points="631,-19 492,-19 492,0 631,0 631,-19"/>
<text text-anchor="middle" x="561.5" y="-7" font-family="Helvetica,sans-Serif" font-size="10.00">mc::rng::get_global_seed</text>
</a>
</g>
</g>
<!-- Node3&#45;&gt;Node7 -->
<g id="edge7_Node000003_Node000007" class="edge">
<title>Node3&#45;&gt;Node7</title>
<g id="a_edge7_Node000003_Node000007"><a xlink:title=" ">
<path fill="none" stroke="#63b8ff" d="M431.34,-42.96C455.73,-36.64 487.93,-28.3 514.07,-21.53"/>
<polygon fill="#63b8ff" stroke="#63b8ff" points="514.96,-24.91 523.76,-19.02 513.2,-18.14 514.96,-24.91"/>
</a>
</g>
</g>
<!-- Node5 -->
<g id="Node000005" class="node">
<title>Node5</title>
<g id="a_Node000005"><a xlink:href="namespacemc_1_1rng_1_1detail.html#afd7cf835af1e7345389b5497652dd399" target="_top" xlink:title=" ">
<polygon fill="white" stroke="#666666" points="836,-86 667,-86 667,-67 836,-67 836,-86"/>
<text text-anchor="middle" x="751.5" y="-74" font-family="Helvetica,sans-Serif" font-size="10.00">mc::rng::detail::splitmix64_mix</text>
</a>
</g>
</g>
<!-- Node4&#45;&gt;Node5 -->
<g id="edge4_Node000004_Node000005" class="edge">
<title>Node4&#45;&gt;Node5</title>
<g id="a_edge4_Node000004_Node000005"><a xlink:title=" ">
<path fill="none" stroke="#63b8ff" d="M629.05,-92C640.93,-90.49 653.45,-88.89 665.77,-87.32"/>
<polygon fill="#63b8ff" stroke="#63b8ff" points="666.56,-90.74 676.04,-86.01 665.67,-83.8 666.56,-90.74"/>
</a>
</g>
</g>
<!-- Node6&#45;&gt;Node5 -->
<g id="edge6_Node000006_Node000005" class="edge">
<title>Node6&#45;&gt;Node5</title>
<g id="a_edge6_Node000006_Node000005"><a xlink:title=" ">
<path fill="none" stroke="#63b8ff" d="M623.54,-60.29C637,-62.01 651.49,-63.86 665.7,-65.67"/>
<polygon fill="#63b8ff" stroke="#63b8ff" points="665.61,-69.19 675.97,-66.99 666.5,-62.25 665.61,-69.19"/>
</a>
</g>
</g>
</g>
</svg>

<g id="navigator" transform="translate(0 0)" fill="#404254">
  <rect fill="#f2f5e9" fill-opacity="0.5" stroke="#606060" stroke-width=".5" x="0" y="0" width="60" height="60"/>
  <use id="zoomplus" xlink:href="#zoomPlus" x="17" y="9" onmousedown="handleZoom(evt,'in')"/>
  <use id="zoomminus" xlink:href="#zoomMin" x="42" y="9" onmousedown="handleZoom(evt,'out')"/>
  <use id="reset" xlink:href="#resetDef" x="30" y="36" onmousedown="handleReset()"/>
   <use id="arrowup" xlink:href="#arrowUp" x="0" y="0" onmousedown="handlePan(0,-1)"/>
  <use id="arrowright" xlink:href="#arrowRight" x="0" y="0" onmousedown="handlePan(1,0)"/>
  <use id="arrowdown" xlink:href="#arrowDown" x="0" y="0" onmousedown="handlePan(0,1)"/>
  <use id="arrowleft" xlink:href="#arrowLeft" x="0" y="0" onmousedown="handlePan(-1,0)"/>
</g>
<svg viewBox="0 0 15 15" width="100%" height="30px" preserveAspectRatio="xMaxYMin meet">
 <g id="arrow_out" transform="scale(0.3 0.3)">
  <a xlink:href="classmc_1_1optim_1_1PSO_a19b3b1fbd4b9386fbac33a9c80a0c0b9_cgraph_org.svg" target="_base">
   <rect id="button" ry="5" rx="5" y="6" x="6" height="38" width="38"
        fill="#f2f5e9" fill-opacity="0.5" stroke="#606060" stroke-width="1.0"/>
   <path id="arrow"
     d="M 11.500037,31.436501 C 11.940474,20.09759 22.043105,11.32322 32.158766,21.979434 L 37.068811,17.246167 C 37.068811,17.246167 37.088388,32 37.088388,32 L 22.160133,31.978069 C 22.160133,31.978069 26.997745,27.140456 26.997745,27.140456 C 18.528582,18.264221 13.291696,25.230495 11.500037,31.436501 z"
     style="fill:#404040;"/>
  </a>
 </g>
</svg>

<style type='text/css'>
<![CDATA[
[data-mouse-over-selected='false'] { opacity: 0.7; }
[data-mouse-over-selected='true']  { opacity: 1.0; }
]]>
</style>
<script type="application/ecmascript"><![CDATA[
document.addEventListener('DOMContentLoaded', (event) => {
  highlightEdges();
  highlightAdjacentNodes();
});
]]></script>
</svg>
