<?xml version="1.0" encoding="UTF-8" standalone="no"?>
<!DOCTYPE svg PUBLIC "-//W3C//DTD SVG 1.1//EN"
 "http://www.w3.org/Graphics/SVG/1.1/DTD/svg11.dtd">
<!-- Generated by graphviz version 2.43.0 (0)
 -->
<!-- Title: mc::proposals::GaussianProposal&lt; dim &gt; Pages: 1 -->
<svg width="180pt" height="224pt"
 viewBox="0.00 0.00 180.00 224.00" xmlns="http://www.w3.org/2000/svg" xmlns:xlink="http://www.w3.org/1999/xlink">

<svg id="main" version="1.1" xmlns="http://www.w3.org/2000/svg" xmlns:xlink="http://www.w3.org/1999/xlink" xml:space="preserve" onload="init(evt)">
<style type="text/css"><![CDATA[
.node, .edge {opacity: 0.7;}
.node.selected, .edge.selected {opacity: 1;}
.edge:hover path { stroke: red; }
.edge:hover polygon { stroke: red; fill: red; }
]]></style>
<script type="application/ecmascript" xlink:href="svg.min.js"/>
<svg id="graph" class="graph">
<g id="graph0" class="graph" transform="scale(1 1) rotate(0) translate(4 220)">
<title>mc::proposals::GaussianProposal&lt; dim &gt;</title>
<!-- Node1 -->
<g id="Node000001" class="node">
<title>Node1</title>
<g id="a_Node000001"><a xlink:title=" ">
<polygon fill="#999999" stroke="transparent" points="172,-90 0,-90 0,0 172,0 172,-90"/>
<text text-anchor="start" x="5" y="-78" font-family="Helvetica,sans-Serif" font-size="10.00">mc::proposals::GaussianProposal</text>
<text text-anchor="start" x="65" y="-67" font-family="Helvetica,sans-Serif" font-size="10.00">&lt; dim &gt;</text>
<text text-anchor="start" x="84" y="-52" font-family="Helvetica,sans-Serif" font-size="10.00"> </text>
<text text-anchor="start" x="18" y="-37" font-family="Helvetica,sans-Serif" font-size="10.00">+</text>
<text text-anchor="start" x="45" y="-37" font-family="Helvetica,sans-Serif" font-size="10.00">GaussianProposal()</text>
<text text-anchor="start" x="18" y="-22" font-family="Helvetica,sans-Serif" font-size="10.00">+</text>
<text text-anchor="start" x="45" y="-22" font-family="Helvetica,sans-Serif" font-size="10.00">sample()</text>
<text text-anchor="start" x="18" y="-7" font-family="Helvetica,sans-Serif" font-size="10.00">+</text>
<text text-anchor="start" x="45" y="-7" font-family="Helvetica,sans-Serif" font-size="10.00">pdf()</text>
<polygon fill="#666666" stroke="#666666" points="0,-62 0,-62 172,-62 172,-62 0,-62"/>
<polygon fill="#666666" stroke="#666666" points="0,-47 0,-47 172,-47 172,-47 0,-47"/>
<polygon fill="none" stroke="#666666" points="0,0 0,-90 172,-90 172,0 0,0"/>
</a>
</g>
</g>
<!-- Node2 -->
<g id="Node000002" class="node">
<title>Node2</title>
<g id="a_Node000002"><a xlink:href="classmc_1_1proposals_1_1Proposal.html" target="_top" xlink:title="Abstract proposal distribution interface.">
<polygon fill="white" stroke="transparent" points="149.5,-216 22.5,-216 22.5,-126 149.5,-126 149.5,-216"/>
<text text-anchor="start" x="28" y="-204" font-family="Helvetica,sans-Serif" font-size="10.00">mc::proposals::Proposal</text>
<text text-anchor="start" x="65.5" y="-193" font-family="Helvetica,sans-Serif" font-size="10.00">&lt; dim &gt;</text>
<text text-anchor="start" x="84.5" y="-178" font-family="Helvetica,sans-Serif" font-size="10.00"> </text>
<text text-anchor="start" x="39" y="-163" font-family="Helvetica,sans-Serif" font-size="10.00">+</text>
<text text-anchor="start" x="64" y="-163" font-family="Helvetica,sans-Serif" font-size="10.00">~Proposal()</text>
<text text-anchor="start" x="39" y="-148" font-family="Helvetica,sans-Serif" font-size="10.00">+</text>
<text text-anchor="start" x="64" y="-148" font-family="Helvetica,sans-Serif" font-size="10.00">sample()</text>
<text text-anchor="start" x="39" y="-133" font-family="Helvetica,sans-Serif" font-size="10.00">+</text>
<text text-anchor="start" x="64" y="-133" font-family="Helvetica,sans-Serif" font-size="10.00">pdf()</text>
<polygon fill="#666666" stroke="#666666" points="23,-188 23,-188 150,-188 150,-188 23,-188"/>
<polygon fill="#666666" stroke="#666666" points="23,-173 23,-173 150,-173 150,-173 23,-173"/>
<polygon fill="none" stroke="#666666" points="22.5,-126 22.5,-216 149.5,-216 149.5,-126 22.5,-126"/>
</a>
</g>
</g>
<!-- Node2&#45;&gt;Node1 -->
<g id="edge1_Node000001_Node000002" class="edge">
<title>Node2&#45;&gt;Node1</title>
<g id="a_edge1_Node000001_Node000002"><a xlink:title=" ">
<path fill="none" stroke="#63b8ff" d="M86,-115.73C86,-107.25 86,-98.57 86,-90.34"/>
<polygon fill="none" stroke="#63b8ff" points="82.5,-115.93 86,-125.93 89.5,-115.93 82.5,-115.93"/>
</a>
</g>
</g>
</g>
</svg>
</svg>

<style type='text/css'>
<![CDATA[
[data-mouse-over-selected='false'] { opacity: 0.7; }
[data-mouse-over-selected='true']  { opacity: 1.0; }
]]>
</style>
<script type="application/ecmascript"><![CDATA[
document.addEventListener('DOMContentLoaded', (event) => {
  highlightEdges();
  highlightAdjacentNodes();
});
]]></script>
</svg>
