<?xml version="1.0" encoding="UTF-8" standalone="no"?>
<!DOCTYPE svg PUBLIC "-//W3C//DTD SVG 1.1//EN"
 "http://www.w3.org/Graphics/SVG/1.1/DTD/svg11.dtd">
<!-- Generated by graphviz version 2.43.0 (0)
 -->
<!-- Title: mc::integrators::MHMontecarloIntegrator&lt; dim &gt; Pages: 1 -->
<svg width="170pt" height="254pt"
 viewBox="0.00 0.00 170.00 254.00" xmlns="http://www.w3.org/2000/svg" xmlns:xlink="http://www.w3.org/1999/xlink">
<g id="graph0" class="graph" transform="scale(1 1) rotate(0) translate(4 250)">
<title>mc::integrators::MHMontecarloIntegrator&lt; dim &gt;</title>
<!-- Node1 -->
<g id="Node000001" class="node">
<title>Node1</title>
<g id="a_Node000001"><a xlink:title="Metropolis&#45;Hastings MCMC integrator for complex domains.">
<polygon fill="#999999" stroke="transparent" points="162,-90 0,-90 0,0 162,0 162,-90"/>
<text text-anchor="start" x="5" y="-78" font-family="Helvetica,sans-Serif" font-size="10.00">mc::integrators::MHMontecarlo</text>
<text text-anchor="start" x="36" y="-67" font-family="Helvetica,sans-Serif" font-size="10.00">Integrator&lt; dim &gt;</text>
<text text-anchor="start" x="79" y="-52" font-family="Helvetica,sans-Serif" font-size="10.00"> </text>
<text text-anchor="start" x="7.5" y="-37" font-family="Helvetica,sans-Serif" font-size="10.00">+</text>
<text text-anchor="start" x="24" y="-37" font-family="Helvetica,sans-Serif" font-size="10.00">MHMontecarloIntegrator()</text>
<text text-anchor="start" x="7.5" y="-22" font-family="Helvetica,sans-Serif" font-size="10.00">+</text>
<text text-anchor="start" x="24" y="-22" font-family="Helvetica,sans-Serif" font-size="10.00">integrate()</text>
<text text-anchor="start" x="7.5" y="-7" font-family="Helvetica,sans-Serif" font-size="10.00">+</text>
<text text-anchor="start" x="24" y="-7" font-family="Helvetica,sans-Serif" font-size="10.00">setConfig()</text>
<polygon fill="#666666" stroke="#666666" points="0,-62 0,-62 162,-62 162,-62 0,-62"/>
<polygon fill="#666666" stroke="#666666" points="0,-47 0,-47 162,-47 162,-47 0,-47"/>
<polygon fill="none" stroke="#666666" points="0,0 0,-90 162,-90 162,0 0,0"/>
</a>
</g>
</g>
<!-- Node2 -->
<g id="Node000002" class="node">
<title>Node2</title>
<g id="a_Node000002"><a xlink:href="classmc_1_1integrators_1_1Integrator.html" target="_top" xlink:title="Abstract base class for Monte Carlo integration in N dimensions.">
<polygon fill="white" stroke="transparent" points="150.5,-246 11.5,-246 11.5,-126 150.5,-126 150.5,-246"/>
<text text-anchor="start" x="17" y="-234" font-family="Helvetica,sans-Serif" font-size="10.00">mc::integrators::Integrator</text>
<text text-anchor="start" x="60.5" y="-223" font-family="Helvetica,sans-Serif" font-size="10.00">&lt; dim &gt;</text>
<text text-anchor="start" x="18" y="-208" font-family="Helvetica,sans-Serif" font-size="10.00">#</text>
<text text-anchor="start" x="33" y="-208" font-family="Helvetica,sans-Serif" font-size="10.00">domain</text>
<text text-anchor="start" x="18" y="-193" font-family="Helvetica,sans-Serif" font-size="10.00">#</text>
<text text-anchor="start" x="33" y="-193" font-family="Helvetica,sans-Serif" font-size="10.00">randomizer</text>
<text text-anchor="start" x="18" y="-178" font-family="Helvetica,sans-Serif" font-size="10.00">+</text>
<text text-anchor="start" x="33" y="-178" font-family="Helvetica,sans-Serif" font-size="10.00">Integrator()</text>
<text text-anchor="start" x="18" y="-163" font-family="Helvetica,sans-Serif" font-size="10.00">+</text>
<text text-anchor="start" x="33" y="-163" font-family="Helvetica,sans-Serif" font-size="10.00">integrate()</text>
<text text-anchor="start" x="18" y="-148" font-family="Helvetica,sans-Serif" font-size="10.00">+</text>
<text text-anchor="start" x="33" y="-148" font-family="Helvetica,sans-Serif" font-size="10.00">~Integrator()</text>
<text text-anchor="start" x="18" y="-133" font-family="Helvetica,sans-Serif" font-size="10.00">#</text>
<text text-anchor="start" x="33" y="-133" font-family="Helvetica,sans-Serif" font-size="10.00">initializeRandomizer()</text>
<polygon fill="#666666" stroke="#666666" points="12,-218 12,-218 151,-218 151,-218 12,-218"/>
<polygon fill="#666666" stroke="#666666" points="12,-188 12,-188 31,-188 31,-188 12,-188"/>
<polygon fill="#666666" stroke="#666666" points="31,-188 31,-188 151,-188 151,-188 31,-188"/>
<polygon fill="none" stroke="#666666" points="11.5,-126 11.5,-246 150.5,-246 150.5,-126 11.5,-126"/>
</a>
</g>
</g>
<!-- Node2&#45;&gt;Node1 -->
<g id="edge1_Node000001_Node000002" class="edge">
<title>Node2&#45;&gt;Node1</title>
<g id="a_edge1_Node000001_Node000002"><a xlink:title=" ">
<path fill="none" stroke="#63b8ff" d="M81,-115.5C81,-106.82 81,-98.15 81,-90.01"/>
<polygon fill="none" stroke="#63b8ff" points="77.5,-115.65 81,-125.65 84.5,-115.65 77.5,-115.65"/>
</a>
</g>
</g>
</g>
</svg>
