<?xml version="1.0" encoding="UTF-8" standalone="no"?>
<!DOCTYPE svg PUBLIC "-//W3C//DTD SVG 1.1//EN"
 "http://www.w3.org/Graphics/SVG/1.1/DTD/svg11.dtd">
<!-- Generated by graphviz version 2.43.0 (0)
 -->
<!-- Title: mc::integrators::MontecarloIntegrator&lt; dim &gt; Pages: 1 -->
<svg width="154pt" height="254pt"
 viewBox="0.00 0.00 154.00 254.00" xmlns="http://www.w3.org/2000/svg" xmlns:xlink="http://www.w3.org/1999/xlink">
<g id="graph0" class="graph" transform="scale(1 1) rotate(0) translate(4 250)">
<title>mc::integrators::MontecarloIntegrator&lt; dim &gt;</title>
<!-- Node1 -->
<g id="Node000001" class="node">
<title>Node1</title>
<g id="a_Node000001"><a xlink:title="Uniform&#45;sampling Monte Carlo integrator for N&#45;dimensional domains.">
<polygon fill="#999999" stroke="transparent" points="146,-90 0,-90 0,0 146,0 146,-90"/>
<text text-anchor="start" x="5" y="-78" font-family="Helvetica,sans-Serif" font-size="10.00">mc::integrators::Montecarlo</text>
<text text-anchor="start" x="28" y="-67" font-family="Helvetica,sans-Serif" font-size="10.00">Integrator&lt; dim &gt;</text>
<text text-anchor="start" x="71" y="-52" font-family="Helvetica,sans-Serif" font-size="10.00"> </text>
<text text-anchor="start" x="7.5" y="-37" font-family="Helvetica,sans-Serif" font-size="10.00">+</text>
<text text-anchor="start" x="24" y="-37" font-family="Helvetica,sans-Serif" font-size="10.00">MontecarloIntegrator()</text>
<text text-anchor="start" x="7.5" y="-22" font-family="Helvetica,sans-Serif" font-size="10.00">+</text>
<text text-anchor="start" x="24" y="-22" font-family="Helvetica,sans-Serif" font-size="10.00">OLDintegrate()</text>
<text text-anchor="start" x="7.5" y="-7" font-family="Helvetica,sans-Serif" font-size="10.00">+</text>
<text text-anchor="start" x="24" y="-7" font-family="Helvetica,sans-Serif" font-size="10.00">integrate()</text>
<polygon fill="#666666" stroke="#666666" points="0,-62 0,-62 146,-62 146,-62 0,-62"/>
<polygon fill="#666666" stroke="#666666" points="0,-47 0,-47 146,-47 146,-47 0,-47"/>
<polygon fill="none" stroke="#666666" points="0,0 0,-90 146,-90 146,0 0,0"/>
</a>
</g>
</g>
<!-- Node2 -->
<g id="Node000002" class="node">
<title>Node2</title>
<g id="a_Node000002"><a xlink:href="classmc_1_1integrators_1_1Integrator.html" target="_top" xlink:title="Abstract base class for Monte Carlo integration in N dimensions.">
<polygon fill="white" stroke="transparent" points="142.5,-246 3.5,-246 3.5,-126 142.5,-126 142.5,-246"/>
<text text-anchor="start" x="9" y="-234" font-family="Helvetica,sans-Serif" font-size="10.00">mc::integrators::Integrator</text>
<text text-anchor="start" x="52.5" y="-223" font-family="Helvetica,sans-Serif" font-size="10.00">&lt; dim &gt;</text>
<text text-anchor="start" x="10" y="-208" font-family="Helvetica,sans-Serif" font-size="10.00">#</text>
<text text-anchor="start" x="25" y="-208" font-family="Helvetica,sans-Serif" font-size="10.00">domain</text>
<text text-anchor="start" x="10" y="-193" font-family="Helvetica,sans-Serif" font-size="10.00">#</text>
<text text-anchor="start" x="25" y="-193" font-family="Helvetica,sans-Serif" font-size="10.00">randomizer</text>
<text text-anchor="start" x="10" y="-178" font-family="Helvetica,sans-Serif" font-size="10.00">+</text>
<text text-anchor="start" x="25" y="-178" font-family="Helvetica,sans-Serif" font-size="10.00">Integrator()</text>
<text text-anchor="start" x="10" y="-163" font-family="Helvetica,sans-Serif" font-size="10.00">+</text>
<text text-anchor="start" x="25" y="-163" font-family="Helvetica,sans-Serif" font-size="10.00">integrate()</text>
<text text-anchor="start" x="10" y="-148" font-family="Helvetica,sans-Serif" font-size="10.00">+</text>
<text text-anchor="start" x="25" y="-148" font-family="Helvetica,sans-Serif" font-size="10.00">~Integrator()</text>
<text text-anchor="start" x="10" y="-133" font-family="Helvetica,sans-Serif" font-size="10.00">#</text>
<text text-anchor="start" x="25" y="-133" font-family="Helvetica,sans-Serif" font-size="10.00">initializeRandomizer()</text>
<polygon fill="#666666" stroke="#666666" points="4,-218 4,-218 143,-218 143,-218 4,-218"/>
<polygon fill="#666666" stroke="#666666" points="4,-188 4,-188 23,-188 23,-188 4,-188"/>
<polygon fill="#666666" stroke="#666666" points="23,-188 23,-188 143,-188 143,-188 23,-188"/>
<polygon fill="none" stroke="#666666" points="3.5,-126 3.5,-246 142.5,-246 142.5,-126 3.5,-126"/>
</a>
</g>
</g>
<!-- Node2&#45;&gt;Node1 -->
<g id="edge1_Node000001_Node000002" class="edge">
<title>Node2&#45;&gt;Node1</title>
<g id="a_edge1_Node000001_Node000002"><a xlink:title=" ">
<path fill="none" stroke="#63b8ff" d="M73,-115.5C73,-106.82 73,-98.15 73,-90.01"/>
<polygon fill="none" stroke="#63b8ff" points="69.5,-115.65 73,-125.65 76.5,-115.65 69.5,-115.65"/>
</a>
</g>
</g>
</g>
</svg>
