<?xml version="1.0" encoding="UTF-8" standalone="no"?>
<!DOCTYPE svg PUBLIC "-//W3C//DTD SVG 1.1//EN"
 "http://www.w3.org/Graphics/SVG/1.1/DTD/svg11.dtd">
<!-- Generated by graphviz version 2.43.0 (0)
 -->
<!-- Title: mc::optim::Optimizer Pages: 1 -->
<svg width="290pt" height="367pt"
 viewBox="0.00 0.00 290.00 367.00" xmlns="http://www.w3.org/2000/svg" xmlns:xlink="http://www.w3.org/1999/xlink">
<g id="graph0" class="graph" transform="scale(1 1) rotate(0) translate(4 363)">
<title>mc::optim::Optimizer</title>
<!-- Node1 -->
<g id="Node000001" class="node">
<title>Node1</title>
<g id="a_Node000001"><a xlink:title="Abstract base class for all optimization algorithms.">
<polygon fill="#999999" stroke="transparent" points="207,-359 75,-359 75,-205 207,-205 207,-359"/>
<text text-anchor="start" x="89" y="-347" font-family="Helvetica,sans-Serif" font-size="10.00">mc::optim::Optimizer</text>
<text text-anchor="start" x="139" y="-332" font-family="Helvetica,sans-Serif" font-size="10.00"> </text>
<text text-anchor="start" x="79" y="-317" font-family="Helvetica,sans-Serif" font-size="10.00">+</text>
<text text-anchor="start" x="92" y="-317" font-family="Helvetica,sans-Serif" font-size="10.00">~Optimizer()</text>
<text text-anchor="start" x="79" y="-302" font-family="Helvetica,sans-Serif" font-size="10.00">+</text>
<text text-anchor="start" x="92" y="-302" font-family="Helvetica,sans-Serif" font-size="10.00">setObjectiveFunction()</text>
<text text-anchor="start" x="79" y="-287" font-family="Helvetica,sans-Serif" font-size="10.00">+</text>
<text text-anchor="start" x="92" y="-287" font-family="Helvetica,sans-Serif" font-size="10.00">setBounds()</text>
<text text-anchor="start" x="79" y="-272" font-family="Helvetica,sans-Serif" font-size="10.00">+</text>
<text text-anchor="start" x="92" y="-272" font-family="Helvetica,sans-Serif" font-size="10.00">setMode()</text>
<text text-anchor="start" x="79" y="-257" font-family="Helvetica,sans-Serif" font-size="10.00">+</text>
<text text-anchor="start" x="92" y="-257" font-family="Helvetica,sans-Serif" font-size="10.00">setCallback()</text>
<text text-anchor="start" x="79" y="-242" font-family="Helvetica,sans-Serif" font-size="10.00">+</text>
<text text-anchor="start" x="92" y="-242" font-family="Helvetica,sans-Serif" font-size="10.00">optimize()</text>
<text text-anchor="start" x="79" y="-227" font-family="Helvetica,sans-Serif" font-size="10.00">+</text>
<text text-anchor="start" x="92" y="-227" font-family="Helvetica,sans-Serif" font-size="10.00">step()</text>
<text text-anchor="start" x="79" y="-212" font-family="Helvetica,sans-Serif" font-size="10.00">+</text>
<text text-anchor="start" x="92" y="-212" font-family="Helvetica,sans-Serif" font-size="10.00">getBestSolution()</text>
<polygon fill="#666666" stroke="#666666" points="75,-342 75,-342 207,-342 207,-342 75,-342"/>
<polygon fill="#666666" stroke="#666666" points="75,-327 75,-327 207,-327 207,-327 75,-327"/>
<polygon fill="none" stroke="#666666" points="75,-205 75,-359 207,-359 207,-205 75,-205"/>
</a>
</g>
</g>
<!-- Node2 -->
<g id="Node000002" class="node">
<title>Node2</title>
<g id="a_Node000002"><a xlink:href="classmc_1_1optim_1_1GA.html" target="_top" xlink:title="Genetic Algorithm optimizer.">
<polygon fill="white" stroke="transparent" points="132,-169 0,-169 0,0 132,0 132,-169"/>
<text text-anchor="start" x="31" y="-156.5" font-family="Helvetica,sans-Serif" font-size="10.00">mc::optim::GA</text>
<text text-anchor="start" x="64" y="-141.5" font-family="Helvetica,sans-Serif" font-size="10.00"> </text>
<text text-anchor="start" x="4" y="-126.5" font-family="Helvetica,sans-Serif" font-size="10.00">+</text>
<text text-anchor="start" x="17" y="-126.5" font-family="Helvetica,sans-Serif" font-size="10.00">GA()</text>
<text text-anchor="start" x="4" y="-111.5" font-family="Helvetica,sans-Serif" font-size="10.00">+</text>
<text text-anchor="start" x="17" y="-111.5" font-family="Helvetica,sans-Serif" font-size="10.00">setObjectiveFunction()</text>
<text text-anchor="start" x="4" y="-96.5" font-family="Helvetica,sans-Serif" font-size="10.00">+</text>
<text text-anchor="start" x="17" y="-96.5" font-family="Helvetica,sans-Serif" font-size="10.00">setBounds()</text>
<text text-anchor="start" x="4" y="-81.5" font-family="Helvetica,sans-Serif" font-size="10.00">+</text>
<text text-anchor="start" x="17" y="-81.5" font-family="Helvetica,sans-Serif" font-size="10.00">setMode()</text>
<text text-anchor="start" x="4" y="-66.5" font-family="Helvetica,sans-Serif" font-size="10.00">+</text>
<text text-anchor="start" x="17" y="-66.5" font-family="Helvetica,sans-Serif" font-size="10.00">setCallback()</text>
<text text-anchor="start" x="4" y="-51.5" font-family="Helvetica,sans-Serif" font-size="10.00">+</text>
<text text-anchor="start" x="17" y="-51.5" font-family="Helvetica,sans-Serif" font-size="10.00">optimize()</text>
<text text-anchor="start" x="4" y="-36.5" font-family="Helvetica,sans-Serif" font-size="10.00">+</text>
<text text-anchor="start" x="17" y="-36.5" font-family="Helvetica,sans-Serif" font-size="10.00">step()</text>
<text text-anchor="start" x="4" y="-21.5" font-family="Helvetica,sans-Serif" font-size="10.00">+</text>
<text text-anchor="start" x="17" y="-21.5" font-family="Helvetica,sans-Serif" font-size="10.00">getBestSolution()</text>
<text text-anchor="start" x="4" y="-6.5" font-family="Helvetica,sans-Serif" font-size="10.00">+</text>
<text text-anchor="start" x="17" y="-6.5" font-family="Helvetica,sans-Serif" font-size="10.00">getPopulation()</text>
<polygon fill="#666666" stroke="#666666" points="0,-151.5 0,-151.5 132,-151.5 132,-151.5 0,-151.5"/>
<polygon fill="#666666" stroke="#666666" points="0,-136.5 0,-136.5 132,-136.5 132,-136.5 0,-136.5"/>
<polygon fill="none" stroke="#666666" points="0,0 0,-169 132,-169 132,0 0,0"/>
</a>
</g>
</g>
<!-- Node1&#45;&gt;Node2 -->
<g id="edge1_Node000001_Node000002" class="edge">
<title>Node1&#45;&gt;Node2</title>
<g id="a_edge1_Node000001_Node000002"><a xlink:title=" ">
<path fill="none" stroke="#63b8ff" d="M108.19,-195.46C104.84,-186.75 101.45,-177.9 98.11,-169.21"/>
<polygon fill="none" stroke="#63b8ff" points="104.94,-196.77 111.79,-204.85 111.47,-194.26 104.94,-196.77"/>
</a>
</g>
</g>
<!-- Node3 -->
<g id="Node000003" class="node">
<title>Node3</title>
<g id="a_Node000003"><a xlink:href="classmc_1_1optim_1_1PSO.html" target="_top" xlink:title="Particle Swarm Optimization algorithm.">
<polygon fill="white" stroke="transparent" points="282,-169 150,-169 150,0 282,0 282,-169"/>
<text text-anchor="start" x="178" y="-156.5" font-family="Helvetica,sans-Serif" font-size="10.00">mc::optim::PSO</text>
<text text-anchor="start" x="214" y="-141.5" font-family="Helvetica,sans-Serif" font-size="10.00"> </text>
<text text-anchor="start" x="154" y="-126.5" font-family="Helvetica,sans-Serif" font-size="10.00">+</text>
<text text-anchor="start" x="167" y="-126.5" font-family="Helvetica,sans-Serif" font-size="10.00">PSO()</text>
<text text-anchor="start" x="154" y="-111.5" font-family="Helvetica,sans-Serif" font-size="10.00">+</text>
<text text-anchor="start" x="167" y="-111.5" font-family="Helvetica,sans-Serif" font-size="10.00">setObjectiveFunction()</text>
<text text-anchor="start" x="154" y="-96.5" font-family="Helvetica,sans-Serif" font-size="10.00">+</text>
<text text-anchor="start" x="167" y="-96.5" font-family="Helvetica,sans-Serif" font-size="10.00">setBounds()</text>
<text text-anchor="start" x="154" y="-81.5" font-family="Helvetica,sans-Serif" font-size="10.00">+</text>
<text text-anchor="start" x="167" y="-81.5" font-family="Helvetica,sans-Serif" font-size="10.00">setMode()</text>
<text text-anchor="start" x="154" y="-66.5" font-family="Helvetica,sans-Serif" font-size="10.00">+</text>
<text text-anchor="start" x="167" y="-66.5" font-family="Helvetica,sans-Serif" font-size="10.00">setCallback()</text>
<text text-anchor="start" x="154" y="-51.5" font-family="Helvetica,sans-Serif" font-size="10.00">+</text>
<text text-anchor="start" x="167" y="-51.5" font-family="Helvetica,sans-Serif" font-size="10.00">optimize()</text>
<text text-anchor="start" x="154" y="-36.5" font-family="Helvetica,sans-Serif" font-size="10.00">+</text>
<text text-anchor="start" x="167" y="-36.5" font-family="Helvetica,sans-Serif" font-size="10.00">step()</text>
<text text-anchor="start" x="154" y="-21.5" font-family="Helvetica,sans-Serif" font-size="10.00">+</text>
<text text-anchor="start" x="167" y="-21.5" font-family="Helvetica,sans-Serif" font-size="10.00">getBestSolution()</text>
<text text-anchor="start" x="154" y="-6.5" font-family="Helvetica,sans-Serif" font-size="10.00">+</text>
<text text-anchor="start" x="167" y="-6.5" font-family="Helvetica,sans-Serif" font-size="10.00">getParticles()</text>
<polygon fill="#666666" stroke="#666666" points="150,-151.5 150,-151.5 282,-151.5 282,-151.5 150,-151.5"/>
<polygon fill="#666666" stroke="#666666" points="150,-136.5 150,-136.5 282,-136.5 282,-136.5 150,-136.5"/>
<polygon fill="none" stroke="#666666" points="150,0 150,-169 282,-169 282,0 150,0"/>
</a>
</g>
</g>
<!-- Node1&#45;&gt;Node3 -->
<g id="edge2_Node000001_Node000003" class="edge">
<title>Node1&#45;&gt;Node3</title>
<g id="a_edge2_Node000001_Node000003"><a xlink:title=" ">
<path fill="none" stroke="#63b8ff" d="M173.81,-195.46C177.16,-186.75 180.55,-177.9 183.89,-169.21"/>
<polygon fill="none" stroke="#63b8ff" points="170.53,-194.26 170.21,-204.85 177.06,-196.77 170.53,-194.26"/>
</a>
</g>
</g>
</g>
</svg>
