<?xml version="1.0" encoding="UTF-8" standalone="no"?>
<!DOCTYPE svg PUBLIC "-//W3C//DTD SVG 1.1//EN"
 "http://www.w3.org/Graphics/SVG/1.1/DTD/svg11.dtd">
<!-- Generated by graphviz version 2.43.0 (0)
 -->
<!-- Title: mc::domains::HyperRectangle&lt; dim &gt; Pages: 1 -->
<svg width="166pt" height="254pt"
 viewBox="0.00 0.00 166.00 254.00" xmlns="http://www.w3.org/2000/svg" xmlns:xlink="http://www.w3.org/1999/xlink">

<svg id="main" version="1.1" xmlns="http://www.w3.org/2000/svg" xmlns:xlink="http://www.w3.org/1999/xlink" xml:space="preserve" onload="init(evt)">
<style type="text/css"><![CDATA[
.node, .edge {opacity: 0.7;}
.node.selected, .edge.selected {opacity: 1;}
.edge:hover path { stroke: red; }
.edge:hover polygon { stroke: red; fill: red; }
]]></style>
<script type="application/ecmascript" xlink:href="svg.min.js"/>
<svg id="graph" class="graph">
<g id="graph0" class="graph" transform="scale(1 1) rotate(0) translate(4 250)">
<title>mc::domains::HyperRectangle&lt; dim &gt;</title>
<!-- Node1 -->
<g id="Node000001" class="node">
<title>Node1</title>
<g id="a_Node000001"><a xlink:title="Axis&#45;aligned hyperrectangular domain.">
<polygon fill="#999999" stroke="transparent" points="158,-105 0,-105 0,0 158,0 158,-105"/>
<text text-anchor="start" x="5" y="-92.5" font-family="Helvetica,sans-Serif" font-size="10.00">mc::domains::HyperRectangle</text>
<text text-anchor="start" x="58" y="-81.5" font-family="Helvetica,sans-Serif" font-size="10.00">&lt; dim &gt;</text>
<text text-anchor="start" x="77" y="-66.5" font-family="Helvetica,sans-Serif" font-size="10.00"> </text>
<text text-anchor="start" x="16.5" y="-51.5" font-family="Helvetica,sans-Serif" font-size="10.00">+</text>
<text text-anchor="start" x="42" y="-51.5" font-family="Helvetica,sans-Serif" font-size="10.00">HyperRectangle()</text>
<text text-anchor="start" x="16.5" y="-36.5" font-family="Helvetica,sans-Serif" font-size="10.00">+</text>
<text text-anchor="start" x="42" y="-36.5" font-family="Helvetica,sans-Serif" font-size="10.00">getBounds()</text>
<text text-anchor="start" x="16.5" y="-21.5" font-family="Helvetica,sans-Serif" font-size="10.00">+</text>
<text text-anchor="start" x="42" y="-21.5" font-family="Helvetica,sans-Serif" font-size="10.00">getBoxVolume()</text>
<text text-anchor="start" x="16.5" y="-6.5" font-family="Helvetica,sans-Serif" font-size="10.00">+</text>
<text text-anchor="start" x="42" y="-6.5" font-family="Helvetica,sans-Serif" font-size="10.00">isInside()</text>
<polygon fill="#666666" stroke="#666666" points="0,-76.5 0,-76.5 158,-76.5 158,-76.5 0,-76.5"/>
<polygon fill="#666666" stroke="#666666" points="0,-61.5 0,-61.5 158,-61.5 158,-61.5 0,-61.5"/>
<polygon fill="none" stroke="#666666" points="0,0 0,-105 158,-105 158,0 0,0"/>
</a>
</g>
</g>
<!-- Node2 -->
<g id="Node000002" class="node">
<title>Node2</title>
<g id="a_Node000002"><a xlink:href="classmc_1_1domains_1_1IntegrationDomain.html" target="_top" xlink:title="Abstract base class for N&#45;dimensional integration domains.">
<polygon fill="white" stroke="transparent" points="145.5,-246 12.5,-246 12.5,-141 145.5,-141 145.5,-246"/>
<text text-anchor="start" x="18" y="-233.5" font-family="Helvetica,sans-Serif" font-size="10.00">mc::domains::Integration</text>
<text text-anchor="start" x="39.5" y="-222.5" font-family="Helvetica,sans-Serif" font-size="10.00">Domain&lt; dim &gt;</text>
<text text-anchor="start" x="77.5" y="-207.5" font-family="Helvetica,sans-Serif" font-size="10.00"> </text>
<text text-anchor="start" x="18" y="-192.5" font-family="Helvetica,sans-Serif" font-size="10.00">+</text>
<text text-anchor="start" x="32" y="-192.5" font-family="Helvetica,sans-Serif" font-size="10.00">getBounds()</text>
<text text-anchor="start" x="18" y="-177.5" font-family="Helvetica,sans-Serif" font-size="10.00">+</text>
<text text-anchor="start" x="32" y="-177.5" font-family="Helvetica,sans-Serif" font-size="10.00">getBoxVolume()</text>
<text text-anchor="start" x="18" y="-162.5" font-family="Helvetica,sans-Serif" font-size="10.00">+</text>
<text text-anchor="start" x="32" y="-162.5" font-family="Helvetica,sans-Serif" font-size="10.00">isInside()</text>
<text text-anchor="start" x="18" y="-147.5" font-family="Helvetica,sans-Serif" font-size="10.00">+</text>
<text text-anchor="start" x="32" y="-147.5" font-family="Helvetica,sans-Serif" font-size="10.00">~IntegrationDomain()</text>
<polygon fill="#666666" stroke="#666666" points="13,-217.5 13,-217.5 146,-217.5 146,-217.5 13,-217.5"/>
<polygon fill="#666666" stroke="#666666" points="13,-202.5 13,-202.5 146,-202.5 146,-202.5 13,-202.5"/>
<polygon fill="none" stroke="#666666" points="12.5,-141 12.5,-246 145.5,-246 145.5,-141 12.5,-141"/>
</a>
</g>
</g>
<!-- Node2&#45;&gt;Node1 -->
<g id="edge1_Node000001_Node000002" class="edge">
<title>Node2&#45;&gt;Node1</title>
<g id="a_edge1_Node000001_Node000002"><a xlink:title=" ">
<path fill="none" stroke="#63b8ff" d="M79,-130.56C79,-122.12 79,-113.53 79,-105.3"/>
<polygon fill="none" stroke="#63b8ff" points="75.5,-130.74 79,-140.74 82.5,-130.74 75.5,-130.74"/>
</a>
</g>
</g>
</g>
</svg>
</svg>

<style type='text/css'>
<![CDATA[
[data-mouse-over-selected='false'] { opacity: 0.7; }
[data-mouse-over-selected='true']  { opacity: 1.0; }
]]>
</style>
<script type="application/ecmascript"><![CDATA[
document.addEventListener('DOMContentLoaded', (event) => {
  highlightEdges();
  highlightAdjacentNodes();
});
]]></script>
</svg>
