<?xml version="1.0" encoding="UTF-8" standalone="no"?>
<!DOCTYPE svg PUBLIC "-//W3C//DTD SVG 1.1//EN"
 "http://www.w3.org/Graphics/SVG/1.1/DTD/svg11.dtd">
<!-- Generated by graphviz version 2.43.0 (0)
 -->
<!-- Title: mc::integrators::Integrator&lt; dim &gt; Pages: 1 -->
<!--zoomable 254 -->

<svg id="main" version="1.1" xmlns="http://www.w3.org/2000/svg" xmlns:xlink="http://www.w3.org/1999/xlink" xml:space="preserve" onload="init(evt)">
<style type="text/css"><![CDATA[
.node, .edge {opacity: 0.7;}
.node.selected, .edge.selected {opacity: 1;}
.edge:hover path { stroke: red; }
.edge:hover polygon { stroke: red; fill: red; }
]]></style>

<defs>
  <circle id="rim" cx="0" cy="0" r="7"/>
  <circle id="rim2" cx="0" cy="0" r="3.5"/>
  <g id="zoomPlus">
    <use xlink:href="#rim" fill="#404040"><set attributeName="fill" to="#808080" begin="zoomplus.mouseover" end="zoomplus.mouseout"/></use>
    <path d="M-4,0h8M0,-4v8" fill="none" stroke="white" stroke-width="1.5" pointer-events="none"/>
  </g>
  <g id="zoomMin">
    <use xlink:href="#rim" fill="#404040"><set attributeName="fill" to="#808080" begin="zoomminus.mouseover" end="zoomminus.mouseout"/></use>
    <path d="M-4,0h8" fill="none" stroke="white" stroke-width="1.5" pointer-events="none"/>
  </g>
  <g id="arrowUp" transform="translate(30 24)">
    <use xlink:href="#rim"/>
    <path pointer-events="none" fill="none" stroke="white" stroke-width="1.5" d="M0,-3.0v7 M-2.5,-0.5L0,-3.0L2.5,-0.5"/>
  </g>
  <g id="arrowRight" transform="rotate(90) translate(36 -43)">
    <use xlink:href="#rim"/>
    <path pointer-events="none" fill="none" stroke="white" stroke-width="1.5" d="M0,-3.0v7 M-2.5,-0.5L0,-3.0L2.5,-0.5"/>
  </g>
  <g id="arrowDown" transform="rotate(180) translate(-30 -48)">
    <use xlink:href="#rim"/>
    <path pointer-events="none" fill="none" stroke="white" stroke-width="1.5" d="M0,-3.0v7 M-2.5,-0.5L0,-3.0L2.5,-0.5"/>
  </g>
  <g id="arrowLeft" transform="rotate(270) translate(-36 17)">
    <use xlink:href="#rim"/>
    <path pointer-events="none" fill="none" stroke="white" stroke-width="1.5" d="M0,-3.0v7 M-2.5,-0.5L0,-3.0L2.5,-0.5"/>
  </g>
  <g id="resetDef">
    <use xlink:href="#rim2" fill="#404040"><set attributeName="fill" to="#808080" begin="reset.mouseover" end="reset.mouseout"/></use>
  </g>
</defs>
<script type="application/ecmascript">
var viewWidth = 508;
var viewHeight = 254;
var sectionId = 'dynsection-0';
</script>
<script type="application/ecmascript" xlink:href="svg.min.js"/>
<svg id="graph" class="graph">
<g id="viewport">
<title>mc::integrators::Integrator&lt; dim &gt;</title>
<!-- Node1 -->
<g id="Node000001" class="node">
<title>Node1</title>
<g id="a_Node000001"><a xlink:title="Abstract base class for Monte Carlo integration in N dimensions.">
<polygon fill="#999999" stroke="transparent" points="324,-246 185,-246 185,-126 324,-126 324,-246"/>
<text text-anchor="start" x="190.5" y="-234" font-family="Helvetica,sans-Serif" font-size="10.00">mc::integrators::Integrator</text>
<text text-anchor="start" x="234" y="-223" font-family="Helvetica,sans-Serif" font-size="10.00">&lt; dim &gt;</text>
<text text-anchor="start" x="191.5" y="-208" font-family="Helvetica,sans-Serif" font-size="10.00">#</text>
<text text-anchor="start" x="206.5" y="-208" font-family="Helvetica,sans-Serif" font-size="10.00">domain</text>
<text text-anchor="start" x="191.5" y="-193" font-family="Helvetica,sans-Serif" font-size="10.00">#</text>
<text text-anchor="start" x="206.5" y="-193" font-family="Helvetica,sans-Serif" font-size="10.00">randomizer</text>
<text text-anchor="start" x="191.5" y="-178" font-family="Helvetica,sans-Serif" font-size="10.00">+</text>
<text text-anchor="start" x="206.5" y="-178" font-family="Helvetica,sans-Serif" font-size="10.00">Integrator()</text>
<text text-anchor="start" x="191.5" y="-163" font-family="Helvetica,sans-Serif" font-size="10.00">+</text>
<text text-anchor="start" x="206.5" y="-163" font-family="Helvetica,sans-Serif" font-size="10.00">integrate()</text>
<text text-anchor="start" x="191.5" y="-148" font-family="Helvetica,sans-Serif" font-size="10.00">+</text>
<text text-anchor="start" x="206.5" y="-148" font-family="Helvetica,sans-Serif" font-size="10.00">~Integrator()</text>
<text text-anchor="start" x="191.5" y="-133" font-family="Helvetica,sans-Serif" font-size="10.00">#</text>
<text text-anchor="start" x="206.5" y="-133" font-family="Helvetica,sans-Serif" font-size="10.00">initializeRandomizer()</text>
<polygon fill="#666666" stroke="#666666" points="185.5,-218 185.5,-218 324.5,-218 324.5,-218 185.5,-218"/>
<polygon fill="#666666" stroke="#666666" points="185.5,-188 185.5,-188 204.5,-188 204.5,-188 185.5,-188"/>
<polygon fill="#666666" stroke="#666666" points="204.5,-188 204.5,-188 324.5,-188 324.5,-188 204.5,-188"/>
<polygon fill="none" stroke="#666666" points="185,-126 185,-246 324,-246 324,-126 185,-126"/>
</a>
</g>
</g>
<!-- Node2 -->
<g id="Node000002" class="node">
<title>Node2</title>
<g id="a_Node000002"><a xlink:href="classmc_1_1integrators_1_1ISMontecarloIntegrator.html" target="_top" xlink:title="Importance sampling Monte Carlo integrator.">
<polygon fill="white" stroke="transparent" points="155,-82.5 0,-82.5 0,-7.5 155,-7.5 155,-82.5"/>
<text text-anchor="start" x="5.5" y="-70" font-family="Helvetica,sans-Serif" font-size="10.00">mc::integrators::ISMontecarlo</text>
<text text-anchor="start" x="33" y="-59" font-family="Helvetica,sans-Serif" font-size="10.00">Integrator&lt; dim &gt;</text>
<text text-anchor="start" x="76" y="-44" font-family="Helvetica,sans-Serif" font-size="10.00"> </text>
<text text-anchor="start" x="8" y="-29" font-family="Helvetica,sans-Serif" font-size="10.00">+</text>
<text text-anchor="start" x="24.5" y="-29" font-family="Helvetica,sans-Serif" font-size="10.00">ISMontecarloIntegrator()</text>
<text text-anchor="start" x="8" y="-14" font-family="Helvetica,sans-Serif" font-size="10.00">+</text>
<text text-anchor="start" x="24.5" y="-14" font-family="Helvetica,sans-Serif" font-size="10.00">integrate()</text>
<polygon fill="#666666" stroke="#666666" points="0.5,-54 0.5,-54 155.5,-54 155.5,-54 0.5,-54"/>
<polygon fill="#666666" stroke="#666666" points="0.5,-39 0.5,-39 155.5,-39 155.5,-39 0.5,-39"/>
<polygon fill="none" stroke="#666666" points="0,-7.5 0,-82.5 155,-82.5 155,-7.5 0,-7.5"/>
</a>
</g>
</g>
<!-- Node1&#45;&gt;Node2 -->
<g id="edge1_Node000001_Node000002" class="edge">
<title>Node1&#45;&gt;Node2</title>
<g id="a_edge1_Node000001_Node000002"><a xlink:title=" ">
<path fill="none" stroke="#63b8ff" d="M176.6,-123.83C158.65,-109.73 140.11,-95.17 123.99,-82.51"/>
<polygon fill="none" stroke="#63b8ff" points="174.77,-126.84 184.8,-130.26 179.1,-121.33 174.77,-126.84"/>
</a>
</g>
</g>
<!-- Node3 -->
<g id="Node000003" class="node">
<title>Node3</title>
<g id="a_Node000003"><a xlink:href="classmc_1_1integrators_1_1MHMontecarloIntegrator.html" target="_top" xlink:title="Metropolis&#45;Hastings MCMC integrator for complex domains.">
<polygon fill="white" stroke="transparent" points="335.5,-90 173.5,-90 173.5,0 335.5,0 335.5,-90"/>
<text text-anchor="start" x="178.5" y="-78" font-family="Helvetica,sans-Serif" font-size="10.00">mc::integrators::MHMontecarlo</text>
<text text-anchor="start" x="209.5" y="-67" font-family="Helvetica,sans-Serif" font-size="10.00">Integrator&lt; dim &gt;</text>
<text text-anchor="start" x="252.5" y="-52" font-family="Helvetica,sans-Serif" font-size="10.00"> </text>
<text text-anchor="start" x="181" y="-37" font-family="Helvetica,sans-Serif" font-size="10.00">+</text>
<text text-anchor="start" x="197.5" y="-37" font-family="Helvetica,sans-Serif" font-size="10.00">MHMontecarloIntegrator()</text>
<text text-anchor="start" x="181" y="-22" font-family="Helvetica,sans-Serif" font-size="10.00">+</text>
<text text-anchor="start" x="197.5" y="-22" font-family="Helvetica,sans-Serif" font-size="10.00">integrate()</text>
<text text-anchor="start" x="181" y="-7" font-family="Helvetica,sans-Serif" font-size="10.00">+</text>
<text text-anchor="start" x="197.5" y="-7" font-family="Helvetica,sans-Serif" font-size="10.00">setConfig()</text>
<polygon fill="#666666" stroke="#666666" points="173.5,-62 173.5,-62 335.5,-62 335.5,-62 173.5,-62"/>
<polygon fill="#666666" stroke="#666666" points="173.5,-47 173.5,-47 335.5,-47 335.5,-47 173.5,-47"/>
<polygon fill="none" stroke="#666666" points="173.5,0 173.5,-90 335.5,-90 335.5,0 173.5,0"/>
</a>
</g>
</g>
<!-- Node1&#45;&gt;Node3 -->
<g id="edge2_Node000001_Node000003" class="edge">
<title>Node1&#45;&gt;Node3</title>
<g id="a_edge2_Node000001_Node000003"><a xlink:title=" ">
<path fill="none" stroke="#63b8ff" d="M254.5,-115.5C254.5,-106.82 254.5,-98.15 254.5,-90.01"/>
<polygon fill="none" stroke="#63b8ff" points="251,-115.65 254.5,-125.65 258,-115.65 251,-115.65"/>
</a>
</g>
</g>
<!-- Node4 -->
<g id="Node000004" class="node">
<title>Node4</title>
<g id="a_Node000004"><a xlink:href="classmc_1_1integrators_1_1MontecarloIntegrator.html" target="_top" xlink:title="Uniform&#45;sampling Monte Carlo integrator for N&#45;dimensional domains.">
<polygon fill="white" stroke="transparent" points="499.5,-90 353.5,-90 353.5,0 499.5,0 499.5,-90"/>
<text text-anchor="start" x="358.5" y="-78" font-family="Helvetica,sans-Serif" font-size="10.00">mc::integrators::Montecarlo</text>
<text text-anchor="start" x="381.5" y="-67" font-family="Helvetica,sans-Serif" font-size="10.00">Integrator&lt; dim &gt;</text>
<text text-anchor="start" x="424.5" y="-52" font-family="Helvetica,sans-Serif" font-size="10.00"> </text>
<text text-anchor="start" x="361" y="-37" font-family="Helvetica,sans-Serif" font-size="10.00">+</text>
<text text-anchor="start" x="377.5" y="-37" font-family="Helvetica,sans-Serif" font-size="10.00">MontecarloIntegrator()</text>
<text text-anchor="start" x="361" y="-22" font-family="Helvetica,sans-Serif" font-size="10.00">+</text>
<text text-anchor="start" x="377.5" y="-22" font-family="Helvetica,sans-Serif" font-size="10.00">OLDintegrate()</text>
<text text-anchor="start" x="361" y="-7" font-family="Helvetica,sans-Serif" font-size="10.00">+</text>
<text text-anchor="start" x="377.5" y="-7" font-family="Helvetica,sans-Serif" font-size="10.00">integrate()</text>
<polygon fill="#666666" stroke="#666666" points="353.5,-62 353.5,-62 499.5,-62 499.5,-62 353.5,-62"/>
<polygon fill="#666666" stroke="#666666" points="353.5,-47 353.5,-47 499.5,-47 499.5,-47 353.5,-47"/>
<polygon fill="none" stroke="#666666" points="353.5,0 353.5,-90 499.5,-90 499.5,0 353.5,0"/>
</a>
</g>
</g>
<!-- Node1&#45;&gt;Node4 -->
<g id="edge3_Node000001_Node000004" class="edge">
<title>Node1&#45;&gt;Node4</title>
<g id="a_edge3_Node000001_Node000004"><a xlink:title=" ">
<path fill="none" stroke="#63b8ff" d="M332.29,-122.13C345.66,-111.33 359.3,-100.3 371.9,-90.12"/>
<polygon fill="none" stroke="#63b8ff" points="330.04,-119.46 324.46,-128.46 334.44,-124.9 330.04,-119.46"/>
</a>
</g>
</g>
</g>
</svg>

<g id="navigator" transform="translate(0 0)" fill="#404254">
  <rect fill="#f2f5e9" fill-opacity="0.5" stroke="#606060" stroke-width=".5" x="0" y="0" width="60" height="60"/>
  <use id="zoomplus" xlink:href="#zoomPlus" x="17" y="9" onmousedown="handleZoom(evt,'in')"/>
  <use id="zoomminus" xlink:href="#zoomMin" x="42" y="9" onmousedown="handleZoom(evt,'out')"/>
  <use id="reset" xlink:href="#resetDef" x="30" y="36" onmousedown="handleReset()"/>
   <use id="arrowup" xlink:href="#arrowUp" x="0" y="0" onmousedown="handlePan(0,-1)"/>
  <use id="arrowright" xlink:href="#arrowRight" x="0" y="0" onmousedown="handlePan(1,0)"/>
  <use id="arrowdown" xlink:href="#arrowDown" x="0" y="0" onmousedown="handlePan(0,1)"/>
  <use id="arrowleft" xlink:href="#arrowLeft" x="0" y="0" onmousedown="handlePan(-1,0)"/>
</g>
<svg viewBox="0 0 15 15" width="100%" height="30px" preserveAspectRatio="xMaxYMin meet">
 <g id="arrow_out" transform="scale(0.3 0.3)">
  <a xlink:href="classmc_1_1integrators_1_1Integrator__inherit__graph_org.svg" target="_base">
   <rect id="button" ry="5" rx="5" y="6" x="6" height="38" width="38"
        fill="#f2f5e9" fill-opacity="0.5" stroke="#606060" stroke-width="1.0"/>
   <path id="arrow"
     d="M 11.500037,31.436501 C 11.940474,20.09759 22.043105,11.32322 32.158766,21.979434 L 37.068811,17.246167 C 37.068811,17.246167 37.088388,32 37.088388,32 L 22.160133,31.978069 C 22.160133,31.978069 26.997745,27.140456 26.997745,27.140456 C 18.528582,18.264221 13.291696,25.230495 11.500037,31.436501 z"
     style="fill:#404040;"/>
  </a>
 </g>
</svg>

<style type='text/css'>
<![CDATA[
[data-mouse-over-selected='false'] { opacity: 0.7; }
[data-mouse-over-selected='true']  { opacity: 1.0; }
]]>
</style>
<script type="application/ecmascript"><![CDATA[
document.addEventListener('DOMContentLoaded', (event) => {
  highlightEdges();
  highlightAdjacentNodes();
});
]]></script>
</svg>
