<?xml version="1.0" encoding="UTF-8" standalone="no"?>
<!DOCTYPE svg PUBLIC "-//W3C//DTD SVG 1.1//EN"
 "http://www.w3.org/Graphics/SVG/1.1/DTD/svg11.dtd">
<!-- Generated by graphviz version 2.43.0 (0)
 -->
<!-- Title: mc::domains::IntegrationDomain&lt; dim &gt; Pages: 1 -->
<svg width="785pt" height="471pt"
 viewBox="0.00 0.00 785.00 471.00" xmlns="http://www.w3.org/2000/svg" xmlns:xlink="http://www.w3.org/1999/xlink">
<g id="graph0" class="graph" transform="scale(1 1) rotate(0) translate(4 467)">
<title>mc::domains::IntegrationDomain&lt; dim &gt;</title>
<!-- Node1 -->
<g id="Node000001" class="node">
<title>Node1</title>
<g id="a_Node000001"><a xlink:title="Abstract base class for N&#45;dimensional integration domains.">
<polygon fill="#999999" stroke="transparent" points="480,-463 347,-463 347,-358 480,-358 480,-463"/>
<text text-anchor="start" x="352.5" y="-450.5" font-family="Helvetica,sans-Serif" font-size="10.00">mc::domains::Integration</text>
<text text-anchor="start" x="374" y="-439.5" font-family="Helvetica,sans-Serif" font-size="10.00">Domain&lt; dim &gt;</text>
<text text-anchor="start" x="412" y="-424.5" font-family="Helvetica,sans-Serif" font-size="10.00"> </text>
<text text-anchor="start" x="352.5" y="-409.5" font-family="Helvetica,sans-Serif" font-size="10.00">+</text>
<text text-anchor="start" x="366.5" y="-409.5" font-family="Helvetica,sans-Serif" font-size="10.00">getBounds()</text>
<text text-anchor="start" x="352.5" y="-394.5" font-family="Helvetica,sans-Serif" font-size="10.00">+</text>
<text text-anchor="start" x="366.5" y="-394.5" font-family="Helvetica,sans-Serif" font-size="10.00">getBoxVolume()</text>
<text text-anchor="start" x="352.5" y="-379.5" font-family="Helvetica,sans-Serif" font-size="10.00">+</text>
<text text-anchor="start" x="366.5" y="-379.5" font-family="Helvetica,sans-Serif" font-size="10.00">isInside()</text>
<text text-anchor="start" x="352.5" y="-364.5" font-family="Helvetica,sans-Serif" font-size="10.00">+</text>
<text text-anchor="start" x="366.5" y="-364.5" font-family="Helvetica,sans-Serif" font-size="10.00">~IntegrationDomain()</text>
<polygon fill="#666666" stroke="#666666" points="347.5,-434.5 347.5,-434.5 480.5,-434.5 480.5,-434.5 347.5,-434.5"/>
<polygon fill="#666666" stroke="#666666" points="347.5,-419.5 347.5,-419.5 480.5,-419.5 480.5,-419.5 347.5,-419.5"/>
<polygon fill="none" stroke="#666666" points="347,-358 347,-463 480,-463 480,-358 347,-358"/>
</a>
</g>
</g>
<!-- Node2 -->
<g id="Node000002" class="node">
<title>Node2</title>
<g id="a_Node000002"><a xlink:href="classmc_1_1domains_1_1HyperCylinder.html" target="_top" xlink:title="N&#45;dimensional hypercylinder.">
<polygon fill="white" stroke="transparent" points="149,-311 0,-311 0,-206 149,-206 149,-311"/>
<text text-anchor="start" x="5.5" y="-298.5" font-family="Helvetica,sans-Serif" font-size="10.00">mc::domains::HyperCylinder</text>
<text text-anchor="start" x="54" y="-287.5" font-family="Helvetica,sans-Serif" font-size="10.00">&lt; dim &gt;</text>
<text text-anchor="start" x="73" y="-272.5" font-family="Helvetica,sans-Serif" font-size="10.00"> </text>
<text text-anchor="start" x="16.5" y="-257.5" font-family="Helvetica,sans-Serif" font-size="10.00">+</text>
<text text-anchor="start" x="41.5" y="-257.5" font-family="Helvetica,sans-Serif" font-size="10.00">HyperCylinder()</text>
<text text-anchor="start" x="16.5" y="-242.5" font-family="Helvetica,sans-Serif" font-size="10.00">+</text>
<text text-anchor="start" x="41.5" y="-242.5" font-family="Helvetica,sans-Serif" font-size="10.00">getBounds()</text>
<text text-anchor="start" x="16.5" y="-227.5" font-family="Helvetica,sans-Serif" font-size="10.00">+</text>
<text text-anchor="start" x="41.5" y="-227.5" font-family="Helvetica,sans-Serif" font-size="10.00">getBoxVolume()</text>
<text text-anchor="start" x="16.5" y="-212.5" font-family="Helvetica,sans-Serif" font-size="10.00">+</text>
<text text-anchor="start" x="41.5" y="-212.5" font-family="Helvetica,sans-Serif" font-size="10.00">isInside()</text>
<polygon fill="#666666" stroke="#666666" points="0.5,-282.5 0.5,-282.5 149.5,-282.5 149.5,-282.5 0.5,-282.5"/>
<polygon fill="#666666" stroke="#666666" points="0.5,-267.5 0.5,-267.5 149.5,-267.5 149.5,-267.5 0.5,-267.5"/>
<polygon fill="none" stroke="#666666" points="0,-206 0,-311 149,-311 149,-206 0,-206"/>
</a>
</g>
</g>
<!-- Node1&#45;&gt;Node2 -->
<g id="edge1_Node000001_Node000002" class="edge">
<title>Node1&#45;&gt;Node2</title>
<g id="a_edge1_Node000001_Node000002"><a xlink:title=" ">
<path fill="none" stroke="#63b8ff" d="M337.35,-384.44C285.58,-366.38 216.11,-340.14 157.5,-311 154.77,-309.64 152.01,-308.22 149.24,-306.75"/>
<polygon fill="none" stroke="#63b8ff" points="336.21,-387.75 346.81,-387.71 338.5,-381.13 336.21,-387.75"/>
</a>
</g>
</g>
<!-- Node3 -->
<g id="Node000003" class="node">
<title>Node3</title>
<g id="a_Node000003"><a xlink:href="classmc_1_1domains_1_1HyperRectangle.html" target="_top" xlink:title="Axis&#45;aligned hyperrectangular domain.">
<polygon fill="white" stroke="transparent" points="324.5,-311 166.5,-311 166.5,-206 324.5,-206 324.5,-311"/>
<text text-anchor="start" x="171.5" y="-298.5" font-family="Helvetica,sans-Serif" font-size="10.00">mc::domains::HyperRectangle</text>
<text text-anchor="start" x="224.5" y="-287.5" font-family="Helvetica,sans-Serif" font-size="10.00">&lt; dim &gt;</text>
<text text-anchor="start" x="243.5" y="-272.5" font-family="Helvetica,sans-Serif" font-size="10.00"> </text>
<text text-anchor="start" x="183" y="-257.5" font-family="Helvetica,sans-Serif" font-size="10.00">+</text>
<text text-anchor="start" x="208.5" y="-257.5" font-family="Helvetica,sans-Serif" font-size="10.00">HyperRectangle()</text>
<text text-anchor="start" x="183" y="-242.5" font-family="Helvetica,sans-Serif" font-size="10.00">+</text>
<text text-anchor="start" x="208.5" y="-242.5" font-family="Helvetica,sans-Serif" font-size="10.00">getBounds()</text>
<text text-anchor="start" x="183" y="-227.5" font-family="Helvetica,sans-Serif" font-size="10.00">+</text>
<text text-anchor="start" x="208.5" y="-227.5" font-family="Helvetica,sans-Serif" font-size="10.00">getBoxVolume()</text>
<text text-anchor="start" x="183" y="-212.5" font-family="Helvetica,sans-Serif" font-size="10.00">+</text>
<text text-anchor="start" x="208.5" y="-212.5" font-family="Helvetica,sans-Serif" font-size="10.00">isInside()</text>
<polygon fill="#666666" stroke="#666666" points="166.5,-282.5 166.5,-282.5 324.5,-282.5 324.5,-282.5 166.5,-282.5"/>
<polygon fill="#666666" stroke="#666666" points="166.5,-267.5 166.5,-267.5 324.5,-267.5 324.5,-267.5 166.5,-267.5"/>
<polygon fill="none" stroke="#666666" points="166.5,-206 166.5,-311 324.5,-311 324.5,-206 166.5,-206"/>
</a>
</g>
</g>
<!-- Node1&#45;&gt;Node3 -->
<g id="edge2_Node000001_Node000003" class="edge">
<title>Node1&#45;&gt;Node3</title>
<g id="a_edge2_Node000001_Node000003"><a xlink:title=" ">
<path fill="none" stroke="#63b8ff" d="M348.07,-351.08C333.34,-337.93 317.82,-324.07 303.42,-311.22"/>
<polygon fill="none" stroke="#63b8ff" points="345.89,-353.83 355.68,-357.88 350.56,-348.61 345.89,-353.83"/>
</a>
</g>
</g>
<!-- Node4 -->
<g id="Node000004" class="node">
<title>Node4</title>
<g id="a_Node000004"><a xlink:href="classmc_1_1domains_1_1Hypersphere.html" target="_top" xlink:title="N&#45;dimensional ball (solid sphere).">
<polygon fill="white" stroke="transparent" points="484.5,-311 342.5,-311 342.5,-206 484.5,-206 484.5,-311"/>
<text text-anchor="start" x="347.5" y="-298.5" font-family="Helvetica,sans-Serif" font-size="10.00">mc::domains::Hypersphere</text>
<text text-anchor="start" x="392.5" y="-287.5" font-family="Helvetica,sans-Serif" font-size="10.00">&lt; dim &gt;</text>
<text text-anchor="start" x="411.5" y="-272.5" font-family="Helvetica,sans-Serif" font-size="10.00"> </text>
<text text-anchor="start" x="357" y="-257.5" font-family="Helvetica,sans-Serif" font-size="10.00">+</text>
<text text-anchor="start" x="380.5" y="-257.5" font-family="Helvetica,sans-Serif" font-size="10.00">Hypersphere()</text>
<text text-anchor="start" x="357" y="-242.5" font-family="Helvetica,sans-Serif" font-size="10.00">+</text>
<text text-anchor="start" x="380.5" y="-242.5" font-family="Helvetica,sans-Serif" font-size="10.00">getBounds()</text>
<text text-anchor="start" x="357" y="-227.5" font-family="Helvetica,sans-Serif" font-size="10.00">+</text>
<text text-anchor="start" x="380.5" y="-227.5" font-family="Helvetica,sans-Serif" font-size="10.00">getBoxVolume()</text>
<text text-anchor="start" x="357" y="-212.5" font-family="Helvetica,sans-Serif" font-size="10.00">+</text>
<text text-anchor="start" x="380.5" y="-212.5" font-family="Helvetica,sans-Serif" font-size="10.00">isInside()</text>
<polygon fill="#666666" stroke="#666666" points="342.5,-282.5 342.5,-282.5 484.5,-282.5 484.5,-282.5 342.5,-282.5"/>
<polygon fill="#666666" stroke="#666666" points="342.5,-267.5 342.5,-267.5 484.5,-267.5 484.5,-267.5 342.5,-267.5"/>
<polygon fill="none" stroke="#666666" points="342.5,-206 342.5,-311 484.5,-311 484.5,-206 342.5,-206"/>
</a>
</g>
</g>
<!-- Node1&#45;&gt;Node4 -->
<g id="edge3_Node000001_Node000004" class="edge">
<title>Node1&#45;&gt;Node4</title>
<g id="a_edge3_Node000001_Node000004"><a xlink:title=" ">
<path fill="none" stroke="#63b8ff" d="M413.5,-347.81C413.5,-335.65 413.5,-323.01 413.5,-311.22"/>
<polygon fill="none" stroke="#63b8ff" points="410,-347.88 413.5,-357.88 417,-347.88 410,-347.88"/>
</a>
</g>
</g>
<!-- Node5 -->
<g id="Node000005" class="node">
<title>Node5</title>
<g id="a_Node000005"><a xlink:href="classmc_1_1domains_1_1PolyTope.html" target="_top" xlink:title="Convex polytope (convex polyhedron) integration domain.">
<polygon fill="white" stroke="transparent" points="626,-311 503,-311 503,-206 626,-206 626,-311"/>
<text text-anchor="start" x="508.5" y="-298.5" font-family="Helvetica,sans-Serif" font-size="10.00">mc::domains::PolyTope</text>
<text text-anchor="start" x="544" y="-287.5" font-family="Helvetica,sans-Serif" font-size="10.00">&lt; dim &gt;</text>
<text text-anchor="start" x="563" y="-272.5" font-family="Helvetica,sans-Serif" font-size="10.00"> </text>
<text text-anchor="start" x="513" y="-257.5" font-family="Helvetica,sans-Serif" font-size="10.00">+</text>
<text text-anchor="start" x="531.5" y="-257.5" font-family="Helvetica,sans-Serif" font-size="10.00">PolyTope()</text>
<text text-anchor="start" x="513" y="-242.5" font-family="Helvetica,sans-Serif" font-size="10.00">+</text>
<text text-anchor="start" x="531.5" y="-242.5" font-family="Helvetica,sans-Serif" font-size="10.00">getBounds()</text>
<text text-anchor="start" x="513" y="-227.5" font-family="Helvetica,sans-Serif" font-size="10.00">+</text>
<text text-anchor="start" x="531.5" y="-227.5" font-family="Helvetica,sans-Serif" font-size="10.00">getBoxVolume()</text>
<text text-anchor="start" x="513" y="-212.5" font-family="Helvetica,sans-Serif" font-size="10.00">+</text>
<text text-anchor="start" x="531.5" y="-212.5" font-family="Helvetica,sans-Serif" font-size="10.00">isInside()</text>
<polygon fill="#666666" stroke="#666666" points="503.5,-282.5 503.5,-282.5 626.5,-282.5 626.5,-282.5 503.5,-282.5"/>
<polygon fill="#666666" stroke="#666666" points="503.5,-267.5 503.5,-267.5 626.5,-267.5 626.5,-267.5 503.5,-267.5"/>
<polygon fill="none" stroke="#666666" points="503,-206 503,-311 626,-311 626,-206 503,-206"/>
</a>
</g>
</g>
<!-- Node1&#45;&gt;Node5 -->
<g id="edge4_Node000001_Node000005" class="edge">
<title>Node1&#45;&gt;Node5</title>
<g id="a_edge4_Node000001_Node000005"><a xlink:title=" ">
<path fill="none" stroke="#63b8ff" d="M472.68,-350.72C485.8,-337.68 499.62,-323.95 512.44,-311.22"/>
<polygon fill="none" stroke="#63b8ff" points="470.09,-348.35 465.47,-357.88 475.03,-353.31 470.09,-348.35"/>
</a>
</g>
</g>
<!-- Node6 -->
<g id="Node000006" class="node">
<title>Node6</title>
<g id="a_Node000006"><a xlink:href="classmc_1_1domains_1_1IntegrationDomain.html" target="_top" xlink:title=" ">
<polygon fill="white" stroke="transparent" points="777,-311 644,-311 644,-206 777,-206 777,-311"/>
<text text-anchor="start" x="649.5" y="-298.5" font-family="Helvetica,sans-Serif" font-size="10.00">mc::domains::Integration</text>
<text text-anchor="start" x="670.5" y="-287.5" font-family="Helvetica,sans-Serif" font-size="10.00">Domain&lt; DIM &gt;</text>
<text text-anchor="start" x="709" y="-272.5" font-family="Helvetica,sans-Serif" font-size="10.00"> </text>
<text text-anchor="start" x="649.5" y="-257.5" font-family="Helvetica,sans-Serif" font-size="10.00">+</text>
<text text-anchor="start" x="663.5" y="-257.5" font-family="Helvetica,sans-Serif" font-size="10.00">getBounds()</text>
<text text-anchor="start" x="649.5" y="-242.5" font-family="Helvetica,sans-Serif" font-size="10.00">+</text>
<text text-anchor="start" x="663.5" y="-242.5" font-family="Helvetica,sans-Serif" font-size="10.00">getBoxVolume()</text>
<text text-anchor="start" x="649.5" y="-227.5" font-family="Helvetica,sans-Serif" font-size="10.00">+</text>
<text text-anchor="start" x="663.5" y="-227.5" font-family="Helvetica,sans-Serif" font-size="10.00">isInside()</text>
<text text-anchor="start" x="649.5" y="-212.5" font-family="Helvetica,sans-Serif" font-size="10.00">+</text>
<text text-anchor="start" x="663.5" y="-212.5" font-family="Helvetica,sans-Serif" font-size="10.00">~IntegrationDomain()</text>
<polygon fill="#666666" stroke="#666666" points="644.5,-282.5 644.5,-282.5 777.5,-282.5 777.5,-282.5 644.5,-282.5"/>
<polygon fill="#666666" stroke="#666666" points="644.5,-267.5 644.5,-267.5 777.5,-267.5 777.5,-267.5 644.5,-267.5"/>
<polygon fill="none" stroke="#666666" points="644,-206 644,-311 777,-311 777,-206 644,-206"/>
</a>
</g>
</g>
<!-- Node1&#45;&gt;Node6 -->
<g id="edge5_Node000001_Node000006" class="edge">
<title>Node1&#45;&gt;Node6</title>
<g id="a_edge5_Node000001_Node000006"><a xlink:title=" ">
<path fill="none" stroke="orange" d="M489.54,-379.84C533.2,-361.82 588.52,-337.26 635.5,-311 638.26,-309.46 641.04,-307.84 643.83,-306.18"/>
<polygon fill="orange" stroke="orange" points="488.05,-376.67 480.12,-383.71 490.71,-383.15 488.05,-376.67"/>
</a>
</g>
<text text-anchor="middle" x="622.5" y="-332" font-family="Helvetica,sans-Serif" font-size="10.00" fill="grey"> &lt; DIM &gt;</text>
</g>
<!-- Node7 -->
<g id="Node000007" class="node">
<title>Node7</title>
<g id="a_Node000007"><a xlink:href="classDroneArmDomain.html" target="_top" xlink:title=" ">
<polygon fill="white" stroke="transparent" points="769,-169 652,-169 652,0 769,0 769,-169"/>
<text text-anchor="start" x="667" y="-156.5" font-family="Helvetica,sans-Serif" font-size="10.00">DroneArmDomain</text>
<text text-anchor="start" x="656.5" y="-141.5" font-family="Helvetica,sans-Serif" font-size="10.00">+</text>
<text text-anchor="start" x="669.5" y="-141.5" font-family="Helvetica,sans-Serif" font-size="10.00">arm</text>
<text text-anchor="start" x="656.5" y="-126.5" font-family="Helvetica,sans-Serif" font-size="10.00">+</text>
<text text-anchor="start" x="669.5" y="-126.5" font-family="Helvetica,sans-Serif" font-size="10.00">motor_housing</text>
<text text-anchor="start" x="656.5" y="-111.5" font-family="Helvetica,sans-Serif" font-size="10.00">+</text>
<text text-anchor="start" x="669.5" y="-111.5" font-family="Helvetica,sans-Serif" font-size="10.00">cabin</text>
<text text-anchor="start" x="656.5" y="-96.5" font-family="Helvetica,sans-Serif" font-size="10.00">+</text>
<text text-anchor="start" x="669.5" y="-96.5" font-family="Helvetica,sans-Serif" font-size="10.00">motor_offset</text>
<text text-anchor="start" x="656.5" y="-81.5" font-family="Helvetica,sans-Serif" font-size="10.00">+</text>
<text text-anchor="start" x="669.5" y="-81.5" font-family="Helvetica,sans-Serif" font-size="10.00">cabin_offset</text>
<text text-anchor="start" x="656.5" y="-66.5" font-family="Helvetica,sans-Serif" font-size="10.00">+</text>
<text text-anchor="start" x="669.5" y="-66.5" font-family="Helvetica,sans-Serif" font-size="10.00">DroneArmDomain()</text>
<text text-anchor="start" x="656.5" y="-51.5" font-family="Helvetica,sans-Serif" font-size="10.00">+</text>
<text text-anchor="start" x="669.5" y="-51.5" font-family="Helvetica,sans-Serif" font-size="10.00">getBounds()</text>
<text text-anchor="start" x="656.5" y="-36.5" font-family="Helvetica,sans-Serif" font-size="10.00">+</text>
<text text-anchor="start" x="669.5" y="-36.5" font-family="Helvetica,sans-Serif" font-size="10.00">getBoxVolume()</text>
<text text-anchor="start" x="656.5" y="-21.5" font-family="Helvetica,sans-Serif" font-size="10.00">+</text>
<text text-anchor="start" x="669.5" y="-21.5" font-family="Helvetica,sans-Serif" font-size="10.00">isInside()</text>
<text text-anchor="start" x="656.5" y="-6.5" font-family="Helvetica,sans-Serif" font-size="10.00">+</text>
<text text-anchor="start" x="669.5" y="-6.5" font-family="Helvetica,sans-Serif" font-size="10.00">exportGeometry()</text>
<polygon fill="#666666" stroke="#666666" points="652.5,-151.5 652.5,-151.5 769.5,-151.5 769.5,-151.5 652.5,-151.5"/>
<polygon fill="#666666" stroke="#666666" points="652.5,-76.5 652.5,-76.5 667.5,-76.5 667.5,-76.5 652.5,-76.5"/>
<polygon fill="#666666" stroke="#666666" points="667.5,-76.5 667.5,-76.5 769.5,-76.5 769.5,-76.5 667.5,-76.5"/>
<polygon fill="none" stroke="#666666" points="652,0 652,-169 769,-169 769,0 652,0"/>
</a>
</g>
</g>
<!-- Node6&#45;&gt;Node7 -->
<g id="edge6_Node000006_Node000007" class="edge">
<title>Node6&#45;&gt;Node7</title>
<g id="a_edge6_Node000006_Node000007"><a xlink:title=" ">
<path fill="none" stroke="#63b8ff" d="M710.5,-195.63C710.5,-187.05 710.5,-178.13 710.5,-169.23"/>
<polygon fill="none" stroke="#63b8ff" points="707,-195.89 710.5,-205.89 714,-195.89 707,-195.89"/>
</a>
</g>
</g>
</g>
</svg>
