<?xml version="1.0" encoding="UTF-8" standalone="no"?>
<!DOCTYPE svg PUBLIC "-//W3C//DTD SVG 1.1//EN"
 "http://www.w3.org/Graphics/SVG/1.1/DTD/svg11.dtd">
<!-- Generated by graphviz version 2.43.0 (0)
 -->
<!-- Title: DroneArmDomain Pages: 1 -->
<!--zoomable 471 -->

<svg id="main" version="1.1" xmlns="http://www.w3.org/2000/svg" xmlns:xlink="http://www.w3.org/1999/xlink" xml:space="preserve" onload="init(evt)">
<style type="text/css"><![CDATA[
.node, .edge {opacity: 0.7;}
.node.selected, .edge.selected {opacity: 1;}
.edge:hover path { stroke: red; }
.edge:hover polygon { stroke: red; fill: red; }
]]></style>

<defs>
  <circle id="rim" cx="0" cy="0" r="7"/>
  <circle id="rim2" cx="0" cy="0" r="3.5"/>
  <g id="zoomPlus">
    <use xlink:href="#rim" fill="#404040"><set attributeName="fill" to="#808080" begin="zoomplus.mouseover" end="zoomplus.mouseout"/></use>
    <path d="M-4,0h8M0,-4v8" fill="none" stroke="white" stroke-width="1.5" pointer-events="none"/>
  </g>
  <g id="zoomMin">
    <use xlink:href="#rim" fill="#404040"><set attributeName="fill" to="#808080" begin="zoomminus.mouseover" end="zoomminus.mouseout"/></use>
    <path d="M-4,0h8" fill="none" stroke="white" stroke-width="1.5" pointer-events="none"/>
  </g>
  <g id="arrowUp" transform="translate(30 24)">
    <use xlink:href="#rim"/>
    <path pointer-events="none" fill="none" stroke="white" stroke-width="1.5" d="M0,-3.0v7 M-2.5,-0.5L0,-3.0L2.5,-0.5"/>
  </g>
  <g id="arrowRight" transform="rotate(90) translate(36 -43)">
    <use xlink:href="#rim"/>
    <path pointer-events="none" fill="none" stroke="white" stroke-width="1.5" d="M0,-3.0v7 M-2.5,-0.5L0,-3.0L2.5,-0.5"/>
  </g>
  <g id="arrowDown" transform="rotate(180) translate(-30 -48)">
    <use xlink:href="#rim"/>
    <path pointer-events="none" fill="none" stroke="white" stroke-width="1.5" d="M0,-3.0v7 M-2.5,-0.5L0,-3.0L2.5,-0.5"/>
  </g>
  <g id="arrowLeft" transform="rotate(270) translate(-36 17)">
    <use xlink:href="#rim"/>
    <path pointer-events="none" fill="none" stroke="white" stroke-width="1.5" d="M0,-3.0v7 M-2.5,-0.5L0,-3.0L2.5,-0.5"/>
  </g>
  <g id="resetDef">
    <use xlink:href="#rim2" fill="#404040"><set attributeName="fill" to="#808080" begin="reset.mouseover" end="reset.mouseout"/></use>
  </g>
</defs>
<script type="application/ecmascript">
var viewWidth = 141;
var viewHeight = 471;
var sectionId = 'dynsection-0';
</script>
<script type="application/ecmascript" xlink:href="svg.min.js"/>
<svg id="graph" class="graph">
<g id="viewport">
<title>DroneArmDomain</title>
<!-- Node1 -->
<g id="Node000001" class="node">
<title>Node1</title>
<g id="a_Node000001"><a xlink:title=" ">
<polygon fill="#999999" stroke="transparent" points="125,-169 8,-169 8,0 125,0 125,-169"/>
<text text-anchor="start" x="23" y="-156.5" font-family="Helvetica,sans-Serif" font-size="10.00">DroneArmDomain</text>
<text text-anchor="start" x="12.5" y="-141.5" font-family="Helvetica,sans-Serif" font-size="10.00">+</text>
<text text-anchor="start" x="25.5" y="-141.5" font-family="Helvetica,sans-Serif" font-size="10.00">arm</text>
<text text-anchor="start" x="12.5" y="-126.5" font-family="Helvetica,sans-Serif" font-size="10.00">+</text>
<text text-anchor="start" x="25.5" y="-126.5" font-family="Helvetica,sans-Serif" font-size="10.00">motor_housing</text>
<text text-anchor="start" x="12.5" y="-111.5" font-family="Helvetica,sans-Serif" font-size="10.00">+</text>
<text text-anchor="start" x="25.5" y="-111.5" font-family="Helvetica,sans-Serif" font-size="10.00">cabin</text>
<text text-anchor="start" x="12.5" y="-96.5" font-family="Helvetica,sans-Serif" font-size="10.00">+</text>
<text text-anchor="start" x="25.5" y="-96.5" font-family="Helvetica,sans-Serif" font-size="10.00">motor_offset</text>
<text text-anchor="start" x="12.5" y="-81.5" font-family="Helvetica,sans-Serif" font-size="10.00">+</text>
<text text-anchor="start" x="25.5" y="-81.5" font-family="Helvetica,sans-Serif" font-size="10.00">cabin_offset</text>
<text text-anchor="start" x="12.5" y="-66.5" font-family="Helvetica,sans-Serif" font-size="10.00">+</text>
<text text-anchor="start" x="25.5" y="-66.5" font-family="Helvetica,sans-Serif" font-size="10.00">DroneArmDomain()</text>
<text text-anchor="start" x="12.5" y="-51.5" font-family="Helvetica,sans-Serif" font-size="10.00">+</text>
<text text-anchor="start" x="25.5" y="-51.5" font-family="Helvetica,sans-Serif" font-size="10.00">getBounds()</text>
<text text-anchor="start" x="12.5" y="-36.5" font-family="Helvetica,sans-Serif" font-size="10.00">+</text>
<text text-anchor="start" x="25.5" y="-36.5" font-family="Helvetica,sans-Serif" font-size="10.00">getBoxVolume()</text>
<text text-anchor="start" x="12.5" y="-21.5" font-family="Helvetica,sans-Serif" font-size="10.00">+</text>
<text text-anchor="start" x="25.5" y="-21.5" font-family="Helvetica,sans-Serif" font-size="10.00">isInside()</text>
<text text-anchor="start" x="12.5" y="-6.5" font-family="Helvetica,sans-Serif" font-size="10.00">+</text>
<text text-anchor="start" x="25.5" y="-6.5" font-family="Helvetica,sans-Serif" font-size="10.00">exportGeometry()</text>
<polygon fill="#666666" stroke="#666666" points="8.5,-151.5 8.5,-151.5 125.5,-151.5 125.5,-151.5 8.5,-151.5"/>
<polygon fill="#666666" stroke="#666666" points="8.5,-76.5 8.5,-76.5 23.5,-76.5 23.5,-76.5 8.5,-76.5"/>
<polygon fill="#666666" stroke="#666666" points="23.5,-76.5 23.5,-76.5 125.5,-76.5 125.5,-76.5 23.5,-76.5"/>
<polygon fill="none" stroke="#666666" points="8,0 8,-169 125,-169 125,0 8,0"/>
</a>
</g>
</g>
<!-- Node2 -->
<g id="Node000002" class="node">
<title>Node2</title>
<g id="a_Node000002"><a xlink:href="classmc_1_1domains_1_1IntegrationDomain.html" target="_top" xlink:title=" ">
<polygon fill="white" stroke="transparent" points="133,-311 0,-311 0,-206 133,-206 133,-311"/>
<text text-anchor="start" x="5.5" y="-298.5" font-family="Helvetica,sans-Serif" font-size="10.00">mc::domains::Integration</text>
<text text-anchor="start" x="26.5" y="-287.5" font-family="Helvetica,sans-Serif" font-size="10.00">Domain&lt; DIM &gt;</text>
<text text-anchor="start" x="65" y="-272.5" font-family="Helvetica,sans-Serif" font-size="10.00"> </text>
<text text-anchor="start" x="5.5" y="-257.5" font-family="Helvetica,sans-Serif" font-size="10.00">+</text>
<text text-anchor="start" x="19.5" y="-257.5" font-family="Helvetica,sans-Serif" font-size="10.00">getBounds()</text>
<text text-anchor="start" x="5.5" y="-242.5" font-family="Helvetica,sans-Serif" font-size="10.00">+</text>
<text text-anchor="start" x="19.5" y="-242.5" font-family="Helvetica,sans-Serif" font-size="10.00">getBoxVolume()</text>
<text text-anchor="start" x="5.5" y="-227.5" font-family="Helvetica,sans-Serif" font-size="10.00">+</text>
<text text-anchor="start" x="19.5" y="-227.5" font-family="Helvetica,sans-Serif" font-size="10.00">isInside()</text>
<text text-anchor="start" x="5.5" y="-212.5" font-family="Helvetica,sans-Serif" font-size="10.00">+</text>
<text text-anchor="start" x="19.5" y="-212.5" font-family="Helvetica,sans-Serif" font-size="10.00">~IntegrationDomain()</text>
<polygon fill="#666666" stroke="#666666" points="0.5,-282.5 0.5,-282.5 133.5,-282.5 133.5,-282.5 0.5,-282.5"/>
<polygon fill="#666666" stroke="#666666" points="0.5,-267.5 0.5,-267.5 133.5,-267.5 133.5,-267.5 0.5,-267.5"/>
<polygon fill="none" stroke="#666666" points="0,-206 0,-311 133,-311 133,-206 0,-206"/>
</a>
</g>
</g>
<!-- Node2&#45;&gt;Node1 -->
<g id="edge1_Node000001_Node000002" class="edge">
<title>Node2&#45;&gt;Node1</title>
<g id="a_edge1_Node000001_Node000002"><a xlink:title=" ">
<path fill="none" stroke="#63b8ff" d="M66.5,-195.63C66.5,-187.05 66.5,-178.13 66.5,-169.23"/>
<polygon fill="none" stroke="#63b8ff" points="63,-195.89 66.5,-205.89 70,-195.89 63,-195.89"/>
</a>
</g>
</g>
<!-- Node3 -->
<g id="Node000003" class="node">
<title>Node3</title>
<g id="a_Node000003"><a xlink:href="classmc_1_1domains_1_1IntegrationDomain.html" target="_top" xlink:title="Abstract base class for N&#45;dimensional integration domains.">
<polygon fill="white" stroke="transparent" points="133,-463 0,-463 0,-358 133,-358 133,-463"/>
<text text-anchor="start" x="5.5" y="-450.5" font-family="Helvetica,sans-Serif" font-size="10.00">mc::domains::Integration</text>
<text text-anchor="start" x="27" y="-439.5" font-family="Helvetica,sans-Serif" font-size="10.00">Domain&lt; dim &gt;</text>
<text text-anchor="start" x="65" y="-424.5" font-family="Helvetica,sans-Serif" font-size="10.00"> </text>
<text text-anchor="start" x="5.5" y="-409.5" font-family="Helvetica,sans-Serif" font-size="10.00">+</text>
<text text-anchor="start" x="19.5" y="-409.5" font-family="Helvetica,sans-Serif" font-size="10.00">getBounds()</text>
<text text-anchor="start" x="5.5" y="-394.5" font-family="Helvetica,sans-Serif" font-size="10.00">+</text>
<text text-anchor="start" x="19.5" y="-394.5" font-family="Helvetica,sans-Serif" font-size="10.00">getBoxVolume()</text>
<text text-anchor="start" x="5.5" y="-379.5" font-family="Helvetica,sans-Serif" font-size="10.00">+</text>
<text text-anchor="start" x="19.5" y="-379.5" font-family="Helvetica,sans-Serif" font-size="10.00">isInside()</text>
<text text-anchor="start" x="5.5" y="-364.5" font-family="Helvetica,sans-Serif" font-size="10.00">+</text>
<text text-anchor="start" x="19.5" y="-364.5" font-family="Helvetica,sans-Serif" font-size="10.00">~IntegrationDomain()</text>
<polygon fill="#666666" stroke="#666666" points="0.5,-434.5 0.5,-434.5 133.5,-434.5 133.5,-434.5 0.5,-434.5"/>
<polygon fill="#666666" stroke="#666666" points="0.5,-419.5 0.5,-419.5 133.5,-419.5 133.5,-419.5 0.5,-419.5"/>
<polygon fill="none" stroke="#666666" points="0,-358 0,-463 133,-463 133,-358 0,-358"/>
</a>
</g>
</g>
<!-- Node3&#45;&gt;Node2 -->
<g id="edge2_Node000002_Node000003" class="edge">
<title>Node3&#45;&gt;Node2</title>
<g id="a_edge2_Node000002_Node000003"><a xlink:title=" ">
<path fill="none" stroke="orange" d="M66.5,-347.81C66.5,-335.65 66.5,-323.01 66.5,-311.22"/>
<polygon fill="orange" stroke="orange" points="63,-347.88 66.5,-357.88 70,-347.88 63,-347.88"/>
</a>
</g>
<text text-anchor="middle" x="89.5" y="-332" font-family="Helvetica,sans-Serif" font-size="10.00" fill="grey"> &lt; DIM &gt;</text>
</g>
</g>
</svg>

<g id="navigator" transform="translate(0 0)" fill="#404254">
  <rect fill="#f2f5e9" fill-opacity="0.5" stroke="#606060" stroke-width=".5" x="0" y="0" width="60" height="60"/>
  <use id="zoomplus" xlink:href="#zoomPlus" x="17" y="9" onmousedown="handleZoom(evt,'in')"/>
  <use id="zoomminus" xlink:href="#zoomMin" x="42" y="9" onmousedown="handleZoom(evt,'out')"/>
  <use id="reset" xlink:href="#resetDef" x="30" y="36" onmousedown="handleReset()"/>
   <use id="arrowup" xlink:href="#arrowUp" x="0" y="0" onmousedown="handlePan(0,-1)"/>
  <use id="arrowright" xlink:href="#arrowRight" x="0" y="0" onmousedown="handlePan(1,0)"/>
  <use id="arrowdown" xlink:href="#arrowDown" x="0" y="0" onmousedown="handlePan(0,1)"/>
  <use id="arrowleft" xlink:href="#arrowLeft" x="0" y="0" onmousedown="handlePan(-1,0)"/>
</g>
<svg viewBox="0 0 15 15" width="100%" height="30px" preserveAspectRatio="xMaxYMin meet">
 <g id="arrow_out" transform="scale(0.3 0.3)">
  <a xlink:href="classDroneArmDomain__inherit__graph_org.svg" target="_base">
   <rect id="button" ry="5" rx="5" y="6" x="6" height="38" width="38"
        fill="#f2f5e9" fill-opacity="0.5" stroke="#606060" stroke-width="1.0"/>
   <path id="arrow"
     d="M 11.500037,31.436501 C 11.940474,20.09759 22.043105,11.32322 32.158766,21.979434 L 37.068811,17.246167 C 37.068811,17.246167 37.088388,32 37.088388,32 L 22.160133,31.978069 C 22.160133,31.978069 26.997745,27.140456 26.997745,27.140456 C 18.528582,18.264221 13.291696,25.230495 11.500037,31.436501 z"
     style="fill:#404040;"/>
  </a>
 </g>
</svg>

<style type='text/css'>
<![CDATA[
[data-mouse-over-selected='false'] { opacity: 0.7; }
[data-mouse-over-selected='true']  { opacity: 1.0; }
]]>
</style>
<script type="application/ecmascript"><![CDATA[
document.addEventListener('DOMContentLoaded', (event) => {
  highlightEdges();
  highlightAdjacentNodes();
});
]]></script>
</svg>
