<?xml version="1.0" encoding="UTF-8" standalone="no"?>
<!DOCTYPE svg PUBLIC "-//W3C//DTD SVG 1.1//EN"
 "http://www.w3.org/Graphics/SVG/1.1/DTD/svg11.dtd">
<!-- Generated by graphviz version 2.43.0 (0)
 -->
<!-- Title: mc::proposals::Proposal&lt; dim &gt; Pages: 1 -->
<svg width="548pt" height="254pt"
 viewBox="0.00 0.00 547.50 254.00" xmlns="http://www.w3.org/2000/svg" xmlns:xlink="http://www.w3.org/1999/xlink">
<g id="graph0" class="graph" transform="scale(1 1) rotate(0) translate(4 250)">
<title>mc::proposals::Proposal&lt; dim &gt;</title>
<!-- Node1 -->
<g id="Node000001" class="node">
<title>Node1</title>
<g id="a_Node000001"><a xlink:title="Abstract proposal distribution interface.">
<polygon fill="#999999" stroke="transparent" points="335.5,-246 208.5,-246 208.5,-156 335.5,-156 335.5,-246"/>
<text text-anchor="start" x="214" y="-234" font-family="Helvetica,sans-Serif" font-size="10.00">mc::proposals::Proposal</text>
<text text-anchor="start" x="251.5" y="-223" font-family="Helvetica,sans-Serif" font-size="10.00">&lt; dim &gt;</text>
<text text-anchor="start" x="270.5" y="-208" font-family="Helvetica,sans-Serif" font-size="10.00"> </text>
<text text-anchor="start" x="225" y="-193" font-family="Helvetica,sans-Serif" font-size="10.00">+</text>
<text text-anchor="start" x="250" y="-193" font-family="Helvetica,sans-Serif" font-size="10.00">~Proposal()</text>
<text text-anchor="start" x="225" y="-178" font-family="Helvetica,sans-Serif" font-size="10.00">+</text>
<text text-anchor="start" x="250" y="-178" font-family="Helvetica,sans-Serif" font-size="10.00">sample()</text>
<text text-anchor="start" x="225" y="-163" font-family="Helvetica,sans-Serif" font-size="10.00">+</text>
<text text-anchor="start" x="250" y="-163" font-family="Helvetica,sans-Serif" font-size="10.00">pdf()</text>
<polygon fill="#666666" stroke="#666666" points="209,-218 209,-218 336,-218 336,-218 209,-218"/>
<polygon fill="#666666" stroke="#666666" points="209,-203 209,-203 336,-203 336,-203 209,-203"/>
<polygon fill="none" stroke="#666666" points="208.5,-156 208.5,-246 335.5,-246 335.5,-156 208.5,-156"/>
</a>
</g>
</g>
<!-- Node2 -->
<g id="Node000002" class="node">
<title>Node2</title>
<g id="a_Node000002"><a xlink:href="classmc_1_1proposals_1_1GaussianProposal.html" target="_top" xlink:title=" ">
<polygon fill="white" stroke="transparent" points="172,-105 0,-105 0,-15 172,-15 172,-105"/>
<text text-anchor="start" x="5" y="-93" font-family="Helvetica,sans-Serif" font-size="10.00">mc::proposals::GaussianProposal</text>
<text text-anchor="start" x="65" y="-82" font-family="Helvetica,sans-Serif" font-size="10.00">&lt; dim &gt;</text>
<text text-anchor="start" x="84" y="-67" font-family="Helvetica,sans-Serif" font-size="10.00"> </text>
<text text-anchor="start" x="18" y="-52" font-family="Helvetica,sans-Serif" font-size="10.00">+</text>
<text text-anchor="start" x="45" y="-52" font-family="Helvetica,sans-Serif" font-size="10.00">GaussianProposal()</text>
<text text-anchor="start" x="18" y="-37" font-family="Helvetica,sans-Serif" font-size="10.00">+</text>
<text text-anchor="start" x="45" y="-37" font-family="Helvetica,sans-Serif" font-size="10.00">sample()</text>
<text text-anchor="start" x="18" y="-22" font-family="Helvetica,sans-Serif" font-size="10.00">+</text>
<text text-anchor="start" x="45" y="-22" font-family="Helvetica,sans-Serif" font-size="10.00">pdf()</text>
<polygon fill="#666666" stroke="#666666" points="0,-77 0,-77 172,-77 172,-77 0,-77"/>
<polygon fill="#666666" stroke="#666666" points="0,-62 0,-62 172,-62 172,-62 0,-62"/>
<polygon fill="none" stroke="#666666" points="0,-15 0,-105 172,-105 172,-15 0,-15"/>
</a>
</g>
</g>
<!-- Node1&#45;&gt;Node2 -->
<g id="edge1_Node000001_Node000002" class="edge">
<title>Node1&#45;&gt;Node2</title>
<g id="a_edge1_Node000001_Node000002"><a xlink:title=" ">
<path fill="none" stroke="#63b8ff" d="M204.63,-149.66C185.1,-135.06 163.93,-119.24 144.95,-105.06"/>
<polygon fill="none" stroke="#63b8ff" points="202.79,-152.65 212.89,-155.83 206.98,-147.04 202.79,-152.65"/>
</a>
</g>
</g>
<!-- Node3 -->
<g id="Node000003" class="node">
<title>Node3</title>
<g id="a_Node000003"><a xlink:href="classmc_1_1proposals_1_1MixtureProposal.html" target="_top" xlink:title=" ">
<polygon fill="white" stroke="transparent" points="354,-120 190,-120 190,0 354,0 354,-120"/>
<text text-anchor="start" x="195" y="-108" font-family="Helvetica,sans-Serif" font-size="10.00">mc::proposals::MixtureProposal</text>
<text text-anchor="start" x="251" y="-97" font-family="Helvetica,sans-Serif" font-size="10.00">&lt; dim &gt;</text>
<text text-anchor="start" x="270" y="-82" font-family="Helvetica,sans-Serif" font-size="10.00"> </text>
<text text-anchor="start" x="207" y="-67" font-family="Helvetica,sans-Serif" font-size="10.00">+</text>
<text text-anchor="start" x="233" y="-67" font-family="Helvetica,sans-Serif" font-size="10.00">MixtureProposal()</text>
<text text-anchor="start" x="207" y="-52" font-family="Helvetica,sans-Serif" font-size="10.00">+</text>
<text text-anchor="start" x="233" y="-52" font-family="Helvetica,sans-Serif" font-size="10.00">sample()</text>
<text text-anchor="start" x="207" y="-37" font-family="Helvetica,sans-Serif" font-size="10.00">+</text>
<text text-anchor="start" x="233" y="-37" font-family="Helvetica,sans-Serif" font-size="10.00">pdf()</text>
<text text-anchor="start" x="207" y="-22" font-family="Helvetica,sans-Serif" font-size="10.00">+</text>
<text text-anchor="start" x="233" y="-22" font-family="Helvetica,sans-Serif" font-size="10.00">numComponents()</text>
<text text-anchor="start" x="207" y="-7" font-family="Helvetica,sans-Serif" font-size="10.00">+</text>
<text text-anchor="start" x="233" y="-7" font-family="Helvetica,sans-Serif" font-size="10.00">getWeights()</text>
<polygon fill="#666666" stroke="#666666" points="190,-92 190,-92 354,-92 354,-92 190,-92"/>
<polygon fill="#666666" stroke="#666666" points="190,-77 190,-77 354,-77 354,-77 190,-77"/>
<polygon fill="none" stroke="#666666" points="190,0 190,-120 354,-120 354,0 190,0"/>
</a>
</g>
</g>
<!-- Node1&#45;&gt;Node3 -->
<g id="edge2_Node000001_Node000003" class="edge">
<title>Node1&#45;&gt;Node3</title>
<g id="a_edge2_Node000001_Node000003"><a xlink:title=" ">
<path fill="none" stroke="#63b8ff" d="M272,-145.63C272,-137.28 272,-128.61 272,-120.16"/>
<polygon fill="none" stroke="#63b8ff" points="268.5,-145.64 272,-155.64 275.5,-145.64 268.5,-145.64"/>
</a>
</g>
</g>
<!-- Node4 -->
<g id="Node000004" class="node">
<title>Node4</title>
<g id="a_Node000004"><a xlink:href="classmc_1_1proposals_1_1UniformProposal.html" target="_top" xlink:title="Uniform distribution over a domain.">
<polygon fill="white" stroke="transparent" points="539.5,-105 372.5,-105 372.5,-15 539.5,-15 539.5,-105"/>
<text text-anchor="start" x="378" y="-93" font-family="Helvetica,sans-Serif" font-size="10.00">mc::proposals::UniformProposal</text>
<text text-anchor="start" x="435.5" y="-82" font-family="Helvetica,sans-Serif" font-size="10.00">&lt; dim &gt;</text>
<text text-anchor="start" x="454.5" y="-67" font-family="Helvetica,sans-Serif" font-size="10.00"> </text>
<text text-anchor="start" x="391" y="-52" font-family="Helvetica,sans-Serif" font-size="10.00">+</text>
<text text-anchor="start" x="418" y="-52" font-family="Helvetica,sans-Serif" font-size="10.00">UniformProposal()</text>
<text text-anchor="start" x="391" y="-37" font-family="Helvetica,sans-Serif" font-size="10.00">+</text>
<text text-anchor="start" x="418" y="-37" font-family="Helvetica,sans-Serif" font-size="10.00">sample()</text>
<text text-anchor="start" x="391" y="-22" font-family="Helvetica,sans-Serif" font-size="10.00">+</text>
<text text-anchor="start" x="418" y="-22" font-family="Helvetica,sans-Serif" font-size="10.00">pdf()</text>
<polygon fill="#666666" stroke="#666666" points="373,-77 373,-77 540,-77 540,-77 373,-77"/>
<polygon fill="#666666" stroke="#666666" points="373,-62 373,-62 540,-62 540,-62 373,-62"/>
<polygon fill="none" stroke="#666666" points="372.5,-15 372.5,-105 539.5,-105 539.5,-15 372.5,-15"/>
</a>
</g>
</g>
<!-- Node1&#45;&gt;Node4 -->
<g id="edge3_Node000001_Node000004" class="edge">
<title>Node1&#45;&gt;Node4</title>
<g id="a_edge3_Node000001_Node000004"><a xlink:title=" ">
<path fill="none" stroke="#63b8ff" d="M338.64,-149.66C357.97,-135.06 378.91,-119.24 397.68,-105.06"/>
<polygon fill="none" stroke="#63b8ff" points="336.34,-147.01 330.47,-155.83 340.56,-152.59 336.34,-147.01"/>
</a>
</g>
</g>
</g>
</svg>
