<?xml version="1.0" encoding="UTF-8" standalone="no"?>
<!DOCTYPE svg PUBLIC "-//W3C//DTD SVG 1.1//EN"
 "http://www.w3.org/Graphics/SVG/1.1/DTD/svg11.dtd">
<!-- Generated by graphviz version 2.43.0 (0)
 -->
<!-- Title: objective_function Pages: 1 -->
<svg width="313pt" height="138pt"
 viewBox="0.00 0.00 313.00 138.00" xmlns="http://www.w3.org/2000/svg" xmlns:xlink="http://www.w3.org/1999/xlink">
<g id="graph0" class="graph" transform="scale(1 1) rotate(0) translate(4 134)">
<title>objective_function</title>
<!-- Node1 -->
<g id="Node000001" class="node">
<title>Node1</title>
<g id="a_Node000001"><a xlink:title=" ">
<polygon fill="#999999" stroke="#666666" points="107,-74 0,-74 0,-55 107,-55 107,-74"/>
<text text-anchor="middle" x="53.5" y="-62" font-family="Helvetica,sans-Serif" font-size="10.00">objective_function</text>
</a>
</g>
</g>
<!-- Node2 -->
<g id="Node000002" class="node">
<title>Node2</title>
<g id="a_Node000002"><a xlink:href="namespacemc_1_1rng.html#ae8ce618a80ac94df709f1fd752932c0c" target="_top" xlink:title="Get the current global seed.">
<polygon fill="white" stroke="#666666" points="293.5,-130 154.5,-130 154.5,-111 293.5,-111 293.5,-130"/>
<text text-anchor="middle" x="224" y="-118" font-family="Helvetica,sans-Serif" font-size="10.00">mc::rng::get_global_seed</text>
</a>
</g>
</g>
<!-- Node1&#45;&gt;Node2 -->
<g id="edge1_Node000001_Node000002" class="edge">
<title>Node1&#45;&gt;Node2</title>
<g id="a_edge1_Node000001_Node000002"><a xlink:title=" ">
<path fill="none" stroke="#63b8ff" d="M73.79,-74.01C91.45,-82.42 118.5,-94.56 143,-102.5 149.8,-104.7 157,-106.73 164.2,-108.58"/>
<polygon fill="#63b8ff" stroke="#63b8ff" points="163.42,-111.99 173.96,-110.97 165.08,-105.19 163.42,-111.99"/>
</a>
</g>
</g>
<!-- Node3 -->
<g id="Node000003" class="node">
<title>Node3</title>
<g id="a_Node000003"><a xlink:href="classDroneArmDomain.html#ad7df0c548b1f8cf0d244a1ff3f056f54" target="_top" xlink:title="Get the axis&#45;aligned bounding box of the domain.">
<polygon fill="white" stroke="#666666" points="305,-93 143,-93 143,-74 305,-74 305,-93"/>
<text text-anchor="middle" x="224" y="-81" font-family="Helvetica,sans-Serif" font-size="10.00">DroneArmDomain::getBounds</text>
</a>
</g>
</g>
<!-- Node1&#45;&gt;Node3 -->
<g id="edge2_Node000001_Node000003" class="edge">
<title>Node1&#45;&gt;Node3</title>
<g id="a_edge2_Node000001_Node000003"><a xlink:title=" ">
<path fill="none" stroke="#63b8ff" d="M107.35,-70.46C115.47,-71.37 124.04,-72.34 132.69,-73.32"/>
<polygon fill="#63b8ff" stroke="#63b8ff" points="132.54,-76.82 142.87,-74.46 133.33,-69.87 132.54,-76.82"/>
</a>
</g>
</g>
<!-- Node4 -->
<g id="Node000004" class="node">
<title>Node4</title>
<g id="a_Node000004"><a xlink:href="drone__optimization_8cpp.html#a26e561973455121d93443587fda56746" target="_top" xlink:title=" ">
<polygon fill="white" stroke="#666666" points="265,-56 183,-56 183,-37 265,-37 265,-56"/>
<text text-anchor="middle" x="224" y="-44" font-family="Helvetica,sans-Serif" font-size="10.00">hash_params</text>
</a>
</g>
</g>
<!-- Node1&#45;&gt;Node4 -->
<g id="edge3_Node000001_Node000004" class="edge">
<title>Node1&#45;&gt;Node4</title>
<g id="a_edge3_Node000001_Node000004"><a xlink:title=" ">
<path fill="none" stroke="#63b8ff" d="M107.35,-58.85C128.24,-56.62 152.14,-54.07 172.76,-51.87"/>
<polygon fill="#63b8ff" stroke="#63b8ff" points="173.33,-55.33 182.91,-50.78 172.59,-48.37 173.33,-55.33"/>
</a>
</g>
</g>
<!-- Node5 -->
<g id="Node000005" class="node">
<title>Node5</title>
<g id="a_Node000005"><a xlink:href="classDroneArmDomain.html#aae951ded321e18a24a8ef804ce387ea6" target="_top" xlink:title=" ">
<polygon fill="white" stroke="#666666" points="298,-19 150,-19 150,0 298,0 298,-19"/>
<text text-anchor="middle" x="224" y="-7" font-family="Helvetica,sans-Serif" font-size="10.00">DroneArmDomain::isInside</text>
</a>
</g>
</g>
<!-- Node1&#45;&gt;Node5 -->
<g id="edge4_Node000001_Node000005" class="edge">
<title>Node1&#45;&gt;Node5</title>
<g id="a_edge4_Node000001_Node000005"><a xlink:title=" ">
<path fill="none" stroke="#63b8ff" d="M75.27,-55C92.99,-47.14 119.3,-36.08 143,-28.5 150.83,-25.99 159.18,-23.65 167.43,-21.53"/>
<polygon fill="#63b8ff" stroke="#63b8ff" points="168.54,-24.86 177.4,-19.06 166.85,-18.07 168.54,-24.86"/>
</a>
</g>
</g>
</g>
</svg>
