<?xml version="1.0" encoding="UTF-8" standalone="no"?>
<!DOCTYPE svg PUBLIC "-//W3C//DTD SVG 1.1//EN"
 "http://www.w3.org/Graphics/SVG/1.1/DTD/svg11.dtd">
<!-- Generated by graphviz version 2.43.0 (0)
 -->
<!-- Title: main Pages: 1 -->
<svg width="1015pt" height="548pt"
 viewBox="0.00 0.00 1015.00 548.00" xmlns="http://www.w3.org/2000/svg" xmlns:xlink="http://www.w3.org/1999/xlink">
<g id="graph0" class="graph" transform="scale(1 1) rotate(0) translate(4 544)">
<title>main</title>
<!-- Node1 -->
<g id="Node000001" class="node">
<title>Node1</title>
<g id="a_Node000001"><a xlink:title=" ">
<polygon fill="#999999" stroke="#666666" points="41,-283.5 0,-283.5 0,-264.5 41,-264.5 41,-283.5"/>
<text text-anchor="middle" x="20.5" y="-271.5" font-family="Helvetica,sans-Serif" font-size="10.00">main</text>
</a>
</g>
</g>
<!-- Node2 -->
<g id="Node000002" class="node">
<title>Node2</title>
<g id="a_Node000002"><a xlink:href="namespacemc_1_1utils.html#af6d35ad84d27094418c1eb4cf8a8ce11" target="_top" xlink:title=" ">
<polygon fill="white" stroke="#666666" points="266.5,-540 78.5,-540 78.5,-510 266.5,-510 266.5,-540"/>
<text text-anchor="start" x="86.5" y="-528" font-family="Helvetica,sans-Serif" font-size="10.00">mc::utils::createDroneVisualization</text>
<text text-anchor="middle" x="172.5" y="-517" font-family="Helvetica,sans-Serif" font-size="10.00">Script</text>
</a>
</g>
</g>
<!-- Node1&#45;&gt;Node2 -->
<g id="edge1_Node000001_Node000002" class="edge">
<title>Node1&#45;&gt;Node2</title>
<g id="a_edge1_Node000001_Node000002"><a xlink:title=" ">
<path fill="none" stroke="#63b8ff" d="M22.53,-283.52C26.93,-322.46 45.37,-469.09 77,-501 77.94,-501.95 78.91,-502.86 79.91,-503.73"/>
<polygon fill="#63b8ff" stroke="#63b8ff" points="77.97,-506.66 88.08,-509.81 82.14,-501.04 77.97,-506.66"/>
</a>
</g>
</g>
<!-- Node3 -->
<g id="Node000003" class="node">
<title>Node3</title>
<g id="a_Node000003"><a xlink:href="classDroneArmDomain.html#a42efba9d43496f9b12590dd997e3dfe2" target="_top" xlink:title=" ">
<polygon fill="white" stroke="#666666" points="268,-491.5 77,-491.5 77,-472.5 268,-472.5 268,-491.5"/>
<text text-anchor="middle" x="172.5" y="-479.5" font-family="Helvetica,sans-Serif" font-size="10.00">DroneArmDomain::exportGeometry</text>
</a>
</g>
</g>
<!-- Node1&#45;&gt;Node3 -->
<g id="edge2_Node000001_Node000003" class="edge">
<title>Node1&#45;&gt;Node3</title>
<g id="a_edge2_Node000001_Node000003"><a xlink:title=" ">
<path fill="none" stroke="#63b8ff" d="M21.32,-283.67C21.33,-314.12 25.65,-408.87 77,-458 81.05,-461.88 85.64,-465.15 90.55,-467.92"/>
<polygon fill="#63b8ff" stroke="#63b8ff" points="89.18,-471.14 99.7,-472.36 92.24,-464.84 89.18,-471.14"/>
</a>
</g>
</g>
<!-- Node4 -->
<g id="Node000004" class="node">
<title>Node4</title>
<g id="a_Node000004"><a xlink:href="classDroneArmDomain.html#ad7df0c548b1f8cf0d244a1ff3f056f54" target="_top" xlink:title="Get the axis&#45;aligned bounding box of the domain.">
<polygon fill="white" stroke="#666666" points="466,-489.5 304,-489.5 304,-470.5 466,-470.5 466,-489.5"/>
<text text-anchor="middle" x="385" y="-477.5" font-family="Helvetica,sans-Serif" font-size="10.00">DroneArmDomain::getBounds</text>
</a>
</g>
</g>
<!-- Node1&#45;&gt;Node4 -->
<g id="edge3_Node000001_Node000004" class="edge">
<title>Node1&#45;&gt;Node4</title>
<g id="a_edge3_Node000001_Node000004"><a xlink:title=" ">
<path fill="none" stroke="#63b8ff" d="M22.07,-283.64C24.19,-309.99 33.87,-383.65 77,-420 94.53,-434.77 222.44,-456.15 307.53,-469"/>
<polygon fill="#63b8ff" stroke="#63b8ff" points="307.02,-472.46 317.43,-470.49 308.06,-465.54 307.02,-472.46"/>
</a>
</g>
</g>
<!-- Node5 -->
<g id="Node000005" class="node">
<title>Node5</title>
<g id="a_Node000005"><a xlink:href="classDroneArmDomain.html#aac711e094c14120eb8a641dd5dbcaf01" target="_top" xlink:title="Compute the volume of the bounding box.">
<polygon fill="white" stroke="#666666" points="263.5,-264.5 81.5,-264.5 81.5,-245.5 263.5,-245.5 263.5,-264.5"/>
<text text-anchor="middle" x="172.5" y="-252.5" font-family="Helvetica,sans-Serif" font-size="10.00">DroneArmDomain::getBoxVolume</text>
</a>
</g>
</g>
<!-- Node1&#45;&gt;Node5 -->
<g id="edge4_Node000001_Node000005" class="edge">
<title>Node1&#45;&gt;Node5</title>
<g id="a_edge4_Node000001_Node000005"><a xlink:title=" ">
<path fill="none" stroke="#63b8ff" d="M41.11,-271.52C53.13,-269.99 69.43,-267.93 86.43,-265.78"/>
<polygon fill="#63b8ff" stroke="#63b8ff" points="87.02,-269.23 96.5,-264.5 86.14,-262.28 87.02,-269.23"/>
</a>
</g>
</g>
<!-- Node6 -->
<g id="Node000006" class="node">
<title>Node6</title>
<g id="a_Node000006"><a xlink:href="classDroneArmDomain.html#aae951ded321e18a24a8ef804ce387ea6" target="_top" xlink:title=" ">
<polygon fill="white" stroke="#666666" points="459,-452.5 311,-452.5 311,-433.5 459,-433.5 459,-452.5"/>
<text text-anchor="middle" x="385" y="-440.5" font-family="Helvetica,sans-Serif" font-size="10.00">DroneArmDomain::isInside</text>
</a>
</g>
</g>
<!-- Node1&#45;&gt;Node6 -->
<g id="edge5_Node000001_Node000006" class="edge">
<title>Node1&#45;&gt;Node6</title>
<g id="a_edge5_Node000001_Node000006"><a xlink:title=" ">
<path fill="none" stroke="#63b8ff" d="M23.23,-283.74C27.73,-305.95 41.96,-360.51 77,-387 94.88,-400.52 217.98,-419.97 302.76,-432.03"/>
<polygon fill="#63b8ff" stroke="#63b8ff" points="302.51,-435.52 312.9,-433.46 303.49,-428.59 302.51,-435.52"/>
</a>
</g>
</g>
<!-- Node7 -->
<g id="Node000007" class="node">
<title>Node7</title>
<g id="a_Node000007"><a xlink:href="namespacemc_1_1rng.html#a261fc54145067bf818b83017ab82f6cc" target="_top" xlink:title="Create a deterministic RNG engine for the current thread (OpenMP if available)">
<polygon fill="white" stroke="#666666" points="626,-302 503,-302 503,-272 626,-272 626,-302"/>
<text text-anchor="start" x="511" y="-290" font-family="Helvetica,sans-Serif" font-size="10.00">mc::rng::make_thread</text>
<text text-anchor="middle" x="564.5" y="-279" font-family="Helvetica,sans-Serif" font-size="10.00">_engine</text>
</a>
</g>
</g>
<!-- Node1&#45;&gt;Node7 -->
<g id="edge6_Node000001_Node000007" class="edge">
<title>Node1&#45;&gt;Node7</title>
<g id="a_edge6_Node000001_Node000007"><a xlink:title=" ">
<path fill="none" stroke="#63b8ff" d="M41.11,-274.47C113.38,-276.2 367.11,-282.29 492.4,-285.29"/>
<polygon fill="#63b8ff" stroke="#63b8ff" points="492.58,-288.8 502.66,-285.54 492.75,-281.8 492.58,-288.8"/>
</a>
</g>
</g>
<!-- Node12 -->
<g id="Node000012" class="node">
<title>Node12</title>
<g id="a_Node000012"><a xlink:href="drone__optimization_8cpp.html#a5e334dbbd2d177656abd66dd5669fb3d" target="_top" xlink:title=" ">
<polygon fill="white" stroke="#666666" points="226,-377.5 119,-377.5 119,-358.5 226,-358.5 226,-377.5"/>
<text text-anchor="middle" x="172.5" y="-365.5" font-family="Helvetica,sans-Serif" font-size="10.00">objective_function</text>
</a>
</g>
</g>
<!-- Node1&#45;&gt;Node12 -->
<g id="edge12_Node000001_Node000012" class="edge">
<title>Node1&#45;&gt;Node12</title>
<g id="a_edge12_Node000001_Node000012"><a xlink:title=" ">
<path fill="none" stroke="#63b8ff" d="M25.67,-283.76C33.28,-300.29 51.04,-333.58 77,-350 86.61,-356.08 97.78,-360.2 109.02,-362.97"/>
<polygon fill="#63b8ff" stroke="#63b8ff" points="108.36,-366.41 118.87,-365.07 109.82,-359.56 108.36,-366.41"/>
</a>
</g>
</g>
<!-- Node14 -->
<g id="Node000014" class="node">
<title>Node14</title>
<g id="a_Node000014"><a xlink:href="classmc_1_1integrators_1_1MontecarloIntegrator.html#af3c3289ee5bdf681b6c1ffa75c45b950" target="_top" xlink:title="Legacy integration routine (deprecated).">
<polygon fill="white" stroke="#666666" points="248.5,-227 96.5,-227 96.5,-197 248.5,-197 248.5,-227"/>
<text text-anchor="start" x="104.5" y="-215" font-family="Helvetica,sans-Serif" font-size="10.00">mc::integrators::Montecarlo</text>
<text text-anchor="middle" x="172.5" y="-204" font-family="Helvetica,sans-Serif" font-size="10.00">Integrator::OLDintegrate</text>
</a>
</g>
</g>
<!-- Node1&#45;&gt;Node14 -->
<g id="edge17_Node000001_Node000014" class="edge">
<title>Node1&#45;&gt;Node14</title>
<g id="a_edge17_Node000001_Node000014"><a xlink:title=" ">
<path fill="none" stroke="#63b8ff" d="M33.59,-264.22C44.39,-255.92 60.95,-244.23 77,-237 82.4,-234.57 88.09,-232.33 93.88,-230.29"/>
<polygon fill="#63b8ff" stroke="#63b8ff" points="95.31,-233.5 103.7,-227.02 93.1,-226.86 95.31,-233.5"/>
</a>
</g>
</g>
<!-- Node15 -->
<g id="Node000015" class="node">
<title>Node15</title>
<g id="a_Node000015"><a xlink:href="classmc_1_1optim_1_1PSO.html#a19b3b1fbd4b9386fbac33a9c80a0c0b9" target="_top" xlink:title="Execute the optimization loop for max_iterations.">
<polygon fill="white" stroke="#666666" points="242.5,-340.5 102.5,-340.5 102.5,-321.5 242.5,-321.5 242.5,-340.5"/>
<text text-anchor="middle" x="172.5" y="-328.5" font-family="Helvetica,sans-Serif" font-size="10.00">mc::optim::PSO::optimize</text>
</a>
</g>
</g>
<!-- Node1&#45;&gt;Node15 -->
<g id="edge18_Node000001_Node000015" class="edge">
<title>Node1&#45;&gt;Node15</title>
<g id="a_edge18_Node000001_Node000015"><a xlink:title=" ">
<path fill="none" stroke="#63b8ff" d="M35.06,-283.57C45.95,-290.89 61.88,-300.74 77,-307 88.24,-311.65 100.62,-315.59 112.61,-318.84"/>
<polygon fill="#63b8ff" stroke="#63b8ff" points="112,-322.29 122.56,-321.41 113.75,-315.52 112,-322.29"/>
</a>
</g>
</g>
<!-- Node18 -->
<g id="Node000018" class="node">
<title>Node18</title>
<g id="a_Node000018"><a xlink:href="namespacemc_1_1rng.html#aa2dfac002fcae2fb6e633c4ebc1e00e0" target="_top" xlink:title="Set the global seed used by all library RNG components.">
<polygon fill="white" stroke="#666666" points="241.5,-178.5 103.5,-178.5 103.5,-159.5 241.5,-159.5 241.5,-178.5"/>
<text text-anchor="middle" x="172.5" y="-166.5" font-family="Helvetica,sans-Serif" font-size="10.00">mc::rng::set_global_seed</text>
</a>
</g>
</g>
<!-- Node1&#45;&gt;Node18 -->
<g id="edge24_Node000001_Node000018" class="edge">
<title>Node1&#45;&gt;Node18</title>
<g id="a_edge24_Node000001_Node000018"><a xlink:title=" ">
<path fill="none" stroke="#63b8ff" d="M24.78,-264.45C31.51,-246.38 48.66,-207.31 77,-188 82.17,-184.48 87.85,-181.58 93.78,-179.19"/>
<polygon fill="#63b8ff" stroke="#63b8ff" points="94.99,-182.48 103.26,-175.86 92.66,-175.87 94.99,-182.48"/>
</a>
</g>
</g>
<!-- Node19 -->
<g id="Node000019" class="node">
<title>Node19</title>
<g id="a_Node000019"><a xlink:href="classmc_1_1optim_1_1PSO.html#a35977dbdfdc2785234ec21cc2d0805d2" target="_top" xlink:title="Set lower/upper bounds of the search hyper&#45;rectangle.">
<polygon fill="white" stroke="#666666" points="247,-141.5 98,-141.5 98,-122.5 247,-122.5 247,-141.5"/>
<text text-anchor="middle" x="172.5" y="-129.5" font-family="Helvetica,sans-Serif" font-size="10.00">mc::optim::PSO::setBounds</text>
</a>
</g>
</g>
<!-- Node1&#45;&gt;Node19 -->
<g id="edge25_Node000001_Node000019" class="edge">
<title>Node1&#45;&gt;Node19</title>
<g id="a_edge25_Node000001_Node000019"><a xlink:title=" ">
<path fill="none" stroke="#63b8ff" d="M22.87,-264.18C26.7,-240.61 39.8,-180.63 77,-151 80.56,-148.17 84.42,-145.72 88.49,-143.61"/>
<polygon fill="#63b8ff" stroke="#63b8ff" points="89.98,-146.78 97.69,-139.51 87.13,-140.39 89.98,-146.78"/>
</a>
</g>
</g>
<!-- Node20 -->
<g id="Node000020" class="node">
<title>Node20</title>
<g id="a_Node000020"><a xlink:href="classmc_1_1optim_1_1PSO.html#a4f32542124c5a7ed481ef72a50a3a3ea" target="_top" xlink:title="Register a callback invoked after each step().">
<polygon fill="white" stroke="#666666" points="250,-104.5 95,-104.5 95,-85.5 250,-85.5 250,-104.5"/>
<text text-anchor="middle" x="172.5" y="-92.5" font-family="Helvetica,sans-Serif" font-size="10.00">mc::optim::PSO::setCallback</text>
</a>
</g>
</g>
<!-- Node1&#45;&gt;Node20 -->
<g id="edge26_Node000001_Node000020" class="edge">
<title>Node1&#45;&gt;Node20</title>
<g id="a_edge26_Node000001_Node000020"><a xlink:title=" ">
<path fill="none" stroke="#63b8ff" d="M21.73,-264.29C22.94,-236.26 30.49,-154.6 77,-114 79.73,-111.62 82.67,-109.5 85.78,-107.62"/>
<polygon fill="#63b8ff" stroke="#63b8ff" points="87.6,-110.62 94.9,-102.94 84.4,-104.4 87.6,-110.62"/>
</a>
</g>
</g>
<!-- Node21 -->
<g id="Node000021" class="node">
<title>Node21</title>
<g id="a_Node000021"><a xlink:href="classmc_1_1optim_1_1PSO.html#acca4147bc9775630078d327d180b1a8e" target="_top" xlink:title="Set optimization mode (minimize or maximize).">
<polygon fill="white" stroke="#666666" points="242.5,-67.5 102.5,-67.5 102.5,-48.5 242.5,-48.5 242.5,-67.5"/>
<text text-anchor="middle" x="172.5" y="-55.5" font-family="Helvetica,sans-Serif" font-size="10.00">mc::optim::PSO::setMode</text>
</a>
</g>
</g>
<!-- Node1&#45;&gt;Node21 -->
<g id="edge27_Node000001_Node000021" class="edge">
<title>Node1&#45;&gt;Node21</title>
<g id="a_edge27_Node000001_Node000021"><a xlink:title=" ">
<path fill="none" stroke="#63b8ff" d="M20.96,-264.39C19.75,-232.29 20.47,-127.92 77,-76 81.68,-71.7 87.06,-68.28 92.83,-65.58"/>
<polygon fill="#63b8ff" stroke="#63b8ff" points="94.14,-68.82 102.16,-61.89 91.57,-62.31 94.14,-68.82"/>
</a>
</g>
</g>
<!-- Node23 -->
<g id="Node000023" class="node">
<title>Node23</title>
<g id="a_Node000023"><a xlink:href="classmc_1_1optim_1_1PSO.html#a7b30ff4c321f120046b5552a85505378" target="_top" xlink:title="Set the objective function to optimize.">
<polygon fill="white" stroke="#666666" points="252,-30 93,-30 93,0 252,0 252,-30"/>
<text text-anchor="start" x="101" y="-18" font-family="Helvetica,sans-Serif" font-size="10.00">mc::optim::PSO::setObjective</text>
<text text-anchor="middle" x="172.5" y="-7" font-family="Helvetica,sans-Serif" font-size="10.00">Function</text>
</a>
</g>
</g>
<!-- Node1&#45;&gt;Node23 -->
<g id="edge29_Node000001_Node000023" class="edge">
<title>Node1&#45;&gt;Node23</title>
<g id="a_edge29_Node000001_Node000023"><a xlink:title=" ">
<path fill="none" stroke="#63b8ff" d="M22.45,-264.42C26.6,-224.54 44.37,-72.18 77,-39 79.17,-36.79 81.51,-34.78 83.99,-32.94"/>
<polygon fill="#63b8ff" stroke="#63b8ff" points="86.28,-35.64 92.89,-27.35 82.56,-29.71 86.28,-35.64"/>
</a>
</g>
</g>
<!-- Node8 -->
<g id="Node000008" class="node">
<title>Node8</title>
<g id="a_Node000008"><a xlink:href="namespacemc_1_1rng_1_1detail.html#a38d2bbfd85016beeafdb31e4c1715477" target="_top" xlink:title=" ">
<polygon fill="white" stroke="#666666" points="800,-340 665,-340 665,-310 800,-310 800,-340"/>
<text text-anchor="start" x="673" y="-328" font-family="Helvetica,sans-Serif" font-size="10.00">mc::rng::detail::combine</text>
<text text-anchor="middle" x="732.5" y="-317" font-family="Helvetica,sans-Serif" font-size="10.00">_seeds</text>
</a>
</g>
</g>
<!-- Node7&#45;&gt;Node8 -->
<g id="edge7_Node000007_Node000008" class="edge">
<title>Node7&#45;&gt;Node8</title>
<g id="a_edge7_Node000007_Node000008"><a xlink:title=" ">
<path fill="none" stroke="#63b8ff" d="M626.37,-300.93C636.02,-303.14 646.09,-305.45 656.02,-307.72"/>
<polygon fill="#63b8ff" stroke="#63b8ff" points="655.36,-311.16 665.89,-309.98 656.92,-304.34 655.36,-311.16"/>
</a>
</g>
</g>
<!-- Node10 -->
<g id="Node000010" class="node">
<title>Node10</title>
<g id="a_Node000010"><a xlink:href="namespacemc_1_1rng_1_1detail.html#ab57e549b90087ff17a6516ced8a196ae" target="_top" xlink:title="Create mt19937 from a 64&#45;bit seed.">
<polygon fill="white" stroke="#666666" points="794.5,-292 670.5,-292 670.5,-262 794.5,-262 794.5,-292"/>
<text text-anchor="start" x="678.5" y="-280" font-family="Helvetica,sans-Serif" font-size="10.00">mc::rng::detail::create</text>
<text text-anchor="middle" x="732.5" y="-269" font-family="Helvetica,sans-Serif" font-size="10.00">_mt19937</text>
</a>
</g>
</g>
<!-- Node7&#45;&gt;Node10 -->
<g id="edge9_Node000007_Node000010" class="edge">
<title>Node7&#45;&gt;Node10</title>
<g id="a_edge9_Node000007_Node000010"><a xlink:title=" ">
<path fill="none" stroke="#63b8ff" d="M626.37,-283.33C637.35,-282.67 648.89,-281.98 660.14,-281.3"/>
<polygon fill="#63b8ff" stroke="#63b8ff" points="660.59,-284.78 670.36,-280.68 660.17,-277.79 660.59,-284.78"/>
</a>
</g>
</g>
<!-- Node11 -->
<g id="Node000011" class="node">
<title>Node11</title>
<g id="a_Node000011"><a xlink:href="namespacemc_1_1rng.html#ae8ce618a80ac94df709f1fd752932c0c" target="_top" xlink:title="Get the current global seed.">
<polygon fill="white" stroke="#666666" points="802,-377.5 663,-377.5 663,-358.5 802,-358.5 802,-377.5"/>
<text text-anchor="middle" x="732.5" y="-365.5" font-family="Helvetica,sans-Serif" font-size="10.00">mc::rng::get_global_seed</text>
</a>
</g>
</g>
<!-- Node7&#45;&gt;Node11 -->
<g id="edge11_Node000007_Node000011" class="edge">
<title>Node7&#45;&gt;Node11</title>
<g id="a_edge11_Node000007_Node000011"><a xlink:title=" ">
<path fill="none" stroke="#63b8ff" d="M609.01,-302.03C615.27,-304.94 621.45,-308.27 627,-312 646.03,-324.81 643.26,-337.31 663,-349 666.64,-351.16 670.54,-353.08 674.56,-354.79"/>
<polygon fill="#63b8ff" stroke="#63b8ff" points="673.5,-358.13 684.09,-358.4 675.98,-351.58 673.5,-358.13"/>
</a>
</g>
</g>
<!-- Node9 -->
<g id="Node000009" class="node">
<title>Node9</title>
<g id="a_Node000009"><a xlink:href="namespacemc_1_1rng_1_1detail.html#afd7cf835af1e7345389b5497652dd399" target="_top" xlink:title=" ">
<polygon fill="white" stroke="#666666" points="1007,-310.5 838,-310.5 838,-291.5 1007,-291.5 1007,-310.5"/>
<text text-anchor="middle" x="922.5" y="-298.5" font-family="Helvetica,sans-Serif" font-size="10.00">mc::rng::detail::splitmix64_mix</text>
</a>
</g>
</g>
<!-- Node8&#45;&gt;Node9 -->
<g id="edge8_Node000008_Node000009" class="edge">
<title>Node8&#45;&gt;Node9</title>
<g id="a_edge8_Node000008_Node000009"><a xlink:title=" ">
<path fill="none" stroke="#63b8ff" d="M800.05,-316.5C811.93,-314.99 824.45,-313.39 836.77,-311.82"/>
<polygon fill="#63b8ff" stroke="#63b8ff" points="837.56,-315.24 847.04,-310.51 836.67,-308.3 837.56,-315.24"/>
</a>
</g>
</g>
<!-- Node10&#45;&gt;Node9 -->
<g id="edge10_Node000010_Node000009" class="edge">
<title>Node10&#45;&gt;Node9</title>
<g id="a_edge10_Node000010_Node000009"><a xlink:title=" ">
<path fill="none" stroke="#63b8ff" d="M794.54,-284.79C808,-286.51 822.49,-288.36 836.7,-290.17"/>
<polygon fill="#63b8ff" stroke="#63b8ff" points="836.61,-293.69 846.97,-291.49 837.5,-286.75 836.61,-293.69"/>
</a>
</g>
</g>
<!-- Node12&#45;&gt;Node4 -->
<g id="edge14_Node000012_Node000004" class="edge">
<title>Node12&#45;&gt;Node4</title>
<g id="a_edge14_Node000012_Node000004"><a xlink:title=" ">
<path fill="none" stroke="#63b8ff" d="M189.7,-377.63C208.92,-389.27 241.67,-409.84 268,-430 284.99,-443.02 284.95,-452.23 304,-462 307.78,-463.94 311.76,-465.67 315.85,-467.21"/>
<polygon fill="#63b8ff" stroke="#63b8ff" points="314.94,-470.6 325.53,-470.49 317.18,-463.97 314.94,-470.6"/>
</a>
</g>
</g>
<!-- Node12&#45;&gt;Node6 -->
<g id="edge16_Node000012_Node000006" class="edge">
<title>Node12&#45;&gt;Node6</title>
<g id="a_edge16_Node000012_Node000006"><a xlink:title=" ">
<path fill="none" stroke="#63b8ff" d="M226.23,-376.54C240.33,-380.1 255.19,-385.08 268,-392 287.1,-402.32 284.76,-414.95 304,-425 307.69,-426.93 311.58,-428.65 315.58,-430.19"/>
<polygon fill="#63b8ff" stroke="#63b8ff" points="314.46,-433.51 325.06,-433.46 316.75,-426.89 314.46,-433.51"/>
</a>
</g>
</g>
<!-- Node12&#45;&gt;Node11 -->
<g id="edge13_Node000012_Node000011" class="edge">
<title>Node12&#45;&gt;Node11</title>
<g id="a_edge13_Node000012_Node000011"><a xlink:title=" ">
<path fill="none" stroke="#63b8ff" d="M226.25,-368C324.74,-368 537.1,-368 652.67,-368"/>
<polygon fill="#63b8ff" stroke="#63b8ff" points="652.86,-371.5 662.86,-368 652.86,-364.5 652.86,-371.5"/>
</a>
</g>
</g>
<!-- Node13 -->
<g id="Node000013" class="node">
<title>Node13</title>
<g id="a_Node000013"><a xlink:href="drone__optimization_8cpp.html#a26e561973455121d93443587fda56746" target="_top" xlink:title=" ">
<polygon fill="white" stroke="#666666" points="426,-415.5 344,-415.5 344,-396.5 426,-396.5 426,-415.5"/>
<text text-anchor="middle" x="385" y="-403.5" font-family="Helvetica,sans-Serif" font-size="10.00">hash_params</text>
</a>
</g>
</g>
<!-- Node12&#45;&gt;Node13 -->
<g id="edge15_Node000012_Node000013" class="edge">
<title>Node12&#45;&gt;Node13</title>
<g id="a_edge15_Node000012_Node000013"><a xlink:title=" ">
<path fill="none" stroke="#63b8ff" d="M226.08,-377.49C259.04,-383.44 301.29,-391.07 333.8,-396.94"/>
<polygon fill="#63b8ff" stroke="#63b8ff" points="333.52,-400.44 343.98,-398.78 334.77,-393.56 333.52,-400.44"/>
</a>
</g>
</g>
<!-- Node16 -->
<g id="Node000016" class="node">
<title>Node16</title>
<g id="a_Node000016"><a xlink:href="classmc_1_1optim_1_1PSO.html#ab0e385c2603febae1bf503d8f6e36803" target="_top" xlink:title="Perform one PSO iteration: update velocity/position, evaluate, update personal and global bests.">
<polygon fill="white" stroke="#666666" points="444.5,-339.5 325.5,-339.5 325.5,-320.5 444.5,-320.5 444.5,-339.5"/>
<text text-anchor="middle" x="385" y="-327.5" font-family="Helvetica,sans-Serif" font-size="10.00">mc::optim::PSO::step</text>
</a>
</g>
</g>
<!-- Node15&#45;&gt;Node16 -->
<g id="edge19_Node000015_Node000016" class="edge">
<title>Node15&#45;&gt;Node16</title>
<g id="a_edge19_Node000015_Node000016"><a xlink:title=" ">
<path fill="none" stroke="#63b8ff" d="M242.72,-330.67C265.99,-330.56 291.95,-330.44 315.19,-330.33"/>
<polygon fill="#63b8ff" stroke="#63b8ff" points="315.33,-333.83 325.32,-330.28 315.3,-326.83 315.33,-333.83"/>
</a>
</g>
</g>
<!-- Node17 -->
<g id="Node000017" class="node">
<title>Node17</title>
<g id="a_Node000017"><a xlink:href="namespacemc_1_1rng.html#acc040fd4a9536fb66cae8144bc232ddd" target="_top" xlink:title="Create a deterministic RNG engine for a specific stream.">
<polygon fill="white" stroke="#666666" points="627,-339.5 502,-339.5 502,-320.5 627,-320.5 627,-339.5"/>
<text text-anchor="middle" x="564.5" y="-327.5" font-family="Helvetica,sans-Serif" font-size="10.00">mc::rng::make_engine</text>
</a>
</g>
</g>
<!-- Node16&#45;&gt;Node17 -->
<g id="edge20_Node000016_Node000017" class="edge">
<title>Node16&#45;&gt;Node17</title>
<g id="a_edge20_Node000016_Node000017"><a xlink:title=" ">
<path fill="none" stroke="#63b8ff" d="M444.61,-330C459.69,-330 476.08,-330 491.74,-330"/>
<polygon fill="#63b8ff" stroke="#63b8ff" points="491.9,-333.5 501.9,-330 491.9,-326.5 491.9,-333.5"/>
</a>
</g>
</g>
<!-- Node17&#45;&gt;Node8 -->
<g id="edge21_Node000017_Node000008" class="edge">
<title>Node17&#45;&gt;Node8</title>
<g id="a_edge21_Node000017_Node000008"><a xlink:title=" ">
<path fill="none" stroke="#63b8ff" d="M627.31,-328.14C636.22,-327.87 645.48,-327.59 654.63,-327.32"/>
<polygon fill="#63b8ff" stroke="#63b8ff" points="655.01,-330.81 664.9,-327.01 654.8,-323.81 655.01,-330.81"/>
</a>
</g>
</g>
<!-- Node17&#45;&gt;Node10 -->
<g id="edge22_Node000017_Node000010" class="edge">
<title>Node17&#45;&gt;Node10</title>
<g id="a_edge22_Node000017_Node000010"><a xlink:title=" ">
<path fill="none" stroke="#63b8ff" d="M596.81,-320.42C606.5,-317.44 617.2,-314.11 627,-311 642.96,-305.94 660.27,-300.35 676.11,-295.19"/>
<polygon fill="#63b8ff" stroke="#63b8ff" points="677.34,-298.47 685.77,-292.04 675.17,-291.82 677.34,-298.47"/>
</a>
</g>
</g>
<!-- Node17&#45;&gt;Node11 -->
<g id="edge23_Node000017_Node000011" class="edge">
<title>Node17&#45;&gt;Node11</title>
<g id="a_edge23_Node000017_Node000011"><a xlink:title=" ">
<path fill="none" stroke="#63b8ff" d="M607.39,-339.59C629.39,-344.63 656.55,-350.84 679.85,-356.18"/>
<polygon fill="#63b8ff" stroke="#63b8ff" points="679.38,-359.66 689.91,-358.48 680.95,-352.84 679.38,-359.66"/>
</a>
</g>
</g>
<!-- Node22 -->
<g id="Node000022" class="node">
<title>Node22</title>
<g id="a_Node000022"><a xlink:href="structmc_1_1optim_1_1Solution.html#a611a6651c3a8910e5b1d9c53d03dade6" target="_top" xlink:title="Helper to create a worst&#45;case solution for initialization.">
<polygon fill="white" stroke="#666666" points="441,-73 329,-73 329,-43 441,-43 441,-73"/>
<text text-anchor="start" x="337" y="-61" font-family="Helvetica,sans-Serif" font-size="10.00">mc::optim::Solution</text>
<text text-anchor="middle" x="385" y="-50" font-family="Helvetica,sans-Serif" font-size="10.00">::make_worst</text>
</a>
</g>
</g>
<!-- Node21&#45;&gt;Node22 -->
<g id="edge28_Node000021_Node000022" class="edge">
<title>Node21&#45;&gt;Node22</title>
<g id="a_edge28_Node000021_Node000022"><a xlink:title=" ">
<path fill="none" stroke="#63b8ff" d="M242.72,-58C267.15,-58 294.52,-58 318.63,-58"/>
<polygon fill="#63b8ff" stroke="#63b8ff" points="318.74,-61.5 328.74,-58 318.74,-54.5 318.74,-61.5"/>
</a>
</g>
</g>
</g>
</svg>
