<?xml version="1.0" encoding="UTF-8" standalone="no"?>
<!DOCTYPE svg PUBLIC "-//W3C//DTD SVG 1.1//EN"
 "http://www.w3.org/Graphics/SVG/1.1/DTD/svg11.dtd">
<!-- Generated by graphviz version 2.43.0 (0)
 -->
<!-- Title: src/montecarlo/optimizers/GA.hpp Pages: 1 -->
<!--zoomable 170 -->

<svg id="main" version="1.1" xmlns="http://www.w3.org/2000/svg" xmlns:xlink="http://www.w3.org/1999/xlink" xml:space="preserve" onload="init(evt)">
<style type="text/css"><![CDATA[
.node, .edge {opacity: 0.7;}
.node.selected, .edge.selected {opacity: 1;}
.edge:hover path { stroke: red; }
.edge:hover polygon { stroke: red; fill: red; }
]]></style>

<defs>
  <circle id="rim" cx="0" cy="0" r="7"/>
  <circle id="rim2" cx="0" cy="0" r="3.5"/>
  <g id="zoomPlus">
    <use xlink:href="#rim" fill="#404040"><set attributeName="fill" to="#808080" begin="zoomplus.mouseover" end="zoomplus.mouseout"/></use>
    <path d="M-4,0h8M0,-4v8" fill="none" stroke="white" stroke-width="1.5" pointer-events="none"/>
  </g>
  <g id="zoomMin">
    <use xlink:href="#rim" fill="#404040"><set attributeName="fill" to="#808080" begin="zoomminus.mouseover" end="zoomminus.mouseout"/></use>
    <path d="M-4,0h8" fill="none" stroke="white" stroke-width="1.5" pointer-events="none"/>
  </g>
  <g id="arrowUp" transform="translate(30 24)">
    <use xlink:href="#rim"/>
    <path pointer-events="none" fill="none" stroke="white" stroke-width="1.5" d="M0,-3.0v7 M-2.5,-0.5L0,-3.0L2.5,-0.5"/>
  </g>
  <g id="arrowRight" transform="rotate(90) translate(36 -43)">
    <use xlink:href="#rim"/>
    <path pointer-events="none" fill="none" stroke="white" stroke-width="1.5" d="M0,-3.0v7 M-2.5,-0.5L0,-3.0L2.5,-0.5"/>
  </g>
  <g id="arrowDown" transform="rotate(180) translate(-30 -48)">
    <use xlink:href="#rim"/>
    <path pointer-events="none" fill="none" stroke="white" stroke-width="1.5" d="M0,-3.0v7 M-2.5,-0.5L0,-3.0L2.5,-0.5"/>
  </g>
  <g id="arrowLeft" transform="rotate(270) translate(-36 17)">
    <use xlink:href="#rim"/>
    <path pointer-events="none" fill="none" stroke="white" stroke-width="1.5" d="M0,-3.0v7 M-2.5,-0.5L0,-3.0L2.5,-0.5"/>
  </g>
  <g id="resetDef">
    <use xlink:href="#rim2" fill="#404040"><set attributeName="fill" to="#808080" begin="reset.mouseover" end="reset.mouseout"/></use>
  </g>
</defs>
<script type="application/ecmascript">
var viewWidth = 958;
var viewHeight = 170;
var sectionId = 'dynsection-1';
</script>
<script type="application/ecmascript" xlink:href="svg.min.js"/>
<svg id="graph" class="graph">
<g id="viewport">
<title>src/montecarlo/optimizers/GA.hpp</title>
<!-- Node1 -->
<g id="Node000001" class="node">
<title>Node1</title>
<g id="a_Node000001"><a xlink:title="Genetic Algorithm (GA) interface and data structures.">
<polygon fill="#999999" stroke="#666666" points="718,-162 574,-162 574,-132 718,-132 718,-162"/>
<text text-anchor="start" x="582" y="-150" font-family="Helvetica,sans-Serif" font-size="10.00">src/montecarlo/optimizers</text>
<text text-anchor="middle" x="646" y="-139" font-family="Helvetica,sans-Serif" font-size="10.00">/GA.hpp</text>
</a>
</g>
</g>
<!-- Node2 -->
<g id="Node000002" class="node">
<title>Node2</title>
<g id="a_Node000002"><a xlink:href="benchmarks_8hpp.html" target="_top" xlink:title="Benchmarking framework for Monte Carlo integration algorithms.">
<polygon fill="white" stroke="#666666" points="445.5,-90.5 304.5,-90.5 304.5,-71.5 445.5,-71.5 445.5,-90.5"/>
<text text-anchor="middle" x="375" y="-78.5" font-family="Helvetica,sans-Serif" font-size="10.00">src/apps/benchmarks.hpp</text>
</a>
</g>
</g>
<!-- Node1&#45;&gt;Node2 -->
<g id="edge1_Node000001_Node000002" class="edge">
<title>Node1&#45;&gt;Node2</title>
<g id="a_edge1_Node000001_Node000002"><a xlink:title=" ">
<path fill="none" stroke="#63b8ff" d="M576.55,-129.6C523.72,-117.12 453.15,-100.46 411.07,-90.52"/>
<polygon fill="#63b8ff" stroke="#63b8ff" points="575.99,-133.06 586.53,-131.95 577.6,-126.25 575.99,-133.06"/>
</a>
</g>
</g>
<!-- Node8 -->
<g id="Node000008" class="node">
<title>Node8</title>
<g id="a_Node000008"><a xlink:href="test__rng__reproducibility_8cpp.html" target="_top" xlink:title="Test suite for RNG reproducibility and optimizer determinism.">
<polygon fill="white" stroke="#666666" points="658,-90.5 464,-90.5 464,-71.5 658,-71.5 658,-90.5"/>
<text text-anchor="middle" x="561" y="-78.5" font-family="Helvetica,sans-Serif" font-size="10.00">src/apps/test_rng_reproducibility.cpp</text>
</a>
</g>
</g>
<!-- Node1&#45;&gt;Node8 -->
<g id="edge7_Node000001_Node000008" class="edge">
<title>Node1&#45;&gt;Node8</title>
<g id="a_edge7_Node000001_Node000008"><a xlink:title=" ">
<path fill="none" stroke="#63b8ff" d="M618.89,-125.58C603.33,-113.87 584.6,-99.77 572.75,-90.84"/>
<polygon fill="#63b8ff" stroke="#63b8ff" points="617.04,-128.58 627.14,-131.8 621.25,-122.99 617.04,-128.58"/>
</a>
</g>
</g>
<!-- Node9 -->
<g id="Node000009" class="node">
<title>Node9</title>
<g id="a_Node000009"><a xlink:href="wind__farm__simulator_8cpp.html" target="_top" xlink:title="Wind Farm Layout Optimization using Hybrid MH&#45;Monte Carlo + PSO/GA.">
<polygon fill="white" stroke="#666666" points="788,-96 676,-96 676,-66 788,-66 788,-96"/>
<text text-anchor="start" x="684" y="-84" font-family="Helvetica,sans-Serif" font-size="10.00">src/apps/wind_farm</text>
<text text-anchor="middle" x="732" y="-73" font-family="Helvetica,sans-Serif" font-size="10.00">_simulator.cpp</text>
</a>
</g>
</g>
<!-- Node1&#45;&gt;Node9 -->
<g id="edge8_Node000001_Node000009" class="edge">
<title>Node1&#45;&gt;Node9</title>
<g id="a_edge8_Node000001_Node000009"><a xlink:title=" ">
<path fill="none" stroke="#63b8ff" d="M673.21,-125.75C686.14,-116.13 701.29,-104.86 712.97,-96.16"/>
<polygon fill="#63b8ff" stroke="#63b8ff" points="671.02,-123.02 665.09,-131.8 675.2,-128.63 671.02,-123.02"/>
</a>
</g>
</g>
<!-- Node10 -->
<g id="Node000010" class="node">
<title>Node10</title>
<g id="a_Node000010"><a xlink:href="GA_8cpp.html" target="_top" xlink:title="Genetic Algorithm implementation.">
<polygon fill="white" stroke="#666666" points="950,-96 806,-96 806,-66 950,-66 950,-96"/>
<text text-anchor="start" x="814" y="-84" font-family="Helvetica,sans-Serif" font-size="10.00">src/montecarlo/optimizers</text>
<text text-anchor="middle" x="878" y="-73" font-family="Helvetica,sans-Serif" font-size="10.00">/GA.cpp</text>
</a>
</g>
</g>
<!-- Node1&#45;&gt;Node10 -->
<g id="edge9_Node000001_Node000010" class="edge">
<title>Node1&#45;&gt;Node10</title>
<g id="a_edge9_Node000001_Node000010"><a xlink:title=" ">
<path fill="none" stroke="#63b8ff" d="M706.71,-129.25C744.19,-118.91 791.72,-105.8 827.21,-96.01"/>
<polygon fill="#63b8ff" stroke="#63b8ff" points="705.62,-125.92 696.91,-131.95 707.48,-132.67 705.62,-125.92"/>
</a>
</g>
</g>
<!-- Node3 -->
<g id="Node000003" class="node">
<title>Node3</title>
<g id="a_Node000003"><a xlink:href="benchmarks_8cpp.html" target="_top" xlink:title="Implementation of shared benchmark utilities and global configuration.">
<polygon fill="white" stroke="#666666" points="140,-24.5 0,-24.5 0,-5.5 140,-5.5 140,-24.5"/>
<text text-anchor="middle" x="70" y="-12.5" font-family="Helvetica,sans-Serif" font-size="10.00">src/apps/benchmarks.cpp</text>
</a>
</g>
</g>
<!-- Node2&#45;&gt;Node3 -->
<g id="edge2_Node000002_Node000003" class="edge">
<title>Node2&#45;&gt;Node3</title>
<g id="a_edge2_Node000002_Node000003"><a xlink:title=" ">
<path fill="none" stroke="#63b8ff" d="M324.18,-69.34C264.2,-56.75 165.69,-36.08 110.58,-24.51"/>
<polygon fill="#63b8ff" stroke="#63b8ff" points="323.68,-72.81 334.18,-71.44 325.11,-65.96 323.68,-72.81"/>
</a>
</g>
</g>
<!-- Node4 -->
<g id="Node000004" class="node">
<title>Node4</title>
<g id="a_Node000004"><a xlink:href="ga__benchmarks_8cpp.html" target="_top" xlink:title="Genetic Algorithm benchmark suite with visualization.">
<polygon fill="white" stroke="#666666" points="278,-30 158,-30 158,0 278,0 278,-30"/>
<text text-anchor="start" x="166" y="-18" font-family="Helvetica,sans-Serif" font-size="10.00">src/apps/benchmarks</text>
<text text-anchor="middle" x="218" y="-7" font-family="Helvetica,sans-Serif" font-size="10.00">/ga_benchmarks.cpp</text>
</a>
</g>
</g>
<!-- Node2&#45;&gt;Node4 -->
<g id="edge3_Node000002_Node000004" class="edge">
<title>Node2&#45;&gt;Node4</title>
<g id="a_edge3_Node000002_Node000004"><a xlink:title=" ">
<path fill="none" stroke="#63b8ff" d="M344.35,-67.5C318.01,-56.77 280.06,-41.3 252.63,-30.12"/>
<polygon fill="#63b8ff" stroke="#63b8ff" points="343.24,-70.83 353.83,-71.37 345.89,-64.35 343.24,-70.83"/>
</a>
</g>
</g>
<!-- Node5 -->
<g id="Node000005" class="node">
<title>Node5</title>
<g id="a_Node000005"><a xlink:href="integration__benchmarks_8cpp.html" target="_top" xlink:title="Benchmark suite for Monte Carlo integration algorithms.">
<polygon fill="white" stroke="#666666" points="454,-30 296,-30 296,0 454,0 454,-30"/>
<text text-anchor="start" x="304" y="-18" font-family="Helvetica,sans-Serif" font-size="10.00">src/apps/benchmarks</text>
<text text-anchor="middle" x="375" y="-7" font-family="Helvetica,sans-Serif" font-size="10.00">/integration_benchmarks.cpp</text>
</a>
</g>
</g>
<!-- Node2&#45;&gt;Node5 -->
<g id="edge4_Node000002_Node000005" class="edge">
<title>Node2&#45;&gt;Node5</title>
<g id="a_edge4_Node000002_Node000005"><a xlink:title=" ">
<path fill="none" stroke="#63b8ff" d="M375,-61.35C375,-51.47 375,-39.51 375,-30.36"/>
<polygon fill="#63b8ff" stroke="#63b8ff" points="371.5,-61.37 375,-71.37 378.5,-61.37 371.5,-61.37"/>
</a>
</g>
</g>
<!-- Node6 -->
<g id="Node000006" class="node">
<title>Node6</title>
<g id="a_Node000006"><a xlink:href="pso__benchmarks_8cpp.html" target="_top" xlink:title="Particle Swarm Optimization benchmark suite.">
<polygon fill="white" stroke="#666666" points="594,-30 472,-30 472,0 594,0 594,-30"/>
<text text-anchor="start" x="480" y="-18" font-family="Helvetica,sans-Serif" font-size="10.00">src/apps/benchmarks</text>
<text text-anchor="middle" x="533" y="-7" font-family="Helvetica,sans-Serif" font-size="10.00">/pso_benchmarks.cpp</text>
</a>
</g>
</g>
<!-- Node2&#45;&gt;Node6 -->
<g id="edge5_Node000002_Node000006" class="edge">
<title>Node2&#45;&gt;Node6</title>
<g id="a_edge5_Node000002_Node000006"><a xlink:title=" ">
<path fill="none" stroke="#63b8ff" d="M405.85,-67.5C432.35,-56.77 470.55,-41.3 498.15,-30.12"/>
<polygon fill="#63b8ff" stroke="#63b8ff" points="404.26,-64.37 396.31,-71.37 406.89,-70.86 404.26,-64.37"/>
</a>
</g>
</g>
<!-- Node7 -->
<g id="Node000007" class="node">
<title>Node7</title>
<g id="a_Node000007"><a xlink:href="main_8cpp.html" target="_top" xlink:title="Command&#45;line interface for Monte Carlo integration and benchmarking.">
<polygon fill="white" stroke="#666666" points="717.5,-24.5 612.5,-24.5 612.5,-5.5 717.5,-5.5 717.5,-24.5"/>
<text text-anchor="middle" x="665" y="-12.5" font-family="Helvetica,sans-Serif" font-size="10.00">src/apps/main.cpp</text>
</a>
</g>
</g>
<!-- Node2&#45;&gt;Node7 -->
<g id="edge6_Node000002_Node000007" class="edge">
<title>Node2&#45;&gt;Node7</title>
<g id="a_edge6_Node000002_Node000007"><a xlink:title=" ">
<path fill="none" stroke="#63b8ff" d="M424.19,-69.31C470.38,-59.24 541.4,-43.71 603,-30 610.86,-28.25 619.28,-26.36 627.3,-24.55"/>
<polygon fill="#63b8ff" stroke="#63b8ff" points="423.18,-65.94 414.15,-71.49 424.67,-72.78 423.18,-65.94"/>
</a>
</g>
</g>
</g>
</svg>

<g id="navigator" transform="translate(0 0)" fill="#404254">
  <rect fill="#f2f5e9" fill-opacity="0.5" stroke="#606060" stroke-width=".5" x="0" y="0" width="60" height="60"/>
  <use id="zoomplus" xlink:href="#zoomPlus" x="17" y="9" onmousedown="handleZoom(evt,'in')"/>
  <use id="zoomminus" xlink:href="#zoomMin" x="42" y="9" onmousedown="handleZoom(evt,'out')"/>
  <use id="reset" xlink:href="#resetDef" x="30" y="36" onmousedown="handleReset()"/>
   <use id="arrowup" xlink:href="#arrowUp" x="0" y="0" onmousedown="handlePan(0,-1)"/>
  <use id="arrowright" xlink:href="#arrowRight" x="0" y="0" onmousedown="handlePan(1,0)"/>
  <use id="arrowdown" xlink:href="#arrowDown" x="0" y="0" onmousedown="handlePan(0,1)"/>
  <use id="arrowleft" xlink:href="#arrowLeft" x="0" y="0" onmousedown="handlePan(-1,0)"/>
</g>
<svg viewBox="0 0 15 15" width="100%" height="30px" preserveAspectRatio="xMaxYMin meet">
 <g id="arrow_out" transform="scale(0.3 0.3)">
  <a xlink:href="GA_8hpp__dep__incl_org.svg" target="_base">
   <rect id="button" ry="5" rx="5" y="6" x="6" height="38" width="38"
        fill="#f2f5e9" fill-opacity="0.5" stroke="#606060" stroke-width="1.0"/>
   <path id="arrow"
     d="M 11.500037,31.436501 C 11.940474,20.09759 22.043105,11.32322 32.158766,21.979434 L 37.068811,17.246167 C 37.068811,17.246167 37.088388,32 37.088388,32 L 22.160133,31.978069 C 22.160133,31.978069 26.997745,27.140456 26.997745,27.140456 C 18.528582,18.264221 13.291696,25.230495 11.500037,31.436501 z"
     style="fill:#404040;"/>
  </a>
 </g>
</svg>

<style type='text/css'>
<![CDATA[
[data-mouse-over-selected='false'] { opacity: 0.7; }
[data-mouse-over-selected='true']  { opacity: 1.0; }
]]>
</style>
<script type="application/ecmascript"><![CDATA[
document.addEventListener('DOMContentLoaded', (event) => {
  highlightEdges();
  highlightAdjacentNodes();
});
]]></script>
</svg>
