<?xml version="1.0" encoding="UTF-8" standalone="no"?>
<!DOCTYPE svg PUBLIC "-//W3C//DTD SVG 1.1//EN"
 "http://www.w3.org/Graphics/SVG/1.1/DTD/svg11.dtd">
<!-- Generated by graphviz version 2.43.0 (0)
 -->
<!-- Title: runRastriginTest Pages: 1 -->
<svg width="442pt" height="187pt"
 viewBox="0.00 0.00 442.00 186.50" xmlns="http://www.w3.org/2000/svg" xmlns:xlink="http://www.w3.org/1999/xlink">
<g id="graph0" class="graph" transform="scale(1 1) rotate(0) translate(4 182.5)">
<title>runRastriginTest</title>
<!-- Node1 -->
<g id="Node000001" class="node">
<title>Node1</title>
<g id="a_Node000001"><a xlink:title=" ">
<polygon fill="#999999" stroke="#666666" points="95,-104.5 0,-104.5 0,-85.5 95,-85.5 95,-104.5"/>
<text text-anchor="middle" x="47.5" y="-92.5" font-family="Helvetica,sans-Serif" font-size="10.00">runRastriginTest</text>
</a>
</g>
</g>
<!-- Node2 -->
<g id="Node000002" class="node">
<title>Node2</title>
<g id="a_Node000002"><a xlink:href="classmc_1_1optim_1_1GA.html#a60d96a923e2ae97b7d6a9e569017133e" target="_top" xlink:title="Run GA for max_generations.">
<polygon fill="white" stroke="#666666" points="275.5,-178.5 140.5,-178.5 140.5,-159.5 275.5,-159.5 275.5,-178.5"/>
<text text-anchor="middle" x="208" y="-166.5" font-family="Helvetica,sans-Serif" font-size="10.00">mc::optim::GA::optimize</text>
</a>
</g>
</g>
<!-- Node1&#45;&gt;Node2 -->
<g id="edge1_Node000001_Node000002" class="edge">
<title>Node1&#45;&gt;Node2</title>
<g id="a_edge1_Node000001_Node000002"><a xlink:title=" ">
<path fill="none" stroke="#63b8ff" d="M59.72,-104.61C74.9,-117.11 103.27,-138.8 131,-151 135.69,-153.06 140.65,-154.91 145.7,-156.56"/>
<polygon fill="#63b8ff" stroke="#63b8ff" points="144.89,-159.97 155.47,-159.49 146.9,-153.26 144.89,-159.97"/>
</a>
</g>
</g>
<!-- Node4 -->
<g id="Node000004" class="node">
<title>Node4</title>
<g id="a_Node000004"><a xlink:href="classmc_1_1optim_1_1GA.html#a3620b539800a6de4e052ca1755365d4a" target="_top" xlink:title="Set lower/upper bounds of the search hyper&#45;rectangle.">
<polygon fill="white" stroke="#666666" points="279.5,-141.5 136.5,-141.5 136.5,-122.5 279.5,-122.5 279.5,-141.5"/>
<text text-anchor="middle" x="208" y="-129.5" font-family="Helvetica,sans-Serif" font-size="10.00">mc::optim::GA::setBounds</text>
</a>
</g>
</g>
<!-- Node1&#45;&gt;Node4 -->
<g id="edge3_Node000001_Node000004" class="edge">
<title>Node1&#45;&gt;Node4</title>
<g id="a_edge3_Node000001_Node000004"><a xlink:title=" ">
<path fill="none" stroke="#63b8ff" d="M89.32,-104.53C109.67,-109.28 134.48,-115.07 156.06,-120.11"/>
<polygon fill="#63b8ff" stroke="#63b8ff" points="155.51,-123.57 166.05,-122.44 157.1,-116.76 155.51,-123.57"/>
</a>
</g>
</g>
<!-- Node5 -->
<g id="Node000005" class="node">
<title>Node5</title>
<g id="a_Node000005"><a xlink:href="classmc_1_1optim_1_1GA.html#a9a23ff94c9500845326e1caad067f806" target="_top" xlink:title="Register a callback invoked after each generation.">
<polygon fill="white" stroke="#666666" points="282.5,-104.5 133.5,-104.5 133.5,-85.5 282.5,-85.5 282.5,-104.5"/>
<text text-anchor="middle" x="208" y="-92.5" font-family="Helvetica,sans-Serif" font-size="10.00">mc::optim::GA::setCallback</text>
</a>
</g>
</g>
<!-- Node1&#45;&gt;Node5 -->
<g id="edge4_Node000001_Node000005" class="edge">
<title>Node1&#45;&gt;Node5</title>
<g id="a_edge4_Node000001_Node000005"><a xlink:title=" ">
<path fill="none" stroke="#63b8ff" d="M95.2,-95C104.08,-95 113.61,-95 123.24,-95"/>
<polygon fill="#63b8ff" stroke="#63b8ff" points="123.28,-98.5 133.28,-95 123.28,-91.5 123.28,-98.5"/>
</a>
</g>
</g>
<!-- Node6 -->
<g id="Node000006" class="node">
<title>Node6</title>
<g id="a_Node000006"><a xlink:href="classmc_1_1optim_1_1GA.html#a29b82f44af247fffb47055f2ff321b91" target="_top" xlink:title="Set optimization mode (minimize or maximize).">
<polygon fill="white" stroke="#666666" points="275,-67.5 141,-67.5 141,-48.5 275,-48.5 275,-67.5"/>
<text text-anchor="middle" x="208" y="-55.5" font-family="Helvetica,sans-Serif" font-size="10.00">mc::optim::GA::setMode</text>
</a>
</g>
</g>
<!-- Node1&#45;&gt;Node6 -->
<g id="edge5_Node000001_Node000006" class="edge">
<title>Node1&#45;&gt;Node6</title>
<g id="a_edge5_Node000001_Node000006"><a xlink:title=" ">
<path fill="none" stroke="#63b8ff" d="M89.32,-85.47C109.67,-80.72 134.48,-74.93 156.06,-69.89"/>
<polygon fill="#63b8ff" stroke="#63b8ff" points="157.1,-73.24 166.05,-67.56 155.51,-66.43 157.1,-73.24"/>
</a>
</g>
</g>
<!-- Node8 -->
<g id="Node000008" class="node">
<title>Node8</title>
<g id="a_Node000008"><a xlink:href="classmc_1_1optim_1_1GA.html#ab782e318b0eb14592714bfdc51687967" target="_top" xlink:title="Set the objective function to optimize.">
<polygon fill="white" stroke="#666666" points="285,-30 131,-30 131,0 285,0 285,-30"/>
<text text-anchor="start" x="139" y="-18" font-family="Helvetica,sans-Serif" font-size="10.00">mc::optim::GA::setObjective</text>
<text text-anchor="middle" x="208" y="-7" font-family="Helvetica,sans-Serif" font-size="10.00">Function</text>
</a>
</g>
</g>
<!-- Node1&#45;&gt;Node8 -->
<g id="edge7_Node000001_Node000008" class="edge">
<title>Node1&#45;&gt;Node8</title>
<g id="a_edge7_Node000001_Node000008"><a xlink:title=" ">
<path fill="none" stroke="#63b8ff" d="M60.13,-85.49C75.52,-73.28 103.89,-52.13 131,-39 134.85,-37.13 138.88,-35.37 142.99,-33.71"/>
<polygon fill="#63b8ff" stroke="#63b8ff" points="144.58,-36.85 152.68,-30.02 142.09,-30.3 144.58,-36.85"/>
</a>
</g>
</g>
<!-- Node3 -->
<g id="Node000003" class="node">
<title>Node3</title>
<g id="a_Node000003"><a xlink:href="classmc_1_1optim_1_1GA.html#adc0dc7c216bdab52f273cbe2b181eced" target="_top" xlink:title="Perform one generation: selection, crossover, mutation, evaluation, and serial update of the global b...">
<polygon fill="white" stroke="#666666" points="434,-178.5 321,-178.5 321,-159.5 434,-159.5 434,-178.5"/>
<text text-anchor="middle" x="377.5" y="-166.5" font-family="Helvetica,sans-Serif" font-size="10.00">mc::optim::GA::step</text>
</a>
</g>
</g>
<!-- Node2&#45;&gt;Node3 -->
<g id="edge2_Node000002_Node000003" class="edge">
<title>Node2&#45;&gt;Node3</title>
<g id="a_edge2_Node000002_Node000003"><a xlink:title=" ">
<path fill="none" stroke="#63b8ff" d="M275.68,-169C287.14,-169 299.04,-169 310.47,-169"/>
<polygon fill="#63b8ff" stroke="#63b8ff" points="310.82,-172.5 320.82,-169 310.82,-165.5 310.82,-172.5"/>
</a>
</g>
</g>
<!-- Node7 -->
<g id="Node000007" class="node">
<title>Node7</title>
<g id="a_Node000007"><a xlink:href="structmc_1_1optim_1_1Solution.html#a611a6651c3a8910e5b1d9c53d03dade6" target="_top" xlink:title="Helper to create a worst&#45;case solution for initialization.">
<polygon fill="white" stroke="#666666" points="433.5,-73 321.5,-73 321.5,-43 433.5,-43 433.5,-73"/>
<text text-anchor="start" x="329.5" y="-61" font-family="Helvetica,sans-Serif" font-size="10.00">mc::optim::Solution</text>
<text text-anchor="middle" x="377.5" y="-50" font-family="Helvetica,sans-Serif" font-size="10.00">::make_worst</text>
</a>
</g>
</g>
<!-- Node6&#45;&gt;Node7 -->
<g id="edge6_Node000006_Node000007" class="edge">
<title>Node6&#45;&gt;Node7</title>
<g id="a_edge6_Node000006_Node000007"><a xlink:title=" ">
<path fill="none" stroke="#63b8ff" d="M275.2,-58C287.01,-58 299.31,-58 311.1,-58"/>
<polygon fill="#63b8ff" stroke="#63b8ff" points="311.3,-61.5 321.3,-58 311.3,-54.5 311.3,-61.5"/>
</a>
</g>
</g>
</g>
</svg>
