<?xml version="1.0" encoding="UTF-8" standalone="no"?>
<!DOCTYPE svg PUBLIC "-//W3C//DTD SVG 1.1//EN"
 "http://www.w3.org/Graphics/SVG/1.1/DTD/svg11.dtd">
<!-- Generated by graphviz version 2.43.0 (0)
 -->
<!-- Title: runVisualGA3DBenchmark Pages: 1 -->
<svg width="510pt" height="346pt"
 viewBox="0.00 0.00 510.00 346.00" xmlns="http://www.w3.org/2000/svg" xmlns:xlink="http://www.w3.org/1999/xlink">
<g id="graph0" class="graph" transform="scale(1 1) rotate(0) translate(4 342)">
<title>runVisualGA3DBenchmark</title>
<!-- Node1 -->
<g id="Node000001" class="node">
<title>Node1</title>
<g id="a_Node000001"><a xlink:title=" ">
<polygon fill="#999999" stroke="#666666" points="146,-178.5 0,-178.5 0,-159.5 146,-159.5 146,-178.5"/>
<text text-anchor="middle" x="73" y="-166.5" font-family="Helvetica,sans-Serif" font-size="10.00">runVisualGA3DBenchmark</text>
</a>
</g>
</g>
<!-- Node2 -->
<g id="Node000002" class="node">
<title>Node2</title>
<g id="a_Node000002"><a xlink:href="namespacemc_1_1utils.html#a24624a54455188c8275afd053e1f1f01" target="_top" xlink:title=" ">
<polygon fill="white" stroke="#666666" points="350,-338 185,-338 185,-308 350,-308 350,-338"/>
<text text-anchor="start" x="193" y="-326" font-family="Helvetica,sans-Serif" font-size="10.00">mc::utils::createPSOAnimation</text>
<text text-anchor="middle" x="267.5" y="-315" font-family="Helvetica,sans-Serif" font-size="10.00">Script3D</text>
</a>
</g>
</g>
<!-- Node1&#45;&gt;Node2 -->
<g id="edge1_Node000001_Node000002" class="edge">
<title>Node1&#45;&gt;Node2</title>
<g id="a_edge1_Node000001_Node000002"><a xlink:title=" ">
<path fill="none" stroke="#63b8ff" d="M79.15,-178.51C92.66,-202.56 131.59,-266.18 182,-299 184.46,-300.6 187.02,-302.09 189.66,-303.49"/>
<polygon fill="#63b8ff" stroke="#63b8ff" points="188.36,-306.75 198.9,-307.87 191.36,-300.42 188.36,-306.75"/>
</a>
</g>
</g>
<!-- Node3 -->
<g id="Node000003" class="node">
<title>Node3</title>
<g id="a_Node000003"><a xlink:href="classmc_1_1optim_1_1GA.html#af6df892181a8d13dcab0c23174052326" target="_top" xlink:title="Access the current population.">
<polygon fill="white" stroke="#666666" points="347.5,-289.5 187.5,-289.5 187.5,-270.5 347.5,-270.5 347.5,-289.5"/>
<text text-anchor="middle" x="267.5" y="-277.5" font-family="Helvetica,sans-Serif" font-size="10.00">mc::optim::GA::getPopulation</text>
</a>
</g>
</g>
<!-- Node1&#45;&gt;Node3 -->
<g id="edge2_Node000001_Node000003" class="edge">
<title>Node1&#45;&gt;Node3</title>
<g id="a_edge2_Node000001_Node000003"><a xlink:title=" ">
<path fill="none" stroke="#63b8ff" d="M82.11,-178.67C98.74,-197.82 138.77,-240.56 182,-262 185.85,-263.91 189.91,-265.62 194.06,-267.15"/>
<polygon fill="#63b8ff" stroke="#63b8ff" points="193.32,-270.59 203.91,-270.4 195.51,-263.94 193.32,-270.59"/>
</a>
</g>
</g>
<!-- Node4 -->
<g id="Node000004" class="node">
<title>Node4</title>
<g id="a_Node000004"><a xlink:href="classmc_1_1optim_1_1GA.html#a60d96a923e2ae97b7d6a9e569017133e" target="_top" xlink:title="Run GA for max_generations.">
<polygon fill="white" stroke="#666666" points="335,-252.5 200,-252.5 200,-233.5 335,-233.5 335,-252.5"/>
<text text-anchor="middle" x="267.5" y="-240.5" font-family="Helvetica,sans-Serif" font-size="10.00">mc::optim::GA::optimize</text>
</a>
</g>
</g>
<!-- Node1&#45;&gt;Node4 -->
<g id="edge3_Node000001_Node000004" class="edge">
<title>Node1&#45;&gt;Node4</title>
<g id="a_edge3_Node000001_Node000004"><a xlink:title=" ">
<path fill="none" stroke="#63b8ff" d="M89.14,-178.53C109.51,-190.94 147.21,-212.53 182,-225 188.26,-227.24 194.89,-229.25 201.57,-231.03"/>
<polygon fill="#63b8ff" stroke="#63b8ff" points="200.8,-234.45 211.35,-233.49 202.51,-227.66 200.8,-234.45"/>
</a>
</g>
</g>
<!-- Node6 -->
<g id="Node000006" class="node">
<title>Node6</title>
<g id="a_Node000006"><a xlink:href="namespacemc_1_1utils.html#afcb6a4dfd509c3402d30bb17cc5b0ddf" target="_top" xlink:title=" ">
<polygon fill="white" stroke="#666666" points="353,-215.5 182,-215.5 182,-196.5 353,-196.5 353,-215.5"/>
<text text-anchor="middle" x="267.5" y="-203.5" font-family="Helvetica,sans-Serif" font-size="10.00">mc::utils::saveFunctionSlices3D</text>
</a>
</g>
</g>
<!-- Node1&#45;&gt;Node6 -->
<g id="edge5_Node000001_Node000006" class="edge">
<title>Node1&#45;&gt;Node6</title>
<g id="a_edge5_Node000001_Node000006"><a xlink:title=" ">
<path fill="none" stroke="#63b8ff" d="M123.57,-178.53C148.96,-183.41 180.06,-189.39 206.76,-194.52"/>
<polygon fill="#63b8ff" stroke="#63b8ff" points="206.28,-197.99 216.76,-196.44 207.6,-191.11 206.28,-197.99"/>
</a>
</g>
</g>
<!-- Node7 -->
<g id="Node000007" class="node">
<title>Node7</title>
<g id="a_Node000007"><a xlink:href="ga__benchmarks_8cpp.html#ad6c040fe0123c5533d25a0042b0bcd54" target="_top" xlink:title=" ">
<polygon fill="white" stroke="#666666" points="335.5,-178.5 199.5,-178.5 199.5,-159.5 335.5,-159.5 335.5,-178.5"/>
<text text-anchor="middle" x="267.5" y="-166.5" font-family="Helvetica,sans-Serif" font-size="10.00">savePopulationFrame3D</text>
</a>
</g>
</g>
<!-- Node1&#45;&gt;Node7 -->
<g id="edge6_Node000001_Node000007" class="edge">
<title>Node1&#45;&gt;Node7</title>
<g id="a_edge6_Node000001_Node000007"><a xlink:title=" ">
<path fill="none" stroke="#63b8ff" d="M146.23,-169C160.22,-169 174.94,-169 189.09,-169"/>
<polygon fill="#63b8ff" stroke="#63b8ff" points="189.28,-172.5 199.28,-169 189.28,-165.5 189.28,-172.5"/>
</a>
</g>
</g>
<!-- Node9 -->
<g id="Node000009" class="node">
<title>Node9</title>
<g id="a_Node000009"><a xlink:href="classmc_1_1optim_1_1GA.html#a3620b539800a6de4e052ca1755365d4a" target="_top" xlink:title="Set lower/upper bounds of the search hyper&#45;rectangle.">
<polygon fill="white" stroke="#666666" points="339,-141.5 196,-141.5 196,-122.5 339,-122.5 339,-141.5"/>
<text text-anchor="middle" x="267.5" y="-129.5" font-family="Helvetica,sans-Serif" font-size="10.00">mc::optim::GA::setBounds</text>
</a>
</g>
</g>
<!-- Node1&#45;&gt;Node9 -->
<g id="edge8_Node000001_Node000009" class="edge">
<title>Node1&#45;&gt;Node9</title>
<g id="a_edge8_Node000001_Node000009"><a xlink:title=" ">
<path fill="none" stroke="#63b8ff" d="M123.57,-159.47C148.96,-154.59 180.06,-148.61 206.76,-143.48"/>
<polygon fill="#63b8ff" stroke="#63b8ff" points="207.6,-146.89 216.76,-141.56 206.28,-140.01 207.6,-146.89"/>
</a>
</g>
</g>
<!-- Node10 -->
<g id="Node000010" class="node">
<title>Node10</title>
<g id="a_Node000010"><a xlink:href="classmc_1_1optim_1_1GA.html#a9a23ff94c9500845326e1caad067f806" target="_top" xlink:title="Register a callback invoked after each generation.">
<polygon fill="white" stroke="#666666" points="342,-104.5 193,-104.5 193,-85.5 342,-85.5 342,-104.5"/>
<text text-anchor="middle" x="267.5" y="-92.5" font-family="Helvetica,sans-Serif" font-size="10.00">mc::optim::GA::setCallback</text>
</a>
</g>
</g>
<!-- Node1&#45;&gt;Node10 -->
<g id="edge9_Node000001_Node000010" class="edge">
<title>Node1&#45;&gt;Node10</title>
<g id="a_edge9_Node000001_Node000010"><a xlink:title=" ">
<path fill="none" stroke="#63b8ff" d="M89.9,-159.3C110.47,-147.12 147.76,-126.35 182,-114 189.26,-111.38 197.01,-109.05 204.75,-106.99"/>
<polygon fill="#63b8ff" stroke="#63b8ff" points="205.68,-110.37 214.52,-104.54 203.97,-103.58 205.68,-110.37"/>
</a>
</g>
</g>
<!-- Node11 -->
<g id="Node000011" class="node">
<title>Node11</title>
<g id="a_Node000011"><a xlink:href="classmc_1_1optim_1_1GA.html#a29b82f44af247fffb47055f2ff321b91" target="_top" xlink:title="Set optimization mode (minimize or maximize).">
<polygon fill="white" stroke="#666666" points="334.5,-67.5 200.5,-67.5 200.5,-48.5 334.5,-48.5 334.5,-67.5"/>
<text text-anchor="middle" x="267.5" y="-55.5" font-family="Helvetica,sans-Serif" font-size="10.00">mc::optim::GA::setMode</text>
</a>
</g>
</g>
<!-- Node1&#45;&gt;Node11 -->
<g id="edge10_Node000001_Node000011" class="edge">
<title>Node1&#45;&gt;Node11</title>
<g id="a_edge10_Node000001_Node000011"><a xlink:title=" ">
<path fill="none" stroke="#63b8ff" d="M82.11,-159.33C98.74,-140.18 138.77,-97.44 182,-76 185.85,-74.09 189.91,-72.38 194.06,-70.85"/>
<polygon fill="#63b8ff" stroke="#63b8ff" points="195.51,-74.06 203.91,-67.6 193.32,-67.41 195.51,-74.06"/>
</a>
</g>
</g>
<!-- Node13 -->
<g id="Node000013" class="node">
<title>Node13</title>
<g id="a_Node000013"><a xlink:href="classmc_1_1optim_1_1GA.html#ab782e318b0eb14592714bfdc51687967" target="_top" xlink:title="Set the objective function to optimize.">
<polygon fill="white" stroke="#666666" points="344.5,-30 190.5,-30 190.5,0 344.5,0 344.5,-30"/>
<text text-anchor="start" x="198.5" y="-18" font-family="Helvetica,sans-Serif" font-size="10.00">mc::optim::GA::setObjective</text>
<text text-anchor="middle" x="267.5" y="-7" font-family="Helvetica,sans-Serif" font-size="10.00">Function</text>
</a>
</g>
</g>
<!-- Node1&#45;&gt;Node13 -->
<g id="edge12_Node000001_Node000013" class="edge">
<title>Node1&#45;&gt;Node13</title>
<g id="a_edge12_Node000001_Node000013"><a xlink:title=" ">
<path fill="none" stroke="#63b8ff" d="M79.15,-159.49C92.66,-135.44 131.59,-71.82 182,-39 184.46,-37.4 187.02,-35.91 189.66,-34.51"/>
<polygon fill="#63b8ff" stroke="#63b8ff" points="191.36,-37.58 198.9,-30.13 188.36,-31.25 191.36,-37.58"/>
</a>
</g>
</g>
<!-- Node5 -->
<g id="Node000005" class="node">
<title>Node5</title>
<g id="a_Node000005"><a xlink:href="classmc_1_1optim_1_1GA.html#adc0dc7c216bdab52f273cbe2b181eced" target="_top" xlink:title="Perform one generation: selection, crossover, mutation, evaluation, and serial update of the global b...">
<polygon fill="white" stroke="#666666" points="502,-252.5 389,-252.5 389,-233.5 502,-233.5 502,-252.5"/>
<text text-anchor="middle" x="445.5" y="-240.5" font-family="Helvetica,sans-Serif" font-size="10.00">mc::optim::GA::step</text>
</a>
</g>
</g>
<!-- Node4&#45;&gt;Node5 -->
<g id="edge4_Node000004_Node000005" class="edge">
<title>Node4&#45;&gt;Node5</title>
<g id="a_edge4_Node000004_Node000005"><a xlink:title=" ">
<path fill="none" stroke="#63b8ff" d="M335.04,-243C349.29,-243 364.35,-243 378.58,-243"/>
<polygon fill="#63b8ff" stroke="#63b8ff" points="378.78,-246.5 388.78,-243 378.78,-239.5 378.78,-246.5"/>
</a>
</g>
</g>
<!-- Node8 -->
<g id="Node000008" class="node">
<title>Node8</title>
<g id="a_Node000008"><a xlink:href="ga__benchmarks_8cpp.html#a42a305c8b6ddf1e4da89be542dc2424b" target="_top" xlink:title="Generate frame filename for GA population evolution.">
<polygon fill="white" stroke="#666666" points="497.5,-178.5 393.5,-178.5 393.5,-159.5 497.5,-159.5 497.5,-178.5"/>
<text text-anchor="middle" x="445.5" y="-166.5" font-family="Helvetica,sans-Serif" font-size="10.00">makeFrameName</text>
</a>
</g>
</g>
<!-- Node7&#45;&gt;Node8 -->
<g id="edge7_Node000007_Node000008" class="edge">
<title>Node7&#45;&gt;Node8</title>
<g id="a_edge7_Node000007_Node000008"><a xlink:title=" ">
<path fill="none" stroke="#63b8ff" d="M335.54,-169C351.09,-169 367.57,-169 382.87,-169"/>
<polygon fill="#63b8ff" stroke="#63b8ff" points="383.25,-172.5 393.25,-169 383.25,-165.5 383.25,-172.5"/>
</a>
</g>
</g>
<!-- Node12 -->
<g id="Node000012" class="node">
<title>Node12</title>
<g id="a_Node000012"><a xlink:href="structmc_1_1optim_1_1Solution.html#a611a6651c3a8910e5b1d9c53d03dade6" target="_top" xlink:title="Helper to create a worst&#45;case solution for initialization.">
<polygon fill="white" stroke="#666666" points="501.5,-73 389.5,-73 389.5,-43 501.5,-43 501.5,-73"/>
<text text-anchor="start" x="397.5" y="-61" font-family="Helvetica,sans-Serif" font-size="10.00">mc::optim::Solution</text>
<text text-anchor="middle" x="445.5" y="-50" font-family="Helvetica,sans-Serif" font-size="10.00">::make_worst</text>
</a>
</g>
</g>
<!-- Node11&#45;&gt;Node12 -->
<g id="edge11_Node000011_Node000012" class="edge">
<title>Node11&#45;&gt;Node12</title>
<g id="a_edge11_Node000011_Node000012"><a xlink:title=" ">
<path fill="none" stroke="#63b8ff" d="M334.54,-58C349.06,-58 364.43,-58 378.93,-58"/>
<polygon fill="#63b8ff" stroke="#63b8ff" points="379.31,-61.5 389.31,-58 379.31,-54.5 379.31,-61.5"/>
</a>
</g>
</g>
</g>
</svg>
