<?xml version="1.0" encoding="UTF-8" standalone="no"?>
<!DOCTYPE svg PUBLIC "-//W3C//DTD SVG 1.1//EN"
 "http://www.w3.org/Graphics/SVG/1.1/DTD/svg11.dtd">
<!-- Generated by graphviz version 2.43.0 (0)
 -->
<!-- Title: runSphereTest Pages: 1 -->
<svg width="433pt" height="187pt"
 viewBox="0.00 0.00 433.00 186.50" xmlns="http://www.w3.org/2000/svg" xmlns:xlink="http://www.w3.org/1999/xlink">

<svg id="main" version="1.1" xmlns="http://www.w3.org/2000/svg" xmlns:xlink="http://www.w3.org/1999/xlink" xml:space="preserve" onload="init(evt)">
<style type="text/css"><![CDATA[
.node, .edge {opacity: 0.7;}
.node.selected, .edge.selected {opacity: 1;}
.edge:hover path { stroke: red; }
.edge:hover polygon { stroke: red; fill: red; }
]]></style>
<script type="application/ecmascript" xlink:href="svg.min.js"/>
<svg id="graph" class="graph">
<g id="graph0" class="graph" transform="scale(1 1) rotate(0) translate(4 182.5)">
<title>runSphereTest</title>
<!-- Node1 -->
<g id="Node000001" class="node">
<title>Node1</title>
<g id="a_Node000001"><a xlink:title=" ">
<polygon fill="#999999" stroke="#666666" points="86,-104.5 0,-104.5 0,-85.5 86,-85.5 86,-104.5"/>
<text text-anchor="middle" x="43" y="-92.5" font-family="Helvetica,sans-Serif" font-size="10.00">runSphereTest</text>
</a>
</g>
</g>
<!-- Node2 -->
<g id="Node000002" class="node">
<title>Node2</title>
<g id="a_Node000002"><a xlink:href="classmc_1_1optim_1_1GA.html#a60d96a923e2ae97b7d6a9e569017133e" target="_top" xlink:title="Run GA for max_generations.">
<polygon fill="white" stroke="#666666" points="266.5,-178.5 131.5,-178.5 131.5,-159.5 266.5,-159.5 266.5,-178.5"/>
<text text-anchor="middle" x="199" y="-166.5" font-family="Helvetica,sans-Serif" font-size="10.00">mc::optim::GA::optimize</text>
</a>
</g>
</g>
<!-- Node1&#45;&gt;Node2 -->
<g id="edge1_Node000001_Node000002" class="edge">
<title>Node1&#45;&gt;Node2</title>
<g id="a_edge1_Node000001_Node000002"><a xlink:title=" ">
<path fill="none" stroke="#63b8ff" d="M54.76,-104.85C69.06,-117.42 95.61,-138.97 122,-151 126.4,-153 131.04,-154.8 135.78,-156.4"/>
<polygon fill="#63b8ff" stroke="#63b8ff" points="135,-159.82 145.59,-159.44 137.07,-153.14 135,-159.82"/>
</a>
</g>
</g>
<!-- Node4 -->
<g id="Node000004" class="node">
<title>Node4</title>
<g id="a_Node000004"><a xlink:href="classmc_1_1optim_1_1GA.html#a3620b539800a6de4e052ca1755365d4a" target="_top" xlink:title="Set lower/upper bounds of the search hyper&#45;rectangle.">
<polygon fill="white" stroke="#666666" points="270.5,-141.5 127.5,-141.5 127.5,-122.5 270.5,-122.5 270.5,-141.5"/>
<text text-anchor="middle" x="199" y="-129.5" font-family="Helvetica,sans-Serif" font-size="10.00">mc::optim::GA::setBounds</text>
</a>
</g>
</g>
<!-- Node1&#45;&gt;Node4 -->
<g id="edge3_Node000001_Node000004" class="edge">
<title>Node1&#45;&gt;Node4</title>
<g id="a_edge3_Node000001_Node000004"><a xlink:title=" ">
<path fill="none" stroke="#63b8ff" d="M82.87,-104.52C95.36,-107.57 109.26,-110.94 122,-114 130.24,-115.98 139,-118.07 147.51,-120.09"/>
<polygon fill="#63b8ff" stroke="#63b8ff" points="146.83,-123.52 157.36,-122.43 148.44,-116.71 146.83,-123.52"/>
</a>
</g>
</g>
<!-- Node5 -->
<g id="Node000005" class="node">
<title>Node5</title>
<g id="a_Node000005"><a xlink:href="classmc_1_1optim_1_1GA.html#a9a23ff94c9500845326e1caad067f806" target="_top" xlink:title="Register a callback invoked after each generation.">
<polygon fill="white" stroke="#666666" points="273.5,-104.5 124.5,-104.5 124.5,-85.5 273.5,-85.5 273.5,-104.5"/>
<text text-anchor="middle" x="199" y="-92.5" font-family="Helvetica,sans-Serif" font-size="10.00">mc::optim::GA::setCallback</text>
</a>
</g>
</g>
<!-- Node1&#45;&gt;Node5 -->
<g id="edge4_Node000001_Node000005" class="edge">
<title>Node1&#45;&gt;Node5</title>
<g id="a_edge4_Node000001_Node000005"><a xlink:title=" ">
<path fill="none" stroke="#63b8ff" d="M86.08,-95C94.87,-95 104.43,-95 114.14,-95"/>
<polygon fill="#63b8ff" stroke="#63b8ff" points="114.28,-98.5 124.28,-95 114.28,-91.5 114.28,-98.5"/>
</a>
</g>
</g>
<!-- Node6 -->
<g id="Node000006" class="node">
<title>Node6</title>
<g id="a_Node000006"><a xlink:href="classmc_1_1optim_1_1GA.html#a29b82f44af247fffb47055f2ff321b91" target="_top" xlink:title="Set optimization mode (minimize or maximize).">
<polygon fill="white" stroke="#666666" points="266,-67.5 132,-67.5 132,-48.5 266,-48.5 266,-67.5"/>
<text text-anchor="middle" x="199" y="-55.5" font-family="Helvetica,sans-Serif" font-size="10.00">mc::optim::GA::setMode</text>
</a>
</g>
</g>
<!-- Node1&#45;&gt;Node6 -->
<g id="edge5_Node000001_Node000006" class="edge">
<title>Node1&#45;&gt;Node6</title>
<g id="a_edge5_Node000001_Node000006"><a xlink:title=" ">
<path fill="none" stroke="#63b8ff" d="M82.87,-85.48C95.36,-82.43 109.26,-79.06 122,-76 130.24,-74.02 139,-71.93 147.51,-69.91"/>
<polygon fill="#63b8ff" stroke="#63b8ff" points="148.44,-73.29 157.36,-67.57 146.83,-66.48 148.44,-73.29"/>
</a>
</g>
</g>
<!-- Node8 -->
<g id="Node000008" class="node">
<title>Node8</title>
<g id="a_Node000008"><a xlink:href="classmc_1_1optim_1_1GA.html#ab782e318b0eb14592714bfdc51687967" target="_top" xlink:title="Set the objective function to optimize.">
<polygon fill="white" stroke="#666666" points="276,-30 122,-30 122,0 276,0 276,-30"/>
<text text-anchor="start" x="130" y="-18" font-family="Helvetica,sans-Serif" font-size="10.00">mc::optim::GA::setObjective</text>
<text text-anchor="middle" x="199" y="-7" font-family="Helvetica,sans-Serif" font-size="10.00">Function</text>
</a>
</g>
</g>
<!-- Node1&#45;&gt;Node8 -->
<g id="edge7_Node000001_Node000008" class="edge">
<title>Node1&#45;&gt;Node8</title>
<g id="a_edge7_Node000001_Node000008"><a xlink:title=" ">
<path fill="none" stroke="#63b8ff" d="M54.9,-85.44C69.35,-73.19 96.06,-51.99 122,-39 125.59,-37.2 129.33,-35.51 133.16,-33.91"/>
<polygon fill="#63b8ff" stroke="#63b8ff" points="134.75,-37.05 142.79,-30.15 132.21,-30.53 134.75,-37.05"/>
</a>
</g>
</g>
<!-- Node3 -->
<g id="Node000003" class="node">
<title>Node3</title>
<g id="a_Node000003"><a xlink:href="classmc_1_1optim_1_1GA.html#adc0dc7c216bdab52f273cbe2b181eced" target="_top" xlink:title="Perform one generation: selection, crossover, mutation, evaluation, and serial update of the global b...">
<polygon fill="white" stroke="#666666" points="425,-178.5 312,-178.5 312,-159.5 425,-159.5 425,-178.5"/>
<text text-anchor="middle" x="368.5" y="-166.5" font-family="Helvetica,sans-Serif" font-size="10.00">mc::optim::GA::step</text>
</a>
</g>
</g>
<!-- Node2&#45;&gt;Node3 -->
<g id="edge2_Node000002_Node000003" class="edge">
<title>Node2&#45;&gt;Node3</title>
<g id="a_edge2_Node000002_Node000003"><a xlink:title=" ">
<path fill="none" stroke="#63b8ff" d="M266.68,-169C278.14,-169 290.04,-169 301.47,-169"/>
<polygon fill="#63b8ff" stroke="#63b8ff" points="301.82,-172.5 311.82,-169 301.82,-165.5 301.82,-172.5"/>
</a>
</g>
</g>
<!-- Node7 -->
<g id="Node000007" class="node">
<title>Node7</title>
<g id="a_Node000007"><a xlink:href="structmc_1_1optim_1_1Solution.html#a611a6651c3a8910e5b1d9c53d03dade6" target="_top" xlink:title="Helper to create a worst&#45;case solution for initialization.">
<polygon fill="white" stroke="#666666" points="424.5,-73 312.5,-73 312.5,-43 424.5,-43 424.5,-73"/>
<text text-anchor="start" x="320.5" y="-61" font-family="Helvetica,sans-Serif" font-size="10.00">mc::optim::Solution</text>
<text text-anchor="middle" x="368.5" y="-50" font-family="Helvetica,sans-Serif" font-size="10.00">::make_worst</text>
</a>
</g>
</g>
<!-- Node6&#45;&gt;Node7 -->
<g id="edge6_Node000006_Node000007" class="edge">
<title>Node6&#45;&gt;Node7</title>
<g id="a_edge6_Node000006_Node000007"><a xlink:title=" ">
<path fill="none" stroke="#63b8ff" d="M266.2,-58C278.01,-58 290.31,-58 302.1,-58"/>
<polygon fill="#63b8ff" stroke="#63b8ff" points="302.3,-61.5 312.3,-58 302.3,-54.5 302.3,-61.5"/>
</a>
</g>
</g>
</g>
</svg>
</svg>

<style type='text/css'>
<![CDATA[
[data-mouse-over-selected='false'] { opacity: 0.7; }
[data-mouse-over-selected='true']  { opacity: 1.0; }
]]>
</style>
<script type="application/ecmascript"><![CDATA[
document.addEventListener('DOMContentLoaded', (event) => {
  highlightEdges();
  highlightAdjacentNodes();
});
]]></script>
</svg>
