<?xml version="1.0" encoding="UTF-8" standalone="no"?>
<!DOCTYPE svg PUBLIC "-//W3C//DTD SVG 1.1//EN"
 "http://www.w3.org/Graphics/SVG/1.1/DTD/svg11.dtd">
<!-- Generated by graphviz version 2.43.0 (0)
 -->
<!-- Title: runOptimizationBenchmarksGA Pages: 1 -->
<!--zoomable 476 -->

<svg id="main" version="1.1" xmlns="http://www.w3.org/2000/svg" xmlns:xlink="http://www.w3.org/1999/xlink" xml:space="preserve" onload="init(evt)">
<style type="text/css"><![CDATA[
.node, .edge {opacity: 0.7;}
.node.selected, .edge.selected {opacity: 1;}
.edge:hover path { stroke: red; }
.edge:hover polygon { stroke: red; fill: red; }
]]></style>

<defs>
  <circle id="rim" cx="0" cy="0" r="7"/>
  <circle id="rim2" cx="0" cy="0" r="3.5"/>
  <g id="zoomPlus">
    <use xlink:href="#rim" fill="#404040"><set attributeName="fill" to="#808080" begin="zoomplus.mouseover" end="zoomplus.mouseout"/></use>
    <path d="M-4,0h8M0,-4v8" fill="none" stroke="white" stroke-width="1.5" pointer-events="none"/>
  </g>
  <g id="zoomMin">
    <use xlink:href="#rim" fill="#404040"><set attributeName="fill" to="#808080" begin="zoomminus.mouseover" end="zoomminus.mouseout"/></use>
    <path d="M-4,0h8" fill="none" stroke="white" stroke-width="1.5" pointer-events="none"/>
  </g>
  <g id="arrowUp" transform="translate(30 24)">
    <use xlink:href="#rim"/>
    <path pointer-events="none" fill="none" stroke="white" stroke-width="1.5" d="M0,-3.0v7 M-2.5,-0.5L0,-3.0L2.5,-0.5"/>
  </g>
  <g id="arrowRight" transform="rotate(90) translate(36 -43)">
    <use xlink:href="#rim"/>
    <path pointer-events="none" fill="none" stroke="white" stroke-width="1.5" d="M0,-3.0v7 M-2.5,-0.5L0,-3.0L2.5,-0.5"/>
  </g>
  <g id="arrowDown" transform="rotate(180) translate(-30 -48)">
    <use xlink:href="#rim"/>
    <path pointer-events="none" fill="none" stroke="white" stroke-width="1.5" d="M0,-3.0v7 M-2.5,-0.5L0,-3.0L2.5,-0.5"/>
  </g>
  <g id="arrowLeft" transform="rotate(270) translate(-36 17)">
    <use xlink:href="#rim"/>
    <path pointer-events="none" fill="none" stroke="white" stroke-width="1.5" d="M0,-3.0v7 M-2.5,-0.5L0,-3.0L2.5,-0.5"/>
  </g>
  <g id="resetDef">
    <use xlink:href="#rim2" fill="#404040"><set attributeName="fill" to="#808080" begin="reset.mouseover" end="reset.mouseout"/></use>
  </g>
</defs>
<script type="application/ecmascript">
var viewWidth = 716;
var viewHeight = 476;
var sectionId = 'dynsection-2';
</script>
<script type="application/ecmascript" xlink:href="svg.min.js"/>
<svg id="graph" class="graph">
<g id="viewport">
<title>runOptimizationBenchmarksGA</title>
<!-- Node1 -->
<g id="Node000001" class="node">
<title>Node1</title>
<g id="a_Node000001"><a xlink:title=" ">
<polygon fill="#999999" stroke="#666666" points="170,-339 0,-339 0,-320 170,-320 170,-339"/>
<text text-anchor="middle" x="85" y="-327" font-family="Helvetica,sans-Serif" font-size="10.00">runOptimizationBenchmarksGA</text>
</a>
</g>
</g>
<!-- Node2 -->
<g id="Node000002" class="node">
<title>Node2</title>
<g id="a_Node000002"><a xlink:href="ga__benchmarks_8cpp.html#a22e0c750e645c80e6b2618e07a51920d" target="_top" xlink:title=" ">
<polygon fill="white" stroke="#666666" points="328,-413 230,-413 230,-394 328,-394 328,-413"/>
<text text-anchor="middle" x="279" y="-401" font-family="Helvetica,sans-Serif" font-size="10.00">runBoundaryTest</text>
</a>
</g>
</g>
<!-- Node1&#45;&gt;Node2 -->
<g id="edge1_Node000001_Node000002" class="edge">
<title>Node1&#45;&gt;Node2</title>
<g id="a_edge1_Node000001_Node000002"><a xlink:title=" ">
<path fill="none" stroke="#63b8ff" d="M103.84,-339.15C126.89,-351.31 168.51,-372.21 206,-385.5 211.9,-387.59 218.15,-389.54 224.41,-391.32"/>
<polygon fill="#63b8ff" stroke="#63b8ff" points="223.63,-394.73 234.2,-393.97 225.46,-387.98 223.63,-394.73"/>
</a>
</g>
</g>
<!-- Node10 -->
<g id="Node000010" class="node">
<title>Node10</title>
<g id="a_Node000010"><a xlink:href="ga__benchmarks_8cpp.html#a9f2280ffbdaa7d928b9444297cdfea86" target="_top" xlink:title=" ">
<polygon fill="white" stroke="#666666" points="326.5,-376 231.5,-376 231.5,-357 326.5,-357 326.5,-376"/>
<text text-anchor="middle" x="279" y="-364" font-family="Helvetica,sans-Serif" font-size="10.00">runRastriginTest</text>
</a>
</g>
</g>
<!-- Node1&#45;&gt;Node10 -->
<g id="edge9_Node000001_Node000010" class="edge">
<title>Node1&#45;&gt;Node10</title>
<g id="a_edge9_Node000001_Node000010"><a xlink:title=" ">
<path fill="none" stroke="#63b8ff" d="M135.44,-339.03C161.65,-344.08 193.97,-350.31 221.2,-355.55"/>
<polygon fill="#63b8ff" stroke="#63b8ff" points="220.88,-359.06 231.37,-357.51 222.21,-352.18 220.88,-359.06"/>
</a>
</g>
</g>
<!-- Node11 -->
<g id="Node000011" class="node">
<title>Node11</title>
<g id="a_Node000011"><a xlink:href="ga__benchmarks_8cpp.html#ad60626f9237f6c8d14ca76d941e7a106" target="_top" xlink:title=" ">
<polygon fill="white" stroke="#666666" points="322,-339 236,-339 236,-320 322,-320 322,-339"/>
<text text-anchor="middle" x="279" y="-327" font-family="Helvetica,sans-Serif" font-size="10.00">runSphereTest</text>
</a>
</g>
</g>
<!-- Node1&#45;&gt;Node11 -->
<g id="edge15_Node000001_Node000011" class="edge">
<title>Node1&#45;&gt;Node11</title>
<g id="a_edge15_Node000001_Node000011"><a xlink:title=" ">
<path fill="none" stroke="#63b8ff" d="M170.21,-329.5C189.07,-329.5 208.54,-329.5 225.66,-329.5"/>
<polygon fill="#63b8ff" stroke="#63b8ff" points="225.99,-333 235.99,-329.5 225.99,-326 225.99,-333"/>
</a>
</g>
</g>
<!-- Node12 -->
<g id="Node000012" class="node">
<title>Node12</title>
<g id="a_Node000012"><a xlink:href="ga__benchmarks_8cpp.html#a42a954b4617dc2506af15c75dbfe1ce9" target="_top" xlink:title=" ">
<polygon fill="white" stroke="#666666" points="352,-265 206,-265 206,-246 352,-246 352,-265"/>
<text text-anchor="middle" x="279" y="-253" font-family="Helvetica,sans-Serif" font-size="10.00">runVisualGA3DBenchmark</text>
</a>
</g>
</g>
<!-- Node1&#45;&gt;Node12 -->
<g id="edge21_Node000001_Node000012" class="edge">
<title>Node1&#45;&gt;Node12</title>
<g id="a_edge21_Node000001_Node000012"><a xlink:title=" ">
<path fill="none" stroke="#63b8ff" d="M104.29,-319.91C127.48,-308.05 168.89,-287.79 206,-274.5 212.78,-272.07 220.01,-269.8 227.19,-267.74"/>
<polygon fill="#63b8ff" stroke="#63b8ff" points="228.18,-271.09 236.88,-265.05 226.31,-264.35 228.18,-271.09"/>
</a>
</g>
</g>
<!-- Node18 -->
<g id="Node000018" class="node">
<title>Node18</title>
<g id="a_Node000018"><a xlink:href="ga__benchmarks_8cpp.html#a67ef1f2938c24bacb1cfcee958a71386" target="_top" xlink:title=" ">
<polygon fill="white" stroke="#666666" points="345,-302 213,-302 213,-283 345,-283 345,-302"/>
<text text-anchor="middle" x="279" y="-290" font-family="Helvetica,sans-Serif" font-size="10.00">runVisualGABenchmark</text>
</a>
</g>
</g>
<!-- Node1&#45;&gt;Node18 -->
<g id="edge32_Node000001_Node000018" class="edge">
<title>Node1&#45;&gt;Node18</title>
<g id="a_edge32_Node000001_Node000018"><a xlink:title=" ">
<path fill="none" stroke="#63b8ff" d="M135.44,-319.97C160.77,-315.09 191.79,-309.11 218.42,-303.98"/>
<polygon fill="#63b8ff" stroke="#63b8ff" points="219.23,-307.39 228.39,-302.06 217.91,-300.52 219.23,-307.39"/>
</a>
</g>
</g>
<!-- Node3 -->
<g id="Node000003" class="node">
<title>Node3</title>
<g id="a_Node000003"><a xlink:href="classmc_1_1optim_1_1GA.html#a60d96a923e2ae97b7d6a9e569017133e" target="_top" xlink:title="Run GA for max_generations.">
<polygon fill="white" stroke="#666666" points="541,-376 406,-376 406,-357 541,-357 541,-376"/>
<text text-anchor="middle" x="473.5" y="-364" font-family="Helvetica,sans-Serif" font-size="10.00">mc::optim::GA::optimize</text>
</a>
</g>
</g>
<!-- Node2&#45;&gt;Node3 -->
<g id="edge2_Node000002_Node000003" class="edge">
<title>Node2&#45;&gt;Node3</title>
<g id="a_edge2_Node000002_Node000003"><a xlink:title=" ">
<path fill="none" stroke="#63b8ff" d="M328.08,-394.26C353.87,-389.3 385.87,-383.15 413.19,-377.9"/>
<polygon fill="#63b8ff" stroke="#63b8ff" points="413.86,-381.33 423.02,-376.01 412.54,-374.46 413.86,-381.33"/>
</a>
</g>
</g>
<!-- Node5 -->
<g id="Node000005" class="node">
<title>Node5</title>
<g id="a_Node000005"><a xlink:href="classmc_1_1optim_1_1GA.html#a3620b539800a6de4e052ca1755365d4a" target="_top" xlink:title="Set lower/upper bounds of the search hyper&#45;rectangle.">
<polygon fill="white" stroke="#666666" points="545,-339 402,-339 402,-320 545,-320 545,-339"/>
<text text-anchor="middle" x="473.5" y="-327" font-family="Helvetica,sans-Serif" font-size="10.00">mc::optim::GA::setBounds</text>
</a>
</g>
</g>
<!-- Node2&#45;&gt;Node5 -->
<g id="edge4_Node000002_Node000005" class="edge">
<title>Node2&#45;&gt;Node5</title>
<g id="a_edge4_Node000002_Node000005"><a xlink:title=" ">
<path fill="none" stroke="#63b8ff" d="M328.31,-395.37C336.53,-392.89 344.74,-389.68 352,-385.5 371.89,-374.06 367.98,-359.7 388,-348.5 392.13,-346.19 396.52,-344.16 401.05,-342.38"/>
<polygon fill="#63b8ff" stroke="#63b8ff" points="402.22,-345.68 410.49,-339.05 399.89,-339.07 402.22,-345.68"/>
</a>
</g>
</g>
<!-- Node6 -->
<g id="Node000006" class="node">
<title>Node6</title>
<g id="a_Node000006"><a xlink:href="classmc_1_1optim_1_1GA.html#a9a23ff94c9500845326e1caad067f806" target="_top" xlink:title="Register a callback invoked after each generation.">
<polygon fill="white" stroke="#666666" points="548,-302 399,-302 399,-283 548,-283 548,-302"/>
<text text-anchor="middle" x="473.5" y="-290" font-family="Helvetica,sans-Serif" font-size="10.00">mc::optim::GA::setCallback</text>
</a>
</g>
</g>
<!-- Node2&#45;&gt;Node6 -->
<g id="edge5_Node000002_Node000006" class="edge">
<title>Node2&#45;&gt;Node6</title>
<g id="a_edge5_Node000002_Node000006"><a xlink:title=" ">
<path fill="none" stroke="#63b8ff" d="M328.08,-397.68C336.68,-394.99 345.1,-391.1 352,-385.5 380.4,-362.46 359.32,-334.2 388,-311.5 390.11,-309.83 392.35,-308.29 394.67,-306.89"/>
<polygon fill="#63b8ff" stroke="#63b8ff" points="396.73,-309.77 404.04,-302.1 393.54,-303.54 396.73,-309.77"/>
</a>
</g>
</g>
<!-- Node7 -->
<g id="Node000007" class="node">
<title>Node7</title>
<g id="a_Node000007"><a xlink:href="classmc_1_1optim_1_1GA.html#a29b82f44af247fffb47055f2ff321b91" target="_top" xlink:title="Set optimization mode (minimize or maximize).">
<polygon fill="white" stroke="#666666" points="540.5,-462 406.5,-462 406.5,-443 540.5,-443 540.5,-462"/>
<text text-anchor="middle" x="473.5" y="-450" font-family="Helvetica,sans-Serif" font-size="10.00">mc::optim::GA::setMode</text>
</a>
</g>
</g>
<!-- Node2&#45;&gt;Node7 -->
<g id="edge6_Node000002_Node000007" class="edge">
<title>Node2&#45;&gt;Node7</title>
<g id="a_edge6_Node000002_Node000007"><a xlink:title=" ">
<path fill="none" stroke="#63b8ff" d="M312.97,-413.12C334.3,-419.23 362.71,-427.15 388,-433.5 397.73,-435.94 408.14,-438.41 418.2,-440.71"/>
<polygon fill="#63b8ff" stroke="#63b8ff" points="417.58,-444.16 428.11,-442.95 419.13,-437.33 417.58,-444.16"/>
</a>
</g>
</g>
<!-- Node9 -->
<g id="Node000009" class="node">
<title>Node9</title>
<g id="a_Node000009"><a xlink:href="classmc_1_1optim_1_1GA.html#ab782e318b0eb14592714bfdc51687967" target="_top" xlink:title="Set the objective function to optimize.">
<polygon fill="white" stroke="#666666" points="550.5,-424.5 396.5,-424.5 396.5,-394.5 550.5,-394.5 550.5,-424.5"/>
<text text-anchor="start" x="404.5" y="-412.5" font-family="Helvetica,sans-Serif" font-size="10.00">mc::optim::GA::setObjective</text>
<text text-anchor="middle" x="473.5" y="-401.5" font-family="Helvetica,sans-Serif" font-size="10.00">Function</text>
</a>
</g>
</g>
<!-- Node2&#45;&gt;Node9 -->
<g id="edge8_Node000002_Node000009" class="edge">
<title>Node2&#45;&gt;Node9</title>
<g id="a_edge8_Node000002_Node000009"><a xlink:title=" ">
<path fill="none" stroke="#63b8ff" d="M328.08,-405C345.7,-405.55 366.23,-406.19 386.18,-406.81"/>
<polygon fill="#63b8ff" stroke="#63b8ff" points="386.13,-410.31 396.23,-407.12 386.34,-403.31 386.13,-410.31"/>
</a>
</g>
</g>
<!-- Node4 -->
<g id="Node000004" class="node">
<title>Node4</title>
<g id="a_Node000004"><a xlink:href="classmc_1_1optim_1_1GA.html#adc0dc7c216bdab52f273cbe2b181eced" target="_top" xlink:title="Perform one generation: selection, crossover, mutation, evaluation, and serial update of the global b...">
<polygon fill="white" stroke="#666666" points="708,-376 595,-376 595,-357 708,-357 708,-376"/>
<text text-anchor="middle" x="651.5" y="-364" font-family="Helvetica,sans-Serif" font-size="10.00">mc::optim::GA::step</text>
</a>
</g>
</g>
<!-- Node3&#45;&gt;Node4 -->
<g id="edge3_Node000003_Node000004" class="edge">
<title>Node3&#45;&gt;Node4</title>
<g id="a_edge3_Node000003_Node000004"><a xlink:title=" ">
<path fill="none" stroke="#63b8ff" d="M541.04,-366.5C555.29,-366.5 570.35,-366.5 584.58,-366.5"/>
<polygon fill="#63b8ff" stroke="#63b8ff" points="584.78,-370 594.78,-366.5 584.78,-363 584.78,-370"/>
</a>
</g>
</g>
<!-- Node8 -->
<g id="Node000008" class="node">
<title>Node8</title>
<g id="a_Node000008"><a xlink:href="structmc_1_1optim_1_1Solution.html#a611a6651c3a8910e5b1d9c53d03dade6" target="_top" xlink:title="Helper to create a worst&#45;case solution for initialization.">
<polygon fill="white" stroke="#666666" points="707.5,-467.5 595.5,-467.5 595.5,-437.5 707.5,-437.5 707.5,-467.5"/>
<text text-anchor="start" x="603.5" y="-455.5" font-family="Helvetica,sans-Serif" font-size="10.00">mc::optim::Solution</text>
<text text-anchor="middle" x="651.5" y="-444.5" font-family="Helvetica,sans-Serif" font-size="10.00">::make_worst</text>
</a>
</g>
</g>
<!-- Node7&#45;&gt;Node8 -->
<g id="edge7_Node000007_Node000008" class="edge">
<title>Node7&#45;&gt;Node8</title>
<g id="a_edge7_Node000007_Node000008"><a xlink:title=" ">
<path fill="none" stroke="#63b8ff" d="M540.54,-452.5C555.06,-452.5 570.43,-452.5 584.93,-452.5"/>
<polygon fill="#63b8ff" stroke="#63b8ff" points="585.31,-456 595.31,-452.5 585.31,-449 585.31,-456"/>
</a>
</g>
</g>
<!-- Node10&#45;&gt;Node3 -->
<g id="edge10_Node000010_Node000003" class="edge">
<title>Node10&#45;&gt;Node3</title>
<g id="a_edge10_Node000010_Node000003"><a xlink:title=" ">
<path fill="none" stroke="#63b8ff" d="M326.6,-366.5C347.34,-366.5 372.32,-366.5 395.7,-366.5"/>
<polygon fill="#63b8ff" stroke="#63b8ff" points="395.96,-370 405.96,-366.5 395.96,-363 395.96,-370"/>
</a>
</g>
</g>
<!-- Node10&#45;&gt;Node5 -->
<g id="edge11_Node000010_Node000005" class="edge">
<title>Node10&#45;&gt;Node5</title>
<g id="a_edge11_Node000010_Node000005"><a xlink:title=" ">
<path fill="none" stroke="#63b8ff" d="M326.6,-357.54C352.56,-352.55 385.17,-346.29 412.96,-340.94"/>
<polygon fill="#63b8ff" stroke="#63b8ff" points="413.81,-344.35 422.97,-339.02 412.48,-337.47 413.81,-344.35"/>
</a>
</g>
</g>
<!-- Node10&#45;&gt;Node6 -->
<g id="edge12_Node000010_Node000006" class="edge">
<title>Node10&#45;&gt;Node6</title>
<g id="a_edge12_Node000010_Node000006"><a xlink:title=" ">
<path fill="none" stroke="#63b8ff" d="M326.79,-358.81C335.51,-356.28 344.29,-352.93 352,-348.5 371.89,-337.06 367.98,-322.7 388,-311.5 392.13,-309.19 396.52,-307.16 401.05,-305.38"/>
<polygon fill="#63b8ff" stroke="#63b8ff" points="402.22,-308.68 410.49,-302.05 399.89,-302.07 402.22,-308.68"/>
</a>
</g>
</g>
<!-- Node10&#45;&gt;Node7 -->
<g id="edge13_Node000010_Node000007" class="edge">
<title>Node10&#45;&gt;Node7</title>
<g id="a_edge13_Node000010_Node000007"><a xlink:title=" ">
<path fill="none" stroke="#63b8ff" d="M326.53,-373.89C335.46,-376.63 344.39,-380.37 352,-385.5 374.12,-400.39 365.61,-419.01 388,-433.5 391.15,-435.54 394.49,-437.36 397.96,-438.99"/>
<polygon fill="#63b8ff" stroke="#63b8ff" points="396.78,-442.29 407.36,-442.86 399.45,-435.82 396.78,-442.29"/>
</a>
</g>
</g>
<!-- Node10&#45;&gt;Node9 -->
<g id="edge14_Node000010_Node000009" class="edge">
<title>Node10&#45;&gt;Node9</title>
<g id="a_edge14_Node000010_Node000009"><a xlink:title=" ">
<path fill="none" stroke="#63b8ff" d="M322.72,-376.04C344.14,-380.83 370.74,-386.77 395.55,-392.31"/>
<polygon fill="#63b8ff" stroke="#63b8ff" points="394.8,-395.73 405.32,-394.49 396.32,-388.9 394.8,-395.73"/>
</a>
</g>
</g>
<!-- Node11&#45;&gt;Node3 -->
<g id="edge16_Node000011_Node000003" class="edge">
<title>Node11&#45;&gt;Node3</title>
<g id="a_edge16_Node000011_Node000003"><a xlink:title=" ">
<path fill="none" stroke="#63b8ff" d="M322.24,-337.62C348.78,-342.72 383.41,-349.38 412.73,-355.01"/>
<polygon fill="#63b8ff" stroke="#63b8ff" points="412.38,-358.51 422.86,-356.96 413.7,-351.63 412.38,-358.51"/>
</a>
</g>
</g>
<!-- Node11&#45;&gt;Node5 -->
<g id="edge17_Node000011_Node000005" class="edge">
<title>Node11&#45;&gt;Node5</title>
<g id="a_edge17_Node000011_Node000005"><a xlink:title=" ">
<path fill="none" stroke="#63b8ff" d="M322.24,-329.5C342.68,-329.5 367.91,-329.5 391.83,-329.5"/>
<polygon fill="#63b8ff" stroke="#63b8ff" points="391.98,-333 401.98,-329.5 391.98,-326 391.98,-333"/>
</a>
</g>
</g>
<!-- Node11&#45;&gt;Node6 -->
<g id="edge18_Node000011_Node000006" class="edge">
<title>Node11&#45;&gt;Node6</title>
<g id="a_edge18_Node000011_Node000006"><a xlink:title=" ">
<path fill="none" stroke="#63b8ff" d="M322.24,-321.38C348.78,-316.28 383.41,-309.62 412.73,-303.99"/>
<polygon fill="#63b8ff" stroke="#63b8ff" points="413.7,-307.37 422.86,-302.04 412.38,-300.49 413.7,-307.37"/>
</a>
</g>
</g>
<!-- Node11&#45;&gt;Node7 -->
<g id="edge19_Node000011_Node000007" class="edge">
<title>Node11&#45;&gt;Node7</title>
<g id="a_edge19_Node000011_Node000007"><a xlink:title=" ">
<path fill="none" stroke="#63b8ff" d="M322.34,-333.97C332.97,-336.79 343.7,-341.3 352,-348.5 383,-375.37 356.51,-407.21 388,-433.5 390.88,-435.91 394.01,-438.02 397.3,-439.89"/>
<polygon fill="#63b8ff" stroke="#63b8ff" points="395.82,-443.06 406.35,-444.24 398.85,-436.75 395.82,-443.06"/>
</a>
</g>
</g>
<!-- Node11&#45;&gt;Node9 -->
<g id="edge20_Node000011_Node000009" class="edge">
<title>Node11&#45;&gt;Node9</title>
<g id="a_edge20_Node000011_Node000009"><a xlink:title=" ">
<path fill="none" stroke="#63b8ff" d="M322.26,-336.59C332.43,-339.38 342.96,-343.22 352,-348.5 371.81,-360.07 368.3,-373.74 388,-385.5 390.97,-387.27 394.08,-388.92 397.28,-390.45"/>
<polygon fill="#63b8ff" stroke="#63b8ff" points="395.92,-393.68 406.49,-394.46 398.71,-387.26 395.92,-393.68"/>
</a>
</g>
</g>
<!-- Node12&#45;&gt;Node3 -->
<g id="edge24_Node000012_Node000003" class="edge">
<title>Node12&#45;&gt;Node3</title>
<g id="a_edge24_Node000012_Node000003"><a xlink:title=" ">
<path fill="none" stroke="#63b8ff" d="M336.22,-265.1C341.91,-267.56 347.31,-270.64 352,-274.5 380.25,-297.72 359.2,-325.96 388,-348.5 390.66,-350.58 393.5,-352.43 396.48,-354.08"/>
<polygon fill="#63b8ff" stroke="#63b8ff" points="395.21,-357.36 405.75,-358.45 398.19,-351.02 395.21,-357.36"/>
</a>
</g>
</g>
<!-- Node12&#45;&gt;Node5 -->
<g id="edge28_Node000012_Node000005" class="edge">
<title>Node12&#45;&gt;Node5</title>
<g id="a_edge28_Node000012_Node000005"><a xlink:title=" ">
<path fill="none" stroke="#63b8ff" d="M330.59,-265.1C338.04,-267.57 345.41,-270.65 352,-274.5 371.81,-286.07 367.91,-300.41 388,-311.5 391.28,-313.31 394.72,-314.94 398.27,-316.4"/>
<polygon fill="#63b8ff" stroke="#63b8ff" points="397.25,-319.76 407.84,-319.91 399.65,-313.18 397.25,-319.76"/>
</a>
</g>
</g>
<!-- Node12&#45;&gt;Node6 -->
<g id="edge29_Node000012_Node000006" class="edge">
<title>Node12&#45;&gt;Node6</title>
<g id="a_edge29_Node000012_Node000006"><a xlink:title=" ">
<path fill="none" stroke="#63b8ff" d="M329.57,-265.03C354.96,-269.91 386.06,-275.89 412.76,-281.02"/>
<polygon fill="#63b8ff" stroke="#63b8ff" points="412.28,-284.49 422.76,-282.94 413.6,-277.61 412.28,-284.49"/>
</a>
</g>
</g>
<!-- Node12&#45;&gt;Node7 -->
<g id="edge30_Node000012_Node000007" class="edge">
<title>Node12&#45;&gt;Node7</title>
<g id="a_edge30_Node000012_Node000007"><a xlink:title=" ">
<path fill="none" stroke="#63b8ff" d="M339.26,-265.12C343.97,-267.61 348.32,-270.69 352,-274.5 402.32,-326.63 336.73,-382.3 388,-433.5 390.85,-436.35 394.03,-438.81 397.44,-440.93"/>
<polygon fill="#63b8ff" stroke="#63b8ff" points="395.84,-444.04 406.33,-445.53 399.06,-437.82 395.84,-444.04"/>
</a>
</g>
</g>
<!-- Node12&#45;&gt;Node9 -->
<g id="edge31_Node000012_Node000009" class="edge">
<title>Node12&#45;&gt;Node9</title>
<g id="a_edge31_Node000012_Node000009"><a xlink:title=" ">
<path fill="none" stroke="#63b8ff" d="M338.2,-265.14C343.25,-267.61 347.96,-270.68 352,-274.5 389.68,-310.14 350.66,-349.51 388,-385.5 389.1,-386.56 390.24,-387.57 391.42,-388.54"/>
<polygon fill="#63b8ff" stroke="#63b8ff" points="389.5,-391.46 399.7,-394.31 393.5,-385.72 389.5,-391.46"/>
</a>
</g>
</g>
<!-- Node13 -->
<g id="Node000013" class="node">
<title>Node13</title>
<g id="a_Node000013"><a xlink:href="namespacemc_1_1utils.html#a24624a54455188c8275afd053e1f1f01" target="_top" xlink:title=" ">
<polygon fill="white" stroke="#666666" points="556,-67.5 391,-67.5 391,-37.5 556,-37.5 556,-67.5"/>
<text text-anchor="start" x="399" y="-55.5" font-family="Helvetica,sans-Serif" font-size="10.00">mc::utils::createPSOAnimation</text>
<text text-anchor="middle" x="473.5" y="-44.5" font-family="Helvetica,sans-Serif" font-size="10.00">Script3D</text>
</a>
</g>
</g>
<!-- Node12&#45;&gt;Node13 -->
<g id="edge22_Node000012_Node000013" class="edge">
<title>Node12&#45;&gt;Node13</title>
<g id="a_edge22_Node000012_Node000013"><a xlink:title=" ">
<path fill="none" stroke="#63b8ff" d="M283.1,-245.68C293.07,-215.65 327.3,-124.27 388,-77.5 390.33,-75.71 392.78,-74.04 395.33,-72.49"/>
<polygon fill="#63b8ff" stroke="#63b8ff" points="397.16,-75.49 404.32,-67.68 393.85,-69.32 397.16,-75.49"/>
</a>
</g>
</g>
<!-- Node14 -->
<g id="Node000014" class="node">
<title>Node14</title>
<g id="a_Node000014"><a xlink:href="classmc_1_1optim_1_1GA.html#af6df892181a8d13dcab0c23174052326" target="_top" xlink:title="Access the current population.">
<polygon fill="white" stroke="#666666" points="553.5,-142 393.5,-142 393.5,-123 553.5,-123 553.5,-142"/>
<text text-anchor="middle" x="473.5" y="-130" font-family="Helvetica,sans-Serif" font-size="10.00">mc::optim::GA::getPopulation</text>
</a>
</g>
</g>
<!-- Node12&#45;&gt;Node14 -->
<g id="edge23_Node000012_Node000014" class="edge">
<title>Node12&#45;&gt;Node14</title>
<g id="a_edge23_Node000012_Node000014"><a xlink:title=" ">
<path fill="none" stroke="#63b8ff" d="M286.89,-245.98C302.43,-225.28 342.39,-176.05 388,-151.5 392.24,-149.21 396.75,-147.2 401.39,-145.43"/>
<polygon fill="#63b8ff" stroke="#63b8ff" points="402.72,-148.68 411.05,-142.13 400.45,-142.06 402.72,-148.68"/>
</a>
</g>
</g>
<!-- Node15 -->
<g id="Node000015" class="node">
<title>Node15</title>
<g id="a_Node000015"><a xlink:href="namespacemc_1_1utils.html#afcb6a4dfd509c3402d30bb17cc5b0ddf" target="_top" xlink:title=" ">
<polygon fill="white" stroke="#666666" points="559,-19 388,-19 388,0 559,0 559,-19"/>
<text text-anchor="middle" x="473.5" y="-7" font-family="Helvetica,sans-Serif" font-size="10.00">mc::utils::saveFunctionSlices3D</text>
</a>
</g>
</g>
<!-- Node12&#45;&gt;Node15 -->
<g id="edge25_Node000012_Node000015" class="edge">
<title>Node12&#45;&gt;Node15</title>
<g id="a_edge25_Node000012_Node000015"><a xlink:title=" ">
<path fill="none" stroke="#63b8ff" d="M281.52,-245.9C287.61,-210.74 313.66,-87.88 388,-28.5 390.11,-26.82 392.33,-25.28 394.65,-23.87"/>
<polygon fill="#63b8ff" stroke="#63b8ff" points="396.71,-26.74 404,-19.05 393.51,-20.52 396.71,-26.74"/>
</a>
</g>
</g>
<!-- Node16 -->
<g id="Node000016" class="node">
<title>Node16</title>
<g id="a_Node000016"><a xlink:href="ga__benchmarks_8cpp.html#ad6c040fe0123c5533d25a0042b0bcd54" target="_top" xlink:title=" ">
<polygon fill="white" stroke="#666666" points="541.5,-105 405.5,-105 405.5,-86 541.5,-86 541.5,-105"/>
<text text-anchor="middle" x="473.5" y="-93" font-family="Helvetica,sans-Serif" font-size="10.00">savePopulationFrame3D</text>
</a>
</g>
</g>
<!-- Node12&#45;&gt;Node16 -->
<g id="edge26_Node000012_Node000016" class="edge">
<title>Node12&#45;&gt;Node16</title>
<g id="a_edge26_Node000012_Node000016"><a xlink:title=" ">
<path fill="none" stroke="#63b8ff" d="M284.45,-245.76C296.8,-219.86 334.23,-148.9 388,-114.5 391.32,-112.37 394.86,-110.48 398.52,-108.8"/>
<polygon fill="#63b8ff" stroke="#63b8ff" points="399.87,-112.03 407.84,-105.04 397.26,-105.54 399.87,-112.03"/>
</a>
</g>
</g>
<!-- Node17 -->
<g id="Node000017" class="node">
<title>Node17</title>
<g id="a_Node000017"><a xlink:href="ga__benchmarks_8cpp.html#a42a305c8b6ddf1e4da89be542dc2424b" target="_top" xlink:title="Generate frame filename for GA population evolution.">
<polygon fill="white" stroke="#666666" points="703.5,-142 599.5,-142 599.5,-123 703.5,-123 703.5,-142"/>
<text text-anchor="middle" x="651.5" y="-130" font-family="Helvetica,sans-Serif" font-size="10.00">makeFrameName</text>
</a>
</g>
</g>
<!-- Node16&#45;&gt;Node17 -->
<g id="edge27_Node000016_Node000017" class="edge">
<title>Node16&#45;&gt;Node17</title>
<g id="a_edge27_Node000016_Node000017"><a xlink:title=" ">
<path fill="none" stroke="#63b8ff" d="M519.82,-105.03C542.83,-109.86 570.97,-115.78 595.24,-120.88"/>
<polygon fill="#63b8ff" stroke="#63b8ff" points="594.52,-124.31 605.02,-122.94 595.96,-117.46 594.52,-124.31"/>
</a>
</g>
</g>
<!-- Node18&#45;&gt;Node3 -->
<g id="edge35_Node000018_Node000003" class="edge">
<title>Node18&#45;&gt;Node3</title>
<g id="a_edge35_Node000018_Node000003"><a xlink:title=" ">
<path fill="none" stroke="#63b8ff" d="M330.59,-302.1C338.04,-304.57 345.41,-307.65 352,-311.5 371.81,-323.07 367.91,-337.41 388,-348.5 391.28,-350.31 394.72,-351.94 398.27,-353.4"/>
<polygon fill="#63b8ff" stroke="#63b8ff" points="397.25,-356.76 407.84,-356.91 399.65,-350.18 397.25,-356.76"/>
</a>
</g>
</g>
<!-- Node18&#45;&gt;Node5 -->
<g id="edge39_Node000018_Node000005" class="edge">
<title>Node18&#45;&gt;Node5</title>
<g id="a_edge39_Node000018_Node000005"><a xlink:title=" ">
<path fill="none" stroke="#63b8ff" d="M329.57,-302.03C354.96,-306.91 386.06,-312.89 412.76,-318.02"/>
<polygon fill="#63b8ff" stroke="#63b8ff" points="412.28,-321.49 422.76,-319.94 413.6,-314.61 412.28,-321.49"/>
</a>
</g>
</g>
<!-- Node18&#45;&gt;Node6 -->
<g id="edge40_Node000018_Node000006" class="edge">
<title>Node18&#45;&gt;Node6</title>
<g id="a_edge40_Node000018_Node000006"><a xlink:title=" ">
<path fill="none" stroke="#63b8ff" d="M345.17,-292.5C359.17,-292.5 374.16,-292.5 388.75,-292.5"/>
<polygon fill="#63b8ff" stroke="#63b8ff" points="388.78,-296 398.78,-292.5 388.78,-289 388.78,-296"/>
</a>
</g>
</g>
<!-- Node18&#45;&gt;Node7 -->
<g id="edge41_Node000018_Node000007" class="edge">
<title>Node18&#45;&gt;Node7</title>
<g id="a_edge41_Node000018_Node000007"><a xlink:title=" ">
<path fill="none" stroke="#63b8ff" d="M338.31,-302.03C343.33,-304.52 348.01,-307.63 352,-311.5 392.55,-350.89 346.73,-394.86 388,-433.5 390.8,-436.12 393.88,-438.41 397.16,-440.4"/>
<polygon fill="#63b8ff" stroke="#63b8ff" points="395.73,-443.6 406.23,-445.02 398.91,-437.37 395.73,-443.6"/>
</a>
</g>
</g>
<!-- Node18&#45;&gt;Node9 -->
<g id="edge42_Node000018_Node000009" class="edge">
<title>Node18&#45;&gt;Node9</title>
<g id="a_edge42_Node000018_Node000009"><a xlink:title=" ">
<path fill="none" stroke="#63b8ff" d="M336.22,-302.1C341.91,-304.56 347.31,-307.64 352,-311.5 380.25,-334.72 359.96,-362.01 388,-385.5 389.53,-386.79 391.13,-388 392.79,-389.15"/>
<polygon fill="#63b8ff" stroke="#63b8ff" points="391.08,-392.21 401.45,-394.39 394.7,-386.22 391.08,-392.21"/>
</a>
</g>
</g>
<!-- Node18&#45;&gt;Node14 -->
<g id="edge34_Node000018_Node000014" class="edge">
<title>Node18&#45;&gt;Node14</title>
<g id="a_edge34_Node000018_Node000014"><a xlink:title=" ">
<path fill="none" stroke="#63b8ff" d="M340.03,-282.95C344.4,-280.67 348.47,-277.89 352,-274.5 393.07,-235.03 346.46,-190.48 388,-151.5 389.52,-150.07 391.13,-148.74 392.8,-147.51"/>
<polygon fill="#63b8ff" stroke="#63b8ff" points="394.99,-150.27 401.69,-142.07 391.34,-144.3 394.99,-150.27"/>
</a>
</g>
</g>
<!-- Node19 -->
<g id="Node000019" class="node">
<title>Node19</title>
<g id="a_Node000019"><a xlink:href="namespacemc_1_1utils.html#a98bdac1483004ccb1bcc2c6a5cf89dc4" target="_top" xlink:title=" ">
<polygon fill="white" stroke="#666666" points="556,-264.5 391,-264.5 391,-234.5 556,-234.5 556,-264.5"/>
<text text-anchor="start" x="399" y="-252.5" font-family="Helvetica,sans-Serif" font-size="10.00">mc::utils::createPSOAnimation</text>
<text text-anchor="middle" x="473.5" y="-241.5" font-family="Helvetica,sans-Serif" font-size="10.00">Script</text>
</a>
</g>
</g>
<!-- Node18&#45;&gt;Node19 -->
<g id="edge33_Node000018_Node000019" class="edge">
<title>Node18&#45;&gt;Node19</title>
<g id="a_edge33_Node000018_Node000019"><a xlink:title=" ">
<path fill="none" stroke="#63b8ff" d="M322.72,-282.96C344.14,-278.17 370.74,-272.23 395.55,-266.69"/>
<polygon fill="#63b8ff" stroke="#63b8ff" points="396.32,-270.1 405.32,-264.51 394.8,-263.27 396.32,-270.1"/>
</a>
</g>
</g>
<!-- Node20 -->
<g id="Node000020" class="node">
<title>Node20</title>
<g id="a_Node000020"><a xlink:href="namespacemc_1_1utils.html#a3ceed4391bc5e0e913e571767f101d92" target="_top" xlink:title=" ">
<polygon fill="white" stroke="#666666" points="548,-216 399,-216 399,-197 548,-197 548,-216"/>
<text text-anchor="middle" x="473.5" y="-204" font-family="Helvetica,sans-Serif" font-size="10.00">mc::utils::saveFunctionGrid</text>
</a>
</g>
</g>
<!-- Node18&#45;&gt;Node20 -->
<g id="edge36_Node000018_Node000020" class="edge">
<title>Node18&#45;&gt;Node20</title>
<g id="a_edge36_Node000018_Node000020"><a xlink:title=" ">
<path fill="none" stroke="#63b8ff" d="M335.18,-282.99C341.12,-280.73 346.86,-277.95 352,-274.5 374.44,-259.44 365.38,-240.29 388,-225.5 391.14,-223.45 394.48,-221.61 397.93,-219.97"/>
<polygon fill="#63b8ff" stroke="#63b8ff" points="399.43,-223.14 407.33,-216.08 396.75,-216.67 399.43,-223.14"/>
</a>
</g>
</g>
<!-- Node21 -->
<g id="Node000021" class="node">
<title>Node21</title>
<g id="a_Node000021"><a xlink:href="ga__benchmarks_8cpp.html#af2eddacbb30b3b8380c8dbba248d486c" target="_top" xlink:title="Save population snapshot for 2D visualization.">
<polygon fill="white" stroke="#666666" points="541.5,-179 405.5,-179 405.5,-160 541.5,-160 541.5,-179"/>
<text text-anchor="middle" x="473.5" y="-167" font-family="Helvetica,sans-Serif" font-size="10.00">savePopulationFrame2D</text>
</a>
</g>
</g>
<!-- Node18&#45;&gt;Node21 -->
<g id="edge37_Node000018_Node000021" class="edge">
<title>Node18&#45;&gt;Node21</title>
<g id="a_edge37_Node000018_Node000021"><a xlink:title=" ">
<path fill="none" stroke="#63b8ff" d="M338.93,-282.85C343.64,-280.61 348.09,-277.86 352,-274.5 383.43,-247.5 356.25,-215.12 388,-188.5 390.59,-186.33 393.38,-184.39 396.31,-182.66"/>
<polygon fill="#63b8ff" stroke="#63b8ff" points="398.1,-185.68 405.48,-178.09 394.97,-179.42 398.1,-185.68"/>
</a>
</g>
</g>
<!-- Node21&#45;&gt;Node17 -->
<g id="edge38_Node000021_Node000017" class="edge">
<title>Node21&#45;&gt;Node17</title>
<g id="a_edge38_Node000021_Node000017"><a xlink:title=" ">
<path fill="none" stroke="#63b8ff" d="M519.82,-159.97C542.83,-155.14 570.97,-149.22 595.24,-144.12"/>
<polygon fill="#63b8ff" stroke="#63b8ff" points="595.96,-147.54 605.02,-142.06 594.52,-140.69 595.96,-147.54"/>
</a>
</g>
</g>
</g>
</svg>

<g id="navigator" transform="translate(0 0)" fill="#404254">
  <rect fill="#f2f5e9" fill-opacity="0.5" stroke="#606060" stroke-width=".5" x="0" y="0" width="60" height="60"/>
  <use id="zoomplus" xlink:href="#zoomPlus" x="17" y="9" onmousedown="handleZoom(evt,'in')"/>
  <use id="zoomminus" xlink:href="#zoomMin" x="42" y="9" onmousedown="handleZoom(evt,'out')"/>
  <use id="reset" xlink:href="#resetDef" x="30" y="36" onmousedown="handleReset()"/>
   <use id="arrowup" xlink:href="#arrowUp" x="0" y="0" onmousedown="handlePan(0,-1)"/>
  <use id="arrowright" xlink:href="#arrowRight" x="0" y="0" onmousedown="handlePan(1,0)"/>
  <use id="arrowdown" xlink:href="#arrowDown" x="0" y="0" onmousedown="handlePan(0,1)"/>
  <use id="arrowleft" xlink:href="#arrowLeft" x="0" y="0" onmousedown="handlePan(-1,0)"/>
</g>
<svg viewBox="0 0 15 15" width="100%" height="30px" preserveAspectRatio="xMaxYMin meet">
 <g id="arrow_out" transform="scale(0.3 0.3)">
  <a xlink:href="ga__benchmarks_8cpp_a354c50598eb8661f162e833a5274a287_cgraph_org.svg" target="_base">
   <rect id="button" ry="5" rx="5" y="6" x="6" height="38" width="38"
        fill="#f2f5e9" fill-opacity="0.5" stroke="#606060" stroke-width="1.0"/>
   <path id="arrow"
     d="M 11.500037,31.436501 C 11.940474,20.09759 22.043105,11.32322 32.158766,21.979434 L 37.068811,17.246167 C 37.068811,17.246167 37.088388,32 37.088388,32 L 22.160133,31.978069 C 22.160133,31.978069 26.997745,27.140456 26.997745,27.140456 C 18.528582,18.264221 13.291696,25.230495 11.500037,31.436501 z"
     style="fill:#404040;"/>
  </a>
 </g>
</svg>

<style type='text/css'>
<![CDATA[
[data-mouse-over-selected='false'] { opacity: 0.7; }
[data-mouse-over-selected='true']  { opacity: 1.0; }
]]>
</style>
<script type="application/ecmascript"><![CDATA[
document.addEventListener('DOMContentLoaded', (event) => {
  highlightEdges();
  highlightAdjacentNodes();
});
]]></script>
</svg>
