<?xml version="1.0" encoding="UTF-8" standalone="no"?>
<!DOCTYPE svg PUBLIC "-//W3C//DTD SVG 1.1//EN"
 "http://www.w3.org/Graphics/SVG/1.1/DTD/svg11.dtd">
<!-- Generated by graphviz version 2.43.0 (0)
 -->
<!-- Title: runVisualGABenchmark Pages: 1 -->
<svg width="490pt" height="346pt"
 viewBox="0.00 0.00 490.00 346.00" xmlns="http://www.w3.org/2000/svg" xmlns:xlink="http://www.w3.org/1999/xlink">
<g id="graph0" class="graph" transform="scale(1 1) rotate(0) translate(4 342)">
<title>runVisualGABenchmark</title>
<!-- Node1 -->
<g id="Node000001" class="node">
<title>Node1</title>
<g id="a_Node000001"><a xlink:title=" ">
<polygon fill="#999999" stroke="#666666" points="132,-178.5 0,-178.5 0,-159.5 132,-159.5 132,-178.5"/>
<text text-anchor="middle" x="66" y="-166.5" font-family="Helvetica,sans-Serif" font-size="10.00">runVisualGABenchmark</text>
</a>
</g>
</g>
<!-- Node2 -->
<g id="Node000002" class="node">
<title>Node2</title>
<g id="a_Node000002"><a xlink:href="namespacemc_1_1utils.html#a98bdac1483004ccb1bcc2c6a5cf89dc4" target="_top" xlink:title=" ">
<polygon fill="white" stroke="#666666" points="333,-338 168,-338 168,-308 333,-308 333,-338"/>
<text text-anchor="start" x="176" y="-326" font-family="Helvetica,sans-Serif" font-size="10.00">mc::utils::createPSOAnimation</text>
<text text-anchor="middle" x="250.5" y="-315" font-family="Helvetica,sans-Serif" font-size="10.00">Script</text>
</a>
</g>
</g>
<!-- Node1&#45;&gt;Node2 -->
<g id="edge1_Node000001_Node000002" class="edge">
<title>Node1&#45;&gt;Node2</title>
<g id="a_edge1_Node000001_Node000002"><a xlink:title=" ">
<path fill="none" stroke="#63b8ff" d="M71.85,-178.85C84.29,-203.11 119.82,-266.16 168,-299 170.26,-300.54 172.63,-301.99 175.07,-303.34"/>
<polygon fill="#63b8ff" stroke="#63b8ff" points="173.66,-306.55 184.18,-307.86 176.77,-300.28 173.66,-306.55"/>
</a>
</g>
</g>
<!-- Node3 -->
<g id="Node000003" class="node">
<title>Node3</title>
<g id="a_Node000003"><a xlink:href="classmc_1_1optim_1_1GA.html#af6df892181a8d13dcab0c23174052326" target="_top" xlink:title="Access the current population.">
<polygon fill="white" stroke="#666666" points="330.5,-289.5 170.5,-289.5 170.5,-270.5 330.5,-270.5 330.5,-289.5"/>
<text text-anchor="middle" x="250.5" y="-277.5" font-family="Helvetica,sans-Serif" font-size="10.00">mc::optim::GA::getPopulation</text>
</a>
</g>
</g>
<!-- Node1&#45;&gt;Node3 -->
<g id="edge2_Node000001_Node000003" class="edge">
<title>Node1&#45;&gt;Node3</title>
<g id="a_edge2_Node000001_Node000003"><a xlink:title=" ">
<path fill="none" stroke="#63b8ff" d="M74.45,-178.66C89.76,-197.8 126.79,-240.5 168,-262 171.69,-263.92 175.57,-265.64 179.56,-267.17"/>
<polygon fill="#63b8ff" stroke="#63b8ff" points="178.43,-270.49 189.02,-270.43 180.7,-263.87 178.43,-270.49"/>
</a>
</g>
</g>
<!-- Node4 -->
<g id="Node000004" class="node">
<title>Node4</title>
<g id="a_Node000004"><a xlink:href="classmc_1_1optim_1_1GA.html#a60d96a923e2ae97b7d6a9e569017133e" target="_top" xlink:title="Run GA for max_generations.">
<polygon fill="white" stroke="#666666" points="318,-252.5 183,-252.5 183,-233.5 318,-233.5 318,-252.5"/>
<text text-anchor="middle" x="250.5" y="-240.5" font-family="Helvetica,sans-Serif" font-size="10.00">mc::optim::GA::optimize</text>
</a>
</g>
</g>
<!-- Node1&#45;&gt;Node4 -->
<g id="edge3_Node000001_Node000004" class="edge">
<title>Node1&#45;&gt;Node4</title>
<g id="a_edge3_Node000001_Node000004"><a xlink:title=" ">
<path fill="none" stroke="#63b8ff" d="M81.08,-178.54C100.04,-190.97 135.18,-212.58 168,-225 173.78,-227.19 179.9,-229.15 186.08,-230.89"/>
<polygon fill="#63b8ff" stroke="#63b8ff" points="185.24,-234.29 195.8,-233.46 187.03,-227.52 185.24,-234.29"/>
</a>
</g>
</g>
<!-- Node6 -->
<g id="Node000006" class="node">
<title>Node6</title>
<g id="a_Node000006"><a xlink:href="namespacemc_1_1utils.html#a3ceed4391bc5e0e913e571767f101d92" target="_top" xlink:title=" ">
<polygon fill="white" stroke="#666666" points="325,-215.5 176,-215.5 176,-196.5 325,-196.5 325,-215.5"/>
<text text-anchor="middle" x="250.5" y="-203.5" font-family="Helvetica,sans-Serif" font-size="10.00">mc::utils::saveFunctionGrid</text>
</a>
</g>
</g>
<!-- Node1&#45;&gt;Node6 -->
<g id="edge5_Node000001_Node000006" class="edge">
<title>Node1&#45;&gt;Node6</title>
<g id="a_edge5_Node000001_Node000006"><a xlink:title=" ">
<path fill="none" stroke="#63b8ff" d="M114,-178.53C137.96,-183.39 167.29,-189.33 192.53,-194.45"/>
<polygon fill="#63b8ff" stroke="#63b8ff" points="191.85,-197.88 202.34,-196.44 193.24,-191.02 191.85,-197.88"/>
</a>
</g>
</g>
<!-- Node7 -->
<g id="Node000007" class="node">
<title>Node7</title>
<g id="a_Node000007"><a xlink:href="ga__benchmarks_8cpp.html#af2eddacbb30b3b8380c8dbba248d486c" target="_top" xlink:title="Save population snapshot for 2D visualization.">
<polygon fill="white" stroke="#666666" points="318.5,-178.5 182.5,-178.5 182.5,-159.5 318.5,-159.5 318.5,-178.5"/>
<text text-anchor="middle" x="250.5" y="-166.5" font-family="Helvetica,sans-Serif" font-size="10.00">savePopulationFrame2D</text>
</a>
</g>
</g>
<!-- Node1&#45;&gt;Node7 -->
<g id="edge6_Node000001_Node000007" class="edge">
<title>Node1&#45;&gt;Node7</title>
<g id="a_edge6_Node000001_Node000007"><a xlink:title=" ">
<path fill="none" stroke="#63b8ff" d="M132.11,-169C145.08,-169 158.82,-169 172.16,-169"/>
<polygon fill="#63b8ff" stroke="#63b8ff" points="172.26,-172.5 182.25,-169 172.25,-165.5 172.26,-172.5"/>
</a>
</g>
</g>
<!-- Node9 -->
<g id="Node000009" class="node">
<title>Node9</title>
<g id="a_Node000009"><a xlink:href="classmc_1_1optim_1_1GA.html#a3620b539800a6de4e052ca1755365d4a" target="_top" xlink:title="Set lower/upper bounds of the search hyper&#45;rectangle.">
<polygon fill="white" stroke="#666666" points="322,-141.5 179,-141.5 179,-122.5 322,-122.5 322,-141.5"/>
<text text-anchor="middle" x="250.5" y="-129.5" font-family="Helvetica,sans-Serif" font-size="10.00">mc::optim::GA::setBounds</text>
</a>
</g>
</g>
<!-- Node1&#45;&gt;Node9 -->
<g id="edge8_Node000001_Node000009" class="edge">
<title>Node1&#45;&gt;Node9</title>
<g id="a_edge8_Node000001_Node000009"><a xlink:title=" ">
<path fill="none" stroke="#63b8ff" d="M114,-159.47C137.96,-154.61 167.29,-148.67 192.53,-143.55"/>
<polygon fill="#63b8ff" stroke="#63b8ff" points="193.24,-146.98 202.34,-141.56 191.85,-140.12 193.24,-146.98"/>
</a>
</g>
</g>
<!-- Node10 -->
<g id="Node000010" class="node">
<title>Node10</title>
<g id="a_Node000010"><a xlink:href="classmc_1_1optim_1_1GA.html#a9a23ff94c9500845326e1caad067f806" target="_top" xlink:title="Register a callback invoked after each generation.">
<polygon fill="white" stroke="#666666" points="325,-104.5 176,-104.5 176,-85.5 325,-85.5 325,-104.5"/>
<text text-anchor="middle" x="250.5" y="-92.5" font-family="Helvetica,sans-Serif" font-size="10.00">mc::optim::GA::setCallback</text>
</a>
</g>
</g>
<!-- Node1&#45;&gt;Node10 -->
<g id="edge9_Node000001_Node000010" class="edge">
<title>Node1&#45;&gt;Node10</title>
<g id="a_edge9_Node000001_Node000010"><a xlink:title=" ">
<path fill="none" stroke="#63b8ff" d="M81.46,-159.49C100.54,-147.33 135.53,-126.36 168,-114 174.72,-111.44 181.89,-109.16 189.08,-107.15"/>
<polygon fill="#63b8ff" stroke="#63b8ff" points="190.09,-110.5 198.86,-104.57 188.3,-103.73 190.09,-110.5"/>
</a>
</g>
</g>
<!-- Node11 -->
<g id="Node000011" class="node">
<title>Node11</title>
<g id="a_Node000011"><a xlink:href="classmc_1_1optim_1_1GA.html#a29b82f44af247fffb47055f2ff321b91" target="_top" xlink:title="Set optimization mode (minimize or maximize).">
<polygon fill="white" stroke="#666666" points="317.5,-67.5 183.5,-67.5 183.5,-48.5 317.5,-48.5 317.5,-67.5"/>
<text text-anchor="middle" x="250.5" y="-55.5" font-family="Helvetica,sans-Serif" font-size="10.00">mc::optim::GA::setMode</text>
</a>
</g>
</g>
<!-- Node1&#45;&gt;Node11 -->
<g id="edge10_Node000001_Node000011" class="edge">
<title>Node1&#45;&gt;Node11</title>
<g id="a_edge10_Node000001_Node000011"><a xlink:title=" ">
<path fill="none" stroke="#63b8ff" d="M74.45,-159.34C89.76,-140.2 126.79,-97.5 168,-76 171.69,-74.08 175.57,-72.36 179.56,-70.83"/>
<polygon fill="#63b8ff" stroke="#63b8ff" points="180.7,-74.13 189.02,-67.57 178.43,-67.51 180.7,-74.13"/>
</a>
</g>
</g>
<!-- Node13 -->
<g id="Node000013" class="node">
<title>Node13</title>
<g id="a_Node000013"><a xlink:href="classmc_1_1optim_1_1GA.html#ab782e318b0eb14592714bfdc51687967" target="_top" xlink:title="Set the objective function to optimize.">
<polygon fill="white" stroke="#666666" points="327.5,-30 173.5,-30 173.5,0 327.5,0 327.5,-30"/>
<text text-anchor="start" x="181.5" y="-18" font-family="Helvetica,sans-Serif" font-size="10.00">mc::optim::GA::setObjective</text>
<text text-anchor="middle" x="250.5" y="-7" font-family="Helvetica,sans-Serif" font-size="10.00">Function</text>
</a>
</g>
</g>
<!-- Node1&#45;&gt;Node13 -->
<g id="edge12_Node000001_Node000013" class="edge">
<title>Node1&#45;&gt;Node13</title>
<g id="a_edge12_Node000001_Node000013"><a xlink:title=" ">
<path fill="none" stroke="#63b8ff" d="M71.85,-159.15C84.29,-134.89 119.82,-71.84 168,-39 170.26,-37.46 172.63,-36.01 175.07,-34.66"/>
<polygon fill="#63b8ff" stroke="#63b8ff" points="176.77,-37.72 184.18,-30.14 173.66,-31.45 176.77,-37.72"/>
</a>
</g>
</g>
<!-- Node5 -->
<g id="Node000005" class="node">
<title>Node5</title>
<g id="a_Node000005"><a xlink:href="classmc_1_1optim_1_1GA.html#adc0dc7c216bdab52f273cbe2b181eced" target="_top" xlink:title="Perform one generation: selection, crossover, mutation, evaluation, and serial update of the global b...">
<polygon fill="white" stroke="#666666" points="482,-252.5 369,-252.5 369,-233.5 482,-233.5 482,-252.5"/>
<text text-anchor="middle" x="425.5" y="-240.5" font-family="Helvetica,sans-Serif" font-size="10.00">mc::optim::GA::step</text>
</a>
</g>
</g>
<!-- Node4&#45;&gt;Node5 -->
<g id="edge4_Node000004_Node000005" class="edge">
<title>Node4&#45;&gt;Node5</title>
<g id="a_edge4_Node000004_Node000005"><a xlink:title=" ">
<path fill="none" stroke="#63b8ff" d="M318.39,-243C331.52,-243 345.28,-243 358.39,-243"/>
<polygon fill="#63b8ff" stroke="#63b8ff" points="358.73,-246.5 368.73,-243 358.73,-239.5 358.73,-246.5"/>
</a>
</g>
</g>
<!-- Node8 -->
<g id="Node000008" class="node">
<title>Node8</title>
<g id="a_Node000008"><a xlink:href="ga__benchmarks_8cpp.html#a42a305c8b6ddf1e4da89be542dc2424b" target="_top" xlink:title="Generate frame filename for GA population evolution.">
<polygon fill="white" stroke="#666666" points="477.5,-178.5 373.5,-178.5 373.5,-159.5 477.5,-159.5 477.5,-178.5"/>
<text text-anchor="middle" x="425.5" y="-166.5" font-family="Helvetica,sans-Serif" font-size="10.00">makeFrameName</text>
</a>
</g>
</g>
<!-- Node7&#45;&gt;Node8 -->
<g id="edge7_Node000007_Node000008" class="edge">
<title>Node7&#45;&gt;Node8</title>
<g id="a_edge7_Node000007_Node000008"><a xlink:title=" ">
<path fill="none" stroke="#63b8ff" d="M318.88,-169C333.46,-169 348.81,-169 363.14,-169"/>
<polygon fill="#63b8ff" stroke="#63b8ff" points="363.38,-172.5 373.38,-169 363.38,-165.5 363.38,-172.5"/>
</a>
</g>
</g>
<!-- Node12 -->
<g id="Node000012" class="node">
<title>Node12</title>
<g id="a_Node000012"><a xlink:href="structmc_1_1optim_1_1Solution.html#a611a6651c3a8910e5b1d9c53d03dade6" target="_top" xlink:title="Helper to create a worst&#45;case solution for initialization.">
<polygon fill="white" stroke="#666666" points="481.5,-73 369.5,-73 369.5,-43 481.5,-43 481.5,-73"/>
<text text-anchor="start" x="377.5" y="-61" font-family="Helvetica,sans-Serif" font-size="10.00">mc::optim::Solution</text>
<text text-anchor="middle" x="425.5" y="-50" font-family="Helvetica,sans-Serif" font-size="10.00">::make_worst</text>
</a>
</g>
</g>
<!-- Node11&#45;&gt;Node12 -->
<g id="edge11_Node000011_Node000012" class="edge">
<title>Node11&#45;&gt;Node12</title>
<g id="a_edge11_Node000011_Node000012"><a xlink:title=" ">
<path fill="none" stroke="#63b8ff" d="M317.89,-58C331.41,-58 345.62,-58 359.1,-58"/>
<polygon fill="#63b8ff" stroke="#63b8ff" points="359.24,-61.5 369.24,-58 359.24,-54.5 359.24,-61.5"/>
</a>
</g>
</g>
</g>
</svg>
