<?xml version="1.0" encoding="UTF-8" standalone="no"?>
<!DOCTYPE svg PUBLIC "-//W3C//DTD SVG 1.1//EN"
 "http://www.w3.org/Graphics/SVG/1.1/DTD/svg11.dtd">
<!-- Generated by graphviz version 2.43.0 (0)
 -->
<!-- Title: src/montecarlo/proposals/gaussianProposal.hpp Pages: 1 -->
<svg width="638pt" height="214pt"
 viewBox="0.00 0.00 637.50 214.00" xmlns="http://www.w3.org/2000/svg" xmlns:xlink="http://www.w3.org/1999/xlink">
<g id="graph0" class="graph" transform="scale(1 1) rotate(0) translate(4 210)">
<title>src/montecarlo/proposals/gaussianProposal.hpp</title>
<!-- Node1 -->
<g id="Node000001" class="node">
<title>Node1</title>
<g id="a_Node000001"><a xlink:title="Diagonal multivariate Gaussian proposal (no domain truncation).">
<polygon fill="#999999" stroke="#666666" points="363,-206 223,-206 223,-176 363,-176 363,-206"/>
<text text-anchor="start" x="231" y="-194" font-family="Helvetica,sans-Serif" font-size="10.00">src/montecarlo/proposals</text>
<text text-anchor="middle" x="293" y="-183" font-family="Helvetica,sans-Serif" font-size="10.00">/gaussianProposal.hpp</text>
</a>
</g>
</g>
<!-- Node2 -->
<g id="Node000002" class="node">
<title>Node2</title>
<g id="a_Node000002"><a xlink:href="proposal_8hpp.html" target="_top" xlink:title="Abstract base for probability distributions used in importance sampling.">
<polygon fill="white" stroke="#666666" points="97,-134.5 17,-134.5 17,-115.5 97,-115.5 97,-134.5"/>
<text text-anchor="middle" x="57" y="-122.5" font-family="Helvetica,sans-Serif" font-size="10.00">proposal.hpp</text>
</a>
</g>
</g>
<!-- Node1&#45;&gt;Node2 -->
<g id="edge1_Node000001_Node000002" class="edge">
<title>Node1&#45;&gt;Node2</title>
<g id="a_edge1_Node000001_Node000002"><a xlink:title=" ">
<path fill="none" stroke="#63b8ff" d="M239.33,-175.91C201.91,-166.02 150.86,-152.41 106,-140 102.84,-139.13 99.58,-138.21 96.3,-137.29"/>
<polygon fill="#63b8ff" stroke="#63b8ff" points="97.09,-133.88 86.52,-134.52 95.18,-140.61 97.09,-133.88"/>
</a>
</g>
</g>
<!-- Node3 -->
<g id="Node000003" class="node">
<title>Node3</title>
<g id="a_Node000003"><a xlink:title=" ">
<polygon fill="#e0e0e0" stroke="#999999" points="54,-74 0,-74 0,-55 54,-55 54,-74"/>
<text text-anchor="middle" x="27" y="-62" font-family="Helvetica,sans-Serif" font-size="10.00">random</text>
</a>
</g>
</g>
<!-- Node1&#45;&gt;Node3 -->
<g id="edge11_Node000001_Node000003" class="edge">
<title>Node1&#45;&gt;Node3</title>
<g id="a_edge11_Node000001_Node000003"><a xlink:title=" ">
<path fill="none" stroke="#63b8ff" d="M222.72,-187.68C147.36,-183.54 34.9,-172.02 8,-140 -5.49,-123.94 4.74,-99.52 14.66,-83.06"/>
<polygon fill="#63b8ff" stroke="#63b8ff" points="17.76,-84.7 20.27,-74.41 11.89,-80.89 17.76,-84.7"/>
</a>
</g>
</g>
<!-- Node5 -->
<g id="Node000005" class="node">
<title>Node5</title>
<g id="a_Node000005"><a xlink:title=" ">
<polygon fill="#e0e0e0" stroke="#999999" points="224,-19 182,-19 182,0 224,0 224,-19"/>
<text text-anchor="middle" x="203" y="-7" font-family="Helvetica,sans-Serif" font-size="10.00">array</text>
</a>
</g>
</g>
<!-- Node1&#45;&gt;Node5 -->
<g id="edge9_Node000001_Node000005" class="edge">
<title>Node1&#45;&gt;Node5</title>
<g id="a_edge9_Node000001_Node000005"><a xlink:title=" ">
<path fill="none" stroke="#63b8ff" d="M285.94,-175.91C269.72,-143.57 229.84,-64.02 211.94,-28.33"/>
<polygon fill="#63b8ff" stroke="#63b8ff" points="214.94,-26.51 207.33,-19.13 208.68,-29.64 214.94,-26.51"/>
</a>
</g>
</g>
<!-- Node7 -->
<g id="Node000007" class="node">
<title>Node7</title>
<g id="a_Node000007"><a xlink:href="integration__domain_8hpp.html" target="_top" xlink:title="Abstract interface for N&#45;dimensional integration domains.">
<polygon fill="white" stroke="#666666" points="239,-140 115,-140 115,-110 239,-110 239,-140"/>
<text text-anchor="start" x="123" y="-128" font-family="Helvetica,sans-Serif" font-size="10.00">../domains/integration</text>
<text text-anchor="middle" x="177" y="-117" font-family="Helvetica,sans-Serif" font-size="10.00">_domain.hpp</text>
</a>
</g>
</g>
<!-- Node1&#45;&gt;Node7 -->
<g id="edge6_Node000001_Node000007" class="edge">
<title>Node1&#45;&gt;Node7</title>
<g id="a_edge6_Node000001_Node000007"><a xlink:title=" ">
<path fill="none" stroke="#63b8ff" d="M267.54,-175.95C251.07,-166.87 229.43,-154.93 211.43,-145"/>
<polygon fill="#63b8ff" stroke="#63b8ff" points="212.84,-141.78 202.4,-140.01 209.46,-147.91 212.84,-141.78"/>
</a>
</g>
</g>
<!-- Node8 -->
<g id="Node000008" class="node">
<title>Node8</title>
<g id="a_Node000008"><a xlink:title=" ">
<polygon fill="#e0e0e0" stroke="#999999" points="342.5,-134.5 295.5,-134.5 295.5,-115.5 342.5,-115.5 342.5,-134.5"/>
<text text-anchor="middle" x="319" y="-122.5" font-family="Helvetica,sans-Serif" font-size="10.00">cmath</text>
</a>
</g>
</g>
<!-- Node1&#45;&gt;Node8 -->
<g id="edge10_Node000001_Node000008" class="edge">
<title>Node1&#45;&gt;Node8</title>
<g id="a_edge10_Node000001_Node000008"><a xlink:title=" ">
<path fill="none" stroke="#63b8ff" d="M298.77,-175.8C302.55,-166.5 307.51,-154.27 311.58,-144.26"/>
<polygon fill="#63b8ff" stroke="#63b8ff" points="314.89,-145.43 315.41,-134.84 308.4,-142.79 314.89,-145.43"/>
</a>
</g>
</g>
<!-- Node9 -->
<g id="Node000009" class="node">
<title>Node9</title>
<g id="a_Node000009"><a xlink:title=" ">
<polygon fill="#e0e0e0" stroke="#999999" points="425.5,-134.5 360.5,-134.5 360.5,-115.5 425.5,-115.5 425.5,-134.5"/>
<text text-anchor="middle" x="393" y="-122.5" font-family="Helvetica,sans-Serif" font-size="10.00">stdexcept</text>
</a>
</g>
</g>
<!-- Node1&#45;&gt;Node9 -->
<g id="edge12_Node000001_Node000009" class="edge">
<title>Node1&#45;&gt;Node9</title>
<g id="a_edge12_Node000001_Node000009"><a xlink:title=" ">
<path fill="none" stroke="#63b8ff" d="M315.19,-175.8C331.8,-165.17 354.4,-150.7 370.97,-140.1"/>
<polygon fill="#63b8ff" stroke="#63b8ff" points="372.94,-143 379.47,-134.66 369.16,-137.1 372.94,-143"/>
</a>
</g>
</g>
<!-- Node10 -->
<g id="Node000010" class="node">
<title>Node10</title>
<g id="a_Node000010"><a xlink:title=" ">
<polygon fill="#e0e0e0" stroke="#999999" points="490.5,-134.5 443.5,-134.5 443.5,-115.5 490.5,-115.5 490.5,-134.5"/>
<text text-anchor="middle" x="467" y="-122.5" font-family="Helvetica,sans-Serif" font-size="10.00">vector</text>
</a>
</g>
</g>
<!-- Node1&#45;&gt;Node10 -->
<g id="edge13_Node000001_Node000010" class="edge">
<title>Node1&#45;&gt;Node10</title>
<g id="a_edge13_Node000001_Node000010"><a xlink:title=" ">
<path fill="none" stroke="#63b8ff" d="M335.55,-175.93C363.92,-166.33 401.93,-153.04 435,-140 436.21,-139.52 437.43,-139.03 438.67,-138.53"/>
<polygon fill="#63b8ff" stroke="#63b8ff" points="440.29,-141.64 448.15,-134.52 437.57,-135.19 440.29,-141.64"/>
</a>
</g>
</g>
<!-- Node11 -->
<g id="Node000011" class="node">
<title>Node11</title>
<g id="a_Node000011"><a xlink:href="gaussianProposal_8tpp.html" target="_top" xlink:title=" ">
<polygon fill="white" stroke="#666666" points="629.5,-134.5 508.5,-134.5 508.5,-115.5 629.5,-115.5 629.5,-134.5"/>
<text text-anchor="middle" x="569" y="-122.5" font-family="Helvetica,sans-Serif" font-size="10.00">gaussianProposal.tpp</text>
</a>
</g>
</g>
<!-- Node1&#45;&gt;Node11 -->
<g id="edge14_Node000001_Node000011" class="edge">
<title>Node1&#45;&gt;Node11</title>
<g id="a_edge14_Node000001_Node000011"><a xlink:title=" ">
<path fill="none" stroke="#63b8ff" d="M353.57,-175.95C404.42,-164.16 476.02,-147.56 522.47,-136.79"/>
<polygon fill="#63b8ff" stroke="#63b8ff" points="523.32,-140.19 532.27,-134.52 521.74,-133.37 523.32,-140.19"/>
</a>
</g>
</g>
<!-- Node2&#45;&gt;Node3 -->
<g id="edge2_Node000002_Node000003" class="edge">
<title>Node2&#45;&gt;Node3</title>
<g id="a_edge2_Node000002_Node000003"><a xlink:title=" ">
<path fill="none" stroke="#63b8ff" d="M52.57,-115.37C48.23,-106.9 41.48,-93.74 36.01,-83.07"/>
<polygon fill="#63b8ff" stroke="#63b8ff" points="39.12,-81.47 31.44,-74.17 32.89,-84.66 39.12,-81.47"/>
</a>
</g>
</g>
<!-- Node4 -->
<g id="Node000004" class="node">
<title>Node4</title>
<g id="a_Node000004"><a xlink:href="geometry_8hpp.html" target="_top" xlink:title="Core geometric types for Monte Carlo integration.">
<polygon fill="white" stroke="#666666" points="175,-74 83,-74 83,-55 175,-55 175,-74"/>
<text text-anchor="middle" x="129" y="-62" font-family="Helvetica,sans-Serif" font-size="10.00">../geometry.hpp</text>
</a>
</g>
</g>
<!-- Node2&#45;&gt;Node4 -->
<g id="edge3_Node000002_Node000004" class="edge">
<title>Node2&#45;&gt;Node4</title>
<g id="a_edge3_Node000002_Node000004"><a xlink:title=" ">
<path fill="none" stroke="#63b8ff" d="M67.62,-115.37C78.9,-106.21 96.92,-91.56 110.53,-80.51"/>
<polygon fill="#63b8ff" stroke="#63b8ff" points="112.78,-83.19 118.33,-74.17 108.36,-77.76 112.78,-83.19"/>
</a>
</g>
</g>
<!-- Node4&#45;&gt;Node5 -->
<g id="edge4_Node000004_Node000005" class="edge">
<title>Node4&#45;&gt;Node5</title>
<g id="a_edge4_Node000004_Node000005"><a xlink:title=" ">
<path fill="none" stroke="#63b8ff" d="M140.89,-54.98C152.15,-46.92 169.29,-34.65 182.71,-25.03"/>
<polygon fill="#63b8ff" stroke="#63b8ff" points="184.8,-27.84 190.89,-19.17 180.73,-22.15 184.8,-27.84"/>
</a>
</g>
</g>
<!-- Node6 -->
<g id="Node000006" class="node">
<title>Node6</title>
<g id="a_Node000006"><a xlink:title=" ">
<polygon fill="#e0e0e0" stroke="#999999" points="155.5,-19 102.5,-19 102.5,0 155.5,0 155.5,-19"/>
<text text-anchor="middle" x="129" y="-7" font-family="Helvetica,sans-Serif" font-size="10.00">cstddef</text>
</a>
</g>
</g>
<!-- Node4&#45;&gt;Node6 -->
<g id="edge5_Node000004_Node000006" class="edge">
<title>Node4&#45;&gt;Node6</title>
<g id="a_edge5_Node000004_Node000006"><a xlink:title=" ">
<path fill="none" stroke="#63b8ff" d="M129,-54.75C129,-47.8 129,-37.85 129,-29.13"/>
<polygon fill="#63b8ff" stroke="#63b8ff" points="132.5,-29.09 129,-19.09 125.5,-29.09 132.5,-29.09"/>
</a>
</g>
</g>
<!-- Node7&#45;&gt;Node4 -->
<g id="edge8_Node000007_Node000004" class="edge">
<title>Node7&#45;&gt;Node4</title>
<g id="a_edge8_Node000007_Node000004"><a xlink:title=" ">
<path fill="none" stroke="#63b8ff" d="M165.38,-109.84C158.56,-101.52 149.89,-90.96 142.73,-82.23"/>
<polygon fill="#63b8ff" stroke="#63b8ff" points="145.24,-79.78 136.19,-74.27 139.83,-84.22 145.24,-79.78"/>
</a>
</g>
</g>
<!-- Node7&#45;&gt;Node5 -->
<g id="edge7_Node000007_Node000005" class="edge">
<title>Node7&#45;&gt;Node5</title>
<g id="a_edge7_Node000007_Node000005"><a xlink:title=" ">
<path fill="none" stroke="#63b8ff" d="M180.29,-109.63C184.97,-89.21 193.54,-51.81 198.71,-29.24"/>
<polygon fill="#63b8ff" stroke="#63b8ff" points="202.18,-29.76 201,-19.23 195.36,-28.2 202.18,-29.76"/>
</a>
</g>
</g>
</g>
</svg>
