<?xml version="1.0" encoding="UTF-8" standalone="no"?>
<!DOCTYPE svg PUBLIC "-//W3C//DTD SVG 1.1//EN"
 "http://www.w3.org/Graphics/SVG/1.1/DTD/svg11.dtd">
<!-- Generated by graphviz version 2.43.0 (0)
 -->
<!-- Title: src/montecarlo/geometry.hpp Pages: 1 -->
<svg width="2002pt" height="423pt"
 viewBox="0.00 0.00 2001.85 423.00" xmlns="http://www.w3.org/2000/svg" xmlns:xlink="http://www.w3.org/1999/xlink">
<g id="graph0" class="graph" transform="scale(1 1) rotate(0) translate(4 419)">
<title>src/montecarlo/geometry.hpp</title>
<!-- Node1 -->
<g id="Node000001" class="node">
<title>Node1</title>
<g id="a_Node000001"><a xlink:title="Core geometric types for Monte Carlo integration.">
<polygon fill="#999999" stroke="#666666" points="1011.5,-415 852.5,-415 852.5,-396 1011.5,-396 1011.5,-415"/>
<text text-anchor="middle" x="932" y="-403" font-family="Helvetica,sans-Serif" font-size="10.00">src/montecarlo/geometry.hpp</text>
</a>
</g>
</g>
<!-- Node2 -->
<g id="Node000002" class="node">
<title>Node2</title>
<g id="a_Node000002"><a xlink:href="benchmarks_8hpp.html" target="_top" xlink:title="Benchmarking framework for Monte Carlo integration algorithms.">
<polygon fill="white" stroke="#666666" points="575.5,-90.5 434.5,-90.5 434.5,-71.5 575.5,-71.5 575.5,-90.5"/>
<text text-anchor="middle" x="505" y="-78.5" font-family="Helvetica,sans-Serif" font-size="10.00">src/apps/benchmarks.hpp</text>
</a>
</g>
</g>
<!-- Node1&#45;&gt;Node2 -->
<g id="edge1_Node000001_Node000002" class="edge">
<title>Node1&#45;&gt;Node2</title>
<g id="a_edge1_Node000001_Node000002"><a xlink:title=" ">
<path fill="none" stroke="#63b8ff" d="M841.79,-402.06C679.96,-397.14 346.58,-384.35 233,-360 141.4,-340.36 38,-373.68 38,-280 38,-280 38,-280 38,-212 38,-130.73 303.77,-98.1 434.33,-86.97"/>
<polygon fill="#63b8ff" stroke="#63b8ff" points="842.1,-405.57 852.2,-402.38 842.31,-398.58 842.1,-405.57"/>
</a>
</g>
</g>
<!-- Node7 -->
<g id="Node000007" class="node">
<title>Node7</title>
<g id="a_Node000007"><a xlink:href="main_8cpp.html" target="_top" xlink:title="Command&#45;line interface for Monte Carlo integration and benchmarking.">
<polygon fill="white" stroke="#666666" points="938.5,-24.5 833.5,-24.5 833.5,-5.5 938.5,-5.5 938.5,-24.5"/>
<text text-anchor="middle" x="886" y="-12.5" font-family="Helvetica,sans-Serif" font-size="10.00">src/apps/main.cpp</text>
</a>
</g>
</g>
<!-- Node1&#45;&gt;Node7 -->
<g id="edge8_Node000001_Node000007" class="edge">
<title>Node1&#45;&gt;Node7</title>
<g id="a_edge8_Node000001_Node000007"><a xlink:title=" ">
<path fill="none" stroke="#63b8ff" d="M1021.82,-403.6C1209.23,-401.1 1636.24,-391.98 1778,-360 1866.18,-340.11 1965,-370.4 1965,-280 1965,-280 1965,-280 1965,-146 1965,-131.95 2105.4,-141.27 1765,-66 1606.05,-30.85 1103.09,-19.58 938.61,-16.78"/>
<polygon fill="#63b8ff" stroke="#63b8ff" points="1021.68,-400.1 1011.72,-403.73 1021.77,-407.1 1021.68,-400.1"/>
</a>
</g>
</g>
<!-- Node8 -->
<g id="Node000008" class="node">
<title>Node8</title>
<g id="a_Node000008"><a xlink:href="drone__optimization_8cpp.html" target="_top" xlink:title="Drone arm center of mass optimization using PSO with high&#45;precision verification.">
<polygon fill="white" stroke="#666666" points="284.5,-90.5 109.5,-90.5 109.5,-71.5 284.5,-71.5 284.5,-90.5"/>
<text text-anchor="middle" x="197" y="-78.5" font-family="Helvetica,sans-Serif" font-size="10.00">src/apps/drone_optimization.cpp</text>
</a>
</g>
</g>
<!-- Node1&#45;&gt;Node8 -->
<g id="edge7_Node000001_Node000008" class="edge">
<title>Node1&#45;&gt;Node8</title>
<g id="a_edge7_Node000001_Node000008"><a xlink:title=" ">
<path fill="none" stroke="#63b8ff" d="M842.24,-404.5C632,-403.87 120.26,-398.34 53,-360 15.95,-338.88 0,-322.65 0,-280 0,-280 0,-280 0,-212 0,-139.06 95.24,-104.7 153.28,-90.54"/>
<polygon fill="#63b8ff" stroke="#63b8ff" points="842.32,-408 852.33,-404.53 842.34,-401 842.32,-408"/>
</a>
</g>
</g>
<!-- Node9 -->
<g id="Node000009" class="node">
<title>Node9</title>
<g id="a_Node000009"><a xlink:href="wind__farm__simulator_8cpp.html" target="_top" xlink:title="Wind Farm Layout Optimization using Hybrid MH&#45;Monte Carlo + PSO/GA.">
<polygon fill="white" stroke="#666666" points="1718,-96 1606,-96 1606,-66 1718,-66 1718,-96"/>
<text text-anchor="start" x="1614" y="-84" font-family="Helvetica,sans-Serif" font-size="10.00">src/apps/wind_farm</text>
<text text-anchor="middle" x="1662" y="-73" font-family="Helvetica,sans-Serif" font-size="10.00">_simulator.cpp</text>
</a>
</g>
</g>
<!-- Node1&#45;&gt;Node9 -->
<g id="edge9_Node000001_Node000009" class="edge">
<title>Node1&#45;&gt;Node9</title>
<g id="a_edge9_Node000001_Node000009"><a xlink:title=" ">
<path fill="none" stroke="#63b8ff" d="M1022.04,-402.6C1266.95,-396.26 1927,-370.75 1927,-280 1927,-280 1927,-280 1927,-212 1927,-175.46 1934.26,-157.42 1908,-132 1881.46,-106.31 1782.22,-92.72 1718.19,-86.47"/>
<polygon fill="#63b8ff" stroke="#63b8ff" points="1021.65,-399.11 1011.74,-402.87 1021.83,-406.11 1021.65,-399.11"/>
</a>
</g>
</g>
<!-- Node10 -->
<g id="Node000010" class="node">
<title>Node10</title>
<g id="a_Node000010"><a xlink:href="hypercylinder_8hpp.html" target="_top" xlink:title="N&#45;dimensional hypercylinder (infinite cylinder in discrete dimensions).">
<polygon fill="white" stroke="#666666" points="200,-294 66,-294 66,-264 200,-264 200,-294"/>
<text text-anchor="start" x="74" y="-282" font-family="Helvetica,sans-Serif" font-size="10.00">src/montecarlo/domains</text>
<text text-anchor="middle" x="133" y="-271" font-family="Helvetica,sans-Serif" font-size="10.00">/hypercylinder.hpp</text>
</a>
</g>
</g>
<!-- Node1&#45;&gt;Node10 -->
<g id="edge10_Node000001_Node000010" class="edge">
<title>Node1&#45;&gt;Node10</title>
<g id="a_edge10_Node000001_Node000010"><a xlink:title=" ">
<path fill="none" stroke="#63b8ff" d="M842.02,-401.54C696.99,-396.17 418.08,-383.17 322,-360 260.86,-345.26 194.19,-312.82 158.67,-294.09"/>
<polygon fill="#63b8ff" stroke="#63b8ff" points="842.1,-405.05 852.22,-401.92 842.36,-398.05 842.1,-405.05"/>
</a>
</g>
</g>
<!-- Node12 -->
<g id="Node000012" class="node">
<title>Node12</title>
<g id="a_Node000012"><a xlink:href="ISintegrator_8hpp.html" target="_top" xlink:title="Importance sampling Monte Carlo integration engine.">
<polygon fill="white" stroke="#666666" points="1005,-162 859,-162 859,-132 1005,-132 1005,-162"/>
<text text-anchor="start" x="867" y="-150" font-family="Helvetica,sans-Serif" font-size="10.00">src/montecarlo/integrators</text>
<text text-anchor="middle" x="932" y="-139" font-family="Helvetica,sans-Serif" font-size="10.00">/ISintegrator.hpp</text>
</a>
</g>
</g>
<!-- Node1&#45;&gt;Node12 -->
<g id="edge66_Node000001_Node000012" class="edge">
<title>Node1&#45;&gt;Node12</title>
<g id="a_edge66_Node000001_Node000012"><a xlink:title=" ">
<path fill="none" stroke="#63b8ff" d="M971.32,-392.99C1061.03,-364.83 1267.51,-288.14 1193,-198 1181,-183.49 1078.17,-167.15 1005.23,-157.22"/>
<polygon fill="#63b8ff" stroke="#63b8ff" points="970.26,-389.66 961.74,-395.95 972.33,-396.34 970.26,-389.66"/>
</a>
</g>
</g>
<!-- Node13 -->
<g id="Node000013" class="node">
<title>Node13</title>
<g id="a_Node000013"><a xlink:href="MCintegrator_8hpp.html" target="_top" xlink:title="Classic Monte Carlo integration engine.">
<polygon fill="white" stroke="#666666" points="666,-162 520,-162 520,-132 666,-132 666,-162"/>
<text text-anchor="start" x="528" y="-150" font-family="Helvetica,sans-Serif" font-size="10.00">src/montecarlo/integrators</text>
<text text-anchor="middle" x="593" y="-139" font-family="Helvetica,sans-Serif" font-size="10.00">/MCintegrator.hpp</text>
</a>
</g>
</g>
<!-- Node1&#45;&gt;Node13 -->
<g id="edge67_Node000001_Node000013" class="edge">
<title>Node1&#45;&gt;Node13</title>
<g id="a_edge67_Node000001_Node000013"><a xlink:title=" ">
<path fill="none" stroke="#63b8ff" d="M842.27,-399.69C704.57,-390.17 451.51,-363.45 399,-294 373.27,-259.97 372.86,-231.73 399,-198 414.02,-178.62 471.35,-165.42 519.82,-157.47"/>
<polygon fill="#63b8ff" stroke="#63b8ff" points="842.17,-403.19 852.38,-400.38 842.64,-396.21 842.17,-403.19"/>
</a>
</g>
</g>
<!-- Node14 -->
<g id="Node000014" class="node">
<title>Node14</title>
<g id="a_Node000014"><a xlink:href="MHintegrator_8hpp.html" target="_top" xlink:title="Metropolis&#45;Hastings MCMC Monte Carlo integration engine.">
<polygon fill="white" stroke="#666666" points="1222,-162 1076,-162 1076,-132 1222,-132 1222,-162"/>
<text text-anchor="start" x="1084" y="-150" font-family="Helvetica,sans-Serif" font-size="10.00">src/montecarlo/integrators</text>
<text text-anchor="middle" x="1149" y="-139" font-family="Helvetica,sans-Serif" font-size="10.00">/MHintegrator.hpp</text>
</a>
</g>
</g>
<!-- Node1&#45;&gt;Node14 -->
<g id="edge68_Node000001_Node000014" class="edge">
<title>Node1&#45;&gt;Node14</title>
<g id="a_edge68_Node000001_Node000014"><a xlink:title=" ">
<path fill="none" stroke="#63b8ff" d="M1021.64,-398.3C1206.83,-383.33 1620.89,-338.02 1699,-228 1706.72,-217.13 1707.99,-207.85 1699,-198 1667.46,-163.46 1364.47,-152.53 1222.16,-149.28"/>
<polygon fill="#63b8ff" stroke="#63b8ff" points="1021.34,-394.81 1011.65,-399.09 1021.9,-401.79 1021.34,-394.81"/>
</a>
</g>
</g>
<!-- Node15 -->
<g id="Node000015" class="node">
<title>Node15</title>
<g id="a_Node000015"><a xlink:href="hyperrectangle_8hpp.html" target="_top" xlink:title="Axis&#45;aligned hyperrectangular domain in N dimensions.">
<polygon fill="white" stroke="#666666" points="542,-294 408,-294 408,-264 542,-264 542,-294"/>
<text text-anchor="start" x="416" y="-282" font-family="Helvetica,sans-Serif" font-size="10.00">src/montecarlo/domains</text>
<text text-anchor="middle" x="475" y="-271" font-family="Helvetica,sans-Serif" font-size="10.00">/hyperrectangle.hpp</text>
</a>
</g>
</g>
<!-- Node1&#45;&gt;Node15 -->
<g id="edge24_Node000001_Node000015" class="edge">
<title>Node1&#45;&gt;Node15</title>
<g id="a_edge24_Node000001_Node000015"><a xlink:title=" ">
<path fill="none" stroke="#63b8ff" d="M881.44,-393.82C842.38,-385.34 787.04,-372.8 739,-360 660.56,-339.1 570.26,-310.8 518.19,-294.07"/>
<polygon fill="#63b8ff" stroke="#63b8ff" points="881,-397.31 891.51,-396 882.48,-390.47 881,-397.31"/>
</a>
</g>
</g>
<!-- Node16 -->
<g id="Node000016" class="node">
<title>Node16</title>
<g id="a_Node000016"><a xlink:href="hypersphere_8hpp.html" target="_top" xlink:title="N&#45;dimensional hypersphere (solid ball) domain.">
<polygon fill="white" stroke="#666666" points="352,-294 218,-294 218,-264 352,-264 352,-294"/>
<text text-anchor="start" x="226" y="-282" font-family="Helvetica,sans-Serif" font-size="10.00">src/montecarlo/domains</text>
<text text-anchor="middle" x="285" y="-271" font-family="Helvetica,sans-Serif" font-size="10.00">/hypersphere.hpp</text>
</a>
</g>
</g>
<!-- Node1&#45;&gt;Node16 -->
<g id="edge29_Node000001_Node000016" class="edge">
<title>Node1&#45;&gt;Node16</title>
<g id="a_edge29_Node000001_Node000016"><a xlink:title=" ">
<path fill="none" stroke="#63b8ff" d="M842.21,-404.87C704.5,-404.19 448.43,-397.68 366,-360 334.36,-345.54 307.94,-313.15 294.52,-294.32"/>
<polygon fill="#63b8ff" stroke="#63b8ff" points="842.31,-408.37 852.32,-404.91 842.34,-401.37 842.31,-408.37"/>
</a>
</g>
</g>
<!-- Node17 -->
<g id="Node000017" class="node">
<title>Node17</title>
<g id="a_Node000017"><a xlink:href="integration__domain_8hpp.html" target="_top" xlink:title="Abstract interface for N&#45;dimensional integration domains.">
<polygon fill="white" stroke="#666666" points="884,-360 748,-360 748,-330 884,-330 884,-360"/>
<text text-anchor="start" x="756" y="-348" font-family="Helvetica,sans-Serif" font-size="10.00">src/montecarlo/domains</text>
<text text-anchor="middle" x="816" y="-337" font-family="Helvetica,sans-Serif" font-size="10.00">/integration_domain.hpp</text>
</a>
</g>
</g>
<!-- Node1&#45;&gt;Node17 -->
<g id="edge33_Node000001_Node000017" class="edge">
<title>Node1&#45;&gt;Node17</title>
<g id="a_edge33_Node000001_Node000017"><a xlink:title=" ">
<path fill="none" stroke="#63b8ff" d="M905.88,-391.33C887.46,-382.04 862.81,-369.61 843.99,-360.11"/>
<polygon fill="#63b8ff" stroke="#63b8ff" points="904.38,-394.49 914.88,-395.87 907.53,-388.24 904.38,-394.49"/>
</a>
</g>
</g>
<!-- Node18 -->
<g id="Node000018" class="node">
<title>Node18</title>
<g id="a_Node000018"><a xlink:href="polytope_8hpp.html" target="_top" xlink:title="N&#45;dimensional polytope (convex polyhedron) domain for Monte Carlo integration.">
<polygon fill="white" stroke="#666666" points="1899,-162 1765,-162 1765,-132 1899,-132 1899,-162"/>
<text text-anchor="start" x="1773" y="-150" font-family="Helvetica,sans-Serif" font-size="10.00">src/montecarlo/domains</text>
<text text-anchor="middle" x="1832" y="-139" font-family="Helvetica,sans-Serif" font-size="10.00">/polytope.hpp</text>
</a>
</g>
</g>
<!-- Node1&#45;&gt;Node18 -->
<g id="edge64_Node000001_Node000018" class="edge">
<title>Node1&#45;&gt;Node18</title>
<g id="a_edge64_Node000001_Node000018"><a xlink:title=" ">
<path fill="none" stroke="#63b8ff" d="M1021.63,-402.01C1121.39,-397.95 1287,-387.37 1427,-360 1525.52,-340.74 1553.83,-340.1 1643,-294 1715.19,-256.68 1787.63,-190.92 1817.62,-162.15"/>
<polygon fill="#63b8ff" stroke="#63b8ff" points="1021.44,-398.51 1011.58,-402.4 1021.71,-405.51 1021.44,-398.51"/>
</a>
</g>
</g>
<!-- Node19 -->
<g id="Node000019" class="node">
<title>Node19</title>
<g id="a_Node000019"><a xlink:href="VolumeEstimatorMC_8hpp.html" target="_top" xlink:title="Hit&#45;or&#45;Miss Monte Carlo volume estimation.">
<polygon fill="white" stroke="#666666" points="1183.5,-228 1038.5,-228 1038.5,-198 1183.5,-198 1183.5,-228"/>
<text text-anchor="start" x="1046.5" y="-216" font-family="Helvetica,sans-Serif" font-size="10.00">src/montecarlo/estimators</text>
<text text-anchor="middle" x="1111" y="-205" font-family="Helvetica,sans-Serif" font-size="10.00">/VolumeEstimatorMC.hpp</text>
</a>
</g>
</g>
<!-- Node1&#45;&gt;Node19 -->
<g id="edge65_Node000001_Node000019" class="edge">
<title>Node1&#45;&gt;Node19</title>
<g id="a_edge65_Node000001_Node000019"><a xlink:title=" ">
<path fill="none" stroke="#63b8ff" d="M947.06,-388.47C981.43,-351.9 1065.16,-262.78 1097.73,-228.12"/>
<polygon fill="#63b8ff" stroke="#63b8ff" points="944.45,-386.14 940.16,-395.82 949.55,-390.93 944.45,-386.14"/>
</a>
</g>
</g>
<!-- Node20 -->
<g id="Node000020" class="node">
<title>Node20</title>
<g id="a_Node000020"><a xlink:href="metropolisHastingsSampler_8hpp.html" target="_top" xlink:title="Metropolis&#45;Hastings MCMC sampling engine.">
<polygon fill="white" stroke="#666666" points="1020,-228 844,-228 844,-198 1020,-198 1020,-228"/>
<text text-anchor="start" x="852" y="-216" font-family="Helvetica,sans-Serif" font-size="10.00">src/montecarlo/mcmc</text>
<text text-anchor="middle" x="932" y="-205" font-family="Helvetica,sans-Serif" font-size="10.00">/metropolisHastingsSampler.hpp</text>
</a>
</g>
</g>
<!-- Node1&#45;&gt;Node20 -->
<g id="edge69_Node000001_Node000020" class="edge">
<title>Node1&#45;&gt;Node20</title>
<g id="a_edge69_Node000001_Node000020"><a xlink:title=" ">
<path fill="none" stroke="#63b8ff" d="M932,-385.6C932,-347.44 932,-261.91 932,-228.12"/>
<polygon fill="#63b8ff" stroke="#63b8ff" points="928.5,-385.82 932,-395.82 935.5,-385.82 928.5,-385.82"/>
</a>
</g>
</g>
<!-- Node24 -->
<g id="Node000024" class="node">
<title>Node24</title>
<g id="a_Node000024"><a xlink:href="proposal_8hpp.html" target="_top" xlink:title="Abstract base for probability distributions used in importance sampling.">
<polygon fill="white" stroke="#666666" points="1451,-294 1311,-294 1311,-264 1451,-264 1451,-294"/>
<text text-anchor="start" x="1319" y="-282" font-family="Helvetica,sans-Serif" font-size="10.00">src/montecarlo/proposals</text>
<text text-anchor="middle" x="1381" y="-271" font-family="Helvetica,sans-Serif" font-size="10.00">/proposal.hpp</text>
</a>
</g>
</g>
<!-- Node1&#45;&gt;Node24 -->
<g id="edge70_Node000001_Node000024" class="edge">
<title>Node1&#45;&gt;Node24</title>
<g id="a_edge70_Node000001_Node000024"><a xlink:title=" ">
<path fill="none" stroke="#63b8ff" d="M1021.67,-398.55C1080.81,-392.79 1159.38,-381.59 1226,-360 1276.41,-343.66 1330.33,-312.28 1359.41,-294.05"/>
<polygon fill="#63b8ff" stroke="#63b8ff" points="1021.23,-395.08 1011.6,-399.5 1021.88,-402.05 1021.23,-395.08"/>
</a>
</g>
</g>
<!-- Node3 -->
<g id="Node000003" class="node">
<title>Node3</title>
<g id="a_Node000003"><a xlink:href="benchmarks_8cpp.html" target="_top" xlink:title="Implementation of shared benchmark utilities and global configuration.">
<polygon fill="white" stroke="#666666" points="501,-24.5 361,-24.5 361,-5.5 501,-5.5 501,-24.5"/>
<text text-anchor="middle" x="431" y="-12.5" font-family="Helvetica,sans-Serif" font-size="10.00">src/apps/benchmarks.cpp</text>
</a>
</g>
</g>
<!-- Node2&#45;&gt;Node3 -->
<g id="edge2_Node000002_Node000003" class="edge">
<title>Node2&#45;&gt;Node3</title>
<g id="a_edge2_Node000002_Node000003"><a xlink:title=" ">
<path fill="none" stroke="#63b8ff" d="M487.29,-64.68C472.92,-52.26 453.18,-35.18 441.3,-24.91"/>
<polygon fill="#63b8ff" stroke="#63b8ff" points="485.17,-67.47 495.02,-71.37 489.75,-62.18 485.17,-67.47"/>
</a>
</g>
</g>
<!-- Node4 -->
<g id="Node000004" class="node">
<title>Node4</title>
<g id="a_Node000004"><a xlink:href="ga__benchmarks_8cpp.html" target="_top" xlink:title="Genetic Algorithm benchmark suite with visualization.">
<polygon fill="white" stroke="#666666" points="639,-30 519,-30 519,0 639,0 639,-30"/>
<text text-anchor="start" x="527" y="-18" font-family="Helvetica,sans-Serif" font-size="10.00">src/apps/benchmarks</text>
<text text-anchor="middle" x="579" y="-7" font-family="Helvetica,sans-Serif" font-size="10.00">/ga_benchmarks.cpp</text>
</a>
</g>
</g>
<!-- Node2&#45;&gt;Node4 -->
<g id="edge3_Node000002_Node000004" class="edge">
<title>Node2&#45;&gt;Node4</title>
<g id="a_edge3_Node000002_Node000004"><a xlink:title=" ">
<path fill="none" stroke="#63b8ff" d="M522.67,-64.71C534.82,-54.21 550.83,-40.36 562.68,-30.12"/>
<polygon fill="#63b8ff" stroke="#63b8ff" points="520.25,-62.18 514.98,-71.37 524.83,-67.47 520.25,-62.18"/>
</a>
</g>
</g>
<!-- Node5 -->
<g id="Node000005" class="node">
<title>Node5</title>
<g id="a_Node000005"><a xlink:href="integration__benchmarks_8cpp.html" target="_top" xlink:title="Benchmark suite for Monte Carlo integration algorithms.">
<polygon fill="white" stroke="#666666" points="815,-30 657,-30 657,0 815,0 815,-30"/>
<text text-anchor="start" x="665" y="-18" font-family="Helvetica,sans-Serif" font-size="10.00">src/apps/benchmarks</text>
<text text-anchor="middle" x="736" y="-7" font-family="Helvetica,sans-Serif" font-size="10.00">/integration_benchmarks.cpp</text>
</a>
</g>
</g>
<!-- Node2&#45;&gt;Node5 -->
<g id="edge4_Node000002_Node000005" class="edge">
<title>Node2&#45;&gt;Node5</title>
<g id="a_edge4_Node000002_Node000005"><a xlink:title=" ">
<path fill="none" stroke="#63b8ff" d="M546.07,-68.62C584.9,-57.86 643.27,-41.69 685.05,-30.12"/>
<polygon fill="#63b8ff" stroke="#63b8ff" points="544.86,-65.33 536.15,-71.37 546.73,-72.07 544.86,-65.33"/>
</a>
</g>
</g>
<!-- Node6 -->
<g id="Node000006" class="node">
<title>Node6</title>
<g id="a_Node000006"><a xlink:href="pso__benchmarks_8cpp.html" target="_top" xlink:title="Particle Swarm Optimization benchmark suite.">
<polygon fill="white" stroke="#666666" points="343,-30 221,-30 221,0 343,0 343,-30"/>
<text text-anchor="start" x="229" y="-18" font-family="Helvetica,sans-Serif" font-size="10.00">src/apps/benchmarks</text>
<text text-anchor="middle" x="282" y="-7" font-family="Helvetica,sans-Serif" font-size="10.00">/pso_benchmarks.cpp</text>
</a>
</g>
</g>
<!-- Node2&#45;&gt;Node6 -->
<g id="edge5_Node000002_Node000006" class="edge">
<title>Node2&#45;&gt;Node6</title>
<g id="a_edge5_Node000002_Node000006"><a xlink:title=" ">
<path fill="none" stroke="#63b8ff" d="M464.87,-68.48C427.39,-57.73 371.34,-41.64 331.18,-30.12"/>
<polygon fill="#63b8ff" stroke="#63b8ff" points="464.35,-71.97 474.93,-71.37 466.28,-65.25 464.35,-71.97"/>
</a>
</g>
</g>
<!-- Node2&#45;&gt;Node7 -->
<g id="edge6_Node000002_Node000007" class="edge">
<title>Node2&#45;&gt;Node7</title>
<g id="a_edge6_Node000002_Node000007"><a xlink:title=" ">
<path fill="none" stroke="#63b8ff" d="M577.37,-70.06C642.19,-60.82 739.72,-46.1 824,-30 832.45,-28.38 841.51,-26.45 850.02,-24.55"/>
<polygon fill="#63b8ff" stroke="#63b8ff" points="576.67,-66.62 567.26,-71.49 577.65,-73.55 576.67,-66.62"/>
</a>
</g>
</g>
<!-- Node10&#45;&gt;Node2 -->
<g id="edge11_Node000010_Node000002" class="edge">
<title>Node10&#45;&gt;Node2</title>
<g id="a_edge11_Node000010_Node000002"><a xlink:title=" ">
<path fill="none" stroke="#63b8ff" d="M152.82,-256.49C183.44,-224.53 245.51,-164.79 310,-132 352.21,-110.54 404.37,-97.79 444.12,-90.54"/>
<polygon fill="#63b8ff" stroke="#63b8ff" points="150.06,-254.31 145.72,-263.98 155.14,-259.12 150.06,-254.31"/>
</a>
</g>
</g>
<!-- Node10&#45;&gt;Node8 -->
<g id="edge12_Node000010_Node000008" class="edge">
<title>Node10&#45;&gt;Node8</title>
<g id="a_edge12_Node000010_Node000008"><a xlink:title=" ">
<path fill="none" stroke="#63b8ff" d="M124.32,-254.22C119.61,-238.29 115.42,-216.86 119,-198 124.88,-167.03 127.46,-158.19 145,-132 156.15,-115.35 173.68,-99.98 185.25,-90.8"/>
<polygon fill="#63b8ff" stroke="#63b8ff" points="121.01,-255.37 127.41,-263.82 127.67,-253.22 121.01,-255.37"/>
</a>
</g>
</g>
<!-- Node11 -->
<g id="Node000011" class="node">
<title>Node11</title>
<g id="a_Node000011"><a xlink:href="integrator_8hpp.html" target="_top" xlink:title="Abstract base class for numerical integration in N&#45;dimensional spaces.">
<polygon fill="white" stroke="#666666" points="554,-228 408,-228 408,-198 554,-198 554,-228"/>
<text text-anchor="start" x="416" y="-216" font-family="Helvetica,sans-Serif" font-size="10.00">src/montecarlo/integrators</text>
<text text-anchor="middle" x="481" y="-205" font-family="Helvetica,sans-Serif" font-size="10.00">/integrator.hpp</text>
</a>
</g>
</g>
<!-- Node10&#45;&gt;Node11 -->
<g id="edge13_Node000010_Node000011" class="edge">
<title>Node10&#45;&gt;Node11</title>
<g id="a_edge13_Node000010_Node000011"><a xlink:title=" ">
<path fill="none" stroke="#63b8ff" d="M210.42,-263.74C283.26,-250.34 355.67,-237.03 407.98,-227.42"/>
<polygon fill="#63b8ff" stroke="#63b8ff" points="209.34,-260.38 200.14,-265.63 210.6,-267.26 209.34,-260.38"/>
</a>
</g>
</g>
<!-- Node11&#45;&gt;Node12 -->
<g id="edge14_Node000011_Node000012" class="edge">
<title>Node11&#45;&gt;Node12</title>
<g id="a_edge14_Node000011_Node000012"><a xlink:title=" ">
<path fill="none" stroke="#63b8ff" d="M564.29,-200.18C648.76,-188.19 778.22,-169.82 858.85,-158.38"/>
<polygon fill="#63b8ff" stroke="#63b8ff" points="563.62,-196.74 554.21,-201.61 564.61,-203.67 563.62,-196.74"/>
</a>
</g>
</g>
<!-- Node11&#45;&gt;Node13 -->
<g id="edge17_Node000011_Node000013" class="edge">
<title>Node11&#45;&gt;Node13</title>
<g id="a_edge17_Node000011_Node000013"><a xlink:title=" ">
<path fill="none" stroke="#63b8ff" d="M514.31,-192.97C531.69,-183.03 552.59,-171.09 568.48,-162.01"/>
<polygon fill="#63b8ff" stroke="#63b8ff" points="512.52,-189.95 505.58,-197.95 516,-196.03 512.52,-189.95"/>
</a>
</g>
</g>
<!-- Node11&#45;&gt;Node14 -->
<g id="edge21_Node000011_Node000014" class="edge">
<title>Node11&#45;&gt;Node14</title>
<g id="a_edge21_Node000011_Node000014"><a xlink:title=" ">
<path fill="none" stroke="#63b8ff" d="M564.52,-204.42C669.47,-194.84 855.12,-177.69 1014,-162 1034.05,-160.02 1055.76,-157.8 1075.8,-155.72"/>
<polygon fill="#63b8ff" stroke="#63b8ff" points="563.95,-200.96 554.31,-205.35 564.58,-207.93 563.95,-200.96"/>
</a>
</g>
</g>
<!-- Node12&#45;&gt;Node2 -->
<g id="edge15_Node000012_Node000002" class="edge">
<title>Node12&#45;&gt;Node2</title>
<g id="a_edge15_Node000012_Node000002"><a xlink:title=" ">
<path fill="none" stroke="#63b8ff" d="M848.5,-133.48C763.88,-120.8 635.25,-101.52 561.77,-90.51"/>
<polygon fill="#63b8ff" stroke="#63b8ff" points="848.19,-136.98 858.6,-135 849.23,-130.05 848.19,-136.98"/>
</a>
</g>
</g>
<!-- Node12&#45;&gt;Node5 -->
<g id="edge16_Node000012_Node000005" class="edge">
<title>Node12&#45;&gt;Node5</title>
<g id="a_edge16_Node000012_Node000005"><a xlink:title=" ">
<path fill="none" stroke="#63b8ff" d="M902.13,-126.19C862.19,-99.7 792.36,-53.38 757.32,-30.14"/>
<polygon fill="#63b8ff" stroke="#63b8ff" points="900.38,-129.23 910.65,-131.84 904.25,-123.4 900.38,-129.23"/>
</a>
</g>
</g>
<!-- Node13&#45;&gt;Node2 -->
<g id="edge18_Node000013_Node000002" class="edge">
<title>Node13&#45;&gt;Node2</title>
<g id="a_edge18_Node000013_Node000002"><a xlink:title=" ">
<path fill="none" stroke="#63b8ff" d="M565.33,-125.87C549.04,-114.03 529.27,-99.65 516.91,-90.66"/>
<polygon fill="#63b8ff" stroke="#63b8ff" points="563.32,-128.75 573.47,-131.8 567.44,-123.08 563.32,-128.75"/>
</a>
</g>
</g>
<!-- Node13&#45;&gt;Node7 -->
<g id="edge20_Node000013_Node000007" class="edge">
<title>Node13&#45;&gt;Node7</title>
<g id="a_edge20_Node000013_Node000007"><a xlink:title=" ">
<path fill="none" stroke="#63b8ff" d="M676.1,-137.62C717.46,-130.78 767.02,-118.39 807,-96 840.04,-77.49 868.37,-41.09 880.16,-24.55"/>
<polygon fill="#63b8ff" stroke="#63b8ff" points="675.38,-134.19 666.04,-139.2 676.47,-141.11 675.38,-134.19"/>
</a>
</g>
</g>
<!-- Node13&#45;&gt;Node8 -->
<g id="edge19_Node000013_Node000008" class="edge">
<title>Node13&#45;&gt;Node8</title>
<g id="a_edge19_Node000013_Node000008"><a xlink:title=" ">
<path fill="none" stroke="#63b8ff" d="M509.57,-132.52C431.15,-119.84 316.18,-101.26 249.73,-90.52"/>
<polygon fill="#63b8ff" stroke="#63b8ff" points="509.48,-136.05 519.91,-134.19 510.59,-129.14 509.48,-136.05"/>
</a>
</g>
</g>
<!-- Node14&#45;&gt;Node2 -->
<g id="edge22_Node000014_Node000002" class="edge">
<title>Node14&#45;&gt;Node2</title>
<g id="a_edge22_Node000014_Node000002"><a xlink:title=" ">
<path fill="none" stroke="#63b8ff" d="M1065.81,-137.3C1048.68,-135.53 1030.76,-133.69 1014,-132 857.63,-116.21 674.17,-98.35 575.83,-88.84"/>
<polygon fill="#63b8ff" stroke="#63b8ff" points="1065.48,-140.79 1075.79,-138.33 1066.2,-133.82 1065.48,-140.79"/>
</a>
</g>
</g>
<!-- Node14&#45;&gt;Node9 -->
<g id="edge23_Node000014_Node000009" class="edge">
<title>Node14&#45;&gt;Node9</title>
<g id="a_edge23_Node000014_Node000009"><a xlink:title=" ">
<path fill="none" stroke="#63b8ff" d="M1232.17,-135.62C1337.36,-122.5 1515.61,-100.26 1605.94,-88.99"/>
<polygon fill="#63b8ff" stroke="#63b8ff" points="1231.72,-132.15 1222.23,-136.86 1232.58,-139.1 1231.72,-132.15"/>
</a>
</g>
</g>
<!-- Node15&#45;&gt;Node2 -->
<g id="edge25_Node000015_Node000002" class="edge">
<title>Node15&#45;&gt;Node2</title>
<g id="a_edge25_Node000015_Node000002"><a xlink:title=" ">
<path fill="none" stroke="#63b8ff" d="M409.97,-259.87C393.51,-252.43 377.31,-242.13 366,-228 339.06,-194.33 326.69,-166.9 352,-132 370.95,-105.87 403.94,-93.14 434.45,-87.04"/>
<polygon fill="#63b8ff" stroke="#63b8ff" points="409.08,-263.3 419.66,-263.93 411.79,-256.84 409.08,-263.3"/>
</a>
</g>
</g>
<!-- Node15&#45;&gt;Node8 -->
<g id="edge26_Node000015_Node000008" class="edge">
<title>Node15&#45;&gt;Node8</title>
<g id="a_edge26_Node000015_Node000008"><a xlink:title=" ">
<path fill="none" stroke="#63b8ff" d="M413.38,-260.71C390.27,-252.7 364.43,-241.85 343,-228 280.08,-187.34 222.58,-115.76 203.59,-90.84"/>
<polygon fill="#63b8ff" stroke="#63b8ff" points="412.5,-264.11 423.09,-263.97 414.72,-257.47 412.5,-264.11"/>
</a>
</g>
</g>
<!-- Node15&#45;&gt;Node9 -->
<g id="edge27_Node000015_Node000009" class="edge">
<title>Node15&#45;&gt;Node9</title>
<g id="a_edge27_Node000015_Node000009"><a xlink:title=" ">
<path fill="none" stroke="#63b8ff" d="M552.53,-278.46C685,-277.96 962.9,-271.22 1193,-228 1359.37,-196.75 1549.71,-126.18 1626.83,-96.06"/>
<polygon fill="#63b8ff" stroke="#63b8ff" points="552.47,-274.96 542.48,-278.49 552.49,-281.96 552.47,-274.96"/>
</a>
</g>
</g>
<!-- Node15&#45;&gt;Node11 -->
<g id="edge28_Node000015_Node000011" class="edge">
<title>Node15&#45;&gt;Node11</title>
<g id="a_edge28_Node000015_Node000011"><a xlink:title=" ">
<path fill="none" stroke="#63b8ff" d="M477.27,-253.83C478.08,-245.17 478.97,-235.7 479.67,-228.16"/>
<polygon fill="#63b8ff" stroke="#63b8ff" points="473.78,-253.51 476.33,-263.8 480.75,-254.17 473.78,-253.51"/>
</a>
</g>
</g>
<!-- Node16&#45;&gt;Node2 -->
<g id="edge30_Node000016_Node000002" class="edge">
<title>Node16&#45;&gt;Node2</title>
<g id="a_edge30_Node000016_Node000002"><a xlink:title=" ">
<path fill="none" stroke="#63b8ff" d="M286.66,-253.32C290.16,-220.95 301.06,-164.48 335,-132 361.56,-106.58 400.37,-94 434.2,-87.81"/>
<polygon fill="#63b8ff" stroke="#63b8ff" points="283.13,-253.4 285.7,-263.68 290.1,-254.05 283.13,-253.4"/>
</a>
</g>
</g>
<!-- Node16&#45;&gt;Node8 -->
<g id="edge31_Node000016_Node000008" class="edge">
<title>Node16&#45;&gt;Node8</title>
<g id="a_edge31_Node000016_Node000008"><a xlink:title=" ">
<path fill="none" stroke="#63b8ff" d="M234.05,-259.58C219.39,-251.93 204.74,-241.6 195,-228 164.14,-184.93 185,-114.88 193.7,-90.6"/>
<polygon fill="#63b8ff" stroke="#63b8ff" points="232.61,-262.77 243.14,-263.99 235.67,-256.48 232.61,-262.77"/>
</a>
</g>
</g>
<!-- Node16&#45;&gt;Node11 -->
<g id="edge32_Node000016_Node000011" class="edge">
<title>Node16&#45;&gt;Node11</title>
<g id="a_edge32_Node000016_Node000011"><a xlink:title=" ">
<path fill="none" stroke="#63b8ff" d="M337.91,-260.72C369.32,-250.47 408.62,-237.63 438.09,-228.01"/>
<polygon fill="#63b8ff" stroke="#63b8ff" points="336.43,-257.52 328.01,-263.95 338.61,-264.18 336.43,-257.52"/>
</a>
</g>
</g>
<!-- Node17&#45;&gt;Node9 -->
<g id="edge34_Node000017_Node000009" class="edge">
<title>Node17&#45;&gt;Node9</title>
<g id="a_edge34_Node000017_Node000009"><a xlink:title=" ">
<path fill="none" stroke="#63b8ff" d="M894.37,-344.29C1023.75,-343.45 1289.64,-336.13 1510,-294 1605.68,-275.71 1661.42,-306.57 1719,-228 1727.39,-216.55 1727.35,-158.4 1715,-132 1708.14,-117.33 1694.89,-104.83 1683.35,-96"/>
<polygon fill="#63b8ff" stroke="#63b8ff" points="894.15,-340.79 884.16,-344.34 894.18,-347.79 894.15,-340.79"/>
</a>
</g>
</g>
<!-- Node17&#45;&gt;Node10 -->
<g id="edge35_Node000017_Node000010" class="edge">
<title>Node17&#45;&gt;Node10</title>
<g id="a_edge35_Node000017_Node000010"><a xlink:title=" ">
<path fill="none" stroke="#63b8ff" d="M737.75,-340.06C621.88,-333.66 397.99,-319.13 209,-294 206.07,-293.61 203.09,-293.19 200.08,-292.73"/>
<polygon fill="#63b8ff" stroke="#63b8ff" points="737.77,-343.57 747.94,-340.62 738.15,-336.58 737.77,-343.57"/>
</a>
</g>
</g>
<!-- Node17&#45;&gt;Node11 -->
<g id="edge48_Node000017_Node000011" class="edge">
<title>Node17&#45;&gt;Node11</title>
<g id="a_edge48_Node000017_Node000011"><a xlink:title=" ">
<path fill="none" stroke="#63b8ff" d="M738.22,-328.22C704.76,-320.07 665.68,-308.72 632,-294 608.95,-283.93 606.01,-276.18 584,-264 560.34,-250.91 532.75,-237.62 512.08,-228.03"/>
<polygon fill="#63b8ff" stroke="#63b8ff" points="737.42,-331.62 747.95,-330.54 739.04,-324.81 737.42,-331.62"/>
</a>
</g>
</g>
<!-- Node17&#45;&gt;Node12 -->
<g id="edge45_Node000017_Node000012" class="edge">
<title>Node17&#45;&gt;Node12</title>
<g id="a_edge45_Node000017_Node000012"><a xlink:title=" ">
<path fill="none" stroke="#63b8ff" d="M812.71,-319.61C809.85,-288.48 809.51,-234.3 835,-198 846.76,-181.25 865.86,-169.74 884.01,-162.02"/>
<polygon fill="#63b8ff" stroke="#63b8ff" points="809.23,-320.03 813.79,-329.6 816.19,-319.28 809.23,-320.03"/>
</a>
</g>
</g>
<!-- Node17&#45;&gt;Node13 -->
<g id="edge46_Node000017_Node000013" class="edge">
<title>Node17&#45;&gt;Node13</title>
<g id="a_edge46_Node000017_Node000013"><a xlink:title=" ">
<path fill="none" stroke="#63b8ff" d="M756.88,-326.59C709.14,-309.39 644.15,-278.24 608,-228 593.89,-208.39 591.94,-179.28 592.2,-162.11"/>
<polygon fill="#63b8ff" stroke="#63b8ff" points="755.89,-329.95 766.49,-329.95 758.2,-323.35 755.89,-329.95"/>
</a>
</g>
</g>
<!-- Node17&#45;&gt;Node14 -->
<g id="edge47_Node000017_Node000014" class="edge">
<title>Node17&#45;&gt;Node14</title>
<g id="a_edge47_Node000017_Node000014"><a xlink:title=" ">
<path fill="none" stroke="#63b8ff" d="M894.26,-331.06C993.87,-312.8 1157.35,-276.26 1193,-228 1208.82,-206.58 1184.93,-178.82 1166.63,-162.27"/>
<polygon fill="#63b8ff" stroke="#63b8ff" points="893.44,-327.65 884.23,-332.87 894.69,-334.54 893.44,-327.65"/>
</a>
</g>
</g>
<!-- Node17&#45;&gt;Node15 -->
<g id="edge36_Node000017_Node000015" class="edge">
<title>Node17&#45;&gt;Node15</title>
<g id="a_edge36_Node000017_Node000015"><a xlink:title=" ">
<path fill="none" stroke="#63b8ff" d="M737.78,-329.32C678.68,-318.23 598.41,-303.16 542.2,-292.61"/>
<polygon fill="#63b8ff" stroke="#63b8ff" points="737.34,-332.8 747.81,-331.2 738.63,-325.92 737.34,-332.8"/>
</a>
</g>
</g>
<!-- Node17&#45;&gt;Node16 -->
<g id="edge37_Node000017_Node000016" class="edge">
<title>Node17&#45;&gt;Node16</title>
<g id="a_edge37_Node000017_Node000016"><a xlink:title=" ">
<path fill="none" stroke="#63b8ff" d="M737.78,-334.69C653.98,-324.7 517.07,-308.33 399,-294 383.86,-292.16 367.58,-290.17 352.21,-288.29"/>
<polygon fill="#63b8ff" stroke="#63b8ff" points="737.39,-338.17 747.73,-335.88 738.22,-331.22 737.39,-338.17"/>
</a>
</g>
</g>
<!-- Node17&#45;&gt;Node18 -->
<g id="edge38_Node000017_Node000018" class="edge">
<title>Node17&#45;&gt;Node18</title>
<g id="a_edge38_Node000017_Node000018"><a xlink:title=" ">
<path fill="none" stroke="#63b8ff" d="M894.39,-344.59C1109.73,-345.57 1699.11,-343.63 1770,-294 1814.67,-262.73 1827.33,-192.49 1830.77,-162.27"/>
<polygon fill="#63b8ff" stroke="#63b8ff" points="894.13,-341.09 884.11,-344.54 894.1,-348.09 894.13,-341.09"/>
</a>
</g>
</g>
<!-- Node17&#45;&gt;Node19 -->
<g id="edge41_Node000017_Node000019" class="edge">
<title>Node17&#45;&gt;Node19</title>
<g id="a_edge41_Node000017_Node000019"><a xlink:title=" ">
<path fill="none" stroke="#63b8ff" d="M857.3,-325.8C916.69,-299.63 1024.99,-251.9 1078.84,-228.17"/>
<polygon fill="#63b8ff" stroke="#63b8ff" points="855.59,-322.73 847.85,-329.96 858.41,-329.13 855.59,-322.73"/>
</a>
</g>
</g>
<!-- Node17&#45;&gt;Node20 -->
<g id="edge49_Node000017_Node000020" class="edge">
<title>Node17&#45;&gt;Node20</title>
<g id="a_edge49_Node000017_Node000020"><a xlink:title=" ">
<path fill="none" stroke="#63b8ff" d="M835.5,-322.15C859.39,-295.38 899.17,-250.79 919.38,-228.14"/>
<polygon fill="#63b8ff" stroke="#63b8ff" points="832.68,-320.05 828.63,-329.84 837.9,-324.71 832.68,-320.05"/>
</a>
</g>
</g>
<!-- Node21 -->
<g id="Node000021" class="node">
<title>Node21</title>
<g id="a_Node000021"><a xlink:href="gaussianProposal_8hpp.html" target="_top" xlink:title="Diagonal multivariate Gaussian proposal (no domain truncation).">
<polygon fill="white" stroke="#666666" points="1690,-228 1550,-228 1550,-198 1690,-198 1690,-228"/>
<text text-anchor="start" x="1558" y="-216" font-family="Helvetica,sans-Serif" font-size="10.00">src/montecarlo/proposals</text>
<text text-anchor="middle" x="1620" y="-205" font-family="Helvetica,sans-Serif" font-size="10.00">/gaussianProposal.hpp</text>
</a>
</g>
</g>
<!-- Node17&#45;&gt;Node21 -->
<g id="edge53_Node000017_Node000021" class="edge">
<title>Node17&#45;&gt;Node21</title>
<g id="a_edge53_Node000017_Node000021"><a xlink:title=" ">
<path fill="none" stroke="#63b8ff" d="M894.6,-341.67C1042.27,-336.67 1355.66,-322.94 1460,-294 1512.67,-279.39 1568.54,-247.06 1598.32,-228.27"/>
<polygon fill="#63b8ff" stroke="#63b8ff" points="894.14,-338.18 884.26,-342.02 894.37,-345.18 894.14,-338.18"/>
</a>
</g>
</g>
<!-- Node22 -->
<g id="Node000022" class="node">
<title>Node22</title>
<g id="a_Node000022"><a xlink:href="uniformProposal_8hpp.html" target="_top" xlink:title="Uniform distribution proposal over integration domain.">
<polygon fill="white" stroke="#666666" points="788,-228 648,-228 648,-198 788,-198 788,-228"/>
<text text-anchor="start" x="656" y="-216" font-family="Helvetica,sans-Serif" font-size="10.00">src/montecarlo/proposals</text>
<text text-anchor="middle" x="718" y="-205" font-family="Helvetica,sans-Serif" font-size="10.00">/uniformProposal.hpp</text>
</a>
</g>
</g>
<!-- Node17&#45;&gt;Node22 -->
<g id="edge56_Node000017_Node000022" class="edge">
<title>Node17&#45;&gt;Node22</title>
<g id="a_edge56_Node000017_Node000022"><a xlink:title=" ">
<path fill="none" stroke="#63b8ff" d="M799.26,-321.8C779.05,-294.99 745.66,-250.7 728.66,-228.14"/>
<polygon fill="#63b8ff" stroke="#63b8ff" points="796.51,-323.96 805.33,-329.84 802.1,-319.75 796.51,-323.96"/>
</a>
</g>
</g>
<!-- Node23 -->
<g id="Node000023" class="node">
<title>Node23</title>
<g id="a_Node000023"><a xlink:href="plotter_8hpp.html" target="_top" xlink:title=" ">
<polygon fill="white" stroke="#666666" points="474.5,-162 361.5,-162 361.5,-132 474.5,-132 474.5,-162"/>
<text text-anchor="start" x="369.5" y="-150" font-family="Helvetica,sans-Serif" font-size="10.00">src/montecarlo/utils</text>
<text text-anchor="middle" x="418" y="-139" font-family="Helvetica,sans-Serif" font-size="10.00">/plotter.hpp</text>
</a>
</g>
</g>
<!-- Node17&#45;&gt;Node23 -->
<g id="edge60_Node000017_Node000023" class="edge">
<title>Node17&#45;&gt;Node23</title>
<g id="a_edge60_Node000017_Node000023"><a xlink:title=" ">
<path fill="none" stroke="#63b8ff" d="M737.73,-331.62C681.28,-321.85 610.53,-307.64 584,-294 566.37,-284.93 568.53,-273.24 551,-264 489.59,-231.62 442.06,-282.45 399,-228 383.86,-208.85 397.42,-179.59 408.1,-162.27"/>
<polygon fill="#63b8ff" stroke="#63b8ff" points="737.28,-335.09 747.73,-333.33 738.46,-328.19 737.28,-335.09"/>
</a>
</g>
</g>
<!-- Node18&#45;&gt;Node7 -->
<g id="edge40_Node000018_Node000007" class="edge">
<title>Node18&#45;&gt;Node7</title>
<g id="a_edge40_Node000018_Node000007"><a xlink:title=" ">
<path fill="none" stroke="#63b8ff" d="M1811.89,-124.7C1792.28,-105.51 1760.57,-78.45 1727,-66 1653.38,-38.69 1111.46,-22.01 938.74,-17.35"/>
<polygon fill="#63b8ff" stroke="#63b8ff" points="1809.5,-127.26 1819.04,-131.88 1814.46,-122.32 1809.5,-127.26"/>
</a>
</g>
</g>
<!-- Node18&#45;&gt;Node8 -->
<g id="edge39_Node000018_Node000008" class="edge">
<title>Node18&#45;&gt;Node8</title>
<g id="a_edge39_Node000018_Node000008"><a xlink:title=" ">
<path fill="none" stroke="#63b8ff" d="M1754.87,-143.96C1542.64,-138.19 932.13,-120.58 425,-96 378.65,-93.75 327.05,-90.64 284.67,-87.91"/>
<polygon fill="#63b8ff" stroke="#63b8ff" points="1754.88,-147.46 1764.97,-144.23 1755.07,-140.46 1754.88,-147.46"/>
</a>
</g>
</g>
<!-- Node19&#45;&gt;Node12 -->
<g id="edge42_Node000019_Node000012" class="edge">
<title>Node19&#45;&gt;Node12</title>
<g id="a_edge42_Node000019_Node000012"><a xlink:title=" ">
<path fill="none" stroke="#63b8ff" d="M1061.93,-194.46C1033.38,-184.25 997.87,-171.55 971.19,-162.01"/>
<polygon fill="#63b8ff" stroke="#63b8ff" points="1061.12,-197.88 1071.72,-197.95 1063.48,-191.29 1061.12,-197.88"/>
</a>
</g>
</g>
<!-- Node19&#45;&gt;Node13 -->
<g id="edge43_Node000019_Node000013" class="edge">
<title>Node19&#45;&gt;Node13</title>
<g id="a_edge43_Node000019_Node000013"><a xlink:title=" ">
<path fill="none" stroke="#63b8ff" d="M1028.14,-197.93C894.48,-179.08 750.67,-163.69 666.06,-155.14"/>
<polygon fill="#63b8ff" stroke="#63b8ff" points="1027.76,-201.41 1038.16,-199.35 1028.75,-194.48 1027.76,-201.41"/>
</a>
</g>
</g>
<!-- Node19&#45;&gt;Node14 -->
<g id="edge44_Node000019_Node000014" class="edge">
<title>Node19&#45;&gt;Node14</title>
<g id="a_edge44_Node000019_Node000014"><a xlink:title=" ">
<path fill="none" stroke="#63b8ff" d="M1124.68,-188.96C1130,-180 1135.92,-170.03 1140.59,-162.16"/>
<polygon fill="#63b8ff" stroke="#63b8ff" points="1121.53,-187.41 1119.43,-197.8 1127.55,-190.98 1121.53,-187.41"/>
</a>
</g>
</g>
<!-- Node20&#45;&gt;Node12 -->
<g id="edge50_Node000020_Node000012" class="edge">
<title>Node20&#45;&gt;Node12</title>
<g id="a_edge50_Node000020_Node000012"><a xlink:title=" ">
<path fill="none" stroke="#63b8ff" d="M932,-187.54C932,-178.96 932,-169.61 932,-162.16"/>
<polygon fill="#63b8ff" stroke="#63b8ff" points="928.5,-187.8 932,-197.8 935.5,-187.8 928.5,-187.8"/>
</a>
</g>
</g>
<!-- Node20&#45;&gt;Node13 -->
<g id="edge51_Node000020_Node000013" class="edge">
<title>Node20&#45;&gt;Node13</title>
<g id="a_edge51_Node000020_Node000013"><a xlink:title=" ">
<path fill="none" stroke="#63b8ff" d="M847.74,-196.09C791.92,-185.55 719.43,-171.87 666.06,-161.79"/>
<polygon fill="#63b8ff" stroke="#63b8ff" points="847.13,-199.54 857.61,-197.95 848.43,-192.66 847.13,-199.54"/>
</a>
</g>
</g>
<!-- Node20&#45;&gt;Node14 -->
<g id="edge52_Node000020_Node000014" class="edge">
<title>Node20&#45;&gt;Node14</title>
<g id="a_edge52_Node000020_Node000014"><a xlink:title=" ">
<path fill="none" stroke="#63b8ff" d="M989.23,-195.12C1024.22,-184.8 1068.44,-171.76 1101.49,-162.01"/>
<polygon fill="#63b8ff" stroke="#63b8ff" points="988.22,-191.77 979.62,-197.95 990.2,-198.48 988.22,-191.77"/>
</a>
</g>
</g>
<!-- Node21&#45;&gt;Node9 -->
<g id="edge54_Node000021_Node000009" class="edge">
<title>Node21&#45;&gt;Node9</title>
<g id="a_edge54_Node000021_Node000009"><a xlink:title=" ">
<path fill="none" stroke="#63b8ff" d="M1627.74,-188.04C1636.45,-161.08 1650.3,-118.21 1657.43,-96.14"/>
<polygon fill="#63b8ff" stroke="#63b8ff" points="1624.32,-187.25 1624.57,-197.84 1630.98,-189.4 1624.32,-187.25"/>
</a>
</g>
</g>
<!-- Node21&#45;&gt;Node12 -->
<g id="edge55_Node000021_Node000012" class="edge">
<title>Node21&#45;&gt;Node12</title>
<g id="a_edge55_Node000021_Node000012"><a xlink:title=" ">
<path fill="none" stroke="#63b8ff" d="M1539.61,-201.99C1527.35,-200.57 1514.85,-199.2 1503,-198 1309.55,-178.45 1260.6,-180.03 1067,-162 1046.94,-160.13 1025.22,-157.95 1005.19,-155.87"/>
<polygon fill="#63b8ff" stroke="#63b8ff" points="1539.49,-205.5 1549.83,-203.18 1540.3,-198.54 1539.49,-205.5"/>
</a>
</g>
</g>
<!-- Node22&#45;&gt;Node2 -->
<g id="edge57_Node000022_Node000002" class="edge">
<title>Node22&#45;&gt;Node2</title>
<g id="a_edge57_Node000022_Node000002"><a xlink:title=" ">
<path fill="none" stroke="#63b8ff" d="M710.92,-188.47C704.37,-170.53 692.89,-146.52 675,-132 646.93,-109.22 608.82,-96.82 575.79,-90.07"/>
<polygon fill="#63b8ff" stroke="#63b8ff" points="707.62,-189.61 714.15,-197.96 714.24,-187.36 707.62,-189.61"/>
</a>
</g>
</g>
<!-- Node22&#45;&gt;Node12 -->
<g id="edge58_Node000022_Node000012" class="edge">
<title>Node22&#45;&gt;Node12</title>
<g id="a_edge58_Node000022_Node000012"><a xlink:title=" ">
<path fill="none" stroke="#63b8ff" d="M774.88,-194.99C809.31,-184.69 852.7,-171.72 885.15,-162.01"/>
<polygon fill="#63b8ff" stroke="#63b8ff" points="773.54,-191.74 764.96,-197.95 775.55,-198.44 773.54,-191.74"/>
</a>
</g>
</g>
<!-- Node22&#45;&gt;Node13 -->
<g id="edge59_Node000022_Node000013" class="edge">
<title>Node22&#45;&gt;Node13</title>
<g id="a_edge59_Node000022_Node000013"><a xlink:title=" ">
<path fill="none" stroke="#63b8ff" d="M681.63,-193.38C662.07,-183.36 638.35,-171.22 620.37,-162.01"/>
<polygon fill="#63b8ff" stroke="#63b8ff" points="680.07,-196.51 690.57,-197.95 683.26,-190.28 680.07,-196.51"/>
</a>
</g>
</g>
<!-- Node23&#45;&gt;Node2 -->
<g id="edge61_Node000023_Node000002" class="edge">
<title>Node23&#45;&gt;Node2</title>
<g id="a_edge61_Node000023_Node000002"><a xlink:title=" ">
<path fill="none" stroke="#63b8ff" d="M445.8,-125.55C461.82,-113.76 481.12,-99.57 493.23,-90.66"/>
<polygon fill="#63b8ff" stroke="#63b8ff" points="443.29,-123.05 437.31,-131.8 447.44,-128.69 443.29,-123.05"/>
</a>
</g>
</g>
<!-- Node23&#45;&gt;Node7 -->
<g id="edge63_Node000023_Node000007" class="edge">
<title>Node23&#45;&gt;Node7</title>
<g id="a_edge63_Node000023_Node000007"><a xlink:title=" ">
<path fill="none" stroke="#63b8ff" d="M478.28,-129.26C579.23,-101.22 778.92,-45.74 855.3,-24.53"/>
<polygon fill="#63b8ff" stroke="#63b8ff" points="477.23,-125.92 468.53,-131.96 479.1,-132.66 477.23,-125.92"/>
</a>
</g>
</g>
<!-- Node23&#45;&gt;Node8 -->
<g id="edge62_Node000023_Node000008" class="edge">
<title>Node23&#45;&gt;Node8</title>
<g id="a_edge62_Node000023_Node000008"><a xlink:title=" ">
<path fill="none" stroke="#63b8ff" d="M359.74,-129.13C316.85,-116.71 260.31,-100.33 226.41,-90.52"/>
<polygon fill="#63b8ff" stroke="#63b8ff" points="358.92,-132.54 369.5,-131.95 360.87,-125.81 358.92,-132.54"/>
</a>
</g>
</g>
<!-- Node24&#45;&gt;Node9 -->
<g id="edge71_Node000024_Node000009" class="edge">
<title>Node24&#45;&gt;Node9</title>
<g id="a_edge71_Node000024_Node000009"><a xlink:title=" ">
<path fill="none" stroke="#63b8ff" d="M1461.19,-276.84C1545.17,-273.72 1668.99,-263.1 1699,-228 1732.14,-189.25 1693.32,-124.82 1672.95,-96.32"/>
<polygon fill="#63b8ff" stroke="#63b8ff" points="1461.03,-273.34 1451.16,-277.18 1461.27,-280.34 1461.03,-273.34"/>
</a>
</g>
</g>
<!-- Node24&#45;&gt;Node12 -->
<g id="edge72_Node000024_Node000012" class="edge">
<title>Node24&#45;&gt;Node12</title>
<g id="a_edge72_Node000024_Node000012"><a xlink:title=" ">
<path fill="none" stroke="#63b8ff" d="M1350.28,-258.52C1319.87,-240.13 1271.42,-213.18 1226,-198 1152.95,-173.59 1065.53,-160.67 1005.11,-154.12"/>
<polygon fill="#63b8ff" stroke="#63b8ff" points="1348.76,-261.69 1359.11,-263.93 1352.41,-255.72 1348.76,-261.69"/>
</a>
</g>
</g>
<!-- Node24&#45;&gt;Node13 -->
<g id="edge73_Node000024_Node000013" class="edge">
<title>Node24&#45;&gt;Node13</title>
<g id="a_edge73_Node000024_Node000013"><a xlink:title=" ">
<path fill="none" stroke="#63b8ff" d="M1300.52,-276.82C1119.96,-273.58 694.03,-262.35 639,-228 615.08,-213.07 602.31,-180.85 596.66,-162.18"/>
<polygon fill="#63b8ff" stroke="#63b8ff" points="1300.69,-280.33 1310.75,-277 1300.82,-273.33 1300.69,-280.33"/>
</a>
</g>
</g>
<!-- Node24&#45;&gt;Node14 -->
<g id="edge74_Node000024_Node000014" class="edge">
<title>Node24&#45;&gt;Node14</title>
<g id="a_edge74_Node000024_Node000014"><a xlink:title=" ">
<path fill="none" stroke="#63b8ff" d="M1445.97,-260.72C1486.41,-246.83 1526.6,-225.17 1503,-198 1467.38,-157 1315.04,-148.69 1222.2,-147.54"/>
<polygon fill="#63b8ff" stroke="#63b8ff" points="1444.68,-257.46 1436.27,-263.91 1446.87,-264.11 1444.68,-257.46"/>
</a>
</g>
</g>
<!-- Node24&#45;&gt;Node21 -->
<g id="edge75_Node000024_Node000021" class="edge">
<title>Node24&#45;&gt;Node21</title>
<g id="a_edge75_Node000024_Node000021"><a xlink:title=" ">
<path fill="none" stroke="#63b8ff" d="M1443.54,-261.25C1482.15,-250.91 1531.12,-237.8 1567.67,-228.01"/>
<polygon fill="#63b8ff" stroke="#63b8ff" points="1442.2,-257.99 1433.45,-263.95 1444.01,-264.75 1442.2,-257.99"/>
</a>
</g>
</g>
<!-- Node24&#45;&gt;Node22 -->
<g id="edge78_Node000024_Node000022" class="edge">
<title>Node24&#45;&gt;Node22</title>
<g id="a_edge78_Node000024_Node000022"><a xlink:title=" ">
<path fill="none" stroke="#63b8ff" d="M1300.66,-271.35C1194.13,-262.36 1000.3,-245.45 835,-228 819.84,-226.4 803.6,-224.54 788.19,-222.72"/>
<polygon fill="#63b8ff" stroke="#63b8ff" points="1300.43,-274.84 1310.69,-272.19 1301.02,-267.86 1300.43,-274.84"/>
</a>
</g>
</g>
<!-- Node25 -->
<g id="Node000025" class="node">
<title>Node25</title>
<g id="a_Node000025"><a xlink:href="mixtureProposal_8hpp.html" target="_top" xlink:title="Mixture proposal distribution for importance sampling (non&#45;owning raw pointers).">
<polygon fill="white" stroke="#666666" points="1494,-228 1354,-228 1354,-198 1494,-198 1494,-228"/>
<text text-anchor="start" x="1362" y="-216" font-family="Helvetica,sans-Serif" font-size="10.00">src/montecarlo/proposals</text>
<text text-anchor="middle" x="1424" y="-205" font-family="Helvetica,sans-Serif" font-size="10.00">/mixtureProposal.hpp</text>
</a>
</g>
</g>
<!-- Node24&#45;&gt;Node25 -->
<g id="edge76_Node000024_Node000025" class="edge">
<title>Node24&#45;&gt;Node25</title>
<g id="a_edge76_Node000024_Node000025"><a xlink:title=" ">
<path fill="none" stroke="#63b8ff" d="M1396.29,-255.24C1402.36,-246.21 1409.14,-236.11 1414.48,-228.16"/>
<polygon fill="#63b8ff" stroke="#63b8ff" points="1393.21,-253.54 1390.54,-263.8 1399.03,-257.45 1393.21,-253.54"/>
</a>
</g>
</g>
<!-- Node25&#45;&gt;Node12 -->
<g id="edge77_Node000025_Node000012" class="edge">
<title>Node25&#45;&gt;Node12</title>
<g id="a_edge77_Node000025_Node000012"><a xlink:title=" ">
<path fill="none" stroke="#63b8ff" d="M1343.76,-201.56C1249.94,-189.36 1095.96,-169.33 1005.25,-157.53"/>
<polygon fill="#63b8ff" stroke="#63b8ff" points="1343.4,-205.05 1353.77,-202.86 1344.3,-198.1 1343.4,-205.05"/>
</a>
</g>
</g>
</g>
</svg>
