<?xml version="1.0" encoding="UTF-8" standalone="no"?>
<!DOCTYPE svg PUBLIC "-//W3C//DTD SVG 1.1//EN"
 "http://www.w3.org/Graphics/SVG/1.1/DTD/svg11.dtd">
<!-- Generated by graphviz version 2.43.0 (0)
 -->
<!-- Title: src/montecarlo/domains/hypercylinder.hpp Pages: 1 -->
<svg width="364pt" height="203pt"
 viewBox="0.00 0.00 364.00 203.00" xmlns="http://www.w3.org/2000/svg" xmlns:xlink="http://www.w3.org/1999/xlink">

<svg id="main" version="1.1" xmlns="http://www.w3.org/2000/svg" xmlns:xlink="http://www.w3.org/1999/xlink" xml:space="preserve" onload="init(evt)">
<style type="text/css"><![CDATA[
.node, .edge {opacity: 0.7;}
.node.selected, .edge.selected {opacity: 1;}
.edge:hover path { stroke: red; }
.edge:hover polygon { stroke: red; fill: red; }
]]></style>
<script type="application/ecmascript" xlink:href="svg.min.js"/>
<svg id="graph" class="graph">
<g id="graph0" class="graph" transform="scale(1 1) rotate(0) translate(4 199)">
<title>src/montecarlo/domains/hypercylinder.hpp</title>
<!-- Node1 -->
<g id="Node000001" class="node">
<title>Node1</title>
<g id="a_Node000001"><a xlink:title="N&#45;dimensional hypercylinder (infinite cylinder in discrete dimensions).">
<polygon fill="#999999" stroke="#666666" points="254.5,-195 120.5,-195 120.5,-165 254.5,-165 254.5,-195"/>
<text text-anchor="start" x="128.5" y="-183" font-family="Helvetica,sans-Serif" font-size="10.00">src/montecarlo/domains</text>
<text text-anchor="middle" x="187.5" y="-172" font-family="Helvetica,sans-Serif" font-size="10.00">/hypercylinder.hpp</text>
</a>
</g>
</g>
<!-- Node2 -->
<g id="Node000002" class="node">
<title>Node2</title>
<g id="a_Node000002"><a xlink:href="integration__domain_8hpp.html" target="_top" xlink:title="Abstract interface for N&#45;dimensional integration domains.">
<polygon fill="white" stroke="#666666" points="133,-129 0,-129 0,-110 133,-110 133,-129"/>
<text text-anchor="middle" x="66.5" y="-117" font-family="Helvetica,sans-Serif" font-size="10.00">integration_domain.hpp</text>
</a>
</g>
</g>
<!-- Node1&#45;&gt;Node2 -->
<g id="edge1_Node000001_Node000002" class="edge">
<title>Node1&#45;&gt;Node2</title>
<g id="a_edge1_Node000001_Node000002"><a xlink:title=" ">
<path fill="none" stroke="#63b8ff" d="M158.52,-164.99C138.78,-155.45 112.83,-142.9 93.53,-133.57"/>
<polygon fill="#63b8ff" stroke="#63b8ff" points="94.9,-130.34 84.37,-129.14 91.85,-136.64 94.9,-130.34"/>
</a>
</g>
</g>
<!-- Node4 -->
<g id="Node000004" class="node">
<title>Node4</title>
<g id="a_Node000004"><a xlink:href="geometry_8hpp.html" target="_top" xlink:title="Core geometric types for Monte Carlo integration.">
<polygon fill="white" stroke="#666666" points="186.5,-74 94.5,-74 94.5,-55 186.5,-55 186.5,-74"/>
<text text-anchor="middle" x="140.5" y="-62" font-family="Helvetica,sans-Serif" font-size="10.00">../geometry.hpp</text>
</a>
</g>
</g>
<!-- Node1&#45;&gt;Node4 -->
<g id="edge6_Node000001_Node000004" class="edge">
<title>Node1&#45;&gt;Node4</title>
<g id="a_edge6_Node000001_Node000004"><a xlink:title=" ">
<path fill="none" stroke="#63b8ff" d="M181.55,-164.63C173.02,-144.03 157.32,-106.12 148.01,-83.63"/>
<polygon fill="#63b8ff" stroke="#63b8ff" points="151.17,-82.13 144.11,-74.23 144.71,-84.81 151.17,-82.13"/>
</a>
</g>
</g>
<!-- Node6 -->
<g id="Node000006" class="node">
<title>Node6</title>
<g id="a_Node000006"><a xlink:title=" ">
<polygon fill="#e0e0e0" stroke="#999999" points="237,-129 190,-129 190,-110 237,-110 237,-129"/>
<text text-anchor="middle" x="213.5" y="-117" font-family="Helvetica,sans-Serif" font-size="10.00">cmath</text>
</a>
</g>
</g>
<!-- Node1&#45;&gt;Node6 -->
<g id="edge7_Node000001_Node000006" class="edge">
<title>Node1&#45;&gt;Node6</title>
<g id="a_edge7_Node000001_Node000006"><a xlink:title=" ">
<path fill="none" stroke="#63b8ff" d="M193.79,-164.84C197.3,-156.95 201.7,-147.05 205.45,-138.61"/>
<polygon fill="#63b8ff" stroke="#63b8ff" points="208.74,-139.83 209.6,-129.27 202.34,-136.98 208.74,-139.83"/>
</a>
</g>
</g>
<!-- Node7 -->
<g id="Node000007" class="node">
<title>Node7</title>
<g id="a_Node000007"><a xlink:href="hypercylinder_8tpp.html" target="_top" xlink:title=" ">
<polygon fill="white" stroke="#666666" points="356,-129 255,-129 255,-110 356,-110 356,-129"/>
<text text-anchor="middle" x="305.5" y="-117" font-family="Helvetica,sans-Serif" font-size="10.00">hypercylinder.tpp</text>
</a>
</g>
</g>
<!-- Node1&#45;&gt;Node7 -->
<g id="edge8_Node000001_Node000007" class="edge">
<title>Node1&#45;&gt;Node7</title>
<g id="a_edge8_Node000001_Node000007"><a xlink:title=" ">
<path fill="none" stroke="#63b8ff" d="M215.76,-164.99C234.92,-155.49 260.08,-143.02 278.89,-133.69"/>
<polygon fill="#63b8ff" stroke="#63b8ff" points="280.67,-136.72 288.07,-129.14 277.56,-130.45 280.67,-136.72"/>
</a>
</g>
</g>
<!-- Node3 -->
<g id="Node000003" class="node">
<title>Node3</title>
<g id="a_Node000003"><a xlink:title=" ">
<polygon fill="#e0e0e0" stroke="#999999" points="91.5,-19 49.5,-19 49.5,0 91.5,0 91.5,-19"/>
<text text-anchor="middle" x="70.5" y="-7" font-family="Helvetica,sans-Serif" font-size="10.00">array</text>
</a>
</g>
</g>
<!-- Node2&#45;&gt;Node3 -->
<g id="edge2_Node000002_Node000003" class="edge">
<title>Node2&#45;&gt;Node3</title>
<g id="a_edge2_Node000002_Node000003"><a xlink:title=" ">
<path fill="none" stroke="#63b8ff" d="M66.83,-109.66C67.48,-92.17 68.93,-52.8 69.8,-29.27"/>
<polygon fill="#63b8ff" stroke="#63b8ff" points="73.31,-29.28 70.18,-19.16 66.31,-29.02 73.31,-29.28"/>
</a>
</g>
</g>
<!-- Node2&#45;&gt;Node4 -->
<g id="edge3_Node000002_Node000004" class="edge">
<title>Node2&#45;&gt;Node4</title>
<g id="a_edge3_Node000002_Node000004"><a xlink:title=" ">
<path fill="none" stroke="#63b8ff" d="M78.39,-109.98C89.65,-101.92 106.79,-89.65 120.21,-80.03"/>
<polygon fill="#63b8ff" stroke="#63b8ff" points="122.3,-82.84 128.39,-74.17 118.23,-77.15 122.3,-82.84"/>
</a>
</g>
</g>
<!-- Node4&#45;&gt;Node3 -->
<g id="edge4_Node000004_Node000003" class="edge">
<title>Node4&#45;&gt;Node3</title>
<g id="a_edge4_Node000004_Node000003"><a xlink:title=" ">
<path fill="none" stroke="#63b8ff" d="M129.25,-54.98C118.7,-47 102.7,-34.88 90.06,-25.31"/>
<polygon fill="#63b8ff" stroke="#63b8ff" points="92.04,-22.42 81.95,-19.17 87.81,-28 92.04,-22.42"/>
</a>
</g>
</g>
<!-- Node5 -->
<g id="Node000005" class="node">
<title>Node5</title>
<g id="a_Node000005"><a xlink:title=" ">
<polygon fill="#e0e0e0" stroke="#999999" points="167,-19 114,-19 114,0 167,0 167,-19"/>
<text text-anchor="middle" x="140.5" y="-7" font-family="Helvetica,sans-Serif" font-size="10.00">cstddef</text>
</a>
</g>
</g>
<!-- Node4&#45;&gt;Node5 -->
<g id="edge5_Node000004_Node000005" class="edge">
<title>Node4&#45;&gt;Node5</title>
<g id="a_edge5_Node000004_Node000005"><a xlink:title=" ">
<path fill="none" stroke="#63b8ff" d="M140.5,-54.75C140.5,-47.8 140.5,-37.85 140.5,-29.13"/>
<polygon fill="#63b8ff" stroke="#63b8ff" points="144,-29.09 140.5,-19.09 137,-29.09 144,-29.09"/>
</a>
</g>
</g>
</g>
</svg>
</svg>

<style type='text/css'>
<![CDATA[
[data-mouse-over-selected='false'] { opacity: 0.7; }
[data-mouse-over-selected='true']  { opacity: 1.0; }
]]>
</style>
<script type="application/ecmascript"><![CDATA[
document.addEventListener('DOMContentLoaded', (event) => {
  highlightEdges();
  highlightAdjacentNodes();
});
]]></script>
</svg>
