<?xml version="1.0" encoding="UTF-8" standalone="no"?>
<!DOCTYPE svg PUBLIC "-//W3C//DTD SVG 1.1//EN"
 "http://www.w3.org/Graphics/SVG/1.1/DTD/svg11.dtd">
<!-- Generated by graphviz version 2.43.0 (0)
 -->
<!-- Title: src/montecarlo/domains/hypersphere.hpp Pages: 1 -->
<svg width="877pt" height="302pt"
 viewBox="0.00 0.00 876.50 302.00" xmlns="http://www.w3.org/2000/svg" xmlns:xlink="http://www.w3.org/1999/xlink">
<g id="graph0" class="graph" transform="scale(1 1) rotate(0) translate(4 298)">
<title>src/montecarlo/domains/hypersphere.hpp</title>
<!-- Node1 -->
<g id="Node000001" class="node">
<title>Node1</title>
<g id="a_Node000001"><a xlink:title="N&#45;dimensional hypersphere (solid ball) domain.">
<polygon fill="#999999" stroke="#666666" points="419.5,-294 285.5,-294 285.5,-264 419.5,-264 419.5,-294"/>
<text text-anchor="start" x="293.5" y="-282" font-family="Helvetica,sans-Serif" font-size="10.00">src/montecarlo/domains</text>
<text text-anchor="middle" x="352.5" y="-271" font-family="Helvetica,sans-Serif" font-size="10.00">/hypersphere.hpp</text>
</a>
</g>
</g>
<!-- Node2 -->
<g id="Node000002" class="node">
<title>Node2</title>
<g id="a_Node000002"><a xlink:href="benchmarks_8hpp.html" target="_top" xlink:title="Benchmarking framework for Monte Carlo integration algorithms.">
<polygon fill="white" stroke="#666666" points="556,-90.5 415,-90.5 415,-71.5 556,-71.5 556,-90.5"/>
<text text-anchor="middle" x="485.5" y="-78.5" font-family="Helvetica,sans-Serif" font-size="10.00">src/apps/benchmarks.hpp</text>
</a>
</g>
</g>
<!-- Node1&#45;&gt;Node2 -->
<g id="edge1_Node000001_Node000002" class="edge">
<title>Node1&#45;&gt;Node2</title>
<g id="a_edge1_Node000001_Node000002"><a xlink:title=" ">
<path fill="none" stroke="#63b8ff" d="M429.5,-264.35C486.95,-249.69 561.63,-220.15 598.5,-162 605.64,-150.74 605.77,-143.17 598.5,-132 584.1,-109.89 557.45,-97.48 533.65,-90.56"/>
<polygon fill="#63b8ff" stroke="#63b8ff" points="428.59,-260.97 419.71,-266.74 430.26,-267.76 428.59,-260.97"/>
</a>
</g>
</g>
<!-- Node8 -->
<g id="Node000008" class="node">
<title>Node8</title>
<g id="a_Node000008"><a xlink:href="drone__optimization_8cpp.html" target="_top" xlink:title="Drone arm center of mass optimization using PSO with high&#45;precision verification.">
<polygon fill="white" stroke="#666666" points="175,-90.5 0,-90.5 0,-71.5 175,-71.5 175,-90.5"/>
<text text-anchor="middle" x="87.5" y="-78.5" font-family="Helvetica,sans-Serif" font-size="10.00">src/apps/drone_optimization.cpp</text>
</a>
</g>
</g>
<!-- Node1&#45;&gt;Node8 -->
<g id="edge7_Node000001_Node000008" class="edge">
<title>Node1&#45;&gt;Node8</title>
<g id="a_edge7_Node000001_Node000008"><a xlink:title=" ">
<path fill="none" stroke="#63b8ff" d="M277.16,-261.17C221.92,-244.94 149.37,-214.83 106.5,-162 89.23,-140.72 87.18,-106.36 87.23,-90.51"/>
<polygon fill="#63b8ff" stroke="#63b8ff" points="276.33,-264.57 286.91,-263.94 278.25,-257.84 276.33,-264.57"/>
</a>
</g>
</g>
<!-- Node9 -->
<g id="Node000009" class="node">
<title>Node9</title>
<g id="a_Node000009"><a xlink:href="integrator_8hpp.html" target="_top" xlink:title="Abstract base class for numerical integration in N&#45;dimensional spaces.">
<polygon fill="white" stroke="#666666" points="425.5,-228 279.5,-228 279.5,-198 425.5,-198 425.5,-228"/>
<text text-anchor="start" x="287.5" y="-216" font-family="Helvetica,sans-Serif" font-size="10.00">src/montecarlo/integrators</text>
<text text-anchor="middle" x="352.5" y="-205" font-family="Helvetica,sans-Serif" font-size="10.00">/integrator.hpp</text>
</a>
</g>
</g>
<!-- Node1&#45;&gt;Node9 -->
<g id="edge8_Node000001_Node000009" class="edge">
<title>Node1&#45;&gt;Node9</title>
<g id="a_edge8_Node000001_Node000009"><a xlink:title=" ">
<path fill="none" stroke="#63b8ff" d="M352.5,-253.54C352.5,-244.96 352.5,-235.61 352.5,-228.16"/>
<polygon fill="#63b8ff" stroke="#63b8ff" points="349,-253.8 352.5,-263.8 356,-253.8 349,-253.8"/>
</a>
</g>
</g>
<!-- Node3 -->
<g id="Node000003" class="node">
<title>Node3</title>
<g id="a_Node000003"><a xlink:href="benchmarks_8cpp.html" target="_top" xlink:title="Implementation of shared benchmark utilities and global configuration.">
<polygon fill="white" stroke="#666666" points="692.5,-24.5 552.5,-24.5 552.5,-5.5 692.5,-5.5 692.5,-24.5"/>
<text text-anchor="middle" x="622.5" y="-12.5" font-family="Helvetica,sans-Serif" font-size="10.00">src/apps/benchmarks.cpp</text>
</a>
</g>
</g>
<!-- Node2&#45;&gt;Node3 -->
<g id="edge2_Node000002_Node000003" class="edge">
<title>Node2&#45;&gt;Node3</title>
<g id="a_edge2_Node000002_Node000003"><a xlink:title=" ">
<path fill="none" stroke="#63b8ff" d="M513.27,-67.03C540.27,-54.42 580.52,-35.61 603.88,-24.7"/>
<polygon fill="#63b8ff" stroke="#63b8ff" points="511.56,-63.97 503.98,-71.37 514.52,-70.31 511.56,-63.97"/>
</a>
</g>
</g>
<!-- Node4 -->
<g id="Node000004" class="node">
<title>Node4</title>
<g id="a_Node000004"><a xlink:href="ga__benchmarks_8cpp.html" target="_top" xlink:title="Genetic Algorithm benchmark suite with visualization.">
<polygon fill="white" stroke="#666666" points="394.5,-30 274.5,-30 274.5,0 394.5,0 394.5,-30"/>
<text text-anchor="start" x="282.5" y="-18" font-family="Helvetica,sans-Serif" font-size="10.00">src/apps/benchmarks</text>
<text text-anchor="middle" x="334.5" y="-7" font-family="Helvetica,sans-Serif" font-size="10.00">/ga_benchmarks.cpp</text>
</a>
</g>
</g>
<!-- Node2&#45;&gt;Node4 -->
<g id="edge3_Node000002_Node000004" class="edge">
<title>Node2&#45;&gt;Node4</title>
<g id="a_edge3_Node000002_Node000004"><a xlink:title=" ">
<path fill="none" stroke="#63b8ff" d="M455.68,-67.36C430.37,-56.63 394.07,-41.25 367.8,-30.12"/>
<polygon fill="#63b8ff" stroke="#63b8ff" points="454.56,-70.69 465.14,-71.37 457.29,-64.24 454.56,-70.69"/>
</a>
</g>
</g>
<!-- Node5 -->
<g id="Node000005" class="node">
<title>Node5</title>
<g id="a_Node000005"><a xlink:href="integration__benchmarks_8cpp.html" target="_top" xlink:title="Benchmark suite for Monte Carlo integration algorithms.">
<polygon fill="white" stroke="#666666" points="868.5,-30 710.5,-30 710.5,0 868.5,0 868.5,-30"/>
<text text-anchor="start" x="718.5" y="-18" font-family="Helvetica,sans-Serif" font-size="10.00">src/apps/benchmarks</text>
<text text-anchor="middle" x="789.5" y="-7" font-family="Helvetica,sans-Serif" font-size="10.00">/integration_benchmarks.cpp</text>
</a>
</g>
</g>
<!-- Node2&#45;&gt;Node5 -->
<g id="edge4_Node000002_Node000005" class="edge">
<title>Node2&#45;&gt;Node5</title>
<g id="a_edge4_Node000002_Node000005"><a xlink:title=" ">
<path fill="none" stroke="#63b8ff" d="M536.02,-69.36C587.19,-58.59 666.6,-41.87 722.88,-30.02"/>
<polygon fill="#63b8ff" stroke="#63b8ff" points="535.25,-65.95 526.18,-71.44 536.69,-72.8 535.25,-65.95"/>
</a>
</g>
</g>
<!-- Node6 -->
<g id="Node000006" class="node">
<title>Node6</title>
<g id="a_Node000006"><a xlink:href="pso__benchmarks_8cpp.html" target="_top" xlink:title="Particle Swarm Optimization benchmark suite.">
<polygon fill="white" stroke="#666666" points="534.5,-30 412.5,-30 412.5,0 534.5,0 534.5,-30"/>
<text text-anchor="start" x="420.5" y="-18" font-family="Helvetica,sans-Serif" font-size="10.00">src/apps/benchmarks</text>
<text text-anchor="middle" x="473.5" y="-7" font-family="Helvetica,sans-Serif" font-size="10.00">/pso_benchmarks.cpp</text>
</a>
</g>
</g>
<!-- Node2&#45;&gt;Node6 -->
<g id="edge5_Node000002_Node000006" class="edge">
<title>Node2&#45;&gt;Node6</title>
<g id="a_edge5_Node000002_Node000006"><a xlink:title=" ">
<path fill="none" stroke="#63b8ff" d="M482,-61.35C480.15,-51.47 477.91,-39.51 476.19,-30.36"/>
<polygon fill="#63b8ff" stroke="#63b8ff" points="478.6,-62.18 483.88,-71.37 485.48,-60.89 478.6,-62.18"/>
</a>
</g>
</g>
<!-- Node7 -->
<g id="Node000007" class="node">
<title>Node7</title>
<g id="a_Node000007"><a xlink:href="main_8cpp.html" target="_top" xlink:title="Command&#45;line interface for Monte Carlo integration and benchmarking.">
<polygon fill="white" stroke="#666666" points="256,-24.5 151,-24.5 151,-5.5 256,-5.5 256,-24.5"/>
<text text-anchor="middle" x="203.5" y="-12.5" font-family="Helvetica,sans-Serif" font-size="10.00">src/apps/main.cpp</text>
</a>
</g>
</g>
<!-- Node2&#45;&gt;Node7 -->
<g id="edge6_Node000002_Node000007" class="edge">
<title>Node2&#45;&gt;Node7</title>
<g id="a_edge6_Node000002_Node000007"><a xlink:title=" ">
<path fill="none" stroke="#63b8ff" d="M437.82,-69.18C382.31,-56.58 291.76,-36.03 241.02,-24.51"/>
<polygon fill="#63b8ff" stroke="#63b8ff" points="437.23,-72.63 447.76,-71.44 438.78,-65.81 437.23,-72.63"/>
</a>
</g>
</g>
<!-- Node10 -->
<g id="Node000010" class="node">
<title>Node10</title>
<g id="a_Node000010"><a xlink:href="ISintegrator_8hpp.html" target="_top" xlink:title="Importance sampling Monte Carlo integration engine.">
<polygon fill="white" stroke="#666666" points="589.5,-162 443.5,-162 443.5,-132 589.5,-132 589.5,-162"/>
<text text-anchor="start" x="451.5" y="-150" font-family="Helvetica,sans-Serif" font-size="10.00">src/montecarlo/integrators</text>
<text text-anchor="middle" x="516.5" y="-139" font-family="Helvetica,sans-Serif" font-size="10.00">/ISintegrator.hpp</text>
</a>
</g>
</g>
<!-- Node9&#45;&gt;Node10 -->
<g id="edge9_Node000009_Node000010" class="edge">
<title>Node9&#45;&gt;Node10</title>
<g id="a_edge9_Node000009_Node000010"><a xlink:title=" ">
<path fill="none" stroke="#63b8ff" d="M398.14,-194.19C424.19,-184.02 456.37,-171.47 480.59,-162.01"/>
<polygon fill="#63b8ff" stroke="#63b8ff" points="396.53,-191.06 388.49,-197.95 399.08,-197.58 396.53,-191.06"/>
</a>
</g>
</g>
<!-- Node11 -->
<g id="Node000011" class="node">
<title>Node11</title>
<g id="a_Node000011"><a xlink:href="MCintegrator_8hpp.html" target="_top" xlink:title="Classic Monte Carlo integration engine.">
<polygon fill="white" stroke="#666666" points="261.5,-162 115.5,-162 115.5,-132 261.5,-132 261.5,-162"/>
<text text-anchor="start" x="123.5" y="-150" font-family="Helvetica,sans-Serif" font-size="10.00">src/montecarlo/integrators</text>
<text text-anchor="middle" x="188.5" y="-139" font-family="Helvetica,sans-Serif" font-size="10.00">/MCintegrator.hpp</text>
</a>
</g>
</g>
<!-- Node9&#45;&gt;Node11 -->
<g id="edge12_Node000009_Node000011" class="edge">
<title>Node9&#45;&gt;Node11</title>
<g id="a_edge12_Node000009_Node000011"><a xlink:title=" ">
<path fill="none" stroke="#63b8ff" d="M306.86,-194.19C280.81,-184.02 248.63,-171.47 224.41,-162.01"/>
<polygon fill="#63b8ff" stroke="#63b8ff" points="305.92,-197.58 316.51,-197.95 308.47,-191.06 305.92,-197.58"/>
</a>
</g>
</g>
<!-- Node12 -->
<g id="Node000012" class="node">
<title>Node12</title>
<g id="a_Node000012"><a xlink:href="MHintegrator_8hpp.html" target="_top" xlink:title="Metropolis&#45;Hastings MCMC Monte Carlo integration engine.">
<polygon fill="white" stroke="#666666" points="425.5,-162 279.5,-162 279.5,-132 425.5,-132 425.5,-162"/>
<text text-anchor="start" x="287.5" y="-150" font-family="Helvetica,sans-Serif" font-size="10.00">src/montecarlo/integrators</text>
<text text-anchor="middle" x="352.5" y="-139" font-family="Helvetica,sans-Serif" font-size="10.00">/MHintegrator.hpp</text>
</a>
</g>
</g>
<!-- Node9&#45;&gt;Node12 -->
<g id="edge16_Node000009_Node000012" class="edge">
<title>Node9&#45;&gt;Node12</title>
<g id="a_edge16_Node000009_Node000012"><a xlink:title=" ">
<path fill="none" stroke="#63b8ff" d="M352.5,-187.54C352.5,-178.96 352.5,-169.61 352.5,-162.16"/>
<polygon fill="#63b8ff" stroke="#63b8ff" points="349,-187.8 352.5,-197.8 356,-187.8 349,-187.8"/>
</a>
</g>
</g>
<!-- Node10&#45;&gt;Node2 -->
<g id="edge10_Node000010_Node000002" class="edge">
<title>Node10&#45;&gt;Node2</title>
<g id="a_edge10_Node000010_Node000002"><a xlink:title=" ">
<path fill="none" stroke="#63b8ff" d="M505.17,-122.61C499.82,-111.56 493.75,-99.03 489.78,-90.84"/>
<polygon fill="#63b8ff" stroke="#63b8ff" points="502.11,-124.32 509.62,-131.8 508.41,-121.27 502.11,-124.32"/>
</a>
</g>
</g>
<!-- Node10&#45;&gt;Node5 -->
<g id="edge11_Node000010_Node000005" class="edge">
<title>Node10&#45;&gt;Node5</title>
<g id="a_edge11_Node000010_Node000005"><a xlink:title=" ">
<path fill="none" stroke="#63b8ff" d="M555.06,-127.64C610.1,-101.43 710.01,-53.85 759.73,-30.17"/>
<polygon fill="#63b8ff" stroke="#63b8ff" points="553.5,-124.5 545.98,-131.96 556.51,-130.82 553.5,-124.5"/>
</a>
</g>
</g>
<!-- Node11&#45;&gt;Node2 -->
<g id="edge13_Node000011_Node000002" class="edge">
<title>Node11&#45;&gt;Node2</title>
<g id="a_edge13_Node000011_Node000002"><a xlink:title=" ">
<path fill="none" stroke="#63b8ff" d="M263.54,-129.83C321.55,-117.33 399.56,-100.52 445.97,-90.52"/>
<polygon fill="#63b8ff" stroke="#63b8ff" points="262.72,-126.43 253.68,-131.95 264.19,-133.27 262.72,-126.43"/>
</a>
</g>
</g>
<!-- Node11&#45;&gt;Node7 -->
<g id="edge15_Node000011_Node000007" class="edge">
<title>Node11&#45;&gt;Node7</title>
<g id="a_edge15_Node000011_Node000007"><a xlink:title=" ">
<path fill="none" stroke="#63b8ff" d="M191.32,-121.57C194.71,-92.17 200.23,-44.31 202.49,-24.75"/>
<polygon fill="#63b8ff" stroke="#63b8ff" points="187.8,-121.5 190.13,-131.84 194.76,-122.31 187.8,-121.5"/>
</a>
</g>
</g>
<!-- Node11&#45;&gt;Node8 -->
<g id="edge14_Node000011_Node000008" class="edge">
<title>Node11&#45;&gt;Node8</title>
<g id="a_edge14_Node000011_Node000008"><a xlink:title=" ">
<path fill="none" stroke="#63b8ff" d="M157.51,-126.36C138.67,-114.42 115.55,-99.77 101.16,-90.66"/>
<polygon fill="#63b8ff" stroke="#63b8ff" points="155.76,-129.4 166.08,-131.8 159.51,-123.49 155.76,-129.4"/>
</a>
</g>
</g>
<!-- Node12&#45;&gt;Node2 -->
<g id="edge17_Node000012_Node000002" class="edge">
<title>Node12&#45;&gt;Node2</title>
<g id="a_edge17_Node000012_Node000002"><a xlink:title=" ">
<path fill="none" stroke="#63b8ff" d="M391.03,-127.46C416.36,-115.27 448.3,-99.9 467.8,-90.52"/>
<polygon fill="#63b8ff" stroke="#63b8ff" points="389.18,-124.46 381.69,-131.95 392.22,-130.77 389.18,-124.46"/>
</a>
</g>
</g>
<!-- Node13 -->
<g id="Node000013" class="node">
<title>Node13</title>
<g id="a_Node000013"><a xlink:href="wind__farm__simulator_8cpp.html" target="_top" xlink:title="Wind Farm Layout Optimization using Hybrid MH&#45;Monte Carlo + PSO/GA.">
<polygon fill="white" stroke="#666666" points="396.5,-96 284.5,-96 284.5,-66 396.5,-66 396.5,-96"/>
<text text-anchor="start" x="292.5" y="-84" font-family="Helvetica,sans-Serif" font-size="10.00">src/apps/wind_farm</text>
<text text-anchor="middle" x="340.5" y="-73" font-family="Helvetica,sans-Serif" font-size="10.00">_simulator.cpp</text>
</a>
</g>
</g>
<!-- Node12&#45;&gt;Node13 -->
<g id="edge18_Node000012_Node000013" class="edge">
<title>Node12&#45;&gt;Node13</title>
<g id="a_edge18_Node000012_Node000013"><a xlink:title=" ">
<path fill="none" stroke="#63b8ff" d="M347.97,-121.83C346.34,-113.17 344.57,-103.7 343.16,-96.16"/>
<polygon fill="#63b8ff" stroke="#63b8ff" points="344.55,-122.61 349.84,-131.8 351.43,-121.32 344.55,-122.61"/>
</a>
</g>
</g>
</g>
</svg>
