<?xml version="1.0" encoding="UTF-8" standalone="no"?>
<!DOCTYPE svg PUBLIC "-//W3C//DTD SVG 1.1//EN"
 "http://www.w3.org/Graphics/SVG/1.1/DTD/svg11.dtd">
<!-- Generated by graphviz version 2.43.0 (0)
 -->
<!-- Title: src/montecarlo/domains/hyperrectangle.hpp Pages: 1 -->
<svg width="889pt" height="302pt"
 viewBox="0.00 0.00 889.00 302.00" xmlns="http://www.w3.org/2000/svg" xmlns:xlink="http://www.w3.org/1999/xlink">
<g id="graph0" class="graph" transform="scale(1 1) rotate(0) translate(4 298)">
<title>src/montecarlo/domains/hyperrectangle.hpp</title>
<!-- Node1 -->
<g id="Node000001" class="node">
<title>Node1</title>
<g id="a_Node000001"><a xlink:title="Axis&#45;aligned hyperrectangular domain in N dimensions.">
<polygon fill="#999999" stroke="#666666" points="791,-294 657,-294 657,-264 791,-264 791,-294"/>
<text text-anchor="start" x="665" y="-282" font-family="Helvetica,sans-Serif" font-size="10.00">src/montecarlo/domains</text>
<text text-anchor="middle" x="724" y="-271" font-family="Helvetica,sans-Serif" font-size="10.00">/hyperrectangle.hpp</text>
</a>
</g>
</g>
<!-- Node2 -->
<g id="Node000002" class="node">
<title>Node2</title>
<g id="a_Node000002"><a xlink:href="benchmarks_8hpp.html" target="_top" xlink:title="Benchmarking framework for Monte Carlo integration algorithms.">
<polygon fill="white" stroke="#666666" points="464.5,-90.5 323.5,-90.5 323.5,-71.5 464.5,-71.5 464.5,-90.5"/>
<text text-anchor="middle" x="394" y="-78.5" font-family="Helvetica,sans-Serif" font-size="10.00">src/apps/benchmarks.hpp</text>
</a>
</g>
</g>
<!-- Node1&#45;&gt;Node2 -->
<g id="edge1_Node000001_Node000002" class="edge">
<title>Node1&#45;&gt;Node2</title>
<g id="a_edge1_Node000001_Node000002"><a xlink:title=" ">
<path fill="none" stroke="#63b8ff" d="M646.48,-269.22C531.3,-254.38 323.8,-220.14 280,-162 254.39,-128.01 317.88,-102.94 360.06,-90.6"/>
<polygon fill="#63b8ff" stroke="#63b8ff" points="646.29,-272.72 656.65,-270.51 647.17,-265.78 646.29,-272.72"/>
</a>
</g>
</g>
<!-- Node8 -->
<g id="Node000008" class="node">
<title>Node8</title>
<g id="a_Node000008"><a xlink:href="drone__optimization_8cpp.html" target="_top" xlink:title="Drone arm center of mass optimization using PSO with high&#45;precision verification.">
<polygon fill="white" stroke="#666666" points="744.5,-90.5 569.5,-90.5 569.5,-71.5 744.5,-71.5 744.5,-90.5"/>
<text text-anchor="middle" x="657" y="-78.5" font-family="Helvetica,sans-Serif" font-size="10.00">src/apps/drone_optimization.cpp</text>
</a>
</g>
</g>
<!-- Node1&#45;&gt;Node8 -->
<g id="edge7_Node000001_Node000008" class="edge">
<title>Node1&#45;&gt;Node8</title>
<g id="a_edge7_Node000001_Node000008"><a xlink:title=" ">
<path fill="none" stroke="#63b8ff" d="M742.81,-255.47C765.53,-225.34 797.7,-171.2 772,-132 757.5,-109.88 730.86,-97.49 706.87,-90.58"/>
<polygon fill="#63b8ff" stroke="#63b8ff" points="739.82,-253.61 736.42,-263.65 745.33,-257.92 739.82,-253.61"/>
</a>
</g>
</g>
<!-- Node9 -->
<g id="Node000009" class="node">
<title>Node9</title>
<g id="a_Node000009"><a xlink:href="wind__farm__simulator_8cpp.html" target="_top" xlink:title="Wind Farm Layout Optimization using Hybrid MH&#45;Monte Carlo + PSO/GA.">
<polygon fill="white" stroke="#666666" points="881,-96 769,-96 769,-66 881,-66 881,-96"/>
<text text-anchor="start" x="777" y="-84" font-family="Helvetica,sans-Serif" font-size="10.00">src/apps/wind_farm</text>
<text text-anchor="middle" x="825" y="-73" font-family="Helvetica,sans-Serif" font-size="10.00">_simulator.cpp</text>
</a>
</g>
</g>
<!-- Node1&#45;&gt;Node9 -->
<g id="edge8_Node000001_Node000009" class="edge">
<title>Node1&#45;&gt;Node9</title>
<g id="a_edge8_Node000001_Node000009"><a xlink:title=" ">
<path fill="none" stroke="#63b8ff" d="M754.6,-257.73C764.9,-249.57 775.64,-239.39 783,-228 810.64,-185.25 820.47,-123.98 823.64,-96.41"/>
<polygon fill="#63b8ff" stroke="#63b8ff" points="752.39,-255.01 746.5,-263.82 756.6,-260.61 752.39,-255.01"/>
</a>
</g>
</g>
<!-- Node10 -->
<g id="Node000010" class="node">
<title>Node10</title>
<g id="a_Node000010"><a xlink:href="integrator_8hpp.html" target="_top" xlink:title="Abstract base class for numerical integration in N&#45;dimensional spaces.">
<polygon fill="white" stroke="#666666" points="665,-228 519,-228 519,-198 665,-198 665,-228"/>
<text text-anchor="start" x="527" y="-216" font-family="Helvetica,sans-Serif" font-size="10.00">src/montecarlo/integrators</text>
<text text-anchor="middle" x="592" y="-205" font-family="Helvetica,sans-Serif" font-size="10.00">/integrator.hpp</text>
</a>
</g>
</g>
<!-- Node1&#45;&gt;Node10 -->
<g id="edge9_Node000001_Node000010" class="edge">
<title>Node1&#45;&gt;Node10</title>
<g id="a_edge9_Node000001_Node000010"><a xlink:title=" ">
<path fill="none" stroke="#63b8ff" d="M685.87,-259.51C665.16,-249.47 639.97,-237.26 620.9,-228.01"/>
<polygon fill="#63b8ff" stroke="#63b8ff" points="684.51,-262.74 695.03,-263.95 687.56,-256.44 684.51,-262.74"/>
</a>
</g>
</g>
<!-- Node3 -->
<g id="Node000003" class="node">
<title>Node3</title>
<g id="a_Node000003"><a xlink:href="benchmarks_8cpp.html" target="_top" xlink:title="Implementation of shared benchmark utilities and global configuration.">
<polygon fill="white" stroke="#666666" points="316,-24.5 176,-24.5 176,-5.5 316,-5.5 316,-24.5"/>
<text text-anchor="middle" x="246" y="-12.5" font-family="Helvetica,sans-Serif" font-size="10.00">src/apps/benchmarks.cpp</text>
</a>
</g>
</g>
<!-- Node2&#45;&gt;Node3 -->
<g id="edge2_Node000002_Node000003" class="edge">
<title>Node2&#45;&gt;Node3</title>
<g id="a_edge2_Node000002_Node000003"><a xlink:title=" ">
<path fill="none" stroke="#63b8ff" d="M364.77,-67.36C335.6,-54.75 291.57,-35.71 266.12,-24.7"/>
<polygon fill="#63b8ff" stroke="#63b8ff" points="363.47,-70.61 374.04,-71.37 366.25,-64.19 363.47,-70.61"/>
</a>
</g>
</g>
<!-- Node4 -->
<g id="Node000004" class="node">
<title>Node4</title>
<g id="a_Node000004"><a xlink:href="ga__benchmarks_8cpp.html" target="_top" xlink:title="Genetic Algorithm benchmark suite with visualization.">
<polygon fill="white" stroke="#666666" points="454,-30 334,-30 334,0 454,0 454,-30"/>
<text text-anchor="start" x="342" y="-18" font-family="Helvetica,sans-Serif" font-size="10.00">src/apps/benchmarks</text>
<text text-anchor="middle" x="394" y="-7" font-family="Helvetica,sans-Serif" font-size="10.00">/ga_benchmarks.cpp</text>
</a>
</g>
</g>
<!-- Node2&#45;&gt;Node4 -->
<g id="edge3_Node000002_Node000004" class="edge">
<title>Node2&#45;&gt;Node4</title>
<g id="a_edge3_Node000002_Node000004"><a xlink:title=" ">
<path fill="none" stroke="#63b8ff" d="M394,-61.35C394,-51.47 394,-39.51 394,-30.36"/>
<polygon fill="#63b8ff" stroke="#63b8ff" points="390.5,-61.37 394,-71.37 397.5,-61.37 390.5,-61.37"/>
</a>
</g>
</g>
<!-- Node5 -->
<g id="Node000005" class="node">
<title>Node5</title>
<g id="a_Node000005"><a xlink:href="integration__benchmarks_8cpp.html" target="_top" xlink:title="Benchmark suite for Monte Carlo integration algorithms.">
<polygon fill="white" stroke="#666666" points="158,-30 0,-30 0,0 158,0 158,-30"/>
<text text-anchor="start" x="8" y="-18" font-family="Helvetica,sans-Serif" font-size="10.00">src/apps/benchmarks</text>
<text text-anchor="middle" x="79" y="-7" font-family="Helvetica,sans-Serif" font-size="10.00">/integration_benchmarks.cpp</text>
</a>
</g>
</g>
<!-- Node2&#45;&gt;Node5 -->
<g id="edge4_Node000002_Node000005" class="edge">
<title>Node2&#45;&gt;Node5</title>
<g id="a_edge4_Node000002_Node000005"><a xlink:title=" ">
<path fill="none" stroke="#63b8ff" d="M341.98,-69.43C288.97,-58.66 206.47,-41.9 148.03,-30.02"/>
<polygon fill="#63b8ff" stroke="#63b8ff" points="341.35,-72.87 351.84,-71.44 342.74,-66.01 341.35,-72.87"/>
</a>
</g>
</g>
<!-- Node6 -->
<g id="Node000006" class="node">
<title>Node6</title>
<g id="a_Node000006"><a xlink:href="pso__benchmarks_8cpp.html" target="_top" xlink:title="Particle Swarm Optimization benchmark suite.">
<polygon fill="white" stroke="#666666" points="594,-30 472,-30 472,0 594,0 594,-30"/>
<text text-anchor="start" x="480" y="-18" font-family="Helvetica,sans-Serif" font-size="10.00">src/apps/benchmarks</text>
<text text-anchor="middle" x="533" y="-7" font-family="Helvetica,sans-Serif" font-size="10.00">/pso_benchmarks.cpp</text>
</a>
</g>
</g>
<!-- Node2&#45;&gt;Node6 -->
<g id="edge5_Node000002_Node000006" class="edge">
<title>Node2&#45;&gt;Node6</title>
<g id="a_edge5_Node000002_Node000006"><a xlink:title=" ">
<path fill="none" stroke="#63b8ff" d="M422.07,-67.08C445.34,-56.36 478.38,-41.15 502.34,-30.12"/>
<polygon fill="#63b8ff" stroke="#63b8ff" points="420.37,-64.01 412.75,-71.37 423.29,-70.37 420.37,-64.01"/>
</a>
</g>
</g>
<!-- Node7 -->
<g id="Node000007" class="node">
<title>Node7</title>
<g id="a_Node000007"><a xlink:href="main_8cpp.html" target="_top" xlink:title="Command&#45;line interface for Monte Carlo integration and benchmarking.">
<polygon fill="white" stroke="#666666" points="717.5,-24.5 612.5,-24.5 612.5,-5.5 717.5,-5.5 717.5,-24.5"/>
<text text-anchor="middle" x="665" y="-12.5" font-family="Helvetica,sans-Serif" font-size="10.00">src/apps/main.cpp</text>
</a>
</g>
</g>
<!-- Node2&#45;&gt;Node7 -->
<g id="edge6_Node000002_Node000007" class="edge">
<title>Node2&#45;&gt;Node7</title>
<g id="a_edge6_Node000002_Node000007"><a xlink:title=" ">
<path fill="none" stroke="#63b8ff" d="M440.15,-69.1C493.53,-56.49 580.28,-36.01 628.95,-24.51"/>
<polygon fill="#63b8ff" stroke="#63b8ff" points="439.19,-65.73 430.27,-71.44 440.8,-72.54 439.19,-65.73"/>
</a>
</g>
</g>
<!-- Node11 -->
<g id="Node000011" class="node">
<title>Node11</title>
<g id="a_Node000011"><a xlink:href="ISintegrator_8hpp.html" target="_top" xlink:title="Importance sampling Monte Carlo integration engine.">
<polygon fill="white" stroke="#666666" points="435,-162 289,-162 289,-132 435,-132 435,-162"/>
<text text-anchor="start" x="297" y="-150" font-family="Helvetica,sans-Serif" font-size="10.00">src/montecarlo/integrators</text>
<text text-anchor="middle" x="362" y="-139" font-family="Helvetica,sans-Serif" font-size="10.00">/ISintegrator.hpp</text>
</a>
</g>
</g>
<!-- Node10&#45;&gt;Node11 -->
<g id="edge10_Node000010_Node000011" class="edge">
<title>Node10&#45;&gt;Node11</title>
<g id="a_edge10_Node000010_Node000011"><a xlink:title=" ">
<path fill="none" stroke="#63b8ff" d="M531.82,-195.25C494.66,-184.91 447.53,-171.8 412.36,-162.01"/>
<polygon fill="#63b8ff" stroke="#63b8ff" points="530.95,-198.65 541.53,-197.95 532.83,-191.9 530.95,-198.65"/>
</a>
</g>
</g>
<!-- Node12 -->
<g id="Node000012" class="node">
<title>Node12</title>
<g id="a_Node000012"><a xlink:href="MCintegrator_8hpp.html" target="_top" xlink:title="Classic Monte Carlo integration engine.">
<polygon fill="white" stroke="#666666" points="599,-162 453,-162 453,-132 599,-132 599,-162"/>
<text text-anchor="start" x="461" y="-150" font-family="Helvetica,sans-Serif" font-size="10.00">src/montecarlo/integrators</text>
<text text-anchor="middle" x="526" y="-139" font-family="Helvetica,sans-Serif" font-size="10.00">/MCintegrator.hpp</text>
</a>
</g>
</g>
<!-- Node10&#45;&gt;Node12 -->
<g id="edge13_Node000010_Node000012" class="edge">
<title>Node10&#45;&gt;Node12</title>
<g id="a_edge13_Node000010_Node000012"><a xlink:title=" ">
<path fill="none" stroke="#63b8ff" d="M569.98,-190.65C560.31,-181.27 549.23,-170.53 540.61,-162.16"/>
<polygon fill="#63b8ff" stroke="#63b8ff" points="567.74,-193.35 577.35,-197.8 572.61,-188.32 567.74,-193.35"/>
</a>
</g>
</g>
<!-- Node13 -->
<g id="Node000013" class="node">
<title>Node13</title>
<g id="a_Node000013"><a xlink:href="MHintegrator_8hpp.html" target="_top" xlink:title="Metropolis&#45;Hastings MCMC Monte Carlo integration engine.">
<polygon fill="white" stroke="#666666" points="763,-162 617,-162 617,-132 763,-132 763,-162"/>
<text text-anchor="start" x="625" y="-150" font-family="Helvetica,sans-Serif" font-size="10.00">src/montecarlo/integrators</text>
<text text-anchor="middle" x="690" y="-139" font-family="Helvetica,sans-Serif" font-size="10.00">/MHintegrator.hpp</text>
</a>
</g>
</g>
<!-- Node10&#45;&gt;Node13 -->
<g id="edge17_Node000010_Node000013" class="edge">
<title>Node10&#45;&gt;Node13</title>
<g id="a_edge17_Node000010_Node000013"><a xlink:title=" ">
<path fill="none" stroke="#63b8ff" d="M622.16,-192.3C637.08,-182.56 654.75,-171.02 668.31,-162.16"/>
<polygon fill="#63b8ff" stroke="#63b8ff" points="620.21,-189.4 613.75,-197.8 624.04,-195.26 620.21,-189.4"/>
</a>
</g>
</g>
<!-- Node11&#45;&gt;Node2 -->
<g id="edge11_Node000011_Node000002" class="edge">
<title>Node11&#45;&gt;Node2</title>
<g id="a_edge11_Node000011_Node000002"><a xlink:title=" ">
<path fill="none" stroke="#63b8ff" d="M373.69,-122.61C379.22,-111.56 385.49,-99.03 389.58,-90.84"/>
<polygon fill="#63b8ff" stroke="#63b8ff" points="370.44,-121.29 369.1,-131.8 376.7,-124.42 370.44,-121.29"/>
</a>
</g>
</g>
<!-- Node11&#45;&gt;Node5 -->
<g id="edge12_Node000011_Node000005" class="edge">
<title>Node11&#45;&gt;Node5</title>
<g id="a_edge12_Node000011_Node000005"><a xlink:title=" ">
<path fill="none" stroke="#63b8ff" d="M322.03,-127.64C264.98,-101.43 161.4,-53.85 109.86,-30.17"/>
<polygon fill="#63b8ff" stroke="#63b8ff" points="320.9,-130.97 331.45,-131.96 323.82,-124.61 320.9,-130.97"/>
</a>
</g>
</g>
<!-- Node12&#45;&gt;Node2 -->
<g id="edge14_Node000012_Node000002" class="edge">
<title>Node12&#45;&gt;Node2</title>
<g id="a_edge14_Node000012_Node000002"><a xlink:title=" ">
<path fill="none" stroke="#63b8ff" d="M487.76,-127.46C462.62,-115.27 430.92,-99.9 411.57,-90.52"/>
<polygon fill="#63b8ff" stroke="#63b8ff" points="486.51,-130.74 497.03,-131.95 489.56,-124.44 486.51,-130.74"/>
</a>
</g>
</g>
<!-- Node12&#45;&gt;Node7 -->
<g id="edge16_Node000012_Node000007" class="edge">
<title>Node12&#45;&gt;Node7</title>
<g id="a_edge16_Node000012_Node000007"><a xlink:title=" ">
<path fill="none" stroke="#63b8ff" d="M531.36,-121.9C536.28,-104.54 545.13,-81.52 560,-66 579.84,-45.3 609.97,-32.18 632.88,-24.6"/>
<polygon fill="#63b8ff" stroke="#63b8ff" points="527.89,-121.31 528.78,-131.87 534.67,-123.06 527.89,-121.31"/>
</a>
</g>
</g>
<!-- Node12&#45;&gt;Node8 -->
<g id="edge15_Node000012_Node000008" class="edge">
<title>Node12&#45;&gt;Node8</title>
<g id="a_edge15_Node000012_Node000008"><a xlink:title=" ">
<path fill="none" stroke="#63b8ff" d="M563.95,-127.46C588.9,-115.27 620.36,-99.9 639.57,-90.52"/>
<polygon fill="#63b8ff" stroke="#63b8ff" points="562.2,-124.42 554.75,-131.95 565.27,-130.71 562.2,-124.42"/>
</a>
</g>
</g>
<!-- Node13&#45;&gt;Node2 -->
<g id="edge18_Node000013_Node000002" class="edge">
<title>Node13&#45;&gt;Node2</title>
<g id="a_edge18_Node000013_Node000002"><a xlink:title=" ">
<path fill="none" stroke="#63b8ff" d="M615.22,-129.83C557.4,-117.33 479.65,-100.52 433.39,-90.52"/>
<polygon fill="#63b8ff" stroke="#63b8ff" points="614.53,-133.26 625.04,-131.95 616.01,-126.42 614.53,-133.26"/>
</a>
</g>
</g>
<!-- Node13&#45;&gt;Node9 -->
<g id="edge19_Node000013_Node000009" class="edge">
<title>Node13&#45;&gt;Node9</title>
<g id="a_edge19_Node000013_Node000009"><a xlink:title=" ">
<path fill="none" stroke="#63b8ff" d="M728.71,-127.65C749.94,-117.58 775.85,-105.3 795.44,-96.01"/>
<polygon fill="#63b8ff" stroke="#63b8ff" points="727.16,-124.51 719.63,-131.95 730.16,-130.83 727.16,-124.51"/>
</a>
</g>
</g>
</g>
</svg>
