<?xml version="1.0" encoding="UTF-8" standalone="no"?>
<!DOCTYPE svg PUBLIC "-//W3C//DTD SVG 1.1//EN"
 "http://www.w3.org/Graphics/SVG/1.1/DTD/svg11.dtd">
<!-- Generated by graphviz version 2.43.0 (0)
 -->
<!-- Title: Graphical Class Hierarchy Pages: 1 -->
<svg width="347pt" height="182pt"
 viewBox="0.00 0.00 347.00 182.00" xmlns="http://www.w3.org/2000/svg" xmlns:xlink="http://www.w3.org/1999/xlink">
<g id="graph0" class="graph" transform="scale(1 1) rotate(0) translate(4 178)">
<title>Graphical Class Hierarchy</title>
<!-- Node0 -->
<g id="Node000000" class="node">
<title>Node0</title>
<g id="a_Node000000"><a xlink:href="classmc_1_1domains_1_1IntegrationDomain.html" target="_top" xlink:title="Abstract base class for N&#45;dimensional integration domains.">
<polygon fill="white" stroke="#666666" points="139,-102 0,-102 0,-72 139,-72 139,-102"/>
<text text-anchor="start" x="8" y="-90" font-family="Helvetica,sans-Serif" font-size="10.00">mc::domains::Integration</text>
<text text-anchor="middle" x="69.5" y="-79" font-family="Helvetica,sans-Serif" font-size="10.00">Domain&lt; dim &gt;</text>
</a>
</g>
</g>
<!-- Node1 -->
<g id="Node000001" class="node">
<title>Node1</title>
<g id="a_Node000001"><a xlink:href="classmc_1_1domains_1_1HyperCylinder.html" target="_top" xlink:title="N&#45;dimensional hypercylinder.">
<polygon fill="white" stroke="#666666" points="334.5,-174 179.5,-174 179.5,-144 334.5,-144 334.5,-174"/>
<text text-anchor="start" x="187.5" y="-162" font-family="Helvetica,sans-Serif" font-size="10.00">mc::domains::HyperCylinder</text>
<text text-anchor="middle" x="257" y="-151" font-family="Helvetica,sans-Serif" font-size="10.00">&lt; dim &gt;</text>
</a>
</g>
</g>
<!-- Node0&#45;&gt;Node1 -->
<g id="edge1_Node000000_Node000001" class="edge">
<title>Node0&#45;&gt;Node1</title>
<g id="a_edge1_Node000000_Node000001"><a xlink:title=" ">
<path fill="none" stroke="#63b8ff" d="M109.34,-106.45C128.78,-115.76 152.84,-126.67 175,-135 183.38,-138.15 192.36,-141.16 201.18,-143.91"/>
<polygon fill="#63b8ff" stroke="#63b8ff" points="110.73,-103.23 100.2,-102.02 107.68,-109.53 110.73,-103.23"/>
</a>
</g>
</g>
<!-- Node2 -->
<g id="Node000002" class="node">
<title>Node2</title>
<g id="a_Node000002"><a xlink:href="classmc_1_1domains_1_1HyperRectangle.html" target="_top" xlink:title="Axis&#45;aligned hyperrectangular domain.">
<polygon fill="white" stroke="#666666" points="339,-126 175,-126 175,-96 339,-96 339,-126"/>
<text text-anchor="start" x="183" y="-114" font-family="Helvetica,sans-Serif" font-size="10.00">mc::domains::HyperRectangle</text>
<text text-anchor="middle" x="257" y="-103" font-family="Helvetica,sans-Serif" font-size="10.00">&lt; dim &gt;</text>
</a>
</g>
</g>
<!-- Node0&#45;&gt;Node2 -->
<g id="edge2_Node000000_Node000002" class="edge">
<title>Node0&#45;&gt;Node2</title>
<g id="a_edge2_Node000000_Node000002"><a xlink:title=" ">
<path fill="none" stroke="#63b8ff" d="M149,-97.16C157.56,-98.26 166.28,-99.39 174.87,-100.5"/>
<polygon fill="#63b8ff" stroke="#63b8ff" points="149.41,-93.68 139.05,-95.87 148.51,-100.62 149.41,-93.68"/>
</a>
</g>
</g>
<!-- Node3 -->
<g id="Node000003" class="node">
<title>Node3</title>
<g id="a_Node000003"><a xlink:href="classmc_1_1domains_1_1Hypersphere.html" target="_top" xlink:title="N&#45;dimensional ball (solid sphere).">
<polygon fill="white" stroke="#666666" points="331,-78 183,-78 183,-48 331,-48 331,-78"/>
<text text-anchor="start" x="191" y="-66" font-family="Helvetica,sans-Serif" font-size="10.00">mc::domains::Hypersphere</text>
<text text-anchor="middle" x="257" y="-55" font-family="Helvetica,sans-Serif" font-size="10.00">&lt; dim &gt;</text>
</a>
</g>
</g>
<!-- Node0&#45;&gt;Node3 -->
<g id="edge3_Node000000_Node000003" class="edge">
<title>Node0&#45;&gt;Node3</title>
<g id="a_edge3_Node000000_Node000003"><a xlink:title=" ">
<path fill="none" stroke="#63b8ff" d="M149.18,-76.82C160.31,-75.38 171.73,-73.9 182.75,-72.48"/>
<polygon fill="#63b8ff" stroke="#63b8ff" points="148.51,-73.38 139.05,-78.13 149.41,-80.32 148.51,-73.38"/>
</a>
</g>
</g>
<!-- Node4 -->
<g id="Node000004" class="node">
<title>Node4</title>
<g id="a_Node000004"><a xlink:href="classmc_1_1domains_1_1PolyTope.html" target="_top" xlink:title="Convex polytope (convex polyhedron) integration domain.">
<polygon fill="white" stroke="#666666" points="321.5,-30 192.5,-30 192.5,0 321.5,0 321.5,-30"/>
<text text-anchor="start" x="200.5" y="-18" font-family="Helvetica,sans-Serif" font-size="10.00">mc::domains::PolyTope</text>
<text text-anchor="middle" x="257" y="-7" font-family="Helvetica,sans-Serif" font-size="10.00">&lt; dim &gt;</text>
</a>
</g>
</g>
<!-- Node0&#45;&gt;Node4 -->
<g id="edge4_Node000000_Node000004" class="edge">
<title>Node0&#45;&gt;Node4</title>
<g id="a_edge4_Node000000_Node000004"><a xlink:title=" ">
<path fill="none" stroke="#63b8ff" d="M109.34,-67.55C128.78,-58.24 152.84,-47.33 175,-39 183.38,-35.85 192.36,-32.84 201.18,-30.09"/>
<polygon fill="#63b8ff" stroke="#63b8ff" points="107.68,-64.47 100.2,-71.98 110.73,-70.77 107.68,-64.47"/>
</a>
</g>
</g>
</g>
</svg>
