<?xml version="1.0" encoding="UTF-8" standalone="no"?>
<!DOCTYPE svg PUBLIC "-//W3C//DTD SVG 1.1//EN"
 "http://www.w3.org/Graphics/SVG/1.1/DTD/svg11.dtd">
<!-- Generated by graphviz version 2.43.0 (0)
 -->
<!-- Title: Graphical Class Hierarchy Pages: 1 -->
<svg width="357pt" height="134pt"
 viewBox="0.00 0.00 357.00 134.00" xmlns="http://www.w3.org/2000/svg" xmlns:xlink="http://www.w3.org/1999/xlink">
<g id="graph0" class="graph" transform="scale(1 1) rotate(0) translate(4 130)">
<title>Graphical Class Hierarchy</title>
<!-- Node0 -->
<g id="Node000000" class="node">
<title>Node0</title>
<g id="a_Node000000"><a xlink:href="classmc_1_1integrators_1_1Integrator.html" target="_top" xlink:title="Abstract base class for Monte Carlo integration in N dimensions.">
<polygon fill="white" stroke="#666666" points="145,-78 0,-78 0,-48 145,-48 145,-78"/>
<text text-anchor="start" x="8" y="-66" font-family="Helvetica,sans-Serif" font-size="10.00">mc::integrators::Integrator</text>
<text text-anchor="middle" x="72.5" y="-55" font-family="Helvetica,sans-Serif" font-size="10.00">&lt; dim &gt;</text>
</a>
</g>
</g>
<!-- Node1 -->
<g id="Node000001" class="node">
<title>Node1</title>
<g id="a_Node000001"><a xlink:href="classmc_1_1integrators_1_1ISMontecarloIntegrator.html" target="_top" xlink:title="Importance sampling Monte Carlo integrator.">
<polygon fill="white" stroke="#666666" points="345.5,-126 184.5,-126 184.5,-96 345.5,-96 345.5,-126"/>
<text text-anchor="start" x="192.5" y="-114" font-family="Helvetica,sans-Serif" font-size="10.00">mc::integrators::ISMontecarlo</text>
<text text-anchor="middle" x="265" y="-103" font-family="Helvetica,sans-Serif" font-size="10.00">Integrator&lt; dim &gt;</text>
</a>
</g>
</g>
<!-- Node0&#45;&gt;Node1 -->
<g id="edge6_Node000000_Node000001" class="edge">
<title>Node0&#45;&gt;Node1</title>
<g id="a_edge6_Node000000_Node000001"><a xlink:title=" ">
<path fill="none" stroke="#63b8ff" d="M143,-80.51C163.15,-85.59 184.97,-91.09 204.46,-96"/>
<polygon fill="#63b8ff" stroke="#63b8ff" points="143.8,-77.11 133.25,-78.06 142.09,-83.89 143.8,-77.11"/>
</a>
</g>
</g>
<!-- Node2 -->
<g id="Node000002" class="node">
<title>Node2</title>
<g id="a_Node000002"><a xlink:href="classmc_1_1integrators_1_1MHMontecarloIntegrator.html" target="_top" xlink:title="Metropolis&#45;Hastings MCMC integrator for complex domains.">
<polygon fill="white" stroke="#666666" points="349,-78 181,-78 181,-48 349,-48 349,-78"/>
<text text-anchor="start" x="189" y="-66" font-family="Helvetica,sans-Serif" font-size="10.00">mc::integrators::MHMontecarlo</text>
<text text-anchor="middle" x="265" y="-55" font-family="Helvetica,sans-Serif" font-size="10.00">Integrator&lt; dim &gt;</text>
</a>
</g>
</g>
<!-- Node0&#45;&gt;Node2 -->
<g id="edge7_Node000000_Node000002" class="edge">
<title>Node0&#45;&gt;Node2</title>
<g id="a_edge7_Node000000_Node000002"><a xlink:title=" ">
<path fill="none" stroke="#63b8ff" d="M155.42,-63C163.82,-63 172.37,-63 180.79,-63"/>
<polygon fill="#63b8ff" stroke="#63b8ff" points="155.25,-59.5 145.25,-63 155.25,-66.5 155.25,-59.5"/>
</a>
</g>
</g>
<!-- Node3 -->
<g id="Node000003" class="node">
<title>Node3</title>
<g id="a_Node000003"><a xlink:href="classmc_1_1integrators_1_1MontecarloIntegrator.html" target="_top" xlink:title="Uniform&#45;sampling Monte Carlo integrator for N&#45;dimensional domains.">
<polygon fill="white" stroke="#666666" points="341,-30 189,-30 189,0 341,0 341,-30"/>
<text text-anchor="start" x="197" y="-18" font-family="Helvetica,sans-Serif" font-size="10.00">mc::integrators::Montecarlo</text>
<text text-anchor="middle" x="265" y="-7" font-family="Helvetica,sans-Serif" font-size="10.00">Integrator&lt; dim &gt;</text>
</a>
</g>
</g>
<!-- Node0&#45;&gt;Node3 -->
<g id="edge8_Node000000_Node000003" class="edge">
<title>Node0&#45;&gt;Node3</title>
<g id="a_edge8_Node000000_Node000003"><a xlink:title=" ">
<path fill="none" stroke="#63b8ff" d="M143,-45.49C163.15,-40.41 184.97,-34.91 204.46,-30"/>
<polygon fill="#63b8ff" stroke="#63b8ff" points="142.09,-42.11 133.25,-47.94 143.8,-48.89 142.09,-42.11"/>
</a>
</g>
</g>
</g>
</svg>
