<?xml version="1.0" encoding="UTF-8" standalone="no"?>
<!DOCTYPE svg PUBLIC "-//W3C//DTD SVG 1.1//EN"
 "http://www.w3.org/Graphics/SVG/1.1/DTD/svg11.dtd">
<!-- Generated by graphviz version 2.43.0 (0)
 -->
<!-- Title: Graphical Class Hierarchy Pages: 1 -->
<svg width="256pt" height="64pt"
 viewBox="0.00 0.00 256.00 64.00" xmlns="http://www.w3.org/2000/svg" xmlns:xlink="http://www.w3.org/1999/xlink">
<g id="graph0" class="graph" transform="scale(1 1) rotate(0) translate(4 60)">
<title>Graphical Class Hierarchy</title>
<!-- Node0 -->
<g id="Node000000" class="node">
<title>Node0</title>
<g id="a_Node000000"><a xlink:href="classmc_1_1optim_1_1Optimizer.html" target="_top" xlink:title="Abstract base class for all optimization algorithms.">
<polygon fill="white" stroke="#666666" points="120,-37 0,-37 0,-18 120,-18 120,-37"/>
<text text-anchor="middle" x="60" y="-25" font-family="Helvetica,sans-Serif" font-size="10.00">mc::optim::Optimizer</text>
</a>
</g>
</g>
<!-- Node1 -->
<g id="Node000001" class="node">
<title>Node1</title>
<g id="a_Node000001"><a xlink:href="classmc_1_1optim_1_1GA.html" target="_top" xlink:title="Genetic Algorithm optimizer.">
<polygon fill="white" stroke="#666666" points="245,-56 159,-56 159,-37 245,-37 245,-56"/>
<text text-anchor="middle" x="202" y="-44" font-family="Helvetica,sans-Serif" font-size="10.00">mc::optim::GA</text>
</a>
</g>
</g>
<!-- Node0&#45;&gt;Node1 -->
<g id="edge9_Node000000_Node000001" class="edge">
<title>Node0&#45;&gt;Node1</title>
<g id="a_edge9_Node000000_Node000001"><a xlink:title=" ">
<path fill="none" stroke="#63b8ff" d="M130.47,-36.93C140.19,-38.25 149.93,-39.57 158.93,-40.79"/>
<polygon fill="#63b8ff" stroke="#63b8ff" points="130.75,-33.43 120.37,-35.56 129.81,-40.37 130.75,-33.43"/>
</a>
</g>
</g>
<!-- Node2 -->
<g id="Node000002" class="node">
<title>Node2</title>
<g id="a_Node000002"><a xlink:href="classmc_1_1optim_1_1PSO.html" target="_top" xlink:title="Particle Swarm Optimization algorithm.">
<polygon fill="white" stroke="#666666" points="248,-19 156,-19 156,0 248,0 248,-19"/>
<text text-anchor="middle" x="202" y="-7" font-family="Helvetica,sans-Serif" font-size="10.00">mc::optim::PSO</text>
</a>
</g>
</g>
<!-- Node0&#45;&gt;Node2 -->
<g id="edge10_Node000000_Node000002" class="edge">
<title>Node0&#45;&gt;Node2</title>
<g id="a_edge10_Node000000_Node000002"><a xlink:title=" ">
<path fill="none" stroke="#63b8ff" d="M130.5,-18.56C139.16,-17.45 147.83,-16.34 155.98,-15.29"/>
<polygon fill="#63b8ff" stroke="#63b8ff" points="129.84,-15.12 120.37,-19.87 130.74,-22.06 129.84,-15.12"/>
</a>
</g>
</g>
</g>
</svg>
