<?xml version="1.0" encoding="UTF-8" standalone="no"?>
<!DOCTYPE svg PUBLIC "-//W3C//DTD SVG 1.1//EN"
 "http://www.w3.org/Graphics/SVG/1.1/DTD/svg11.dtd">
<!-- Generated by graphviz version 2.43.0 (0)
 -->
<!-- Title: Graphical Class Hierarchy Pages: 1 -->
<svg width="355pt" height="134pt"
 viewBox="0.00 0.00 355.00 134.00" xmlns="http://www.w3.org/2000/svg" xmlns:xlink="http://www.w3.org/1999/xlink">
<g id="graph0" class="graph" transform="scale(1 1) rotate(0) translate(4 130)">
<title>Graphical Class Hierarchy</title>
<!-- Node0 -->
<g id="Node000000" class="node">
<title>Node0</title>
<g id="a_Node000000"><a xlink:href="classmc_1_1proposals_1_1Proposal.html" target="_top" xlink:title="Abstract proposal distribution interface.">
<polygon fill="white" stroke="#666666" points="133,-78 0,-78 0,-48 133,-48 133,-78"/>
<text text-anchor="start" x="8" y="-66" font-family="Helvetica,sans-Serif" font-size="10.00">mc::proposals::Proposal</text>
<text text-anchor="middle" x="66.5" y="-55" font-family="Helvetica,sans-Serif" font-size="10.00">&lt; dim &gt;</text>
</a>
</g>
</g>
<!-- Node1 -->
<g id="Node000001" class="node">
<title>Node1</title>
<g id="a_Node000001"><a xlink:href="classmc_1_1proposals_1_1GaussianProposal.html" target="_top" xlink:title=" ">
<polygon fill="white" stroke="#666666" points="347,-126 169,-126 169,-96 347,-96 347,-126"/>
<text text-anchor="start" x="177" y="-114" font-family="Helvetica,sans-Serif" font-size="10.00">mc::proposals::GaussianProposal</text>
<text text-anchor="middle" x="258" y="-103" font-family="Helvetica,sans-Serif" font-size="10.00">&lt; dim &gt;</text>
</a>
</g>
</g>
<!-- Node0&#45;&gt;Node1 -->
<g id="edge11_Node000000_Node000001" class="edge">
<title>Node0&#45;&gt;Node1</title>
<g id="a_edge11_Node000000_Node000001"><a xlink:title=" ">
<path fill="none" stroke="#63b8ff" d="M136.9,-80.58C156.88,-85.64 178.47,-91.11 197.77,-96"/>
<polygon fill="#63b8ff" stroke="#63b8ff" points="137.49,-77.12 126.94,-78.06 135.77,-83.9 137.49,-77.12"/>
</a>
</g>
</g>
<!-- Node2 -->
<g id="Node000002" class="node">
<title>Node2</title>
<g id="a_Node000002"><a xlink:href="classmc_1_1proposals_1_1MixtureProposal.html" target="_top" xlink:title=" ">
<polygon fill="white" stroke="#666666" points="343,-78 173,-78 173,-48 343,-48 343,-78"/>
<text text-anchor="start" x="181" y="-66" font-family="Helvetica,sans-Serif" font-size="10.00">mc::proposals::MixtureProposal</text>
<text text-anchor="middle" x="258" y="-55" font-family="Helvetica,sans-Serif" font-size="10.00">&lt; dim &gt;</text>
</a>
</g>
</g>
<!-- Node0&#45;&gt;Node2 -->
<g id="edge12_Node000000_Node000002" class="edge">
<title>Node0&#45;&gt;Node2</title>
<g id="a_edge12_Node000000_Node000002"><a xlink:title=" ">
<path fill="none" stroke="#63b8ff" d="M143.53,-63C153.12,-63 162.97,-63 172.68,-63"/>
<polygon fill="#63b8ff" stroke="#63b8ff" points="143.25,-59.5 133.25,-63 143.25,-66.5 143.25,-59.5"/>
</a>
</g>
</g>
<!-- Node3 -->
<g id="Node000003" class="node">
<title>Node3</title>
<g id="a_Node000003"><a xlink:href="classmc_1_1proposals_1_1UniformProposal.html" target="_top" xlink:title="Uniform distribution over a domain.">
<polygon fill="white" stroke="#666666" points="344.5,-30 171.5,-30 171.5,0 344.5,0 344.5,-30"/>
<text text-anchor="start" x="179.5" y="-18" font-family="Helvetica,sans-Serif" font-size="10.00">mc::proposals::UniformProposal</text>
<text text-anchor="middle" x="258" y="-7" font-family="Helvetica,sans-Serif" font-size="10.00">&lt; dim &gt;</text>
</a>
</g>
</g>
<!-- Node0&#45;&gt;Node3 -->
<g id="edge13_Node000000_Node000003" class="edge">
<title>Node0&#45;&gt;Node3</title>
<g id="a_edge13_Node000000_Node000003"><a xlink:title=" ">
<path fill="none" stroke="#63b8ff" d="M136.9,-45.42C156.88,-40.36 178.47,-34.89 197.77,-30"/>
<polygon fill="#63b8ff" stroke="#63b8ff" points="135.77,-42.1 126.94,-47.94 137.49,-48.88 135.77,-42.1"/>
</a>
</g>
</g>
</g>
</svg>
