<?xml version="1.0" encoding="UTF-8" standalone="no"?>
<!DOCTYPE svg PUBLIC "-//W3C//DTD SVG 1.1//EN"
 "http://www.w3.org/Graphics/SVG/1.1/DTD/svg11.dtd">
<!-- Generated by graphviz version 2.43.0 (0)
 -->
<!-- Title: runBenchmarks Pages: 1 -->
<!--zoomable 296 -->

<svg id="main" version="1.1" xmlns="http://www.w3.org/2000/svg" xmlns:xlink="http://www.w3.org/1999/xlink" xml:space="preserve" onload="init(evt)">
<style type="text/css"><![CDATA[
.node, .edge {opacity: 0.7;}
.node.selected, .edge.selected {opacity: 1;}
.edge:hover path { stroke: red; }
.edge:hover polygon { stroke: red; fill: red; }
]]></style>

<defs>
  <circle id="rim" cx="0" cy="0" r="7"/>
  <circle id="rim2" cx="0" cy="0" r="3.5"/>
  <g id="zoomPlus">
    <use xlink:href="#rim" fill="#404040"><set attributeName="fill" to="#808080" begin="zoomplus.mouseover" end="zoomplus.mouseout"/></use>
    <path d="M-4,0h8M0,-4v8" fill="none" stroke="white" stroke-width="1.5" pointer-events="none"/>
  </g>
  <g id="zoomMin">
    <use xlink:href="#rim" fill="#404040"><set attributeName="fill" to="#808080" begin="zoomminus.mouseover" end="zoomminus.mouseout"/></use>
    <path d="M-4,0h8" fill="none" stroke="white" stroke-width="1.5" pointer-events="none"/>
  </g>
  <g id="arrowUp" transform="translate(30 24)">
    <use xlink:href="#rim"/>
    <path pointer-events="none" fill="none" stroke="white" stroke-width="1.5" d="M0,-3.0v7 M-2.5,-0.5L0,-3.0L2.5,-0.5"/>
  </g>
  <g id="arrowRight" transform="rotate(90) translate(36 -43)">
    <use xlink:href="#rim"/>
    <path pointer-events="none" fill="none" stroke="white" stroke-width="1.5" d="M0,-3.0v7 M-2.5,-0.5L0,-3.0L2.5,-0.5"/>
  </g>
  <g id="arrowDown" transform="rotate(180) translate(-30 -48)">
    <use xlink:href="#rim"/>
    <path pointer-events="none" fill="none" stroke="white" stroke-width="1.5" d="M0,-3.0v7 M-2.5,-0.5L0,-3.0L2.5,-0.5"/>
  </g>
  <g id="arrowLeft" transform="rotate(270) translate(-36 17)">
    <use xlink:href="#rim"/>
    <path pointer-events="none" fill="none" stroke="white" stroke-width="1.5" d="M0,-3.0v7 M-2.5,-0.5L0,-3.0L2.5,-0.5"/>
  </g>
  <g id="resetDef">
    <use xlink:href="#rim2" fill="#404040"><set attributeName="fill" to="#808080" begin="reset.mouseover" end="reset.mouseout"/></use>
  </g>
</defs>
<script type="application/ecmascript">
var viewWidth = 974;
var viewHeight = 296;
var sectionId = 'dynsection-9';
</script>
<script type="application/ecmascript" xlink:href="svg.min.js"/>
<svg id="graph" class="graph">
<g id="viewport">
<title>runBenchmarks</title>
<!-- Node1 -->
<g id="Node000001" class="node">
<title>Node1</title>
<g id="a_Node000001"><a xlink:title="Run integration benchmarks with custom mathematical expression.">
<polygon fill="#999999" stroke="#666666" points="93,-153 0,-153 0,-134 93,-134 93,-153"/>
<text text-anchor="middle" x="46.5" y="-141" font-family="Helvetica,sans-Serif" font-size="10.00">runBenchmarks</text>
</a>
</g>
</g>
<!-- Node2 -->
<g id="Node000002" class="node">
<title>Node2</title>
<g id="a_Node000002"><a xlink:href="integration__benchmarks_8cpp.html#ae139b5ed40776e85fab049e65f8b0310" target="_top" xlink:title=" ">
<polygon fill="white" stroke="#666666" points="269.5,-209 143.5,-209 143.5,-190 269.5,-190 269.5,-209"/>
<text text-anchor="middle" x="206.5" y="-197" font-family="Helvetica,sans-Serif" font-size="10.00">circleIntegrationParser</text>
</a>
</g>
</g>
<!-- Node1&#45;&gt;Node2 -->
<g id="edge1_Node000001_Node000002" class="edge">
<title>Node1&#45;&gt;Node2</title>
<g id="a_edge1_Node000001_Node000002"><a xlink:title=" ">
<path fill="none" stroke="#63b8ff" d="M65.88,-153.02C82.14,-161.15 106.69,-172.74 129,-180.5 136.1,-182.97 143.67,-185.25 151.19,-187.32"/>
<polygon fill="#63b8ff" stroke="#63b8ff" points="150.44,-190.74 161,-189.91 152.23,-183.97 150.44,-190.74"/>
</a>
</g>
</g>
<!-- Node13 -->
<g id="Node000013" class="node">
<title>Node13</title>
<g id="a_Node000013"><a xlink:href="integration__benchmarks_8cpp.html#a0b5250e6b3d38bec0701f54517f14341" target="_top" xlink:title=" ">
<polygon fill="white" stroke="#666666" points="276,-172 137,-172 137,-153 276,-153 276,-172"/>
<text text-anchor="middle" x="206.5" y="-160" font-family="Helvetica,sans-Serif" font-size="10.00">cylinderIntegrationParser</text>
</a>
</g>
</g>
<!-- Node1&#45;&gt;Node13 -->
<g id="edge14_Node000001_Node000013" class="edge">
<title>Node1&#45;&gt;Node13</title>
<g id="a_edge14_Node000001_Node000013"><a xlink:title=" ">
<path fill="none" stroke="#63b8ff" d="M93.2,-149C103.77,-150.27 115.32,-151.66 126.86,-153.04"/>
<polygon fill="#63b8ff" stroke="#63b8ff" points="126.62,-156.54 136.97,-154.26 127.46,-149.59 126.62,-156.54"/>
</a>
</g>
</g>
<!-- Node15 -->
<g id="Node000015" class="node">
<title>Node15</title>
<g id="a_Node000015"><a xlink:href="integration__benchmarks_8cpp.html#a45300d6e9bcfc9eb9151aaeb8dd8f748" target="_top" xlink:title=" ">
<polygon fill="white" stroke="#666666" points="284,-135 129,-135 129,-116 284,-116 284,-135"/>
<text text-anchor="middle" x="206.5" y="-123" font-family="Helvetica,sans-Serif" font-size="10.00">rectangularIntegrationParser</text>
</a>
</g>
</g>
<!-- Node1&#45;&gt;Node15 -->
<g id="edge17_Node000001_Node000015" class="edge">
<title>Node1&#45;&gt;Node15</title>
<g id="a_edge17_Node000001_Node000015"><a xlink:title=" ">
<path fill="none" stroke="#63b8ff" d="M93.2,-138.29C101.35,-137.37 110.07,-136.37 118.92,-135.36"/>
<polygon fill="#63b8ff" stroke="#63b8ff" points="119.4,-138.83 128.94,-134.22 118.61,-131.88 119.4,-138.83"/>
</a>
</g>
</g>
<!-- Node17 -->
<g id="Node000017" class="node">
<title>Node17</title>
<g id="a_Node000017"><a xlink:href="integration__benchmarks_8cpp.html#acf5def357ea5dc68829883b6dbb31268" target="_top" xlink:title=" ">
<polygon fill="white" stroke="#666666" points="273,-98 140,-98 140,-79 273,-79 273,-98"/>
<text text-anchor="middle" x="206.5" y="-86" font-family="Helvetica,sans-Serif" font-size="10.00">sphereIntegrationParser</text>
</a>
</g>
</g>
<!-- Node1&#45;&gt;Node17 -->
<g id="edge20_Node000001_Node000017" class="edge">
<title>Node1&#45;&gt;Node17</title>
<g id="a_edge20_Node000001_Node000017"><a xlink:title=" ">
<path fill="none" stroke="#63b8ff" d="M65.85,-133.92C82.1,-125.74 106.64,-114.12 129,-106.5 135.33,-104.34 142.05,-102.35 148.77,-100.54"/>
<polygon fill="#63b8ff" stroke="#63b8ff" points="149.75,-103.9 158.57,-98.02 148.01,-97.12 149.75,-103.9"/>
</a>
</g>
</g>
<!-- Node3 -->
<g id="Node000003" class="node">
<title>Node3</title>
<g id="a_Node000003"><a xlink:href="integration__benchmarks_8cpp.html#ad6a98f0b47b4b5a2f256b815762f5a65" target="_top" xlink:title=" ">
<polygon fill="white" stroke="#666666" points="442,-209 326,-209 326,-190 442,-190 442,-209"/>
<text text-anchor="middle" x="384" y="-197" font-family="Helvetica,sans-Serif" font-size="10.00">runCircleBenchmark</text>
</a>
</g>
</g>
<!-- Node2&#45;&gt;Node3 -->
<g id="edge2_Node000002_Node000003" class="edge">
<title>Node2&#45;&gt;Node3</title>
<g id="a_edge2_Node000002_Node000003"><a xlink:title=" ">
<path fill="none" stroke="#63b8ff" d="M269.87,-199.5C284.68,-199.5 300.54,-199.5 315.57,-199.5"/>
<polygon fill="#63b8ff" stroke="#63b8ff" points="315.81,-203 325.81,-199.5 315.81,-196 315.81,-203"/>
</a>
</g>
</g>
<!-- Node4 -->
<g id="Node000004" class="node">
<title>Node4</title>
<g id="a_Node000004"><a xlink:href="integration__benchmarks_8cpp.html#a58f19e7e4fd19b25ecf0048ccb82e705" target="_top" xlink:title="Generic execution loop for integration benchmarks.">
<polygon fill="white" stroke="#666666" points="594,-153 484,-153 484,-134 594,-134 594,-153"/>
<text text-anchor="middle" x="539" y="-141" font-family="Helvetica,sans-Serif" font-size="10.00">executeBenchmark</text>
</a>
</g>
</g>
<!-- Node3&#45;&gt;Node4 -->
<g id="edge3_Node000003_Node000004" class="edge">
<title>Node3&#45;&gt;Node4</title>
<g id="a_edge3_Node000003_Node000004"><a xlink:title=" ">
<path fill="none" stroke="#63b8ff" d="M418.87,-189.94C428.36,-187.09 438.63,-183.83 448,-180.5 467.83,-173.45 489.67,-164.5 506.87,-157.17"/>
<polygon fill="#63b8ff" stroke="#63b8ff" points="508.6,-160.24 516.41,-153.07 505.84,-153.81 508.6,-160.24"/>
</a>
</g>
</g>
<!-- Node5 -->
<g id="Node000005" class="node">
<title>Node5</title>
<g id="a_Node000005"><a xlink:href="namespacemc_1_1utils.html#a0dffb17257bac930060d199a00fe8eef" target="_top" xlink:title=" ">
<polygon fill="white" stroke="#666666" points="779,-287.5 642,-287.5 642,-257.5 779,-257.5 779,-287.5"/>
<text text-anchor="start" x="650" y="-275.5" font-family="Helvetica,sans-Serif" font-size="10.00">mc::utils::createFunction</text>
<text text-anchor="middle" x="710.5" y="-264.5" font-family="Helvetica,sans-Serif" font-size="10.00">GnuplotScript</text>
</a>
</g>
</g>
<!-- Node4&#45;&gt;Node5 -->
<g id="edge4_Node000004_Node000005" class="edge">
<title>Node4&#45;&gt;Node5</title>
<g id="a_edge4_Node000004_Node000005"><a xlink:title=" ">
<path fill="none" stroke="#63b8ff" d="M545.63,-153.23C558.12,-173.93 590.18,-222.54 630,-248.5 632.43,-250.09 634.98,-251.57 637.6,-252.96"/>
<polygon fill="#63b8ff" stroke="#63b8ff" points="636.23,-256.19 646.76,-257.33 639.24,-249.87 636.23,-256.19"/>
</a>
</g>
</g>
<!-- Node7 -->
<g id="Node000007" class="node">
<title>Node7</title>
<g id="a_Node000007"><a xlink:href="namespacemc_1_1utils.html#afaf70e150a29a11f0ab5e121caa951d3" target="_top" xlink:title=" ">
<polygon fill="white" stroke="#666666" points="777.5,-239.5 643.5,-239.5 643.5,-209.5 777.5,-209.5 777.5,-239.5"/>
<text text-anchor="start" x="651.5" y="-227.5" font-family="Helvetica,sans-Serif" font-size="10.00">mc::utils::createGnuplot</text>
<text text-anchor="middle" x="710.5" y="-216.5" font-family="Helvetica,sans-Serif" font-size="10.00">Script</text>
</a>
</g>
</g>
<!-- Node4&#45;&gt;Node7 -->
<g id="edge6_Node000004_Node000007" class="edge">
<title>Node4&#45;&gt;Node7</title>
<g id="a_edge6_Node000004_Node000007"><a xlink:title=" ">
<path fill="none" stroke="#63b8ff" d="M554.86,-153.16C572.35,-164.29 602.53,-182.67 630,-195.5 637.75,-199.12 646.09,-202.59 654.34,-205.8"/>
<polygon fill="#63b8ff" stroke="#63b8ff" points="653.37,-209.17 663.96,-209.43 655.84,-202.62 653.37,-209.17"/>
</a>
</g>
</g>
<!-- Node8 -->
<g id="Node000008" class="node">
<title>Node8</title>
<g id="a_Node000008"><a xlink:href="classmc_1_1domains_1_1IntegrationDomain.html#a31ef4c76c6c87398eebbb660df203384" target="_top" xlink:title="Get the axis&#45;aligned bounding box of the domain.">
<polygon fill="white" stroke="#666666" points="966,-217.5 827,-217.5 827,-187.5 966,-187.5 966,-217.5"/>
<text text-anchor="start" x="835" y="-205.5" font-family="Helvetica,sans-Serif" font-size="10.00">mc::domains::Integration</text>
<text text-anchor="middle" x="896.5" y="-194.5" font-family="Helvetica,sans-Serif" font-size="10.00">Domain::getBounds</text>
</a>
</g>
</g>
<!-- Node4&#45;&gt;Node8 -->
<g id="edge10_Node000004_Node000008" class="edge">
<title>Node4&#45;&gt;Node8</title>
<g id="a_edge10_Node000004_Node000008"><a xlink:title=" ">
<path fill="none" stroke="#63b8ff" d="M585.71,-153.05C599.88,-155.9 615.57,-158.94 630,-161.5 692.67,-172.6 763.96,-183.52 816.88,-191.29"/>
<polygon fill="#63b8ff" stroke="#63b8ff" points="816.48,-194.77 826.88,-192.75 817.49,-187.84 816.48,-194.77"/>
</a>
</g>
</g>
<!-- Node9 -->
<g id="Node000009" class="node">
<title>Node9</title>
<g id="a_Node000009"><a xlink:href="namespacemc_1_1rng.html#ae8ce618a80ac94df709f1fd752932c0c" target="_top" xlink:title="Get the current global seed.">
<polygon fill="white" stroke="#666666" points="780,-153 641,-153 641,-134 780,-134 780,-153"/>
<text text-anchor="middle" x="710.5" y="-141" font-family="Helvetica,sans-Serif" font-size="10.00">mc::rng::get_global_seed</text>
</a>
</g>
</g>
<!-- Node4&#45;&gt;Node9 -->
<g id="edge9_Node000004_Node000009" class="edge">
<title>Node4&#45;&gt;Node9</title>
<g id="a_edge9_Node000004_Node000009"><a xlink:title=" ">
<path fill="none" stroke="#63b8ff" d="M594.1,-143.5C605.68,-143.5 618.14,-143.5 630.44,-143.5"/>
<polygon fill="#63b8ff" stroke="#63b8ff" points="630.72,-147 640.72,-143.5 630.72,-140 630.72,-147"/>
</a>
</g>
</g>
<!-- Node10 -->
<g id="Node000010" class="node">
<title>Node10</title>
<g id="a_Node000010"><a xlink:href="classmc_1_1integrators_1_1ISMontecarloIntegrator.html#abf2130a6963f200e1baaff24c29028f4" target="_top" xlink:title="Compute the integral using importance sampling.">
<polygon fill="white" stroke="#666666" points="791,-115.5 630,-115.5 630,-85.5 791,-85.5 791,-115.5"/>
<text text-anchor="start" x="638" y="-103.5" font-family="Helvetica,sans-Serif" font-size="10.00">mc::integrators::ISMontecarlo</text>
<text text-anchor="middle" x="710.5" y="-92.5" font-family="Helvetica,sans-Serif" font-size="10.00">Integrator::integrate</text>
</a>
</g>
</g>
<!-- Node4&#45;&gt;Node10 -->
<g id="edge11_Node000004_Node000010" class="edge">
<title>Node4&#45;&gt;Node10</title>
<g id="a_edge11_Node000004_Node000010"><a xlink:title=" ">
<path fill="none" stroke="#63b8ff" d="M577.62,-133.96C596.14,-129.26 619.07,-123.44 640.58,-117.98"/>
<polygon fill="#63b8ff" stroke="#63b8ff" points="641.51,-121.36 650.35,-115.51 639.79,-114.57 641.51,-121.36"/>
</a>
</g>
</g>
<!-- Node11 -->
<g id="Node000011" class="node">
<title>Node11</title>
<g id="a_Node000011"><a xlink:href="classmc_1_1integrators_1_1MontecarloIntegrator.html#af3c3289ee5bdf681b6c1ffa75c45b950" target="_top" xlink:title="Legacy integration routine (deprecated).">
<polygon fill="white" stroke="#666666" points="786.5,-67.5 634.5,-67.5 634.5,-37.5 786.5,-37.5 786.5,-67.5"/>
<text text-anchor="start" x="642.5" y="-55.5" font-family="Helvetica,sans-Serif" font-size="10.00">mc::integrators::Montecarlo</text>
<text text-anchor="middle" x="710.5" y="-44.5" font-family="Helvetica,sans-Serif" font-size="10.00">Integrator::OLDintegrate</text>
</a>
</g>
</g>
<!-- Node4&#45;&gt;Node11 -->
<g id="edge12_Node000004_Node000011" class="edge">
<title>Node4&#45;&gt;Node11</title>
<g id="a_edge12_Node000004_Node000011"><a xlink:title=" ">
<path fill="none" stroke="#63b8ff" d="M550.28,-133.94C566.21,-119.58 598.34,-92.45 630,-76.5 633.77,-74.6 637.71,-72.83 641.74,-71.17"/>
<polygon fill="#63b8ff" stroke="#63b8ff" points="643.18,-74.36 651.26,-67.51 640.67,-67.83 643.18,-74.36"/>
</a>
</g>
</g>
<!-- Node12 -->
<g id="Node000012" class="node">
<title>Node12</title>
<g id="a_Node000012"><a xlink:href="benchmarks_8cpp.html#a5137168fd2eda60894530765f6d5af1e" target="_top" xlink:title="Export benchmark results to CSV file for analysis.">
<polygon fill="white" stroke="#666666" points="748.5,-19 672.5,-19 672.5,0 748.5,0 748.5,-19"/>
<text text-anchor="middle" x="710.5" y="-7" font-family="Helvetica,sans-Serif" font-size="10.00">saveResults</text>
</a>
</g>
</g>
<!-- Node4&#45;&gt;Node12 -->
<g id="edge13_Node000004_Node000012" class="edge">
<title>Node4&#45;&gt;Node12</title>
<g id="a_edge13_Node000004_Node000012"><a xlink:title=" ">
<path fill="none" stroke="#63b8ff" d="M544.74,-133.67C556.09,-111.22 587.12,-56.03 630,-28.5 639.6,-22.34 651.01,-18.17 662.15,-15.36"/>
<polygon fill="#63b8ff" stroke="#63b8ff" points="663.23,-18.7 672.24,-13.13 661.72,-11.87 663.23,-18.7"/>
</a>
</g>
</g>
<!-- Node6 -->
<g id="Node000006" class="node">
<title>Node6</title>
<g id="a_Node000006"><a xlink:href="classmc_1_1domains_1_1IntegrationDomain.html#a31b3f4605bad5c5c88c6df26d05b27e9" target="_top" xlink:title="Test whether a point lies inside the domain.">
<polygon fill="white" stroke="#666666" points="966,-276.5 827,-276.5 827,-246.5 966,-246.5 966,-276.5"/>
<text text-anchor="start" x="835" y="-264.5" font-family="Helvetica,sans-Serif" font-size="10.00">mc::domains::Integration</text>
<text text-anchor="middle" x="896.5" y="-253.5" font-family="Helvetica,sans-Serif" font-size="10.00">Domain::isInside</text>
</a>
</g>
</g>
<!-- Node5&#45;&gt;Node6 -->
<g id="edge5_Node000005_Node000006" class="edge">
<title>Node5&#45;&gt;Node6</title>
<g id="a_edge5_Node000005_Node000006"><a xlink:title=" ">
<path fill="none" stroke="#63b8ff" d="M779.23,-268.45C791.52,-267.72 804.43,-266.94 817,-266.19"/>
<polygon fill="#63b8ff" stroke="#63b8ff" points="817.22,-269.69 826.99,-265.6 816.8,-262.7 817.22,-269.69"/>
</a>
</g>
</g>
<!-- Node7&#45;&gt;Node6 -->
<g id="edge8_Node000007_Node000006" class="edge">
<title>Node7&#45;&gt;Node6</title>
<g id="a_edge8_Node000007_Node000006"><a xlink:title=" ">
<path fill="none" stroke="#63b8ff" d="M777.67,-237.81C790.39,-240.36 803.84,-243.07 816.91,-245.7"/>
<polygon fill="#63b8ff" stroke="#63b8ff" points="816.33,-249.15 826.82,-247.69 817.71,-242.29 816.33,-249.15"/>
</a>
</g>
</g>
<!-- Node7&#45;&gt;Node8 -->
<g id="edge7_Node000007_Node000008" class="edge">
<title>Node7&#45;&gt;Node8</title>
<g id="a_edge7_Node000007_Node000008"><a xlink:title=" ">
<path fill="none" stroke="#63b8ff" d="M777.67,-216.59C790.27,-215.08 803.57,-213.49 816.53,-211.94"/>
<polygon fill="#63b8ff" stroke="#63b8ff" points="817.31,-215.37 826.82,-210.71 816.47,-208.42 817.31,-215.37"/>
</a>
</g>
</g>
<!-- Node14 -->
<g id="Node000014" class="node">
<title>Node14</title>
<g id="a_Node000014"><a xlink:href="integration__benchmarks_8cpp.html#a8e8ec5f730687f28e899a352327aaae7" target="_top" xlink:title=" ">
<polygon fill="white" stroke="#666666" points="448,-172 320,-172 320,-153 448,-153 448,-172"/>
<text text-anchor="middle" x="384" y="-160" font-family="Helvetica,sans-Serif" font-size="10.00">runCylinderBenchmark</text>
</a>
</g>
</g>
<!-- Node13&#45;&gt;Node14 -->
<g id="edge15_Node000013_Node000014" class="edge">
<title>Node13&#45;&gt;Node14</title>
<g id="a_edge15_Node000013_Node000014"><a xlink:title=" ">
<path fill="none" stroke="#63b8ff" d="M276.11,-162.5C287.15,-162.5 298.61,-162.5 309.76,-162.5"/>
<polygon fill="#63b8ff" stroke="#63b8ff" points="309.88,-166 319.88,-162.5 309.88,-159 309.88,-166"/>
</a>
</g>
</g>
<!-- Node14&#45;&gt;Node4 -->
<g id="edge16_Node000014_Node000004" class="edge">
<title>Node14&#45;&gt;Node4</title>
<g id="a_edge16_Node000014_Node000004"><a xlink:title=" ">
<path fill="none" stroke="#63b8ff" d="M448.11,-154.66C456.54,-153.62 465.19,-152.54 473.64,-151.49"/>
<polygon fill="#63b8ff" stroke="#63b8ff" points="474.32,-154.93 483.82,-150.23 473.46,-147.99 474.32,-154.93"/>
</a>
</g>
</g>
<!-- Node16 -->
<g id="Node000016" class="node">
<title>Node16</title>
<g id="a_Node000016"><a xlink:href="integration__benchmarks_8cpp.html#a25748d355cbdda15ae29a66bcbe51f89" target="_top" xlink:title=" ">
<polygon fill="white" stroke="#666666" points="439,-135 329,-135 329,-116 439,-116 439,-135"/>
<text text-anchor="middle" x="384" y="-123" font-family="Helvetica,sans-Serif" font-size="10.00">runRectBenchmark</text>
</a>
</g>
</g>
<!-- Node15&#45;&gt;Node16 -->
<g id="edge18_Node000015_Node000016" class="edge">
<title>Node15&#45;&gt;Node16</title>
<g id="a_edge18_Node000015_Node000016"><a xlink:title=" ">
<path fill="none" stroke="#63b8ff" d="M284.22,-125.5C295.73,-125.5 307.5,-125.5 318.72,-125.5"/>
<polygon fill="#63b8ff" stroke="#63b8ff" points="318.84,-129 328.84,-125.5 318.84,-122 318.84,-129"/>
</a>
</g>
</g>
<!-- Node16&#45;&gt;Node4 -->
<g id="edge19_Node000016_Node000004" class="edge">
<title>Node16&#45;&gt;Node4</title>
<g id="a_edge19_Node000016_Node000004"><a xlink:title=" ">
<path fill="none" stroke="#63b8ff" d="M439.37,-131.9C450.53,-133.21 462.38,-134.6 473.85,-135.95"/>
<polygon fill="#63b8ff" stroke="#63b8ff" points="473.46,-139.43 483.8,-137.12 474.28,-132.48 473.46,-139.43"/>
</a>
</g>
</g>
<!-- Node18 -->
<g id="Node000018" class="node">
<title>Node18</title>
<g id="a_Node000018"><a xlink:href="integration__benchmarks_8cpp.html#a3c984a5a2c7ead1c8f5970b324e84a63" target="_top" xlink:title=" ">
<polygon fill="white" stroke="#666666" points="445,-98 323,-98 323,-79 445,-79 445,-98"/>
<text text-anchor="middle" x="384" y="-86" font-family="Helvetica,sans-Serif" font-size="10.00">runSphereBenchmark</text>
</a>
</g>
</g>
<!-- Node17&#45;&gt;Node18 -->
<g id="edge21_Node000017_Node000018" class="edge">
<title>Node17&#45;&gt;Node18</title>
<g id="a_edge21_Node000017_Node000018"><a xlink:title=" ">
<path fill="none" stroke="#63b8ff" d="M273.35,-88.5C286.17,-88.5 299.65,-88.5 312.61,-88.5"/>
<polygon fill="#63b8ff" stroke="#63b8ff" points="312.86,-92 322.86,-88.5 312.86,-85 312.86,-92"/>
</a>
</g>
</g>
<!-- Node18&#45;&gt;Node4 -->
<g id="edge22_Node000018_Node000004" class="edge">
<title>Node18&#45;&gt;Node4</title>
<g id="a_edge22_Node000018_Node000004"><a xlink:title=" ">
<path fill="none" stroke="#63b8ff" d="M421.2,-98.09C430.03,-100.64 439.4,-103.52 448,-106.5 468.01,-113.45 490.01,-122.47 507.25,-129.86"/>
<polygon fill="#63b8ff" stroke="#63b8ff" points="506.23,-133.23 516.8,-134 509.02,-126.81 506.23,-133.23"/>
</a>
</g>
</g>
</g>
</svg>

<g id="navigator" transform="translate(0 0)" fill="#404254">
  <rect fill="#f2f5e9" fill-opacity="0.5" stroke="#606060" stroke-width=".5" x="0" y="0" width="60" height="60"/>
  <use id="zoomplus" xlink:href="#zoomPlus" x="17" y="9" onmousedown="handleZoom(evt,'in')"/>
  <use id="zoomminus" xlink:href="#zoomMin" x="42" y="9" onmousedown="handleZoom(evt,'out')"/>
  <use id="reset" xlink:href="#resetDef" x="30" y="36" onmousedown="handleReset()"/>
   <use id="arrowup" xlink:href="#arrowUp" x="0" y="0" onmousedown="handlePan(0,-1)"/>
  <use id="arrowright" xlink:href="#arrowRight" x="0" y="0" onmousedown="handlePan(1,0)"/>
  <use id="arrowdown" xlink:href="#arrowDown" x="0" y="0" onmousedown="handlePan(0,1)"/>
  <use id="arrowleft" xlink:href="#arrowLeft" x="0" y="0" onmousedown="handlePan(-1,0)"/>
</g>
<svg viewBox="0 0 15 15" width="100%" height="30px" preserveAspectRatio="xMaxYMin meet">
 <g id="arrow_out" transform="scale(0.3 0.3)">
  <a xlink:href="integration__benchmarks_8cpp_af10bdafc891e971dcbd059c16a8094ee_cgraph_org.svg" target="_base">
   <rect id="button" ry="5" rx="5" y="6" x="6" height="38" width="38"
        fill="#f2f5e9" fill-opacity="0.5" stroke="#606060" stroke-width="1.0"/>
   <path id="arrow"
     d="M 11.500037,31.436501 C 11.940474,20.09759 22.043105,11.32322 32.158766,21.979434 L 37.068811,17.246167 C 37.068811,17.246167 37.088388,32 37.088388,32 L 22.160133,31.978069 C 22.160133,31.978069 26.997745,27.140456 26.997745,27.140456 C 18.528582,18.264221 13.291696,25.230495 11.500037,31.436501 z"
     style="fill:#404040;"/>
  </a>
 </g>
</svg>

<style type='text/css'>
<![CDATA[
[data-mouse-over-selected='false'] { opacity: 0.7; }
[data-mouse-over-selected='true']  { opacity: 1.0; }
]]>
</style>
<script type="application/ecmascript"><![CDATA[
document.addEventListener('DOMContentLoaded', (event) => {
  highlightEdges();
  highlightAdjacentNodes();
});
]]></script>
</svg>
