<?xml version="1.0" encoding="UTF-8" standalone="no"?>
<!DOCTYPE svg PUBLIC "-//W3C//DTD SVG 1.1//EN"
 "http://www.w3.org/Graphics/SVG/1.1/DTD/svg11.dtd">
<!-- Generated by graphviz version 2.43.0 (0)
 -->
<!-- Title: runCircleBenchmark Pages: 1 -->
<svg width="642pt" height="296pt"
 viewBox="0.00 0.00 642.00 295.50" xmlns="http://www.w3.org/2000/svg" xmlns:xlink="http://www.w3.org/1999/xlink">
<g id="graph0" class="graph" transform="scale(1 1) rotate(0) translate(4 291.5)">
<title>runCircleBenchmark</title>
<!-- Node1 -->
<g id="Node000001" class="node">
<title>Node1</title>
<g id="a_Node000001"><a xlink:title=" ">
<polygon fill="#999999" stroke="#666666" points="116,-153 0,-153 0,-134 116,-134 116,-153"/>
<text text-anchor="middle" x="58" y="-141" font-family="Helvetica,sans-Serif" font-size="10.00">runCircleBenchmark</text>
</a>
</g>
</g>
<!-- Node2 -->
<g id="Node000002" class="node">
<title>Node2</title>
<g id="a_Node000002"><a xlink:href="integration__benchmarks_8cpp.html#a58f19e7e4fd19b25ecf0048ccb82e705" target="_top" xlink:title="Generic execution loop for integration benchmarks.">
<polygon fill="white" stroke="#666666" points="262,-153 152,-153 152,-134 262,-134 262,-153"/>
<text text-anchor="middle" x="207" y="-141" font-family="Helvetica,sans-Serif" font-size="10.00">executeBenchmark</text>
</a>
</g>
</g>
<!-- Node1&#45;&gt;Node2 -->
<g id="edge1_Node000001_Node000002" class="edge">
<title>Node1&#45;&gt;Node2</title>
<g id="a_edge1_Node000001_Node000002"><a xlink:title=" ">
<path fill="none" stroke="#63b8ff" d="M116.25,-143.5C124.51,-143.5 133.05,-143.5 141.43,-143.5"/>
<polygon fill="#63b8ff" stroke="#63b8ff" points="141.55,-147 151.55,-143.5 141.55,-140 141.55,-147"/>
</a>
</g>
</g>
<!-- Node3 -->
<g id="Node000003" class="node">
<title>Node3</title>
<g id="a_Node000003"><a xlink:href="namespacemc_1_1utils.html#a0dffb17257bac930060d199a00fe8eef" target="_top" xlink:title=" ">
<polygon fill="white" stroke="#666666" points="447,-287.5 310,-287.5 310,-257.5 447,-257.5 447,-287.5"/>
<text text-anchor="start" x="318" y="-275.5" font-family="Helvetica,sans-Serif" font-size="10.00">mc::utils::createFunction</text>
<text text-anchor="middle" x="378.5" y="-264.5" font-family="Helvetica,sans-Serif" font-size="10.00">GnuplotScript</text>
</a>
</g>
</g>
<!-- Node2&#45;&gt;Node3 -->
<g id="edge2_Node000002_Node000003" class="edge">
<title>Node2&#45;&gt;Node3</title>
<g id="a_edge2_Node000002_Node000003"><a xlink:title=" ">
<path fill="none" stroke="#63b8ff" d="M213.63,-153.23C226.12,-173.93 258.18,-222.54 298,-248.5 300.43,-250.09 302.98,-251.57 305.6,-252.96"/>
<polygon fill="#63b8ff" stroke="#63b8ff" points="304.23,-256.19 314.76,-257.33 307.24,-249.87 304.23,-256.19"/>
</a>
</g>
</g>
<!-- Node5 -->
<g id="Node000005" class="node">
<title>Node5</title>
<g id="a_Node000005"><a xlink:href="namespacemc_1_1utils.html#afaf70e150a29a11f0ab5e121caa951d3" target="_top" xlink:title=" ">
<polygon fill="white" stroke="#666666" points="445.5,-239.5 311.5,-239.5 311.5,-209.5 445.5,-209.5 445.5,-239.5"/>
<text text-anchor="start" x="319.5" y="-227.5" font-family="Helvetica,sans-Serif" font-size="10.00">mc::utils::createGnuplot</text>
<text text-anchor="middle" x="378.5" y="-216.5" font-family="Helvetica,sans-Serif" font-size="10.00">Script</text>
</a>
</g>
</g>
<!-- Node2&#45;&gt;Node5 -->
<g id="edge4_Node000002_Node000005" class="edge">
<title>Node2&#45;&gt;Node5</title>
<g id="a_edge4_Node000002_Node000005"><a xlink:title=" ">
<path fill="none" stroke="#63b8ff" d="M222.86,-153.16C240.35,-164.29 270.53,-182.67 298,-195.5 305.75,-199.12 314.09,-202.59 322.34,-205.8"/>
<polygon fill="#63b8ff" stroke="#63b8ff" points="321.37,-209.17 331.96,-209.43 323.84,-202.62 321.37,-209.17"/>
</a>
</g>
</g>
<!-- Node6 -->
<g id="Node000006" class="node">
<title>Node6</title>
<g id="a_Node000006"><a xlink:href="classmc_1_1domains_1_1IntegrationDomain.html#a31ef4c76c6c87398eebbb660df203384" target="_top" xlink:title="Get the axis&#45;aligned bounding box of the domain.">
<polygon fill="white" stroke="#666666" points="634,-217.5 495,-217.5 495,-187.5 634,-187.5 634,-217.5"/>
<text text-anchor="start" x="503" y="-205.5" font-family="Helvetica,sans-Serif" font-size="10.00">mc::domains::Integration</text>
<text text-anchor="middle" x="564.5" y="-194.5" font-family="Helvetica,sans-Serif" font-size="10.00">Domain::getBounds</text>
</a>
</g>
</g>
<!-- Node2&#45;&gt;Node6 -->
<g id="edge8_Node000002_Node000006" class="edge">
<title>Node2&#45;&gt;Node6</title>
<g id="a_edge8_Node000002_Node000006"><a xlink:title=" ">
<path fill="none" stroke="#63b8ff" d="M253.71,-153.05C267.88,-155.9 283.57,-158.94 298,-161.5 360.67,-172.6 431.96,-183.52 484.88,-191.29"/>
<polygon fill="#63b8ff" stroke="#63b8ff" points="484.48,-194.77 494.88,-192.75 485.49,-187.84 484.48,-194.77"/>
</a>
</g>
</g>
<!-- Node7 -->
<g id="Node000007" class="node">
<title>Node7</title>
<g id="a_Node000007"><a xlink:href="namespacemc_1_1rng.html#ae8ce618a80ac94df709f1fd752932c0c" target="_top" xlink:title="Get the current global seed.">
<polygon fill="white" stroke="#666666" points="448,-153 309,-153 309,-134 448,-134 448,-153"/>
<text text-anchor="middle" x="378.5" y="-141" font-family="Helvetica,sans-Serif" font-size="10.00">mc::rng::get_global_seed</text>
</a>
</g>
</g>
<!-- Node2&#45;&gt;Node7 -->
<g id="edge7_Node000002_Node000007" class="edge">
<title>Node2&#45;&gt;Node7</title>
<g id="a_edge7_Node000002_Node000007"><a xlink:title=" ">
<path fill="none" stroke="#63b8ff" d="M262.1,-143.5C273.68,-143.5 286.14,-143.5 298.44,-143.5"/>
<polygon fill="#63b8ff" stroke="#63b8ff" points="298.72,-147 308.72,-143.5 298.72,-140 298.72,-147"/>
</a>
</g>
</g>
<!-- Node8 -->
<g id="Node000008" class="node">
<title>Node8</title>
<g id="a_Node000008"><a xlink:href="classmc_1_1integrators_1_1ISMontecarloIntegrator.html#abf2130a6963f200e1baaff24c29028f4" target="_top" xlink:title="Compute the integral using importance sampling.">
<polygon fill="white" stroke="#666666" points="459,-115.5 298,-115.5 298,-85.5 459,-85.5 459,-115.5"/>
<text text-anchor="start" x="306" y="-103.5" font-family="Helvetica,sans-Serif" font-size="10.00">mc::integrators::ISMontecarlo</text>
<text text-anchor="middle" x="378.5" y="-92.5" font-family="Helvetica,sans-Serif" font-size="10.00">Integrator::integrate</text>
</a>
</g>
</g>
<!-- Node2&#45;&gt;Node8 -->
<g id="edge9_Node000002_Node000008" class="edge">
<title>Node2&#45;&gt;Node8</title>
<g id="a_edge9_Node000002_Node000008"><a xlink:title=" ">
<path fill="none" stroke="#63b8ff" d="M245.62,-133.96C264.14,-129.26 287.07,-123.44 308.58,-117.98"/>
<polygon fill="#63b8ff" stroke="#63b8ff" points="309.51,-121.36 318.35,-115.51 307.79,-114.57 309.51,-121.36"/>
</a>
</g>
</g>
<!-- Node9 -->
<g id="Node000009" class="node">
<title>Node9</title>
<g id="a_Node000009"><a xlink:href="classmc_1_1integrators_1_1MontecarloIntegrator.html#af3c3289ee5bdf681b6c1ffa75c45b950" target="_top" xlink:title="Legacy integration routine (deprecated).">
<polygon fill="white" stroke="#666666" points="454.5,-67.5 302.5,-67.5 302.5,-37.5 454.5,-37.5 454.5,-67.5"/>
<text text-anchor="start" x="310.5" y="-55.5" font-family="Helvetica,sans-Serif" font-size="10.00">mc::integrators::Montecarlo</text>
<text text-anchor="middle" x="378.5" y="-44.5" font-family="Helvetica,sans-Serif" font-size="10.00">Integrator::OLDintegrate</text>
</a>
</g>
</g>
<!-- Node2&#45;&gt;Node9 -->
<g id="edge10_Node000002_Node000009" class="edge">
<title>Node2&#45;&gt;Node9</title>
<g id="a_edge10_Node000002_Node000009"><a xlink:title=" ">
<path fill="none" stroke="#63b8ff" d="M218.28,-133.94C234.21,-119.58 266.34,-92.45 298,-76.5 301.77,-74.6 305.71,-72.83 309.74,-71.17"/>
<polygon fill="#63b8ff" stroke="#63b8ff" points="311.18,-74.36 319.26,-67.51 308.67,-67.83 311.18,-74.36"/>
</a>
</g>
</g>
<!-- Node10 -->
<g id="Node000010" class="node">
<title>Node10</title>
<g id="a_Node000010"><a xlink:href="benchmarks_8cpp.html#a5137168fd2eda60894530765f6d5af1e" target="_top" xlink:title="Export benchmark results to CSV file for analysis.">
<polygon fill="white" stroke="#666666" points="416.5,-19 340.5,-19 340.5,0 416.5,0 416.5,-19"/>
<text text-anchor="middle" x="378.5" y="-7" font-family="Helvetica,sans-Serif" font-size="10.00">saveResults</text>
</a>
</g>
</g>
<!-- Node2&#45;&gt;Node10 -->
<g id="edge11_Node000002_Node000010" class="edge">
<title>Node2&#45;&gt;Node10</title>
<g id="a_edge11_Node000002_Node000010"><a xlink:title=" ">
<path fill="none" stroke="#63b8ff" d="M212.74,-133.67C224.09,-111.22 255.12,-56.03 298,-28.5 307.6,-22.34 319.01,-18.17 330.15,-15.36"/>
<polygon fill="#63b8ff" stroke="#63b8ff" points="331.23,-18.7 340.24,-13.13 329.72,-11.87 331.23,-18.7"/>
</a>
</g>
</g>
<!-- Node4 -->
<g id="Node000004" class="node">
<title>Node4</title>
<g id="a_Node000004"><a xlink:href="classmc_1_1domains_1_1IntegrationDomain.html#a31b3f4605bad5c5c88c6df26d05b27e9" target="_top" xlink:title="Test whether a point lies inside the domain.">
<polygon fill="white" stroke="#666666" points="634,-276.5 495,-276.5 495,-246.5 634,-246.5 634,-276.5"/>
<text text-anchor="start" x="503" y="-264.5" font-family="Helvetica,sans-Serif" font-size="10.00">mc::domains::Integration</text>
<text text-anchor="middle" x="564.5" y="-253.5" font-family="Helvetica,sans-Serif" font-size="10.00">Domain::isInside</text>
</a>
</g>
</g>
<!-- Node3&#45;&gt;Node4 -->
<g id="edge3_Node000003_Node000004" class="edge">
<title>Node3&#45;&gt;Node4</title>
<g id="a_edge3_Node000003_Node000004"><a xlink:title=" ">
<path fill="none" stroke="#63b8ff" d="M447.23,-268.45C459.52,-267.72 472.43,-266.94 485,-266.19"/>
<polygon fill="#63b8ff" stroke="#63b8ff" points="485.22,-269.69 494.99,-265.6 484.8,-262.7 485.22,-269.69"/>
</a>
</g>
</g>
<!-- Node5&#45;&gt;Node4 -->
<g id="edge6_Node000005_Node000004" class="edge">
<title>Node5&#45;&gt;Node4</title>
<g id="a_edge6_Node000005_Node000004"><a xlink:title=" ">
<path fill="none" stroke="#63b8ff" d="M445.67,-237.81C458.39,-240.36 471.84,-243.07 484.91,-245.7"/>
<polygon fill="#63b8ff" stroke="#63b8ff" points="484.33,-249.15 494.82,-247.69 485.71,-242.29 484.33,-249.15"/>
</a>
</g>
</g>
<!-- Node5&#45;&gt;Node6 -->
<g id="edge5_Node000005_Node000006" class="edge">
<title>Node5&#45;&gt;Node6</title>
<g id="a_edge5_Node000005_Node000006"><a xlink:title=" ">
<path fill="none" stroke="#63b8ff" d="M445.67,-216.59C458.27,-215.08 471.57,-213.49 484.53,-211.94"/>
<polygon fill="#63b8ff" stroke="#63b8ff" points="485.31,-215.37 494.82,-210.71 484.47,-208.42 485.31,-215.37"/>
</a>
</g>
</g>
</g>
</svg>
