<?xml version="1.0" encoding="UTF-8" standalone="no"?>
<!DOCTYPE svg PUBLIC "-//W3C//DTD SVG 1.1//EN"
 "http://www.w3.org/Graphics/SVG/1.1/DTD/svg11.dtd">
<!-- Generated by graphviz version 2.43.0 (0)
 -->
<!-- Title: runBenchmarks Pages: 1 -->
<svg width="262pt" height="138pt"
 viewBox="0.00 0.00 262.00 138.00" xmlns="http://www.w3.org/2000/svg" xmlns:xlink="http://www.w3.org/1999/xlink">
<g id="graph0" class="graph" transform="scale(1 1) rotate(0) translate(4 134)">
<title>runBenchmarks</title>
<!-- Node1 -->
<g id="Node000001" class="node">
<title>Node1</title>
<g id="a_Node000001"><a xlink:title="Run integration benchmarks with hardcoded integrands.">
<polygon fill="#999999" stroke="#666666" points="93,-74 0,-74 0,-55 93,-55 93,-74"/>
<text text-anchor="middle" x="46.5" y="-62" font-family="Helvetica,sans-Serif" font-size="10.00">runBenchmarks</text>
</a>
</g>
</g>
<!-- Node2 -->
<g id="Node000002" class="node">
<title>Node2</title>
<g id="a_Node000002"><a xlink:href="benchmarks_8hpp.html#af99e742f0b4c5c7723e5ffa15355be22" target="_top" xlink:title="2D circular integration: f(x,y) = x²+y² over unit disk">
<polygon fill="white" stroke="#666666" points="239.5,-130 143.5,-130 143.5,-111 239.5,-111 239.5,-130"/>
<text text-anchor="middle" x="191.5" y="-118" font-family="Helvetica,sans-Serif" font-size="10.00">circleIntegration</text>
</a>
</g>
</g>
<!-- Node1&#45;&gt;Node2 -->
<g id="edge1_Node000001_Node000002" class="edge">
<title>Node1&#45;&gt;Node2</title>
<g id="a_edge1_Node000001_Node000002"><a xlink:title=" ">
<path fill="none" stroke="#63b8ff" d="M65.93,-74.07C82.23,-82.3 106.8,-94.13 129,-102.5 134.07,-104.41 139.45,-106.25 144.82,-107.97"/>
<polygon fill="#63b8ff" stroke="#63b8ff" points="143.84,-111.33 154.43,-110.93 145.9,-104.64 143.84,-111.33"/>
</a>
</g>
</g>
<!-- Node3 -->
<g id="Node000003" class="node">
<title>Node3</title>
<g id="a_Node000003"><a xlink:href="benchmarks_8hpp.html#a22b965eaaee3c41de1ab71c3608d43ac" target="_top" xlink:title="3D cylindrical integration: hypercylinder base with height">
<polygon fill="white" stroke="#666666" points="246,-93 137,-93 137,-74 246,-74 246,-93"/>
<text text-anchor="middle" x="191.5" y="-81" font-family="Helvetica,sans-Serif" font-size="10.00">cylinderIntegration</text>
</a>
</g>
</g>
<!-- Node1&#45;&gt;Node3 -->
<g id="edge2_Node000001_Node000003" class="edge">
<title>Node1&#45;&gt;Node3</title>
<g id="a_edge2_Node000001_Node000003"><a xlink:title=" ">
<path fill="none" stroke="#63b8ff" d="M93.14,-70.56C103.78,-71.98 115.3,-73.51 126.57,-75.01"/>
<polygon fill="#63b8ff" stroke="#63b8ff" points="126.44,-78.52 136.81,-76.37 127.36,-71.58 126.44,-78.52"/>
</a>
</g>
</g>
<!-- Node4 -->
<g id="Node000004" class="node">
<title>Node4</title>
<g id="a_Node000004"><a xlink:href="benchmarks_8hpp.html#ad178402c8d0a8b2853cb70eab42a6119" target="_top" xlink:title="2D rectangular integration over axis&#45;aligned box">
<polygon fill="white" stroke="#666666" points="254,-56 129,-56 129,-37 254,-37 254,-56"/>
<text text-anchor="middle" x="191.5" y="-44" font-family="Helvetica,sans-Serif" font-size="10.00">rectangularIntegration</text>
</a>
</g>
</g>
<!-- Node1&#45;&gt;Node4 -->
<g id="edge3_Node000001_Node000004" class="edge">
<title>Node1&#45;&gt;Node4</title>
<g id="a_edge3_Node000001_Node000004"><a xlink:title=" ">
<path fill="none" stroke="#63b8ff" d="M93.14,-58.76C101.31,-57.73 109.99,-56.63 118.68,-55.54"/>
<polygon fill="#63b8ff" stroke="#63b8ff" points="119.38,-58.98 128.86,-54.26 118.5,-52.04 119.38,-58.98"/>
</a>
</g>
</g>
<!-- Node5 -->
<g id="Node000005" class="node">
<title>Node5</title>
<g id="a_Node000005"><a xlink:href="benchmarks_8hpp.html#a9222d62f0eadd14e4a8f592220405a9c" target="_top" xlink:title="3D spherical integration: f(x,y,z) = x²+y²+z² over unit ball">
<polygon fill="white" stroke="#666666" points="243,-19 140,-19 140,0 243,0 243,-19"/>
<text text-anchor="middle" x="191.5" y="-7" font-family="Helvetica,sans-Serif" font-size="10.00">sphereIntegration</text>
</a>
</g>
</g>
<!-- Node1&#45;&gt;Node5 -->
<g id="edge4_Node000001_Node000005" class="edge">
<title>Node1&#45;&gt;Node5</title>
<g id="a_edge4_Node000001_Node000005"><a xlink:title=" ">
<path fill="none" stroke="#63b8ff" d="M67.33,-54.97C83.67,-47.3 107.56,-36.52 129,-28.5 134.91,-26.29 141.2,-24.13 147.42,-22.11"/>
<polygon fill="#63b8ff" stroke="#63b8ff" points="148.59,-25.41 157.07,-19.06 146.48,-18.74 148.59,-25.41"/>
</a>
</g>
</g>
</g>
</svg>
