<?xml version="1.0" encoding="UTF-8" standalone="no"?>
<!DOCTYPE svg PUBLIC "-//W3C//DTD SVG 1.1//EN"
 "http://www.w3.org/Graphics/SVG/1.1/DTD/svg11.dtd">
<!-- Generated by graphviz version 2.43.0 (0)
 -->
<!-- Title: cylinderIntegrationParser Pages: 1 -->
<svg width="829pt" height="296pt"
 viewBox="0.00 0.00 829.00 295.50" xmlns="http://www.w3.org/2000/svg" xmlns:xlink="http://www.w3.org/1999/xlink">
<g id="graph0" class="graph" transform="scale(1 1) rotate(0) translate(4 291.5)">
<title>cylinderIntegrationParser</title>
<!-- Node1 -->
<g id="Node000001" class="node">
<title>Node1</title>
<g id="a_Node000001"><a xlink:title=" ">
<polygon fill="#999999" stroke="#666666" points="139,-153 0,-153 0,-134 139,-134 139,-153"/>
<text text-anchor="middle" x="69.5" y="-141" font-family="Helvetica,sans-Serif" font-size="10.00">cylinderIntegrationParser</text>
</a>
</g>
</g>
<!-- Node2 -->
<g id="Node000002" class="node">
<title>Node2</title>
<g id="a_Node000002"><a xlink:href="integration__benchmarks_8cpp.html#a8e8ec5f730687f28e899a352327aaae7" target="_top" xlink:title=" ">
<polygon fill="white" stroke="#666666" points="303,-153 175,-153 175,-134 303,-134 303,-153"/>
<text text-anchor="middle" x="239" y="-141" font-family="Helvetica,sans-Serif" font-size="10.00">runCylinderBenchmark</text>
</a>
</g>
</g>
<!-- Node1&#45;&gt;Node2 -->
<g id="edge1_Node000001_Node000002" class="edge">
<title>Node1&#45;&gt;Node2</title>
<g id="a_edge1_Node000001_Node000002"><a xlink:title=" ">
<path fill="none" stroke="#63b8ff" d="M139.11,-143.5C147.53,-143.5 156.15,-143.5 164.63,-143.5"/>
<polygon fill="#63b8ff" stroke="#63b8ff" points="164.88,-147 174.88,-143.5 164.88,-140 164.88,-147"/>
</a>
</g>
</g>
<!-- Node3 -->
<g id="Node000003" class="node">
<title>Node3</title>
<g id="a_Node000003"><a xlink:href="integration__benchmarks_8cpp.html#a58f19e7e4fd19b25ecf0048ccb82e705" target="_top" xlink:title="Generic execution loop for integration benchmarks.">
<polygon fill="white" stroke="#666666" points="449,-153 339,-153 339,-134 449,-134 449,-153"/>
<text text-anchor="middle" x="394" y="-141" font-family="Helvetica,sans-Serif" font-size="10.00">executeBenchmark</text>
</a>
</g>
</g>
<!-- Node2&#45;&gt;Node3 -->
<g id="edge2_Node000002_Node000003" class="edge">
<title>Node2&#45;&gt;Node3</title>
<g id="a_edge2_Node000002_Node000003"><a xlink:title=" ">
<path fill="none" stroke="#63b8ff" d="M303.11,-143.5C311.54,-143.5 320.19,-143.5 328.64,-143.5"/>
<polygon fill="#63b8ff" stroke="#63b8ff" points="328.82,-147 338.82,-143.5 328.82,-140 328.82,-147"/>
</a>
</g>
</g>
<!-- Node4 -->
<g id="Node000004" class="node">
<title>Node4</title>
<g id="a_Node000004"><a xlink:href="namespacemc_1_1utils.html#a0dffb17257bac930060d199a00fe8eef" target="_top" xlink:title=" ">
<polygon fill="white" stroke="#666666" points="634,-287.5 497,-287.5 497,-257.5 634,-257.5 634,-287.5"/>
<text text-anchor="start" x="505" y="-275.5" font-family="Helvetica,sans-Serif" font-size="10.00">mc::utils::createFunction</text>
<text text-anchor="middle" x="565.5" y="-264.5" font-family="Helvetica,sans-Serif" font-size="10.00">GnuplotScript</text>
</a>
</g>
</g>
<!-- Node3&#45;&gt;Node4 -->
<g id="edge3_Node000003_Node000004" class="edge">
<title>Node3&#45;&gt;Node4</title>
<g id="a_edge3_Node000003_Node000004"><a xlink:title=" ">
<path fill="none" stroke="#63b8ff" d="M400.63,-153.23C413.12,-173.93 445.18,-222.54 485,-248.5 487.43,-250.09 489.98,-251.57 492.6,-252.96"/>
<polygon fill="#63b8ff" stroke="#63b8ff" points="491.23,-256.19 501.76,-257.33 494.24,-249.87 491.23,-256.19"/>
</a>
</g>
</g>
<!-- Node6 -->
<g id="Node000006" class="node">
<title>Node6</title>
<g id="a_Node000006"><a xlink:href="namespacemc_1_1utils.html#afaf70e150a29a11f0ab5e121caa951d3" target="_top" xlink:title=" ">
<polygon fill="white" stroke="#666666" points="632.5,-239.5 498.5,-239.5 498.5,-209.5 632.5,-209.5 632.5,-239.5"/>
<text text-anchor="start" x="506.5" y="-227.5" font-family="Helvetica,sans-Serif" font-size="10.00">mc::utils::createGnuplot</text>
<text text-anchor="middle" x="565.5" y="-216.5" font-family="Helvetica,sans-Serif" font-size="10.00">Script</text>
</a>
</g>
</g>
<!-- Node3&#45;&gt;Node6 -->
<g id="edge5_Node000003_Node000006" class="edge">
<title>Node3&#45;&gt;Node6</title>
<g id="a_edge5_Node000003_Node000006"><a xlink:title=" ">
<path fill="none" stroke="#63b8ff" d="M409.86,-153.16C427.35,-164.29 457.53,-182.67 485,-195.5 492.75,-199.12 501.09,-202.59 509.34,-205.8"/>
<polygon fill="#63b8ff" stroke="#63b8ff" points="508.37,-209.17 518.96,-209.43 510.84,-202.62 508.37,-209.17"/>
</a>
</g>
</g>
<!-- Node7 -->
<g id="Node000007" class="node">
<title>Node7</title>
<g id="a_Node000007"><a xlink:href="classmc_1_1domains_1_1IntegrationDomain.html#a31ef4c76c6c87398eebbb660df203384" target="_top" xlink:title="Get the axis&#45;aligned bounding box of the domain.">
<polygon fill="white" stroke="#666666" points="821,-217.5 682,-217.5 682,-187.5 821,-187.5 821,-217.5"/>
<text text-anchor="start" x="690" y="-205.5" font-family="Helvetica,sans-Serif" font-size="10.00">mc::domains::Integration</text>
<text text-anchor="middle" x="751.5" y="-194.5" font-family="Helvetica,sans-Serif" font-size="10.00">Domain::getBounds</text>
</a>
</g>
</g>
<!-- Node3&#45;&gt;Node7 -->
<g id="edge9_Node000003_Node000007" class="edge">
<title>Node3&#45;&gt;Node7</title>
<g id="a_edge9_Node000003_Node000007"><a xlink:title=" ">
<path fill="none" stroke="#63b8ff" d="M440.71,-153.05C454.88,-155.9 470.57,-158.94 485,-161.5 547.67,-172.6 618.96,-183.52 671.88,-191.29"/>
<polygon fill="#63b8ff" stroke="#63b8ff" points="671.48,-194.77 681.88,-192.75 672.49,-187.84 671.48,-194.77"/>
</a>
</g>
</g>
<!-- Node8 -->
<g id="Node000008" class="node">
<title>Node8</title>
<g id="a_Node000008"><a xlink:href="namespacemc_1_1rng.html#ae8ce618a80ac94df709f1fd752932c0c" target="_top" xlink:title="Get the current global seed.">
<polygon fill="white" stroke="#666666" points="635,-153 496,-153 496,-134 635,-134 635,-153"/>
<text text-anchor="middle" x="565.5" y="-141" font-family="Helvetica,sans-Serif" font-size="10.00">mc::rng::get_global_seed</text>
</a>
</g>
</g>
<!-- Node3&#45;&gt;Node8 -->
<g id="edge8_Node000003_Node000008" class="edge">
<title>Node3&#45;&gt;Node8</title>
<g id="a_edge8_Node000003_Node000008"><a xlink:title=" ">
<path fill="none" stroke="#63b8ff" d="M449.1,-143.5C460.68,-143.5 473.14,-143.5 485.44,-143.5"/>
<polygon fill="#63b8ff" stroke="#63b8ff" points="485.72,-147 495.72,-143.5 485.72,-140 485.72,-147"/>
</a>
</g>
</g>
<!-- Node9 -->
<g id="Node000009" class="node">
<title>Node9</title>
<g id="a_Node000009"><a xlink:href="classmc_1_1integrators_1_1ISMontecarloIntegrator.html#abf2130a6963f200e1baaff24c29028f4" target="_top" xlink:title="Compute the integral using importance sampling.">
<polygon fill="white" stroke="#666666" points="646,-115.5 485,-115.5 485,-85.5 646,-85.5 646,-115.5"/>
<text text-anchor="start" x="493" y="-103.5" font-family="Helvetica,sans-Serif" font-size="10.00">mc::integrators::ISMontecarlo</text>
<text text-anchor="middle" x="565.5" y="-92.5" font-family="Helvetica,sans-Serif" font-size="10.00">Integrator::integrate</text>
</a>
</g>
</g>
<!-- Node3&#45;&gt;Node9 -->
<g id="edge10_Node000003_Node000009" class="edge">
<title>Node3&#45;&gt;Node9</title>
<g id="a_edge10_Node000003_Node000009"><a xlink:title=" ">
<path fill="none" stroke="#63b8ff" d="M432.62,-133.96C451.14,-129.26 474.07,-123.44 495.58,-117.98"/>
<polygon fill="#63b8ff" stroke="#63b8ff" points="496.51,-121.36 505.35,-115.51 494.79,-114.57 496.51,-121.36"/>
</a>
</g>
</g>
<!-- Node10 -->
<g id="Node000010" class="node">
<title>Node10</title>
<g id="a_Node000010"><a xlink:href="classmc_1_1integrators_1_1MontecarloIntegrator.html#af3c3289ee5bdf681b6c1ffa75c45b950" target="_top" xlink:title="Legacy integration routine (deprecated).">
<polygon fill="white" stroke="#666666" points="641.5,-67.5 489.5,-67.5 489.5,-37.5 641.5,-37.5 641.5,-67.5"/>
<text text-anchor="start" x="497.5" y="-55.5" font-family="Helvetica,sans-Serif" font-size="10.00">mc::integrators::Montecarlo</text>
<text text-anchor="middle" x="565.5" y="-44.5" font-family="Helvetica,sans-Serif" font-size="10.00">Integrator::OLDintegrate</text>
</a>
</g>
</g>
<!-- Node3&#45;&gt;Node10 -->
<g id="edge11_Node000003_Node000010" class="edge">
<title>Node3&#45;&gt;Node10</title>
<g id="a_edge11_Node000003_Node000010"><a xlink:title=" ">
<path fill="none" stroke="#63b8ff" d="M405.28,-133.94C421.21,-119.58 453.34,-92.45 485,-76.5 488.77,-74.6 492.71,-72.83 496.74,-71.17"/>
<polygon fill="#63b8ff" stroke="#63b8ff" points="498.18,-74.36 506.26,-67.51 495.67,-67.83 498.18,-74.36"/>
</a>
</g>
</g>
<!-- Node11 -->
<g id="Node000011" class="node">
<title>Node11</title>
<g id="a_Node000011"><a xlink:href="benchmarks_8cpp.html#a5137168fd2eda60894530765f6d5af1e" target="_top" xlink:title="Export benchmark results to CSV file for analysis.">
<polygon fill="white" stroke="#666666" points="603.5,-19 527.5,-19 527.5,0 603.5,0 603.5,-19"/>
<text text-anchor="middle" x="565.5" y="-7" font-family="Helvetica,sans-Serif" font-size="10.00">saveResults</text>
</a>
</g>
</g>
<!-- Node3&#45;&gt;Node11 -->
<g id="edge12_Node000003_Node000011" class="edge">
<title>Node3&#45;&gt;Node11</title>
<g id="a_edge12_Node000003_Node000011"><a xlink:title=" ">
<path fill="none" stroke="#63b8ff" d="M399.74,-133.67C411.09,-111.22 442.12,-56.03 485,-28.5 494.6,-22.34 506.01,-18.17 517.15,-15.36"/>
<polygon fill="#63b8ff" stroke="#63b8ff" points="518.23,-18.7 527.24,-13.13 516.72,-11.87 518.23,-18.7"/>
</a>
</g>
</g>
<!-- Node5 -->
<g id="Node000005" class="node">
<title>Node5</title>
<g id="a_Node000005"><a xlink:href="classmc_1_1domains_1_1IntegrationDomain.html#a31b3f4605bad5c5c88c6df26d05b27e9" target="_top" xlink:title="Test whether a point lies inside the domain.">
<polygon fill="white" stroke="#666666" points="821,-276.5 682,-276.5 682,-246.5 821,-246.5 821,-276.5"/>
<text text-anchor="start" x="690" y="-264.5" font-family="Helvetica,sans-Serif" font-size="10.00">mc::domains::Integration</text>
<text text-anchor="middle" x="751.5" y="-253.5" font-family="Helvetica,sans-Serif" font-size="10.00">Domain::isInside</text>
</a>
</g>
</g>
<!-- Node4&#45;&gt;Node5 -->
<g id="edge4_Node000004_Node000005" class="edge">
<title>Node4&#45;&gt;Node5</title>
<g id="a_edge4_Node000004_Node000005"><a xlink:title=" ">
<path fill="none" stroke="#63b8ff" d="M634.23,-268.45C646.52,-267.72 659.43,-266.94 672,-266.19"/>
<polygon fill="#63b8ff" stroke="#63b8ff" points="672.22,-269.69 681.99,-265.6 671.8,-262.7 672.22,-269.69"/>
</a>
</g>
</g>
<!-- Node6&#45;&gt;Node5 -->
<g id="edge7_Node000006_Node000005" class="edge">
<title>Node6&#45;&gt;Node5</title>
<g id="a_edge7_Node000006_Node000005"><a xlink:title=" ">
<path fill="none" stroke="#63b8ff" d="M632.67,-237.81C645.39,-240.36 658.84,-243.07 671.91,-245.7"/>
<polygon fill="#63b8ff" stroke="#63b8ff" points="671.33,-249.15 681.82,-247.69 672.71,-242.29 671.33,-249.15"/>
</a>
</g>
</g>
<!-- Node6&#45;&gt;Node7 -->
<g id="edge6_Node000006_Node000007" class="edge">
<title>Node6&#45;&gt;Node7</title>
<g id="a_edge6_Node000006_Node000007"><a xlink:title=" ">
<path fill="none" stroke="#63b8ff" d="M632.67,-216.59C645.27,-215.08 658.57,-213.49 671.53,-211.94"/>
<polygon fill="#63b8ff" stroke="#63b8ff" points="672.31,-215.37 681.82,-210.71 671.47,-208.42 672.31,-215.37"/>
</a>
</g>
</g>
</g>
</svg>
