<?xml version="1.0" encoding="UTF-8" standalone="no"?>
<!DOCTYPE svg PUBLIC "-//W3C//DTD SVG 1.1//EN"
 "http://www.w3.org/Graphics/SVG/1.1/DTD/svg11.dtd">
<!-- Generated by graphviz version 2.43.0 (0)
 -->
<!-- Title: runCylinderBenchmark Pages: 1 -->
<svg width="654pt" height="296pt"
 viewBox="0.00 0.00 654.00 295.50" xmlns="http://www.w3.org/2000/svg" xmlns:xlink="http://www.w3.org/1999/xlink">
<g id="graph0" class="graph" transform="scale(1 1) rotate(0) translate(4 291.5)">
<title>runCylinderBenchmark</title>
<!-- Node1 -->
<g id="Node000001" class="node">
<title>Node1</title>
<g id="a_Node000001"><a xlink:title=" ">
<polygon fill="#999999" stroke="#666666" points="128,-153 0,-153 0,-134 128,-134 128,-153"/>
<text text-anchor="middle" x="64" y="-141" font-family="Helvetica,sans-Serif" font-size="10.00">runCylinderBenchmark</text>
</a>
</g>
</g>
<!-- Node2 -->
<g id="Node000002" class="node">
<title>Node2</title>
<g id="a_Node000002"><a xlink:href="integration__benchmarks_8cpp.html#a58f19e7e4fd19b25ecf0048ccb82e705" target="_top" xlink:title="Generic execution loop for integration benchmarks.">
<polygon fill="white" stroke="#666666" points="274,-153 164,-153 164,-134 274,-134 274,-153"/>
<text text-anchor="middle" x="219" y="-141" font-family="Helvetica,sans-Serif" font-size="10.00">executeBenchmark</text>
</a>
</g>
</g>
<!-- Node1&#45;&gt;Node2 -->
<g id="edge1_Node000001_Node000002" class="edge">
<title>Node1&#45;&gt;Node2</title>
<g id="a_edge1_Node000001_Node000002"><a xlink:title=" ">
<path fill="none" stroke="#63b8ff" d="M128.11,-143.5C136.54,-143.5 145.19,-143.5 153.64,-143.5"/>
<polygon fill="#63b8ff" stroke="#63b8ff" points="153.82,-147 163.82,-143.5 153.82,-140 153.82,-147"/>
</a>
</g>
</g>
<!-- Node3 -->
<g id="Node000003" class="node">
<title>Node3</title>
<g id="a_Node000003"><a xlink:href="namespacemc_1_1utils.html#a0dffb17257bac930060d199a00fe8eef" target="_top" xlink:title=" ">
<polygon fill="white" stroke="#666666" points="459,-287.5 322,-287.5 322,-257.5 459,-257.5 459,-287.5"/>
<text text-anchor="start" x="330" y="-275.5" font-family="Helvetica,sans-Serif" font-size="10.00">mc::utils::createFunction</text>
<text text-anchor="middle" x="390.5" y="-264.5" font-family="Helvetica,sans-Serif" font-size="10.00">GnuplotScript</text>
</a>
</g>
</g>
<!-- Node2&#45;&gt;Node3 -->
<g id="edge2_Node000002_Node000003" class="edge">
<title>Node2&#45;&gt;Node3</title>
<g id="a_edge2_Node000002_Node000003"><a xlink:title=" ">
<path fill="none" stroke="#63b8ff" d="M225.63,-153.23C238.12,-173.93 270.18,-222.54 310,-248.5 312.43,-250.09 314.98,-251.57 317.6,-252.96"/>
<polygon fill="#63b8ff" stroke="#63b8ff" points="316.23,-256.19 326.76,-257.33 319.24,-249.87 316.23,-256.19"/>
</a>
</g>
</g>
<!-- Node5 -->
<g id="Node000005" class="node">
<title>Node5</title>
<g id="a_Node000005"><a xlink:href="namespacemc_1_1utils.html#afaf70e150a29a11f0ab5e121caa951d3" target="_top" xlink:title=" ">
<polygon fill="white" stroke="#666666" points="457.5,-239.5 323.5,-239.5 323.5,-209.5 457.5,-209.5 457.5,-239.5"/>
<text text-anchor="start" x="331.5" y="-227.5" font-family="Helvetica,sans-Serif" font-size="10.00">mc::utils::createGnuplot</text>
<text text-anchor="middle" x="390.5" y="-216.5" font-family="Helvetica,sans-Serif" font-size="10.00">Script</text>
</a>
</g>
</g>
<!-- Node2&#45;&gt;Node5 -->
<g id="edge4_Node000002_Node000005" class="edge">
<title>Node2&#45;&gt;Node5</title>
<g id="a_edge4_Node000002_Node000005"><a xlink:title=" ">
<path fill="none" stroke="#63b8ff" d="M234.86,-153.16C252.35,-164.29 282.53,-182.67 310,-195.5 317.75,-199.12 326.09,-202.59 334.34,-205.8"/>
<polygon fill="#63b8ff" stroke="#63b8ff" points="333.37,-209.17 343.96,-209.43 335.84,-202.62 333.37,-209.17"/>
</a>
</g>
</g>
<!-- Node6 -->
<g id="Node000006" class="node">
<title>Node6</title>
<g id="a_Node000006"><a xlink:href="classmc_1_1domains_1_1IntegrationDomain.html#a31ef4c76c6c87398eebbb660df203384" target="_top" xlink:title="Get the axis&#45;aligned bounding box of the domain.">
<polygon fill="white" stroke="#666666" points="646,-217.5 507,-217.5 507,-187.5 646,-187.5 646,-217.5"/>
<text text-anchor="start" x="515" y="-205.5" font-family="Helvetica,sans-Serif" font-size="10.00">mc::domains::Integration</text>
<text text-anchor="middle" x="576.5" y="-194.5" font-family="Helvetica,sans-Serif" font-size="10.00">Domain::getBounds</text>
</a>
</g>
</g>
<!-- Node2&#45;&gt;Node6 -->
<g id="edge8_Node000002_Node000006" class="edge">
<title>Node2&#45;&gt;Node6</title>
<g id="a_edge8_Node000002_Node000006"><a xlink:title=" ">
<path fill="none" stroke="#63b8ff" d="M265.71,-153.05C279.88,-155.9 295.57,-158.94 310,-161.5 372.67,-172.6 443.96,-183.52 496.88,-191.29"/>
<polygon fill="#63b8ff" stroke="#63b8ff" points="496.48,-194.77 506.88,-192.75 497.49,-187.84 496.48,-194.77"/>
</a>
</g>
</g>
<!-- Node7 -->
<g id="Node000007" class="node">
<title>Node7</title>
<g id="a_Node000007"><a xlink:href="namespacemc_1_1rng.html#ae8ce618a80ac94df709f1fd752932c0c" target="_top" xlink:title="Get the current global seed.">
<polygon fill="white" stroke="#666666" points="460,-153 321,-153 321,-134 460,-134 460,-153"/>
<text text-anchor="middle" x="390.5" y="-141" font-family="Helvetica,sans-Serif" font-size="10.00">mc::rng::get_global_seed</text>
</a>
</g>
</g>
<!-- Node2&#45;&gt;Node7 -->
<g id="edge7_Node000002_Node000007" class="edge">
<title>Node2&#45;&gt;Node7</title>
<g id="a_edge7_Node000002_Node000007"><a xlink:title=" ">
<path fill="none" stroke="#63b8ff" d="M274.1,-143.5C285.68,-143.5 298.14,-143.5 310.44,-143.5"/>
<polygon fill="#63b8ff" stroke="#63b8ff" points="310.72,-147 320.72,-143.5 310.72,-140 310.72,-147"/>
</a>
</g>
</g>
<!-- Node8 -->
<g id="Node000008" class="node">
<title>Node8</title>
<g id="a_Node000008"><a xlink:href="classmc_1_1integrators_1_1ISMontecarloIntegrator.html#abf2130a6963f200e1baaff24c29028f4" target="_top" xlink:title="Compute the integral using importance sampling.">
<polygon fill="white" stroke="#666666" points="471,-115.5 310,-115.5 310,-85.5 471,-85.5 471,-115.5"/>
<text text-anchor="start" x="318" y="-103.5" font-family="Helvetica,sans-Serif" font-size="10.00">mc::integrators::ISMontecarlo</text>
<text text-anchor="middle" x="390.5" y="-92.5" font-family="Helvetica,sans-Serif" font-size="10.00">Integrator::integrate</text>
</a>
</g>
</g>
<!-- Node2&#45;&gt;Node8 -->
<g id="edge9_Node000002_Node000008" class="edge">
<title>Node2&#45;&gt;Node8</title>
<g id="a_edge9_Node000002_Node000008"><a xlink:title=" ">
<path fill="none" stroke="#63b8ff" d="M257.62,-133.96C276.14,-129.26 299.07,-123.44 320.58,-117.98"/>
<polygon fill="#63b8ff" stroke="#63b8ff" points="321.51,-121.36 330.35,-115.51 319.79,-114.57 321.51,-121.36"/>
</a>
</g>
</g>
<!-- Node9 -->
<g id="Node000009" class="node">
<title>Node9</title>
<g id="a_Node000009"><a xlink:href="classmc_1_1integrators_1_1MontecarloIntegrator.html#af3c3289ee5bdf681b6c1ffa75c45b950" target="_top" xlink:title="Legacy integration routine (deprecated).">
<polygon fill="white" stroke="#666666" points="466.5,-67.5 314.5,-67.5 314.5,-37.5 466.5,-37.5 466.5,-67.5"/>
<text text-anchor="start" x="322.5" y="-55.5" font-family="Helvetica,sans-Serif" font-size="10.00">mc::integrators::Montecarlo</text>
<text text-anchor="middle" x="390.5" y="-44.5" font-family="Helvetica,sans-Serif" font-size="10.00">Integrator::OLDintegrate</text>
</a>
</g>
</g>
<!-- Node2&#45;&gt;Node9 -->
<g id="edge10_Node000002_Node000009" class="edge">
<title>Node2&#45;&gt;Node9</title>
<g id="a_edge10_Node000002_Node000009"><a xlink:title=" ">
<path fill="none" stroke="#63b8ff" d="M230.28,-133.94C246.21,-119.58 278.34,-92.45 310,-76.5 313.77,-74.6 317.71,-72.83 321.74,-71.17"/>
<polygon fill="#63b8ff" stroke="#63b8ff" points="323.18,-74.36 331.26,-67.51 320.67,-67.83 323.18,-74.36"/>
</a>
</g>
</g>
<!-- Node10 -->
<g id="Node000010" class="node">
<title>Node10</title>
<g id="a_Node000010"><a xlink:href="benchmarks_8cpp.html#a5137168fd2eda60894530765f6d5af1e" target="_top" xlink:title="Export benchmark results to CSV file for analysis.">
<polygon fill="white" stroke="#666666" points="428.5,-19 352.5,-19 352.5,0 428.5,0 428.5,-19"/>
<text text-anchor="middle" x="390.5" y="-7" font-family="Helvetica,sans-Serif" font-size="10.00">saveResults</text>
</a>
</g>
</g>
<!-- Node2&#45;&gt;Node10 -->
<g id="edge11_Node000002_Node000010" class="edge">
<title>Node2&#45;&gt;Node10</title>
<g id="a_edge11_Node000002_Node000010"><a xlink:title=" ">
<path fill="none" stroke="#63b8ff" d="M224.74,-133.67C236.09,-111.22 267.12,-56.03 310,-28.5 319.6,-22.34 331.01,-18.17 342.15,-15.36"/>
<polygon fill="#63b8ff" stroke="#63b8ff" points="343.23,-18.7 352.24,-13.13 341.72,-11.87 343.23,-18.7"/>
</a>
</g>
</g>
<!-- Node4 -->
<g id="Node000004" class="node">
<title>Node4</title>
<g id="a_Node000004"><a xlink:href="classmc_1_1domains_1_1IntegrationDomain.html#a31b3f4605bad5c5c88c6df26d05b27e9" target="_top" xlink:title="Test whether a point lies inside the domain.">
<polygon fill="white" stroke="#666666" points="646,-276.5 507,-276.5 507,-246.5 646,-246.5 646,-276.5"/>
<text text-anchor="start" x="515" y="-264.5" font-family="Helvetica,sans-Serif" font-size="10.00">mc::domains::Integration</text>
<text text-anchor="middle" x="576.5" y="-253.5" font-family="Helvetica,sans-Serif" font-size="10.00">Domain::isInside</text>
</a>
</g>
</g>
<!-- Node3&#45;&gt;Node4 -->
<g id="edge3_Node000003_Node000004" class="edge">
<title>Node3&#45;&gt;Node4</title>
<g id="a_edge3_Node000003_Node000004"><a xlink:title=" ">
<path fill="none" stroke="#63b8ff" d="M459.23,-268.45C471.52,-267.72 484.43,-266.94 497,-266.19"/>
<polygon fill="#63b8ff" stroke="#63b8ff" points="497.22,-269.69 506.99,-265.6 496.8,-262.7 497.22,-269.69"/>
</a>
</g>
</g>
<!-- Node5&#45;&gt;Node4 -->
<g id="edge6_Node000005_Node000004" class="edge">
<title>Node5&#45;&gt;Node4</title>
<g id="a_edge6_Node000005_Node000004"><a xlink:title=" ">
<path fill="none" stroke="#63b8ff" d="M457.67,-237.81C470.39,-240.36 483.84,-243.07 496.91,-245.7"/>
<polygon fill="#63b8ff" stroke="#63b8ff" points="496.33,-249.15 506.82,-247.69 497.71,-242.29 496.33,-249.15"/>
</a>
</g>
</g>
<!-- Node5&#45;&gt;Node6 -->
<g id="edge5_Node000005_Node000006" class="edge">
<title>Node5&#45;&gt;Node6</title>
<g id="a_edge5_Node000005_Node000006"><a xlink:title=" ">
<path fill="none" stroke="#63b8ff" d="M457.67,-216.59C470.27,-215.08 483.57,-213.49 496.53,-211.94"/>
<polygon fill="#63b8ff" stroke="#63b8ff" points="497.31,-215.37 506.82,-210.71 496.47,-208.42 497.31,-215.37"/>
</a>
</g>
</g>
</g>
</svg>
