<?xml version="1.0" encoding="UTF-8" standalone="no"?>
<!DOCTYPE svg PUBLIC "-//W3C//DTD SVG 1.1//EN"
 "http://www.w3.org/Graphics/SVG/1.1/DTD/svg11.dtd">
<!-- Generated by graphviz version 2.43.0 (0)
 -->
<!-- Title: cylinderIntegration Pages: 1 -->
<svg width="799pt" height="296pt"
 viewBox="0.00 0.00 799.00 295.50" xmlns="http://www.w3.org/2000/svg" xmlns:xlink="http://www.w3.org/1999/xlink">
<g id="graph0" class="graph" transform="scale(1 1) rotate(0) translate(4 291.5)">
<title>cylinderIntegration</title>
<!-- Node1 -->
<g id="Node000001" class="node">
<title>Node1</title>
<g id="a_Node000001"><a xlink:title=" ">
<polygon fill="#999999" stroke="#666666" points="109,-153 0,-153 0,-134 109,-134 109,-153"/>
<text text-anchor="middle" x="54.5" y="-141" font-family="Helvetica,sans-Serif" font-size="10.00">cylinderIntegration</text>
</a>
</g>
</g>
<!-- Node2 -->
<g id="Node000002" class="node">
<title>Node2</title>
<g id="a_Node000002"><a xlink:href="integration__benchmarks_8cpp.html#a8e8ec5f730687f28e899a352327aaae7" target="_top" xlink:title=" ">
<polygon fill="white" stroke="#666666" points="273,-153 145,-153 145,-134 273,-134 273,-153"/>
<text text-anchor="middle" x="209" y="-141" font-family="Helvetica,sans-Serif" font-size="10.00">runCylinderBenchmark</text>
</a>
</g>
</g>
<!-- Node1&#45;&gt;Node2 -->
<g id="edge1_Node000001_Node000002" class="edge">
<title>Node1&#45;&gt;Node2</title>
<g id="a_edge1_Node000001_Node000002"><a xlink:title=" ">
<path fill="none" stroke="#63b8ff" d="M109.27,-143.5C117.52,-143.5 126.17,-143.5 134.76,-143.5"/>
<polygon fill="#63b8ff" stroke="#63b8ff" points="134.8,-147 144.8,-143.5 134.8,-140 134.8,-147"/>
</a>
</g>
</g>
<!-- Node3 -->
<g id="Node000003" class="node">
<title>Node3</title>
<g id="a_Node000003"><a xlink:href="integration__benchmarks_8cpp.html#a58f19e7e4fd19b25ecf0048ccb82e705" target="_top" xlink:title="Generic execution loop for integration benchmarks.">
<polygon fill="white" stroke="#666666" points="419,-153 309,-153 309,-134 419,-134 419,-153"/>
<text text-anchor="middle" x="364" y="-141" font-family="Helvetica,sans-Serif" font-size="10.00">executeBenchmark</text>
</a>
</g>
</g>
<!-- Node2&#45;&gt;Node3 -->
<g id="edge2_Node000002_Node000003" class="edge">
<title>Node2&#45;&gt;Node3</title>
<g id="a_edge2_Node000002_Node000003"><a xlink:title=" ">
<path fill="none" stroke="#63b8ff" d="M273.11,-143.5C281.54,-143.5 290.19,-143.5 298.64,-143.5"/>
<polygon fill="#63b8ff" stroke="#63b8ff" points="298.82,-147 308.82,-143.5 298.82,-140 298.82,-147"/>
</a>
</g>
</g>
<!-- Node4 -->
<g id="Node000004" class="node">
<title>Node4</title>
<g id="a_Node000004"><a xlink:href="namespacemc_1_1utils.html#a0dffb17257bac930060d199a00fe8eef" target="_top" xlink:title=" ">
<polygon fill="white" stroke="#666666" points="604,-287.5 467,-287.5 467,-257.5 604,-257.5 604,-287.5"/>
<text text-anchor="start" x="475" y="-275.5" font-family="Helvetica,sans-Serif" font-size="10.00">mc::utils::createFunction</text>
<text text-anchor="middle" x="535.5" y="-264.5" font-family="Helvetica,sans-Serif" font-size="10.00">GnuplotScript</text>
</a>
</g>
</g>
<!-- Node3&#45;&gt;Node4 -->
<g id="edge3_Node000003_Node000004" class="edge">
<title>Node3&#45;&gt;Node4</title>
<g id="a_edge3_Node000003_Node000004"><a xlink:title=" ">
<path fill="none" stroke="#63b8ff" d="M370.63,-153.23C383.12,-173.93 415.18,-222.54 455,-248.5 457.43,-250.09 459.98,-251.57 462.6,-252.96"/>
<polygon fill="#63b8ff" stroke="#63b8ff" points="461.23,-256.19 471.76,-257.33 464.24,-249.87 461.23,-256.19"/>
</a>
</g>
</g>
<!-- Node6 -->
<g id="Node000006" class="node">
<title>Node6</title>
<g id="a_Node000006"><a xlink:href="namespacemc_1_1utils.html#afaf70e150a29a11f0ab5e121caa951d3" target="_top" xlink:title=" ">
<polygon fill="white" stroke="#666666" points="602.5,-239.5 468.5,-239.5 468.5,-209.5 602.5,-209.5 602.5,-239.5"/>
<text text-anchor="start" x="476.5" y="-227.5" font-family="Helvetica,sans-Serif" font-size="10.00">mc::utils::createGnuplot</text>
<text text-anchor="middle" x="535.5" y="-216.5" font-family="Helvetica,sans-Serif" font-size="10.00">Script</text>
</a>
</g>
</g>
<!-- Node3&#45;&gt;Node6 -->
<g id="edge5_Node000003_Node000006" class="edge">
<title>Node3&#45;&gt;Node6</title>
<g id="a_edge5_Node000003_Node000006"><a xlink:title=" ">
<path fill="none" stroke="#63b8ff" d="M379.86,-153.16C397.35,-164.29 427.53,-182.67 455,-195.5 462.75,-199.12 471.09,-202.59 479.34,-205.8"/>
<polygon fill="#63b8ff" stroke="#63b8ff" points="478.37,-209.17 488.96,-209.43 480.84,-202.62 478.37,-209.17"/>
</a>
</g>
</g>
<!-- Node7 -->
<g id="Node000007" class="node">
<title>Node7</title>
<g id="a_Node000007"><a xlink:href="classmc_1_1domains_1_1IntegrationDomain.html#a31ef4c76c6c87398eebbb660df203384" target="_top" xlink:title="Get the axis&#45;aligned bounding box of the domain.">
<polygon fill="white" stroke="#666666" points="791,-217.5 652,-217.5 652,-187.5 791,-187.5 791,-217.5"/>
<text text-anchor="start" x="660" y="-205.5" font-family="Helvetica,sans-Serif" font-size="10.00">mc::domains::Integration</text>
<text text-anchor="middle" x="721.5" y="-194.5" font-family="Helvetica,sans-Serif" font-size="10.00">Domain::getBounds</text>
</a>
</g>
</g>
<!-- Node3&#45;&gt;Node7 -->
<g id="edge9_Node000003_Node000007" class="edge">
<title>Node3&#45;&gt;Node7</title>
<g id="a_edge9_Node000003_Node000007"><a xlink:title=" ">
<path fill="none" stroke="#63b8ff" d="M410.71,-153.05C424.88,-155.9 440.57,-158.94 455,-161.5 517.67,-172.6 588.96,-183.52 641.88,-191.29"/>
<polygon fill="#63b8ff" stroke="#63b8ff" points="641.48,-194.77 651.88,-192.75 642.49,-187.84 641.48,-194.77"/>
</a>
</g>
</g>
<!-- Node8 -->
<g id="Node000008" class="node">
<title>Node8</title>
<g id="a_Node000008"><a xlink:href="namespacemc_1_1rng.html#ae8ce618a80ac94df709f1fd752932c0c" target="_top" xlink:title="Get the current global seed.">
<polygon fill="white" stroke="#666666" points="605,-153 466,-153 466,-134 605,-134 605,-153"/>
<text text-anchor="middle" x="535.5" y="-141" font-family="Helvetica,sans-Serif" font-size="10.00">mc::rng::get_global_seed</text>
</a>
</g>
</g>
<!-- Node3&#45;&gt;Node8 -->
<g id="edge8_Node000003_Node000008" class="edge">
<title>Node3&#45;&gt;Node8</title>
<g id="a_edge8_Node000003_Node000008"><a xlink:title=" ">
<path fill="none" stroke="#63b8ff" d="M419.1,-143.5C430.68,-143.5 443.14,-143.5 455.44,-143.5"/>
<polygon fill="#63b8ff" stroke="#63b8ff" points="455.72,-147 465.72,-143.5 455.72,-140 455.72,-147"/>
</a>
</g>
</g>
<!-- Node9 -->
<g id="Node000009" class="node">
<title>Node9</title>
<g id="a_Node000009"><a xlink:href="classmc_1_1integrators_1_1ISMontecarloIntegrator.html#abf2130a6963f200e1baaff24c29028f4" target="_top" xlink:title="Compute the integral using importance sampling.">
<polygon fill="white" stroke="#666666" points="616,-115.5 455,-115.5 455,-85.5 616,-85.5 616,-115.5"/>
<text text-anchor="start" x="463" y="-103.5" font-family="Helvetica,sans-Serif" font-size="10.00">mc::integrators::ISMontecarlo</text>
<text text-anchor="middle" x="535.5" y="-92.5" font-family="Helvetica,sans-Serif" font-size="10.00">Integrator::integrate</text>
</a>
</g>
</g>
<!-- Node3&#45;&gt;Node9 -->
<g id="edge10_Node000003_Node000009" class="edge">
<title>Node3&#45;&gt;Node9</title>
<g id="a_edge10_Node000003_Node000009"><a xlink:title=" ">
<path fill="none" stroke="#63b8ff" d="M402.62,-133.96C421.14,-129.26 444.07,-123.44 465.58,-117.98"/>
<polygon fill="#63b8ff" stroke="#63b8ff" points="466.51,-121.36 475.35,-115.51 464.79,-114.57 466.51,-121.36"/>
</a>
</g>
</g>
<!-- Node10 -->
<g id="Node000010" class="node">
<title>Node10</title>
<g id="a_Node000010"><a xlink:href="classmc_1_1integrators_1_1MontecarloIntegrator.html#af3c3289ee5bdf681b6c1ffa75c45b950" target="_top" xlink:title="Legacy integration routine (deprecated).">
<polygon fill="white" stroke="#666666" points="611.5,-67.5 459.5,-67.5 459.5,-37.5 611.5,-37.5 611.5,-67.5"/>
<text text-anchor="start" x="467.5" y="-55.5" font-family="Helvetica,sans-Serif" font-size="10.00">mc::integrators::Montecarlo</text>
<text text-anchor="middle" x="535.5" y="-44.5" font-family="Helvetica,sans-Serif" font-size="10.00">Integrator::OLDintegrate</text>
</a>
</g>
</g>
<!-- Node3&#45;&gt;Node10 -->
<g id="edge11_Node000003_Node000010" class="edge">
<title>Node3&#45;&gt;Node10</title>
<g id="a_edge11_Node000003_Node000010"><a xlink:title=" ">
<path fill="none" stroke="#63b8ff" d="M375.28,-133.94C391.21,-119.58 423.34,-92.45 455,-76.5 458.77,-74.6 462.71,-72.83 466.74,-71.17"/>
<polygon fill="#63b8ff" stroke="#63b8ff" points="468.18,-74.36 476.26,-67.51 465.67,-67.83 468.18,-74.36"/>
</a>
</g>
</g>
<!-- Node11 -->
<g id="Node000011" class="node">
<title>Node11</title>
<g id="a_Node000011"><a xlink:href="benchmarks_8cpp.html#a5137168fd2eda60894530765f6d5af1e" target="_top" xlink:title="Export benchmark results to CSV file for analysis.">
<polygon fill="white" stroke="#666666" points="573.5,-19 497.5,-19 497.5,0 573.5,0 573.5,-19"/>
<text text-anchor="middle" x="535.5" y="-7" font-family="Helvetica,sans-Serif" font-size="10.00">saveResults</text>
</a>
</g>
</g>
<!-- Node3&#45;&gt;Node11 -->
<g id="edge12_Node000003_Node000011" class="edge">
<title>Node3&#45;&gt;Node11</title>
<g id="a_edge12_Node000003_Node000011"><a xlink:title=" ">
<path fill="none" stroke="#63b8ff" d="M369.74,-133.67C381.09,-111.22 412.12,-56.03 455,-28.5 464.6,-22.34 476.01,-18.17 487.15,-15.36"/>
<polygon fill="#63b8ff" stroke="#63b8ff" points="488.23,-18.7 497.24,-13.13 486.72,-11.87 488.23,-18.7"/>
</a>
</g>
</g>
<!-- Node5 -->
<g id="Node000005" class="node">
<title>Node5</title>
<g id="a_Node000005"><a xlink:href="classmc_1_1domains_1_1IntegrationDomain.html#a31b3f4605bad5c5c88c6df26d05b27e9" target="_top" xlink:title="Test whether a point lies inside the domain.">
<polygon fill="white" stroke="#666666" points="791,-276.5 652,-276.5 652,-246.5 791,-246.5 791,-276.5"/>
<text text-anchor="start" x="660" y="-264.5" font-family="Helvetica,sans-Serif" font-size="10.00">mc::domains::Integration</text>
<text text-anchor="middle" x="721.5" y="-253.5" font-family="Helvetica,sans-Serif" font-size="10.00">Domain::isInside</text>
</a>
</g>
</g>
<!-- Node4&#45;&gt;Node5 -->
<g id="edge4_Node000004_Node000005" class="edge">
<title>Node4&#45;&gt;Node5</title>
<g id="a_edge4_Node000004_Node000005"><a xlink:title=" ">
<path fill="none" stroke="#63b8ff" d="M604.23,-268.45C616.52,-267.72 629.43,-266.94 642,-266.19"/>
<polygon fill="#63b8ff" stroke="#63b8ff" points="642.22,-269.69 651.99,-265.6 641.8,-262.7 642.22,-269.69"/>
</a>
</g>
</g>
<!-- Node6&#45;&gt;Node5 -->
<g id="edge7_Node000006_Node000005" class="edge">
<title>Node6&#45;&gt;Node5</title>
<g id="a_edge7_Node000006_Node000005"><a xlink:title=" ">
<path fill="none" stroke="#63b8ff" d="M602.67,-237.81C615.39,-240.36 628.84,-243.07 641.91,-245.7"/>
<polygon fill="#63b8ff" stroke="#63b8ff" points="641.33,-249.15 651.82,-247.69 642.71,-242.29 641.33,-249.15"/>
</a>
</g>
</g>
<!-- Node6&#45;&gt;Node7 -->
<g id="edge6_Node000006_Node000007" class="edge">
<title>Node6&#45;&gt;Node7</title>
<g id="a_edge6_Node000006_Node000007"><a xlink:title=" ">
<path fill="none" stroke="#63b8ff" d="M602.67,-216.59C615.27,-215.08 628.57,-213.49 641.53,-211.94"/>
<polygon fill="#63b8ff" stroke="#63b8ff" points="642.31,-215.37 651.82,-210.71 641.47,-208.42 642.31,-215.37"/>
</a>
</g>
</g>
</g>
</svg>
