<?xml version="1.0" encoding="UTF-8" standalone="no"?>
<!DOCTYPE svg PUBLIC "-//W3C//DTD SVG 1.1//EN"
 "http://www.w3.org/Graphics/SVG/1.1/DTD/svg11.dtd">
<!-- Generated by graphviz version 2.43.0 (0)
 -->
<!-- Title: circleIntegration Pages: 1 -->
<svg width="774pt" height="296pt"
 viewBox="0.00 0.00 774.00 295.50" xmlns="http://www.w3.org/2000/svg" xmlns:xlink="http://www.w3.org/1999/xlink">
<g id="graph0" class="graph" transform="scale(1 1) rotate(0) translate(4 291.5)">
<title>circleIntegration</title>
<!-- Node1 -->
<g id="Node000001" class="node">
<title>Node1</title>
<g id="a_Node000001"><a xlink:title=" ">
<polygon fill="#999999" stroke="#666666" points="96,-153 0,-153 0,-134 96,-134 96,-153"/>
<text text-anchor="middle" x="48" y="-141" font-family="Helvetica,sans-Serif" font-size="10.00">circleIntegration</text>
</a>
</g>
</g>
<!-- Node2 -->
<g id="Node000002" class="node">
<title>Node2</title>
<g id="a_Node000002"><a xlink:href="integration__benchmarks_8cpp.html#ad6a98f0b47b4b5a2f256b815762f5a65" target="_top" xlink:title=" ">
<polygon fill="white" stroke="#666666" points="248,-153 132,-153 132,-134 248,-134 248,-153"/>
<text text-anchor="middle" x="190" y="-141" font-family="Helvetica,sans-Serif" font-size="10.00">runCircleBenchmark</text>
</a>
</g>
</g>
<!-- Node1&#45;&gt;Node2 -->
<g id="edge1_Node000001_Node000002" class="edge">
<title>Node1&#45;&gt;Node2</title>
<g id="a_edge1_Node000001_Node000002"><a xlink:title=" ">
<path fill="none" stroke="#63b8ff" d="M96.01,-143.5C104.23,-143.5 112.93,-143.5 121.57,-143.5"/>
<polygon fill="#63b8ff" stroke="#63b8ff" points="121.67,-147 131.67,-143.5 121.67,-140 121.67,-147"/>
</a>
</g>
</g>
<!-- Node3 -->
<g id="Node000003" class="node">
<title>Node3</title>
<g id="a_Node000003"><a xlink:href="integration__benchmarks_8cpp.html#a58f19e7e4fd19b25ecf0048ccb82e705" target="_top" xlink:title="Generic execution loop for integration benchmarks.">
<polygon fill="white" stroke="#666666" points="394,-153 284,-153 284,-134 394,-134 394,-153"/>
<text text-anchor="middle" x="339" y="-141" font-family="Helvetica,sans-Serif" font-size="10.00">executeBenchmark</text>
</a>
</g>
</g>
<!-- Node2&#45;&gt;Node3 -->
<g id="edge2_Node000002_Node000003" class="edge">
<title>Node2&#45;&gt;Node3</title>
<g id="a_edge2_Node000002_Node000003"><a xlink:title=" ">
<path fill="none" stroke="#63b8ff" d="M248.25,-143.5C256.51,-143.5 265.05,-143.5 273.43,-143.5"/>
<polygon fill="#63b8ff" stroke="#63b8ff" points="273.55,-147 283.55,-143.5 273.55,-140 273.55,-147"/>
</a>
</g>
</g>
<!-- Node4 -->
<g id="Node000004" class="node">
<title>Node4</title>
<g id="a_Node000004"><a xlink:href="namespacemc_1_1utils.html#a0dffb17257bac930060d199a00fe8eef" target="_top" xlink:title=" ">
<polygon fill="white" stroke="#666666" points="579,-287.5 442,-287.5 442,-257.5 579,-257.5 579,-287.5"/>
<text text-anchor="start" x="450" y="-275.5" font-family="Helvetica,sans-Serif" font-size="10.00">mc::utils::createFunction</text>
<text text-anchor="middle" x="510.5" y="-264.5" font-family="Helvetica,sans-Serif" font-size="10.00">GnuplotScript</text>
</a>
</g>
</g>
<!-- Node3&#45;&gt;Node4 -->
<g id="edge3_Node000003_Node000004" class="edge">
<title>Node3&#45;&gt;Node4</title>
<g id="a_edge3_Node000003_Node000004"><a xlink:title=" ">
<path fill="none" stroke="#63b8ff" d="M345.63,-153.23C358.12,-173.93 390.18,-222.54 430,-248.5 432.43,-250.09 434.98,-251.57 437.6,-252.96"/>
<polygon fill="#63b8ff" stroke="#63b8ff" points="436.23,-256.19 446.76,-257.33 439.24,-249.87 436.23,-256.19"/>
</a>
</g>
</g>
<!-- Node6 -->
<g id="Node000006" class="node">
<title>Node6</title>
<g id="a_Node000006"><a xlink:href="namespacemc_1_1utils.html#afaf70e150a29a11f0ab5e121caa951d3" target="_top" xlink:title=" ">
<polygon fill="white" stroke="#666666" points="577.5,-239.5 443.5,-239.5 443.5,-209.5 577.5,-209.5 577.5,-239.5"/>
<text text-anchor="start" x="451.5" y="-227.5" font-family="Helvetica,sans-Serif" font-size="10.00">mc::utils::createGnuplot</text>
<text text-anchor="middle" x="510.5" y="-216.5" font-family="Helvetica,sans-Serif" font-size="10.00">Script</text>
</a>
</g>
</g>
<!-- Node3&#45;&gt;Node6 -->
<g id="edge5_Node000003_Node000006" class="edge">
<title>Node3&#45;&gt;Node6</title>
<g id="a_edge5_Node000003_Node000006"><a xlink:title=" ">
<path fill="none" stroke="#63b8ff" d="M354.86,-153.16C372.35,-164.29 402.53,-182.67 430,-195.5 437.75,-199.12 446.09,-202.59 454.34,-205.8"/>
<polygon fill="#63b8ff" stroke="#63b8ff" points="453.37,-209.17 463.96,-209.43 455.84,-202.62 453.37,-209.17"/>
</a>
</g>
</g>
<!-- Node7 -->
<g id="Node000007" class="node">
<title>Node7</title>
<g id="a_Node000007"><a xlink:href="classmc_1_1domains_1_1IntegrationDomain.html#a31ef4c76c6c87398eebbb660df203384" target="_top" xlink:title="Get the axis&#45;aligned bounding box of the domain.">
<polygon fill="white" stroke="#666666" points="766,-217.5 627,-217.5 627,-187.5 766,-187.5 766,-217.5"/>
<text text-anchor="start" x="635" y="-205.5" font-family="Helvetica,sans-Serif" font-size="10.00">mc::domains::Integration</text>
<text text-anchor="middle" x="696.5" y="-194.5" font-family="Helvetica,sans-Serif" font-size="10.00">Domain::getBounds</text>
</a>
</g>
</g>
<!-- Node3&#45;&gt;Node7 -->
<g id="edge9_Node000003_Node000007" class="edge">
<title>Node3&#45;&gt;Node7</title>
<g id="a_edge9_Node000003_Node000007"><a xlink:title=" ">
<path fill="none" stroke="#63b8ff" d="M385.71,-153.05C399.88,-155.9 415.57,-158.94 430,-161.5 492.67,-172.6 563.96,-183.52 616.88,-191.29"/>
<polygon fill="#63b8ff" stroke="#63b8ff" points="616.48,-194.77 626.88,-192.75 617.49,-187.84 616.48,-194.77"/>
</a>
</g>
</g>
<!-- Node8 -->
<g id="Node000008" class="node">
<title>Node8</title>
<g id="a_Node000008"><a xlink:href="namespacemc_1_1rng.html#ae8ce618a80ac94df709f1fd752932c0c" target="_top" xlink:title="Get the current global seed.">
<polygon fill="white" stroke="#666666" points="580,-153 441,-153 441,-134 580,-134 580,-153"/>
<text text-anchor="middle" x="510.5" y="-141" font-family="Helvetica,sans-Serif" font-size="10.00">mc::rng::get_global_seed</text>
</a>
</g>
</g>
<!-- Node3&#45;&gt;Node8 -->
<g id="edge8_Node000003_Node000008" class="edge">
<title>Node3&#45;&gt;Node8</title>
<g id="a_edge8_Node000003_Node000008"><a xlink:title=" ">
<path fill="none" stroke="#63b8ff" d="M394.1,-143.5C405.68,-143.5 418.14,-143.5 430.44,-143.5"/>
<polygon fill="#63b8ff" stroke="#63b8ff" points="430.72,-147 440.72,-143.5 430.72,-140 430.72,-147"/>
</a>
</g>
</g>
<!-- Node9 -->
<g id="Node000009" class="node">
<title>Node9</title>
<g id="a_Node000009"><a xlink:href="classmc_1_1integrators_1_1ISMontecarloIntegrator.html#abf2130a6963f200e1baaff24c29028f4" target="_top" xlink:title="Compute the integral using importance sampling.">
<polygon fill="white" stroke="#666666" points="591,-115.5 430,-115.5 430,-85.5 591,-85.5 591,-115.5"/>
<text text-anchor="start" x="438" y="-103.5" font-family="Helvetica,sans-Serif" font-size="10.00">mc::integrators::ISMontecarlo</text>
<text text-anchor="middle" x="510.5" y="-92.5" font-family="Helvetica,sans-Serif" font-size="10.00">Integrator::integrate</text>
</a>
</g>
</g>
<!-- Node3&#45;&gt;Node9 -->
<g id="edge10_Node000003_Node000009" class="edge">
<title>Node3&#45;&gt;Node9</title>
<g id="a_edge10_Node000003_Node000009"><a xlink:title=" ">
<path fill="none" stroke="#63b8ff" d="M377.62,-133.96C396.14,-129.26 419.07,-123.44 440.58,-117.98"/>
<polygon fill="#63b8ff" stroke="#63b8ff" points="441.51,-121.36 450.35,-115.51 439.79,-114.57 441.51,-121.36"/>
</a>
</g>
</g>
<!-- Node10 -->
<g id="Node000010" class="node">
<title>Node10</title>
<g id="a_Node000010"><a xlink:href="classmc_1_1integrators_1_1MontecarloIntegrator.html#af3c3289ee5bdf681b6c1ffa75c45b950" target="_top" xlink:title="Legacy integration routine (deprecated).">
<polygon fill="white" stroke="#666666" points="586.5,-67.5 434.5,-67.5 434.5,-37.5 586.5,-37.5 586.5,-67.5"/>
<text text-anchor="start" x="442.5" y="-55.5" font-family="Helvetica,sans-Serif" font-size="10.00">mc::integrators::Montecarlo</text>
<text text-anchor="middle" x="510.5" y="-44.5" font-family="Helvetica,sans-Serif" font-size="10.00">Integrator::OLDintegrate</text>
</a>
</g>
</g>
<!-- Node3&#45;&gt;Node10 -->
<g id="edge11_Node000003_Node000010" class="edge">
<title>Node3&#45;&gt;Node10</title>
<g id="a_edge11_Node000003_Node000010"><a xlink:title=" ">
<path fill="none" stroke="#63b8ff" d="M350.28,-133.94C366.21,-119.58 398.34,-92.45 430,-76.5 433.77,-74.6 437.71,-72.83 441.74,-71.17"/>
<polygon fill="#63b8ff" stroke="#63b8ff" points="443.18,-74.36 451.26,-67.51 440.67,-67.83 443.18,-74.36"/>
</a>
</g>
</g>
<!-- Node11 -->
<g id="Node000011" class="node">
<title>Node11</title>
<g id="a_Node000011"><a xlink:href="benchmarks_8cpp.html#a5137168fd2eda60894530765f6d5af1e" target="_top" xlink:title="Export benchmark results to CSV file for analysis.">
<polygon fill="white" stroke="#666666" points="548.5,-19 472.5,-19 472.5,0 548.5,0 548.5,-19"/>
<text text-anchor="middle" x="510.5" y="-7" font-family="Helvetica,sans-Serif" font-size="10.00">saveResults</text>
</a>
</g>
</g>
<!-- Node3&#45;&gt;Node11 -->
<g id="edge12_Node000003_Node000011" class="edge">
<title>Node3&#45;&gt;Node11</title>
<g id="a_edge12_Node000003_Node000011"><a xlink:title=" ">
<path fill="none" stroke="#63b8ff" d="M344.74,-133.67C356.09,-111.22 387.12,-56.03 430,-28.5 439.6,-22.34 451.01,-18.17 462.15,-15.36"/>
<polygon fill="#63b8ff" stroke="#63b8ff" points="463.23,-18.7 472.24,-13.13 461.72,-11.87 463.23,-18.7"/>
</a>
</g>
</g>
<!-- Node5 -->
<g id="Node000005" class="node">
<title>Node5</title>
<g id="a_Node000005"><a xlink:href="classmc_1_1domains_1_1IntegrationDomain.html#a31b3f4605bad5c5c88c6df26d05b27e9" target="_top" xlink:title="Test whether a point lies inside the domain.">
<polygon fill="white" stroke="#666666" points="766,-276.5 627,-276.5 627,-246.5 766,-246.5 766,-276.5"/>
<text text-anchor="start" x="635" y="-264.5" font-family="Helvetica,sans-Serif" font-size="10.00">mc::domains::Integration</text>
<text text-anchor="middle" x="696.5" y="-253.5" font-family="Helvetica,sans-Serif" font-size="10.00">Domain::isInside</text>
</a>
</g>
</g>
<!-- Node4&#45;&gt;Node5 -->
<g id="edge4_Node000004_Node000005" class="edge">
<title>Node4&#45;&gt;Node5</title>
<g id="a_edge4_Node000004_Node000005"><a xlink:title=" ">
<path fill="none" stroke="#63b8ff" d="M579.23,-268.45C591.52,-267.72 604.43,-266.94 617,-266.19"/>
<polygon fill="#63b8ff" stroke="#63b8ff" points="617.22,-269.69 626.99,-265.6 616.8,-262.7 617.22,-269.69"/>
</a>
</g>
</g>
<!-- Node6&#45;&gt;Node5 -->
<g id="edge7_Node000006_Node000005" class="edge">
<title>Node6&#45;&gt;Node5</title>
<g id="a_edge7_Node000006_Node000005"><a xlink:title=" ">
<path fill="none" stroke="#63b8ff" d="M577.67,-237.81C590.39,-240.36 603.84,-243.07 616.91,-245.7"/>
<polygon fill="#63b8ff" stroke="#63b8ff" points="616.33,-249.15 626.82,-247.69 617.71,-242.29 616.33,-249.15"/>
</a>
</g>
</g>
<!-- Node6&#45;&gt;Node7 -->
<g id="edge6_Node000006_Node000007" class="edge">
<title>Node6&#45;&gt;Node7</title>
<g id="a_edge6_Node000006_Node000007"><a xlink:title=" ">
<path fill="none" stroke="#63b8ff" d="M577.67,-216.59C590.27,-215.08 603.57,-213.49 616.53,-211.94"/>
<polygon fill="#63b8ff" stroke="#63b8ff" points="617.31,-215.37 626.82,-210.71 616.47,-208.42 617.31,-215.37"/>
</a>
</g>
</g>
</g>
</svg>
