<?xml version="1.0" encoding="UTF-8" standalone="no"?>
<!DOCTYPE svg PUBLIC "-//W3C//DTD SVG 1.1//EN"
 "http://www.w3.org/Graphics/SVG/1.1/DTD/svg11.dtd">
<!-- Generated by graphviz version 2.43.0 (0)
 -->
<!-- Title: rectangularIntegrationParser Pages: 1 -->
<svg width="827pt" height="296pt"
 viewBox="0.00 0.00 827.00 295.50" xmlns="http://www.w3.org/2000/svg" xmlns:xlink="http://www.w3.org/1999/xlink">
<g id="graph0" class="graph" transform="scale(1 1) rotate(0) translate(4 291.5)">
<title>rectangularIntegrationParser</title>
<!-- Node1 -->
<g id="Node000001" class="node">
<title>Node1</title>
<g id="a_Node000001"><a xlink:title=" ">
<polygon fill="#999999" stroke="#666666" points="155,-153 0,-153 0,-134 155,-134 155,-153"/>
<text text-anchor="middle" x="77.5" y="-141" font-family="Helvetica,sans-Serif" font-size="10.00">rectangularIntegrationParser</text>
</a>
</g>
</g>
<!-- Node2 -->
<g id="Node000002" class="node">
<title>Node2</title>
<g id="a_Node000002"><a xlink:href="integration__benchmarks_8cpp.html#a25748d355cbdda15ae29a66bcbe51f89" target="_top" xlink:title=" ">
<polygon fill="white" stroke="#666666" points="301,-153 191,-153 191,-134 301,-134 301,-153"/>
<text text-anchor="middle" x="246" y="-141" font-family="Helvetica,sans-Serif" font-size="10.00">runRectBenchmark</text>
</a>
</g>
</g>
<!-- Node1&#45;&gt;Node2 -->
<g id="edge1_Node000001_Node000002" class="edge">
<title>Node1&#45;&gt;Node2</title>
<g id="a_edge1_Node000001_Node000002"><a xlink:title=" ">
<path fill="none" stroke="#63b8ff" d="M155.41,-143.5C163.8,-143.5 172.28,-143.5 180.49,-143.5"/>
<polygon fill="#63b8ff" stroke="#63b8ff" points="180.74,-147 190.74,-143.5 180.74,-140 180.74,-147"/>
</a>
</g>
</g>
<!-- Node3 -->
<g id="Node000003" class="node">
<title>Node3</title>
<g id="a_Node000003"><a xlink:href="integration__benchmarks_8cpp.html#a58f19e7e4fd19b25ecf0048ccb82e705" target="_top" xlink:title="Generic execution loop for integration benchmarks.">
<polygon fill="white" stroke="#666666" points="447,-153 337,-153 337,-134 447,-134 447,-153"/>
<text text-anchor="middle" x="392" y="-141" font-family="Helvetica,sans-Serif" font-size="10.00">executeBenchmark</text>
</a>
</g>
</g>
<!-- Node2&#45;&gt;Node3 -->
<g id="edge2_Node000002_Node000003" class="edge">
<title>Node2&#45;&gt;Node3</title>
<g id="a_edge2_Node000002_Node000003"><a xlink:title=" ">
<path fill="none" stroke="#63b8ff" d="M301.03,-143.5C309.31,-143.5 317.94,-143.5 326.42,-143.5"/>
<polygon fill="#63b8ff" stroke="#63b8ff" points="326.67,-147 336.67,-143.5 326.67,-140 326.67,-147"/>
</a>
</g>
</g>
<!-- Node4 -->
<g id="Node000004" class="node">
<title>Node4</title>
<g id="a_Node000004"><a xlink:href="namespacemc_1_1utils.html#a0dffb17257bac930060d199a00fe8eef" target="_top" xlink:title=" ">
<polygon fill="white" stroke="#666666" points="632,-287.5 495,-287.5 495,-257.5 632,-257.5 632,-287.5"/>
<text text-anchor="start" x="503" y="-275.5" font-family="Helvetica,sans-Serif" font-size="10.00">mc::utils::createFunction</text>
<text text-anchor="middle" x="563.5" y="-264.5" font-family="Helvetica,sans-Serif" font-size="10.00">GnuplotScript</text>
</a>
</g>
</g>
<!-- Node3&#45;&gt;Node4 -->
<g id="edge3_Node000003_Node000004" class="edge">
<title>Node3&#45;&gt;Node4</title>
<g id="a_edge3_Node000003_Node000004"><a xlink:title=" ">
<path fill="none" stroke="#63b8ff" d="M398.63,-153.23C411.12,-173.93 443.18,-222.54 483,-248.5 485.43,-250.09 487.98,-251.57 490.6,-252.96"/>
<polygon fill="#63b8ff" stroke="#63b8ff" points="489.23,-256.19 499.76,-257.33 492.24,-249.87 489.23,-256.19"/>
</a>
</g>
</g>
<!-- Node6 -->
<g id="Node000006" class="node">
<title>Node6</title>
<g id="a_Node000006"><a xlink:href="namespacemc_1_1utils.html#afaf70e150a29a11f0ab5e121caa951d3" target="_top" xlink:title=" ">
<polygon fill="white" stroke="#666666" points="630.5,-239.5 496.5,-239.5 496.5,-209.5 630.5,-209.5 630.5,-239.5"/>
<text text-anchor="start" x="504.5" y="-227.5" font-family="Helvetica,sans-Serif" font-size="10.00">mc::utils::createGnuplot</text>
<text text-anchor="middle" x="563.5" y="-216.5" font-family="Helvetica,sans-Serif" font-size="10.00">Script</text>
</a>
</g>
</g>
<!-- Node3&#45;&gt;Node6 -->
<g id="edge5_Node000003_Node000006" class="edge">
<title>Node3&#45;&gt;Node6</title>
<g id="a_edge5_Node000003_Node000006"><a xlink:title=" ">
<path fill="none" stroke="#63b8ff" d="M407.86,-153.16C425.35,-164.29 455.53,-182.67 483,-195.5 490.75,-199.12 499.09,-202.59 507.34,-205.8"/>
<polygon fill="#63b8ff" stroke="#63b8ff" points="506.37,-209.17 516.96,-209.43 508.84,-202.62 506.37,-209.17"/>
</a>
</g>
</g>
<!-- Node7 -->
<g id="Node000007" class="node">
<title>Node7</title>
<g id="a_Node000007"><a xlink:href="classmc_1_1domains_1_1IntegrationDomain.html#a31ef4c76c6c87398eebbb660df203384" target="_top" xlink:title="Get the axis&#45;aligned bounding box of the domain.">
<polygon fill="white" stroke="#666666" points="819,-217.5 680,-217.5 680,-187.5 819,-187.5 819,-217.5"/>
<text text-anchor="start" x="688" y="-205.5" font-family="Helvetica,sans-Serif" font-size="10.00">mc::domains::Integration</text>
<text text-anchor="middle" x="749.5" y="-194.5" font-family="Helvetica,sans-Serif" font-size="10.00">Domain::getBounds</text>
</a>
</g>
</g>
<!-- Node3&#45;&gt;Node7 -->
<g id="edge9_Node000003_Node000007" class="edge">
<title>Node3&#45;&gt;Node7</title>
<g id="a_edge9_Node000003_Node000007"><a xlink:title=" ">
<path fill="none" stroke="#63b8ff" d="M438.71,-153.05C452.88,-155.9 468.57,-158.94 483,-161.5 545.67,-172.6 616.96,-183.52 669.88,-191.29"/>
<polygon fill="#63b8ff" stroke="#63b8ff" points="669.48,-194.77 679.88,-192.75 670.49,-187.84 669.48,-194.77"/>
</a>
</g>
</g>
<!-- Node8 -->
<g id="Node000008" class="node">
<title>Node8</title>
<g id="a_Node000008"><a xlink:href="namespacemc_1_1rng.html#ae8ce618a80ac94df709f1fd752932c0c" target="_top" xlink:title="Get the current global seed.">
<polygon fill="white" stroke="#666666" points="633,-153 494,-153 494,-134 633,-134 633,-153"/>
<text text-anchor="middle" x="563.5" y="-141" font-family="Helvetica,sans-Serif" font-size="10.00">mc::rng::get_global_seed</text>
</a>
</g>
</g>
<!-- Node3&#45;&gt;Node8 -->
<g id="edge8_Node000003_Node000008" class="edge">
<title>Node3&#45;&gt;Node8</title>
<g id="a_edge8_Node000003_Node000008"><a xlink:title=" ">
<path fill="none" stroke="#63b8ff" d="M447.1,-143.5C458.68,-143.5 471.14,-143.5 483.44,-143.5"/>
<polygon fill="#63b8ff" stroke="#63b8ff" points="483.72,-147 493.72,-143.5 483.72,-140 483.72,-147"/>
</a>
</g>
</g>
<!-- Node9 -->
<g id="Node000009" class="node">
<title>Node9</title>
<g id="a_Node000009"><a xlink:href="classmc_1_1integrators_1_1ISMontecarloIntegrator.html#abf2130a6963f200e1baaff24c29028f4" target="_top" xlink:title="Compute the integral using importance sampling.">
<polygon fill="white" stroke="#666666" points="644,-115.5 483,-115.5 483,-85.5 644,-85.5 644,-115.5"/>
<text text-anchor="start" x="491" y="-103.5" font-family="Helvetica,sans-Serif" font-size="10.00">mc::integrators::ISMontecarlo</text>
<text text-anchor="middle" x="563.5" y="-92.5" font-family="Helvetica,sans-Serif" font-size="10.00">Integrator::integrate</text>
</a>
</g>
</g>
<!-- Node3&#45;&gt;Node9 -->
<g id="edge10_Node000003_Node000009" class="edge">
<title>Node3&#45;&gt;Node9</title>
<g id="a_edge10_Node000003_Node000009"><a xlink:title=" ">
<path fill="none" stroke="#63b8ff" d="M430.62,-133.96C449.14,-129.26 472.07,-123.44 493.58,-117.98"/>
<polygon fill="#63b8ff" stroke="#63b8ff" points="494.51,-121.36 503.35,-115.51 492.79,-114.57 494.51,-121.36"/>
</a>
</g>
</g>
<!-- Node10 -->
<g id="Node000010" class="node">
<title>Node10</title>
<g id="a_Node000010"><a xlink:href="classmc_1_1integrators_1_1MontecarloIntegrator.html#af3c3289ee5bdf681b6c1ffa75c45b950" target="_top" xlink:title="Legacy integration routine (deprecated).">
<polygon fill="white" stroke="#666666" points="639.5,-67.5 487.5,-67.5 487.5,-37.5 639.5,-37.5 639.5,-67.5"/>
<text text-anchor="start" x="495.5" y="-55.5" font-family="Helvetica,sans-Serif" font-size="10.00">mc::integrators::Montecarlo</text>
<text text-anchor="middle" x="563.5" y="-44.5" font-family="Helvetica,sans-Serif" font-size="10.00">Integrator::OLDintegrate</text>
</a>
</g>
</g>
<!-- Node3&#45;&gt;Node10 -->
<g id="edge11_Node000003_Node000010" class="edge">
<title>Node3&#45;&gt;Node10</title>
<g id="a_edge11_Node000003_Node000010"><a xlink:title=" ">
<path fill="none" stroke="#63b8ff" d="M403.28,-133.94C419.21,-119.58 451.34,-92.45 483,-76.5 486.77,-74.6 490.71,-72.83 494.74,-71.17"/>
<polygon fill="#63b8ff" stroke="#63b8ff" points="496.18,-74.36 504.26,-67.51 493.67,-67.83 496.18,-74.36"/>
</a>
</g>
</g>
<!-- Node11 -->
<g id="Node000011" class="node">
<title>Node11</title>
<g id="a_Node000011"><a xlink:href="benchmarks_8cpp.html#a5137168fd2eda60894530765f6d5af1e" target="_top" xlink:title="Export benchmark results to CSV file for analysis.">
<polygon fill="white" stroke="#666666" points="601.5,-19 525.5,-19 525.5,0 601.5,0 601.5,-19"/>
<text text-anchor="middle" x="563.5" y="-7" font-family="Helvetica,sans-Serif" font-size="10.00">saveResults</text>
</a>
</g>
</g>
<!-- Node3&#45;&gt;Node11 -->
<g id="edge12_Node000003_Node000011" class="edge">
<title>Node3&#45;&gt;Node11</title>
<g id="a_edge12_Node000003_Node000011"><a xlink:title=" ">
<path fill="none" stroke="#63b8ff" d="M397.74,-133.67C409.09,-111.22 440.12,-56.03 483,-28.5 492.6,-22.34 504.01,-18.17 515.15,-15.36"/>
<polygon fill="#63b8ff" stroke="#63b8ff" points="516.23,-18.7 525.24,-13.13 514.72,-11.87 516.23,-18.7"/>
</a>
</g>
</g>
<!-- Node5 -->
<g id="Node000005" class="node">
<title>Node5</title>
<g id="a_Node000005"><a xlink:href="classmc_1_1domains_1_1IntegrationDomain.html#a31b3f4605bad5c5c88c6df26d05b27e9" target="_top" xlink:title="Test whether a point lies inside the domain.">
<polygon fill="white" stroke="#666666" points="819,-276.5 680,-276.5 680,-246.5 819,-246.5 819,-276.5"/>
<text text-anchor="start" x="688" y="-264.5" font-family="Helvetica,sans-Serif" font-size="10.00">mc::domains::Integration</text>
<text text-anchor="middle" x="749.5" y="-253.5" font-family="Helvetica,sans-Serif" font-size="10.00">Domain::isInside</text>
</a>
</g>
</g>
<!-- Node4&#45;&gt;Node5 -->
<g id="edge4_Node000004_Node000005" class="edge">
<title>Node4&#45;&gt;Node5</title>
<g id="a_edge4_Node000004_Node000005"><a xlink:title=" ">
<path fill="none" stroke="#63b8ff" d="M632.23,-268.45C644.52,-267.72 657.43,-266.94 670,-266.19"/>
<polygon fill="#63b8ff" stroke="#63b8ff" points="670.22,-269.69 679.99,-265.6 669.8,-262.7 670.22,-269.69"/>
</a>
</g>
</g>
<!-- Node6&#45;&gt;Node5 -->
<g id="edge7_Node000006_Node000005" class="edge">
<title>Node6&#45;&gt;Node5</title>
<g id="a_edge7_Node000006_Node000005"><a xlink:title=" ">
<path fill="none" stroke="#63b8ff" d="M630.67,-237.81C643.39,-240.36 656.84,-243.07 669.91,-245.7"/>
<polygon fill="#63b8ff" stroke="#63b8ff" points="669.33,-249.15 679.82,-247.69 670.71,-242.29 669.33,-249.15"/>
</a>
</g>
</g>
<!-- Node6&#45;&gt;Node7 -->
<g id="edge6_Node000006_Node000007" class="edge">
<title>Node6&#45;&gt;Node7</title>
<g id="a_edge6_Node000006_Node000007"><a xlink:title=" ">
<path fill="none" stroke="#63b8ff" d="M630.67,-216.59C643.27,-215.08 656.57,-213.49 669.53,-211.94"/>
<polygon fill="#63b8ff" stroke="#63b8ff" points="670.31,-215.37 679.82,-210.71 669.47,-208.42 670.31,-215.37"/>
</a>
</g>
</g>
</g>
</svg>
