<?xml version="1.0" encoding="UTF-8" standalone="no"?>
<!DOCTYPE svg PUBLIC "-//W3C//DTD SVG 1.1//EN"
 "http://www.w3.org/Graphics/SVG/1.1/DTD/svg11.dtd">
<!-- Generated by graphviz version 2.43.0 (0)
 -->
<!-- Title: runSphereBenchmark Pages: 1 -->
<svg width="648pt" height="296pt"
 viewBox="0.00 0.00 648.00 295.50" xmlns="http://www.w3.org/2000/svg" xmlns:xlink="http://www.w3.org/1999/xlink">
<g id="graph0" class="graph" transform="scale(1 1) rotate(0) translate(4 291.5)">
<title>runSphereBenchmark</title>
<!-- Node1 -->
<g id="Node000001" class="node">
<title>Node1</title>
<g id="a_Node000001"><a xlink:title=" ">
<polygon fill="#999999" stroke="#666666" points="122,-153 0,-153 0,-134 122,-134 122,-153"/>
<text text-anchor="middle" x="61" y="-141" font-family="Helvetica,sans-Serif" font-size="10.00">runSphereBenchmark</text>
</a>
</g>
</g>
<!-- Node2 -->
<g id="Node000002" class="node">
<title>Node2</title>
<g id="a_Node000002"><a xlink:href="integration__benchmarks_8cpp.html#a58f19e7e4fd19b25ecf0048ccb82e705" target="_top" xlink:title="Generic execution loop for integration benchmarks.">
<polygon fill="white" stroke="#666666" points="268,-153 158,-153 158,-134 268,-134 268,-153"/>
<text text-anchor="middle" x="213" y="-141" font-family="Helvetica,sans-Serif" font-size="10.00">executeBenchmark</text>
</a>
</g>
</g>
<!-- Node1&#45;&gt;Node2 -->
<g id="edge1_Node000001_Node000002" class="edge">
<title>Node1&#45;&gt;Node2</title>
<g id="a_edge1_Node000001_Node000002"><a xlink:title=" ">
<path fill="none" stroke="#63b8ff" d="M122.15,-143.5C130.49,-143.5 139.09,-143.5 147.51,-143.5"/>
<polygon fill="#63b8ff" stroke="#63b8ff" points="147.66,-147 157.66,-143.5 147.66,-140 147.66,-147"/>
</a>
</g>
</g>
<!-- Node3 -->
<g id="Node000003" class="node">
<title>Node3</title>
<g id="a_Node000003"><a xlink:href="namespacemc_1_1utils.html#a0dffb17257bac930060d199a00fe8eef" target="_top" xlink:title=" ">
<polygon fill="white" stroke="#666666" points="453,-287.5 316,-287.5 316,-257.5 453,-257.5 453,-287.5"/>
<text text-anchor="start" x="324" y="-275.5" font-family="Helvetica,sans-Serif" font-size="10.00">mc::utils::createFunction</text>
<text text-anchor="middle" x="384.5" y="-264.5" font-family="Helvetica,sans-Serif" font-size="10.00">GnuplotScript</text>
</a>
</g>
</g>
<!-- Node2&#45;&gt;Node3 -->
<g id="edge2_Node000002_Node000003" class="edge">
<title>Node2&#45;&gt;Node3</title>
<g id="a_edge2_Node000002_Node000003"><a xlink:title=" ">
<path fill="none" stroke="#63b8ff" d="M219.63,-153.23C232.12,-173.93 264.18,-222.54 304,-248.5 306.43,-250.09 308.98,-251.57 311.6,-252.96"/>
<polygon fill="#63b8ff" stroke="#63b8ff" points="310.23,-256.19 320.76,-257.33 313.24,-249.87 310.23,-256.19"/>
</a>
</g>
</g>
<!-- Node5 -->
<g id="Node000005" class="node">
<title>Node5</title>
<g id="a_Node000005"><a xlink:href="namespacemc_1_1utils.html#afaf70e150a29a11f0ab5e121caa951d3" target="_top" xlink:title=" ">
<polygon fill="white" stroke="#666666" points="451.5,-239.5 317.5,-239.5 317.5,-209.5 451.5,-209.5 451.5,-239.5"/>
<text text-anchor="start" x="325.5" y="-227.5" font-family="Helvetica,sans-Serif" font-size="10.00">mc::utils::createGnuplot</text>
<text text-anchor="middle" x="384.5" y="-216.5" font-family="Helvetica,sans-Serif" font-size="10.00">Script</text>
</a>
</g>
</g>
<!-- Node2&#45;&gt;Node5 -->
<g id="edge4_Node000002_Node000005" class="edge">
<title>Node2&#45;&gt;Node5</title>
<g id="a_edge4_Node000002_Node000005"><a xlink:title=" ">
<path fill="none" stroke="#63b8ff" d="M228.86,-153.16C246.35,-164.29 276.53,-182.67 304,-195.5 311.75,-199.12 320.09,-202.59 328.34,-205.8"/>
<polygon fill="#63b8ff" stroke="#63b8ff" points="327.37,-209.17 337.96,-209.43 329.84,-202.62 327.37,-209.17"/>
</a>
</g>
</g>
<!-- Node6 -->
<g id="Node000006" class="node">
<title>Node6</title>
<g id="a_Node000006"><a xlink:href="classmc_1_1domains_1_1IntegrationDomain.html#a31ef4c76c6c87398eebbb660df203384" target="_top" xlink:title="Get the axis&#45;aligned bounding box of the domain.">
<polygon fill="white" stroke="#666666" points="640,-217.5 501,-217.5 501,-187.5 640,-187.5 640,-217.5"/>
<text text-anchor="start" x="509" y="-205.5" font-family="Helvetica,sans-Serif" font-size="10.00">mc::domains::Integration</text>
<text text-anchor="middle" x="570.5" y="-194.5" font-family="Helvetica,sans-Serif" font-size="10.00">Domain::getBounds</text>
</a>
</g>
</g>
<!-- Node2&#45;&gt;Node6 -->
<g id="edge8_Node000002_Node000006" class="edge">
<title>Node2&#45;&gt;Node6</title>
<g id="a_edge8_Node000002_Node000006"><a xlink:title=" ">
<path fill="none" stroke="#63b8ff" d="M259.71,-153.05C273.88,-155.9 289.57,-158.94 304,-161.5 366.67,-172.6 437.96,-183.52 490.88,-191.29"/>
<polygon fill="#63b8ff" stroke="#63b8ff" points="490.48,-194.77 500.88,-192.75 491.49,-187.84 490.48,-194.77"/>
</a>
</g>
</g>
<!-- Node7 -->
<g id="Node000007" class="node">
<title>Node7</title>
<g id="a_Node000007"><a xlink:href="namespacemc_1_1rng.html#ae8ce618a80ac94df709f1fd752932c0c" target="_top" xlink:title="Get the current global seed.">
<polygon fill="white" stroke="#666666" points="454,-153 315,-153 315,-134 454,-134 454,-153"/>
<text text-anchor="middle" x="384.5" y="-141" font-family="Helvetica,sans-Serif" font-size="10.00">mc::rng::get_global_seed</text>
</a>
</g>
</g>
<!-- Node2&#45;&gt;Node7 -->
<g id="edge7_Node000002_Node000007" class="edge">
<title>Node2&#45;&gt;Node7</title>
<g id="a_edge7_Node000002_Node000007"><a xlink:title=" ">
<path fill="none" stroke="#63b8ff" d="M268.1,-143.5C279.68,-143.5 292.14,-143.5 304.44,-143.5"/>
<polygon fill="#63b8ff" stroke="#63b8ff" points="304.72,-147 314.72,-143.5 304.72,-140 304.72,-147"/>
</a>
</g>
</g>
<!-- Node8 -->
<g id="Node000008" class="node">
<title>Node8</title>
<g id="a_Node000008"><a xlink:href="classmc_1_1integrators_1_1ISMontecarloIntegrator.html#abf2130a6963f200e1baaff24c29028f4" target="_top" xlink:title="Compute the integral using importance sampling.">
<polygon fill="white" stroke="#666666" points="465,-115.5 304,-115.5 304,-85.5 465,-85.5 465,-115.5"/>
<text text-anchor="start" x="312" y="-103.5" font-family="Helvetica,sans-Serif" font-size="10.00">mc::integrators::ISMontecarlo</text>
<text text-anchor="middle" x="384.5" y="-92.5" font-family="Helvetica,sans-Serif" font-size="10.00">Integrator::integrate</text>
</a>
</g>
</g>
<!-- Node2&#45;&gt;Node8 -->
<g id="edge9_Node000002_Node000008" class="edge">
<title>Node2&#45;&gt;Node8</title>
<g id="a_edge9_Node000002_Node000008"><a xlink:title=" ">
<path fill="none" stroke="#63b8ff" d="M251.62,-133.96C270.14,-129.26 293.07,-123.44 314.58,-117.98"/>
<polygon fill="#63b8ff" stroke="#63b8ff" points="315.51,-121.36 324.35,-115.51 313.79,-114.57 315.51,-121.36"/>
</a>
</g>
</g>
<!-- Node9 -->
<g id="Node000009" class="node">
<title>Node9</title>
<g id="a_Node000009"><a xlink:href="classmc_1_1integrators_1_1MontecarloIntegrator.html#af3c3289ee5bdf681b6c1ffa75c45b950" target="_top" xlink:title="Legacy integration routine (deprecated).">
<polygon fill="white" stroke="#666666" points="460.5,-67.5 308.5,-67.5 308.5,-37.5 460.5,-37.5 460.5,-67.5"/>
<text text-anchor="start" x="316.5" y="-55.5" font-family="Helvetica,sans-Serif" font-size="10.00">mc::integrators::Montecarlo</text>
<text text-anchor="middle" x="384.5" y="-44.5" font-family="Helvetica,sans-Serif" font-size="10.00">Integrator::OLDintegrate</text>
</a>
</g>
</g>
<!-- Node2&#45;&gt;Node9 -->
<g id="edge10_Node000002_Node000009" class="edge">
<title>Node2&#45;&gt;Node9</title>
<g id="a_edge10_Node000002_Node000009"><a xlink:title=" ">
<path fill="none" stroke="#63b8ff" d="M224.28,-133.94C240.21,-119.58 272.34,-92.45 304,-76.5 307.77,-74.6 311.71,-72.83 315.74,-71.17"/>
<polygon fill="#63b8ff" stroke="#63b8ff" points="317.18,-74.36 325.26,-67.51 314.67,-67.83 317.18,-74.36"/>
</a>
</g>
</g>
<!-- Node10 -->
<g id="Node000010" class="node">
<title>Node10</title>
<g id="a_Node000010"><a xlink:href="benchmarks_8cpp.html#a5137168fd2eda60894530765f6d5af1e" target="_top" xlink:title="Export benchmark results to CSV file for analysis.">
<polygon fill="white" stroke="#666666" points="422.5,-19 346.5,-19 346.5,0 422.5,0 422.5,-19"/>
<text text-anchor="middle" x="384.5" y="-7" font-family="Helvetica,sans-Serif" font-size="10.00">saveResults</text>
</a>
</g>
</g>
<!-- Node2&#45;&gt;Node10 -->
<g id="edge11_Node000002_Node000010" class="edge">
<title>Node2&#45;&gt;Node10</title>
<g id="a_edge11_Node000002_Node000010"><a xlink:title=" ">
<path fill="none" stroke="#63b8ff" d="M218.74,-133.67C230.09,-111.22 261.12,-56.03 304,-28.5 313.6,-22.34 325.01,-18.17 336.15,-15.36"/>
<polygon fill="#63b8ff" stroke="#63b8ff" points="337.23,-18.7 346.24,-13.13 335.72,-11.87 337.23,-18.7"/>
</a>
</g>
</g>
<!-- Node4 -->
<g id="Node000004" class="node">
<title>Node4</title>
<g id="a_Node000004"><a xlink:href="classmc_1_1domains_1_1IntegrationDomain.html#a31b3f4605bad5c5c88c6df26d05b27e9" target="_top" xlink:title="Test whether a point lies inside the domain.">
<polygon fill="white" stroke="#666666" points="640,-276.5 501,-276.5 501,-246.5 640,-246.5 640,-276.5"/>
<text text-anchor="start" x="509" y="-264.5" font-family="Helvetica,sans-Serif" font-size="10.00">mc::domains::Integration</text>
<text text-anchor="middle" x="570.5" y="-253.5" font-family="Helvetica,sans-Serif" font-size="10.00">Domain::isInside</text>
</a>
</g>
</g>
<!-- Node3&#45;&gt;Node4 -->
<g id="edge3_Node000003_Node000004" class="edge">
<title>Node3&#45;&gt;Node4</title>
<g id="a_edge3_Node000003_Node000004"><a xlink:title=" ">
<path fill="none" stroke="#63b8ff" d="M453.23,-268.45C465.52,-267.72 478.43,-266.94 491,-266.19"/>
<polygon fill="#63b8ff" stroke="#63b8ff" points="491.22,-269.69 500.99,-265.6 490.8,-262.7 491.22,-269.69"/>
</a>
</g>
</g>
<!-- Node5&#45;&gt;Node4 -->
<g id="edge6_Node000005_Node000004" class="edge">
<title>Node5&#45;&gt;Node4</title>
<g id="a_edge6_Node000005_Node000004"><a xlink:title=" ">
<path fill="none" stroke="#63b8ff" d="M451.67,-237.81C464.39,-240.36 477.84,-243.07 490.91,-245.7"/>
<polygon fill="#63b8ff" stroke="#63b8ff" points="490.33,-249.15 500.82,-247.69 491.71,-242.29 490.33,-249.15"/>
</a>
</g>
</g>
<!-- Node5&#45;&gt;Node6 -->
<g id="edge5_Node000005_Node000006" class="edge">
<title>Node5&#45;&gt;Node6</title>
<g id="a_edge5_Node000005_Node000006"><a xlink:title=" ">
<path fill="none" stroke="#63b8ff" d="M451.67,-216.59C464.27,-215.08 477.57,-213.49 490.53,-211.94"/>
<polygon fill="#63b8ff" stroke="#63b8ff" points="491.31,-215.37 500.82,-210.71 490.47,-208.42 491.31,-215.37"/>
</a>
</g>
</g>
</g>
</svg>
