<?xml version="1.0" encoding="UTF-8" standalone="no"?>
<!DOCTYPE svg PUBLIC "-//W3C//DTD SVG 1.1//EN"
 "http://www.w3.org/Graphics/SVG/1.1/DTD/svg11.dtd">
<!-- Generated by graphviz version 2.43.0 (0)
 -->
<!-- Title: src/montecarlo/domains/integration_domain.hpp Pages: 1 -->
<!--zoomable 368 -->

<svg id="main" version="1.1" xmlns="http://www.w3.org/2000/svg" xmlns:xlink="http://www.w3.org/1999/xlink" xml:space="preserve" onload="init(evt)">
<style type="text/css"><![CDATA[
.node, .edge {opacity: 0.7;}
.node.selected, .edge.selected {opacity: 1;}
.edge:hover path { stroke: red; }
.edge:hover polygon { stroke: red; fill: red; }
]]></style>

<defs>
  <circle id="rim" cx="0" cy="0" r="7"/>
  <circle id="rim2" cx="0" cy="0" r="3.5"/>
  <g id="zoomPlus">
    <use xlink:href="#rim" fill="#404040"><set attributeName="fill" to="#808080" begin="zoomplus.mouseover" end="zoomplus.mouseout"/></use>
    <path d="M-4,0h8M0,-4v8" fill="none" stroke="white" stroke-width="1.5" pointer-events="none"/>
  </g>
  <g id="zoomMin">
    <use xlink:href="#rim" fill="#404040"><set attributeName="fill" to="#808080" begin="zoomminus.mouseover" end="zoomminus.mouseout"/></use>
    <path d="M-4,0h8" fill="none" stroke="white" stroke-width="1.5" pointer-events="none"/>
  </g>
  <g id="arrowUp" transform="translate(30 24)">
    <use xlink:href="#rim"/>
    <path pointer-events="none" fill="none" stroke="white" stroke-width="1.5" d="M0,-3.0v7 M-2.5,-0.5L0,-3.0L2.5,-0.5"/>
  </g>
  <g id="arrowRight" transform="rotate(90) translate(36 -43)">
    <use xlink:href="#rim"/>
    <path pointer-events="none" fill="none" stroke="white" stroke-width="1.5" d="M0,-3.0v7 M-2.5,-0.5L0,-3.0L2.5,-0.5"/>
  </g>
  <g id="arrowDown" transform="rotate(180) translate(-30 -48)">
    <use xlink:href="#rim"/>
    <path pointer-events="none" fill="none" stroke="white" stroke-width="1.5" d="M0,-3.0v7 M-2.5,-0.5L0,-3.0L2.5,-0.5"/>
  </g>
  <g id="arrowLeft" transform="rotate(270) translate(-36 17)">
    <use xlink:href="#rim"/>
    <path pointer-events="none" fill="none" stroke="white" stroke-width="1.5" d="M0,-3.0v7 M-2.5,-0.5L0,-3.0L2.5,-0.5"/>
  </g>
  <g id="resetDef">
    <use xlink:href="#rim2" fill="#404040"><set attributeName="fill" to="#808080" begin="reset.mouseover" end="reset.mouseout"/></use>
  </g>
</defs>
<script type="application/ecmascript">
var viewWidth = 1509;
var viewHeight = 368;
var sectionId = 'dynsection-1';
</script>
<script type="application/ecmascript" xlink:href="svg.min.js"/>
<svg id="graph" class="graph">
<g id="viewport">
<title>src/montecarlo/domains/integration_domain.hpp</title>
<!-- Node1 -->
<g id="Node000001" class="node">
<title>Node1</title>
<g id="a_Node000001"><a xlink:title="Abstract interface for N&#45;dimensional integration domains.">
<polygon fill="#999999" stroke="#666666" points="777.67,-360 641.67,-360 641.67,-330 777.67,-330 777.67,-360"/>
<text text-anchor="start" x="649.67" y="-348" font-family="Helvetica,sans-Serif" font-size="10.00">src/montecarlo/domains</text>
<text text-anchor="middle" x="709.67" y="-337" font-family="Helvetica,sans-Serif" font-size="10.00">/integration_domain.hpp</text>
</a>
</g>
</g>
<!-- Node2 -->
<g id="Node000002" class="node">
<title>Node2</title>
<g id="a_Node000002"><a xlink:href="wind__farm__simulator_8cpp.html" target="_top" xlink:title="Wind Farm Layout Optimization using Hybrid MH&#45;Monte Carlo + PSO/GA.">
<polygon fill="white" stroke="#666666" points="210.67,-96 98.67,-96 98.67,-66 210.67,-66 210.67,-96"/>
<text text-anchor="start" x="106.67" y="-84" font-family="Helvetica,sans-Serif" font-size="10.00">src/apps/wind_farm</text>
<text text-anchor="middle" x="154.67" y="-73" font-family="Helvetica,sans-Serif" font-size="10.00">_simulator.cpp</text>
</a>
</g>
</g>
<!-- Node1&#45;&gt;Node2 -->
<g id="edge1_Node000001_Node000002" class="edge">
<title>Node1&#45;&gt;Node2</title>
<g id="a_edge1_Node000001_Node000002"><a xlink:title=" ">
<path fill="none" stroke="#63b8ff" d="M631.24,-341.38C494.45,-336.13 218,-322.33 125.67,-294 68.22,-276.37 38.07,-279.83 7.67,-228 -26.08,-170.44 66.26,-119.64 119.69,-96.02"/>
<polygon fill="#63b8ff" stroke="#63b8ff" points="631.52,-344.89 641.64,-341.77 631.78,-337.9 631.52,-344.89"/>
</a>
</g>
</g>
<!-- Node3 -->
<g id="Node000003" class="node">
<title>Node3</title>
<g id="a_Node000003"><a xlink:href="hypercylinder_8hpp.html" target="_top" xlink:title="N&#45;dimensional hypercylinder (infinite cylinder in discrete dimensions).">
<polygon fill="white" stroke="#666666" points="1254.67,-294 1120.67,-294 1120.67,-264 1254.67,-264 1254.67,-294"/>
<text text-anchor="start" x="1128.67" y="-282" font-family="Helvetica,sans-Serif" font-size="10.00">src/montecarlo/domains</text>
<text text-anchor="middle" x="1187.67" y="-271" font-family="Helvetica,sans-Serif" font-size="10.00">/hypercylinder.hpp</text>
</a>
</g>
</g>
<!-- Node1&#45;&gt;Node3 -->
<g id="edge2_Node000001_Node000003" class="edge">
<title>Node1&#45;&gt;Node3</title>
<g id="a_edge2_Node000001_Node000003"><a xlink:title=" ">
<path fill="none" stroke="#63b8ff" d="M787.96,-335.21C868.14,-325.96 996.31,-310.48 1106.67,-294 1111.19,-293.33 1115.84,-292.6 1120.52,-291.85"/>
<polygon fill="#63b8ff" stroke="#63b8ff" points="787.48,-331.75 777.94,-336.37 788.28,-338.7 787.48,-331.75"/>
</a>
</g>
</g>
<!-- Node11 -->
<g id="Node000011" class="node">
<title>Node11</title>
<g id="a_Node000011"><a xlink:href="integrator_8hpp.html" target="_top" xlink:title="Abstract base class for numerical integration in N&#45;dimensional spaces.">
<polygon fill="white" stroke="#666666" points="830.67,-228 684.67,-228 684.67,-198 830.67,-198 830.67,-228"/>
<text text-anchor="start" x="692.67" y="-216" font-family="Helvetica,sans-Serif" font-size="10.00">src/montecarlo/integrators</text>
<text text-anchor="middle" x="757.67" y="-205" font-family="Helvetica,sans-Serif" font-size="10.00">/integrator.hpp</text>
</a>
</g>
</g>
<!-- Node1&#45;&gt;Node11 -->
<g id="edge40_Node000001_Node000011" class="edge">
<title>Node1&#45;&gt;Node11</title>
<g id="a_edge40_Node000001_Node000011"><a xlink:title=" ">
<path fill="none" stroke="#63b8ff" d="M724.89,-321.01C729.84,-312.76 735,-303.21 738.67,-294 747.5,-271.86 752.89,-244.56 755.58,-228.25"/>
<polygon fill="#63b8ff" stroke="#63b8ff" points="721.8,-319.36 719.48,-329.7 727.74,-323.06 721.8,-319.36"/>
</a>
</g>
</g>
<!-- Node12 -->
<g id="Node000012" class="node">
<title>Node12</title>
<g id="a_Node000012"><a xlink:href="ISintegrator_8hpp.html" target="_top" xlink:title="Importance sampling Monte Carlo integration engine.">
<polygon fill="white" stroke="#666666" points="628.67,-162 482.67,-162 482.67,-132 628.67,-132 628.67,-162"/>
<text text-anchor="start" x="490.67" y="-150" font-family="Helvetica,sans-Serif" font-size="10.00">src/montecarlo/integrators</text>
<text text-anchor="middle" x="555.67" y="-139" font-family="Helvetica,sans-Serif" font-size="10.00">/ISintegrator.hpp</text>
</a>
</g>
</g>
<!-- Node1&#45;&gt;Node12 -->
<g id="edge37_Node000001_Node000012" class="edge">
<title>Node1&#45;&gt;Node12</title>
<g id="a_edge37_Node000001_Node000012"><a xlink:title=" ">
<path fill="none" stroke="#63b8ff" d="M631.67,-330.59C575.36,-316.14 504.25,-286.75 474.67,-228 468.68,-216.09 468.17,-209.64 474.67,-198 483.77,-181.69 500.62,-170.04 516.6,-162.11"/>
<polygon fill="#63b8ff" stroke="#63b8ff" points="631.09,-334.06 641.64,-333.04 632.76,-327.26 631.09,-334.06"/>
</a>
</g>
</g>
<!-- Node13 -->
<g id="Node000013" class="node">
<title>Node13</title>
<g id="a_Node000013"><a xlink:href="MCintegrator_8hpp.html" target="_top" xlink:title="Classic Monte Carlo integration engine.">
<polygon fill="white" stroke="#666666" points="1007.67,-162 861.67,-162 861.67,-132 1007.67,-132 1007.67,-162"/>
<text text-anchor="start" x="869.67" y="-150" font-family="Helvetica,sans-Serif" font-size="10.00">src/montecarlo/integrators</text>
<text text-anchor="middle" x="934.67" y="-139" font-family="Helvetica,sans-Serif" font-size="10.00">/MCintegrator.hpp</text>
</a>
</g>
</g>
<!-- Node1&#45;&gt;Node13 -->
<g id="edge38_Node000001_Node000013" class="edge">
<title>Node1&#45;&gt;Node13</title>
<g id="a_edge38_Node000001_Node000013"><a xlink:title=" ">
<path fill="none" stroke="#63b8ff" d="M787.88,-337.5C837.28,-331.13 901.42,-318.59 953.67,-294 996,-274.08 1015.47,-270.2 1035.67,-228 1041.43,-215.97 1042.7,-209.33 1035.67,-198 1025.14,-181.04 1006.97,-169.66 988.92,-162.1"/>
<polygon fill="#63b8ff" stroke="#63b8ff" points="787.38,-334.04 777.89,-338.74 788.24,-340.99 787.38,-334.04"/>
</a>
</g>
</g>
<!-- Node14 -->
<g id="Node000014" class="node">
<title>Node14</title>
<g id="a_Node000014"><a xlink:href="MHintegrator_8hpp.html" target="_top" xlink:title="Metropolis&#45;Hastings MCMC Monte Carlo integration engine.">
<polygon fill="white" stroke="#666666" points="438.67,-162 292.67,-162 292.67,-132 438.67,-132 438.67,-162"/>
<text text-anchor="start" x="300.67" y="-150" font-family="Helvetica,sans-Serif" font-size="10.00">src/montecarlo/integrators</text>
<text text-anchor="middle" x="365.67" y="-139" font-family="Helvetica,sans-Serif" font-size="10.00">/MHintegrator.hpp</text>
</a>
</g>
</g>
<!-- Node1&#45;&gt;Node14 -->
<g id="edge39_Node000001_Node000014" class="edge">
<title>Node1&#45;&gt;Node14</title>
<g id="a_edge39_Node000001_Node000014"><a xlink:title=" ">
<path fill="none" stroke="#63b8ff" d="M631.45,-337.19C509.53,-324.65 283.75,-293.02 241.67,-228 221.28,-196.49 264.83,-174.85 305.83,-162.09"/>
<polygon fill="#63b8ff" stroke="#63b8ff" points="631.17,-340.68 641.48,-338.2 631.88,-333.72 631.17,-340.68"/>
</a>
</g>
</g>
<!-- Node15 -->
<g id="Node000015" class="node">
<title>Node15</title>
<g id="a_Node000015"><a xlink:href="hyperrectangle_8hpp.html" target="_top" xlink:title="Axis&#45;aligned hyperrectangular domain in N dimensions.">
<polygon fill="white" stroke="#666666" points="729.67,-294 595.67,-294 595.67,-264 729.67,-264 729.67,-294"/>
<text text-anchor="start" x="603.67" y="-282" font-family="Helvetica,sans-Serif" font-size="10.00">src/montecarlo/domains</text>
<text text-anchor="middle" x="662.67" y="-271" font-family="Helvetica,sans-Serif" font-size="10.00">/hyperrectangle.hpp</text>
</a>
</g>
</g>
<!-- Node1&#45;&gt;Node15 -->
<g id="edge21_Node000001_Node000015" class="edge">
<title>Node1&#45;&gt;Node15</title>
<g id="a_edge21_Node000001_Node000015"><a xlink:title=" ">
<path fill="none" stroke="#63b8ff" d="M693.17,-321.53C686.48,-312.43 678.97,-302.19 673.07,-294.16"/>
<polygon fill="#63b8ff" stroke="#63b8ff" points="690.5,-323.81 699.24,-329.8 696.14,-319.66 690.5,-323.81"/>
</a>
</g>
</g>
<!-- Node16 -->
<g id="Node000016" class="node">
<title>Node16</title>
<g id="a_Node000016"><a xlink:href="hypersphere_8hpp.html" target="_top" xlink:title="N&#45;dimensional hypersphere (solid ball) domain.">
<polygon fill="white" stroke="#666666" points="922.67,-294 788.67,-294 788.67,-264 922.67,-264 922.67,-294"/>
<text text-anchor="start" x="796.67" y="-282" font-family="Helvetica,sans-Serif" font-size="10.00">src/montecarlo/domains</text>
<text text-anchor="middle" x="855.67" y="-271" font-family="Helvetica,sans-Serif" font-size="10.00">/hypersphere.hpp</text>
</a>
</g>
</g>
<!-- Node1&#45;&gt;Node16 -->
<g id="edge26_Node000001_Node000016" class="edge">
<title>Node1&#45;&gt;Node16</title>
<g id="a_edge26_Node000001_Node000016"><a xlink:title=" ">
<path fill="none" stroke="#63b8ff" d="M750.92,-325.92C773.99,-315.8 802.33,-303.38 823.7,-294.01"/>
<polygon fill="#63b8ff" stroke="#63b8ff" points="749.46,-322.73 741.71,-329.95 752.27,-329.15 749.46,-322.73"/>
</a>
</g>
</g>
<!-- Node17 -->
<g id="Node000017" class="node">
<title>Node17</title>
<g id="a_Node000017"><a xlink:href="polytope_8hpp.html" target="_top" xlink:title="N&#45;dimensional polytope (convex polyhedron) domain for Monte Carlo integration.">
<polygon fill="white" stroke="#666666" points="1500.67,-162 1366.67,-162 1366.67,-132 1500.67,-132 1500.67,-162"/>
<text text-anchor="start" x="1374.67" y="-150" font-family="Helvetica,sans-Serif" font-size="10.00">src/montecarlo/domains</text>
<text text-anchor="middle" x="1433.67" y="-139" font-family="Helvetica,sans-Serif" font-size="10.00">/polytope.hpp</text>
</a>
</g>
</g>
<!-- Node1&#45;&gt;Node17 -->
<g id="edge30_Node000001_Node000017" class="edge">
<title>Node1&#45;&gt;Node17</title>
<g id="a_edge30_Node000001_Node000017"><a xlink:title=" ">
<path fill="none" stroke="#63b8ff" d="M788.24,-343.79C925.12,-342.36 1201.02,-334.35 1287.67,-294 1352.34,-263.88 1404.69,-192.37 1424.8,-162.01"/>
<polygon fill="#63b8ff" stroke="#63b8ff" points="787.8,-340.3 777.83,-343.89 787.86,-347.3 787.8,-340.3"/>
</a>
</g>
</g>
<!-- Node18 -->
<g id="Node000018" class="node">
<title>Node18</title>
<g id="a_Node000018"><a xlink:href="VolumeEstimatorMC_8hpp.html" target="_top" xlink:title="Hit&#45;or&#45;Miss Monte Carlo volume estimation.">
<polygon fill="white" stroke="#666666" points="628.17,-228 483.17,-228 483.17,-198 628.17,-198 628.17,-228"/>
<text text-anchor="start" x="491.17" y="-216" font-family="Helvetica,sans-Serif" font-size="10.00">src/montecarlo/estimators</text>
<text text-anchor="middle" x="555.67" y="-205" font-family="Helvetica,sans-Serif" font-size="10.00">/VolumeEstimatorMC.hpp</text>
</a>
</g>
</g>
<!-- Node1&#45;&gt;Node18 -->
<g id="edge33_Node000001_Node000018" class="edge">
<title>Node1&#45;&gt;Node18</title>
<g id="a_edge33_Node000001_Node000018"><a xlink:title=" ">
<path fill="none" stroke="#63b8ff" d="M638.73,-326.37C619.92,-318.91 600.91,-308.48 586.67,-294 568.7,-275.74 560.89,-245.9 557.69,-228.29"/>
<polygon fill="#63b8ff" stroke="#63b8ff" points="637.63,-329.7 648.22,-329.91 640.07,-323.14 637.63,-329.7"/>
</a>
</g>
</g>
<!-- Node19 -->
<g id="Node000019" class="node">
<title>Node19</title>
<g id="a_Node000019"><a xlink:href="metropolisHastingsSampler_8hpp.html" target="_top" xlink:title="Metropolis&#45;Hastings MCMC sampling engine.">
<polygon fill="white" stroke="#666666" points="426.67,-228 250.67,-228 250.67,-198 426.67,-198 426.67,-228"/>
<text text-anchor="start" x="258.67" y="-216" font-family="Helvetica,sans-Serif" font-size="10.00">src/montecarlo/mcmc</text>
<text text-anchor="middle" x="338.67" y="-205" font-family="Helvetica,sans-Serif" font-size="10.00">/metropolisHastingsSampler.hpp</text>
</a>
</g>
</g>
<!-- Node1&#45;&gt;Node19 -->
<g id="edge41_Node000001_Node000019" class="edge">
<title>Node1&#45;&gt;Node19</title>
<g id="a_edge41_Node000001_Node000019"><a xlink:title=" ">
<path fill="none" stroke="#63b8ff" d="M631.4,-339.38C576.08,-333.78 501.29,-321.39 440.67,-294 404.78,-277.78 370.29,-246.35 352.06,-228.09"/>
<polygon fill="#63b8ff" stroke="#63b8ff" points="631.2,-342.88 641.49,-340.35 631.87,-335.91 631.2,-342.88"/>
</a>
</g>
</g>
<!-- Node20 -->
<g id="Node000020" class="node">
<title>Node20</title>
<g id="a_Node000020"><a xlink:href="gaussianProposal_8hpp.html" target="_top" xlink:title="Diagonal multivariate Gaussian proposal (no domain truncation).">
<polygon fill="white" stroke="#666666" points="156.67,-228 16.67,-228 16.67,-198 156.67,-198 156.67,-228"/>
<text text-anchor="start" x="24.67" y="-216" font-family="Helvetica,sans-Serif" font-size="10.00">src/montecarlo/proposals</text>
<text text-anchor="middle" x="86.67" y="-205" font-family="Helvetica,sans-Serif" font-size="10.00">/gaussianProposal.hpp</text>
</a>
</g>
</g>
<!-- Node1&#45;&gt;Node20 -->
<g id="edge45_Node000001_Node000020" class="edge">
<title>Node1&#45;&gt;Node20</title>
<g id="a_edge45_Node000001_Node000020"><a xlink:title=" ">
<path fill="none" stroke="#63b8ff" d="M631.12,-343C501.88,-340.3 250.74,-330.41 170.67,-294 138.4,-279.33 110.8,-247.02 96.7,-228.26"/>
<polygon fill="#63b8ff" stroke="#63b8ff" points="631.27,-346.5 641.34,-343.2 631.41,-339.5 631.27,-346.5"/>
</a>
</g>
</g>
<!-- Node21 -->
<g id="Node000021" class="node">
<title>Node21</title>
<g id="a_Node000021"><a xlink:href="uniformProposal_8hpp.html" target="_top" xlink:title="Uniform distribution proposal over integration domain.">
<polygon fill="white" stroke="#666666" points="1026.67,-228 886.67,-228 886.67,-198 1026.67,-198 1026.67,-228"/>
<text text-anchor="start" x="894.67" y="-216" font-family="Helvetica,sans-Serif" font-size="10.00">src/montecarlo/proposals</text>
<text text-anchor="middle" x="956.67" y="-205" font-family="Helvetica,sans-Serif" font-size="10.00">/uniformProposal.hpp</text>
</a>
</g>
</g>
<!-- Node1&#45;&gt;Node21 -->
<g id="edge48_Node000001_Node000021" class="edge">
<title>Node1&#45;&gt;Node21</title>
<g id="a_edge48_Node000001_Node000021"><a xlink:title=" ">
<path fill="none" stroke="#63b8ff" d="M787.92,-334.74C843.09,-326.7 910.75,-313.28 931.67,-294 950.29,-276.84 955.15,-246.05 956.35,-228.08"/>
<polygon fill="#63b8ff" stroke="#63b8ff" points="787.18,-331.31 777.77,-336.18 788.16,-338.24 787.18,-331.31"/>
</a>
</g>
</g>
<!-- Node22 -->
<g id="Node000022" class="node">
<title>Node22</title>
<g id="a_Node000022"><a xlink:href="plotter_8hpp.html" target="_top" xlink:title=" ">
<polygon fill="white" stroke="#666666" points="1348.17,-162 1235.17,-162 1235.17,-132 1348.17,-132 1348.17,-162"/>
<text text-anchor="start" x="1243.17" y="-150" font-family="Helvetica,sans-Serif" font-size="10.00">src/montecarlo/utils</text>
<text text-anchor="middle" x="1291.67" y="-139" font-family="Helvetica,sans-Serif" font-size="10.00">/plotter.hpp</text>
</a>
</g>
</g>
<!-- Node1&#45;&gt;Node22 -->
<g id="edge52_Node000001_Node000022" class="edge">
<title>Node1&#45;&gt;Node22</title>
<g id="a_edge52_Node000001_Node000022"><a xlink:title=" ">
<path fill="none" stroke="#63b8ff" d="M787.82,-342.08C932.18,-337.79 1229.15,-325.25 1263.67,-294 1301.37,-259.88 1297.63,-191.81 1293.9,-162.25"/>
<polygon fill="#63b8ff" stroke="#63b8ff" points="787.59,-338.58 777.7,-342.37 787.8,-345.58 787.59,-338.58"/>
</a>
</g>
</g>
<!-- Node4 -->
<g id="Node000004" class="node">
<title>Node4</title>
<g id="a_Node000004"><a xlink:href="benchmarks_8hpp.html" target="_top" xlink:title="Benchmarking framework for Monte Carlo integration algorithms.">
<polygon fill="white" stroke="#666666" points="979.17,-90.5 838.17,-90.5 838.17,-71.5 979.17,-71.5 979.17,-90.5"/>
<text text-anchor="middle" x="908.67" y="-78.5" font-family="Helvetica,sans-Serif" font-size="10.00">src/apps/benchmarks.hpp</text>
</a>
</g>
</g>
<!-- Node3&#45;&gt;Node4 -->
<g id="edge3_Node000003_Node000004" class="edge">
<title>Node3&#45;&gt;Node4</title>
<g id="a_edge3_Node000003_Node000004"><a xlink:title=" ">
<path fill="none" stroke="#63b8ff" d="M1169.17,-256C1141.98,-224.84 1088.4,-167.68 1032.67,-132 1002.86,-112.92 964.56,-98.83 938.47,-90.55"/>
<polygon fill="#63b8ff" stroke="#63b8ff" points="1166.62,-258.42 1175.8,-263.7 1171.92,-253.84 1166.62,-258.42"/>
</a>
</g>
</g>
<!-- Node10 -->
<g id="Node000010" class="node">
<title>Node10</title>
<g id="a_Node000010"><a xlink:href="drone__optimization_8cpp.html" target="_top" xlink:title="Drone arm center of mass optimization using PSO with high&#45;precision verification.">
<polygon fill="white" stroke="#666666" points="1229.17,-90.5 1054.17,-90.5 1054.17,-71.5 1229.17,-71.5 1229.17,-90.5"/>
<text text-anchor="middle" x="1141.67" y="-78.5" font-family="Helvetica,sans-Serif" font-size="10.00">src/apps/drone_optimization.cpp</text>
</a>
</g>
</g>
<!-- Node3&#45;&gt;Node10 -->
<g id="edge9_Node000003_Node000010" class="edge">
<title>Node3&#45;&gt;Node10</title>
<g id="a_edge9_Node000003_Node000010"><a xlink:title=" ">
<path fill="none" stroke="#63b8ff" d="M1191.49,-253.43C1195.09,-223.64 1197.9,-172.4 1182.67,-132 1176.33,-115.19 1161.9,-99.86 1151.97,-90.73"/>
<polygon fill="#63b8ff" stroke="#63b8ff" points="1187.97,-253.35 1190.11,-263.73 1194.91,-254.28 1187.97,-253.35"/>
</a>
</g>
</g>
<!-- Node3&#45;&gt;Node11 -->
<g id="edge10_Node000003_Node000011" class="edge">
<title>Node3&#45;&gt;Node11</title>
<g id="a_edge10_Node000003_Node000011"><a xlink:title=" ">
<path fill="none" stroke="#63b8ff" d="M1110.55,-266.52C1031.26,-254.72 908.68,-236.48 830.86,-224.89"/>
<polygon fill="#63b8ff" stroke="#63b8ff" points="1110.08,-269.99 1120.48,-268 1111.11,-263.07 1110.08,-269.99"/>
</a>
</g>
</g>
<!-- Node5 -->
<g id="Node000005" class="node">
<title>Node5</title>
<g id="a_Node000005"><a xlink:href="benchmarks_8cpp.html" target="_top" xlink:title="Implementation of shared benchmark utilities and global configuration.">
<polygon fill="white" stroke="#666666" points="978.67,-24.5 838.67,-24.5 838.67,-5.5 978.67,-5.5 978.67,-24.5"/>
<text text-anchor="middle" x="908.67" y="-12.5" font-family="Helvetica,sans-Serif" font-size="10.00">src/apps/benchmarks.cpp</text>
</a>
</g>
</g>
<!-- Node4&#45;&gt;Node5 -->
<g id="edge4_Node000004_Node000005" class="edge">
<title>Node4&#45;&gt;Node5</title>
<g id="a_edge4_Node000004_Node000005"><a xlink:title=" ">
<path fill="none" stroke="#63b8ff" d="M908.67,-61.08C908.67,-49.13 908.67,-34.22 908.67,-24.91"/>
<polygon fill="#63b8ff" stroke="#63b8ff" points="905.17,-61.37 908.67,-71.37 912.17,-61.37 905.17,-61.37"/>
</a>
</g>
</g>
<!-- Node6 -->
<g id="Node000006" class="node">
<title>Node6</title>
<g id="a_Node000006"><a xlink:href="ga__benchmarks_8cpp.html" target="_top" xlink:title="Genetic Algorithm benchmark suite with visualization.">
<polygon fill="white" stroke="#666666" points="1116.67,-30 996.67,-30 996.67,0 1116.67,0 1116.67,-30"/>
<text text-anchor="start" x="1004.67" y="-18" font-family="Helvetica,sans-Serif" font-size="10.00">src/apps/benchmarks</text>
<text text-anchor="middle" x="1056.67" y="-7" font-family="Helvetica,sans-Serif" font-size="10.00">/ga_benchmarks.cpp</text>
</a>
</g>
</g>
<!-- Node4&#45;&gt;Node6 -->
<g id="edge5_Node000004_Node000006" class="edge">
<title>Node4&#45;&gt;Node6</title>
<g id="a_edge5_Node000004_Node000006"><a xlink:title=" ">
<path fill="none" stroke="#63b8ff" d="M937.89,-67.36C962.71,-56.63 998.29,-41.25 1024.03,-30.12"/>
<polygon fill="#63b8ff" stroke="#63b8ff" points="936.42,-64.19 928.63,-71.37 939.2,-70.61 936.42,-64.19"/>
</a>
</g>
</g>
<!-- Node7 -->
<g id="Node000007" class="node">
<title>Node7</title>
<g id="a_Node000007"><a xlink:href="integration__benchmarks_8cpp.html" target="_top" xlink:title="Benchmark suite for Monte Carlo integration algorithms.">
<polygon fill="white" stroke="#666666" points="654.67,-30 496.67,-30 496.67,0 654.67,0 654.67,-30"/>
<text text-anchor="start" x="504.67" y="-18" font-family="Helvetica,sans-Serif" font-size="10.00">src/apps/benchmarks</text>
<text text-anchor="middle" x="575.67" y="-7" font-family="Helvetica,sans-Serif" font-size="10.00">/integration_benchmarks.cpp</text>
</a>
</g>
</g>
<!-- Node4&#45;&gt;Node7 -->
<g id="edge6_Node000004_Node000007" class="edge">
<title>Node4&#45;&gt;Node7</title>
<g id="a_edge6_Node000004_Node000007"><a xlink:title=" ">
<path fill="none" stroke="#63b8ff" d="M854.02,-69.5C798,-58.73 710.56,-41.92 648.64,-30.02"/>
<polygon fill="#63b8ff" stroke="#63b8ff" points="853.63,-72.98 864.11,-71.44 854.95,-66.11 853.63,-72.98"/>
</a>
</g>
</g>
<!-- Node8 -->
<g id="Node000008" class="node">
<title>Node8</title>
<g id="a_Node000008"><a xlink:href="pso__benchmarks_8cpp.html" target="_top" xlink:title="Particle Swarm Optimization benchmark suite.">
<polygon fill="white" stroke="#666666" points="820.67,-30 698.67,-30 698.67,0 820.67,0 820.67,-30"/>
<text text-anchor="start" x="706.67" y="-18" font-family="Helvetica,sans-Serif" font-size="10.00">src/apps/benchmarks</text>
<text text-anchor="middle" x="759.67" y="-7" font-family="Helvetica,sans-Serif" font-size="10.00">/pso_benchmarks.cpp</text>
</a>
</g>
</g>
<!-- Node4&#45;&gt;Node8 -->
<g id="edge7_Node000004_Node000008" class="edge">
<title>Node4&#45;&gt;Node8</title>
<g id="a_edge7_Node000004_Node000008"><a xlink:title=" ">
<path fill="none" stroke="#63b8ff" d="M879.25,-67.36C854.27,-56.63 818.45,-41.25 792.53,-30.12"/>
<polygon fill="#63b8ff" stroke="#63b8ff" points="878.01,-70.64 888.58,-71.37 880.77,-64.21 878.01,-70.64"/>
</a>
</g>
</g>
<!-- Node9 -->
<g id="Node000009" class="node">
<title>Node9</title>
<g id="a_Node000009"><a xlink:href="main_8cpp.html" target="_top" xlink:title="Command&#45;line interface for Monte Carlo integration and benchmarking.">
<polygon fill="white" stroke="#666666" points="1286.17,-24.5 1181.17,-24.5 1181.17,-5.5 1286.17,-5.5 1286.17,-24.5"/>
<text text-anchor="middle" x="1233.67" y="-12.5" font-family="Helvetica,sans-Serif" font-size="10.00">src/apps/main.cpp</text>
</a>
</g>
</g>
<!-- Node4&#45;&gt;Node9 -->
<g id="edge8_Node000004_Node000009" class="edge">
<title>Node4&#45;&gt;Node9</title>
<g id="a_edge8_Node000004_Node000009"><a xlink:title=" ">
<path fill="none" stroke="#63b8ff" d="M962.04,-69.49C1025.86,-56.92 1131.46,-36.13 1190.43,-24.51"/>
<polygon fill="#63b8ff" stroke="#63b8ff" points="961.3,-66.07 952.16,-71.44 962.65,-72.94 961.3,-66.07"/>
</a>
</g>
</g>
<!-- Node11&#45;&gt;Node12 -->
<g id="edge11_Node000011_Node000012" class="edge">
<title>Node11&#45;&gt;Node12</title>
<g id="a_edge11_Node000011_Node000012"><a xlink:title=" ">
<path fill="none" stroke="#63b8ff" d="M703.56,-194.86C671.12,-184.58 630.4,-171.68 599.9,-162.01"/>
<polygon fill="#63b8ff" stroke="#63b8ff" points="702.75,-198.27 713.34,-197.95 704.86,-191.6 702.75,-198.27"/>
</a>
</g>
</g>
<!-- Node11&#45;&gt;Node13 -->
<g id="edge14_Node000011_Node000013" class="edge">
<title>Node11&#45;&gt;Node13</title>
<g id="a_edge14_Node000011_Node000013"><a xlink:title=" ">
<path fill="none" stroke="#63b8ff" d="M806.19,-194.46C834.43,-184.25 869.54,-171.55 895.92,-162.01"/>
<polygon fill="#63b8ff" stroke="#63b8ff" points="804.73,-191.26 796.51,-197.95 807.11,-197.85 804.73,-191.26"/>
</a>
</g>
</g>
<!-- Node11&#45;&gt;Node14 -->
<g id="edge18_Node000011_Node000014" class="edge">
<title>Node11&#45;&gt;Node14</title>
<g id="a_edge18_Node000011_Node000014"><a xlink:title=" ">
<path fill="none" stroke="#63b8ff" d="M674.31,-198.39C604.47,-186.99 505.76,-170.87 438.92,-159.96"/>
<polygon fill="#63b8ff" stroke="#63b8ff" points="673.96,-201.88 684.4,-200.04 675.09,-194.97 673.96,-201.88"/>
</a>
</g>
</g>
<!-- Node12&#45;&gt;Node4 -->
<g id="edge12_Node000012_Node000004" class="edge">
<title>Node12&#45;&gt;Node4</title>
<g id="a_edge12_Node000012_Node000004"><a xlink:title=" ">
<path fill="none" stroke="#63b8ff" d="M638.86,-130.92C708.39,-118.31 805.02,-100.79 861.78,-90.5"/>
<polygon fill="#63b8ff" stroke="#63b8ff" points="638.03,-127.51 628.81,-132.74 639.28,-134.4 638.03,-127.51"/>
</a>
</g>
</g>
<!-- Node12&#45;&gt;Node7 -->
<g id="edge13_Node000012_Node000007" class="edge">
<title>Node12&#45;&gt;Node7</title>
<g id="a_edge13_Node000012_Node000007"><a xlink:title=" ">
<path fill="none" stroke="#63b8ff" d="M559.41,-121.68C563.56,-94.7 570.11,-52.11 573.49,-30.14"/>
<polygon fill="#63b8ff" stroke="#63b8ff" points="555.91,-121.42 557.85,-131.84 562.83,-122.49 555.91,-121.42"/>
</a>
</g>
</g>
<!-- Node13&#45;&gt;Node4 -->
<g id="edge15_Node000013_Node000004" class="edge">
<title>Node13&#45;&gt;Node4</title>
<g id="a_edge15_Node000013_Node000004"><a xlink:title=" ">
<path fill="none" stroke="#63b8ff" d="M925.03,-122.28C920.58,-111.31 915.55,-98.94 912.26,-90.84"/>
<polygon fill="#63b8ff" stroke="#63b8ff" points="921.89,-123.85 928.9,-131.8 928.38,-121.21 921.89,-123.85"/>
</a>
</g>
</g>
<!-- Node13&#45;&gt;Node9 -->
<g id="edge17_Node000013_Node000009" class="edge">
<title>Node13&#45;&gt;Node9</title>
<g id="a_edge17_Node000013_Node000009"><a xlink:title=" ">
<path fill="none" stroke="#63b8ff" d="M958,-125.27C979.41,-107.23 1012.74,-81.59 1045.67,-66 1089.32,-45.33 1142.87,-32.15 1181.63,-24.54"/>
<polygon fill="#63b8ff" stroke="#63b8ff" points="955.72,-122.61 950.4,-131.77 960.27,-127.93 955.72,-122.61"/>
</a>
</g>
</g>
<!-- Node13&#45;&gt;Node10 -->
<g id="edge16_Node000013_Node000010" class="edge">
<title>Node13&#45;&gt;Node10</title>
<g id="a_edge16_Node000013_Node000010"><a xlink:title=" ">
<path fill="none" stroke="#63b8ff" d="M989.75,-128.97C1029.86,-116.57 1082.51,-100.29 1114.12,-90.52"/>
<polygon fill="#63b8ff" stroke="#63b8ff" points="988.62,-125.66 980.1,-131.95 990.68,-132.34 988.62,-125.66"/>
</a>
</g>
</g>
<!-- Node14&#45;&gt;Node2 -->
<g id="edge20_Node000014_Node000002" class="edge">
<title>Node14&#45;&gt;Node2</title>
<g id="a_edge20_Node000014_Node000002"><a xlink:title=" ">
<path fill="none" stroke="#63b8ff" d="M309.59,-128.99C275.64,-118.69 232.86,-105.72 200.87,-96.01"/>
<polygon fill="#63b8ff" stroke="#63b8ff" points="308.78,-132.4 319.37,-131.95 310.81,-125.7 308.78,-132.4"/>
</a>
</g>
</g>
<!-- Node14&#45;&gt;Node4 -->
<g id="edge19_Node000014_Node000004" class="edge">
<title>Node14&#45;&gt;Node4</title>
<g id="a_edge19_Node000014_Node000004"><a xlink:title=" ">
<path fill="none" stroke="#63b8ff" d="M448.99,-135.08C457.33,-134.02 465.66,-132.98 473.67,-132 601.95,-116.31 751.68,-99.41 837.81,-89.83"/>
<polygon fill="#63b8ff" stroke="#63b8ff" points="448.33,-131.63 438.85,-136.37 449.21,-138.58 448.33,-131.63"/>
</a>
</g>
</g>
<!-- Node15&#45;&gt;Node2 -->
<g id="edge24_Node000015_Node000002" class="edge">
<title>Node15&#45;&gt;Node2</title>
<g id="a_edge24_Node000015_Node000002"><a xlink:title=" ">
<path fill="none" stroke="#63b8ff" d="M585.1,-276.85C479.33,-273.95 296.71,-263.73 241.67,-228 192.67,-196.19 167.42,-126.25 158.5,-96.19"/>
<polygon fill="#63b8ff" stroke="#63b8ff" points="585.31,-280.36 595.4,-277.12 585.49,-273.36 585.31,-280.36"/>
</a>
</g>
</g>
<!-- Node15&#45;&gt;Node4 -->
<g id="edge22_Node000015_Node000004" class="edge">
<title>Node15&#45;&gt;Node4</title>
<g id="a_edge22_Node000015_Node000004"><a xlink:title=" ">
<path fill="none" stroke="#63b8ff" d="M661.06,-253.48C661.18,-236.39 663.96,-213.89 675.67,-198 722.31,-134.7 813.19,-103.86 866.62,-90.6"/>
<polygon fill="#63b8ff" stroke="#63b8ff" points="657.57,-253.89 661.3,-263.8 664.57,-253.73 657.57,-253.89"/>
</a>
</g>
</g>
<!-- Node15&#45;&gt;Node10 -->
<g id="edge23_Node000015_Node000010" class="edge">
<title>Node15&#45;&gt;Node10</title>
<g id="a_edge23_Node000015_Node000010"><a xlink:title=" ">
<path fill="none" stroke="#63b8ff" d="M740.2,-268.38C847.63,-254.94 1029.36,-231.77 1035.67,-228 1064.59,-210.74 1119.7,-119.49 1136.61,-90.71"/>
<polygon fill="#63b8ff" stroke="#63b8ff" points="739.54,-264.94 730.05,-269.65 740.4,-271.88 739.54,-264.94"/>
</a>
</g>
</g>
<!-- Node15&#45;&gt;Node11 -->
<g id="edge25_Node000015_Node000011" class="edge">
<title>Node15&#45;&gt;Node11</title>
<g id="a_edge25_Node000015_Node000011"><a xlink:title=" ">
<path fill="none" stroke="#63b8ff" d="M692.32,-258.03C706.69,-248.34 723.62,-236.94 736.65,-228.16"/>
<polygon fill="#63b8ff" stroke="#63b8ff" points="690.09,-255.31 683.75,-263.8 694,-261.11 690.09,-255.31"/>
</a>
</g>
</g>
<!-- Node16&#45;&gt;Node4 -->
<g id="edge27_Node000016_Node000004" class="edge">
<title>Node16&#45;&gt;Node4</title>
<g id="a_edge27_Node000016_Node000004"><a xlink:title=" ">
<path fill="none" stroke="#63b8ff" d="M849.14,-253.96C842.32,-223.96 834.86,-171.77 852.67,-132 860.93,-113.56 879.71,-99.12 893.25,-90.6"/>
<polygon fill="#63b8ff" stroke="#63b8ff" points="845.81,-255.05 851.58,-263.94 852.61,-253.39 845.81,-255.05"/>
</a>
</g>
</g>
<!-- Node16&#45;&gt;Node10 -->
<g id="edge28_Node000016_Node000010" class="edge">
<title>Node16&#45;&gt;Node10</title>
<g id="a_edge28_Node000016_Node000010"><a xlink:title=" ">
<path fill="none" stroke="#63b8ff" d="M933.06,-275.67C976.87,-270.74 1030.38,-258.26 1068.67,-228 1115.58,-190.92 1134.75,-115.78 1140.04,-90.51"/>
<polygon fill="#63b8ff" stroke="#63b8ff" points="932.61,-272.2 923.01,-276.69 933.31,-279.16 932.61,-272.2"/>
</a>
</g>
</g>
<!-- Node16&#45;&gt;Node11 -->
<g id="edge29_Node000016_Node000011" class="edge">
<title>Node16&#45;&gt;Node11</title>
<g id="a_edge29_Node000016_Node000011"><a xlink:title=" ">
<path fill="none" stroke="#63b8ff" d="M825.51,-258.3C810.59,-248.56 792.92,-237.02 779.36,-228.16"/>
<polygon fill="#63b8ff" stroke="#63b8ff" points="823.63,-261.26 833.92,-263.8 827.46,-255.4 823.63,-261.26"/>
</a>
</g>
</g>
<!-- Node17&#45;&gt;Node9 -->
<g id="edge32_Node000017_Node000009" class="edge">
<title>Node17&#45;&gt;Node9</title>
<g id="a_edge32_Node000017_Node000009"><a xlink:title=" ">
<path fill="none" stroke="#63b8ff" d="M1403.29,-126.25C1359.09,-97.53 1278.88,-45.39 1247.13,-24.75"/>
<polygon fill="#63b8ff" stroke="#63b8ff" points="1401.59,-129.32 1411.89,-131.84 1405.41,-123.46 1401.59,-129.32"/>
</a>
</g>
</g>
<!-- Node17&#45;&gt;Node10 -->
<g id="edge31_Node000017_Node000010" class="edge">
<title>Node17&#45;&gt;Node10</title>
<g id="a_edge31_Node000017_Node000010"><a xlink:title=" ">
<path fill="none" stroke="#63b8ff" d="M1359.54,-129.75C1302.54,-117.26 1226.07,-100.5 1180.53,-90.52"/>
<polygon fill="#63b8ff" stroke="#63b8ff" points="1359.07,-133.23 1369.59,-131.95 1360.57,-126.4 1359.07,-133.23"/>
</a>
</g>
</g>
<!-- Node18&#45;&gt;Node12 -->
<g id="edge34_Node000018_Node000012" class="edge">
<title>Node18&#45;&gt;Node12</title>
<g id="a_edge34_Node000018_Node000012"><a xlink:title=" ">
<path fill="none" stroke="#63b8ff" d="M555.67,-187.54C555.67,-178.96 555.67,-169.61 555.67,-162.16"/>
<polygon fill="#63b8ff" stroke="#63b8ff" points="552.17,-187.8 555.67,-197.8 559.17,-187.8 552.17,-187.8"/>
</a>
</g>
</g>
<!-- Node18&#45;&gt;Node13 -->
<g id="edge35_Node000018_Node000013" class="edge">
<title>Node18&#45;&gt;Node13</title>
<g id="a_edge35_Node000018_Node000013"><a xlink:title=" ">
<path fill="none" stroke="#63b8ff" d="M638.34,-198.04C704.96,-186.79 797.74,-171.12 861.64,-160.33"/>
<polygon fill="#63b8ff" stroke="#63b8ff" points="637.57,-194.62 628.3,-199.74 638.74,-201.52 637.57,-194.62"/>
</a>
</g>
</g>
<!-- Node18&#45;&gt;Node14 -->
<g id="edge36_Node000018_Node000014" class="edge">
<title>Node18&#45;&gt;Node14</title>
<g id="a_edge36_Node000018_Node000014"><a xlink:title=" ">
<path fill="none" stroke="#63b8ff" d="M504.38,-194.72C473.94,-184.47 435.83,-171.63 407.27,-162.01"/>
<polygon fill="#63b8ff" stroke="#63b8ff" points="503.38,-198.08 513.97,-197.95 505.61,-191.45 503.38,-198.08"/>
</a>
</g>
</g>
<!-- Node19&#45;&gt;Node12 -->
<g id="edge42_Node000019_Node000012" class="edge">
<title>Node19&#45;&gt;Node12</title>
<g id="a_edge42_Node000019_Node000012"><a xlink:title=" ">
<path fill="none" stroke="#63b8ff" d="M395.9,-195.12C430.89,-184.8 475.11,-171.76 508.16,-162.01"/>
<polygon fill="#63b8ff" stroke="#63b8ff" points="394.89,-191.77 386.29,-197.95 396.87,-198.48 394.89,-191.77"/>
</a>
</g>
</g>
<!-- Node19&#45;&gt;Node13 -->
<g id="edge43_Node000019_Node000013" class="edge">
<title>Node19&#45;&gt;Node13</title>
<g id="a_edge43_Node000019_Node000013"><a xlink:title=" ">
<path fill="none" stroke="#63b8ff" d="M437.16,-201.42C556.52,-188.61 754.86,-167.31 861.49,-155.86"/>
<polygon fill="#63b8ff" stroke="#63b8ff" points="436.5,-197.97 426.93,-202.52 437.25,-204.93 436.5,-197.97"/>
</a>
</g>
</g>
<!-- Node19&#45;&gt;Node14 -->
<g id="edge44_Node000019_Node000014" class="edge">
<title>Node19&#45;&gt;Node14</title>
<g id="a_edge44_Node000019_Node000014"><a xlink:title=" ">
<path fill="none" stroke="#63b8ff" d="M348.63,-188.39C352.35,-179.59 356.45,-169.86 359.69,-162.16"/>
<polygon fill="#63b8ff" stroke="#63b8ff" points="345.32,-187.22 344.66,-197.8 351.77,-189.94 345.32,-187.22"/>
</a>
</g>
</g>
<!-- Node20&#45;&gt;Node2 -->
<g id="edge46_Node000020_Node000002" class="edge">
<title>Node20&#45;&gt;Node2</title>
<g id="a_edge46_Node000020_Node000002"><a xlink:title=" ">
<path fill="none" stroke="#63b8ff" d="M98.83,-188.75C112.91,-161.84 135.63,-118.4 147.27,-96.14"/>
<polygon fill="#63b8ff" stroke="#63b8ff" points="95.61,-187.36 94.08,-197.84 101.81,-190.6 95.61,-187.36"/>
</a>
</g>
</g>
<!-- Node20&#45;&gt;Node12 -->
<g id="edge47_Node000020_Node000012" class="edge">
<title>Node20&#45;&gt;Node12</title>
<g id="a_edge47_Node000020_Node000012"><a xlink:title=" ">
<path fill="none" stroke="#63b8ff" d="M166.89,-201.05C255.52,-188.96 397.02,-169.65 482.66,-157.96"/>
<polygon fill="#63b8ff" stroke="#63b8ff" points="166.32,-197.6 156.88,-202.42 167.27,-204.53 166.32,-197.6"/>
</a>
</g>
</g>
<!-- Node21&#45;&gt;Node4 -->
<g id="edge49_Node000021_Node000004" class="edge">
<title>Node21&#45;&gt;Node4</title>
<g id="a_edge49_Node000021_Node000004"><a xlink:title=" ">
<path fill="none" stroke="#63b8ff" d="M990.63,-192.09C1000.95,-184.15 1011.04,-174.01 1016.67,-162 1022.33,-149.93 1023.85,-143.24 1016.67,-132 1002.6,-109.98 976.06,-97.51 952.82,-90.53"/>
<polygon fill="#63b8ff" stroke="#63b8ff" points="988.49,-189.31 982.39,-197.97 992.56,-195.01 988.49,-189.31"/>
</a>
</g>
</g>
<!-- Node21&#45;&gt;Node12 -->
<g id="edge50_Node000021_Node000012" class="edge">
<title>Node21&#45;&gt;Node12</title>
<g id="a_edge50_Node000021_Node000012"><a xlink:title=" ">
<path fill="none" stroke="#63b8ff" d="M876.4,-199.19C804.17,-187.66 698.94,-170.87 628.95,-159.7"/>
<polygon fill="#63b8ff" stroke="#63b8ff" points="875.94,-202.66 886.36,-200.78 877.04,-195.75 875.94,-202.66"/>
</a>
</g>
</g>
<!-- Node21&#45;&gt;Node13 -->
<g id="edge51_Node000021_Node000013" class="edge">
<title>Node21&#45;&gt;Node13</title>
<g id="a_edge51_Node000021_Node000013"><a xlink:title=" ">
<path fill="none" stroke="#63b8ff" d="M948.46,-188.11C945.46,-179.38 942.16,-169.78 939.54,-162.16"/>
<polygon fill="#63b8ff" stroke="#63b8ff" points="945.23,-189.48 951.79,-197.8 951.85,-187.2 945.23,-189.48"/>
</a>
</g>
</g>
<!-- Node22&#45;&gt;Node4 -->
<g id="edge53_Node000022_Node000004" class="edge">
<title>Node22&#45;&gt;Node4</title>
<g id="a_edge53_Node000022_Node000004"><a xlink:title=" ">
<path fill="none" stroke="#63b8ff" d="M1225.27,-134.9C1149.73,-122.28 1028.01,-101.94 959.59,-90.51"/>
<polygon fill="#63b8ff" stroke="#63b8ff" points="1224.72,-138.36 1235.16,-136.56 1225.87,-131.46 1224.72,-138.36"/>
</a>
</g>
</g>
<!-- Node22&#45;&gt;Node9 -->
<g id="edge55_Node000022_Node000009" class="edge">
<title>Node22&#45;&gt;Node9</title>
<g id="a_edge55_Node000022_Node000009"><a xlink:title=" ">
<path fill="none" stroke="#63b8ff" d="M1281.12,-122.35C1268.03,-93.01 1246.38,-44.48 1237.57,-24.75"/>
<polygon fill="#63b8ff" stroke="#63b8ff" points="1278.08,-124.13 1285.35,-131.84 1284.47,-121.28 1278.08,-124.13"/>
</a>
</g>
</g>
<!-- Node22&#45;&gt;Node10 -->
<g id="edge54_Node000022_Node000010" class="edge">
<title>Node22&#45;&gt;Node10</title>
<g id="a_edge54_Node000022_Node000010"><a xlink:title=" ">
<path fill="none" stroke="#63b8ff" d="M1249.34,-127.94C1220.61,-115.68 1183.91,-100.02 1161.63,-90.52"/>
<polygon fill="#63b8ff" stroke="#63b8ff" points="1248.18,-131.25 1258.75,-131.95 1250.93,-124.81 1248.18,-131.25"/>
</a>
</g>
</g>
</g>
</svg>

<g id="navigator" transform="translate(0 0)" fill="#404254">
  <rect fill="#f2f5e9" fill-opacity="0.5" stroke="#606060" stroke-width=".5" x="0" y="0" width="60" height="60"/>
  <use id="zoomplus" xlink:href="#zoomPlus" x="17" y="9" onmousedown="handleZoom(evt,'in')"/>
  <use id="zoomminus" xlink:href="#zoomMin" x="42" y="9" onmousedown="handleZoom(evt,'out')"/>
  <use id="reset" xlink:href="#resetDef" x="30" y="36" onmousedown="handleReset()"/>
   <use id="arrowup" xlink:href="#arrowUp" x="0" y="0" onmousedown="handlePan(0,-1)"/>
  <use id="arrowright" xlink:href="#arrowRight" x="0" y="0" onmousedown="handlePan(1,0)"/>
  <use id="arrowdown" xlink:href="#arrowDown" x="0" y="0" onmousedown="handlePan(0,1)"/>
  <use id="arrowleft" xlink:href="#arrowLeft" x="0" y="0" onmousedown="handlePan(-1,0)"/>
</g>
<svg viewBox="0 0 15 15" width="100%" height="30px" preserveAspectRatio="xMaxYMin meet">
 <g id="arrow_out" transform="scale(0.3 0.3)">
  <a xlink:href="integration__domain_8hpp__dep__incl_org.svg" target="_base">
   <rect id="button" ry="5" rx="5" y="6" x="6" height="38" width="38"
        fill="#f2f5e9" fill-opacity="0.5" stroke="#606060" stroke-width="1.0"/>
   <path id="arrow"
     d="M 11.500037,31.436501 C 11.940474,20.09759 22.043105,11.32322 32.158766,21.979434 L 37.068811,17.246167 C 37.068811,17.246167 37.088388,32 37.088388,32 L 22.160133,31.978069 C 22.160133,31.978069 26.997745,27.140456 26.997745,27.140456 C 18.528582,18.264221 13.291696,25.230495 11.500037,31.436501 z"
     style="fill:#404040;"/>
  </a>
 </g>
</svg>

<style type='text/css'>
<![CDATA[
[data-mouse-over-selected='false'] { opacity: 0.7; }
[data-mouse-over-selected='true']  { opacity: 1.0; }
]]>
</style>
<script type="application/ecmascript"><![CDATA[
document.addEventListener('DOMContentLoaded', (event) => {
  highlightEdges();
  highlightAdjacentNodes();
});
]]></script>
</svg>
