<?xml version="1.0" encoding="UTF-8" standalone="no"?>
<!DOCTYPE svg PUBLIC "-//W3C//DTD SVG 1.1//EN"
 "http://www.w3.org/Graphics/SVG/1.1/DTD/svg11.dtd">
<!-- Generated by graphviz version 2.43.0 (0)
 -->
<!-- Title: rectangularIntegration Pages: 1 -->
<svg width="797pt" height="296pt"
 viewBox="0.00 0.00 797.00 295.50" xmlns="http://www.w3.org/2000/svg" xmlns:xlink="http://www.w3.org/1999/xlink">
<g id="graph0" class="graph" transform="scale(1 1) rotate(0) translate(4 291.5)">
<title>rectangularIntegration</title>
<!-- Node1 -->
<g id="Node000001" class="node">
<title>Node1</title>
<g id="a_Node000001"><a xlink:title=" ">
<polygon fill="#999999" stroke="#666666" points="125,-153 0,-153 0,-134 125,-134 125,-153"/>
<text text-anchor="middle" x="62.5" y="-141" font-family="Helvetica,sans-Serif" font-size="10.00">rectangularIntegration</text>
</a>
</g>
</g>
<!-- Node2 -->
<g id="Node000002" class="node">
<title>Node2</title>
<g id="a_Node000002"><a xlink:href="integration__benchmarks_8cpp.html#a25748d355cbdda15ae29a66bcbe51f89" target="_top" xlink:title=" ">
<polygon fill="white" stroke="#666666" points="271,-153 161,-153 161,-134 271,-134 271,-153"/>
<text text-anchor="middle" x="216" y="-141" font-family="Helvetica,sans-Serif" font-size="10.00">runRectBenchmark</text>
</a>
</g>
</g>
<!-- Node1&#45;&gt;Node2 -->
<g id="edge1_Node000001_Node000002" class="edge">
<title>Node1&#45;&gt;Node2</title>
<g id="a_edge1_Node000001_Node000002"><a xlink:title=" ">
<path fill="none" stroke="#63b8ff" d="M125.12,-143.5C133.51,-143.5 142.13,-143.5 150.57,-143.5"/>
<polygon fill="#63b8ff" stroke="#63b8ff" points="150.73,-147 160.73,-143.5 150.73,-140 150.73,-147"/>
</a>
</g>
</g>
<!-- Node3 -->
<g id="Node000003" class="node">
<title>Node3</title>
<g id="a_Node000003"><a xlink:href="integration__benchmarks_8cpp.html#a58f19e7e4fd19b25ecf0048ccb82e705" target="_top" xlink:title="Generic execution loop for integration benchmarks.">
<polygon fill="white" stroke="#666666" points="417,-153 307,-153 307,-134 417,-134 417,-153"/>
<text text-anchor="middle" x="362" y="-141" font-family="Helvetica,sans-Serif" font-size="10.00">executeBenchmark</text>
</a>
</g>
</g>
<!-- Node2&#45;&gt;Node3 -->
<g id="edge2_Node000002_Node000003" class="edge">
<title>Node2&#45;&gt;Node3</title>
<g id="a_edge2_Node000002_Node000003"><a xlink:title=" ">
<path fill="none" stroke="#63b8ff" d="M271.03,-143.5C279.31,-143.5 287.94,-143.5 296.42,-143.5"/>
<polygon fill="#63b8ff" stroke="#63b8ff" points="296.67,-147 306.67,-143.5 296.67,-140 296.67,-147"/>
</a>
</g>
</g>
<!-- Node4 -->
<g id="Node000004" class="node">
<title>Node4</title>
<g id="a_Node000004"><a xlink:href="namespacemc_1_1utils.html#a0dffb17257bac930060d199a00fe8eef" target="_top" xlink:title=" ">
<polygon fill="white" stroke="#666666" points="602,-287.5 465,-287.5 465,-257.5 602,-257.5 602,-287.5"/>
<text text-anchor="start" x="473" y="-275.5" font-family="Helvetica,sans-Serif" font-size="10.00">mc::utils::createFunction</text>
<text text-anchor="middle" x="533.5" y="-264.5" font-family="Helvetica,sans-Serif" font-size="10.00">GnuplotScript</text>
</a>
</g>
</g>
<!-- Node3&#45;&gt;Node4 -->
<g id="edge3_Node000003_Node000004" class="edge">
<title>Node3&#45;&gt;Node4</title>
<g id="a_edge3_Node000003_Node000004"><a xlink:title=" ">
<path fill="none" stroke="#63b8ff" d="M368.63,-153.23C381.12,-173.93 413.18,-222.54 453,-248.5 455.43,-250.09 457.98,-251.57 460.6,-252.96"/>
<polygon fill="#63b8ff" stroke="#63b8ff" points="459.23,-256.19 469.76,-257.33 462.24,-249.87 459.23,-256.19"/>
</a>
</g>
</g>
<!-- Node6 -->
<g id="Node000006" class="node">
<title>Node6</title>
<g id="a_Node000006"><a xlink:href="namespacemc_1_1utils.html#afaf70e150a29a11f0ab5e121caa951d3" target="_top" xlink:title=" ">
<polygon fill="white" stroke="#666666" points="600.5,-239.5 466.5,-239.5 466.5,-209.5 600.5,-209.5 600.5,-239.5"/>
<text text-anchor="start" x="474.5" y="-227.5" font-family="Helvetica,sans-Serif" font-size="10.00">mc::utils::createGnuplot</text>
<text text-anchor="middle" x="533.5" y="-216.5" font-family="Helvetica,sans-Serif" font-size="10.00">Script</text>
</a>
</g>
</g>
<!-- Node3&#45;&gt;Node6 -->
<g id="edge5_Node000003_Node000006" class="edge">
<title>Node3&#45;&gt;Node6</title>
<g id="a_edge5_Node000003_Node000006"><a xlink:title=" ">
<path fill="none" stroke="#63b8ff" d="M377.86,-153.16C395.35,-164.29 425.53,-182.67 453,-195.5 460.75,-199.12 469.09,-202.59 477.34,-205.8"/>
<polygon fill="#63b8ff" stroke="#63b8ff" points="476.37,-209.17 486.96,-209.43 478.84,-202.62 476.37,-209.17"/>
</a>
</g>
</g>
<!-- Node7 -->
<g id="Node000007" class="node">
<title>Node7</title>
<g id="a_Node000007"><a xlink:href="classmc_1_1domains_1_1IntegrationDomain.html#a31ef4c76c6c87398eebbb660df203384" target="_top" xlink:title="Get the axis&#45;aligned bounding box of the domain.">
<polygon fill="white" stroke="#666666" points="789,-217.5 650,-217.5 650,-187.5 789,-187.5 789,-217.5"/>
<text text-anchor="start" x="658" y="-205.5" font-family="Helvetica,sans-Serif" font-size="10.00">mc::domains::Integration</text>
<text text-anchor="middle" x="719.5" y="-194.5" font-family="Helvetica,sans-Serif" font-size="10.00">Domain::getBounds</text>
</a>
</g>
</g>
<!-- Node3&#45;&gt;Node7 -->
<g id="edge9_Node000003_Node000007" class="edge">
<title>Node3&#45;&gt;Node7</title>
<g id="a_edge9_Node000003_Node000007"><a xlink:title=" ">
<path fill="none" stroke="#63b8ff" d="M408.71,-153.05C422.88,-155.9 438.57,-158.94 453,-161.5 515.67,-172.6 586.96,-183.52 639.88,-191.29"/>
<polygon fill="#63b8ff" stroke="#63b8ff" points="639.48,-194.77 649.88,-192.75 640.49,-187.84 639.48,-194.77"/>
</a>
</g>
</g>
<!-- Node8 -->
<g id="Node000008" class="node">
<title>Node8</title>
<g id="a_Node000008"><a xlink:href="namespacemc_1_1rng.html#ae8ce618a80ac94df709f1fd752932c0c" target="_top" xlink:title="Get the current global seed.">
<polygon fill="white" stroke="#666666" points="603,-153 464,-153 464,-134 603,-134 603,-153"/>
<text text-anchor="middle" x="533.5" y="-141" font-family="Helvetica,sans-Serif" font-size="10.00">mc::rng::get_global_seed</text>
</a>
</g>
</g>
<!-- Node3&#45;&gt;Node8 -->
<g id="edge8_Node000003_Node000008" class="edge">
<title>Node3&#45;&gt;Node8</title>
<g id="a_edge8_Node000003_Node000008"><a xlink:title=" ">
<path fill="none" stroke="#63b8ff" d="M417.1,-143.5C428.68,-143.5 441.14,-143.5 453.44,-143.5"/>
<polygon fill="#63b8ff" stroke="#63b8ff" points="453.72,-147 463.72,-143.5 453.72,-140 453.72,-147"/>
</a>
</g>
</g>
<!-- Node9 -->
<g id="Node000009" class="node">
<title>Node9</title>
<g id="a_Node000009"><a xlink:href="classmc_1_1integrators_1_1ISMontecarloIntegrator.html#abf2130a6963f200e1baaff24c29028f4" target="_top" xlink:title="Compute the integral using importance sampling.">
<polygon fill="white" stroke="#666666" points="614,-115.5 453,-115.5 453,-85.5 614,-85.5 614,-115.5"/>
<text text-anchor="start" x="461" y="-103.5" font-family="Helvetica,sans-Serif" font-size="10.00">mc::integrators::ISMontecarlo</text>
<text text-anchor="middle" x="533.5" y="-92.5" font-family="Helvetica,sans-Serif" font-size="10.00">Integrator::integrate</text>
</a>
</g>
</g>
<!-- Node3&#45;&gt;Node9 -->
<g id="edge10_Node000003_Node000009" class="edge">
<title>Node3&#45;&gt;Node9</title>
<g id="a_edge10_Node000003_Node000009"><a xlink:title=" ">
<path fill="none" stroke="#63b8ff" d="M400.62,-133.96C419.14,-129.26 442.07,-123.44 463.58,-117.98"/>
<polygon fill="#63b8ff" stroke="#63b8ff" points="464.51,-121.36 473.35,-115.51 462.79,-114.57 464.51,-121.36"/>
</a>
</g>
</g>
<!-- Node10 -->
<g id="Node000010" class="node">
<title>Node10</title>
<g id="a_Node000010"><a xlink:href="classmc_1_1integrators_1_1MontecarloIntegrator.html#af3c3289ee5bdf681b6c1ffa75c45b950" target="_top" xlink:title="Legacy integration routine (deprecated).">
<polygon fill="white" stroke="#666666" points="609.5,-67.5 457.5,-67.5 457.5,-37.5 609.5,-37.5 609.5,-67.5"/>
<text text-anchor="start" x="465.5" y="-55.5" font-family="Helvetica,sans-Serif" font-size="10.00">mc::integrators::Montecarlo</text>
<text text-anchor="middle" x="533.5" y="-44.5" font-family="Helvetica,sans-Serif" font-size="10.00">Integrator::OLDintegrate</text>
</a>
</g>
</g>
<!-- Node3&#45;&gt;Node10 -->
<g id="edge11_Node000003_Node000010" class="edge">
<title>Node3&#45;&gt;Node10</title>
<g id="a_edge11_Node000003_Node000010"><a xlink:title=" ">
<path fill="none" stroke="#63b8ff" d="M373.28,-133.94C389.21,-119.58 421.34,-92.45 453,-76.5 456.77,-74.6 460.71,-72.83 464.74,-71.17"/>
<polygon fill="#63b8ff" stroke="#63b8ff" points="466.18,-74.36 474.26,-67.51 463.67,-67.83 466.18,-74.36"/>
</a>
</g>
</g>
<!-- Node11 -->
<g id="Node000011" class="node">
<title>Node11</title>
<g id="a_Node000011"><a xlink:href="benchmarks_8cpp.html#a5137168fd2eda60894530765f6d5af1e" target="_top" xlink:title="Export benchmark results to CSV file for analysis.">
<polygon fill="white" stroke="#666666" points="571.5,-19 495.5,-19 495.5,0 571.5,0 571.5,-19"/>
<text text-anchor="middle" x="533.5" y="-7" font-family="Helvetica,sans-Serif" font-size="10.00">saveResults</text>
</a>
</g>
</g>
<!-- Node3&#45;&gt;Node11 -->
<g id="edge12_Node000003_Node000011" class="edge">
<title>Node3&#45;&gt;Node11</title>
<g id="a_edge12_Node000003_Node000011"><a xlink:title=" ">
<path fill="none" stroke="#63b8ff" d="M367.74,-133.67C379.09,-111.22 410.12,-56.03 453,-28.5 462.6,-22.34 474.01,-18.17 485.15,-15.36"/>
<polygon fill="#63b8ff" stroke="#63b8ff" points="486.23,-18.7 495.24,-13.13 484.72,-11.87 486.23,-18.7"/>
</a>
</g>
</g>
<!-- Node5 -->
<g id="Node000005" class="node">
<title>Node5</title>
<g id="a_Node000005"><a xlink:href="classmc_1_1domains_1_1IntegrationDomain.html#a31b3f4605bad5c5c88c6df26d05b27e9" target="_top" xlink:title="Test whether a point lies inside the domain.">
<polygon fill="white" stroke="#666666" points="789,-276.5 650,-276.5 650,-246.5 789,-246.5 789,-276.5"/>
<text text-anchor="start" x="658" y="-264.5" font-family="Helvetica,sans-Serif" font-size="10.00">mc::domains::Integration</text>
<text text-anchor="middle" x="719.5" y="-253.5" font-family="Helvetica,sans-Serif" font-size="10.00">Domain::isInside</text>
</a>
</g>
</g>
<!-- Node4&#45;&gt;Node5 -->
<g id="edge4_Node000004_Node000005" class="edge">
<title>Node4&#45;&gt;Node5</title>
<g id="a_edge4_Node000004_Node000005"><a xlink:title=" ">
<path fill="none" stroke="#63b8ff" d="M602.23,-268.45C614.52,-267.72 627.43,-266.94 640,-266.19"/>
<polygon fill="#63b8ff" stroke="#63b8ff" points="640.22,-269.69 649.99,-265.6 639.8,-262.7 640.22,-269.69"/>
</a>
</g>
</g>
<!-- Node6&#45;&gt;Node5 -->
<g id="edge7_Node000006_Node000005" class="edge">
<title>Node6&#45;&gt;Node5</title>
<g id="a_edge7_Node000006_Node000005"><a xlink:title=" ">
<path fill="none" stroke="#63b8ff" d="M600.67,-237.81C613.39,-240.36 626.84,-243.07 639.91,-245.7"/>
<polygon fill="#63b8ff" stroke="#63b8ff" points="639.33,-249.15 649.82,-247.69 640.71,-242.29 639.33,-249.15"/>
</a>
</g>
</g>
<!-- Node6&#45;&gt;Node7 -->
<g id="edge6_Node000006_Node000007" class="edge">
<title>Node6&#45;&gt;Node7</title>
<g id="a_edge6_Node000006_Node000007"><a xlink:title=" ">
<path fill="none" stroke="#63b8ff" d="M600.67,-216.59C613.27,-215.08 626.57,-213.49 639.53,-211.94"/>
<polygon fill="#63b8ff" stroke="#63b8ff" points="640.31,-215.37 649.82,-210.71 639.47,-208.42 640.31,-215.37"/>
</a>
</g>
</g>
</g>
</svg>
