<?xml version="1.0" encoding="UTF-8" standalone="no"?>
<!DOCTYPE svg PUBLIC "-//W3C//DTD SVG 1.1//EN"
 "http://www.w3.org/Graphics/SVG/1.1/DTD/svg11.dtd">
<!-- Generated by graphviz version 2.43.0 (0)
 -->
<!-- Title: src/montecarlo/integrators/integrator.hpp Pages: 1 -->
<!--zoomable 269 -->

<svg id="main" version="1.1" xmlns="http://www.w3.org/2000/svg" xmlns:xlink="http://www.w3.org/1999/xlink" xml:space="preserve" onload="init(evt)">
<style type="text/css"><![CDATA[
.node, .edge {opacity: 0.7;}
.node.selected, .edge.selected {opacity: 1;}
.edge:hover path { stroke: red; }
.edge:hover polygon { stroke: red; fill: red; }
]]></style>

<defs>
  <circle id="rim" cx="0" cy="0" r="7"/>
  <circle id="rim2" cx="0" cy="0" r="3.5"/>
  <g id="zoomPlus">
    <use xlink:href="#rim" fill="#404040"><set attributeName="fill" to="#808080" begin="zoomplus.mouseover" end="zoomplus.mouseout"/></use>
    <path d="M-4,0h8M0,-4v8" fill="none" stroke="white" stroke-width="1.5" pointer-events="none"/>
  </g>
  <g id="zoomMin">
    <use xlink:href="#rim" fill="#404040"><set attributeName="fill" to="#808080" begin="zoomminus.mouseover" end="zoomminus.mouseout"/></use>
    <path d="M-4,0h8" fill="none" stroke="white" stroke-width="1.5" pointer-events="none"/>
  </g>
  <g id="arrowUp" transform="translate(30 24)">
    <use xlink:href="#rim"/>
    <path pointer-events="none" fill="none" stroke="white" stroke-width="1.5" d="M0,-3.0v7 M-2.5,-0.5L0,-3.0L2.5,-0.5"/>
  </g>
  <g id="arrowRight" transform="rotate(90) translate(36 -43)">
    <use xlink:href="#rim"/>
    <path pointer-events="none" fill="none" stroke="white" stroke-width="1.5" d="M0,-3.0v7 M-2.5,-0.5L0,-3.0L2.5,-0.5"/>
  </g>
  <g id="arrowDown" transform="rotate(180) translate(-30 -48)">
    <use xlink:href="#rim"/>
    <path pointer-events="none" fill="none" stroke="white" stroke-width="1.5" d="M0,-3.0v7 M-2.5,-0.5L0,-3.0L2.5,-0.5"/>
  </g>
  <g id="arrowLeft" transform="rotate(270) translate(-36 17)">
    <use xlink:href="#rim"/>
    <path pointer-events="none" fill="none" stroke="white" stroke-width="1.5" d="M0,-3.0v7 M-2.5,-0.5L0,-3.0L2.5,-0.5"/>
  </g>
  <g id="resetDef">
    <use xlink:href="#rim2" fill="#404040"><set attributeName="fill" to="#808080" begin="reset.mouseover" end="reset.mouseout"/></use>
  </g>
</defs>
<script type="application/ecmascript">
var viewWidth = 961;
var viewHeight = 269;
var sectionId = 'dynsection-0';
</script>
<script type="application/ecmascript" xlink:href="svg.min.js"/>
<svg id="graph" class="graph">
<g id="viewport">
<title>src/montecarlo/integrators/integrator.hpp</title>
<!-- Node1 -->
<g id="Node000001" class="node">
<title>Node1</title>
<g id="a_Node000001"><a xlink:title="Abstract base class for numerical integration in N&#45;dimensional spaces.">
<polygon fill="#999999" stroke="#666666" points="364,-261 218,-261 218,-231 364,-231 364,-261"/>
<text text-anchor="start" x="226" y="-249" font-family="Helvetica,sans-Serif" font-size="10.00">src/montecarlo/integrators</text>
<text text-anchor="middle" x="291" y="-238" font-family="Helvetica,sans-Serif" font-size="10.00">/integrator.hpp</text>
</a>
</g>
</g>
<!-- Node2 -->
<g id="Node000002" class="node">
<title>Node2</title>
<g id="a_Node000002"><a xlink:title=" ">
<polygon fill="#e0e0e0" stroke="#999999" points="54,-195 0,-195 0,-176 54,-176 54,-195"/>
<text text-anchor="middle" x="27" y="-183" font-family="Helvetica,sans-Serif" font-size="10.00">random</text>
</a>
</g>
</g>
<!-- Node1&#45;&gt;Node2 -->
<g id="edge1_Node000001_Node000002" class="edge">
<title>Node1&#45;&gt;Node2</title>
<g id="a_edge1_Node000001_Node000002"><a xlink:title=" ">
<path fill="none" stroke="#63b8ff" d="M225.58,-230.94C182.38,-221.59 124.24,-208.89 64.17,-195.24"/>
<polygon fill="#63b8ff" stroke="#63b8ff" points="64.64,-191.76 54.12,-192.95 63.09,-198.58 64.64,-191.76"/>
</a>
</g>
</g>
<!-- Node3 -->
<g id="Node000003" class="node">
<title>Node3</title>
<g id="a_Node000003"><a xlink:title=" ">
<polygon fill="#e0e0e0" stroke="#999999" points="137.5,-195 72.5,-195 72.5,-176 137.5,-176 137.5,-195"/>
<text text-anchor="middle" x="105" y="-183" font-family="Helvetica,sans-Serif" font-size="10.00">functional</text>
</a>
</g>
</g>
<!-- Node1&#45;&gt;Node3 -->
<g id="edge2_Node000001_Node000003" class="edge">
<title>Node1&#45;&gt;Node3</title>
<g id="a_edge2_Node000001_Node000003"><a xlink:title=" ">
<path fill="none" stroke="#63b8ff" d="M246.45,-230.99C214.49,-220.94 171.94,-207.55 141.88,-198.1"/>
<polygon fill="#63b8ff" stroke="#63b8ff" points="142.79,-194.72 132.2,-195.05 140.69,-201.39 142.79,-194.72"/>
</a>
</g>
</g>
<!-- Node4 -->
<g id="Node000004" class="node">
<title>Node4</title>
<g id="a_Node000004"><a xlink:title=" ">
<polygon fill="#e0e0e0" stroke="#999999" points="493,-19 451,-19 451,0 493,0 493,-19"/>
<text text-anchor="middle" x="472" y="-7" font-family="Helvetica,sans-Serif" font-size="10.00">array</text>
</a>
</g>
</g>
<!-- Node1&#45;&gt;Node4 -->
<g id="edge3_Node000001_Node000004" class="edge">
<title>Node1&#45;&gt;Node4</title>
<g id="a_edge3_Node000001_Node000004"><a xlink:title=" ">
<path fill="none" stroke="#63b8ff" d="M232.75,-230.96C214.27,-223.46 195.84,-212.1 185,-195 168.13,-168.38 192.04,-130.97 214,-110 279.12,-47.8 387.33,-23.33 440.52,-14.69"/>
<polygon fill="#63b8ff" stroke="#63b8ff" points="441.34,-18.11 450.69,-13.13 440.28,-11.19 441.34,-18.11"/>
</a>
</g>
</g>
<!-- Node5 -->
<g id="Node000005" class="node">
<title>Node5</title>
<g id="a_Node000005"><a xlink:title=" ">
<polygon fill="#e0e0e0" stroke="#999999" points="249.5,-195 194.5,-195 194.5,-176 249.5,-176 249.5,-195"/>
<text text-anchor="middle" x="222" y="-183" font-family="Helvetica,sans-Serif" font-size="10.00">fstream</text>
</a>
</g>
</g>
<!-- Node1&#45;&gt;Node5 -->
<g id="edge4_Node000001_Node000005" class="edge">
<title>Node1&#45;&gt;Node5</title>
<g id="a_edge4_Node000001_Node000005"><a xlink:title=" ">
<path fill="none" stroke="#63b8ff" d="M274.3,-230.84C263.97,-222.09 250.72,-210.85 240.14,-201.88"/>
<polygon fill="#63b8ff" stroke="#63b8ff" points="242.23,-199.06 232.34,-195.27 237.7,-204.4 242.23,-199.06"/>
</a>
</g>
</g>
<!-- Node6 -->
<g id="Node000006" class="node">
<title>Node6</title>
<g id="a_Node000006"><a xlink:title=" ">
<polygon fill="#e0e0e0" stroke="#999999" points="314.5,-195 267.5,-195 267.5,-176 314.5,-176 314.5,-195"/>
<text text-anchor="middle" x="291" y="-183" font-family="Helvetica,sans-Serif" font-size="10.00">vector</text>
</a>
</g>
</g>
<!-- Node1&#45;&gt;Node6 -->
<g id="edge5_Node000001_Node000006" class="edge">
<title>Node1&#45;&gt;Node6</title>
<g id="a_edge5_Node000001_Node000006"><a xlink:title=" ">
<path fill="none" stroke="#63b8ff" d="M291,-230.84C291,-223.21 291,-213.7 291,-205.45"/>
<polygon fill="#63b8ff" stroke="#63b8ff" points="294.5,-205.27 291,-195.27 287.5,-205.27 294.5,-205.27"/>
</a>
</g>
</g>
<!-- Node7 -->
<g id="Node000007" class="node">
<title>Node7</title>
<g id="a_Node000007"><a xlink:href="integration__domain_8hpp.html" target="_top" xlink:title="Abstract interface for N&#45;dimensional integration domains.">
<polygon fill="white" stroke="#666666" points="571,-140 447,-140 447,-110 571,-110 571,-140"/>
<text text-anchor="start" x="455" y="-128" font-family="Helvetica,sans-Serif" font-size="10.00">../domains/integration</text>
<text text-anchor="middle" x="509" y="-117" font-family="Helvetica,sans-Serif" font-size="10.00">_domain.hpp</text>
</a>
</g>
</g>
<!-- Node1&#45;&gt;Node7 -->
<g id="edge6_Node000001_Node000007" class="edge">
<title>Node1&#45;&gt;Node7</title>
<g id="a_edge6_Node000001_Node000007"><a xlink:title=" ">
<path fill="none" stroke="#63b8ff" d="M364.17,-236.17C416.54,-228.29 480.86,-214.9 499,-195 509.79,-183.17 512.1,-165.14 511.81,-150.48"/>
<polygon fill="#63b8ff" stroke="#63b8ff" points="515.28,-149.85 511.18,-140.08 508.29,-150.28 515.28,-149.85"/>
</a>
</g>
</g>
<!-- Node10 -->
<g id="Node000010" class="node">
<title>Node10</title>
<g id="a_Node000010"><a xlink:href="hypersphere_8hpp.html" target="_top" xlink:title="N&#45;dimensional hypersphere (solid ball) domain.">
<polygon fill="white" stroke="#666666" points="708,-195 556,-195 556,-176 708,-176 708,-195"/>
<text text-anchor="middle" x="632" y="-183" font-family="Helvetica,sans-Serif" font-size="10.00">../domains/hypersphere.hpp</text>
</a>
</g>
</g>
<!-- Node1&#45;&gt;Node10 -->
<g id="edge11_Node000001_Node000010" class="edge">
<title>Node1&#45;&gt;Node10</title>
<g id="a_edge11_Node000001_Node000010"><a xlink:title=" ">
<path fill="none" stroke="#63b8ff" d="M364.15,-232.45C426.28,-221.79 514.33,-206.69 572.27,-196.75"/>
<polygon fill="#63b8ff" stroke="#63b8ff" points="573.11,-200.15 582.38,-195.01 571.93,-193.25 573.11,-200.15"/>
</a>
</g>
</g>
<!-- Node13 -->
<g id="Node000013" class="node">
<title>Node13</title>
<g id="a_Node000013"><a xlink:href="hypercylinder_8hpp.html" target="_top" xlink:title="N&#45;dimensional hypercylinder (infinite cylinder in discrete dimensions).">
<polygon fill="white" stroke="#666666" points="490,-195 332,-195 332,-176 490,-176 490,-195"/>
<text text-anchor="middle" x="411" y="-183" font-family="Helvetica,sans-Serif" font-size="10.00">../domains/hypercylinder.hpp</text>
</a>
</g>
</g>
<!-- Node1&#45;&gt;Node13 -->
<g id="edge16_Node000001_Node000013" class="edge">
<title>Node1&#45;&gt;Node13</title>
<g id="a_edge16_Node000001_Node000013"><a xlink:title=" ">
<path fill="none" stroke="#63b8ff" d="M319.74,-230.99C339.32,-221.45 365.05,-208.9 384.2,-199.57"/>
<polygon fill="#63b8ff" stroke="#63b8ff" points="385.82,-202.67 393.28,-195.14 382.76,-196.38 385.82,-202.67"/>
</a>
</g>
</g>
<!-- Node16 -->
<g id="Node000016" class="node">
<title>Node16</title>
<g id="a_Node000016"><a xlink:href="hyperrectangle_8hpp.html" target="_top" xlink:title="Axis&#45;aligned hyperrectangular domain in N dimensions.">
<polygon fill="white" stroke="#666666" points="891.5,-195 726.5,-195 726.5,-176 891.5,-176 891.5,-195"/>
<text text-anchor="middle" x="809" y="-183" font-family="Helvetica,sans-Serif" font-size="10.00">../domains/hyperrectangle.hpp</text>
</a>
</g>
</g>
<!-- Node1&#45;&gt;Node16 -->
<g id="edge21_Node000001_Node000016" class="edge">
<title>Node1&#45;&gt;Node16</title>
<g id="a_edge21_Node000001_Node000016"><a xlink:title=" ">
<path fill="none" stroke="#63b8ff" d="M364.12,-236.74C458.76,-226.05 623.37,-207.46 723.64,-196.14"/>
<polygon fill="#63b8ff" stroke="#63b8ff" points="724.19,-199.6 733.73,-195 723.4,-192.64 724.19,-199.6"/>
</a>
</g>
</g>
<!-- Node7&#45;&gt;Node4 -->
<g id="edge7_Node000007_Node000004" class="edge">
<title>Node7&#45;&gt;Node4</title>
<g id="a_edge7_Node000007_Node000004"><a xlink:title=" ">
<path fill="none" stroke="#63b8ff" d="M503.59,-109.63C499.9,-99.68 494.98,-86.09 491,-74 486.04,-58.95 480.92,-41.73 477.25,-29.01"/>
<polygon fill="#63b8ff" stroke="#63b8ff" points="480.55,-27.82 474.43,-19.17 473.82,-29.75 480.55,-27.82"/>
</a>
</g>
</g>
<!-- Node8 -->
<g id="Node000008" class="node">
<title>Node8</title>
<g id="a_Node000008"><a xlink:href="geometry_8hpp.html" target="_top" xlink:title="Core geometric types for Monte Carlo integration.">
<polygon fill="white" stroke="#666666" points="592,-74 500,-74 500,-55 592,-55 592,-74"/>
<text text-anchor="middle" x="546" y="-62" font-family="Helvetica,sans-Serif" font-size="10.00">../geometry.hpp</text>
</a>
</g>
</g>
<!-- Node7&#45;&gt;Node8 -->
<g id="edge8_Node000007_Node000008" class="edge">
<title>Node7&#45;&gt;Node8</title>
<g id="a_edge8_Node000007_Node000008"><a xlink:title=" ">
<path fill="none" stroke="#63b8ff" d="M517.96,-109.84C523.11,-101.69 529.62,-91.4 535.07,-82.78"/>
<polygon fill="#63b8ff" stroke="#63b8ff" points="538.07,-84.59 540.46,-74.27 532.15,-80.85 538.07,-84.59"/>
</a>
</g>
</g>
<!-- Node8&#45;&gt;Node4 -->
<g id="edge9_Node000008_Node000004" class="edge">
<title>Node8&#45;&gt;Node4</title>
<g id="a_edge9_Node000008_Node000004"><a xlink:title=" ">
<path fill="none" stroke="#63b8ff" d="M534.11,-54.98C522.85,-46.92 505.71,-34.65 492.29,-25.03"/>
<polygon fill="#63b8ff" stroke="#63b8ff" points="494.27,-22.15 484.11,-19.17 490.2,-27.84 494.27,-22.15"/>
</a>
</g>
</g>
<!-- Node9 -->
<g id="Node000009" class="node">
<title>Node9</title>
<g id="a_Node000009"><a xlink:title=" ">
<polygon fill="#e0e0e0" stroke="#999999" points="572.5,-19 519.5,-19 519.5,0 572.5,0 572.5,-19"/>
<text text-anchor="middle" x="546" y="-7" font-family="Helvetica,sans-Serif" font-size="10.00">cstddef</text>
</a>
</g>
</g>
<!-- Node8&#45;&gt;Node9 -->
<g id="edge10_Node000008_Node000009" class="edge">
<title>Node8&#45;&gt;Node9</title>
<g id="a_edge10_Node000008_Node000009"><a xlink:title=" ">
<path fill="none" stroke="#63b8ff" d="M546,-54.75C546,-47.8 546,-37.85 546,-29.13"/>
<polygon fill="#63b8ff" stroke="#63b8ff" points="549.5,-29.09 546,-19.09 542.5,-29.09 549.5,-29.09"/>
</a>
</g>
</g>
<!-- Node10&#45;&gt;Node7 -->
<g id="edge12_Node000010_Node000007" class="edge">
<title>Node10&#45;&gt;Node7</title>
<g id="a_edge12_Node000010_Node000007"><a xlink:title=" ">
<path fill="none" stroke="#63b8ff" d="M614.11,-175.99C596.86,-167.79 570.16,-155.09 547.99,-144.55"/>
<polygon fill="#63b8ff" stroke="#63b8ff" points="549.34,-141.31 538.81,-140.18 546.34,-147.63 549.34,-141.31"/>
</a>
</g>
</g>
<!-- Node10&#45;&gt;Node8 -->
<g id="edge14_Node000010_Node000008" class="edge">
<title>Node10&#45;&gt;Node8</title>
<g id="a_edge14_Node000010_Node000008"><a xlink:title=" ">
<path fill="none" stroke="#63b8ff" d="M652.52,-176C667.02,-168.77 685.35,-156.86 694,-140 700.09,-128.14 701.96,-120.7 694,-110 673.05,-81.83 634.86,-70.83 602.52,-66.81"/>
<polygon fill="#63b8ff" stroke="#63b8ff" points="602.56,-63.29 592.25,-65.73 601.83,-70.26 602.56,-63.29"/>
</a>
</g>
</g>
<!-- Node11 -->
<g id="Node000011" class="node">
<title>Node11</title>
<g id="a_Node000011"><a xlink:title=" ">
<polygon fill="#e0e0e0" stroke="#999999" points="786.5,-134.5 741.5,-134.5 741.5,-115.5 786.5,-115.5 786.5,-134.5"/>
<text text-anchor="middle" x="764" y="-122.5" font-family="Helvetica,sans-Serif" font-size="10.00">utility</text>
</a>
</g>
</g>
<!-- Node10&#45;&gt;Node11 -->
<g id="edge13_Node000010_Node000011" class="edge">
<title>Node10&#45;&gt;Node11</title>
<g id="a_edge13_Node000010_Node000011"><a xlink:title=" ">
<path fill="none" stroke="#63b8ff" d="M651.19,-175.99C673.39,-166.16 710.12,-149.88 735.62,-138.58"/>
<polygon fill="#63b8ff" stroke="#63b8ff" points="737.06,-141.77 744.78,-134.52 734.22,-135.37 737.06,-141.77"/>
</a>
</g>
</g>
<!-- Node12 -->
<g id="Node000012" class="node">
<title>Node12</title>
<g id="a_Node000012"><a xlink:href="hypersphere_8tpp.html" target="_top" xlink:title=" ">
<polygon fill="white" stroke="#666666" points="685,-134.5 589,-134.5 589,-115.5 685,-115.5 685,-134.5"/>
<text text-anchor="middle" x="637" y="-122.5" font-family="Helvetica,sans-Serif" font-size="10.00">hypersphere.tpp</text>
</a>
</g>
</g>
<!-- Node10&#45;&gt;Node12 -->
<g id="edge15_Node000010_Node000012" class="edge">
<title>Node10&#45;&gt;Node12</title>
<g id="a_edge15_Node000010_Node000012"><a xlink:title=" ">
<path fill="none" stroke="#63b8ff" d="M632.74,-175.87C633.43,-167.75 634.5,-155.31 635.39,-144.89"/>
<polygon fill="#63b8ff" stroke="#63b8ff" points="638.89,-144.93 636.26,-134.67 631.92,-144.33 638.89,-144.93"/>
</a>
</g>
</g>
<!-- Node13&#45;&gt;Node7 -->
<g id="edge17_Node000013_Node000007" class="edge">
<title>Node13&#45;&gt;Node7</title>
<g id="a_edge17_Node000013_Node000007"><a xlink:title=" ">
<path fill="none" stroke="#63b8ff" d="M425.46,-175.87C438.88,-167.86 459.33,-155.65 476.64,-145.31"/>
<polygon fill="#63b8ff" stroke="#63b8ff" points="478.56,-148.25 485.36,-140.11 474.97,-142.23 478.56,-148.25"/>
</a>
</g>
</g>
<!-- Node13&#45;&gt;Node8 -->
<g id="edge18_Node000013_Node000008" class="edge">
<title>Node13&#45;&gt;Node8</title>
<g id="a_edge18_Node000013_Node000008"><a xlink:title=" ">
<path fill="none" stroke="#63b8ff" d="M400.58,-175.86C384.31,-161.32 356.36,-131.46 373,-110 387.35,-91.49 445.01,-79.33 489.87,-72.47"/>
<polygon fill="#63b8ff" stroke="#63b8ff" points="490.42,-75.93 499.8,-71 489.4,-69 490.42,-75.93"/>
</a>
</g>
</g>
<!-- Node14 -->
<g id="Node000014" class="node">
<title>Node14</title>
<g id="a_Node000014"><a xlink:title=" ">
<polygon fill="#e0e0e0" stroke="#999999" points="428.5,-134.5 381.5,-134.5 381.5,-115.5 428.5,-115.5 428.5,-134.5"/>
<text text-anchor="middle" x="405" y="-122.5" font-family="Helvetica,sans-Serif" font-size="10.00">cmath</text>
</a>
</g>
</g>
<!-- Node13&#45;&gt;Node14 -->
<g id="edge19_Node000013_Node000014" class="edge">
<title>Node13&#45;&gt;Node14</title>
<g id="a_edge19_Node000013_Node000014"><a xlink:title=" ">
<path fill="none" stroke="#63b8ff" d="M410.11,-175.87C409.28,-167.75 408.01,-155.31 406.94,-144.89"/>
<polygon fill="#63b8ff" stroke="#63b8ff" points="410.39,-144.26 405.89,-134.67 403.43,-144.97 410.39,-144.26"/>
</a>
</g>
</g>
<!-- Node15 -->
<g id="Node000015" class="node">
<title>Node15</title>
<g id="a_Node000015"><a xlink:href="hypercylinder_8tpp.html" target="_top" xlink:title=" ">
<polygon fill="white" stroke="#666666" points="324.5,-134.5 223.5,-134.5 223.5,-115.5 324.5,-115.5 324.5,-134.5"/>
<text text-anchor="middle" x="274" y="-122.5" font-family="Helvetica,sans-Serif" font-size="10.00">hypercylinder.tpp</text>
</a>
</g>
</g>
<!-- Node13&#45;&gt;Node15 -->
<g id="edge20_Node000013_Node000015" class="edge">
<title>Node13&#45;&gt;Node15</title>
<g id="a_edge20_Node000013_Node000015"><a xlink:title=" ">
<path fill="none" stroke="#63b8ff" d="M391.08,-175.99C368.05,-166.16 329.92,-149.88 303.46,-138.58"/>
<polygon fill="#63b8ff" stroke="#63b8ff" points="304.52,-135.22 293.95,-134.52 301.77,-141.66 304.52,-135.22"/>
</a>
</g>
</g>
<!-- Node16&#45;&gt;Node7 -->
<g id="edge22_Node000016_Node000007" class="edge">
<title>Node16&#45;&gt;Node7</title>
<g id="a_edge22_Node000016_Node000007"><a xlink:title=" ">
<path fill="none" stroke="#63b8ff" d="M764.66,-175.92C720.6,-167.39 650.81,-153.85 581.16,-140.22"/>
<polygon fill="#63b8ff" stroke="#63b8ff" points="581.82,-136.79 571.34,-138.3 580.48,-143.66 581.82,-136.79"/>
</a>
</g>
</g>
<!-- Node16&#45;&gt;Node8 -->
<g id="edge24_Node000016_Node000008" class="edge">
<title>Node16&#45;&gt;Node8</title>
<g id="a_edge24_Node000016_Node000008"><a xlink:title=" ">
<path fill="none" stroke="#63b8ff" d="M810.36,-175.72C812.24,-160.15 813.61,-127.67 796,-110 769.49,-83.4 667.52,-72.49 602.29,-68.18"/>
<polygon fill="#63b8ff" stroke="#63b8ff" points="602.35,-64.67 592.15,-67.54 601.91,-71.66 602.35,-64.67"/>
</a>
</g>
</g>
<!-- Node16&#45;&gt;Node11 -->
<g id="edge23_Node000016_Node000011" class="edge">
<title>Node16&#45;&gt;Node11</title>
<g id="a_edge23_Node000016_Node000011"><a xlink:title=" ">
<path fill="none" stroke="#63b8ff" d="M802.36,-175.87C795.71,-167.23 785.31,-153.7 777.01,-142.92"/>
<polygon fill="#63b8ff" stroke="#63b8ff" points="779.54,-140.46 770.67,-134.67 773.99,-144.73 779.54,-140.46"/>
</a>
</g>
</g>
<!-- Node17 -->
<g id="Node000017" class="node">
<title>Node17</title>
<g id="a_Node000017"><a xlink:href="hyperrectangle_8tpp.html" target="_top" xlink:title=" ">
<polygon fill="white" stroke="#666666" points="952.5,-134.5 843.5,-134.5 843.5,-115.5 952.5,-115.5 952.5,-134.5"/>
<text text-anchor="middle" x="898" y="-122.5" font-family="Helvetica,sans-Serif" font-size="10.00">hyperrectangle.tpp</text>
</a>
</g>
</g>
<!-- Node16&#45;&gt;Node17 -->
<g id="edge25_Node000016_Node000017" class="edge">
<title>Node16&#45;&gt;Node17</title>
<g id="a_edge25_Node000016_Node000017"><a xlink:title=" ">
<path fill="none" stroke="#63b8ff" d="M822.13,-175.87C836.33,-166.54 859.2,-151.51 876.12,-140.38"/>
<polygon fill="#63b8ff" stroke="#63b8ff" points="878.38,-143.08 884.81,-134.67 874.53,-137.24 878.38,-143.08"/>
</a>
</g>
</g>
</g>
</svg>

<g id="navigator" transform="translate(0 0)" fill="#404254">
  <rect fill="#f2f5e9" fill-opacity="0.5" stroke="#606060" stroke-width=".5" x="0" y="0" width="60" height="60"/>
  <use id="zoomplus" xlink:href="#zoomPlus" x="17" y="9" onmousedown="handleZoom(evt,'in')"/>
  <use id="zoomminus" xlink:href="#zoomMin" x="42" y="9" onmousedown="handleZoom(evt,'out')"/>
  <use id="reset" xlink:href="#resetDef" x="30" y="36" onmousedown="handleReset()"/>
   <use id="arrowup" xlink:href="#arrowUp" x="0" y="0" onmousedown="handlePan(0,-1)"/>
  <use id="arrowright" xlink:href="#arrowRight" x="0" y="0" onmousedown="handlePan(1,0)"/>
  <use id="arrowdown" xlink:href="#arrowDown" x="0" y="0" onmousedown="handlePan(0,1)"/>
  <use id="arrowleft" xlink:href="#arrowLeft" x="0" y="0" onmousedown="handlePan(-1,0)"/>
</g>
<svg viewBox="0 0 15 15" width="100%" height="30px" preserveAspectRatio="xMaxYMin meet">
 <g id="arrow_out" transform="scale(0.3 0.3)">
  <a xlink:href="integrator_8hpp__incl_org.svg" target="_base">
   <rect id="button" ry="5" rx="5" y="6" x="6" height="38" width="38"
        fill="#f2f5e9" fill-opacity="0.5" stroke="#606060" stroke-width="1.0"/>
   <path id="arrow"
     d="M 11.500037,31.436501 C 11.940474,20.09759 22.043105,11.32322 32.158766,21.979434 L 37.068811,17.246167 C 37.068811,17.246167 37.088388,32 37.088388,32 L 22.160133,31.978069 C 22.160133,31.978069 26.997745,27.140456 26.997745,27.140456 C 18.528582,18.264221 13.291696,25.230495 11.500037,31.436501 z"
     style="fill:#404040;"/>
  </a>
 </g>
</svg>

<style type='text/css'>
<![CDATA[
[data-mouse-over-selected='false'] { opacity: 0.7; }
[data-mouse-over-selected='true']  { opacity: 1.0; }
]]>
</style>
<script type="application/ecmascript"><![CDATA[
document.addEventListener('DOMContentLoaded', (event) => {
  highlightEdges();
  highlightAdjacentNodes();
});
]]></script>
</svg>
