<?xml version="1.0" encoding="UTF-8" standalone="no"?>
<!DOCTYPE svg PUBLIC "-//W3C//DTD SVG 1.1//EN"
 "http://www.w3.org/Graphics/SVG/1.1/DTD/svg11.dtd">
<!-- Generated by graphviz version 2.43.0 (0)
 -->
<!-- Title: runBenchmarksMH Pages: 1 -->
<svg width="322pt" height="220pt"
 viewBox="0.00 0.00 322.00 219.50" xmlns="http://www.w3.org/2000/svg" xmlns:xlink="http://www.w3.org/1999/xlink">

<svg id="main" version="1.1" xmlns="http://www.w3.org/2000/svg" xmlns:xlink="http://www.w3.org/1999/xlink" xml:space="preserve" onload="init(evt)">
<style type="text/css"><![CDATA[
.node, .edge {opacity: 0.7;}
.node.selected, .edge.selected {opacity: 1;}
.edge:hover path { stroke: red; }
.edge:hover polygon { stroke: red; fill: red; }
]]></style>
<script type="application/ecmascript" xlink:href="svg.min.js"/>
<svg id="graph" class="graph">
<g id="graph0" class="graph" transform="scale(1 1) rotate(0) translate(4 215.5)">
<title>runBenchmarksMH</title>
<!-- Node1 -->
<g id="Node000001" class="node">
<title>Node1</title>
<g id="a_Node000001"><a xlink:title="Run Metropolis&#45;Hastings MCMC integration benchmarks.">
<polygon fill="#999999" stroke="#666666" points="110,-120.5 0,-120.5 0,-101.5 110,-101.5 110,-120.5"/>
<text text-anchor="middle" x="55" y="-108.5" font-family="Helvetica,sans-Serif" font-size="10.00">runBenchmarksMH</text>
</a>
</g>
</g>
<!-- Node2 -->
<g id="Node000002" class="node">
<title>Node2</title>
<g id="a_Node000002"><a xlink:href="namespacemc_1_1rng.html#ae8ce618a80ac94df709f1fd752932c0c" target="_top" xlink:title="Get the current global seed.">
<polygon fill="white" stroke="#666666" points="299.5,-211.5 160.5,-211.5 160.5,-192.5 299.5,-192.5 299.5,-211.5"/>
<text text-anchor="middle" x="230" y="-199.5" font-family="Helvetica,sans-Serif" font-size="10.00">mc::rng::get_global_seed</text>
</a>
</g>
</g>
<!-- Node1&#45;&gt;Node2 -->
<g id="edge1_Node000001_Node000002" class="edge">
<title>Node1&#45;&gt;Node2</title>
<g id="a_edge1_Node000001_Node000002"><a xlink:title=" ">
<path fill="none" stroke="#63b8ff" d="M64.99,-120.58C80.16,-136.14 112.49,-166.82 146,-183 150.99,-185.41 156.3,-187.52 161.73,-189.37"/>
<polygon fill="#63b8ff" stroke="#63b8ff" points="161,-192.81 171.59,-192.42 163.07,-186.12 161,-192.81"/>
</a>
</g>
</g>
<!-- Node3 -->
<g id="Node000003" class="node">
<title>Node3</title>
<g id="a_Node000003"><a xlink:href="classmc_1_1integrators_1_1MHMontecarloIntegrator.html#ac6d2bedc9dd30ef98d33d84f68cd0e43" target="_top" xlink:title="Compute the integral using MH sampling combined with volume estimation.">
<polygon fill="white" stroke="#666666" points="314,-174 146,-174 146,-144 314,-144 314,-174"/>
<text text-anchor="start" x="154" y="-162" font-family="Helvetica,sans-Serif" font-size="10.00">mc::integrators::MHMontecarlo</text>
<text text-anchor="middle" x="230" y="-151" font-family="Helvetica,sans-Serif" font-size="10.00">Integrator::integrate</text>
</a>
</g>
</g>
<!-- Node1&#45;&gt;Node3 -->
<g id="edge2_Node000001_Node000003" class="edge">
<title>Node1&#45;&gt;Node3</title>
<g id="a_edge2_Node000001_Node000003"><a xlink:title=" ">
<path fill="none" stroke="#63b8ff" d="M90.59,-120.6C111.83,-126.49 139.7,-134.22 164.86,-141.2"/>
<polygon fill="#63b8ff" stroke="#63b8ff" points="164.14,-144.64 174.71,-143.94 166.01,-137.89 164.14,-144.64"/>
</a>
</g>
</g>
<!-- Node4 -->
<g id="Node000004" class="node">
<title>Node4</title>
<g id="a_Node000004"><a xlink:href="classmc_1_1domains_1_1Hypersphere.html#ae058fd26df92686a66d91d92aecd723b" target="_top" xlink:title="Test if a point is inside the hypersphere.">
<polygon fill="white" stroke="#666666" points="304,-126 156,-126 156,-96 304,-96 304,-126"/>
<text text-anchor="start" x="164" y="-114" font-family="Helvetica,sans-Serif" font-size="10.00">mc::domains::Hypersphere</text>
<text text-anchor="middle" x="230" y="-103" font-family="Helvetica,sans-Serif" font-size="10.00">::isInside</text>
</a>
</g>
</g>
<!-- Node1&#45;&gt;Node4 -->
<g id="edge3_Node000001_Node000004" class="edge">
<title>Node1&#45;&gt;Node4</title>
<g id="a_edge3_Node000001_Node000004"><a xlink:title=" ">
<path fill="none" stroke="#63b8ff" d="M110.26,-111C121.57,-111 133.73,-111 145.8,-111"/>
<polygon fill="#63b8ff" stroke="#63b8ff" points="145.9,-114.5 155.9,-111 145.9,-107.5 145.9,-114.5"/>
</a>
</g>
</g>
<!-- Node5 -->
<g id="Node000005" class="node">
<title>Node5</title>
<g id="a_Node000005"><a xlink:href="classmc_1_1integrators_1_1MontecarloIntegrator.html#af3c3289ee5bdf681b6c1ffa75c45b950" target="_top" xlink:title="Legacy integration routine (deprecated).">
<polygon fill="white" stroke="#666666" points="306,-78 154,-78 154,-48 306,-48 306,-78"/>
<text text-anchor="start" x="162" y="-66" font-family="Helvetica,sans-Serif" font-size="10.00">mc::integrators::Montecarlo</text>
<text text-anchor="middle" x="230" y="-55" font-family="Helvetica,sans-Serif" font-size="10.00">Integrator::OLDintegrate</text>
</a>
</g>
</g>
<!-- Node1&#45;&gt;Node5 -->
<g id="edge4_Node000001_Node000005" class="edge">
<title>Node1&#45;&gt;Node5</title>
<g id="a_edge4_Node000001_Node000005"><a xlink:title=" ">
<path fill="none" stroke="#63b8ff" d="M90.59,-101.4C111.83,-95.51 139.7,-87.78 164.86,-80.8"/>
<polygon fill="#63b8ff" stroke="#63b8ff" points="166.01,-84.11 174.71,-78.06 164.14,-77.36 166.01,-84.11"/>
</a>
</g>
</g>
<!-- Node6 -->
<g id="Node000006" class="node">
<title>Node6</title>
<g id="a_Node000006"><a xlink:href="classmc_1_1integrators_1_1MHMontecarloIntegrator.html#a5b0390f8f03c5873369894a5bcb876ee" target="_top" xlink:title="Configure the MCMC sampler parameters.">
<polygon fill="white" stroke="#666666" points="314,-30 146,-30 146,0 314,0 314,-30"/>
<text text-anchor="start" x="154" y="-18" font-family="Helvetica,sans-Serif" font-size="10.00">mc::integrators::MHMontecarlo</text>
<text text-anchor="middle" x="230" y="-7" font-family="Helvetica,sans-Serif" font-size="10.00">Integrator::setConfig</text>
</a>
</g>
</g>
<!-- Node1&#45;&gt;Node6 -->
<g id="edge5_Node000001_Node000006" class="edge">
<title>Node1&#45;&gt;Node6</title>
<g id="a_edge5_Node000001_Node000006"><a xlink:title=" ">
<path fill="none" stroke="#63b8ff" d="M65.6,-101.14C81.12,-85.72 113.31,-55.94 146,-39 149.57,-37.15 153.3,-35.43 157.12,-33.82"/>
<polygon fill="#63b8ff" stroke="#63b8ff" points="158.71,-36.96 166.76,-30.07 156.17,-30.43 158.71,-36.96"/>
</a>
</g>
</g>
</g>
</svg>
</svg>

<style type='text/css'>
<![CDATA[
[data-mouse-over-selected='false'] { opacity: 0.7; }
[data-mouse-over-selected='true']  { opacity: 1.0; }
]]>
</style>
<script type="application/ecmascript"><![CDATA[
document.addEventListener('DOMContentLoaded', (event) => {
  highlightEdges();
  highlightAdjacentNodes();
});
]]></script>
</svg>
