<?xml version="1.0" encoding="UTF-8" standalone="no"?>
<!DOCTYPE svg PUBLIC "-//W3C//DTD SVG 1.1//EN"
 "http://www.w3.org/Graphics/SVG/1.1/DTD/svg11.dtd">
<!-- Generated by graphviz version 2.43.0 (0)
 -->
<!-- Title: src/montecarlo/integrators/MCintegrator.hpp Pages: 1 -->
<svg width="2174pt" height="335pt"
 viewBox="0.00 0.00 2173.93 335.00" xmlns="http://www.w3.org/2000/svg" xmlns:xlink="http://www.w3.org/1999/xlink">
<g id="graph0" class="graph" transform="scale(1 1) rotate(0) translate(4 331)">
<title>src/montecarlo/integrators/MCintegrator.hpp</title>
<!-- Node1 -->
<g id="Node000001" class="node">
<title>Node1</title>
<g id="a_Node000001"><a xlink:title="Classic Monte Carlo integration engine.">
<polygon fill="#999999" stroke="#666666" points="1689.93,-327 1543.93,-327 1543.93,-297 1689.93,-297 1689.93,-327"/>
<text text-anchor="start" x="1551.93" y="-315" font-family="Helvetica,sans-Serif" font-size="10.00">src/montecarlo/integrators</text>
<text text-anchor="middle" x="1616.93" y="-304" font-family="Helvetica,sans-Serif" font-size="10.00">/MCintegrator.hpp</text>
</a>
</g>
</g>
<!-- Node2 -->
<g id="Node000002" class="node">
<title>Node2</title>
<g id="a_Node000002"><a xlink:href="integration__domain_8hpp.html" target="_top" xlink:title="Abstract interface for N&#45;dimensional integration domains.">
<polygon fill="white" stroke="#666666" points="779.93,-140 655.93,-140 655.93,-110 779.93,-110 779.93,-140"/>
<text text-anchor="start" x="663.93" y="-128" font-family="Helvetica,sans-Serif" font-size="10.00">../domains/integration</text>
<text text-anchor="middle" x="717.93" y="-117" font-family="Helvetica,sans-Serif" font-size="10.00">_domain.hpp</text>
</a>
</g>
</g>
<!-- Node1&#45;&gt;Node2 -->
<g id="edge1_Node000001_Node000002" class="edge">
<title>Node1&#45;&gt;Node2</title>
<g id="a_edge1_Node000001_Node000002"><a xlink:title=" ">
<path fill="none" stroke="#63b8ff" d="M1543.58,-308.26C1430.7,-303.27 1207.87,-290.38 1020.93,-261 914.1,-244.21 875.85,-262.94 783.93,-206 761.24,-191.95 742.71,-167.37 731.12,-149.15"/>
<polygon fill="#63b8ff" stroke="#63b8ff" points="733.91,-147 725.7,-140.29 727.93,-150.65 733.91,-147"/>
</a>
</g>
</g>
<!-- Node4 -->
<g id="Node000004" class="node">
<title>Node4</title>
<g id="a_Node000004"><a xlink:href="geometry_8hpp.html" target="_top" xlink:title="Core geometric types for Monte Carlo integration.">
<polygon fill="white" stroke="#666666" points="985.93,-74 893.93,-74 893.93,-55 985.93,-55 985.93,-74"/>
<text text-anchor="middle" x="939.93" y="-62" font-family="Helvetica,sans-Serif" font-size="10.00">../geometry.hpp</text>
</a>
</g>
</g>
<!-- Node1&#45;&gt;Node4 -->
<g id="edge44_Node000001_Node000004" class="edge">
<title>Node1&#45;&gt;Node4</title>
<g id="a_edge44_Node000001_Node000004"><a xlink:title=" ">
<path fill="none" stroke="#63b8ff" d="M1622.22,-296.66C1630.81,-270.94 1644.88,-215.9 1624.93,-176 1603.06,-132.27 1582.7,-127.17 1536.93,-110 1438.87,-73.21 1125.19,-66.77 996.17,-65.69"/>
<polygon fill="#63b8ff" stroke="#63b8ff" points="996.12,-62.19 986.1,-65.61 996.07,-69.19 996.12,-62.19"/>
</a>
</g>
</g>
<!-- Node6 -->
<g id="Node000006" class="node">
<title>Node6</title>
<g id="a_Node000006"><a xlink:href="proposal_8hpp.html" target="_top" xlink:title="Abstract base for probability distributions used in importance sampling.">
<polygon fill="white" stroke="#666666" points="1433.43,-200.5 1294.43,-200.5 1294.43,-181.5 1433.43,-181.5 1433.43,-200.5"/>
<text text-anchor="middle" x="1363.93" y="-188.5" font-family="Helvetica,sans-Serif" font-size="10.00">../proposals/proposal.hpp</text>
</a>
</g>
</g>
<!-- Node1&#45;&gt;Node6 -->
<g id="edge6_Node000001_Node000006" class="edge">
<title>Node1&#45;&gt;Node6</title>
<g id="a_edge6_Node000001_Node000006"><a xlink:title=" ">
<path fill="none" stroke="#63b8ff" d="M1586.91,-296.88C1537.31,-273.55 1439.01,-227.31 1391.24,-204.85"/>
<polygon fill="#63b8ff" stroke="#63b8ff" points="1392.66,-201.65 1382.13,-200.56 1389.68,-207.98 1392.66,-201.65"/>
</a>
</g>
</g>
<!-- Node8 -->
<g id="Node000008" class="node">
<title>Node8</title>
<g id="a_Node000008"><a xlink:href="uniformProposal_8hpp.html" target="_top" xlink:title="Uniform distribution proposal over integration domain.">
<polygon fill="white" stroke="#666666" points="1268.43,-261 1091.43,-261 1091.43,-242 1268.43,-242 1268.43,-261"/>
<text text-anchor="middle" x="1179.93" y="-249" font-family="Helvetica,sans-Serif" font-size="10.00">../proposals/uniformProposal.hpp</text>
</a>
</g>
</g>
<!-- Node1&#45;&gt;Node8 -->
<g id="edge9_Node000001_Node000008" class="edge">
<title>Node1&#45;&gt;Node8</title>
<g id="a_edge9_Node000001_Node000008"><a xlink:title=" ">
<path fill="none" stroke="#63b8ff" d="M1543.78,-301.21C1463.28,-290.43 1334.59,-273.2 1253.8,-262.39"/>
<polygon fill="#63b8ff" stroke="#63b8ff" points="1254.08,-258.9 1243.7,-261.04 1253.15,-265.83 1254.08,-258.9"/>
</a>
</g>
</g>
<!-- Node11 -->
<g id="Node000011" class="node">
<title>Node11</title>
<g id="a_Node000011"><a xlink:href="metropolisHastingsSampler_8hpp.html" target="_top" xlink:title="Metropolis&#45;Hastings MCMC sampling engine.">
<polygon fill="white" stroke="#666666" points="989.93,-206 835.93,-206 835.93,-176 989.93,-176 989.93,-206"/>
<text text-anchor="start" x="843.93" y="-194" font-family="Helvetica,sans-Serif" font-size="10.00">../mcmc/metropolisHastings</text>
<text text-anchor="middle" x="912.93" y="-183" font-family="Helvetica,sans-Serif" font-size="10.00">Sampler.hpp</text>
</a>
</g>
</g>
<!-- Node1&#45;&gt;Node11 -->
<g id="edge16_Node000001_Node000011" class="edge">
<title>Node1&#45;&gt;Node11</title>
<g id="a_edge16_Node000001_Node000011"><a xlink:title=" ">
<path fill="none" stroke="#63b8ff" d="M1543.55,-310.92C1439.4,-309.29 1243.43,-300.59 1081.93,-261 1034.58,-249.39 983.12,-226.82 949.58,-210.66"/>
<polygon fill="#63b8ff" stroke="#63b8ff" points="950.71,-207.32 940.19,-206.07 947.64,-213.61 950.71,-207.32"/>
</a>
</g>
</g>
<!-- Node12 -->
<g id="Node000012" class="node">
<title>Node12</title>
<g id="a_Node000012"><a xlink:title=" ">
<polygon fill="#e0e0e0" stroke="#999999" points="1703.43,-134.5 1638.43,-134.5 1638.43,-115.5 1703.43,-115.5 1703.43,-134.5"/>
<text text-anchor="middle" x="1670.93" y="-122.5" font-family="Helvetica,sans-Serif" font-size="10.00">functional</text>
</a>
</g>
</g>
<!-- Node1&#45;&gt;Node12 -->
<g id="edge68_Node000001_Node000012" class="edge">
<title>Node1&#45;&gt;Node12</title>
<g id="a_edge68_Node000001_Node000012"><a xlink:title=" ">
<path fill="none" stroke="#63b8ff" d="M1632.9,-296.9C1642.2,-287.68 1653.19,-274.82 1658.93,-261 1675.04,-222.2 1674.51,-171.84 1672.72,-144.93"/>
<polygon fill="#63b8ff" stroke="#63b8ff" points="1676.18,-144.32 1671.89,-134.63 1669.2,-144.88 1676.18,-144.32"/>
</a>
</g>
</g>
<!-- Node14 -->
<g id="Node000014" class="node">
<title>Node14</title>
<g id="a_Node000014"><a xlink:href="VolumeEstimatorMC_8hpp.html" target="_top" xlink:title="Hit&#45;or&#45;Miss Monte Carlo volume estimation.">
<polygon fill="white" stroke="#666666" points="1616.43,-206 1451.43,-206 1451.43,-176 1616.43,-176 1616.43,-206"/>
<text text-anchor="start" x="1459.43" y="-194" font-family="Helvetica,sans-Serif" font-size="10.00">../estimators/VolumeEstimator</text>
<text text-anchor="middle" x="1533.93" y="-183" font-family="Helvetica,sans-Serif" font-size="10.00">MC.hpp</text>
</a>
</g>
</g>
<!-- Node1&#45;&gt;Node14 -->
<g id="edge24_Node000001_Node000014" class="edge">
<title>Node1&#45;&gt;Node14</title>
<g id="a_edge24_Node000001_Node000014"><a xlink:title=" ">
<path fill="none" stroke="#63b8ff" d="M1607.08,-296.88C1592.85,-276.48 1566.41,-238.57 1549.51,-214.35"/>
<polygon fill="#63b8ff" stroke="#63b8ff" points="1552.35,-212.3 1543.76,-206.1 1546.61,-216.3 1552.35,-212.3"/>
</a>
</g>
</g>
<!-- Node15 -->
<g id="Node000015" class="node">
<title>Node15</title>
<g id="a_Node000015"><a xlink:title=" ">
<polygon fill="#e0e0e0" stroke="#999999" points="1991.93,-134.5 1941.93,-134.5 1941.93,-115.5 1991.93,-115.5 1991.93,-134.5"/>
<text text-anchor="middle" x="1966.93" y="-122.5" font-family="Helvetica,sans-Serif" font-size="10.00">cstdint</text>
</a>
</g>
</g>
<!-- Node1&#45;&gt;Node15 -->
<g id="edge67_Node000001_Node000015" class="edge">
<title>Node1&#45;&gt;Node15</title>
<g id="a_edge67_Node000001_Node000015"><a xlink:title=" ">
<path fill="none" stroke="#63b8ff" d="M1690.01,-297.97C1753.45,-283.79 1845.2,-256.12 1910.93,-206 1932.66,-189.42 1949.23,-161.99 1958.52,-143.95"/>
<polygon fill="#63b8ff" stroke="#63b8ff" points="1961.75,-145.32 1963.03,-134.8 1955.47,-142.23 1961.75,-145.32"/>
</a>
</g>
</g>
<!-- Node19 -->
<g id="Node000019" class="node">
<title>Node19</title>
<g id="a_Node000019"><a xlink:href="ISMeanEstimator_8hpp.html" target="_top" xlink:title="Importance sampling mean estimator.">
<polygon fill="white" stroke="#666666" points="2143.43,-200.5 1958.43,-200.5 1958.43,-181.5 2143.43,-181.5 2143.43,-200.5"/>
<text text-anchor="middle" x="2050.93" y="-188.5" font-family="Helvetica,sans-Serif" font-size="10.00">../estimators/ISMeanEstimator.hpp</text>
</a>
</g>
</g>
<!-- Node1&#45;&gt;Node19 -->
<g id="edge32_Node000001_Node000019" class="edge">
<title>Node1&#45;&gt;Node19</title>
<g id="a_edge32_Node000001_Node000019"><a xlink:title=" ">
<path fill="none" stroke="#63b8ff" d="M1690.19,-308.68C1758.19,-304.5 1861.23,-292.9 1944.93,-261 1978.71,-248.12 2012.88,-223.27 2032.97,-207.17"/>
<polygon fill="#63b8ff" stroke="#63b8ff" points="2035.39,-209.71 2040.91,-200.67 2030.96,-204.29 2035.39,-209.71"/>
</a>
</g>
</g>
<!-- Node21 -->
<g id="Node000021" class="node">
<title>Node21</title>
<g id="a_Node000021"><a xlink:href="MCMeanEstimator_8hpp.html" target="_top" xlink:title="Classic uniform Monte Carlo mean estimator.">
<polygon fill="white" stroke="#666666" points="1902.43,-200.5 1711.43,-200.5 1711.43,-181.5 1902.43,-181.5 1902.43,-200.5"/>
<text text-anchor="middle" x="1806.93" y="-188.5" font-family="Helvetica,sans-Serif" font-size="10.00">../estimators/MCMeanEstimator.hpp</text>
</a>
</g>
</g>
<!-- Node1&#45;&gt;Node21 -->
<g id="edge37_Node000001_Node000021" class="edge">
<title>Node1&#45;&gt;Node21</title>
<g id="a_edge37_Node000001_Node000021"><a xlink:title=" ">
<path fill="none" stroke="#63b8ff" d="M1639.69,-296.79C1655.7,-286.78 1677.63,-273.08 1696.93,-261 1727.35,-241.95 1762.49,-219.9 1784.7,-205.95"/>
<polygon fill="#63b8ff" stroke="#63b8ff" points="1786.77,-208.79 1793.38,-200.51 1783.05,-202.86 1786.77,-208.79"/>
</a>
</g>
</g>
<!-- Node23 -->
<g id="Node000023" class="node">
<title>Node23</title>
<g id="a_Node000023"><a xlink:href="integrator_8hpp.html" target="_top" xlink:title="Abstract base class for numerical integration in N&#45;dimensional spaces.">
<polygon fill="white" stroke="#666666" points="539.43,-261 454.43,-261 454.43,-242 539.43,-242 539.43,-261"/>
<text text-anchor="middle" x="496.93" y="-249" font-family="Helvetica,sans-Serif" font-size="10.00">integrator.hpp</text>
</a>
</g>
</g>
<!-- Node1&#45;&gt;Node23 -->
<g id="edge45_Node000001_Node000023" class="edge">
<title>Node1&#45;&gt;Node23</title>
<g id="a_edge45_Node000001_Node000023"><a xlink:title=" ">
<path fill="none" stroke="#63b8ff" d="M1543.87,-307.18C1333.88,-296.22 731.97,-264.78 549.8,-255.26"/>
<polygon fill="#63b8ff" stroke="#63b8ff" points="549.84,-251.76 539.67,-254.73 549.47,-258.75 549.84,-251.76"/>
</a>
</g>
</g>
<!-- Node32 -->
<g id="Node000032" class="node">
<title>Node32</title>
<g id="a_Node000032"><a xlink:href="MCintegrator_8tpp.html" target="_top" xlink:title=" ">
<polygon fill="white" stroke="#666666" points="2094.93,-261 1996.93,-261 1996.93,-242 2094.93,-242 2094.93,-261"/>
<text text-anchor="middle" x="2045.93" y="-249" font-family="Helvetica,sans-Serif" font-size="10.00">MCintegrator.tpp</text>
</a>
</g>
</g>
<!-- Node1&#45;&gt;Node32 -->
<g id="edge69_Node000001_Node000032" class="edge">
<title>Node1&#45;&gt;Node32</title>
<g id="a_edge69_Node000001_Node000032"><a xlink:title=" ">
<path fill="none" stroke="#63b8ff" d="M1690.19,-301.01C1773.9,-289.59 1909.27,-271.14 1986.64,-260.58"/>
<polygon fill="#63b8ff" stroke="#63b8ff" points="1987.27,-264.03 1996.7,-259.21 1986.32,-257.1 1987.27,-264.03"/>
</a>
</g>
</g>
<!-- Node3 -->
<g id="Node000003" class="node">
<title>Node3</title>
<g id="a_Node000003"><a xlink:title=" ">
<polygon fill="#e0e0e0" stroke="#999999" points="894.93,-19 852.93,-19 852.93,0 894.93,0 894.93,-19"/>
<text text-anchor="middle" x="873.93" y="-7" font-family="Helvetica,sans-Serif" font-size="10.00">array</text>
</a>
</g>
</g>
<!-- Node2&#45;&gt;Node3 -->
<g id="edge2_Node000002_Node000003" class="edge">
<title>Node2&#45;&gt;Node3</title>
<g id="a_edge2_Node000002_Node000003"><a xlink:title=" ">
<path fill="none" stroke="#63b8ff" d="M731.65,-109.73C746.27,-94.99 770.47,-71.83 793.93,-55 810.5,-43.11 830.57,-31.95 846.46,-23.79"/>
<polygon fill="#63b8ff" stroke="#63b8ff" points="848.38,-26.73 855.74,-19.11 845.23,-20.48 848.38,-26.73"/>
</a>
</g>
</g>
<!-- Node2&#45;&gt;Node4 -->
<g id="edge3_Node000002_Node000004" class="edge">
<title>Node2&#45;&gt;Node4</title>
<g id="a_edge3_Node000002_Node000004"><a xlink:title=" ">
<path fill="none" stroke="#63b8ff" d="M771.1,-109.99C809.91,-99.76 861.81,-86.09 897.77,-76.61"/>
<polygon fill="#63b8ff" stroke="#63b8ff" points="898.69,-79.99 907.47,-74.05 896.9,-73.22 898.69,-79.99"/>
</a>
</g>
</g>
<!-- Node4&#45;&gt;Node3 -->
<g id="edge4_Node000004_Node000003" class="edge">
<title>Node4&#45;&gt;Node3</title>
<g id="a_edge4_Node000004_Node000003"><a xlink:title=" ">
<path fill="none" stroke="#63b8ff" d="M929.32,-54.98C919.47,-47.07 904.57,-35.11 892.71,-25.58"/>
<polygon fill="#63b8ff" stroke="#63b8ff" points="894.71,-22.7 884.72,-19.17 890.33,-28.16 894.71,-22.7"/>
</a>
</g>
</g>
<!-- Node5 -->
<g id="Node000005" class="node">
<title>Node5</title>
<g id="a_Node000005"><a xlink:title=" ">
<polygon fill="#e0e0e0" stroke="#999999" points="1864.43,-19 1811.43,-19 1811.43,0 1864.43,0 1864.43,-19"/>
<text text-anchor="middle" x="1837.93" y="-7" font-family="Helvetica,sans-Serif" font-size="10.00">cstddef</text>
</a>
</g>
</g>
<!-- Node4&#45;&gt;Node5 -->
<g id="edge5_Node000004_Node000005" class="edge">
<title>Node4&#45;&gt;Node5</title>
<g id="a_edge5_Node000004_Node000005"><a xlink:title=" ">
<path fill="none" stroke="#63b8ff" d="M986,-60.78C1143.49,-51.49 1658.45,-21.09 1801.04,-12.68"/>
<polygon fill="#63b8ff" stroke="#63b8ff" points="1801.63,-16.15 1811.41,-12.06 1801.22,-9.16 1801.63,-16.15"/>
</a>
</g>
</g>
<!-- Node6&#45;&gt;Node4 -->
<g id="edge8_Node000006_Node000004" class="edge">
<title>Node6&#45;&gt;Node4</title>
<g id="a_edge8_Node000006_Node000004"><a xlink:title=" ">
<path fill="none" stroke="#63b8ff" d="M1347.66,-181.44C1330.05,-171.97 1301.34,-155.93 1277.93,-140 1260.14,-127.9 1259.68,-118.53 1239.93,-110 1160.19,-75.56 1058.65,-67.02 996.51,-65.31"/>
<polygon fill="#63b8ff" stroke="#63b8ff" points="996.21,-61.8 986.14,-65.08 996.06,-68.8 996.21,-61.8"/>
</a>
</g>
</g>
<!-- Node7 -->
<g id="Node000007" class="node">
<title>Node7</title>
<g id="a_Node000007"><a xlink:title=" ">
<polygon fill="#e0e0e0" stroke="#999999" points="1230.93,-134.5 1176.93,-134.5 1176.93,-115.5 1230.93,-115.5 1230.93,-134.5"/>
<text text-anchor="middle" x="1203.93" y="-122.5" font-family="Helvetica,sans-Serif" font-size="10.00">random</text>
</a>
</g>
</g>
<!-- Node6&#45;&gt;Node7 -->
<g id="edge7_Node000006_Node000007" class="edge">
<title>Node6&#45;&gt;Node7</title>
<g id="a_edge7_Node000006_Node000007"><a xlink:title=" ">
<path fill="none" stroke="#63b8ff" d="M1342.35,-181.37C1314.72,-170.32 1266.64,-151.08 1235.05,-138.45"/>
<polygon fill="#63b8ff" stroke="#63b8ff" points="1236,-135.06 1225.42,-134.6 1233.4,-141.56 1236,-135.06"/>
</a>
</g>
</g>
<!-- Node8&#45;&gt;Node2 -->
<g id="edge11_Node000008_Node000002" class="edge">
<title>Node8&#45;&gt;Node2</title>
<g id="a_edge11_Node000008_Node000002"><a xlink:title=" ">
<path fill="none" stroke="#63b8ff" d="M1091.3,-244.43C1002.82,-237.46 873.47,-224.55 826.93,-206 822.29,-204.15 775.74,-169.47 744.99,-146.39"/>
<polygon fill="#63b8ff" stroke="#63b8ff" points="746.88,-143.43 736.78,-140.22 742.67,-149.03 746.88,-143.43"/>
</a>
</g>
</g>
<!-- Node8&#45;&gt;Node3 -->
<g id="edge12_Node000008_Node000003" class="edge">
<title>Node8&#45;&gt;Node3</title>
<g id="a_edge12_Node000008_Node000003"><a xlink:title=" ">
<path fill="none" stroke="#63b8ff" d="M1164.01,-241.89C1149.75,-233.74 1128.71,-220.61 1112.93,-206 1050.42,-148.14 1063.75,-105.17 994.93,-55 967.9,-35.3 931.2,-23.44 905.33,-16.97"/>
<polygon fill="#63b8ff" stroke="#63b8ff" points="905.84,-13.5 895.31,-14.6 904.23,-20.31 905.84,-13.5"/>
</a>
</g>
</g>
<!-- Node8&#45;&gt;Node6 -->
<g id="edge10_Node000008_Node000006" class="edge">
<title>Node8&#45;&gt;Node6</title>
<g id="a_edge10_Node000008_Node000006"><a xlink:title=" ">
<path fill="none" stroke="#63b8ff" d="M1206.68,-241.99C1238.57,-231.86 1292,-214.87 1327.6,-203.55"/>
<polygon fill="#63b8ff" stroke="#63b8ff" points="1328.67,-206.88 1337.14,-200.52 1326.55,-200.21 1328.67,-206.88"/>
</a>
</g>
</g>
<!-- Node8&#45;&gt;Node7 -->
<g id="edge13_Node000008_Node000007" class="edge">
<title>Node8&#45;&gt;Node7</title>
<g id="a_edge13_Node000008_Node000007"><a xlink:title=" ">
<path fill="none" stroke="#63b8ff" d="M1203.04,-241.98C1218.51,-234.92 1237.69,-223.23 1246.93,-206 1258.9,-183.67 1238.9,-157.85 1222.34,-141.72"/>
<polygon fill="#63b8ff" stroke="#63b8ff" points="1224.38,-138.84 1214.65,-134.64 1219.64,-143.99 1224.38,-138.84"/>
</a>
</g>
</g>
<!-- Node9 -->
<g id="Node000009" class="node">
<title>Node9</title>
<g id="a_Node000009"><a xlink:title=" ">
<polygon fill="#e0e0e0" stroke="#999999" points="480.43,-134.5 435.43,-134.5 435.43,-115.5 480.43,-115.5 480.43,-134.5"/>
<text text-anchor="middle" x="457.93" y="-122.5" font-family="Helvetica,sans-Serif" font-size="10.00">utility</text>
</a>
</g>
</g>
<!-- Node8&#45;&gt;Node9 -->
<g id="edge14_Node000008_Node000009" class="edge">
<title>Node8&#45;&gt;Node9</title>
<g id="a_edge14_Node000008_Node000009"><a xlink:title=" ">
<path fill="none" stroke="#63b8ff" d="M1091.17,-244.71C1010.1,-238.45 887.19,-226.5 781.93,-206 733.45,-196.56 722.99,-187.37 674.93,-176 592.99,-156.62 569.17,-165.5 488.93,-140 487.48,-139.54 486.02,-139.03 484.55,-138.49"/>
<polygon fill="#63b8ff" stroke="#63b8ff" points="485.61,-135.14 475.03,-134.58 482.94,-141.62 485.61,-135.14"/>
</a>
</g>
</g>
<!-- Node10 -->
<g id="Node000010" class="node">
<title>Node10</title>
<g id="a_Node000010"><a xlink:href="uniformProposal_8tpp.html" target="_top" xlink:title=" ">
<polygon fill="white" stroke="#666666" points="1237.93,-200.5 1121.93,-200.5 1121.93,-181.5 1237.93,-181.5 1237.93,-200.5"/>
<text text-anchor="middle" x="1179.93" y="-188.5" font-family="Helvetica,sans-Serif" font-size="10.00">uniformProposal.tpp</text>
</a>
</g>
</g>
<!-- Node8&#45;&gt;Node10 -->
<g id="edge15_Node000008_Node000010" class="edge">
<title>Node8&#45;&gt;Node10</title>
<g id="a_edge15_Node000008_Node000010"><a xlink:title=" ">
<path fill="none" stroke="#63b8ff" d="M1179.93,-241.87C1179.93,-233.75 1179.93,-221.31 1179.93,-210.89"/>
<polygon fill="#63b8ff" stroke="#63b8ff" points="1183.43,-210.67 1179.93,-200.67 1176.43,-210.67 1183.43,-210.67"/>
</a>
</g>
</g>
<!-- Node11&#45;&gt;Node2 -->
<g id="edge17_Node000011_Node000002" class="edge">
<title>Node11&#45;&gt;Node2</title>
<g id="a_edge17_Node000011_Node000002"><a xlink:title=" ">
<path fill="none" stroke="#63b8ff" d="M870.13,-175.95C840.79,-166.33 801.69,-153.49 770.46,-143.24"/>
<polygon fill="#63b8ff" stroke="#63b8ff" points="771.21,-139.81 760.62,-140.01 769.03,-146.46 771.21,-139.81"/>
</a>
</g>
</g>
<!-- Node11&#45;&gt;Node3 -->
<g id="edge19_Node000011_Node000003" class="edge">
<title>Node11&#45;&gt;Node3</title>
<g id="a_edge19_Node000011_Node000003"><a xlink:title=" ">
<path fill="none" stroke="#63b8ff" d="M870.16,-175.83C853.61,-168.01 836.4,-156.47 826.93,-140 805.16,-102.17 838.31,-52.47 859.14,-27.05"/>
<polygon fill="#63b8ff" stroke="#63b8ff" points="862.07,-29.01 865.88,-19.12 856.74,-24.47 862.07,-29.01"/>
</a>
</g>
</g>
<!-- Node11&#45;&gt;Node4 -->
<g id="edge18_Node000011_Node000004" class="edge">
<title>Node11&#45;&gt;Node4</title>
<g id="a_edge18_Node000011_Node000004"><a xlink:title=" ">
<path fill="none" stroke="#63b8ff" d="M967.96,-175.91C986.11,-168.36 1004.33,-156.99 1014.93,-140 1021.98,-128.69 1021.52,-121.59 1014.93,-110 1006.63,-95.43 991.48,-85.14 976.95,-78.15"/>
<polygon fill="#63b8ff" stroke="#63b8ff" points="978.14,-74.85 967.57,-74.02 975.32,-81.25 978.14,-74.85"/>
</a>
</g>
</g>
<!-- Node11&#45;&gt;Node7 -->
<g id="edge20_Node000011_Node000007" class="edge">
<title>Node11&#45;&gt;Node7</title>
<g id="a_edge20_Node000011_Node000007"><a xlink:title=" ">
<path fill="none" stroke="#63b8ff" d="M990.05,-177.05C1039.53,-168.13 1104.93,-155.16 1161.93,-140 1164.71,-139.26 1167.58,-138.43 1170.45,-137.57"/>
<polygon fill="#63b8ff" stroke="#63b8ff" points="1171.62,-140.87 1180.09,-134.51 1169.5,-134.2 1171.62,-140.87"/>
</a>
</g>
</g>
<!-- Node11&#45;&gt;Node9 -->
<g id="edge21_Node000011_Node000009" class="edge">
<title>Node11&#45;&gt;Node9</title>
<g id="a_edge21_Node000011_Node000009"><a xlink:title=" ">
<path fill="none" stroke="#63b8ff" d="M835.65,-183.74C731.64,-174.83 552.31,-157.6 488.93,-140 487.24,-139.53 485.54,-138.99 483.83,-138.39"/>
<polygon fill="#63b8ff" stroke="#63b8ff" points="484.89,-135.04 474.31,-134.52 482.26,-141.53 484.89,-135.04"/>
</a>
</g>
</g>
<!-- Node11&#45;&gt;Node12 -->
<g id="edge22_Node000011_Node000012" class="edge">
<title>Node11&#45;&gt;Node12</title>
<g id="a_edge22_Node000011_Node000012"><a xlink:title=" ">
<path fill="none" stroke="#63b8ff" d="M990.25,-183.5C1018.47,-181.14 1050.64,-178.44 1079.93,-176 1272.81,-159.92 1321.09,-156.6 1513.93,-140 1552.51,-136.68 1596.4,-132.75 1627.95,-129.9"/>
<polygon fill="#63b8ff" stroke="#63b8ff" points="1628.51,-133.37 1638.15,-128.98 1627.88,-126.4 1628.51,-133.37"/>
</a>
</g>
</g>
<!-- Node13 -->
<g id="Node000013" class="node">
<title>Node13</title>
<g id="a_Node000013"><a xlink:href="metropolisHastingsSampler_8tpp.html" target="_top" xlink:title=" ">
<polygon fill="white" stroke="#666666" points="1005.93,-134.5 835.93,-134.5 835.93,-115.5 1005.93,-115.5 1005.93,-134.5"/>
<text text-anchor="middle" x="920.93" y="-122.5" font-family="Helvetica,sans-Serif" font-size="10.00">metropolisHastingsSampler.tpp</text>
</a>
</g>
</g>
<!-- Node11&#45;&gt;Node13 -->
<g id="edge23_Node000011_Node000013" class="edge">
<title>Node11&#45;&gt;Node13</title>
<g id="a_edge23_Node000011_Node000013"><a xlink:title=" ">
<path fill="none" stroke="#63b8ff" d="M914.7,-175.8C915.84,-166.7 917.33,-154.79 918.56,-144.9"/>
<polygon fill="#63b8ff" stroke="#63b8ff" points="922.05,-145.2 919.82,-134.84 915.11,-144.33 922.05,-145.2"/>
</a>
</g>
</g>
<!-- Node14&#45;&gt;Node2 -->
<g id="edge29_Node000014_Node000002" class="edge">
<title>Node14&#45;&gt;Node2</title>
<g id="a_edge29_Node000014_Node000002"><a xlink:title=" ">
<path fill="none" stroke="#63b8ff" d="M1451.22,-177.05C1448.08,-176.67 1444.98,-176.32 1441.93,-176 1169.62,-147.37 1099.54,-165.46 826.93,-140 815.05,-138.89 802.48,-137.49 790.26,-136"/>
<polygon fill="#63b8ff" stroke="#63b8ff" points="790.45,-132.5 780.1,-134.74 789.59,-139.45 790.45,-132.5"/>
</a>
</g>
</g>
<!-- Node14&#45;&gt;Node4 -->
<g id="edge30_Node000014_Node000004" class="edge">
<title>Node14&#45;&gt;Node4</title>
<g id="a_edge30_Node000014_Node000004"><a xlink:title=" ">
<path fill="none" stroke="#63b8ff" d="M1534.93,-175.9C1535.38,-157.62 1533.06,-126.17 1513.93,-110 1475,-77.11 1133.82,-68.38 996.66,-66.19"/>
<polygon fill="#63b8ff" stroke="#63b8ff" points="996.42,-62.69 986.37,-66.03 996.31,-69.69 996.42,-62.69"/>
</a>
</g>
</g>
<!-- Node14&#45;&gt;Node5 -->
<g id="edge25_Node000014_Node000005" class="edge">
<title>Node14&#45;&gt;Node5</title>
<g id="a_edge25_Node000014_Node000005"><a xlink:title=" ">
<path fill="none" stroke="#63b8ff" d="M1548.45,-175.7C1566.33,-158.61 1598.11,-129.85 1628.93,-110 1687.89,-72.03 1763.58,-39.59 1805.8,-22.79"/>
<polygon fill="#63b8ff" stroke="#63b8ff" points="1807.26,-25.97 1815.28,-19.05 1804.69,-19.46 1807.26,-25.97"/>
</a>
</g>
</g>
<!-- Node14&#45;&gt;Node15 -->
<g id="edge26_Node000014_Node000015" class="edge">
<title>Node14&#45;&gt;Node15</title>
<g id="a_edge26_Node000014_Node000015"><a xlink:title=" ">
<path fill="none" stroke="#63b8ff" d="M1616.68,-179.74C1689.77,-170.38 1799.14,-155.66 1893.93,-140 1906.23,-137.97 1919.66,-135.47 1931.6,-133.15"/>
<polygon fill="#63b8ff" stroke="#63b8ff" points="1932.51,-136.54 1941.64,-131.18 1931.16,-129.67 1932.51,-136.54"/>
</a>
</g>
</g>
<!-- Node16 -->
<g id="Node000016" class="node">
<title>Node16</title>
<g id="a_Node000016"><a xlink:title=" ">
<polygon fill="#e0e0e0" stroke="#999999" points="1153.43,-134.5 1106.43,-134.5 1106.43,-115.5 1153.43,-115.5 1153.43,-134.5"/>
<text text-anchor="middle" x="1129.93" y="-122.5" font-family="Helvetica,sans-Serif" font-size="10.00">cmath</text>
</a>
</g>
</g>
<!-- Node14&#45;&gt;Node16 -->
<g id="edge27_Node000014_Node000016" class="edge">
<title>Node14&#45;&gt;Node16</title>
<g id="a_edge27_Node000014_Node000016"><a xlink:title=" ">
<path fill="none" stroke="#63b8ff" d="M1451.19,-177.33C1448.06,-176.87 1444.96,-176.43 1441.93,-176 1320.32,-158.76 1287.18,-169.41 1167.93,-140 1165.42,-139.38 1162.85,-138.65 1160.28,-137.86"/>
<polygon fill="#63b8ff" stroke="#63b8ff" points="1161.17,-134.46 1150.57,-134.55 1158.91,-141.09 1161.17,-134.46"/>
</a>
</g>
</g>
<!-- Node17 -->
<g id="Node000017" class="node">
<title>Node17</title>
<g id="a_Node000017"><a xlink:title=" ">
<polygon fill="#e0e0e0" stroke="#999999" points="1352.43,-134.5 1287.43,-134.5 1287.43,-115.5 1352.43,-115.5 1352.43,-134.5"/>
<text text-anchor="middle" x="1319.93" y="-122.5" font-family="Helvetica,sans-Serif" font-size="10.00">stdexcept</text>
</a>
</g>
</g>
<!-- Node14&#45;&gt;Node17 -->
<g id="edge28_Node000014_Node000017" class="edge">
<title>Node14&#45;&gt;Node17</title>
<g id="a_edge28_Node000014_Node000017"><a xlink:title=" ">
<path fill="none" stroke="#63b8ff" d="M1483.02,-175.98C1448.45,-166.28 1401.78,-152.87 1360.93,-140 1358.77,-139.32 1356.55,-138.61 1354.32,-137.88"/>
<polygon fill="#63b8ff" stroke="#63b8ff" points="1355.17,-134.47 1344.58,-134.63 1352.96,-141.11 1355.17,-134.47"/>
</a>
</g>
</g>
<!-- Node18 -->
<g id="Node000018" class="node">
<title>Node18</title>
<g id="a_Node000018"><a xlink:href="VolumeEstimatorMC_8tpp.html" target="_top" xlink:title=" ">
<polygon fill="white" stroke="#666666" points="1505.43,-134.5 1370.43,-134.5 1370.43,-115.5 1505.43,-115.5 1505.43,-134.5"/>
<text text-anchor="middle" x="1437.93" y="-122.5" font-family="Helvetica,sans-Serif" font-size="10.00">VolumeEstimatorMC.tpp</text>
</a>
</g>
</g>
<!-- Node14&#45;&gt;Node18 -->
<g id="edge31_Node000014_Node000018" class="edge">
<title>Node14&#45;&gt;Node18</title>
<g id="a_edge31_Node000014_Node000018"><a xlink:title=" ">
<path fill="none" stroke="#63b8ff" d="M1512.62,-175.8C1496.83,-165.27 1475.38,-150.97 1459.52,-140.4"/>
<polygon fill="#63b8ff" stroke="#63b8ff" points="1461.17,-137.29 1450.91,-134.66 1457.29,-143.12 1461.17,-137.29"/>
</a>
</g>
</g>
<!-- Node19&#45;&gt;Node5 -->
<g id="edge33_Node000019_Node000005" class="edge">
<title>Node19&#45;&gt;Node5</title>
<g id="a_edge33_Node000019_Node000005"><a xlink:title=" ">
<path fill="none" stroke="#63b8ff" d="M2047.19,-181.4C2040.05,-165.71 2023.16,-132 2000.93,-110 1960.86,-70.35 1902.12,-39.48 1867.18,-23.22"/>
<polygon fill="#63b8ff" stroke="#63b8ff" points="1868.54,-19.99 1857.99,-19.02 1865.63,-26.36 1868.54,-19.99"/>
</a>
</g>
</g>
<!-- Node19&#45;&gt;Node12 -->
<g id="edge35_Node000019_Node000012" class="edge">
<title>Node19&#45;&gt;Node12</title>
<g id="a_edge35_Node000019_Node000012"><a xlink:title=" ">
<path fill="none" stroke="#63b8ff" d="M1998.88,-181.46C1939.03,-171.6 1837.85,-154.85 1750.93,-140 1738.76,-137.92 1725.57,-135.63 1713.47,-133.51"/>
<polygon fill="#63b8ff" stroke="#63b8ff" points="1714.06,-130.06 1703.61,-131.78 1712.86,-136.96 1714.06,-130.06"/>
</a>
</g>
</g>
<!-- Node19&#45;&gt;Node15 -->
<g id="edge34_Node000019_Node000015" class="edge">
<title>Node19&#45;&gt;Node15</title>
<g id="a_edge34_Node000019_Node000015"><a xlink:title=" ">
<path fill="none" stroke="#63b8ff" d="M2039.6,-181.37C2026.07,-171.06 2003.21,-153.65 1986.74,-141.09"/>
<polygon fill="#63b8ff" stroke="#63b8ff" points="1988.42,-137.98 1978.34,-134.7 1984.18,-143.54 1988.42,-137.98"/>
</a>
</g>
</g>
<!-- Node20 -->
<g id="Node000020" class="node">
<title>Node20</title>
<g id="a_Node000020"><a xlink:href="ISMeanEstimator_8tpp.html" target="_top" xlink:title=" ">
<polygon fill="white" stroke="#666666" points="2165.93,-134.5 2047.93,-134.5 2047.93,-115.5 2165.93,-115.5 2165.93,-134.5"/>
<text text-anchor="middle" x="2106.93" y="-122.5" font-family="Helvetica,sans-Serif" font-size="10.00">ISMeanEstimator.tpp</text>
</a>
</g>
</g>
<!-- Node19&#45;&gt;Node20 -->
<g id="edge36_Node000019_Node000020" class="edge">
<title>Node19&#45;&gt;Node20</title>
<g id="a_edge36_Node000019_Node000020"><a xlink:title=" ">
<path fill="none" stroke="#63b8ff" d="M2058.48,-181.37C2067.11,-171.5 2081.45,-155.11 2092.3,-142.72"/>
<polygon fill="#63b8ff" stroke="#63b8ff" points="2095.18,-144.74 2099.13,-134.91 2089.91,-140.13 2095.18,-144.74"/>
</a>
</g>
</g>
<!-- Node21&#45;&gt;Node3 -->
<g id="edge38_Node000021_Node000003" class="edge">
<title>Node21&#45;&gt;Node3</title>
<g id="a_edge38_Node000021_Node000003"><a xlink:title=" ">
<path fill="none" stroke="#63b8ff" d="M1797.36,-181.4C1775.29,-161.64 1721.92,-114.33 1711.93,-110 1562.38,-45.18 1039.78,-17.87 905.55,-11.84"/>
<polygon fill="#63b8ff" stroke="#63b8ff" points="905.31,-8.32 895.16,-11.38 905,-15.32 905.31,-8.32"/>
</a>
</g>
</g>
<!-- Node21&#45;&gt;Node5 -->
<g id="edge39_Node000021_Node000005" class="edge">
<title>Node21&#45;&gt;Node5</title>
<g id="a_edge39_Node000021_Node000005"><a xlink:title=" ">
<path fill="none" stroke="#63b8ff" d="M1837.23,-181.35C1857.19,-173.9 1881.8,-160.96 1893.93,-140 1916.51,-100.97 1877.66,-51.11 1854.05,-26.18"/>
<polygon fill="#63b8ff" stroke="#63b8ff" points="1856.52,-23.7 1847.02,-19.01 1851.52,-28.6 1856.52,-23.7"/>
</a>
</g>
</g>
<!-- Node21&#45;&gt;Node7 -->
<g id="edge42_Node000021_Node000007" class="edge">
<title>Node21&#45;&gt;Node7</title>
<g id="a_edge42_Node000021_Node000007"><a xlink:title=" ">
<path fill="none" stroke="#63b8ff" d="M1711.35,-182.04C1582.27,-171.1 1359.05,-151.48 1277.93,-140 1265.91,-138.3 1252.88,-135.99 1241.15,-133.74"/>
<polygon fill="#63b8ff" stroke="#63b8ff" points="1241.72,-130.29 1231.24,-131.79 1240.37,-137.16 1241.72,-130.29"/>
</a>
</g>
</g>
<!-- Node21&#45;&gt;Node12 -->
<g id="edge41_Node000021_Node000012" class="edge">
<title>Node21&#45;&gt;Node12</title>
<g id="a_edge41_Node000021_Node000012"><a xlink:title=" ">
<path fill="none" stroke="#63b8ff" d="M1788.58,-181.37C1765.47,-170.49 1725.51,-151.69 1698.66,-139.05"/>
<polygon fill="#63b8ff" stroke="#63b8ff" points="1699.95,-135.79 1689.41,-134.7 1696.97,-142.12 1699.95,-135.79"/>
</a>
</g>
</g>
<!-- Node21&#45;&gt;Node15 -->
<g id="edge40_Node000021_Node000015" class="edge">
<title>Node21&#45;&gt;Node15</title>
<g id="a_edge40_Node000021_Node000015"><a xlink:title=" ">
<path fill="none" stroke="#63b8ff" d="M1828.5,-181.37C1856.14,-170.32 1904.21,-151.08 1935.8,-138.45"/>
<polygon fill="#63b8ff" stroke="#63b8ff" points="1937.45,-141.56 1945.43,-134.6 1934.85,-135.06 1937.45,-141.56"/>
</a>
</g>
</g>
<!-- Node22 -->
<g id="Node000022" class="node">
<title>Node22</title>
<g id="a_Node000022"><a xlink:href="MCMeanEstimator_8tpp.html" target="_top" xlink:title=" ">
<polygon fill="white" stroke="#666666" points="1885.43,-134.5 1760.43,-134.5 1760.43,-115.5 1885.43,-115.5 1885.43,-134.5"/>
<text text-anchor="middle" x="1822.93" y="-122.5" font-family="Helvetica,sans-Serif" font-size="10.00">MCMeanEstimator.tpp</text>
</a>
</g>
</g>
<!-- Node21&#45;&gt;Node22 -->
<g id="edge43_Node000021_Node000022" class="edge">
<title>Node21&#45;&gt;Node22</title>
<g id="a_edge43_Node000021_Node000022"><a xlink:title=" ">
<path fill="none" stroke="#63b8ff" d="M1809.08,-181.37C1811.41,-172.07 1815.18,-156.98 1818.2,-144.9"/>
<polygon fill="#63b8ff" stroke="#63b8ff" points="1821.67,-145.46 1820.7,-134.91 1814.88,-143.76 1821.67,-145.46"/>
</a>
</g>
</g>
<!-- Node23&#45;&gt;Node2 -->
<g id="edge51_Node000023_Node000002" class="edge">
<title>Node23&#45;&gt;Node2</title>
<g id="a_edge51_Node000023_Node000002"><a xlink:title=" ">
<path fill="none" stroke="#63b8ff" d="M539.61,-249.37C578.56,-246.3 635.83,-236.42 674.93,-206 693.11,-191.85 704.55,-167.79 711.01,-149.74"/>
<polygon fill="#63b8ff" stroke="#63b8ff" points="714.36,-150.77 714.18,-140.18 707.71,-148.57 714.36,-150.77"/>
</a>
</g>
</g>
<!-- Node23&#45;&gt;Node3 -->
<g id="edge48_Node000023_Node000003" class="edge">
<title>Node23&#45;&gt;Node3</title>
<g id="a_edge48_Node000023_Node000003"><a xlink:title=" ">
<path fill="none" stroke="#63b8ff" d="M454.37,-249.85C340.59,-247.68 35.91,-238.82 5.93,-206 -3.07,-196.16 -0.45,-187.71 5.93,-176 88.44,-24.32 697.04,-11.43 842.68,-10.52"/>
<polygon fill="#63b8ff" stroke="#63b8ff" points="842.74,-14.02 852.73,-10.47 842.71,-7.02 842.74,-14.02"/>
</a>
</g>
</g>
<!-- Node23&#45;&gt;Node7 -->
<g id="edge46_Node000023_Node000007" class="edge">
<title>Node23&#45;&gt;Node7</title>
<g id="a_edge46_Node000023_Node000007"><a xlink:title=" ">
<path fill="none" stroke="#63b8ff" d="M539.55,-250.76C626.92,-250.42 832.17,-245.09 998.93,-206 1016.57,-201.86 1120.71,-159.9 1173.41,-138.46"/>
<polygon fill="#63b8ff" stroke="#63b8ff" points="1174.98,-141.6 1182.92,-134.59 1172.34,-135.12 1174.98,-141.6"/>
</a>
</g>
</g>
<!-- Node23&#45;&gt;Node12 -->
<g id="edge47_Node000023_Node000012" class="edge">
<title>Node23&#45;&gt;Node12</title>
<g id="a_edge47_Node000023_Node000012"><a xlink:title=" ">
<path fill="none" stroke="#63b8ff" d="M539.54,-249.15C652.13,-245.26 955.46,-232.54 1051.93,-206 1081.06,-197.98 1083.83,-184.15 1112.93,-176 1113.7,-175.78 1497.65,-141.48 1628.13,-129.82"/>
<polygon fill="#63b8ff" stroke="#63b8ff" points="1628.51,-133.3 1638.16,-128.93 1627.88,-126.33 1628.51,-133.3"/>
</a>
</g>
</g>
<!-- Node24 -->
<g id="Node000024" class="node">
<title>Node24</title>
<g id="a_Node000024"><a xlink:title=" ">
<polygon fill="#e0e0e0" stroke="#999999" points="70.43,-200.5 15.43,-200.5 15.43,-181.5 70.43,-181.5 70.43,-200.5"/>
<text text-anchor="middle" x="42.93" y="-188.5" font-family="Helvetica,sans-Serif" font-size="10.00">fstream</text>
</a>
</g>
</g>
<!-- Node23&#45;&gt;Node24 -->
<g id="edge49_Node000023_Node000024" class="edge">
<title>Node23&#45;&gt;Node24</title>
<g id="a_edge49_Node000023_Node000024"><a xlink:title=" ">
<path fill="none" stroke="#63b8ff" d="M454.3,-249.53C378.14,-247.01 214.13,-237.99 79.93,-206 77.41,-205.4 74.84,-204.68 72.28,-203.87"/>
<polygon fill="#63b8ff" stroke="#63b8ff" points="73.2,-200.49 62.6,-200.51 70.9,-207.1 73.2,-200.49"/>
</a>
</g>
</g>
<!-- Node25 -->
<g id="Node000025" class="node">
<title>Node25</title>
<g id="a_Node000025"><a xlink:title=" ">
<polygon fill="#e0e0e0" stroke="#999999" points="306.43,-200.5 259.43,-200.5 259.43,-181.5 306.43,-181.5 306.43,-200.5"/>
<text text-anchor="middle" x="282.93" y="-188.5" font-family="Helvetica,sans-Serif" font-size="10.00">vector</text>
</a>
</g>
</g>
<!-- Node23&#45;&gt;Node25 -->
<g id="edge50_Node000023_Node000025" class="edge">
<title>Node23&#45;&gt;Node25</title>
<g id="a_edge50_Node000023_Node000025"><a xlink:title=" ">
<path fill="none" stroke="#63b8ff" d="M454.41,-242.28C417.14,-234.56 361.76,-221.84 314.93,-206 313.49,-205.51 312.03,-204.99 310.56,-204.44"/>
<polygon fill="#63b8ff" stroke="#63b8ff" points="311.57,-201.07 300.99,-200.55 308.93,-207.56 311.57,-201.07"/>
</a>
</g>
</g>
<!-- Node26 -->
<g id="Node000026" class="node">
<title>Node26</title>
<g id="a_Node000026"><a xlink:href="hypersphere_8hpp.html" target="_top" xlink:title="N&#45;dimensional hypersphere (solid ball) domain.">
<polygon fill="white" stroke="#666666" points="240.93,-200.5 88.93,-200.5 88.93,-181.5 240.93,-181.5 240.93,-200.5"/>
<text text-anchor="middle" x="164.93" y="-188.5" font-family="Helvetica,sans-Serif" font-size="10.00">../domains/hypersphere.hpp</text>
</a>
</g>
</g>
<!-- Node23&#45;&gt;Node26 -->
<g id="edge52_Node000023_Node000026" class="edge">
<title>Node23&#45;&gt;Node26</title>
<g id="a_edge52_Node000023_Node000026"><a xlink:title=" ">
<path fill="none" stroke="#63b8ff" d="M454.2,-242.97C395.52,-232.63 289.75,-213.99 223.66,-202.35"/>
<polygon fill="#63b8ff" stroke="#63b8ff" points="223.86,-198.83 213.41,-200.54 222.65,-205.72 223.86,-198.83"/>
</a>
</g>
</g>
<!-- Node28 -->
<g id="Node000028" class="node">
<title>Node28</title>
<g id="a_Node000028"><a xlink:href="hypercylinder_8hpp.html" target="_top" xlink:title="N&#45;dimensional hypercylinder (infinite cylinder in discrete dimensions).">
<polygon fill="white" stroke="#666666" points="665.93,-200.5 507.93,-200.5 507.93,-181.5 665.93,-181.5 665.93,-200.5"/>
<text text-anchor="middle" x="586.93" y="-188.5" font-family="Helvetica,sans-Serif" font-size="10.00">../domains/hypercylinder.hpp</text>
</a>
</g>
</g>
<!-- Node23&#45;&gt;Node28 -->
<g id="edge57_Node000023_Node000028" class="edge">
<title>Node23&#45;&gt;Node28</title>
<g id="a_edge57_Node000023_Node000028"><a xlink:title=" ">
<path fill="none" stroke="#63b8ff" d="M510.21,-241.87C524.56,-232.54 547.68,-217.51 564.8,-206.38"/>
<polygon fill="#63b8ff" stroke="#63b8ff" points="567.11,-209.05 573.59,-200.67 563.3,-203.18 567.11,-209.05"/>
</a>
</g>
</g>
<!-- Node30 -->
<g id="Node000030" class="node">
<title>Node30</title>
<g id="a_Node000030"><a xlink:href="hyperrectangle_8hpp.html" target="_top" xlink:title="Axis&#45;aligned hyperrectangular domain in N dimensions.">
<polygon fill="white" stroke="#666666" points="489.43,-200.5 324.43,-200.5 324.43,-181.5 489.43,-181.5 489.43,-200.5"/>
<text text-anchor="middle" x="406.93" y="-188.5" font-family="Helvetica,sans-Serif" font-size="10.00">../domains/hyperrectangle.hpp</text>
</a>
</g>
</g>
<!-- Node23&#45;&gt;Node30 -->
<g id="edge62_Node000023_Node000030" class="edge">
<title>Node23&#45;&gt;Node30</title>
<g id="a_edge62_Node000023_Node000030"><a xlink:title=" ">
<path fill="none" stroke="#63b8ff" d="M483.65,-241.87C469.29,-232.54 446.17,-217.51 429.05,-206.38"/>
<polygon fill="#63b8ff" stroke="#63b8ff" points="430.55,-203.18 420.26,-200.67 426.74,-209.05 430.55,-203.18"/>
</a>
</g>
</g>
<!-- Node26&#45;&gt;Node2 -->
<g id="edge53_Node000026_Node000002" class="edge">
<title>Node26&#45;&gt;Node2</title>
<g id="a_edge53_Node000026_Node000002"><a xlink:title=" ">
<path fill="none" stroke="#63b8ff" d="M213.39,-181.48C225.32,-179.53 238.06,-177.57 249.93,-176 408.45,-155 449.04,-158.1 607.93,-140 620.15,-138.61 633.13,-137.04 645.72,-135.47"/>
<polygon fill="#63b8ff" stroke="#63b8ff" points="646.23,-138.93 655.71,-134.21 645.36,-131.98 646.23,-138.93"/>
</a>
</g>
</g>
<!-- Node26&#45;&gt;Node4 -->
<g id="edge55_Node000026_Node000004" class="edge">
<title>Node26&#45;&gt;Node4</title>
<g id="a_edge55_Node000026_Node000004"><a xlink:title=" ">
<path fill="none" stroke="#63b8ff" d="M174.8,-181.4C198.09,-161.15 254.85,-112.04 259.93,-110 317.06,-87.01 731.09,-71.98 883.67,-67.17"/>
<polygon fill="#63b8ff" stroke="#63b8ff" points="883.88,-70.66 893.76,-66.85 883.66,-63.67 883.88,-70.66"/>
</a>
</g>
</g>
<!-- Node26&#45;&gt;Node9 -->
<g id="edge54_Node000026_Node000009" class="edge">
<title>Node26&#45;&gt;Node9</title>
<g id="a_edge54_Node000026_Node000009"><a xlink:title=" ">
<path fill="none" stroke="#63b8ff" d="M204.14,-181.44C262.47,-168.69 371.03,-144.98 425.29,-133.13"/>
<polygon fill="#63b8ff" stroke="#63b8ff" points="426.37,-136.48 435.39,-130.92 424.87,-129.64 426.37,-136.48"/>
</a>
</g>
</g>
<!-- Node27 -->
<g id="Node000027" class="node">
<title>Node27</title>
<g id="a_Node000027"><a xlink:href="hypersphere_8tpp.html" target="_top" xlink:title=" ">
<polygon fill="white" stroke="#666666" points="212.93,-134.5 116.93,-134.5 116.93,-115.5 212.93,-115.5 212.93,-134.5"/>
<text text-anchor="middle" x="164.93" y="-122.5" font-family="Helvetica,sans-Serif" font-size="10.00">hypersphere.tpp</text>
</a>
</g>
</g>
<!-- Node26&#45;&gt;Node27 -->
<g id="edge56_Node000026_Node000027" class="edge">
<title>Node26&#45;&gt;Node27</title>
<g id="a_edge56_Node000026_Node000027"><a xlink:title=" ">
<path fill="none" stroke="#63b8ff" d="M164.93,-181.37C164.93,-172.16 164.93,-157.29 164.93,-145.27"/>
<polygon fill="#63b8ff" stroke="#63b8ff" points="168.43,-144.91 164.93,-134.91 161.43,-144.91 168.43,-144.91"/>
</a>
</g>
</g>
<!-- Node28&#45;&gt;Node2 -->
<g id="edge58_Node000028_Node000002" class="edge">
<title>Node28&#45;&gt;Node2</title>
<g id="a_edge58_Node000028_Node000002"><a xlink:title=" ">
<path fill="none" stroke="#63b8ff" d="M604.59,-181.37C623.79,-171.99 655.04,-156.72 679.87,-144.59"/>
<polygon fill="#63b8ff" stroke="#63b8ff" points="681.58,-147.65 689.03,-140.12 678.51,-141.36 681.58,-147.65"/>
</a>
</g>
</g>
<!-- Node28&#45;&gt;Node4 -->
<g id="edge59_Node000028_Node000004" class="edge">
<title>Node28&#45;&gt;Node4</title>
<g id="a_edge59_Node000028_Node000004"><a xlink:title=" ">
<path fill="none" stroke="#63b8ff" d="M590.57,-181.5C598.27,-164.7 617.87,-127.38 646.93,-110 685.83,-86.73 810,-74.41 883.62,-68.99"/>
<polygon fill="#63b8ff" stroke="#63b8ff" points="883.93,-72.48 893.66,-68.27 883.43,-65.5 883.93,-72.48"/>
</a>
</g>
</g>
<!-- Node28&#45;&gt;Node16 -->
<g id="edge60_Node000028_Node000016" class="edge">
<title>Node28&#45;&gt;Node16</title>
<g id="a_edge60_Node000028_Node000016"><a xlink:title=" ">
<path fill="none" stroke="#63b8ff" d="M660.78,-181.48C746.1,-171.62 890.68,-154.82 1014.93,-140 1042.17,-136.75 1073.02,-132.99 1095.91,-130.18"/>
<polygon fill="#63b8ff" stroke="#63b8ff" points="1096.64,-133.62 1106.14,-128.93 1095.79,-126.67 1096.64,-133.62"/>
</a>
</g>
</g>
<!-- Node29 -->
<g id="Node000029" class="node">
<title>Node29</title>
<g id="a_Node000029"><a xlink:href="hypercylinder_8tpp.html" target="_top" xlink:title=" ">
<polygon fill="white" stroke="#666666" points="599.43,-134.5 498.43,-134.5 498.43,-115.5 599.43,-115.5 599.43,-134.5"/>
<text text-anchor="middle" x="548.93" y="-122.5" font-family="Helvetica,sans-Serif" font-size="10.00">hypercylinder.tpp</text>
</a>
</g>
</g>
<!-- Node28&#45;&gt;Node29 -->
<g id="edge61_Node000028_Node000029" class="edge">
<title>Node28&#45;&gt;Node29</title>
<g id="a_edge61_Node000028_Node000029"><a xlink:title=" ">
<path fill="none" stroke="#63b8ff" d="M581.8,-181.37C576.11,-171.78 566.77,-156.05 559.49,-143.8"/>
<polygon fill="#63b8ff" stroke="#63b8ff" points="562.33,-141.72 554.21,-134.91 556.31,-145.29 562.33,-141.72"/>
</a>
</g>
</g>
<!-- Node30&#45;&gt;Node2 -->
<g id="edge63_Node000030_Node000002" class="edge">
<title>Node30&#45;&gt;Node2</title>
<g id="a_edge63_Node000030_Node000002"><a xlink:title=" ">
<path fill="none" stroke="#63b8ff" d="M448.55,-181.44C498.95,-171.06 584.7,-153.42 645.92,-140.82"/>
<polygon fill="#63b8ff" stroke="#63b8ff" points="646.81,-144.21 655.9,-138.76 645.4,-137.35 646.81,-144.21"/>
</a>
</g>
</g>
<!-- Node30&#45;&gt;Node4 -->
<g id="edge65_Node000030_Node000004" class="edge">
<title>Node30&#45;&gt;Node4</title>
<g id="a_edge65_Node000030_Node000004"><a xlink:title=" ">
<path fill="none" stroke="#63b8ff" d="M406.04,-181.38C404.86,-164.71 404.96,-128.09 425.93,-110 459.98,-80.62 757,-69.95 883.39,-66.71"/>
<polygon fill="#63b8ff" stroke="#63b8ff" points="883.72,-70.21 893.63,-66.46 883.55,-63.21 883.72,-70.21"/>
</a>
</g>
</g>
<!-- Node30&#45;&gt;Node9 -->
<g id="edge64_Node000030_Node000009" class="edge">
<title>Node30&#45;&gt;Node9</title>
<g id="a_edge64_Node000030_Node000009"><a xlink:title=" ">
<path fill="none" stroke="#63b8ff" d="M413.8,-181.37C421.59,-171.59 434.48,-155.42 444.32,-143.08"/>
<polygon fill="#63b8ff" stroke="#63b8ff" points="447.33,-144.91 450.83,-134.91 441.86,-140.54 447.33,-144.91"/>
</a>
</g>
</g>
<!-- Node31 -->
<g id="Node000031" class="node">
<title>Node31</title>
<g id="a_Node000031"><a xlink:href="hyperrectangle_8tpp.html" target="_top" xlink:title=" ">
<polygon fill="white" stroke="#666666" points="378.43,-134.5 269.43,-134.5 269.43,-115.5 378.43,-115.5 378.43,-134.5"/>
<text text-anchor="middle" x="323.93" y="-122.5" font-family="Helvetica,sans-Serif" font-size="10.00">hyperrectangle.tpp</text>
</a>
</g>
</g>
<!-- Node30&#45;&gt;Node31 -->
<g id="edge66_Node000030_Node000031" class="edge">
<title>Node30&#45;&gt;Node31</title>
<g id="a_edge66_Node000030_Node000031"><a xlink:title=" ">
<path fill="none" stroke="#63b8ff" d="M395.73,-181.37C382.37,-171.06 359.78,-153.65 343.5,-141.09"/>
<polygon fill="#63b8ff" stroke="#63b8ff" points="345.26,-138.03 335.21,-134.7 340.99,-143.58 345.26,-138.03"/>
</a>
</g>
</g>
</g>
</svg>
