<?xml version="1.0" encoding="UTF-8" standalone="no"?>
<!DOCTYPE svg PUBLIC "-//W3C//DTD SVG 1.1//EN"
 "http://www.w3.org/Graphics/SVG/1.1/DTD/svg11.dtd">
<!-- Generated by graphviz version 2.43.0 (0)
 -->
<!-- Title: src/montecarlo/mcmc/metropolisHastingsSampler.hpp Pages: 1 -->
<svg width="596pt" height="214pt"
 viewBox="0.00 0.00 596.00 214.00" xmlns="http://www.w3.org/2000/svg" xmlns:xlink="http://www.w3.org/1999/xlink">
<g id="graph0" class="graph" transform="scale(1 1) rotate(0) translate(4 210)">
<title>src/montecarlo/mcmc/metropolisHastingsSampler.hpp</title>
<!-- Node1 -->
<g id="Node000001" class="node">
<title>Node1</title>
<g id="a_Node000001"><a xlink:title="Metropolis&#45;Hastings MCMC sampling engine.">
<polygon fill="#999999" stroke="#666666" points="314,-206 138,-206 138,-176 314,-176 314,-206"/>
<text text-anchor="start" x="146" y="-194" font-family="Helvetica,sans-Serif" font-size="10.00">src/montecarlo/mcmc</text>
<text text-anchor="middle" x="226" y="-183" font-family="Helvetica,sans-Serif" font-size="10.00">/metropolisHastingsSampler.hpp</text>
</a>
</g>
</g>
<!-- Node2 -->
<g id="Node000002" class="node">
<title>Node2</title>
<g id="a_Node000002"><a xlink:href="integration__domain_8hpp.html" target="_top" xlink:title="Abstract interface for N&#45;dimensional integration domains.">
<polygon fill="white" stroke="#666666" points="143,-140 19,-140 19,-110 143,-110 143,-140"/>
<text text-anchor="start" x="27" y="-128" font-family="Helvetica,sans-Serif" font-size="10.00">../domains/integration</text>
<text text-anchor="middle" x="81" y="-117" font-family="Helvetica,sans-Serif" font-size="10.00">_domain.hpp</text>
</a>
</g>
</g>
<!-- Node1&#45;&gt;Node2 -->
<g id="edge1_Node000001_Node000002" class="edge">
<title>Node1&#45;&gt;Node2</title>
<g id="a_edge1_Node000001_Node000002"><a xlink:title=" ">
<path fill="none" stroke="#63b8ff" d="M194.18,-175.95C173.03,-166.62 145.04,-154.27 122.19,-144.18"/>
<polygon fill="#63b8ff" stroke="#63b8ff" points="123.31,-140.85 112.75,-140.01 120.48,-147.25 123.31,-140.85"/>
</a>
</g>
</g>
<!-- Node3 -->
<g id="Node000003" class="node">
<title>Node3</title>
<g id="a_Node000003"><a xlink:title=" ">
<polygon fill="#e0e0e0" stroke="#999999" points="76,-19 34,-19 34,0 76,0 76,-19"/>
<text text-anchor="middle" x="55" y="-7" font-family="Helvetica,sans-Serif" font-size="10.00">array</text>
</a>
</g>
</g>
<!-- Node1&#45;&gt;Node3 -->
<g id="edge7_Node000001_Node000003" class="edge">
<title>Node1&#45;&gt;Node3</title>
<g id="a_edge7_Node000001_Node000003"><a xlink:title=" ">
<path fill="none" stroke="#63b8ff" d="M137.98,-180.72C85.57,-173.18 26.2,-160.38 10,-140 -17.4,-105.54 18.3,-53.26 40.21,-26.91"/>
<polygon fill="#63b8ff" stroke="#63b8ff" points="42.87,-29.19 46.74,-19.32 37.56,-24.62 42.87,-29.19"/>
</a>
</g>
</g>
<!-- Node4 -->
<g id="Node000004" class="node">
<title>Node4</title>
<g id="a_Node000004"><a xlink:href="geometry_8hpp.html" target="_top" xlink:title="Core geometric types for Monte Carlo integration.">
<polygon fill="white" stroke="#666666" points="175,-74 83,-74 83,-55 175,-55 175,-74"/>
<text text-anchor="middle" x="129" y="-62" font-family="Helvetica,sans-Serif" font-size="10.00">../geometry.hpp</text>
</a>
</g>
</g>
<!-- Node1&#45;&gt;Node4 -->
<g id="edge6_Node000001_Node000004" class="edge">
<title>Node1&#45;&gt;Node4</title>
<g id="a_edge6_Node000001_Node000004"><a xlink:title=" ">
<path fill="none" stroke="#63b8ff" d="M214.88,-175.72C196.79,-152.51 161.12,-106.73 141.94,-82.1"/>
<polygon fill="#63b8ff" stroke="#63b8ff" points="144.59,-79.81 135.68,-74.07 139.06,-84.11 144.59,-79.81"/>
</a>
</g>
</g>
<!-- Node6 -->
<g id="Node000006" class="node">
<title>Node6</title>
<g id="a_Node000006"><a xlink:title=" ">
<polygon fill="#e0e0e0" stroke="#999999" points="253,-134.5 199,-134.5 199,-115.5 253,-115.5 253,-134.5"/>
<text text-anchor="middle" x="226" y="-122.5" font-family="Helvetica,sans-Serif" font-size="10.00">random</text>
</a>
</g>
</g>
<!-- Node1&#45;&gt;Node6 -->
<g id="edge8_Node000001_Node000006" class="edge">
<title>Node1&#45;&gt;Node6</title>
<g id="a_edge8_Node000001_Node000006"><a xlink:title=" ">
<path fill="none" stroke="#63b8ff" d="M226,-175.8C226,-166.7 226,-154.79 226,-144.9"/>
<polygon fill="#63b8ff" stroke="#63b8ff" points="229.5,-144.84 226,-134.84 222.5,-144.84 229.5,-144.84"/>
</a>
</g>
</g>
<!-- Node7 -->
<g id="Node000007" class="node">
<title>Node7</title>
<g id="a_Node000007"><a xlink:title=" ">
<polygon fill="#e0e0e0" stroke="#999999" points="316.5,-134.5 271.5,-134.5 271.5,-115.5 316.5,-115.5 316.5,-134.5"/>
<text text-anchor="middle" x="294" y="-122.5" font-family="Helvetica,sans-Serif" font-size="10.00">utility</text>
</a>
</g>
</g>
<!-- Node1&#45;&gt;Node7 -->
<g id="edge9_Node000001_Node000007" class="edge">
<title>Node1&#45;&gt;Node7</title>
<g id="a_edge9_Node000001_Node000007"><a xlink:title=" ">
<path fill="none" stroke="#63b8ff" d="M241.09,-175.8C251.8,-165.72 266.17,-152.19 277.23,-141.78"/>
<polygon fill="#63b8ff" stroke="#63b8ff" points="279.72,-144.25 284.61,-134.84 274.92,-139.15 279.72,-144.25"/>
</a>
</g>
</g>
<!-- Node8 -->
<g id="Node000008" class="node">
<title>Node8</title>
<g id="a_Node000008"><a xlink:title=" ">
<polygon fill="#e0e0e0" stroke="#999999" points="399.5,-134.5 334.5,-134.5 334.5,-115.5 399.5,-115.5 399.5,-134.5"/>
<text text-anchor="middle" x="367" y="-122.5" font-family="Helvetica,sans-Serif" font-size="10.00">functional</text>
</a>
</g>
</g>
<!-- Node1&#45;&gt;Node8 -->
<g id="edge10_Node000001_Node000008" class="edge">
<title>Node1&#45;&gt;Node8</title>
<g id="a_edge10_Node000001_Node000008"><a xlink:title=" ">
<path fill="none" stroke="#63b8ff" d="M256.95,-175.95C281.46,-164.83 315.4,-149.42 339.08,-138.67"/>
<polygon fill="#63b8ff" stroke="#63b8ff" points="340.58,-141.84 348.24,-134.52 337.69,-135.46 340.58,-141.84"/>
</a>
</g>
</g>
<!-- Node9 -->
<g id="Node000009" class="node">
<title>Node9</title>
<g id="a_Node000009"><a xlink:href="metropolisHastingsSampler_8tpp.html" target="_top" xlink:title=" ">
<polygon fill="white" stroke="#666666" points="588,-134.5 418,-134.5 418,-115.5 588,-115.5 588,-134.5"/>
<text text-anchor="middle" x="503" y="-122.5" font-family="Helvetica,sans-Serif" font-size="10.00">metropolisHastingsSampler.tpp</text>
</a>
</g>
</g>
<!-- Node1&#45;&gt;Node9 -->
<g id="edge11_Node000001_Node000009" class="edge">
<title>Node1&#45;&gt;Node9</title>
<g id="a_edge11_Node000001_Node000009"><a xlink:title=" ">
<path fill="none" stroke="#63b8ff" d="M286.79,-175.95C337.83,-164.16 409.69,-147.56 456.3,-136.79"/>
<polygon fill="#63b8ff" stroke="#63b8ff" points="457.18,-140.18 466.14,-134.52 455.61,-133.36 457.18,-140.18"/>
</a>
</g>
</g>
<!-- Node2&#45;&gt;Node3 -->
<g id="edge2_Node000002_Node000003" class="edge">
<title>Node2&#45;&gt;Node3</title>
<g id="a_edge2_Node000002_Node000003"><a xlink:title=" ">
<path fill="none" stroke="#63b8ff" d="M77.71,-109.63C73.03,-89.21 64.47,-51.81 59.3,-29.24"/>
<polygon fill="#63b8ff" stroke="#63b8ff" points="62.65,-28.2 57,-19.23 55.82,-29.76 62.65,-28.2"/>
</a>
</g>
</g>
<!-- Node2&#45;&gt;Node4 -->
<g id="edge3_Node000002_Node000004" class="edge">
<title>Node2&#45;&gt;Node4</title>
<g id="a_edge3_Node000002_Node000004"><a xlink:title=" ">
<path fill="none" stroke="#63b8ff" d="M92.62,-109.84C99.45,-101.52 108.11,-90.96 115.27,-82.23"/>
<polygon fill="#63b8ff" stroke="#63b8ff" points="118.17,-84.22 121.81,-74.27 112.76,-79.78 118.17,-84.22"/>
</a>
</g>
</g>
<!-- Node4&#45;&gt;Node3 -->
<g id="edge4_Node000004_Node000003" class="edge">
<title>Node4&#45;&gt;Node3</title>
<g id="a_edge4_Node000004_Node000003"><a xlink:title=" ">
<path fill="none" stroke="#63b8ff" d="M117.11,-54.98C105.85,-46.92 88.72,-34.65 75.29,-25.03"/>
<polygon fill="#63b8ff" stroke="#63b8ff" points="77.28,-22.15 67.11,-19.17 73.2,-27.84 77.28,-22.15"/>
</a>
</g>
</g>
<!-- Node5 -->
<g id="Node000005" class="node">
<title>Node5</title>
<g id="a_Node000005"><a xlink:title=" ">
<polygon fill="#e0e0e0" stroke="#999999" points="155.5,-19 102.5,-19 102.5,0 155.5,0 155.5,-19"/>
<text text-anchor="middle" x="129" y="-7" font-family="Helvetica,sans-Serif" font-size="10.00">cstddef</text>
</a>
</g>
</g>
<!-- Node4&#45;&gt;Node5 -->
<g id="edge5_Node000004_Node000005" class="edge">
<title>Node4&#45;&gt;Node5</title>
<g id="a_edge5_Node000004_Node000005"><a xlink:title=" ">
<path fill="none" stroke="#63b8ff" d="M129,-54.75C129,-47.8 129,-37.85 129,-29.13"/>
<polygon fill="#63b8ff" stroke="#63b8ff" points="132.5,-29.09 129,-19.09 125.5,-29.09 132.5,-29.09"/>
</a>
</g>
</g>
</g>
</svg>
