<?xml version="1.0" encoding="UTF-8" standalone="no"?>
<!DOCTYPE svg PUBLIC "-//W3C//DTD SVG 1.1//EN"
 "http://www.w3.org/Graphics/SVG/1.1/DTD/svg11.dtd">
<!-- Generated by graphviz version 2.43.0 (0)
 -->
<!-- Title: src/montecarlo/integrators/MHintegrator.hpp Pages: 1 -->
<svg width="1834pt" height="346pt"
 viewBox="0.00 0.00 1834.11 346.00" xmlns="http://www.w3.org/2000/svg" xmlns:xlink="http://www.w3.org/1999/xlink">
<g id="graph0" class="graph" transform="scale(1 1) rotate(0) translate(4 342)">
<title>src/montecarlo/integrators/MHintegrator.hpp</title>
<!-- Node1 -->
<g id="Node000001" class="node">
<title>Node1</title>
<g id="a_Node000001"><a xlink:title="Metropolis&#45;Hastings MCMC Monte Carlo integration engine.">
<polygon fill="#999999" stroke="#666666" points="1421.11,-338 1275.11,-338 1275.11,-308 1421.11,-308 1421.11,-338"/>
<text text-anchor="start" x="1283.11" y="-326" font-family="Helvetica,sans-Serif" font-size="10.00">src/montecarlo/integrators</text>
<text text-anchor="middle" x="1348.11" y="-315" font-family="Helvetica,sans-Serif" font-size="10.00">/MHintegrator.hpp</text>
</a>
</g>
</g>
<!-- Node2 -->
<g id="Node000002" class="node">
<title>Node2</title>
<g id="a_Node000002"><a xlink:href="integrator_8hpp.html" target="_top" xlink:title="Abstract base class for numerical integration in N&#45;dimensional spaces.">
<polygon fill="white" stroke="#666666" points="569.61,-266.5 484.61,-266.5 484.61,-247.5 569.61,-247.5 569.61,-266.5"/>
<text text-anchor="middle" x="527.11" y="-254.5" font-family="Helvetica,sans-Serif" font-size="10.00">integrator.hpp</text>
</a>
</g>
</g>
<!-- Node1&#45;&gt;Node2 -->
<g id="edge1_Node000001_Node000002" class="edge">
<title>Node1&#45;&gt;Node2</title>
<g id="a_edge1_Node000001_Node000002"><a xlink:title=" ">
<path fill="none" stroke="#63b8ff" d="M1274.89,-316.29C1111.94,-303.59 722.52,-273.23 580.28,-262.15"/>
<polygon fill="#63b8ff" stroke="#63b8ff" points="580.32,-258.64 570.08,-261.35 579.78,-265.62 580.32,-258.64"/>
</a>
</g>
</g>
<!-- Node4 -->
<g id="Node000004" class="node">
<title>Node4</title>
<g id="a_Node000004"><a xlink:title=" ">
<polygon fill="#e0e0e0" stroke="#999999" points="780.61,-200.5 715.61,-200.5 715.61,-181.5 780.61,-181.5 780.61,-200.5"/>
<text text-anchor="middle" x="748.11" y="-188.5" font-family="Helvetica,sans-Serif" font-size="10.00">functional</text>
</a>
</g>
</g>
<!-- Node1&#45;&gt;Node4 -->
<g id="edge50_Node000001_Node000004" class="edge">
<title>Node1&#45;&gt;Node4</title>
<g id="a_edge50_Node000001_Node000004"><a xlink:title=" ">
<path fill="none" stroke="#63b8ff" d="M1274.93,-319.4C1191.44,-314.99 1051.42,-303.24 935.11,-272 874.64,-255.76 808.22,-223.63 773.1,-205.42"/>
<polygon fill="#63b8ff" stroke="#63b8ff" points="774.54,-202.22 764.06,-200.68 771.29,-208.42 774.54,-202.22"/>
</a>
</g>
</g>
<!-- Node8 -->
<g id="Node000008" class="node">
<title>Node8</title>
<g id="a_Node000008"><a xlink:href="integration__domain_8hpp.html" target="_top" xlink:title="Abstract interface for N&#45;dimensional integration domains.">
<polygon fill="white" stroke="#666666" points="528.11,-140 404.11,-140 404.11,-110 528.11,-110 528.11,-140"/>
<text text-anchor="start" x="412.11" y="-128" font-family="Helvetica,sans-Serif" font-size="10.00">../domains/integration</text>
<text text-anchor="middle" x="466.11" y="-117" font-family="Helvetica,sans-Serif" font-size="10.00">_domain.hpp</text>
</a>
</g>
</g>
<!-- Node1&#45;&gt;Node8 -->
<g id="edge27_Node000001_Node000008" class="edge">
<title>Node1&#45;&gt;Node8</title>
<g id="a_edge27_Node000001_Node000008"><a xlink:title=" ">
<path fill="none" stroke="#63b8ff" d="M1275.07,-320.84C1024.82,-316.08 213.37,-293.93 141.11,-206 29.82,-70.56 -207.4,-240.55 393.55,-140.21"/>
<polygon fill="#63b8ff" stroke="#63b8ff" points="394.53,-143.59 403.81,-138.48 393.37,-136.69 394.53,-143.59"/>
</a>
</g>
</g>
<!-- Node9 -->
<g id="Node000009" class="node">
<title>Node9</title>
<g id="a_Node000009"><a xlink:href="geometry_8hpp.html" target="_top" xlink:title="Core geometric types for Monte Carlo integration.">
<polygon fill="white" stroke="#666666" points="1144.11,-74 1052.11,-74 1052.11,-55 1144.11,-55 1144.11,-74"/>
<text text-anchor="middle" x="1098.11" y="-62" font-family="Helvetica,sans-Serif" font-size="10.00">../geometry.hpp</text>
</a>
</g>
</g>
<!-- Node1&#45;&gt;Node9 -->
<g id="edge47_Node000001_Node000009" class="edge">
<title>Node1&#45;&gt;Node9</title>
<g id="a_edge47_Node000001_Node000009"><a xlink:title=" ">
<path fill="none" stroke="#63b8ff" d="M1359.21,-307.6C1365.84,-298.08 1373.62,-284.99 1377.11,-272 1380.57,-259.12 1379.16,-255.18 1377.11,-242 1367.11,-177.57 1366.97,-146.75 1313.11,-110 1266.13,-77.94 1200.87,-68.14 1154.61,-65.54"/>
<polygon fill="#63b8ff" stroke="#63b8ff" points="1154.6,-62.03 1144.45,-65.06 1154.28,-69.02 1154.6,-62.03"/>
</a>
</g>
</g>
<!-- Node10 -->
<g id="Node000010" class="node">
<title>Node10</title>
<g id="a_Node000010"><a xlink:title=" ">
<polygon fill="#e0e0e0" stroke="#999999" points="1461.61,-19 1408.61,-19 1408.61,0 1461.61,0 1461.61,-19"/>
<text text-anchor="middle" x="1435.11" y="-7" font-family="Helvetica,sans-Serif" font-size="10.00">cstddef</text>
</a>
</g>
</g>
<!-- Node1&#45;&gt;Node10 -->
<g id="edge48_Node000001_Node000010" class="edge">
<title>Node1&#45;&gt;Node10</title>
<g id="a_edge48_Node000001_Node000010"><a xlink:title=" ">
<path fill="none" stroke="#63b8ff" d="M1366.14,-307.72C1391.62,-285.79 1435.11,-241.15 1435.11,-192 1435.11,-192 1435.11,-192 1435.11,-124 1435.11,-90.61 1435.11,-51.69 1435.11,-29.19"/>
<polygon fill="#63b8ff" stroke="#63b8ff" points="1438.61,-29.04 1435.11,-19.04 1431.61,-29.04 1438.61,-29.04"/>
</a>
</g>
</g>
<!-- Node19 -->
<g id="Node000019" class="node">
<title>Node19</title>
<g id="a_Node000019"><a xlink:href="proposal_8hpp.html" target="_top" xlink:title="Abstract base for probability distributions used in importance sampling.">
<polygon fill="white" stroke="#666666" points="1368.61,-266.5 1229.61,-266.5 1229.61,-247.5 1368.61,-247.5 1368.61,-266.5"/>
<text text-anchor="middle" x="1299.11" y="-254.5" font-family="Helvetica,sans-Serif" font-size="10.00">../proposals/proposal.hpp</text>
</a>
</g>
</g>
<!-- Node1&#45;&gt;Node19 -->
<g id="edge28_Node000001_Node000019" class="edge">
<title>Node1&#45;&gt;Node19</title>
<g id="a_edge28_Node000001_Node000019"><a xlink:title=" ">
<path fill="none" stroke="#63b8ff" d="M1337.24,-307.8C1329.82,-298.11 1319.97,-285.24 1312.13,-275.01"/>
<polygon fill="#63b8ff" stroke="#63b8ff" points="1314.74,-272.66 1305.88,-266.84 1309.18,-276.91 1314.74,-272.66"/>
</a>
</g>
</g>
<!-- Node20 -->
<g id="Node000020" class="node">
<title>Node20</title>
<g id="a_Node000020"><a xlink:href="metropolisHastingsSampler_8hpp.html" target="_top" xlink:title="Metropolis&#45;Hastings MCMC sampling engine.">
<polygon fill="white" stroke="#666666" points="1098.11,-272 944.11,-272 944.11,-242 1098.11,-242 1098.11,-272"/>
<text text-anchor="start" x="952.11" y="-260" font-family="Helvetica,sans-Serif" font-size="10.00">../mcmc/metropolisHastings</text>
<text text-anchor="middle" x="1021.11" y="-249" font-family="Helvetica,sans-Serif" font-size="10.00">Sampler.hpp</text>
</a>
</g>
</g>
<!-- Node1&#45;&gt;Node20 -->
<g id="edge31_Node000001_Node000020" class="edge">
<title>Node1&#45;&gt;Node20</title>
<g id="a_edge31_Node000001_Node000020"><a xlink:title=" ">
<path fill="none" stroke="#63b8ff" d="M1276.35,-307.95C1225.13,-297.93 1156.15,-284.43 1102.81,-273.99"/>
<polygon fill="#63b8ff" stroke="#63b8ff" points="1103.19,-270.5 1092.71,-272.01 1101.85,-277.37 1103.19,-270.5"/>
</a>
</g>
</g>
<!-- Node22 -->
<g id="Node000022" class="node">
<title>Node22</title>
<g id="a_Node000022"><a xlink:href="VolumeEstimatorMC_8hpp.html" target="_top" xlink:title="Hit&#45;or&#45;Miss Monte Carlo volume estimation.">
<polygon fill="white" stroke="#666666" points="1628.61,-206 1463.61,-206 1463.61,-176 1628.61,-176 1628.61,-206"/>
<text text-anchor="start" x="1471.61" y="-194" font-family="Helvetica,sans-Serif" font-size="10.00">../estimators/VolumeEstimator</text>
<text text-anchor="middle" x="1546.11" y="-183" font-family="Helvetica,sans-Serif" font-size="10.00">MC.hpp</text>
</a>
</g>
</g>
<!-- Node1&#45;&gt;Node22 -->
<g id="edge39_Node000001_Node000022" class="edge">
<title>Node1&#45;&gt;Node22</title>
<g id="a_edge39_Node000001_Node000022"><a xlink:title=" ">
<path fill="none" stroke="#63b8ff" d="M1381.45,-307.84C1401.65,-298.7 1427.6,-285.93 1449.11,-272 1476.37,-254.35 1504.7,-230.2 1523.65,-213.07"/>
<polygon fill="#63b8ff" stroke="#63b8ff" points="1526.15,-215.52 1531.17,-206.19 1521.43,-210.36 1526.15,-215.52"/>
</a>
</g>
</g>
<!-- Node23 -->
<g id="Node000023" class="node">
<title>Node23</title>
<g id="a_Node000023"><a xlink:title=" ">
<polygon fill="#e0e0e0" stroke="#999999" points="1826.11,-134.5 1776.11,-134.5 1776.11,-115.5 1826.11,-115.5 1826.11,-134.5"/>
<text text-anchor="middle" x="1801.11" y="-122.5" font-family="Helvetica,sans-Serif" font-size="10.00">cstdint</text>
</a>
</g>
</g>
<!-- Node1&#45;&gt;Node23 -->
<g id="edge49_Node000001_Node000023" class="edge">
<title>Node1&#45;&gt;Node23</title>
<g id="a_edge49_Node000001_Node000023"><a xlink:title=" ">
<path fill="none" stroke="#63b8ff" d="M1387.59,-307.97C1414.62,-298.22 1451.19,-284.74 1483.11,-272 1552.27,-244.39 1569.4,-237 1637.11,-206 1686.19,-183.53 1742.58,-155.54 1774.81,-139.32"/>
<polygon fill="#63b8ff" stroke="#63b8ff" points="1776.65,-142.31 1784.01,-134.69 1773.5,-136.06 1776.65,-142.31"/>
</a>
</g>
</g>
<!-- Node26 -->
<g id="Node000026" class="node">
<title>Node26</title>
<g id="a_Node000026"><a xlink:href="MHintegrator_8tpp.html" target="_top" xlink:title=" ">
<polygon fill="white" stroke="#666666" points="1784.61,-266.5 1685.61,-266.5 1685.61,-247.5 1784.61,-247.5 1784.61,-266.5"/>
<text text-anchor="middle" x="1735.11" y="-254.5" font-family="Helvetica,sans-Serif" font-size="10.00">MHintegrator.tpp</text>
</a>
</g>
</g>
<!-- Node1&#45;&gt;Node26 -->
<g id="edge51_Node000001_Node000026" class="edge">
<title>Node1&#45;&gt;Node26</title>
<g id="a_edge51_Node000001_Node000026"><a xlink:title=" ">
<path fill="none" stroke="#63b8ff" d="M1421.13,-312.01C1486.74,-302.72 1585.63,-287.95 1671.11,-272 1676.56,-270.98 1682.26,-269.85 1687.91,-268.67"/>
<polygon fill="#63b8ff" stroke="#63b8ff" points="1688.91,-272.04 1697.96,-266.53 1687.45,-265.19 1688.91,-272.04"/>
</a>
</g>
</g>
<!-- Node3 -->
<g id="Node000003" class="node">
<title>Node3</title>
<g id="a_Node000003"><a xlink:title=" ">
<polygon fill="#e0e0e0" stroke="#999999" points="1105.11,-200.5 1051.11,-200.5 1051.11,-181.5 1105.11,-181.5 1105.11,-200.5"/>
<text text-anchor="middle" x="1078.11" y="-188.5" font-family="Helvetica,sans-Serif" font-size="10.00">random</text>
</a>
</g>
</g>
<!-- Node2&#45;&gt;Node3 -->
<g id="edge2_Node000002_Node000003" class="edge">
<title>Node2&#45;&gt;Node3</title>
<g id="a_edge2_Node000002_Node000003"><a xlink:title=" ">
<path fill="none" stroke="#63b8ff" d="M569.81,-255.78C658.87,-254.47 870.4,-246.9 1042.11,-206 1044.48,-205.44 1046.9,-204.75 1049.31,-203.99"/>
<polygon fill="#63b8ff" stroke="#63b8ff" points="1050.74,-207.2 1058.99,-200.55 1048.4,-200.6 1050.74,-207.2"/>
</a>
</g>
</g>
<!-- Node2&#45;&gt;Node4 -->
<g id="edge3_Node000002_Node000004" class="edge">
<title>Node2&#45;&gt;Node4</title>
<g id="a_edge3_Node000002_Node000004"><a xlink:title=" ">
<path fill="none" stroke="#63b8ff" d="M559.59,-247.45C595.56,-237.85 655.2,-221.58 706.11,-206 708.41,-205.3 710.76,-204.56 713.14,-203.8"/>
<polygon fill="#63b8ff" stroke="#63b8ff" points="714.43,-207.06 722.86,-200.64 712.26,-200.41 714.43,-207.06"/>
</a>
</g>
</g>
<!-- Node5 -->
<g id="Node000005" class="node">
<title>Node5</title>
<g id="a_Node000005"><a xlink:title=" ">
<polygon fill="#e0e0e0" stroke="#999999" points="764.11,-19 722.11,-19 722.11,0 764.11,0 764.11,-19"/>
<text text-anchor="middle" x="743.11" y="-7" font-family="Helvetica,sans-Serif" font-size="10.00">array</text>
</a>
</g>
</g>
<!-- Node2&#45;&gt;Node5 -->
<g id="edge4_Node000002_Node000005" class="edge">
<title>Node2&#45;&gt;Node5</title>
<g id="a_edge4_Node000002_Node000005"><a xlink:title=" ">
<path fill="none" stroke="#63b8ff" d="M484.42,-253.6C388.7,-247.78 163.53,-231.51 141.11,-206 132.31,-195.98 133.97,-187.26 141.11,-176 204.44,-76.13 597.2,-26.27 711.77,-13.73"/>
<polygon fill="#63b8ff" stroke="#63b8ff" points="712.4,-17.18 721.97,-12.63 711.65,-10.22 712.4,-17.18"/>
</a>
</g>
</g>
<!-- Node6 -->
<g id="Node000006" class="node">
<title>Node6</title>
<g id="a_Node000006"><a xlink:title=" ">
<polygon fill="#e0e0e0" stroke="#999999" points="240.61,-200.5 185.61,-200.5 185.61,-181.5 240.61,-181.5 240.61,-200.5"/>
<text text-anchor="middle" x="213.11" y="-188.5" font-family="Helvetica,sans-Serif" font-size="10.00">fstream</text>
</a>
</g>
</g>
<!-- Node2&#45;&gt;Node6 -->
<g id="edge5_Node000002_Node000006" class="edge">
<title>Node2&#45;&gt;Node6</title>
<g id="a_edge5_Node000002_Node000006"><a xlink:title=" ">
<path fill="none" stroke="#63b8ff" d="M484.14,-250.89C429.02,-243.74 330.77,-228.99 249.11,-206 246.96,-205.39 244.76,-204.71 242.56,-203.98"/>
<polygon fill="#63b8ff" stroke="#63b8ff" points="243.65,-200.65 233.06,-200.55 241.28,-207.23 243.65,-200.65"/>
</a>
</g>
</g>
<!-- Node7 -->
<g id="Node000007" class="node">
<title>Node7</title>
<g id="a_Node000007"><a xlink:title=" ">
<polygon fill="#e0e0e0" stroke="#999999" points="305.61,-200.5 258.61,-200.5 258.61,-181.5 305.61,-181.5 305.61,-200.5"/>
<text text-anchor="middle" x="282.11" y="-188.5" font-family="Helvetica,sans-Serif" font-size="10.00">vector</text>
</a>
</g>
</g>
<!-- Node2&#45;&gt;Node7 -->
<g id="edge6_Node000002_Node000007" class="edge">
<title>Node2&#45;&gt;Node7</title>
<g id="a_edge6_Node000002_Node000007"><a xlink:title=" ">
<path fill="none" stroke="#63b8ff" d="M485.49,-247.44C443.42,-238.43 376.71,-223.2 320.11,-206 317.98,-205.35 315.79,-204.65 313.6,-203.92"/>
<polygon fill="#63b8ff" stroke="#63b8ff" points="314.66,-200.58 304.07,-200.58 312.35,-207.19 314.66,-200.58"/>
</a>
</g>
</g>
<!-- Node2&#45;&gt;Node8 -->
<g id="edge7_Node000002_Node000008" class="edge">
<title>Node2&#45;&gt;Node8</title>
<g id="a_edge7_Node000002_Node000008"><a xlink:title=" ">
<path fill="none" stroke="#63b8ff" d="M484.5,-256.56C399.92,-256.65 215.59,-251.5 176.11,-206 72.36,-86.42 -70.7,-222.6 393.77,-140.2"/>
<polygon fill="#63b8ff" stroke="#63b8ff" points="394.57,-143.61 403.79,-138.4 393.33,-136.72 394.57,-143.61"/>
</a>
</g>
</g>
<!-- Node11 -->
<g id="Node000011" class="node">
<title>Node11</title>
<g id="a_Node000011"><a xlink:href="hypersphere_8hpp.html" target="_top" xlink:title="N&#45;dimensional hypersphere (solid ball) domain.">
<polygon fill="white" stroke="#666666" points="514.11,-200.5 362.11,-200.5 362.11,-181.5 514.11,-181.5 514.11,-200.5"/>
<text text-anchor="middle" x="438.11" y="-188.5" font-family="Helvetica,sans-Serif" font-size="10.00">../domains/hypersphere.hpp</text>
</a>
</g>
</g>
<!-- Node2&#45;&gt;Node11 -->
<g id="edge12_Node000002_Node000011" class="edge">
<title>Node2&#45;&gt;Node11</title>
<g id="a_edge12_Node000002_Node000011"><a xlink:title=" ">
<path fill="none" stroke="#63b8ff" d="M515.11,-247.37C500.64,-236.97 476.11,-219.32 458.62,-206.75"/>
<polygon fill="#63b8ff" stroke="#63b8ff" points="460.37,-203.7 450.21,-200.7 456.28,-209.38 460.37,-203.7"/>
</a>
</g>
</g>
<!-- Node14 -->
<g id="Node000014" class="node">
<title>Node14</title>
<g id="a_Node000014"><a xlink:href="hypercylinder_8hpp.html" target="_top" xlink:title="N&#45;dimensional hypercylinder (infinite cylinder in discrete dimensions).">
<polygon fill="white" stroke="#666666" points="1033.11,-200.5 875.11,-200.5 875.11,-181.5 1033.11,-181.5 1033.11,-200.5"/>
<text text-anchor="middle" x="954.11" y="-188.5" font-family="Helvetica,sans-Serif" font-size="10.00">../domains/hypercylinder.hpp</text>
</a>
</g>
</g>
<!-- Node2&#45;&gt;Node14 -->
<g id="edge17_Node000002_Node000014" class="edge">
<title>Node2&#45;&gt;Node14</title>
<g id="a_edge17_Node000002_Node000014"><a xlink:title=" ">
<path fill="none" stroke="#63b8ff" d="M569.61,-249.63C644.06,-238.47 798.54,-215.32 887.37,-202"/>
<polygon fill="#63b8ff" stroke="#63b8ff" points="887.97,-205.45 897.34,-200.51 886.93,-198.53 887.97,-205.45"/>
</a>
</g>
</g>
<!-- Node17 -->
<g id="Node000017" class="node">
<title>Node17</title>
<g id="a_Node000017"><a xlink:href="hyperrectangle_8hpp.html" target="_top" xlink:title="Axis&#45;aligned hyperrectangular domain in N dimensions.">
<polygon fill="white" stroke="#666666" points="697.61,-200.5 532.61,-200.5 532.61,-181.5 697.61,-181.5 697.61,-200.5"/>
<text text-anchor="middle" x="615.11" y="-188.5" font-family="Helvetica,sans-Serif" font-size="10.00">../domains/hyperrectangle.hpp</text>
</a>
</g>
</g>
<!-- Node2&#45;&gt;Node17 -->
<g id="edge22_Node000002_Node000017" class="edge">
<title>Node2&#45;&gt;Node17</title>
<g id="a_edge22_Node000002_Node000017"><a xlink:title=" ">
<path fill="none" stroke="#63b8ff" d="M538.98,-247.37C553.28,-236.97 577.54,-219.32 594.83,-206.75"/>
<polygon fill="#63b8ff" stroke="#63b8ff" points="597.12,-209.41 603.15,-200.7 593,-203.75 597.12,-209.41"/>
</a>
</g>
</g>
<!-- Node8&#45;&gt;Node5 -->
<g id="edge8_Node000008_Node000005" class="edge">
<title>Node8&#45;&gt;Node5</title>
<g id="a_edge8_Node000008_Node000005"><a xlink:title=" ">
<path fill="none" stroke="#63b8ff" d="M500.35,-109.97C554.88,-87.63 660.59,-44.31 712.65,-22.98"/>
<polygon fill="#63b8ff" stroke="#63b8ff" points="714.09,-26.17 722.01,-19.14 711.43,-19.7 714.09,-26.17"/>
</a>
</g>
</g>
<!-- Node8&#45;&gt;Node9 -->
<g id="edge9_Node000008_Node000009" class="edge">
<title>Node8&#45;&gt;Node9</title>
<g id="a_edge9_Node000008_Node000009"><a xlink:title=" ">
<path fill="none" stroke="#63b8ff" d="M528.24,-112.02C532.93,-111.28 537.59,-110.6 542.11,-110 723.85,-86.05 940.83,-73.19 1041.56,-68.11"/>
<polygon fill="#63b8ff" stroke="#63b8ff" points="1042,-71.59 1051.81,-67.6 1041.65,-64.6 1042,-71.59"/>
</a>
</g>
</g>
<!-- Node9&#45;&gt;Node5 -->
<g id="edge10_Node000009_Node000005" class="edge">
<title>Node9&#45;&gt;Node5</title>
<g id="a_edge10_Node000009_Node000005"><a xlink:title=" ">
<path fill="none" stroke="#63b8ff" d="M1052.06,-56.63C978.64,-45.66 836.95,-24.51 774.26,-15.15"/>
<polygon fill="#63b8ff" stroke="#63b8ff" points="774.61,-11.66 764.2,-13.65 773.57,-18.59 774.61,-11.66"/>
</a>
</g>
</g>
<!-- Node9&#45;&gt;Node10 -->
<g id="edge11_Node000009_Node000010" class="edge">
<title>Node9&#45;&gt;Node10</title>
<g id="a_edge11_Node000009_Node000010"><a xlink:title=" ">
<path fill="none" stroke="#63b8ff" d="M1144.26,-56.24C1211.91,-45.6 1336.65,-25.98 1398.45,-16.27"/>
<polygon fill="#63b8ff" stroke="#63b8ff" points="1399.18,-19.69 1408.51,-14.68 1398.09,-12.78 1399.18,-19.69"/>
</a>
</g>
</g>
<!-- Node11&#45;&gt;Node8 -->
<g id="edge13_Node000011_Node000008" class="edge">
<title>Node11&#45;&gt;Node8</title>
<g id="a_edge13_Node000011_Node000008"><a xlink:title=" ">
<path fill="none" stroke="#63b8ff" d="M441.89,-181.37C445.44,-173.24 450.93,-160.69 455.79,-149.59"/>
<polygon fill="#63b8ff" stroke="#63b8ff" points="459.03,-150.92 459.83,-140.36 452.61,-148.12 459.03,-150.92"/>
</a>
</g>
</g>
<!-- Node11&#45;&gt;Node9 -->
<g id="edge15_Node000011_Node000009" class="edge">
<title>Node11&#45;&gt;Node9</title>
<g id="a_edge15_Node000011_Node000009"><a xlink:title=" ">
<path fill="none" stroke="#63b8ff" d="M458.1,-181.34C478.56,-172.15 510.98,-156.68 537.11,-140 555.25,-128.42 555.1,-117.91 575.11,-110 658.81,-76.9 924.74,-68.39 1041.84,-66.22"/>
<polygon fill="#63b8ff" stroke="#63b8ff" points="1042.09,-69.72 1052.02,-66.04 1041.96,-62.72 1042.09,-69.72"/>
</a>
</g>
</g>
<!-- Node12 -->
<g id="Node000012" class="node">
<title>Node12</title>
<g id="a_Node000012"><a xlink:title=" ">
<polygon fill="#e0e0e0" stroke="#999999" points="795.61,-134.5 750.61,-134.5 750.61,-115.5 795.61,-115.5 795.61,-134.5"/>
<text text-anchor="middle" x="773.11" y="-122.5" font-family="Helvetica,sans-Serif" font-size="10.00">utility</text>
</a>
</g>
</g>
<!-- Node11&#45;&gt;Node12 -->
<g id="edge14_Node000011_Node000012" class="edge">
<title>Node11&#45;&gt;Node12</title>
<g id="a_edge14_Node000011_Node000012"><a xlink:title=" ">
<path fill="none" stroke="#63b8ff" d="M483.92,-181.43C536.58,-171.56 625.62,-154.78 702.11,-140 714.61,-137.58 728.34,-134.89 740.36,-132.51"/>
<polygon fill="#63b8ff" stroke="#63b8ff" points="741.29,-135.9 750.42,-130.52 739.93,-129.03 741.29,-135.9"/>
</a>
</g>
</g>
<!-- Node13 -->
<g id="Node000013" class="node">
<title>Node13</title>
<g id="a_Node000013"><a xlink:href="hypersphere_8tpp.html" target="_top" xlink:title=" ">
<polygon fill="white" stroke="#666666" points="386.11,-134.5 290.11,-134.5 290.11,-115.5 386.11,-115.5 386.11,-134.5"/>
<text text-anchor="middle" x="338.11" y="-122.5" font-family="Helvetica,sans-Serif" font-size="10.00">hypersphere.tpp</text>
</a>
</g>
</g>
<!-- Node11&#45;&gt;Node13 -->
<g id="edge16_Node000011_Node000013" class="edge">
<title>Node11&#45;&gt;Node13</title>
<g id="a_edge16_Node000011_Node000013"><a xlink:title=" ">
<path fill="none" stroke="#63b8ff" d="M424.62,-181.37C408.15,-170.82 380.04,-152.84 360.35,-140.23"/>
<polygon fill="#63b8ff" stroke="#63b8ff" points="362.01,-137.14 351.7,-134.7 358.24,-143.04 362.01,-137.14"/>
</a>
</g>
</g>
<!-- Node14&#45;&gt;Node8 -->
<g id="edge18_Node000014_Node000008" class="edge">
<title>Node14&#45;&gt;Node8</title>
<g id="a_edge18_Node000014_Node000008"><a xlink:title=" ">
<path fill="none" stroke="#63b8ff" d="M889.06,-181.47C798.05,-169.53 633.26,-147.92 538.48,-135.49"/>
<polygon fill="#63b8ff" stroke="#63b8ff" points="538.78,-132 528.41,-134.17 537.87,-138.94 538.78,-132"/>
</a>
</g>
</g>
<!-- Node14&#45;&gt;Node9 -->
<g id="edge19_Node000014_Node000009" class="edge">
<title>Node14&#45;&gt;Node9</title>
<g id="a_edge19_Node000014_Node000009"><a xlink:title=" ">
<path fill="none" stroke="#63b8ff" d="M964.6,-181.2C976.43,-171.25 996.23,-154.55 1013.11,-140 1036.61,-119.74 1063.51,-96.09 1080.64,-80.96"/>
<polygon fill="#63b8ff" stroke="#63b8ff" points="1083.04,-83.52 1088.21,-74.27 1078.4,-78.27 1083.04,-83.52"/>
</a>
</g>
</g>
<!-- Node15 -->
<g id="Node000015" class="node">
<title>Node15</title>
<g id="a_Node000015"><a xlink:title=" ">
<polygon fill="#e0e0e0" stroke="#999999" points="1269.61,-134.5 1222.61,-134.5 1222.61,-115.5 1269.61,-115.5 1269.61,-134.5"/>
<text text-anchor="middle" x="1246.11" y="-122.5" font-family="Helvetica,sans-Serif" font-size="10.00">cmath</text>
</a>
</g>
</g>
<!-- Node14&#45;&gt;Node15 -->
<g id="edge20_Node000014_Node000015" class="edge">
<title>Node14&#45;&gt;Node15</title>
<g id="a_edge20_Node000014_Node000015"><a xlink:title=" ">
<path fill="none" stroke="#63b8ff" d="M993.19,-181.44C1051,-168.76 1158.33,-145.24 1212.7,-133.32"/>
<polygon fill="#63b8ff" stroke="#63b8ff" points="1213.5,-136.73 1222.52,-131.17 1212.01,-129.89 1213.5,-136.73"/>
</a>
</g>
</g>
<!-- Node16 -->
<g id="Node000016" class="node">
<title>Node16</title>
<g id="a_Node000016"><a xlink:href="hypercylinder_8tpp.html" target="_top" xlink:title=" ">
<polygon fill="white" stroke="#666666" points="1004.61,-134.5 903.61,-134.5 903.61,-115.5 1004.61,-115.5 1004.61,-134.5"/>
<text text-anchor="middle" x="954.11" y="-122.5" font-family="Helvetica,sans-Serif" font-size="10.00">hypercylinder.tpp</text>
</a>
</g>
</g>
<!-- Node14&#45;&gt;Node16 -->
<g id="edge21_Node000014_Node000016" class="edge">
<title>Node14&#45;&gt;Node16</title>
<g id="a_edge21_Node000014_Node000016"><a xlink:title=" ">
<path fill="none" stroke="#63b8ff" d="M954.11,-181.37C954.11,-172.16 954.11,-157.29 954.11,-145.27"/>
<polygon fill="#63b8ff" stroke="#63b8ff" points="957.61,-144.91 954.11,-134.91 950.61,-144.91 957.61,-144.91"/>
</a>
</g>
</g>
<!-- Node17&#45;&gt;Node8 -->
<g id="edge23_Node000017_Node000008" class="edge">
<title>Node17&#45;&gt;Node8</title>
<g id="a_edge23_Node000017_Node000008"><a xlink:title=" ">
<path fill="none" stroke="#63b8ff" d="M595.02,-181.37C572.89,-171.87 536.69,-156.32 508.28,-144.11"/>
<polygon fill="#63b8ff" stroke="#63b8ff" points="509.54,-140.85 498.97,-140.12 506.78,-147.28 509.54,-140.85"/>
</a>
</g>
</g>
<!-- Node17&#45;&gt;Node9 -->
<g id="edge25_Node000017_Node000009" class="edge">
<title>Node17&#45;&gt;Node9</title>
<g id="a_edge25_Node000017_Node000009"><a xlink:title=" ">
<path fill="none" stroke="#63b8ff" d="M631.54,-181.42C649.33,-171.92 678.35,-155.86 702.11,-140 720.3,-127.86 720.88,-118.31 741.11,-110 794.27,-88.16 955.47,-74.72 1041.92,-68.9"/>
<polygon fill="#63b8ff" stroke="#63b8ff" points="1042.33,-72.38 1052.08,-68.22 1041.87,-65.39 1042.33,-72.38"/>
</a>
</g>
</g>
<!-- Node17&#45;&gt;Node12 -->
<g id="edge24_Node000017_Node000012" class="edge">
<title>Node17&#45;&gt;Node12</title>
<g id="a_edge24_Node000017_Node000012"><a xlink:title=" ">
<path fill="none" stroke="#63b8ff" d="M636.42,-181.37C663.71,-170.32 711.18,-151.08 742.38,-138.45"/>
<polygon fill="#63b8ff" stroke="#63b8ff" points="743.93,-141.59 751.89,-134.6 741.31,-135.11 743.93,-141.59"/>
</a>
</g>
</g>
<!-- Node18 -->
<g id="Node000018" class="node">
<title>Node18</title>
<g id="a_Node000018"><a xlink:href="hyperrectangle_8tpp.html" target="_top" xlink:title=" ">
<polygon fill="white" stroke="#666666" points="693.61,-134.5 584.61,-134.5 584.61,-115.5 693.61,-115.5 693.61,-134.5"/>
<text text-anchor="middle" x="639.11" y="-122.5" font-family="Helvetica,sans-Serif" font-size="10.00">hyperrectangle.tpp</text>
</a>
</g>
</g>
<!-- Node17&#45;&gt;Node18 -->
<g id="edge26_Node000017_Node000018" class="edge">
<title>Node17&#45;&gt;Node18</title>
<g id="a_edge26_Node000017_Node000018"><a xlink:title=" ">
<path fill="none" stroke="#63b8ff" d="M618.35,-181.37C621.87,-171.97 627.61,-156.67 632.16,-144.53"/>
<polygon fill="#63b8ff" stroke="#63b8ff" points="635.54,-145.5 635.77,-134.91 628.98,-143.04 635.54,-145.5"/>
</a>
</g>
</g>
<!-- Node19&#45;&gt;Node3 -->
<g id="edge29_Node000019_Node000003" class="edge">
<title>Node19&#45;&gt;Node3</title>
<g id="a_edge29_Node000019_Node000003"><a xlink:title=" ">
<path fill="none" stroke="#63b8ff" d="M1269.31,-247.37C1229.38,-235.81 1158.57,-215.3 1115.23,-202.75"/>
<polygon fill="#63b8ff" stroke="#63b8ff" points="1115.94,-199.31 1105.37,-199.89 1114,-206.04 1115.94,-199.31"/>
</a>
</g>
</g>
<!-- Node19&#45;&gt;Node9 -->
<g id="edge30_Node000019_Node000009" class="edge">
<title>Node19&#45;&gt;Node9</title>
<g id="a_edge30_Node000019_Node000009"><a xlink:title=" ">
<path fill="none" stroke="#63b8ff" d="M1309.53,-247.31C1319.56,-238.22 1334.06,-222.91 1340.11,-206 1344.6,-193.45 1345.02,-188.4 1340.11,-176 1325.29,-138.58 1312.85,-130.33 1278.11,-110 1240.27,-87.86 1191.75,-76.68 1154.62,-71.07"/>
<polygon fill="#63b8ff" stroke="#63b8ff" points="1154.86,-67.57 1144.47,-69.63 1153.88,-74.5 1154.86,-67.57"/>
</a>
</g>
</g>
<!-- Node20&#45;&gt;Node3 -->
<g id="edge35_Node000020_Node000003" class="edge">
<title>Node20&#45;&gt;Node3</title>
<g id="a_edge35_Node000020_Node000003"><a xlink:title=" ">
<path fill="none" stroke="#63b8ff" d="M1033.76,-241.8C1042.56,-231.92 1054.31,-218.72 1063.51,-208.39"/>
<polygon fill="#63b8ff" stroke="#63b8ff" points="1066.2,-210.64 1070.23,-200.84 1060.97,-205.98 1066.2,-210.64"/>
</a>
</g>
</g>
<!-- Node20&#45;&gt;Node4 -->
<g id="edge37_Node000020_Node000004" class="edge">
<title>Node20&#45;&gt;Node4</title>
<g id="a_edge37_Node000020_Node000004"><a xlink:title=" ">
<path fill="none" stroke="#63b8ff" d="M951.57,-241.96C906.71,-232.58 847.24,-219.51 795.11,-206 791.98,-205.19 788.74,-204.31 785.5,-203.4"/>
<polygon fill="#63b8ff" stroke="#63b8ff" points="786.43,-200.03 775.85,-200.62 784.49,-206.75 786.43,-200.03"/>
</a>
</g>
</g>
<!-- Node20&#45;&gt;Node5 -->
<g id="edge34_Node000020_Node000005" class="edge">
<title>Node20&#45;&gt;Node5</title>
<g id="a_edge34_Node000020_Node000005"><a xlink:title=" ">
<path fill="none" stroke="#63b8ff" d="M943.86,-242.37C917.26,-234.89 888.55,-223.44 866.11,-206 861.98,-202.79 782.89,-74.97 753.76,-27.78"/>
<polygon fill="#63b8ff" stroke="#63b8ff" points="756.73,-25.91 748.5,-19.24 750.77,-29.59 756.73,-25.91"/>
</a>
</g>
</g>
<!-- Node20&#45;&gt;Node8 -->
<g id="edge32_Node000020_Node000008" class="edge">
<title>Node20&#45;&gt;Node8</title>
<g id="a_edge32_Node000020_Node000008"><a xlink:title=" ">
<path fill="none" stroke="#63b8ff" d="M943.97,-253.01C772.46,-245.98 372.96,-227.39 353.11,-206 329.37,-180.42 368.91,-158.12 407.59,-143.61"/>
<polygon fill="#63b8ff" stroke="#63b8ff" points="409.14,-146.77 417.36,-140.09 406.77,-140.19 409.14,-146.77"/>
</a>
</g>
</g>
<!-- Node20&#45;&gt;Node9 -->
<g id="edge33_Node000020_Node000009" class="edge">
<title>Node20&#45;&gt;Node9</title>
<g id="a_edge33_Node000020_Node000009"><a xlink:title=" ">
<path fill="none" stroke="#63b8ff" d="M1069.21,-241.8C1086.48,-234.12 1104.14,-222.68 1114.11,-206 1137.23,-167.32 1118.97,-111.88 1106.79,-83.6"/>
<polygon fill="#63b8ff" stroke="#63b8ff" points="1109.83,-81.84 1102.51,-74.18 1103.46,-84.73 1109.83,-81.84"/>
</a>
</g>
</g>
<!-- Node20&#45;&gt;Node12 -->
<g id="edge36_Node000020_Node000012" class="edge">
<title>Node20&#45;&gt;Node12</title>
<g id="a_edge36_Node000020_Node000012"><a xlink:title=" ">
<path fill="none" stroke="#63b8ff" d="M943.99,-247.33C907.95,-240.45 865.87,-228.1 833.11,-206 809.68,-190.19 791.78,-162.12 781.85,-143.79"/>
<polygon fill="#63b8ff" stroke="#63b8ff" points="784.88,-142.02 777.18,-134.75 778.66,-145.24 784.88,-142.02"/>
</a>
</g>
</g>
<!-- Node21 -->
<g id="Node000021" class="node">
<title>Node21</title>
<g id="a_Node000021"><a xlink:href="metropolisHastingsSampler_8tpp.html" target="_top" xlink:title=" ">
<polygon fill="white" stroke="#666666" points="1331.11,-200.5 1161.11,-200.5 1161.11,-181.5 1331.11,-181.5 1331.11,-200.5"/>
<text text-anchor="middle" x="1246.11" y="-188.5" font-family="Helvetica,sans-Serif" font-size="10.00">metropolisHastingsSampler.tpp</text>
</a>
</g>
</g>
<!-- Node20&#45;&gt;Node21 -->
<g id="edge38_Node000020_Node000021" class="edge">
<title>Node20&#45;&gt;Node21</title>
<g id="a_edge38_Node000020_Node000021"><a xlink:title=" ">
<path fill="none" stroke="#63b8ff" d="M1070.49,-241.95C1111.34,-230.34 1168.6,-214.05 1206.5,-203.27"/>
<polygon fill="#63b8ff" stroke="#63b8ff" points="1207.51,-206.62 1216.17,-200.52 1205.59,-199.89 1207.51,-206.62"/>
</a>
</g>
</g>
<!-- Node22&#45;&gt;Node8 -->
<g id="edge44_Node000022_Node000008" class="edge">
<title>Node22&#45;&gt;Node8</title>
<g id="a_edge44_Node000022_Node000008"><a xlink:title=" ">
<path fill="none" stroke="#63b8ff" d="M1463.44,-183.99C1425.82,-181.35 1380.73,-178.34 1340.11,-176 1000.3,-156.46 914.19,-169.71 575.11,-140 563.23,-138.96 550.66,-137.59 538.43,-136.12"/>
<polygon fill="#63b8ff" stroke="#63b8ff" points="538.62,-132.62 528.27,-134.86 537.77,-139.56 538.62,-132.62"/>
</a>
</g>
</g>
<!-- Node22&#45;&gt;Node9 -->
<g id="edge45_Node000022_Node000009" class="edge">
<title>Node22&#45;&gt;Node9</title>
<g id="a_edge45_Node000022_Node000009"><a xlink:title=" ">
<path fill="none" stroke="#63b8ff" d="M1527.63,-175.79C1502.66,-157.39 1456.09,-125.81 1411.11,-110 1324.91,-79.69 1218.45,-69.98 1154.54,-66.9"/>
<polygon fill="#63b8ff" stroke="#63b8ff" points="1154.42,-63.39 1144.27,-66.44 1154.11,-70.38 1154.42,-63.39"/>
</a>
</g>
</g>
<!-- Node22&#45;&gt;Node10 -->
<g id="edge40_Node000022_Node000010" class="edge">
<title>Node22&#45;&gt;Node10</title>
<g id="a_edge40_Node000022_Node000010"><a xlink:title=" ">
<path fill="none" stroke="#63b8ff" d="M1537.4,-175.91C1517.31,-143.43 1467.79,-63.34 1445.86,-27.88"/>
<polygon fill="#63b8ff" stroke="#63b8ff" points="1448.69,-25.8 1440.45,-19.13 1442.73,-29.48 1448.69,-25.8"/>
</a>
</g>
</g>
<!-- Node22&#45;&gt;Node15 -->
<g id="edge42_Node000022_Node000015" class="edge">
<title>Node22&#45;&gt;Node15</title>
<g id="a_edge42_Node000022_Node000015"><a xlink:title=" ">
<path fill="none" stroke="#63b8ff" d="M1480.27,-175.95C1418.41,-162.76 1328.3,-143.53 1279.89,-133.21"/>
<polygon fill="#63b8ff" stroke="#63b8ff" points="1280.44,-129.74 1269.93,-131.08 1278.98,-136.59 1280.44,-129.74"/>
</a>
</g>
</g>
<!-- Node22&#45;&gt;Node23 -->
<g id="edge41_Node000022_Node000023" class="edge">
<title>Node22&#45;&gt;Node23</title>
<g id="a_edge41_Node000022_Node000023"><a xlink:title=" ">
<path fill="none" stroke="#63b8ff" d="M1621.22,-175.98C1664.1,-167.22 1718.62,-154.79 1766.11,-140 1767.99,-139.42 1769.9,-138.78 1771.82,-138.1"/>
<polygon fill="#63b8ff" stroke="#63b8ff" points="1773.18,-141.33 1781.32,-134.54 1770.72,-134.78 1773.18,-141.33"/>
</a>
</g>
</g>
<!-- Node24 -->
<g id="Node000024" class="node">
<title>Node24</title>
<g id="a_Node000024"><a xlink:title=" ">
<polygon fill="#e0e0e0" stroke="#999999" points="1604.61,-134.5 1539.61,-134.5 1539.61,-115.5 1604.61,-115.5 1604.61,-134.5"/>
<text text-anchor="middle" x="1572.11" y="-122.5" font-family="Helvetica,sans-Serif" font-size="10.00">stdexcept</text>
</a>
</g>
</g>
<!-- Node22&#45;&gt;Node24 -->
<g id="edge43_Node000022_Node000024" class="edge">
<title>Node22&#45;&gt;Node24</title>
<g id="a_edge43_Node000022_Node000024"><a xlink:title=" ">
<path fill="none" stroke="#63b8ff" d="M1551.88,-175.8C1555.66,-166.5 1560.62,-154.27 1564.69,-144.26"/>
<polygon fill="#63b8ff" stroke="#63b8ff" points="1568,-145.43 1568.52,-134.84 1561.51,-142.79 1568,-145.43"/>
</a>
</g>
</g>
<!-- Node25 -->
<g id="Node000025" class="node">
<title>Node25</title>
<g id="a_Node000025"><a xlink:href="VolumeEstimatorMC_8tpp.html" target="_top" xlink:title=" ">
<polygon fill="white" stroke="#666666" points="1757.61,-134.5 1622.61,-134.5 1622.61,-115.5 1757.61,-115.5 1757.61,-134.5"/>
<text text-anchor="middle" x="1690.11" y="-122.5" font-family="Helvetica,sans-Serif" font-size="10.00">VolumeEstimatorMC.tpp</text>
</a>
</g>
</g>
<!-- Node22&#45;&gt;Node25 -->
<g id="edge46_Node000022_Node000025" class="edge">
<title>Node22&#45;&gt;Node25</title>
<g id="a_edge46_Node000022_Node000025"><a xlink:title=" ">
<path fill="none" stroke="#63b8ff" d="M1577.71,-175.95C1602.74,-164.83 1637.41,-149.42 1661.6,-138.67"/>
<polygon fill="#63b8ff" stroke="#63b8ff" points="1663.23,-141.78 1670.95,-134.52 1660.39,-135.38 1663.23,-141.78"/>
</a>
</g>
</g>
</g>
</svg>
