<?xml version="1.0" encoding="UTF-8" standalone="no"?>
<!DOCTYPE svg PUBLIC "-//W3C//DTD SVG 1.1//EN"
 "http://www.w3.org/Graphics/SVG/1.1/DTD/svg11.dtd">
<!-- Generated by graphviz version 2.43.0 (0)
 -->
<!-- Title: src/montecarlo/proposals/mixtureProposal.hpp Pages: 1 -->
<svg width="566pt" height="203pt"
 viewBox="0.00 0.00 566.00 203.00" xmlns="http://www.w3.org/2000/svg" xmlns:xlink="http://www.w3.org/1999/xlink">
<g id="graph0" class="graph" transform="scale(1 1) rotate(0) translate(4 199)">
<title>src/montecarlo/proposals/mixtureProposal.hpp</title>
<!-- Node1 -->
<g id="Node000001" class="node">
<title>Node1</title>
<g id="a_Node000001"><a xlink:title="Mixture proposal distribution for importance sampling (non&#45;owning raw pointers).">
<polygon fill="#999999" stroke="#666666" points="321,-195 181,-195 181,-165 321,-165 321,-195"/>
<text text-anchor="start" x="189" y="-183" font-family="Helvetica,sans-Serif" font-size="10.00">src/montecarlo/proposals</text>
<text text-anchor="middle" x="251" y="-172" font-family="Helvetica,sans-Serif" font-size="10.00">/mixtureProposal.hpp</text>
</a>
</g>
</g>
<!-- Node2 -->
<g id="Node000002" class="node">
<title>Node2</title>
<g id="a_Node000002"><a xlink:href="proposal_8hpp.html" target="_top" xlink:title="Abstract base for probability distributions used in importance sampling.">
<polygon fill="white" stroke="#666666" points="135,-129 55,-129 55,-110 135,-110 135,-129"/>
<text text-anchor="middle" x="95" y="-117" font-family="Helvetica,sans-Serif" font-size="10.00">proposal.hpp</text>
</a>
</g>
</g>
<!-- Node1&#45;&gt;Node2 -->
<g id="edge1_Node000001_Node000002" class="edge">
<title>Node1&#45;&gt;Node2</title>
<g id="a_edge1_Node000001_Node000002"><a xlink:title=" ">
<path fill="none" stroke="#63b8ff" d="M213.63,-164.99C187.37,-155.14 152.59,-142.1 127.48,-132.68"/>
<polygon fill="#63b8ff" stroke="#63b8ff" points="128.63,-129.37 118.04,-129.14 126.17,-135.93 128.63,-129.37"/>
</a>
</g>
</g>
<!-- Node3 -->
<g id="Node000003" class="node">
<title>Node3</title>
<g id="a_Node000003"><a xlink:title=" ">
<polygon fill="#e0e0e0" stroke="#999999" points="54,-74 0,-74 0,-55 54,-55 54,-74"/>
<text text-anchor="middle" x="27" y="-62" font-family="Helvetica,sans-Serif" font-size="10.00">random</text>
</a>
</g>
</g>
<!-- Node1&#45;&gt;Node3 -->
<g id="edge7_Node000001_Node000003" class="edge">
<title>Node1&#45;&gt;Node3</title>
<g id="a_edge7_Node000001_Node000003"><a xlink:title=" ">
<path fill="none" stroke="#63b8ff" d="M180.98,-169.48C129.56,-161.14 65.42,-147.45 46,-129 33.89,-117.49 29.4,-98.61 27.79,-84.43"/>
<polygon fill="#63b8ff" stroke="#63b8ff" points="31.27,-83.99 27.02,-74.28 24.29,-84.52 31.27,-83.99"/>
</a>
</g>
</g>
<!-- Node7 -->
<g id="Node000007" class="node">
<title>Node7</title>
<g id="a_Node000007"><a xlink:title=" ">
<polygon fill="#e0e0e0" stroke="#999999" points="200.5,-129 153.5,-129 153.5,-110 200.5,-110 200.5,-129"/>
<text text-anchor="middle" x="177" y="-117" font-family="Helvetica,sans-Serif" font-size="10.00">vector</text>
</a>
</g>
</g>
<!-- Node1&#45;&gt;Node7 -->
<g id="edge6_Node000001_Node000007" class="edge">
<title>Node1&#45;&gt;Node7</title>
<g id="a_edge6_Node000001_Node000007"><a xlink:title=" ">
<path fill="none" stroke="#63b8ff" d="M233.09,-164.84C221.91,-156 207.52,-144.63 196.12,-135.62"/>
<polygon fill="#63b8ff" stroke="#63b8ff" points="198.1,-132.72 188.09,-129.27 193.76,-138.21 198.1,-132.72"/>
</a>
</g>
</g>
<!-- Node8 -->
<g id="Node000008" class="node">
<title>Node8</title>
<g id="a_Node000008"><a xlink:title=" ">
<polygon fill="#e0e0e0" stroke="#999999" points="283.5,-129 218.5,-129 218.5,-110 283.5,-110 283.5,-129"/>
<text text-anchor="middle" x="251" y="-117" font-family="Helvetica,sans-Serif" font-size="10.00">stdexcept</text>
</a>
</g>
</g>
<!-- Node1&#45;&gt;Node8 -->
<g id="edge8_Node000001_Node000008" class="edge">
<title>Node1&#45;&gt;Node8</title>
<g id="a_edge8_Node000001_Node000008"><a xlink:title=" ">
<path fill="none" stroke="#63b8ff" d="M251,-164.84C251,-157.21 251,-147.7 251,-139.45"/>
<polygon fill="#63b8ff" stroke="#63b8ff" points="254.5,-139.27 251,-129.27 247.5,-139.27 254.5,-139.27"/>
</a>
</g>
</g>
<!-- Node9 -->
<g id="Node000009" class="node">
<title>Node9</title>
<g id="a_Node000009"><a xlink:title=" ">
<polygon fill="#e0e0e0" stroke="#999999" points="358,-129 302,-129 302,-110 358,-110 358,-129"/>
<text text-anchor="middle" x="330" y="-117" font-family="Helvetica,sans-Serif" font-size="10.00">numeric</text>
</a>
</g>
</g>
<!-- Node1&#45;&gt;Node9 -->
<g id="edge9_Node000001_Node000009" class="edge">
<title>Node1&#45;&gt;Node9</title>
<g id="a_edge9_Node000001_Node000009"><a xlink:title=" ">
<path fill="none" stroke="#63b8ff" d="M270.12,-164.84C282.18,-155.91 297.71,-144.41 309.94,-135.35"/>
<polygon fill="#63b8ff" stroke="#63b8ff" points="312.21,-138.03 318.16,-129.27 308.04,-132.4 312.21,-138.03"/>
</a>
</g>
</g>
<!-- Node10 -->
<g id="Node000010" class="node">
<title>Node10</title>
<g id="a_Node000010"><a xlink:title=" ">
<polygon fill="#e0e0e0" stroke="#999999" points="423.5,-129 376.5,-129 376.5,-110 423.5,-110 423.5,-129"/>
<text text-anchor="middle" x="400" y="-117" font-family="Helvetica,sans-Serif" font-size="10.00">cmath</text>
</a>
</g>
</g>
<!-- Node1&#45;&gt;Node10 -->
<g id="edge10_Node000001_Node000010" class="edge">
<title>Node1&#45;&gt;Node10</title>
<g id="a_edge10_Node000001_Node000010"><a xlink:title=" ">
<path fill="none" stroke="#63b8ff" d="M286.69,-164.99C311.66,-155.18 344.7,-142.21 368.66,-132.81"/>
<polygon fill="#63b8ff" stroke="#63b8ff" points="369.97,-136.05 378,-129.14 367.41,-129.54 369.97,-136.05"/>
</a>
</g>
</g>
<!-- Node11 -->
<g id="Node000011" class="node">
<title>Node11</title>
<g id="a_Node000011"><a xlink:href="mixtureProposal_8tpp.html" target="_top" xlink:title=" ">
<polygon fill="white" stroke="#666666" points="558,-129 442,-129 442,-110 558,-110 558,-129"/>
<text text-anchor="middle" x="500" y="-117" font-family="Helvetica,sans-Serif" font-size="10.00">mixtureProposal.tpp</text>
</a>
</g>
</g>
<!-- Node1&#45;&gt;Node11 -->
<g id="edge11_Node000001_Node000011" class="edge">
<title>Node1&#45;&gt;Node11</title>
<g id="a_edge11_Node000001_Node000011"><a xlink:title=" ">
<path fill="none" stroke="#63b8ff" d="M310.64,-164.99C354.54,-154.67 413.37,-140.85 453.75,-131.37"/>
<polygon fill="#63b8ff" stroke="#63b8ff" points="454.66,-134.75 463.59,-129.05 453.06,-127.93 454.66,-134.75"/>
</a>
</g>
</g>
<!-- Node2&#45;&gt;Node3 -->
<g id="edge2_Node000002_Node000003" class="edge">
<title>Node2&#45;&gt;Node3</title>
<g id="a_edge2_Node000002_Node000003"><a xlink:title=" ">
<path fill="none" stroke="#63b8ff" d="M84.07,-109.98C73.92,-102.07 58.58,-90.11 46.35,-80.58"/>
<polygon fill="#63b8ff" stroke="#63b8ff" points="48.16,-77.56 38.12,-74.17 43.86,-83.08 48.16,-77.56"/>
</a>
</g>
</g>
<!-- Node4 -->
<g id="Node000004" class="node">
<title>Node4</title>
<g id="a_Node000004"><a xlink:href="geometry_8hpp.html" target="_top" xlink:title="Core geometric types for Monte Carlo integration.">
<polygon fill="white" stroke="#666666" points="164,-74 72,-74 72,-55 164,-55 164,-74"/>
<text text-anchor="middle" x="118" y="-62" font-family="Helvetica,sans-Serif" font-size="10.00">../geometry.hpp</text>
</a>
</g>
</g>
<!-- Node2&#45;&gt;Node4 -->
<g id="edge3_Node000002_Node000004" class="edge">
<title>Node2&#45;&gt;Node4</title>
<g id="a_edge3_Node000002_Node000004"><a xlink:title=" ">
<path fill="none" stroke="#63b8ff" d="M98.8,-109.75C101.91,-102.57 106.42,-92.18 110.29,-83.27"/>
<polygon fill="#63b8ff" stroke="#63b8ff" points="113.5,-84.66 114.27,-74.09 107.08,-81.87 113.5,-84.66"/>
</a>
</g>
</g>
<!-- Node5 -->
<g id="Node000005" class="node">
<title>Node5</title>
<g id="a_Node000005"><a xlink:title=" ">
<polygon fill="#e0e0e0" stroke="#999999" points="106,-19 64,-19 64,0 106,0 106,-19"/>
<text text-anchor="middle" x="85" y="-7" font-family="Helvetica,sans-Serif" font-size="10.00">array</text>
</a>
</g>
</g>
<!-- Node4&#45;&gt;Node5 -->
<g id="edge4_Node000004_Node000005" class="edge">
<title>Node4&#45;&gt;Node5</title>
<g id="a_edge4_Node000004_Node000005"><a xlink:title=" ">
<path fill="none" stroke="#63b8ff" d="M112.55,-54.75C107.99,-47.42 101.33,-36.73 95.71,-27.7"/>
<polygon fill="#63b8ff" stroke="#63b8ff" points="98.6,-25.73 90.35,-19.09 92.66,-29.43 98.6,-25.73"/>
</a>
</g>
</g>
<!-- Node6 -->
<g id="Node000006" class="node">
<title>Node6</title>
<g id="a_Node000006"><a xlink:title=" ">
<polygon fill="#e0e0e0" stroke="#999999" points="177.5,-19 124.5,-19 124.5,0 177.5,0 177.5,-19"/>
<text text-anchor="middle" x="151" y="-7" font-family="Helvetica,sans-Serif" font-size="10.00">cstddef</text>
</a>
</g>
</g>
<!-- Node4&#45;&gt;Node6 -->
<g id="edge5_Node000004_Node000006" class="edge">
<title>Node4&#45;&gt;Node6</title>
<g id="a_edge5_Node000004_Node000006"><a xlink:title=" ">
<path fill="none" stroke="#63b8ff" d="M123.45,-54.75C128.01,-47.42 134.67,-36.73 140.29,-27.7"/>
<polygon fill="#63b8ff" stroke="#63b8ff" points="143.34,-29.43 145.65,-19.09 137.4,-25.73 143.34,-29.43"/>
</a>
</g>
</g>
</g>
</svg>
