<?xml version="1.0" encoding="UTF-8" standalone="no"?>
<!DOCTYPE svg PUBLIC "-//W3C//DTD SVG 1.1//EN"
 "http://www.w3.org/Graphics/SVG/1.1/DTD/svg11.dtd">
<!-- Generated by graphviz version 2.43.0 (0)
 -->
<!-- Title: mc::rng::make_thread_engine Pages: 1 -->
<svg width="511pt" height="124pt"
 viewBox="0.00 0.00 511.00 123.50" xmlns="http://www.w3.org/2000/svg" xmlns:xlink="http://www.w3.org/1999/xlink">
<g id="graph0" class="graph" transform="scale(1 1) rotate(0) translate(4 119.5)">
<title>mc::rng::make_thread_engine</title>
<!-- Node1 -->
<g id="Node000001" class="node">
<title>Node1</title>
<g id="a_Node000001"><a xlink:title="Create a deterministic RNG engine for the current thread (OpenMP if available)">
<polygon fill="#999999" stroke="#666666" points="123,-67.5 0,-67.5 0,-37.5 123,-37.5 123,-67.5"/>
<text text-anchor="start" x="8" y="-55.5" font-family="Helvetica,sans-Serif" font-size="10.00">mc::rng::make_thread</text>
<text text-anchor="middle" x="61.5" y="-44.5" font-family="Helvetica,sans-Serif" font-size="10.00">_engine</text>
</a>
</g>
</g>
<!-- Node2 -->
<g id="Node000002" class="node">
<title>Node2</title>
<g id="a_Node000002"><a xlink:href="namespacemc_1_1rng_1_1detail.html#a38d2bbfd85016beeafdb31e4c1715477" target="_top" xlink:title=" ">
<polygon fill="white" stroke="#666666" points="296,-115.5 161,-115.5 161,-85.5 296,-85.5 296,-115.5"/>
<text text-anchor="start" x="169" y="-103.5" font-family="Helvetica,sans-Serif" font-size="10.00">mc::rng::detail::combine</text>
<text text-anchor="middle" x="228.5" y="-92.5" font-family="Helvetica,sans-Serif" font-size="10.00">_seeds</text>
</a>
</g>
</g>
<!-- Node1&#45;&gt;Node2 -->
<g id="edge1_Node000001_Node000002" class="edge">
<title>Node1&#45;&gt;Node2</title>
<g id="a_edge1_Node000001_Node000002"><a xlink:title=" ">
<path fill="none" stroke="#63b8ff" d="M114.25,-67.56C130.69,-72.34 149.02,-77.67 166.07,-82.63"/>
<polygon fill="#63b8ff" stroke="#63b8ff" points="165.35,-86.06 175.93,-85.5 167.31,-79.34 165.35,-86.06"/>
</a>
</g>
</g>
<!-- Node4 -->
<g id="Node000004" class="node">
<title>Node4</title>
<g id="a_Node000004"><a xlink:href="namespacemc_1_1rng_1_1detail.html#ab57e549b90087ff17a6516ced8a196ae" target="_top" xlink:title="Create mt19937 from a 64&#45;bit seed.">
<polygon fill="white" stroke="#666666" points="290.5,-67.5 166.5,-67.5 166.5,-37.5 290.5,-37.5 290.5,-67.5"/>
<text text-anchor="start" x="174.5" y="-55.5" font-family="Helvetica,sans-Serif" font-size="10.00">mc::rng::detail::create</text>
<text text-anchor="middle" x="228.5" y="-44.5" font-family="Helvetica,sans-Serif" font-size="10.00">_mt19937</text>
</a>
</g>
</g>
<!-- Node1&#45;&gt;Node4 -->
<g id="edge3_Node000001_Node000004" class="edge">
<title>Node1&#45;&gt;Node4</title>
<g id="a_edge3_Node000001_Node000004"><a xlink:title=" ">
<path fill="none" stroke="#63b8ff" d="M123,-52.5C133.85,-52.5 145.24,-52.5 156.35,-52.5"/>
<polygon fill="#63b8ff" stroke="#63b8ff" points="156.45,-56 166.45,-52.5 156.45,-49 156.45,-56"/>
</a>
</g>
</g>
<!-- Node5 -->
<g id="Node000005" class="node">
<title>Node5</title>
<g id="a_Node000005"><a xlink:href="namespacemc_1_1rng.html#ae8ce618a80ac94df709f1fd752932c0c" target="_top" xlink:title="Get the current global seed.">
<polygon fill="white" stroke="#666666" points="298,-19 159,-19 159,0 298,0 298,-19"/>
<text text-anchor="middle" x="228.5" y="-7" font-family="Helvetica,sans-Serif" font-size="10.00">mc::rng::get_global_seed</text>
</a>
</g>
</g>
<!-- Node1&#45;&gt;Node5 -->
<g id="edge5_Node000001_Node000005" class="edge">
<title>Node1&#45;&gt;Node5</title>
<g id="a_edge5_Node000001_Node000005"><a xlink:title=" ">
<path fill="none" stroke="#63b8ff" d="M120.21,-37.46C140.06,-32.29 162.02,-26.56 180.88,-21.65"/>
<polygon fill="#63b8ff" stroke="#63b8ff" points="181.92,-25 190.71,-19.09 180.16,-18.22 181.92,-25"/>
</a>
</g>
</g>
<!-- Node3 -->
<g id="Node000003" class="node">
<title>Node3</title>
<g id="a_Node000003"><a xlink:href="namespacemc_1_1rng_1_1detail.html#afd7cf835af1e7345389b5497652dd399" target="_top" xlink:title=" ">
<polygon fill="white" stroke="#666666" points="503,-86 334,-86 334,-67 503,-67 503,-86"/>
<text text-anchor="middle" x="418.5" y="-74" font-family="Helvetica,sans-Serif" font-size="10.00">mc::rng::detail::splitmix64_mix</text>
</a>
</g>
</g>
<!-- Node2&#45;&gt;Node3 -->
<g id="edge2_Node000002_Node000003" class="edge">
<title>Node2&#45;&gt;Node3</title>
<g id="a_edge2_Node000002_Node000003"><a xlink:title=" ">
<path fill="none" stroke="#63b8ff" d="M296.05,-92C307.93,-90.49 320.45,-88.89 332.77,-87.32"/>
<polygon fill="#63b8ff" stroke="#63b8ff" points="333.56,-90.74 343.04,-86.01 332.67,-83.8 333.56,-90.74"/>
</a>
</g>
</g>
<!-- Node4&#45;&gt;Node3 -->
<g id="edge4_Node000004_Node000003" class="edge">
<title>Node4&#45;&gt;Node3</title>
<g id="a_edge4_Node000004_Node000003"><a xlink:title=" ">
<path fill="none" stroke="#63b8ff" d="M290.54,-60.29C304,-62.01 318.49,-63.86 332.7,-65.67"/>
<polygon fill="#63b8ff" stroke="#63b8ff" points="332.61,-69.19 342.97,-66.99 333.5,-62.25 332.61,-69.19"/>
</a>
</g>
</g>
</g>
</svg>
