<?xml version="1.0" encoding="UTF-8" standalone="no"?>
<!DOCTYPE svg PUBLIC "-//W3C//DTD SVG 1.1//EN"
 "http://www.w3.org/Graphics/SVG/1.1/DTD/svg11.dtd">
<!-- Generated by graphviz version 2.43.0 (0)
 -->
<!-- Title: mc::rng::make_engine_with_seed Pages: 1 -->
<svg width="513pt" height="124pt"
 viewBox="0.00 0.00 513.00 123.50" xmlns="http://www.w3.org/2000/svg" xmlns:xlink="http://www.w3.org/1999/xlink">
<g id="graph0" class="graph" transform="scale(1 1) rotate(0) translate(4 119.5)">
<title>mc::rng::make_engine_with_seed</title>
<!-- Node1 -->
<g id="Node000001" class="node">
<title>Node1</title>
<g id="a_Node000001"><a xlink:title="Create a deterministic RNG engine with explicit seed override (optional)">
<polygon fill="#999999" stroke="#666666" points="125,-67.5 0,-67.5 0,-37.5 125,-37.5 125,-67.5"/>
<text text-anchor="start" x="8" y="-55.5" font-family="Helvetica,sans-Serif" font-size="10.00">mc::rng::make_engine</text>
<text text-anchor="middle" x="62.5" y="-44.5" font-family="Helvetica,sans-Serif" font-size="10.00">_with_seed</text>
</a>
</g>
</g>
<!-- Node2 -->
<g id="Node000002" class="node">
<title>Node2</title>
<g id="a_Node000002"><a xlink:href="namespacemc_1_1rng_1_1detail.html#a38d2bbfd85016beeafdb31e4c1715477" target="_top" xlink:title=" ">
<polygon fill="white" stroke="#666666" points="298,-115.5 163,-115.5 163,-85.5 298,-85.5 298,-115.5"/>
<text text-anchor="start" x="171" y="-103.5" font-family="Helvetica,sans-Serif" font-size="10.00">mc::rng::detail::combine</text>
<text text-anchor="middle" x="230.5" y="-92.5" font-family="Helvetica,sans-Serif" font-size="10.00">_seeds</text>
</a>
</g>
</g>
<!-- Node1&#45;&gt;Node2 -->
<g id="edge1_Node000001_Node000002" class="edge">
<title>Node1&#45;&gt;Node2</title>
<g id="a_edge1_Node000001_Node000002"><a xlink:title=" ">
<path fill="none" stroke="#63b8ff" d="M115.57,-67.56C132.1,-72.34 150.54,-77.67 167.69,-82.63"/>
<polygon fill="#63b8ff" stroke="#63b8ff" points="167.04,-86.08 177.62,-85.5 168.98,-79.36 167.04,-86.08"/>
</a>
</g>
</g>
<!-- Node4 -->
<g id="Node000004" class="node">
<title>Node4</title>
<g id="a_Node000004"><a xlink:href="namespacemc_1_1rng_1_1detail.html#ab57e549b90087ff17a6516ced8a196ae" target="_top" xlink:title="Create mt19937 from a 64&#45;bit seed.">
<polygon fill="white" stroke="#666666" points="292.5,-67.5 168.5,-67.5 168.5,-37.5 292.5,-37.5 292.5,-67.5"/>
<text text-anchor="start" x="176.5" y="-55.5" font-family="Helvetica,sans-Serif" font-size="10.00">mc::rng::detail::create</text>
<text text-anchor="middle" x="230.5" y="-44.5" font-family="Helvetica,sans-Serif" font-size="10.00">_mt19937</text>
</a>
</g>
</g>
<!-- Node1&#45;&gt;Node4 -->
<g id="edge3_Node000001_Node000004" class="edge">
<title>Node1&#45;&gt;Node4</title>
<g id="a_edge3_Node000001_Node000004"><a xlink:title=" ">
<path fill="none" stroke="#63b8ff" d="M125.31,-52.5C136.11,-52.5 147.42,-52.5 158.44,-52.5"/>
<polygon fill="#63b8ff" stroke="#63b8ff" points="158.46,-56 168.46,-52.5 158.46,-49 158.46,-56"/>
</a>
</g>
</g>
<!-- Node5 -->
<g id="Node000005" class="node">
<title>Node5</title>
<g id="a_Node000005"><a xlink:href="namespacemc_1_1rng.html#ae8ce618a80ac94df709f1fd752932c0c" target="_top" xlink:title="Get the current global seed.">
<polygon fill="white" stroke="#666666" points="300,-19 161,-19 161,0 300,0 300,-19"/>
<text text-anchor="middle" x="230.5" y="-7" font-family="Helvetica,sans-Serif" font-size="10.00">mc::rng::get_global_seed</text>
</a>
</g>
</g>
<!-- Node1&#45;&gt;Node5 -->
<g id="edge5_Node000001_Node000005" class="edge">
<title>Node1&#45;&gt;Node5</title>
<g id="a_edge5_Node000001_Node000005"><a xlink:title=" ">
<path fill="none" stroke="#63b8ff" d="M121.56,-37.46C141.53,-32.29 163.63,-26.56 182.6,-21.65"/>
<polygon fill="#63b8ff" stroke="#63b8ff" points="183.69,-24.98 192.49,-19.09 181.93,-18.21 183.69,-24.98"/>
</a>
</g>
</g>
<!-- Node3 -->
<g id="Node000003" class="node">
<title>Node3</title>
<g id="a_Node000003"><a xlink:href="namespacemc_1_1rng_1_1detail.html#afd7cf835af1e7345389b5497652dd399" target="_top" xlink:title=" ">
<polygon fill="white" stroke="#666666" points="505,-86 336,-86 336,-67 505,-67 505,-86"/>
<text text-anchor="middle" x="420.5" y="-74" font-family="Helvetica,sans-Serif" font-size="10.00">mc::rng::detail::splitmix64_mix</text>
</a>
</g>
</g>
<!-- Node2&#45;&gt;Node3 -->
<g id="edge2_Node000002_Node000003" class="edge">
<title>Node2&#45;&gt;Node3</title>
<g id="a_edge2_Node000002_Node000003"><a xlink:title=" ">
<path fill="none" stroke="#63b8ff" d="M298.05,-92C309.93,-90.49 322.45,-88.89 334.77,-87.32"/>
<polygon fill="#63b8ff" stroke="#63b8ff" points="335.56,-90.74 345.04,-86.01 334.67,-83.8 335.56,-90.74"/>
</a>
</g>
</g>
<!-- Node4&#45;&gt;Node3 -->
<g id="edge4_Node000004_Node000003" class="edge">
<title>Node4&#45;&gt;Node3</title>
<g id="a_edge4_Node000004_Node000003"><a xlink:title=" ">
<path fill="none" stroke="#63b8ff" d="M292.54,-60.29C306,-62.01 320.49,-63.86 334.7,-65.67"/>
<polygon fill="#63b8ff" stroke="#63b8ff" points="334.61,-69.19 344.97,-66.99 335.5,-62.25 334.61,-69.19"/>
</a>
</g>
</g>
</g>
</svg>
