<?xml version="1.0" encoding="UTF-8" standalone="no"?>
<!DOCTYPE svg PUBLIC "-//W3C//DTD SVG 1.1//EN"
 "http://www.w3.org/Graphics/SVG/1.1/DTD/svg11.dtd">
<!-- Generated by graphviz version 2.43.0 (0)
 -->
<!-- Title: src/montecarlo/proposals/proposal.hpp Pages: 1 -->
<svg width="880pt" height="291pt"
 viewBox="0.00 0.00 879.50 291.00" xmlns="http://www.w3.org/2000/svg" xmlns:xlink="http://www.w3.org/1999/xlink">
<g id="graph0" class="graph" transform="scale(1 1) rotate(0) translate(4 287)">
<title>src/montecarlo/proposals/proposal.hpp</title>
<!-- Node1 -->
<g id="Node000001" class="node">
<title>Node1</title>
<g id="a_Node000001"><a xlink:title="Abstract base for probability distributions used in importance sampling.">
<polygon fill="#999999" stroke="#666666" points="440,-283 300,-283 300,-253 440,-253 440,-283"/>
<text text-anchor="start" x="308" y="-271" font-family="Helvetica,sans-Serif" font-size="10.00">src/montecarlo/proposals</text>
<text text-anchor="middle" x="370" y="-260" font-family="Helvetica,sans-Serif" font-size="10.00">/proposal.hpp</text>
</a>
</g>
</g>
<!-- Node2 -->
<g id="Node000002" class="node">
<title>Node2</title>
<g id="a_Node000002"><a xlink:href="wind__farm__simulator_8cpp.html" target="_top" xlink:title="Wind Farm Layout Optimization using Hybrid MH&#45;Monte Carlo + PSO/GA.">
<polygon fill="white" stroke="#666666" points="230,-151 118,-151 118,-121 230,-121 230,-151"/>
<text text-anchor="start" x="126" y="-139" font-family="Helvetica,sans-Serif" font-size="10.00">src/apps/wind_farm</text>
<text text-anchor="middle" x="174" y="-128" font-family="Helvetica,sans-Serif" font-size="10.00">_simulator.cpp</text>
</a>
</g>
</g>
<!-- Node1&#45;&gt;Node2 -->
<g id="edge1_Node000001_Node000002" class="edge">
<title>Node1&#45;&gt;Node2</title>
<g id="a_edge1_Node000001_Node000002"><a xlink:title=" ">
<path fill="none" stroke="#63b8ff" d="M289.67,-262.06C255.59,-255.91 218.04,-243.12 193,-217 175.91,-199.17 173.24,-168.91 173.31,-151.15"/>
<polygon fill="#63b8ff" stroke="#63b8ff" points="289.22,-265.53 299.65,-263.69 290.35,-258.62 289.22,-265.53"/>
</a>
</g>
</g>
<!-- Node3 -->
<g id="Node000003" class="node">
<title>Node3</title>
<g id="a_Node000003"><a xlink:href="ISintegrator_8hpp.html" target="_top" xlink:title="Importance sampling Monte Carlo integration engine.">
<polygon fill="white" stroke="#666666" points="499,-151 353,-151 353,-121 499,-121 499,-151"/>
<text text-anchor="start" x="361" y="-139" font-family="Helvetica,sans-Serif" font-size="10.00">src/montecarlo/integrators</text>
<text text-anchor="middle" x="426" y="-128" font-family="Helvetica,sans-Serif" font-size="10.00">/ISintegrator.hpp</text>
</a>
</g>
</g>
<!-- Node1&#45;&gt;Node3 -->
<g id="edge2_Node000001_Node000003" class="edge">
<title>Node1&#45;&gt;Node3</title>
<g id="a_edge2_Node000001_Node000003"><a xlink:title=" ">
<path fill="none" stroke="#63b8ff" d="M373.19,-242.53C375.93,-226.24 380.79,-204.67 389,-187 395.1,-173.88 404.95,-160.79 412.96,-151.3"/>
<polygon fill="#63b8ff" stroke="#63b8ff" points="369.66,-242.43 371.61,-252.85 376.58,-243.49 369.66,-242.43"/>
</a>
</g>
</g>
<!-- Node10 -->
<g id="Node000010" class="node">
<title>Node10</title>
<g id="a_Node000010"><a xlink:href="MCintegrator_8hpp.html" target="_top" xlink:title="Classic Monte Carlo integration engine.">
<polygon fill="white" stroke="#666666" points="741,-151 595,-151 595,-121 741,-121 741,-151"/>
<text text-anchor="start" x="603" y="-139" font-family="Helvetica,sans-Serif" font-size="10.00">src/montecarlo/integrators</text>
<text text-anchor="middle" x="668" y="-128" font-family="Helvetica,sans-Serif" font-size="10.00">/MCintegrator.hpp</text>
</a>
</g>
</g>
<!-- Node1&#45;&gt;Node10 -->
<g id="edge10_Node000001_Node000010" class="edge">
<title>Node1&#45;&gt;Node10</title>
<g id="a_edge10_Node000001_Node000010"><a xlink:title=" ">
<path fill="none" stroke="#63b8ff" d="M450.07,-266.6C538.52,-264.26 672.75,-254.42 705,-217 722.08,-197.18 699.84,-168.14 683.18,-151.05"/>
<polygon fill="#63b8ff" stroke="#63b8ff" points="449.97,-263.1 440.06,-266.84 450.14,-270.1 449.97,-263.1"/>
</a>
</g>
</g>
<!-- Node12 -->
<g id="Node000012" class="node">
<title>Node12</title>
<g id="a_Node000012"><a xlink:href="MHintegrator_8hpp.html" target="_top" xlink:title="Metropolis&#45;Hastings MCMC Monte Carlo integration engine.">
<polygon fill="white" stroke="#666666" points="146,-217 0,-217 0,-187 146,-187 146,-217"/>
<text text-anchor="start" x="8" y="-205" font-family="Helvetica,sans-Serif" font-size="10.00">src/montecarlo/integrators</text>
<text text-anchor="middle" x="73" y="-194" font-family="Helvetica,sans-Serif" font-size="10.00">/MHintegrator.hpp</text>
</a>
</g>
</g>
<!-- Node1&#45;&gt;Node12 -->
<g id="edge14_Node000001_Node000012" class="edge">
<title>Node1&#45;&gt;Node12</title>
<g id="a_edge14_Node000001_Node000012"><a xlink:title=" ">
<path fill="none" stroke="#63b8ff" d="M295.03,-250.84C246.64,-240.42 184.32,-226.99 138.03,-217.01"/>
<polygon fill="#63b8ff" stroke="#63b8ff" points="294.31,-254.27 304.82,-252.95 295.78,-247.43 294.31,-254.27"/>
</a>
</g>
</g>
<!-- Node13 -->
<g id="Node000013" class="node">
<title>Node13</title>
<g id="a_Node000013"><a xlink:href="gaussianProposal_8hpp.html" target="_top" xlink:title="Diagonal multivariate Gaussian proposal (no domain truncation).">
<polygon fill="white" stroke="#666666" points="342,-217 202,-217 202,-187 342,-187 342,-217"/>
<text text-anchor="start" x="210" y="-205" font-family="Helvetica,sans-Serif" font-size="10.00">src/montecarlo/proposals</text>
<text text-anchor="middle" x="272" y="-194" font-family="Helvetica,sans-Serif" font-size="10.00">/gaussianProposal.hpp</text>
</a>
</g>
</g>
<!-- Node1&#45;&gt;Node13 -->
<g id="edge17_Node000001_Node000013" class="edge">
<title>Node1&#45;&gt;Node13</title>
<g id="a_edge17_Node000001_Node000013"><a xlink:title=" ">
<path fill="none" stroke="#63b8ff" d="M339.84,-247.3C324.92,-237.56 307.25,-226.02 293.69,-217.16"/>
<polygon fill="#63b8ff" stroke="#63b8ff" points="337.96,-250.26 348.25,-252.8 341.79,-244.4 337.96,-250.26"/>
</a>
</g>
</g>
<!-- Node14 -->
<g id="Node000014" class="node">
<title>Node14</title>
<g id="a_Node000014"><a xlink:href="mixtureProposal_8hpp.html" target="_top" xlink:title="Mixture proposal distribution for importance sampling (non&#45;owning raw pointers).">
<polygon fill="white" stroke="#666666" points="538,-217 398,-217 398,-187 538,-187 538,-217"/>
<text text-anchor="start" x="406" y="-205" font-family="Helvetica,sans-Serif" font-size="10.00">src/montecarlo/proposals</text>
<text text-anchor="middle" x="468" y="-194" font-family="Helvetica,sans-Serif" font-size="10.00">/mixtureProposal.hpp</text>
</a>
</g>
</g>
<!-- Node1&#45;&gt;Node14 -->
<g id="edge20_Node000001_Node000014" class="edge">
<title>Node1&#45;&gt;Node14</title>
<g id="a_edge20_Node000001_Node000014"><a xlink:title=" ">
<path fill="none" stroke="#63b8ff" d="M400.16,-247.3C415.08,-237.56 432.75,-226.02 446.31,-217.16"/>
<polygon fill="#63b8ff" stroke="#63b8ff" points="398.21,-244.4 391.75,-252.8 402.04,-250.26 398.21,-244.4"/>
</a>
</g>
</g>
<!-- Node15 -->
<g id="Node000015" class="node">
<title>Node15</title>
<g id="a_Node000015"><a xlink:href="uniformProposal_8hpp.html" target="_top" xlink:title="Uniform distribution proposal over integration domain.">
<polygon fill="white" stroke="#666666" points="696,-217 556,-217 556,-187 696,-187 696,-217"/>
<text text-anchor="start" x="564" y="-205" font-family="Helvetica,sans-Serif" font-size="10.00">src/montecarlo/proposals</text>
<text text-anchor="middle" x="626" y="-194" font-family="Helvetica,sans-Serif" font-size="10.00">/uniformProposal.hpp</text>
</a>
</g>
</g>
<!-- Node1&#45;&gt;Node15 -->
<g id="edge22_Node000001_Node000015" class="edge">
<title>Node1&#45;&gt;Node15</title>
<g id="a_edge22_Node000001_Node000015"><a xlink:title=" ">
<path fill="none" stroke="#63b8ff" d="M435.93,-250.52C477.45,-240.14 530.47,-226.88 569.95,-217.01"/>
<polygon fill="#63b8ff" stroke="#63b8ff" points="435.03,-247.13 426.18,-252.95 436.73,-253.92 435.03,-247.13"/>
</a>
</g>
</g>
<!-- Node4 -->
<g id="Node000004" class="node">
<title>Node4</title>
<g id="a_Node000004"><a xlink:href="benchmarks_8hpp.html" target="_top" xlink:title="Benchmarking framework for Monte Carlo integration algorithms.">
<polygon fill="white" stroke="#666666" points="560.5,-85 419.5,-85 419.5,-66 560.5,-66 560.5,-85"/>
<text text-anchor="middle" x="490" y="-73" font-family="Helvetica,sans-Serif" font-size="10.00">src/apps/benchmarks.hpp</text>
</a>
</g>
</g>
<!-- Node3&#45;&gt;Node4 -->
<g id="edge3_Node000003_Node000004" class="edge">
<title>Node3&#45;&gt;Node4</title>
<g id="a_edge3_Node000003_Node000004"><a xlink:title=" ">
<path fill="none" stroke="#63b8ff" d="M449.02,-113.96C459.83,-104.07 472.13,-92.83 480.41,-85.27"/>
<polygon fill="#63b8ff" stroke="#63b8ff" points="446.51,-111.51 441.49,-120.84 451.24,-116.68 446.51,-111.51"/>
</a>
</g>
</g>
<!-- Node7 -->
<g id="Node000007" class="node">
<title>Node7</title>
<g id="a_Node000007"><a xlink:href="integration__benchmarks_8cpp.html" target="_top" xlink:title="Benchmark suite for Monte Carlo integration algorithms.">
<polygon fill="white" stroke="#666666" points="273,-30 115,-30 115,0 273,0 273,-30"/>
<text text-anchor="start" x="123" y="-18" font-family="Helvetica,sans-Serif" font-size="10.00">src/apps/benchmarks</text>
<text text-anchor="middle" x="194" y="-7" font-family="Helvetica,sans-Serif" font-size="10.00">/integration_benchmarks.cpp</text>
</a>
</g>
</g>
<!-- Node3&#45;&gt;Node7 -->
<g id="edge9_Node000003_Node000007" class="edge">
<title>Node3&#45;&gt;Node7</title>
<g id="a_edge9_Node000003_Node000007"><a xlink:title=" ">
<path fill="none" stroke="#63b8ff" d="M389.33,-116.19C342.7,-92.27 263.24,-51.52 221.49,-30.1"/>
<polygon fill="#63b8ff" stroke="#63b8ff" points="387.98,-119.43 398.48,-120.88 391.18,-113.2 387.98,-119.43"/>
</a>
</g>
</g>
<!-- Node5 -->
<g id="Node000005" class="node">
<title>Node5</title>
<g id="a_Node000005"><a xlink:href="benchmarks_8cpp.html" target="_top" xlink:title="Implementation of shared benchmark utilities and global configuration.">
<polygon fill="white" stroke="#666666" points="709,-24.5 569,-24.5 569,-5.5 709,-5.5 709,-24.5"/>
<text text-anchor="middle" x="639" y="-12.5" font-family="Helvetica,sans-Serif" font-size="10.00">src/apps/benchmarks.cpp</text>
</a>
</g>
</g>
<!-- Node4&#45;&gt;Node5 -->
<g id="edge4_Node000004_Node000005" class="edge">
<title>Node4&#45;&gt;Node5</title>
<g id="a_edge4_Node000004_Node000005"><a xlink:title=" ">
<path fill="none" stroke="#63b8ff" d="M521.25,-62.23C550.05,-50.92 592.03,-34.44 617.31,-24.52"/>
<polygon fill="#63b8ff" stroke="#63b8ff" points="519.7,-59.08 511.67,-65.99 522.25,-65.6 519.7,-59.08"/>
</a>
</g>
</g>
<!-- Node6 -->
<g id="Node000006" class="node">
<title>Node6</title>
<g id="a_Node000006"><a xlink:href="ga__benchmarks_8cpp.html" target="_top" xlink:title="Genetic Algorithm benchmark suite with visualization.">
<polygon fill="white" stroke="#666666" points="411,-30 291,-30 291,0 411,0 411,-30"/>
<text text-anchor="start" x="299" y="-18" font-family="Helvetica,sans-Serif" font-size="10.00">src/apps/benchmarks</text>
<text text-anchor="middle" x="351" y="-7" font-family="Helvetica,sans-Serif" font-size="10.00">/ga_benchmarks.cpp</text>
</a>
</g>
</g>
<!-- Node4&#45;&gt;Node6 -->
<g id="edge5_Node000004_Node000006" class="edge">
<title>Node4&#45;&gt;Node6</title>
<g id="a_edge5_Node000004_Node000006"><a xlink:title=" ">
<path fill="none" stroke="#63b8ff" d="M460.49,-62.08C438.21,-52.7 407.6,-39.82 384.42,-30.06"/>
<polygon fill="#63b8ff" stroke="#63b8ff" points="459.21,-65.34 469.79,-65.99 461.93,-58.89 459.21,-65.34"/>
</a>
</g>
</g>
<!-- Node4&#45;&gt;Node7 -->
<g id="edge6_Node000004_Node000007" class="edge">
<title>Node4&#45;&gt;Node7</title>
<g id="a_edge6_Node000004_Node000007"><a xlink:title=" ">
<path fill="none" stroke="#63b8ff" d="M437.07,-64.04C389.03,-54.55 317.82,-40.47 264.88,-30.01"/>
<polygon fill="#63b8ff" stroke="#63b8ff" points="436.47,-67.49 446.96,-65.99 437.83,-60.62 436.47,-67.49"/>
</a>
</g>
</g>
<!-- Node8 -->
<g id="Node000008" class="node">
<title>Node8</title>
<g id="a_Node000008"><a xlink:href="pso__benchmarks_8cpp.html" target="_top" xlink:title="Particle Swarm Optimization benchmark suite.">
<polygon fill="white" stroke="#666666" points="551,-30 429,-30 429,0 551,0 551,-30"/>
<text text-anchor="start" x="437" y="-18" font-family="Helvetica,sans-Serif" font-size="10.00">src/apps/benchmarks</text>
<text text-anchor="middle" x="490" y="-7" font-family="Helvetica,sans-Serif" font-size="10.00">/pso_benchmarks.cpp</text>
</a>
</g>
</g>
<!-- Node4&#45;&gt;Node8 -->
<g id="edge7_Node000004_Node000008" class="edge">
<title>Node4&#45;&gt;Node8</title>
<g id="a_edge7_Node000004_Node000008"><a xlink:title=" ">
<path fill="none" stroke="#63b8ff" d="M490,-55.65C490,-47.36 490,-37.78 490,-30.11"/>
<polygon fill="#63b8ff" stroke="#63b8ff" points="486.5,-55.87 490,-65.87 493.5,-55.87 486.5,-55.87"/>
</a>
</g>
</g>
<!-- Node9 -->
<g id="Node000009" class="node">
<title>Node9</title>
<g id="a_Node000009"><a xlink:href="main_8cpp.html" target="_top" xlink:title="Command&#45;line interface for Monte Carlo integration and benchmarking.">
<polygon fill="white" stroke="#666666" points="832.5,-24.5 727.5,-24.5 727.5,-5.5 832.5,-5.5 832.5,-24.5"/>
<text text-anchor="middle" x="780" y="-12.5" font-family="Helvetica,sans-Serif" font-size="10.00">src/apps/main.cpp</text>
</a>
</g>
</g>
<!-- Node4&#45;&gt;Node9 -->
<g id="edge8_Node000004_Node000009" class="edge">
<title>Node4&#45;&gt;Node9</title>
<g id="a_edge8_Node000004_Node000009"><a xlink:title=" ">
<path fill="none" stroke="#63b8ff" d="M546.05,-64.04C592.25,-55.29 659.48,-42.32 718,-30 726.1,-28.3 734.77,-26.39 742.99,-24.54"/>
<polygon fill="#63b8ff" stroke="#63b8ff" points="545.11,-60.65 535.93,-65.94 546.41,-67.53 545.11,-60.65"/>
</a>
</g>
</g>
<!-- Node10&#45;&gt;Node4 -->
<g id="edge11_Node000010_Node000004" class="edge">
<title>Node10&#45;&gt;Node4</title>
<g id="a_edge11_Node000010_Node000004"><a xlink:title=" ">
<path fill="none" stroke="#63b8ff" d="M615.48,-117.74C582.74,-106.98 542.03,-93.6 516.03,-85.05"/>
<polygon fill="#63b8ff" stroke="#63b8ff" points="614.77,-121.19 625.36,-120.99 616.96,-114.54 614.77,-121.19"/>
</a>
</g>
</g>
<!-- Node10&#45;&gt;Node9 -->
<g id="edge13_Node000010_Node000009" class="edge">
<title>Node10&#45;&gt;Node9</title>
<g id="a_edge13_Node000010_Node000009"><a xlink:title=" ">
<path fill="none" stroke="#63b8ff" d="M670.34,-110.72C672.78,-96.41 677.78,-78.7 688,-66 704.41,-45.6 731.47,-32.33 752,-24.63"/>
<polygon fill="#63b8ff" stroke="#63b8ff" points="666.84,-110.46 668.92,-120.85 673.77,-111.43 666.84,-110.46"/>
</a>
</g>
</g>
<!-- Node11 -->
<g id="Node000011" class="node">
<title>Node11</title>
<g id="a_Node000011"><a xlink:href="drone__optimization_8cpp.html" target="_top" xlink:title="Drone arm center of mass optimization using PSO with high&#45;precision verification.">
<polygon fill="white" stroke="#666666" points="871.5,-85 696.5,-85 696.5,-66 871.5,-66 871.5,-85"/>
<text text-anchor="middle" x="784" y="-73" font-family="Helvetica,sans-Serif" font-size="10.00">src/apps/drone_optimization.cpp</text>
</a>
</g>
</g>
<!-- Node10&#45;&gt;Node11 -->
<g id="edge12_Node000010_Node000011" class="edge">
<title>Node10&#45;&gt;Node11</title>
<g id="a_edge12_Node000010_Node000011"><a xlink:title=" ">
<path fill="none" stroke="#63b8ff" d="M704.98,-116.35C725.74,-105.88 750.64,-93.32 766.87,-85.14"/>
<polygon fill="#63b8ff" stroke="#63b8ff" points="703.14,-113.36 695.78,-120.99 706.29,-119.61 703.14,-113.36"/>
</a>
</g>
</g>
<!-- Node12&#45;&gt;Node2 -->
<g id="edge16_Node000012_Node000002" class="edge">
<title>Node12&#45;&gt;Node2</title>
<g id="a_edge16_Node000012_Node000002"><a xlink:title=" ">
<path fill="none" stroke="#63b8ff" d="M104.09,-181.3C119.46,-171.56 137.67,-160.02 151.65,-151.16"/>
<polygon fill="#63b8ff" stroke="#63b8ff" points="101.99,-178.49 95.42,-186.8 105.74,-184.4 101.99,-178.49"/>
</a>
</g>
</g>
<!-- Node12&#45;&gt;Node4 -->
<g id="edge15_Node000012_Node000004" class="edge">
<title>Node12&#45;&gt;Node4</title>
<g id="a_edge15_Node000012_Node000004"><a xlink:title=" ">
<path fill="none" stroke="#63b8ff" d="M77.26,-176.77C81.84,-158.41 91.02,-134.16 109,-121 156.89,-85.93 322.8,-78.12 419.17,-76.62"/>
<polygon fill="#63b8ff" stroke="#63b8ff" points="73.79,-176.25 75.07,-186.77 80.63,-177.75 73.79,-176.25"/>
</a>
</g>
</g>
<!-- Node13&#45;&gt;Node2 -->
<g id="edge18_Node000013_Node000002" class="edge">
<title>Node13&#45;&gt;Node2</title>
<g id="a_edge18_Node000013_Node000002"><a xlink:title=" ">
<path fill="none" stroke="#63b8ff" d="M241.84,-181.3C226.92,-171.56 209.25,-160.02 195.69,-151.16"/>
<polygon fill="#63b8ff" stroke="#63b8ff" points="239.96,-184.26 250.25,-186.8 243.79,-178.4 239.96,-184.26"/>
</a>
</g>
</g>
<!-- Node13&#45;&gt;Node3 -->
<g id="edge19_Node000013_Node000003" class="edge">
<title>Node13&#45;&gt;Node3</title>
<g id="a_edge19_Node000013_Node000003"><a xlink:title=" ">
<path fill="none" stroke="#63b8ff" d="M315.18,-183.05C339.58,-172.91 369.63,-160.43 392.28,-151.01"/>
<polygon fill="#63b8ff" stroke="#63b8ff" points="313.69,-179.89 305.8,-186.95 316.37,-186.35 313.69,-179.89"/>
</a>
</g>
</g>
<!-- Node14&#45;&gt;Node3 -->
<g id="edge21_Node000014_Node000003" class="edge">
<title>Node14&#45;&gt;Node3</title>
<g id="a_edge21_Node000014_Node000003"><a xlink:title=" ">
<path fill="none" stroke="#63b8ff" d="M453.07,-178.24C447.14,-169.21 440.51,-159.11 435.3,-151.16"/>
<polygon fill="#63b8ff" stroke="#63b8ff" points="450.27,-180.36 458.68,-186.8 456.12,-176.52 450.27,-180.36"/>
</a>
</g>
</g>
<!-- Node15&#45;&gt;Node3 -->
<g id="edge24_Node000015_Node000003" class="edge">
<title>Node15&#45;&gt;Node3</title>
<g id="a_edge24_Node000015_Node000003"><a xlink:title=" ">
<path fill="none" stroke="#63b8ff" d="M572.43,-183.86C540.31,-173.58 499.99,-160.68 469.79,-151.01"/>
<polygon fill="#63b8ff" stroke="#63b8ff" points="571.52,-187.24 582.11,-186.95 573.65,-180.57 571.52,-187.24"/>
</a>
</g>
</g>
<!-- Node15&#45;&gt;Node4 -->
<g id="edge23_Node000015_Node000004" class="edge">
<title>Node15&#45;&gt;Node4</title>
<g id="a_edge23_Node000015_Node000004"><a xlink:title=" ">
<path fill="none" stroke="#63b8ff" d="M603.09,-180.03C572.76,-152.26 520.63,-104.54 499.4,-85.11"/>
<polygon fill="#63b8ff" stroke="#63b8ff" points="600.92,-182.79 610.66,-186.96 605.65,-177.63 600.92,-182.79"/>
</a>
</g>
</g>
<!-- Node15&#45;&gt;Node10 -->
<g id="edge25_Node000015_Node000010" class="edge">
<title>Node15&#45;&gt;Node10</title>
<g id="a_edge25_Node000015_Node000010"><a xlink:title=" ">
<path fill="none" stroke="#63b8ff" d="M640.93,-178.24C646.86,-169.21 653.49,-159.11 658.7,-151.16"/>
<polygon fill="#63b8ff" stroke="#63b8ff" points="637.88,-176.52 635.32,-186.8 643.73,-180.36 637.88,-176.52"/>
</a>
</g>
</g>
</g>
</svg>
