<?xml version="1.0" encoding="UTF-8" standalone="no"?>
<!DOCTYPE svg PUBLIC "-//W3C//DTD SVG 1.1//EN"
 "http://www.w3.org/Graphics/SVG/1.1/DTD/svg11.dtd">
<!-- Generated by graphviz version 2.43.0 (0)
 -->
<!-- Title: runVisualPSO3DBenchmark Pages: 1 -->
<svg width="1062pt" height="346pt"
 viewBox="0.00 0.00 1062.00 346.00" xmlns="http://www.w3.org/2000/svg" xmlns:xlink="http://www.w3.org/1999/xlink">
<g id="graph0" class="graph" transform="scale(1 1) rotate(0) translate(4 342)">
<title>runVisualPSO3DBenchmark</title>
<!-- Node1 -->
<g id="Node000001" class="node">
<title>Node1</title>
<g id="a_Node000001"><a xlink:title=" ">
<polygon fill="#999999" stroke="#666666" points="151,-178.5 0,-178.5 0,-159.5 151,-159.5 151,-178.5"/>
<text text-anchor="middle" x="75.5" y="-166.5" font-family="Helvetica,sans-Serif" font-size="10.00">runVisualPSO3DBenchmark</text>
</a>
</g>
</g>
<!-- Node2 -->
<g id="Node000002" class="node">
<title>Node2</title>
<g id="a_Node000002"><a xlink:href="namespacemc_1_1utils.html#a24624a54455188c8275afd053e1f1f01" target="_top" xlink:title=" ">
<polygon fill="white" stroke="#666666" points="355,-338 190,-338 190,-308 355,-308 355,-338"/>
<text text-anchor="start" x="198" y="-326" font-family="Helvetica,sans-Serif" font-size="10.00">mc::utils::createPSOAnimation</text>
<text text-anchor="middle" x="272.5" y="-315" font-family="Helvetica,sans-Serif" font-size="10.00">Script3D</text>
</a>
</g>
</g>
<!-- Node1&#45;&gt;Node2 -->
<g id="edge1_Node000001_Node000002" class="edge">
<title>Node1&#45;&gt;Node2</title>
<g id="a_edge1_Node000001_Node000002"><a xlink:title=" ">
<path fill="none" stroke="#63b8ff" d="M81.83,-178.51C95.79,-202.55 135.93,-266.15 187,-299 189.61,-300.68 192.34,-302.24 195.15,-303.7"/>
<polygon fill="#63b8ff" stroke="#63b8ff" points="193.83,-306.94 204.37,-307.99 196.78,-300.6 193.83,-306.94"/>
</a>
</g>
</g>
<!-- Node3 -->
<g id="Node000003" class="node">
<title>Node3</title>
<g id="a_Node000003"><a xlink:href="classmc_1_1optim_1_1PSO.html#a2c1d42c2445660bcc7a423405221ea33" target="_top" xlink:title="Access the current swarm state (particles).">
<polygon fill="white" stroke="#666666" points="350,-289.5 195,-289.5 195,-270.5 350,-270.5 350,-289.5"/>
<text text-anchor="middle" x="272.5" y="-277.5" font-family="Helvetica,sans-Serif" font-size="10.00">mc::optim::PSO::getParticles</text>
</a>
</g>
</g>
<!-- Node1&#45;&gt;Node3 -->
<g id="edge2_Node000001_Node000003" class="edge">
<title>Node1&#45;&gt;Node3</title>
<g id="a_edge2_Node000001_Node000003"><a xlink:title=" ">
<path fill="none" stroke="#63b8ff" d="M84.85,-178.67C101.95,-197.81 143.07,-240.52 187,-262 191.05,-263.98 195.32,-265.74 199.69,-267.31"/>
<polygon fill="#63b8ff" stroke="#63b8ff" points="198.8,-270.71 209.39,-270.45 200.95,-264.05 198.8,-270.71"/>
</a>
</g>
</g>
<!-- Node4 -->
<g id="Node000004" class="node">
<title>Node4</title>
<g id="a_Node000004"><a xlink:href="classmc_1_1optim_1_1PSO.html#a19b3b1fbd4b9386fbac33a9c80a0c0b9" target="_top" xlink:title="Execute the optimization loop for max_iterations.">
<polygon fill="white" stroke="#666666" points="342.5,-252.5 202.5,-252.5 202.5,-233.5 342.5,-233.5 342.5,-252.5"/>
<text text-anchor="middle" x="272.5" y="-240.5" font-family="Helvetica,sans-Serif" font-size="10.00">mc::optim::PSO::optimize</text>
</a>
</g>
</g>
<!-- Node1&#45;&gt;Node4 -->
<g id="edge3_Node000001_Node000004" class="edge">
<title>Node1&#45;&gt;Node4</title>
<g id="a_edge3_Node000001_Node000004"><a xlink:title=" ">
<path fill="none" stroke="#63b8ff" d="M92.03,-178.51C112.91,-190.9 151.51,-212.47 187,-225 193.27,-227.21 199.91,-229.2 206.59,-230.98"/>
<polygon fill="#63b8ff" stroke="#63b8ff" points="205.83,-234.39 216.38,-233.42 207.53,-227.6 205.83,-234.39"/>
</a>
</g>
</g>
<!-- Node11 -->
<g id="Node000011" class="node">
<title>Node11</title>
<g id="a_Node000011"><a xlink:href="namespacemc_1_1utils.html#afcb6a4dfd509c3402d30bb17cc5b0ddf" target="_top" xlink:title=" ">
<polygon fill="white" stroke="#666666" points="358,-215.5 187,-215.5 187,-196.5 358,-196.5 358,-215.5"/>
<text text-anchor="middle" x="272.5" y="-203.5" font-family="Helvetica,sans-Serif" font-size="10.00">mc::utils::saveFunctionSlices3D</text>
</a>
</g>
</g>
<!-- Node1&#45;&gt;Node11 -->
<g id="edge11_Node000001_Node000011" class="edge">
<title>Node1&#45;&gt;Node11</title>
<g id="a_edge11_Node000001_Node000011"><a xlink:title=" ">
<path fill="none" stroke="#63b8ff" d="M126.72,-178.53C152.43,-183.41 183.94,-189.39 210.99,-194.52"/>
<polygon fill="#63b8ff" stroke="#63b8ff" points="210.64,-198.01 221.11,-196.44 211.94,-191.14 210.64,-198.01"/>
</a>
</g>
</g>
<!-- Node12 -->
<g id="Node000012" class="node">
<title>Node12</title>
<g id="a_Node000012"><a xlink:href="namespacemc_1_1utils.html#af95b980269dd473eecdbd0bf55dbcae2" target="_top" xlink:title=" ">
<polygon fill="white" stroke="#666666" points="348.5,-178.5 196.5,-178.5 196.5,-159.5 348.5,-159.5 348.5,-178.5"/>
<text text-anchor="middle" x="272.5" y="-166.5" font-family="Helvetica,sans-Serif" font-size="10.00">mc::utils::saveSwarmFrame</text>
</a>
</g>
</g>
<!-- Node1&#45;&gt;Node12 -->
<g id="edge12_Node000001_Node000012" class="edge">
<title>Node1&#45;&gt;Node12</title>
<g id="a_edge12_Node000001_Node000012"><a xlink:title=" ">
<path fill="none" stroke="#63b8ff" d="M151.06,-169C162.53,-169 174.46,-169 186.15,-169"/>
<polygon fill="#63b8ff" stroke="#63b8ff" points="186.34,-172.5 196.34,-169 186.34,-165.5 186.34,-172.5"/>
</a>
</g>
</g>
<!-- Node13 -->
<g id="Node000013" class="node">
<title>Node13</title>
<g id="a_Node000013"><a xlink:href="classmc_1_1optim_1_1PSO.html#a35977dbdfdc2785234ec21cc2d0805d2" target="_top" xlink:title="Set lower/upper bounds of the search hyper&#45;rectangle.">
<polygon fill="white" stroke="#666666" points="347,-141.5 198,-141.5 198,-122.5 347,-122.5 347,-141.5"/>
<text text-anchor="middle" x="272.5" y="-129.5" font-family="Helvetica,sans-Serif" font-size="10.00">mc::optim::PSO::setBounds</text>
</a>
</g>
</g>
<!-- Node1&#45;&gt;Node13 -->
<g id="edge13_Node000001_Node000013" class="edge">
<title>Node1&#45;&gt;Node13</title>
<g id="a_edge13_Node000001_Node000013"><a xlink:title=" ">
<path fill="none" stroke="#63b8ff" d="M126.72,-159.47C152.43,-154.59 183.94,-148.61 210.99,-143.48"/>
<polygon fill="#63b8ff" stroke="#63b8ff" points="211.94,-146.86 221.11,-141.56 210.64,-139.99 211.94,-146.86"/>
</a>
</g>
</g>
<!-- Node14 -->
<g id="Node000014" class="node">
<title>Node14</title>
<g id="a_Node000014"><a xlink:href="classmc_1_1optim_1_1PSO.html#a4f32542124c5a7ed481ef72a50a3a3ea" target="_top" xlink:title="Register a callback invoked after each step().">
<polygon fill="white" stroke="#666666" points="350,-104.5 195,-104.5 195,-85.5 350,-85.5 350,-104.5"/>
<text text-anchor="middle" x="272.5" y="-92.5" font-family="Helvetica,sans-Serif" font-size="10.00">mc::optim::PSO::setCallback</text>
</a>
</g>
</g>
<!-- Node1&#45;&gt;Node14 -->
<g id="edge14_Node000001_Node000014" class="edge">
<title>Node1&#45;&gt;Node14</title>
<g id="a_edge14_Node000001_Node000014"><a xlink:title=" ">
<path fill="none" stroke="#63b8ff" d="M92.03,-159.49C112.91,-147.1 151.51,-125.53 187,-113 193.27,-110.79 199.91,-108.8 206.59,-107.02"/>
<polygon fill="#63b8ff" stroke="#63b8ff" points="207.53,-110.4 216.38,-104.58 205.83,-103.61 207.53,-110.4"/>
</a>
</g>
</g>
<!-- Node15 -->
<g id="Node000015" class="node">
<title>Node15</title>
<g id="a_Node000015"><a xlink:href="classmc_1_1optim_1_1PSO.html#acca4147bc9775630078d327d180b1a8e" target="_top" xlink:title="Set optimization mode (minimize or maximize).">
<polygon fill="white" stroke="#666666" points="342.5,-67.5 202.5,-67.5 202.5,-48.5 342.5,-48.5 342.5,-67.5"/>
<text text-anchor="middle" x="272.5" y="-55.5" font-family="Helvetica,sans-Serif" font-size="10.00">mc::optim::PSO::setMode</text>
</a>
</g>
</g>
<!-- Node1&#45;&gt;Node15 -->
<g id="edge15_Node000001_Node000015" class="edge">
<title>Node1&#45;&gt;Node15</title>
<g id="a_edge15_Node000001_Node000015"><a xlink:title=" ">
<path fill="none" stroke="#63b8ff" d="M84.85,-159.33C101.95,-140.19 143.07,-97.48 187,-76 191.05,-74.02 195.32,-72.26 199.69,-70.69"/>
<polygon fill="#63b8ff" stroke="#63b8ff" points="200.95,-73.95 209.39,-67.55 198.8,-67.29 200.95,-73.95"/>
</a>
</g>
</g>
<!-- Node17 -->
<g id="Node000017" class="node">
<title>Node17</title>
<g id="a_Node000017"><a xlink:href="classmc_1_1optim_1_1PSO.html#a7b30ff4c321f120046b5552a85505378" target="_top" xlink:title="Set the objective function to optimize.">
<polygon fill="white" stroke="#666666" points="352,-30 193,-30 193,0 352,0 352,-30"/>
<text text-anchor="start" x="201" y="-18" font-family="Helvetica,sans-Serif" font-size="10.00">mc::optim::PSO::setObjective</text>
<text text-anchor="middle" x="272.5" y="-7" font-family="Helvetica,sans-Serif" font-size="10.00">Function</text>
</a>
</g>
</g>
<!-- Node1&#45;&gt;Node17 -->
<g id="edge17_Node000001_Node000017" class="edge">
<title>Node1&#45;&gt;Node17</title>
<g id="a_edge17_Node000001_Node000017"><a xlink:title=" ">
<path fill="none" stroke="#63b8ff" d="M81.83,-159.49C95.79,-135.45 135.93,-71.85 187,-39 189.61,-37.32 192.34,-35.76 195.15,-34.3"/>
<polygon fill="#63b8ff" stroke="#63b8ff" points="196.78,-37.4 204.37,-30.01 193.83,-31.06 196.78,-37.4"/>
</a>
</g>
</g>
<!-- Node5 -->
<g id="Node000005" class="node">
<title>Node5</title>
<g id="a_Node000005"><a xlink:href="classmc_1_1optim_1_1PSO.html#ab0e385c2603febae1bf503d8f6e36803" target="_top" xlink:title="Perform one PSO iteration: update velocity/position, evaluate, update personal and global bests.">
<polygon fill="white" stroke="#666666" points="513,-252.5 394,-252.5 394,-233.5 513,-233.5 513,-252.5"/>
<text text-anchor="middle" x="453.5" y="-240.5" font-family="Helvetica,sans-Serif" font-size="10.00">mc::optim::PSO::step</text>
</a>
</g>
</g>
<!-- Node4&#45;&gt;Node5 -->
<g id="edge4_Node000004_Node000005" class="edge">
<title>Node4&#45;&gt;Node5</title>
<g id="a_edge4_Node000004_Node000005"><a xlink:title=" ">
<path fill="none" stroke="#63b8ff" d="M342.71,-243C356.19,-243 370.32,-243 383.79,-243"/>
<polygon fill="#63b8ff" stroke="#63b8ff" points="383.94,-246.5 393.94,-243 383.94,-239.5 383.94,-246.5"/>
</a>
</g>
</g>
<!-- Node6 -->
<g id="Node000006" class="node">
<title>Node6</title>
<g id="a_Node000006"><a xlink:href="namespacemc_1_1rng.html#acc040fd4a9536fb66cae8144bc232ddd" target="_top" xlink:title="Create a deterministic RNG engine for a specific stream.">
<polygon fill="white" stroke="#666666" points="674,-252.5 549,-252.5 549,-233.5 674,-233.5 674,-252.5"/>
<text text-anchor="middle" x="611.5" y="-240.5" font-family="Helvetica,sans-Serif" font-size="10.00">mc::rng::make_engine</text>
</a>
</g>
</g>
<!-- Node5&#45;&gt;Node6 -->
<g id="edge5_Node000005_Node000006" class="edge">
<title>Node5&#45;&gt;Node6</title>
<g id="a_edge5_Node000005_Node000006"><a xlink:title=" ">
<path fill="none" stroke="#63b8ff" d="M513.03,-243C521.42,-243 530.13,-243 538.74,-243"/>
<polygon fill="#63b8ff" stroke="#63b8ff" points="538.77,-246.5 548.77,-243 538.77,-239.5 538.77,-246.5"/>
</a>
</g>
</g>
<!-- Node7 -->
<g id="Node000007" class="node">
<title>Node7</title>
<g id="a_Node000007"><a xlink:href="namespacemc_1_1rng_1_1detail.html#a38d2bbfd85016beeafdb31e4c1715477" target="_top" xlink:title=" ">
<polygon fill="white" stroke="#666666" points="847,-306 712,-306 712,-276 847,-276 847,-306"/>
<text text-anchor="start" x="720" y="-294" font-family="Helvetica,sans-Serif" font-size="10.00">mc::rng::detail::combine</text>
<text text-anchor="middle" x="779.5" y="-283" font-family="Helvetica,sans-Serif" font-size="10.00">_seeds</text>
</a>
</g>
</g>
<!-- Node6&#45;&gt;Node7 -->
<g id="edge6_Node000006_Node000007" class="edge">
<title>Node6&#45;&gt;Node7</title>
<g id="a_edge6_Node000006_Node000007"><a xlink:title=" ">
<path fill="none" stroke="#63b8ff" d="M645.69,-252.6C665.98,-258.47 692.58,-266.15 716.63,-273.11"/>
<polygon fill="#63b8ff" stroke="#63b8ff" points="715.83,-276.52 726.41,-275.94 717.77,-269.8 715.83,-276.52"/>
</a>
</g>
</g>
<!-- Node9 -->
<g id="Node000009" class="node">
<title>Node9</title>
<g id="a_Node000009"><a xlink:href="namespacemc_1_1rng_1_1detail.html#ab57e549b90087ff17a6516ced8a196ae" target="_top" xlink:title="Create mt19937 from a 64&#45;bit seed.">
<polygon fill="white" stroke="#666666" points="841.5,-258 717.5,-258 717.5,-228 841.5,-228 841.5,-258"/>
<text text-anchor="start" x="725.5" y="-246" font-family="Helvetica,sans-Serif" font-size="10.00">mc::rng::detail::create</text>
<text text-anchor="middle" x="779.5" y="-235" font-family="Helvetica,sans-Serif" font-size="10.00">_mt19937</text>
</a>
</g>
</g>
<!-- Node6&#45;&gt;Node9 -->
<g id="edge8_Node000006_Node000009" class="edge">
<title>Node6&#45;&gt;Node9</title>
<g id="a_edge8_Node000006_Node000009"><a xlink:title=" ">
<path fill="none" stroke="#63b8ff" d="M674.31,-243C685.11,-243 696.42,-243 707.44,-243"/>
<polygon fill="#63b8ff" stroke="#63b8ff" points="707.46,-246.5 717.46,-243 707.46,-239.5 707.46,-246.5"/>
</a>
</g>
</g>
<!-- Node10 -->
<g id="Node000010" class="node">
<title>Node10</title>
<g id="a_Node000010"><a xlink:href="namespacemc_1_1rng.html#ae8ce618a80ac94df709f1fd752932c0c" target="_top" xlink:title="Get the current global seed.">
<polygon fill="white" stroke="#666666" points="849,-209.5 710,-209.5 710,-190.5 849,-190.5 849,-209.5"/>
<text text-anchor="middle" x="779.5" y="-197.5" font-family="Helvetica,sans-Serif" font-size="10.00">mc::rng::get_global_seed</text>
</a>
</g>
</g>
<!-- Node6&#45;&gt;Node10 -->
<g id="edge10_Node000006_Node000010" class="edge">
<title>Node6&#45;&gt;Node10</title>
<g id="a_edge10_Node000006_Node000010"><a xlink:title=" ">
<path fill="none" stroke="#63b8ff" d="M649.34,-233.46C673.73,-227.14 705.93,-218.8 732.07,-212.03"/>
<polygon fill="#63b8ff" stroke="#63b8ff" points="732.96,-215.41 741.76,-209.52 731.2,-208.64 732.96,-215.41"/>
</a>
</g>
</g>
<!-- Node8 -->
<g id="Node000008" class="node">
<title>Node8</title>
<g id="a_Node000008"><a xlink:href="namespacemc_1_1rng_1_1detail.html#afd7cf835af1e7345389b5497652dd399" target="_top" xlink:title=" ">
<polygon fill="white" stroke="#666666" points="1054,-276.5 885,-276.5 885,-257.5 1054,-257.5 1054,-276.5"/>
<text text-anchor="middle" x="969.5" y="-264.5" font-family="Helvetica,sans-Serif" font-size="10.00">mc::rng::detail::splitmix64_mix</text>
</a>
</g>
</g>
<!-- Node7&#45;&gt;Node8 -->
<g id="edge7_Node000007_Node000008" class="edge">
<title>Node7&#45;&gt;Node8</title>
<g id="a_edge7_Node000007_Node000008"><a xlink:title=" ">
<path fill="none" stroke="#63b8ff" d="M847.05,-282.5C858.93,-280.99 871.45,-279.39 883.77,-277.82"/>
<polygon fill="#63b8ff" stroke="#63b8ff" points="884.56,-281.24 894.04,-276.51 883.67,-274.3 884.56,-281.24"/>
</a>
</g>
</g>
<!-- Node9&#45;&gt;Node8 -->
<g id="edge9_Node000009_Node000008" class="edge">
<title>Node9&#45;&gt;Node8</title>
<g id="a_edge9_Node000009_Node000008"><a xlink:title=" ">
<path fill="none" stroke="#63b8ff" d="M841.54,-250.79C855,-252.51 869.49,-254.36 883.7,-256.17"/>
<polygon fill="#63b8ff" stroke="#63b8ff" points="883.61,-259.69 893.97,-257.49 884.5,-252.75 883.61,-259.69"/>
</a>
</g>
</g>
<!-- Node16 -->
<g id="Node000016" class="node">
<title>Node16</title>
<g id="a_Node000016"><a xlink:href="structmc_1_1optim_1_1Solution.html#a611a6651c3a8910e5b1d9c53d03dade6" target="_top" xlink:title="Helper to create a worst&#45;case solution for initialization.">
<polygon fill="white" stroke="#666666" points="509.5,-73 397.5,-73 397.5,-43 509.5,-43 509.5,-73"/>
<text text-anchor="start" x="405.5" y="-61" font-family="Helvetica,sans-Serif" font-size="10.00">mc::optim::Solution</text>
<text text-anchor="middle" x="453.5" y="-50" font-family="Helvetica,sans-Serif" font-size="10.00">::make_worst</text>
</a>
</g>
</g>
<!-- Node15&#45;&gt;Node16 -->
<g id="edge16_Node000015_Node000016" class="edge">
<title>Node15&#45;&gt;Node16</title>
<g id="a_edge16_Node000015_Node000016"><a xlink:title=" ">
<path fill="none" stroke="#63b8ff" d="M342.71,-58C357.27,-58 372.6,-58 387.02,-58"/>
<polygon fill="#63b8ff" stroke="#63b8ff" points="387.34,-61.5 397.34,-58 387.34,-54.5 387.34,-61.5"/>
</a>
</g>
</g>
</g>
</svg>
