<?xml version="1.0" encoding="UTF-8" standalone="no"?>
<!DOCTYPE svg PUBLIC "-//W3C//DTD SVG 1.1//EN"
 "http://www.w3.org/Graphics/SVG/1.1/DTD/svg11.dtd">
<!-- Generated by graphviz version 2.43.0 (0)
 -->
<!-- Title: runSphereTest Pages: 1 -->
<svg width="985pt" height="240pt"
 viewBox="0.00 0.00 985.00 240.00" xmlns="http://www.w3.org/2000/svg" xmlns:xlink="http://www.w3.org/1999/xlink">
<g id="graph0" class="graph" transform="scale(1 1) rotate(0) translate(4 236)">
<title>runSphereTest</title>
<!-- Node1 -->
<g id="Node000001" class="node">
<title>Node1</title>
<g id="a_Node000001"><a xlink:title="Test 1: Sphere Function.">
<polygon fill="#999999" stroke="#666666" points="86,-104.5 0,-104.5 0,-85.5 86,-85.5 86,-104.5"/>
<text text-anchor="middle" x="43" y="-92.5" font-family="Helvetica,sans-Serif" font-size="10.00">runSphereTest</text>
</a>
</g>
</g>
<!-- Node2 -->
<g id="Node000002" class="node">
<title>Node2</title>
<g id="a_Node000002"><a xlink:href="classmc_1_1optim_1_1PSO.html#a19b3b1fbd4b9386fbac33a9c80a0c0b9" target="_top" xlink:title="Execute the optimization loop for max_iterations.">
<polygon fill="white" stroke="#666666" points="271.5,-178.5 131.5,-178.5 131.5,-159.5 271.5,-159.5 271.5,-178.5"/>
<text text-anchor="middle" x="201.5" y="-166.5" font-family="Helvetica,sans-Serif" font-size="10.00">mc::optim::PSO::optimize</text>
</a>
</g>
</g>
<!-- Node1&#45;&gt;Node2 -->
<g id="edge1_Node000001_Node000002" class="edge">
<title>Node1&#45;&gt;Node2</title>
<g id="a_edge1_Node000001_Node000002"><a xlink:title=" ">
<path fill="none" stroke="#63b8ff" d="M54.74,-104.88C69.03,-117.48 95.56,-139.07 122,-151 126.58,-153.07 131.42,-154.91 136.37,-156.55"/>
<polygon fill="#63b8ff" stroke="#63b8ff" points="135.36,-159.9 145.94,-159.46 137.39,-153.2 135.36,-159.9"/>
</a>
</g>
</g>
<!-- Node9 -->
<g id="Node000009" class="node">
<title>Node9</title>
<g id="a_Node000009"><a xlink:href="classmc_1_1optim_1_1PSO.html#a35977dbdfdc2785234ec21cc2d0805d2" target="_top" xlink:title="Set lower/upper bounds of the search hyper&#45;rectangle.">
<polygon fill="white" stroke="#666666" points="276,-141.5 127,-141.5 127,-122.5 276,-122.5 276,-141.5"/>
<text text-anchor="middle" x="201.5" y="-129.5" font-family="Helvetica,sans-Serif" font-size="10.00">mc::optim::PSO::setBounds</text>
</a>
</g>
</g>
<!-- Node1&#45;&gt;Node9 -->
<g id="edge9_Node000001_Node000009" class="edge">
<title>Node1&#45;&gt;Node9</title>
<g id="a_edge9_Node000001_Node000009"><a xlink:title=" ">
<path fill="none" stroke="#63b8ff" d="M84.3,-104.53C104.4,-109.28 128.89,-115.07 150.21,-120.11"/>
<polygon fill="#63b8ff" stroke="#63b8ff" points="149.53,-123.54 160.06,-122.44 151.14,-116.73 149.53,-123.54"/>
</a>
</g>
</g>
<!-- Node10 -->
<g id="Node000010" class="node">
<title>Node10</title>
<g id="a_Node000010"><a xlink:href="classmc_1_1optim_1_1PSO.html#a4f32542124c5a7ed481ef72a50a3a3ea" target="_top" xlink:title="Register a callback invoked after each step().">
<polygon fill="white" stroke="#666666" points="279,-104.5 124,-104.5 124,-85.5 279,-85.5 279,-104.5"/>
<text text-anchor="middle" x="201.5" y="-92.5" font-family="Helvetica,sans-Serif" font-size="10.00">mc::optim::PSO::setCallback</text>
</a>
</g>
</g>
<!-- Node1&#45;&gt;Node10 -->
<g id="edge10_Node000001_Node000010" class="edge">
<title>Node1&#45;&gt;Node10</title>
<g id="a_edge10_Node000001_Node000010"><a xlink:title=" ">
<path fill="none" stroke="#63b8ff" d="M86.35,-95C94.86,-95 104.09,-95 113.5,-95"/>
<polygon fill="#63b8ff" stroke="#63b8ff" points="113.74,-98.5 123.74,-95 113.74,-91.5 113.74,-98.5"/>
</a>
</g>
</g>
<!-- Node11 -->
<g id="Node000011" class="node">
<title>Node11</title>
<g id="a_Node000011"><a xlink:href="classmc_1_1optim_1_1PSO.html#acca4147bc9775630078d327d180b1a8e" target="_top" xlink:title="Set optimization mode (minimize or maximize).">
<polygon fill="white" stroke="#666666" points="271.5,-67.5 131.5,-67.5 131.5,-48.5 271.5,-48.5 271.5,-67.5"/>
<text text-anchor="middle" x="201.5" y="-55.5" font-family="Helvetica,sans-Serif" font-size="10.00">mc::optim::PSO::setMode</text>
</a>
</g>
</g>
<!-- Node1&#45;&gt;Node11 -->
<g id="edge11_Node000001_Node000011" class="edge">
<title>Node1&#45;&gt;Node11</title>
<g id="a_edge11_Node000001_Node000011"><a xlink:title=" ">
<path fill="none" stroke="#63b8ff" d="M82.86,-85.43C95.35,-82.38 109.25,-79.01 122,-76 130.6,-73.97 139.74,-71.84 148.63,-69.79"/>
<polygon fill="#63b8ff" stroke="#63b8ff" points="149.55,-73.17 158.51,-67.52 147.98,-66.35 149.55,-73.17"/>
</a>
</g>
</g>
<!-- Node13 -->
<g id="Node000013" class="node">
<title>Node13</title>
<g id="a_Node000013"><a xlink:href="classmc_1_1optim_1_1PSO.html#a7b30ff4c321f120046b5552a85505378" target="_top" xlink:title="Set the objective function to optimize.">
<polygon fill="white" stroke="#666666" points="281,-30 122,-30 122,0 281,0 281,-30"/>
<text text-anchor="start" x="130" y="-18" font-family="Helvetica,sans-Serif" font-size="10.00">mc::optim::PSO::setObjective</text>
<text text-anchor="middle" x="201.5" y="-7" font-family="Helvetica,sans-Serif" font-size="10.00">Function</text>
</a>
</g>
</g>
<!-- Node1&#45;&gt;Node13 -->
<g id="edge13_Node000001_Node000013" class="edge">
<title>Node1&#45;&gt;Node13</title>
<g id="a_edge13_Node000001_Node000013"><a xlink:title=" ">
<path fill="none" stroke="#63b8ff" d="M54.88,-85.41C69.31,-73.11 96,-51.87 122,-39 125.81,-37.12 129.79,-35.34 133.86,-33.68"/>
<polygon fill="#63b8ff" stroke="#63b8ff" points="135.38,-36.85 143.47,-30.02 132.88,-30.31 135.38,-36.85"/>
</a>
</g>
</g>
<!-- Node3 -->
<g id="Node000003" class="node">
<title>Node3</title>
<g id="a_Node000003"><a xlink:href="classmc_1_1optim_1_1PSO.html#ab0e385c2603febae1bf503d8f6e36803" target="_top" xlink:title="Perform one PSO iteration: update velocity/position, evaluate, update personal and global bests.">
<polygon fill="white" stroke="#666666" points="436,-178.5 317,-178.5 317,-159.5 436,-159.5 436,-178.5"/>
<text text-anchor="middle" x="376.5" y="-166.5" font-family="Helvetica,sans-Serif" font-size="10.00">mc::optim::PSO::step</text>
</a>
</g>
</g>
<!-- Node2&#45;&gt;Node3 -->
<g id="edge2_Node000002_Node000003" class="edge">
<title>Node2&#45;&gt;Node3</title>
<g id="a_edge2_Node000002_Node000003"><a xlink:title=" ">
<path fill="none" stroke="#63b8ff" d="M271.87,-169C283.43,-169 295.41,-169 306.95,-169"/>
<polygon fill="#63b8ff" stroke="#63b8ff" points="306.96,-172.5 316.96,-169 306.96,-165.5 306.96,-172.5"/>
</a>
</g>
</g>
<!-- Node4 -->
<g id="Node000004" class="node">
<title>Node4</title>
<g id="a_Node000004"><a xlink:href="namespacemc_1_1rng.html#acc040fd4a9536fb66cae8144bc232ddd" target="_top" xlink:title="Create a deterministic RNG engine for a specific stream.">
<polygon fill="white" stroke="#666666" points="597,-178.5 472,-178.5 472,-159.5 597,-159.5 597,-178.5"/>
<text text-anchor="middle" x="534.5" y="-166.5" font-family="Helvetica,sans-Serif" font-size="10.00">mc::rng::make_engine</text>
</a>
</g>
</g>
<!-- Node3&#45;&gt;Node4 -->
<g id="edge3_Node000003_Node000004" class="edge">
<title>Node3&#45;&gt;Node4</title>
<g id="a_edge3_Node000003_Node000004"><a xlink:title=" ">
<path fill="none" stroke="#63b8ff" d="M436.03,-169C444.42,-169 453.13,-169 461.74,-169"/>
<polygon fill="#63b8ff" stroke="#63b8ff" points="461.77,-172.5 471.77,-169 461.77,-165.5 461.77,-172.5"/>
</a>
</g>
</g>
<!-- Node5 -->
<g id="Node000005" class="node">
<title>Node5</title>
<g id="a_Node000005"><a xlink:href="namespacemc_1_1rng_1_1detail.html#a38d2bbfd85016beeafdb31e4c1715477" target="_top" xlink:title=" ">
<polygon fill="white" stroke="#666666" points="770,-232 635,-232 635,-202 770,-202 770,-232"/>
<text text-anchor="start" x="643" y="-220" font-family="Helvetica,sans-Serif" font-size="10.00">mc::rng::detail::combine</text>
<text text-anchor="middle" x="702.5" y="-209" font-family="Helvetica,sans-Serif" font-size="10.00">_seeds</text>
</a>
</g>
</g>
<!-- Node4&#45;&gt;Node5 -->
<g id="edge4_Node000004_Node000005" class="edge">
<title>Node4&#45;&gt;Node5</title>
<g id="a_edge4_Node000004_Node000005"><a xlink:title=" ">
<path fill="none" stroke="#63b8ff" d="M568.69,-178.6C588.98,-184.47 615.58,-192.15 639.63,-199.11"/>
<polygon fill="#63b8ff" stroke="#63b8ff" points="638.83,-202.52 649.41,-201.94 640.77,-195.8 638.83,-202.52"/>
</a>
</g>
</g>
<!-- Node7 -->
<g id="Node000007" class="node">
<title>Node7</title>
<g id="a_Node000007"><a xlink:href="namespacemc_1_1rng_1_1detail.html#ab57e549b90087ff17a6516ced8a196ae" target="_top" xlink:title="Create mt19937 from a 64&#45;bit seed.">
<polygon fill="white" stroke="#666666" points="764.5,-184 640.5,-184 640.5,-154 764.5,-154 764.5,-184"/>
<text text-anchor="start" x="648.5" y="-172" font-family="Helvetica,sans-Serif" font-size="10.00">mc::rng::detail::create</text>
<text text-anchor="middle" x="702.5" y="-161" font-family="Helvetica,sans-Serif" font-size="10.00">_mt19937</text>
</a>
</g>
</g>
<!-- Node4&#45;&gt;Node7 -->
<g id="edge6_Node000004_Node000007" class="edge">
<title>Node4&#45;&gt;Node7</title>
<g id="a_edge6_Node000004_Node000007"><a xlink:title=" ">
<path fill="none" stroke="#63b8ff" d="M597.31,-169C608.11,-169 619.42,-169 630.44,-169"/>
<polygon fill="#63b8ff" stroke="#63b8ff" points="630.46,-172.5 640.46,-169 630.46,-165.5 630.46,-172.5"/>
</a>
</g>
</g>
<!-- Node8 -->
<g id="Node000008" class="node">
<title>Node8</title>
<g id="a_Node000008"><a xlink:href="namespacemc_1_1rng.html#ae8ce618a80ac94df709f1fd752932c0c" target="_top" xlink:title="Get the current global seed.">
<polygon fill="white" stroke="#666666" points="772,-135.5 633,-135.5 633,-116.5 772,-116.5 772,-135.5"/>
<text text-anchor="middle" x="702.5" y="-123.5" font-family="Helvetica,sans-Serif" font-size="10.00">mc::rng::get_global_seed</text>
</a>
</g>
</g>
<!-- Node4&#45;&gt;Node8 -->
<g id="edge8_Node000004_Node000008" class="edge">
<title>Node4&#45;&gt;Node8</title>
<g id="a_edge8_Node000004_Node000008"><a xlink:title=" ">
<path fill="none" stroke="#63b8ff" d="M572.34,-159.46C596.73,-153.14 628.93,-144.8 655.07,-138.03"/>
<polygon fill="#63b8ff" stroke="#63b8ff" points="655.96,-141.41 664.76,-135.52 654.2,-134.64 655.96,-141.41"/>
</a>
</g>
</g>
<!-- Node6 -->
<g id="Node000006" class="node">
<title>Node6</title>
<g id="a_Node000006"><a xlink:href="namespacemc_1_1rng_1_1detail.html#afd7cf835af1e7345389b5497652dd399" target="_top" xlink:title=" ">
<polygon fill="white" stroke="#666666" points="977,-202.5 808,-202.5 808,-183.5 977,-183.5 977,-202.5"/>
<text text-anchor="middle" x="892.5" y="-190.5" font-family="Helvetica,sans-Serif" font-size="10.00">mc::rng::detail::splitmix64_mix</text>
</a>
</g>
</g>
<!-- Node5&#45;&gt;Node6 -->
<g id="edge5_Node000005_Node000006" class="edge">
<title>Node5&#45;&gt;Node6</title>
<g id="a_edge5_Node000005_Node000006"><a xlink:title=" ">
<path fill="none" stroke="#63b8ff" d="M770.05,-208.5C781.93,-206.99 794.45,-205.39 806.77,-203.82"/>
<polygon fill="#63b8ff" stroke="#63b8ff" points="807.56,-207.24 817.04,-202.51 806.67,-200.3 807.56,-207.24"/>
</a>
</g>
</g>
<!-- Node7&#45;&gt;Node6 -->
<g id="edge7_Node000007_Node000006" class="edge">
<title>Node7&#45;&gt;Node6</title>
<g id="a_edge7_Node000007_Node000006"><a xlink:title=" ">
<path fill="none" stroke="#63b8ff" d="M764.54,-176.79C778,-178.51 792.49,-180.36 806.7,-182.17"/>
<polygon fill="#63b8ff" stroke="#63b8ff" points="806.61,-185.69 816.97,-183.49 807.5,-178.75 806.61,-185.69"/>
</a>
</g>
</g>
<!-- Node12 -->
<g id="Node000012" class="node">
<title>Node12</title>
<g id="a_Node000012"><a xlink:href="structmc_1_1optim_1_1Solution.html#a611a6651c3a8910e5b1d9c53d03dade6" target="_top" xlink:title="Helper to create a worst&#45;case solution for initialization.">
<polygon fill="white" stroke="#666666" points="432.5,-73 320.5,-73 320.5,-43 432.5,-43 432.5,-73"/>
<text text-anchor="start" x="328.5" y="-61" font-family="Helvetica,sans-Serif" font-size="10.00">mc::optim::Solution</text>
<text text-anchor="middle" x="376.5" y="-50" font-family="Helvetica,sans-Serif" font-size="10.00">::make_worst</text>
</a>
</g>
</g>
<!-- Node11&#45;&gt;Node12 -->
<g id="edge12_Node000011_Node000012" class="edge">
<title>Node11&#45;&gt;Node12</title>
<g id="a_edge12_Node000011_Node000012"><a xlink:title=" ">
<path fill="none" stroke="#63b8ff" d="M271.87,-58C284.5,-58 297.64,-58 310.15,-58"/>
<polygon fill="#63b8ff" stroke="#63b8ff" points="310.49,-61.5 320.49,-58 310.49,-54.5 310.49,-61.5"/>
</a>
</g>
</g>
</g>
</svg>
