<?xml version="1.0" encoding="UTF-8" standalone="no"?>
<!DOCTYPE svg PUBLIC "-//W3C//DTD SVG 1.1//EN"
 "http://www.w3.org/Graphics/SVG/1.1/DTD/svg11.dtd">
<!-- Generated by graphviz version 2.43.0 (0)
 -->
<!-- Title: runOptimizationBenchmarksPSO Pages: 1 -->
<!--zoomable 433 -->

<svg id="main" version="1.1" xmlns="http://www.w3.org/2000/svg" xmlns:xlink="http://www.w3.org/1999/xlink" xml:space="preserve" onload="init(evt)">
<style type="text/css"><![CDATA[
.node, .edge {opacity: 0.7;}
.node.selected, .edge.selected {opacity: 1;}
.edge:hover path { stroke: red; }
.edge:hover polygon { stroke: red; fill: red; }
]]></style>

<defs>
  <circle id="rim" cx="0" cy="0" r="7"/>
  <circle id="rim2" cx="0" cy="0" r="3.5"/>
  <g id="zoomPlus">
    <use xlink:href="#rim" fill="#404040"><set attributeName="fill" to="#808080" begin="zoomplus.mouseover" end="zoomplus.mouseout"/></use>
    <path d="M-4,0h8M0,-4v8" fill="none" stroke="white" stroke-width="1.5" pointer-events="none"/>
  </g>
  <g id="zoomMin">
    <use xlink:href="#rim" fill="#404040"><set attributeName="fill" to="#808080" begin="zoomminus.mouseover" end="zoomminus.mouseout"/></use>
    <path d="M-4,0h8" fill="none" stroke="white" stroke-width="1.5" pointer-events="none"/>
  </g>
  <g id="arrowUp" transform="translate(30 24)">
    <use xlink:href="#rim"/>
    <path pointer-events="none" fill="none" stroke="white" stroke-width="1.5" d="M0,-3.0v7 M-2.5,-0.5L0,-3.0L2.5,-0.5"/>
  </g>
  <g id="arrowRight" transform="rotate(90) translate(36 -43)">
    <use xlink:href="#rim"/>
    <path pointer-events="none" fill="none" stroke="white" stroke-width="1.5" d="M0,-3.0v7 M-2.5,-0.5L0,-3.0L2.5,-0.5"/>
  </g>
  <g id="arrowDown" transform="rotate(180) translate(-30 -48)">
    <use xlink:href="#rim"/>
    <path pointer-events="none" fill="none" stroke="white" stroke-width="1.5" d="M0,-3.0v7 M-2.5,-0.5L0,-3.0L2.5,-0.5"/>
  </g>
  <g id="arrowLeft" transform="rotate(270) translate(-36 17)">
    <use xlink:href="#rim"/>
    <path pointer-events="none" fill="none" stroke="white" stroke-width="1.5" d="M0,-3.0v7 M-2.5,-0.5L0,-3.0L2.5,-0.5"/>
  </g>
  <g id="resetDef">
    <use xlink:href="#rim2" fill="#404040"><set attributeName="fill" to="#808080" begin="reset.mouseover" end="reset.mouseout"/></use>
  </g>
</defs>
<script type="application/ecmascript">
var viewWidth = 1274;
var viewHeight = 433;
var sectionId = 'dynsection-2';
</script>
<script type="application/ecmascript" xlink:href="svg.min.js"/>
<svg id="graph" class="graph">
<g id="viewport">
<title>runOptimizationBenchmarksPSO</title>
<!-- Node1 -->
<g id="Node000001" class="node">
<title>Node1</title>
<g id="a_Node000001"><a xlink:title=" ">
<polygon fill="#999999" stroke="#666666" points="176,-313.5 0,-313.5 0,-294.5 176,-294.5 176,-313.5"/>
<text text-anchor="middle" x="88" y="-301.5" font-family="Helvetica,sans-Serif" font-size="10.00">runOptimizationBenchmarksPSO</text>
</a>
</g>
</g>
<!-- Node2 -->
<g id="Node000002" class="node">
<title>Node2</title>
<g id="a_Node000002"><a xlink:href="pso__benchmarks_8cpp.html#aed8e833766ec99ac81e3b882d7e80ba2" target="_top" xlink:title="Test 2: Boundary Constraint Test Objective: Minimize f(x, y) = x + y This function is a constant incl...">
<polygon fill="white" stroke="#666666" points="336.5,-387.5 238.5,-387.5 238.5,-368.5 336.5,-368.5 336.5,-387.5"/>
<text text-anchor="middle" x="287.5" y="-375.5" font-family="Helvetica,sans-Serif" font-size="10.00">runBoundaryTest</text>
</a>
</g>
</g>
<!-- Node1&#45;&gt;Node2 -->
<g id="edge1_Node000001_Node000002" class="edge">
<title>Node1&#45;&gt;Node2</title>
<g id="a_edge1_Node000001_Node000002"><a xlink:title=" ">
<path fill="none" stroke="#63b8ff" d="M107.3,-313.67C130.95,-325.84 173.63,-346.76 212,-360 218.03,-362.08 224.41,-364.01 230.8,-365.78"/>
<polygon fill="#63b8ff" stroke="#63b8ff" points="230.23,-369.25 240.8,-368.41 232.02,-362.48 230.23,-369.25"/>
</a>
</g>
</g>
<!-- Node15 -->
<g id="Node000015" class="node">
<title>Node15</title>
<g id="a_Node000015"><a xlink:href="pso__benchmarks_8cpp.html#a8bf4230aef81c3486ac6205a0e680e1c" target="_top" xlink:title="Test 3: High&#45;Dimensional Rastrigin Function Objective: Minimize f(x) = 10n + sum(x_i^2 &#45; 10cos(2*pi*x...">
<polygon fill="white" stroke="#666666" points="335,-350.5 240,-350.5 240,-331.5 335,-331.5 335,-350.5"/>
<text text-anchor="middle" x="287.5" y="-338.5" font-family="Helvetica,sans-Serif" font-size="10.00">runRastriginTest</text>
</a>
</g>
</g>
<!-- Node1&#45;&gt;Node15 -->
<g id="edge15_Node000001_Node000015" class="edge">
<title>Node1&#45;&gt;Node15</title>
<g id="a_edge15_Node000001_Node000015"><a xlink:title=" ">
<path fill="none" stroke="#63b8ff" d="M139.86,-313.53C167.34,-318.68 201.36,-325.05 229.71,-330.36"/>
<polygon fill="#63b8ff" stroke="#63b8ff" points="229.4,-333.86 239.87,-332.26 230.69,-326.98 229.4,-333.86"/>
</a>
</g>
</g>
<!-- Node16 -->
<g id="Node000016" class="node">
<title>Node16</title>
<g id="a_Node000016"><a xlink:href="pso__benchmarks_8cpp.html#a0a25d010243539e54b63519bcae7b8ab" target="_top" xlink:title="Test 1: Sphere Function.">
<polygon fill="white" stroke="#666666" points="330.5,-313.5 244.5,-313.5 244.5,-294.5 330.5,-294.5 330.5,-313.5"/>
<text text-anchor="middle" x="287.5" y="-301.5" font-family="Helvetica,sans-Serif" font-size="10.00">runSphereTest</text>
</a>
</g>
</g>
<!-- Node1&#45;&gt;Node16 -->
<g id="edge21_Node000001_Node000016" class="edge">
<title>Node1&#45;&gt;Node16</title>
<g id="a_edge21_Node000001_Node000016"><a xlink:title=" ">
<path fill="none" stroke="#63b8ff" d="M176.2,-304C195.98,-304 216.39,-304 234.19,-304"/>
<polygon fill="#63b8ff" stroke="#63b8ff" points="234.35,-307.5 244.35,-304 234.35,-300.5 234.35,-307.5"/>
</a>
</g>
</g>
<!-- Node17 -->
<g id="Node000017" class="node">
<title>Node17</title>
<g id="a_Node000017"><a xlink:href="pso__benchmarks_8cpp.html#ad17bff2aa47ecf2e709a1031ebcf8465" target="_top" xlink:title=" ">
<polygon fill="white" stroke="#666666" points="363,-239.5 212,-239.5 212,-220.5 363,-220.5 363,-239.5"/>
<text text-anchor="middle" x="287.5" y="-227.5" font-family="Helvetica,sans-Serif" font-size="10.00">runVisualPSO3DBenchmark</text>
</a>
</g>
</g>
<!-- Node1&#45;&gt;Node17 -->
<g id="edge27_Node000001_Node000017" class="edge">
<title>Node1&#45;&gt;Node17</title>
<g id="a_edge27_Node000001_Node000017"><a xlink:title=" ">
<path fill="none" stroke="#63b8ff" d="M107.77,-294.39C131.54,-282.51 174,-262.23 212,-249 219.1,-246.53 226.68,-244.22 234.19,-242.13"/>
<polygon fill="#63b8ff" stroke="#63b8ff" points="235.22,-245.48 243.97,-239.51 233.4,-238.72 235.22,-245.48"/>
</a>
</g>
</g>
<!-- Node22 -->
<g id="Node000022" class="node">
<title>Node22</title>
<g id="a_Node000022"><a xlink:href="pso__benchmarks_8cpp.html#a4cbfe89ef2dc302f29f2843950537c7b" target="_top" xlink:title=" ">
<polygon fill="white" stroke="#666666" points="356,-276.5 219,-276.5 219,-257.5 356,-257.5 356,-276.5"/>
<text text-anchor="middle" x="287.5" y="-264.5" font-family="Helvetica,sans-Serif" font-size="10.00">runVisualPSOBenchmark</text>
</a>
</g>
</g>
<!-- Node1&#45;&gt;Node22 -->
<g id="edge37_Node000001_Node000022" class="edge">
<title>Node1&#45;&gt;Node22</title>
<g id="a_edge37_Node000001_Node000022"><a xlink:title=" ">
<path fill="none" stroke="#63b8ff" d="M139.86,-294.47C166.02,-289.57 198.1,-283.56 225.57,-278.41"/>
<polygon fill="#63b8ff" stroke="#63b8ff" points="226.28,-281.84 235.47,-276.56 224.99,-274.96 226.28,-281.84"/>
</a>
</g>
</g>
<!-- Node3 -->
<g id="Node000003" class="node">
<title>Node3</title>
<g id="a_Node000003"><a xlink:href="classmc_1_1optim_1_1PSO.html#a19b3b1fbd4b9386fbac33a9c80a0c0b9" target="_top" xlink:title="Execute the optimization loop for max_iterations.">
<polygon fill="white" stroke="#666666" points="554.5,-264.5 414.5,-264.5 414.5,-245.5 554.5,-245.5 554.5,-264.5"/>
<text text-anchor="middle" x="484.5" y="-252.5" font-family="Helvetica,sans-Serif" font-size="10.00">mc::optim::PSO::optimize</text>
</a>
</g>
</g>
<!-- Node2&#45;&gt;Node3 -->
<g id="edge2_Node000002_Node000003" class="edge">
<title>Node2&#45;&gt;Node3</title>
<g id="a_edge2_Node000002_Node000003"><a xlink:title=" ">
<path fill="none" stroke="#63b8ff" d="M336.56,-373.33C346.12,-370.58 355.51,-366.39 363,-360 394.54,-333.13 367.25,-300.62 399,-274 401.02,-272.31 403.15,-270.76 405.38,-269.34"/>
<polygon fill="#63b8ff" stroke="#63b8ff" points="407.24,-272.32 414.39,-264.5 403.92,-266.15 407.24,-272.32"/>
</a>
</g>
</g>
<!-- Node10 -->
<g id="Node000010" class="node">
<title>Node10</title>
<g id="a_Node000010"><a xlink:href="classmc_1_1optim_1_1PSO.html#a35977dbdfdc2785234ec21cc2d0805d2" target="_top" xlink:title="Set lower/upper bounds of the search hyper&#45;rectangle.">
<polygon fill="white" stroke="#666666" points="559,-424.5 410,-424.5 410,-405.5 559,-405.5 559,-424.5"/>
<text text-anchor="middle" x="484.5" y="-412.5" font-family="Helvetica,sans-Serif" font-size="10.00">mc::optim::PSO::setBounds</text>
</a>
</g>
</g>
<!-- Node2&#45;&gt;Node10 -->
<g id="edge10_Node000002_Node000010" class="edge">
<title>Node2&#45;&gt;Node10</title>
<g id="a_edge10_Node000002_Node000010"><a xlink:title=" ">
<path fill="none" stroke="#63b8ff" d="M336.7,-387.15C362.82,-392.1 395.34,-398.27 423.13,-403.54"/>
<polygon fill="#63b8ff" stroke="#63b8ff" points="422.65,-407.02 433.13,-405.44 423.96,-400.14 422.65,-407.02"/>
</a>
</g>
</g>
<!-- Node11 -->
<g id="Node000011" class="node">
<title>Node11</title>
<g id="a_Node000011"><a xlink:href="classmc_1_1optim_1_1PSO.html#a4f32542124c5a7ed481ef72a50a3a3ea" target="_top" xlink:title="Register a callback invoked after each step().">
<polygon fill="white" stroke="#666666" points="562,-387.5 407,-387.5 407,-368.5 562,-368.5 562,-387.5"/>
<text text-anchor="middle" x="484.5" y="-375.5" font-family="Helvetica,sans-Serif" font-size="10.00">mc::optim::PSO::setCallback</text>
</a>
</g>
</g>
<!-- Node2&#45;&gt;Node11 -->
<g id="edge11_Node000002_Node000011" class="edge">
<title>Node2&#45;&gt;Node11</title>
<g id="a_edge11_Node000002_Node000011"><a xlink:title=" ">
<path fill="none" stroke="#63b8ff" d="M336.7,-378C354.83,-378 376.04,-378 396.61,-378"/>
<polygon fill="#63b8ff" stroke="#63b8ff" points="396.64,-381.5 406.64,-378 396.64,-374.5 396.64,-381.5"/>
</a>
</g>
</g>
<!-- Node12 -->
<g id="Node000012" class="node">
<title>Node12</title>
<g id="a_Node000012"><a xlink:href="classmc_1_1optim_1_1PSO.html#acca4147bc9775630078d327d180b1a8e" target="_top" xlink:title="Set optimization mode (minimize or maximize).">
<polygon fill="white" stroke="#666666" points="554.5,-350.5 414.5,-350.5 414.5,-331.5 554.5,-331.5 554.5,-350.5"/>
<text text-anchor="middle" x="484.5" y="-338.5" font-family="Helvetica,sans-Serif" font-size="10.00">mc::optim::PSO::setMode</text>
</a>
</g>
</g>
<!-- Node2&#45;&gt;Node12 -->
<g id="edge12_Node000002_Node000012" class="edge">
<title>Node2&#45;&gt;Node12</title>
<g id="a_edge12_Node000002_Node000012"><a xlink:title=" ">
<path fill="none" stroke="#63b8ff" d="M336.7,-368.85C362.82,-363.9 395.34,-357.73 423.13,-352.46"/>
<polygon fill="#63b8ff" stroke="#63b8ff" points="423.96,-355.86 433.13,-350.56 422.65,-348.98 423.96,-355.86"/>
</a>
</g>
</g>
<!-- Node14 -->
<g id="Node000014" class="node">
<title>Node14</title>
<g id="a_Node000014"><a xlink:href="classmc_1_1optim_1_1PSO.html#a7b30ff4c321f120046b5552a85505378" target="_top" xlink:title="Set the objective function to optimize.">
<polygon fill="white" stroke="#666666" points="564,-313 405,-313 405,-283 564,-283 564,-313"/>
<text text-anchor="start" x="413" y="-301" font-family="Helvetica,sans-Serif" font-size="10.00">mc::optim::PSO::setObjective</text>
<text text-anchor="middle" x="484.5" y="-290" font-family="Helvetica,sans-Serif" font-size="10.00">Function</text>
</a>
</g>
</g>
<!-- Node2&#45;&gt;Node14 -->
<g id="edge14_Node000002_Node000014" class="edge">
<title>Node2&#45;&gt;Node14</title>
<g id="a_edge14_Node000002_Node000014"><a xlink:title=" ">
<path fill="none" stroke="#63b8ff" d="M336.52,-370.61C345.67,-368.05 354.91,-364.61 363,-360 382.93,-348.64 379.36,-334.86 399,-323 402.61,-320.82 406.42,-318.82 410.35,-316.99"/>
<polygon fill="#63b8ff" stroke="#63b8ff" points="411.86,-320.14 419.69,-313 409.12,-313.71 411.86,-320.14"/>
</a>
</g>
</g>
<!-- Node4 -->
<g id="Node000004" class="node">
<title>Node4</title>
<g id="a_Node000004"><a xlink:href="classmc_1_1optim_1_1PSO.html#ab0e385c2603febae1bf503d8f6e36803" target="_top" xlink:title="Perform one PSO iteration: update velocity/position, evaluate, update personal and global bests.">
<polygon fill="white" stroke="#666666" points="725,-264.5 606,-264.5 606,-245.5 725,-245.5 725,-264.5"/>
<text text-anchor="middle" x="665.5" y="-252.5" font-family="Helvetica,sans-Serif" font-size="10.00">mc::optim::PSO::step</text>
</a>
</g>
</g>
<!-- Node3&#45;&gt;Node4 -->
<g id="edge3_Node000003_Node000004" class="edge">
<title>Node3&#45;&gt;Node4</title>
<g id="a_edge3_Node000003_Node000004"><a xlink:title=" ">
<path fill="none" stroke="#63b8ff" d="M554.71,-255C568.19,-255 582.32,-255 595.79,-255"/>
<polygon fill="#63b8ff" stroke="#63b8ff" points="595.94,-258.5 605.94,-255 595.94,-251.5 595.94,-258.5"/>
</a>
</g>
</g>
<!-- Node5 -->
<g id="Node000005" class="node">
<title>Node5</title>
<g id="a_Node000005"><a xlink:href="namespacemc_1_1rng.html#acc040fd4a9536fb66cae8144bc232ddd" target="_top" xlink:title="Create a deterministic RNG engine for a specific stream.">
<polygon fill="white" stroke="#666666" points="886,-264.5 761,-264.5 761,-245.5 886,-245.5 886,-264.5"/>
<text text-anchor="middle" x="823.5" y="-252.5" font-family="Helvetica,sans-Serif" font-size="10.00">mc::rng::make_engine</text>
</a>
</g>
</g>
<!-- Node4&#45;&gt;Node5 -->
<g id="edge4_Node000004_Node000005" class="edge">
<title>Node4&#45;&gt;Node5</title>
<g id="a_edge4_Node000004_Node000005"><a xlink:title=" ">
<path fill="none" stroke="#63b8ff" d="M725.03,-255C733.42,-255 742.13,-255 750.74,-255"/>
<polygon fill="#63b8ff" stroke="#63b8ff" points="750.77,-258.5 760.77,-255 750.77,-251.5 750.77,-258.5"/>
</a>
</g>
</g>
<!-- Node6 -->
<g id="Node000006" class="node">
<title>Node6</title>
<g id="a_Node000006"><a xlink:href="namespacemc_1_1rng_1_1detail.html#a38d2bbfd85016beeafdb31e4c1715477" target="_top" xlink:title=" ">
<polygon fill="white" stroke="#666666" points="1059,-270 924,-270 924,-240 1059,-240 1059,-270"/>
<text text-anchor="start" x="932" y="-258" font-family="Helvetica,sans-Serif" font-size="10.00">mc::rng::detail::combine</text>
<text text-anchor="middle" x="991.5" y="-247" font-family="Helvetica,sans-Serif" font-size="10.00">_seeds</text>
</a>
</g>
</g>
<!-- Node5&#45;&gt;Node6 -->
<g id="edge5_Node000005_Node000006" class="edge">
<title>Node5&#45;&gt;Node6</title>
<g id="a_edge5_Node000005_Node000006"><a xlink:title=" ">
<path fill="none" stroke="#63b8ff" d="M886.31,-255C895.22,-255 904.48,-255 913.63,-255"/>
<polygon fill="#63b8ff" stroke="#63b8ff" points="913.9,-258.5 923.9,-255 913.9,-251.5 913.9,-258.5"/>
</a>
</g>
</g>
<!-- Node8 -->
<g id="Node000008" class="node">
<title>Node8</title>
<g id="a_Node000008"><a xlink:href="namespacemc_1_1rng_1_1detail.html#ab57e549b90087ff17a6516ced8a196ae" target="_top" xlink:title="Create mt19937 from a 64&#45;bit seed.">
<polygon fill="white" stroke="#666666" points="1053.5,-318 929.5,-318 929.5,-288 1053.5,-288 1053.5,-318"/>
<text text-anchor="start" x="937.5" y="-306" font-family="Helvetica,sans-Serif" font-size="10.00">mc::rng::detail::create</text>
<text text-anchor="middle" x="991.5" y="-295" font-family="Helvetica,sans-Serif" font-size="10.00">_mt19937</text>
</a>
</g>
</g>
<!-- Node5&#45;&gt;Node8 -->
<g id="edge7_Node000005_Node000008" class="edge">
<title>Node5&#45;&gt;Node8</title>
<g id="a_edge7_Node000005_Node000008"><a xlink:title=" ">
<path fill="none" stroke="#63b8ff" d="M857.69,-264.6C877.98,-270.47 904.58,-278.15 928.63,-285.11"/>
<polygon fill="#63b8ff" stroke="#63b8ff" points="927.83,-288.52 938.41,-287.94 929.77,-281.8 927.83,-288.52"/>
</a>
</g>
</g>
<!-- Node9 -->
<g id="Node000009" class="node">
<title>Node9</title>
<g id="a_Node000009"><a xlink:href="namespacemc_1_1rng.html#ae8ce618a80ac94df709f1fd752932c0c" target="_top" xlink:title="Get the current global seed.">
<polygon fill="white" stroke="#666666" points="1061,-221.5 922,-221.5 922,-202.5 1061,-202.5 1061,-221.5"/>
<text text-anchor="middle" x="991.5" y="-209.5" font-family="Helvetica,sans-Serif" font-size="10.00">mc::rng::get_global_seed</text>
</a>
</g>
</g>
<!-- Node5&#45;&gt;Node9 -->
<g id="edge9_Node000005_Node000009" class="edge">
<title>Node5&#45;&gt;Node9</title>
<g id="a_edge9_Node000005_Node000009"><a xlink:title=" ">
<path fill="none" stroke="#63b8ff" d="M861.34,-245.46C885.73,-239.14 917.93,-230.8 944.07,-224.03"/>
<polygon fill="#63b8ff" stroke="#63b8ff" points="944.96,-227.41 953.76,-221.52 943.2,-220.64 944.96,-227.41"/>
</a>
</g>
</g>
<!-- Node7 -->
<g id="Node000007" class="node">
<title>Node7</title>
<g id="a_Node000007"><a xlink:href="namespacemc_1_1rng_1_1detail.html#afd7cf835af1e7345389b5497652dd399" target="_top" xlink:title=" ">
<polygon fill="white" stroke="#666666" points="1266,-288.5 1097,-288.5 1097,-269.5 1266,-269.5 1266,-288.5"/>
<text text-anchor="middle" x="1181.5" y="-276.5" font-family="Helvetica,sans-Serif" font-size="10.00">mc::rng::detail::splitmix64_mix</text>
</a>
</g>
</g>
<!-- Node6&#45;&gt;Node7 -->
<g id="edge6_Node000006_Node000007" class="edge">
<title>Node6&#45;&gt;Node7</title>
<g id="a_edge6_Node000006_Node000007"><a xlink:title=" ">
<path fill="none" stroke="#63b8ff" d="M1059.05,-263.5C1070.93,-265.01 1083.45,-266.61 1095.77,-268.18"/>
<polygon fill="#63b8ff" stroke="#63b8ff" points="1095.67,-271.7 1106.04,-269.49 1096.56,-264.76 1095.67,-271.7"/>
</a>
</g>
</g>
<!-- Node8&#45;&gt;Node7 -->
<g id="edge8_Node000008_Node000007" class="edge">
<title>Node8&#45;&gt;Node7</title>
<g id="a_edge8_Node000008_Node000007"><a xlink:title=" ">
<path fill="none" stroke="#63b8ff" d="M1053.54,-295.21C1067,-293.49 1081.49,-291.64 1095.7,-289.83"/>
<polygon fill="#63b8ff" stroke="#63b8ff" points="1096.5,-293.25 1105.97,-288.51 1095.61,-286.31 1096.5,-293.25"/>
</a>
</g>
</g>
<!-- Node13 -->
<g id="Node000013" class="node">
<title>Node13</title>
<g id="a_Node000013"><a xlink:href="structmc_1_1optim_1_1Solution.html#a611a6651c3a8910e5b1d9c53d03dade6" target="_top" xlink:title="Helper to create a worst&#45;case solution for initialization.">
<polygon fill="white" stroke="#666666" points="721.5,-356 609.5,-356 609.5,-326 721.5,-326 721.5,-356"/>
<text text-anchor="start" x="617.5" y="-344" font-family="Helvetica,sans-Serif" font-size="10.00">mc::optim::Solution</text>
<text text-anchor="middle" x="665.5" y="-333" font-family="Helvetica,sans-Serif" font-size="10.00">::make_worst</text>
</a>
</g>
</g>
<!-- Node12&#45;&gt;Node13 -->
<g id="edge13_Node000012_Node000013" class="edge">
<title>Node12&#45;&gt;Node13</title>
<g id="a_edge13_Node000012_Node000013"><a xlink:title=" ">
<path fill="none" stroke="#63b8ff" d="M554.71,-341C569.27,-341 584.6,-341 599.02,-341"/>
<polygon fill="#63b8ff" stroke="#63b8ff" points="599.34,-344.5 609.34,-341 599.34,-337.5 599.34,-344.5"/>
</a>
</g>
</g>
<!-- Node15&#45;&gt;Node3 -->
<g id="edge16_Node000015_Node000003" class="edge">
<title>Node15&#45;&gt;Node3</title>
<g id="a_edge16_Node000015_Node000003"><a xlink:title=" ">
<path fill="none" stroke="#63b8ff" d="M335.1,-335.02C344.86,-332.36 354.69,-328.53 363,-323 385.5,-308.03 376.38,-288.79 399,-274 402.14,-271.95 405.48,-270.11 408.93,-268.47"/>
<polygon fill="#63b8ff" stroke="#63b8ff" points="410.43,-271.64 418.33,-264.58 407.75,-265.17 410.43,-271.64"/>
</a>
</g>
</g>
<!-- Node15&#45;&gt;Node10 -->
<g id="edge17_Node000015_Node000010" class="edge">
<title>Node15&#45;&gt;Node10</title>
<g id="a_edge17_Node000015_Node000010"><a xlink:title=" ">
<path fill="none" stroke="#63b8ff" d="M335.35,-348.77C344.88,-351.48 354.57,-355.12 363,-360 382.86,-371.49 378.91,-385.91 399,-397 402.28,-398.81 405.72,-400.44 409.27,-401.9"/>
<polygon fill="#63b8ff" stroke="#63b8ff" points="408.25,-405.26 418.84,-405.41 410.65,-398.68 408.25,-405.26"/>
</a>
</g>
</g>
<!-- Node15&#45;&gt;Node11 -->
<g id="edge18_Node000015_Node000011" class="edge">
<title>Node15&#45;&gt;Node11</title>
<g id="a_edge18_Node000015_Node000011"><a xlink:title=" ">
<path fill="none" stroke="#63b8ff" d="M335.21,-349.86C361.6,-354.87 394.88,-361.19 423.22,-366.56"/>
<polygon fill="#63b8ff" stroke="#63b8ff" points="422.94,-370.07 433.42,-368.5 424.25,-363.19 422.94,-370.07"/>
</a>
</g>
</g>
<!-- Node15&#45;&gt;Node12 -->
<g id="edge19_Node000015_Node000012" class="edge">
<title>Node15&#45;&gt;Node12</title>
<g id="a_edge19_Node000015_Node000012"><a xlink:title=" ">
<path fill="none" stroke="#63b8ff" d="M335.21,-341C355.82,-341 380.63,-341 404.01,-341"/>
<polygon fill="#63b8ff" stroke="#63b8ff" points="404.28,-344.5 414.28,-341 404.28,-337.5 404.28,-344.5"/>
</a>
</g>
</g>
<!-- Node15&#45;&gt;Node14 -->
<g id="edge20_Node000015_Node000014" class="edge">
<title>Node15&#45;&gt;Node14</title>
<g id="a_edge20_Node000015_Node000014"><a xlink:title=" ">
<path fill="none" stroke="#63b8ff" d="M331.78,-331.46C353.47,-326.67 380.41,-320.73 405.55,-315.19"/>
<polygon fill="#63b8ff" stroke="#63b8ff" points="406.44,-318.58 415.45,-313.01 404.93,-311.74 406.44,-318.58"/>
</a>
</g>
</g>
<!-- Node16&#45;&gt;Node3 -->
<g id="edge22_Node000016_Node000003" class="edge">
<title>Node16&#45;&gt;Node3</title>
<g id="a_edge22_Node000016_Node000003"><a xlink:title=" ">
<path fill="none" stroke="#63b8ff" d="M330.82,-294.43C341.38,-291.87 352.64,-288.97 363,-286 379.21,-281.35 382.75,-278.52 399,-274 408.14,-271.46 417.9,-269.01 427.43,-266.77"/>
<polygon fill="#63b8ff" stroke="#63b8ff" points="428.28,-270.17 437.24,-264.52 426.71,-263.35 428.28,-270.17"/>
</a>
</g>
</g>
<!-- Node16&#45;&gt;Node10 -->
<g id="edge23_Node000016_Node000010" class="edge">
<title>Node16&#45;&gt;Node10</title>
<g id="a_edge23_Node000016_Node000010"><a xlink:title=" ">
<path fill="none" stroke="#63b8ff" d="M330.88,-308.22C342.25,-311.01 353.9,-315.58 363,-323 391.35,-346.11 370.2,-374.46 399,-397 400.59,-398.25 402.26,-399.41 403.97,-400.5"/>
<polygon fill="#63b8ff" stroke="#63b8ff" points="402.5,-403.69 412.97,-405.34 405.82,-397.52 402.5,-403.69"/>
</a>
</g>
</g>
<!-- Node16&#45;&gt;Node11 -->
<g id="edge24_Node000016_Node000011" class="edge">
<title>Node16&#45;&gt;Node11</title>
<g id="a_edge24_Node000016_Node000011"><a xlink:title=" ">
<path fill="none" stroke="#63b8ff" d="M330.67,-310.5C341.67,-313.32 353.18,-317.32 363,-323 382.86,-334.49 378.91,-348.91 399,-360 402.28,-361.81 405.72,-363.44 409.27,-364.9"/>
<polygon fill="#63b8ff" stroke="#63b8ff" points="408.25,-368.26 418.84,-368.41 410.65,-361.68 408.25,-368.26"/>
</a>
</g>
</g>
<!-- Node16&#45;&gt;Node12 -->
<g id="edge25_Node000016_Node000012" class="edge">
<title>Node16&#45;&gt;Node12</title>
<g id="a_edge25_Node000016_Node000012"><a xlink:title=" ">
<path fill="none" stroke="#63b8ff" d="M330.81,-312.03C357.88,-317.17 393.42,-323.91 423.4,-329.6"/>
<polygon fill="#63b8ff" stroke="#63b8ff" points="422.85,-333.05 433.33,-331.48 424.16,-326.18 422.85,-333.05"/>
</a>
</g>
</g>
<!-- Node16&#45;&gt;Node14 -->
<g id="edge26_Node000016_Node000014" class="edge">
<title>Node16&#45;&gt;Node14</title>
<g id="a_edge26_Node000016_Node000014"><a xlink:title=" ">
<path fill="none" stroke="#63b8ff" d="M330.81,-302.7C349.56,-302.12 372.37,-301.42 394.57,-300.74"/>
<polygon fill="#63b8ff" stroke="#63b8ff" points="394.83,-304.23 404.72,-300.42 394.62,-297.23 394.83,-304.23"/>
</a>
</g>
</g>
<!-- Node17&#45;&gt;Node3 -->
<g id="edge30_Node000017_Node000003" class="edge">
<title>Node17&#45;&gt;Node3</title>
<g id="a_edge30_Node000017_Node000003"><a xlink:title=" ">
<path fill="none" stroke="#63b8ff" d="M362.78,-239.52C376.24,-241.25 390.34,-243.06 403.95,-244.8"/>
<polygon fill="#63b8ff" stroke="#63b8ff" points="403.88,-248.32 414.24,-246.12 404.77,-241.38 403.88,-248.32"/>
</a>
</g>
</g>
<!-- Node17&#45;&gt;Node10 -->
<g id="edge33_Node000017_Node000010" class="edge">
<title>Node17&#45;&gt;Node10</title>
<g id="a_edge33_Node000017_Node000010"><a xlink:title=" ">
<path fill="none" stroke="#63b8ff" d="M350.09,-239.65C354.85,-242.13 359.25,-245.2 363,-249 410.6,-297.13 350.45,-349.82 399,-397 399.97,-397.94 400.97,-398.84 402.01,-399.69"/>
<polygon fill="#63b8ff" stroke="#63b8ff" points="400.29,-402.76 410.54,-405.46 404.21,-396.96 400.29,-402.76"/>
</a>
</g>
</g>
<!-- Node17&#45;&gt;Node11 -->
<g id="edge34_Node000017_Node000011" class="edge">
<title>Node17&#45;&gt;Node11</title>
<g id="a_edge34_Node000017_Node000011"><a xlink:title=" ">
<path fill="none" stroke="#63b8ff" d="M349.07,-239.59C354.16,-242.08 358.91,-245.16 363,-249 400.83,-284.48 360.48,-325.28 399,-360 400.15,-361.04 401.34,-362.02 402.58,-362.95"/>
<polygon fill="#63b8ff" stroke="#63b8ff" points="400.89,-366.02 411.22,-368.36 404.6,-360.09 400.89,-366.02"/>
</a>
</g>
</g>
<!-- Node17&#45;&gt;Node12 -->
<g id="edge35_Node000017_Node000012" class="edge">
<title>Node17&#45;&gt;Node12</title>
<g id="a_edge35_Node000017_Node000012"><a xlink:title=" ">
<path fill="none" stroke="#63b8ff" d="M347.02,-239.57C352.77,-242.04 358.23,-245.13 363,-249 391.1,-271.78 370.58,-299.62 399,-322 401.19,-323.73 403.52,-325.31 405.93,-326.74"/>
<polygon fill="#63b8ff" stroke="#63b8ff" points="404.56,-329.97 415.06,-331.38 407.72,-323.73 404.56,-329.97"/>
</a>
</g>
</g>
<!-- Node17&#45;&gt;Node14 -->
<g id="edge36_Node000017_Node000014" class="edge">
<title>Node17&#45;&gt;Node14</title>
<g id="a_edge36_Node000017_Node000014"><a xlink:title=" ">
<path fill="none" stroke="#63b8ff" d="M336.66,-239.59C345.62,-242.12 354.74,-245.23 363,-249 380.72,-257.09 381.39,-265.67 399,-274 403.06,-275.92 407.31,-277.72 411.65,-279.4"/>
<polygon fill="#63b8ff" stroke="#63b8ff" points="410.66,-282.76 421.25,-282.88 413.04,-276.18 410.66,-282.76"/>
</a>
</g>
</g>
<!-- Node18 -->
<g id="Node000018" class="node">
<title>Node18</title>
<g id="a_Node000018"><a xlink:href="namespacemc_1_1utils.html#a24624a54455188c8275afd053e1f1f01" target="_top" xlink:title=" ">
<polygon fill="white" stroke="#666666" points="567,-30 402,-30 402,0 567,0 567,-30"/>
<text text-anchor="start" x="410" y="-18" font-family="Helvetica,sans-Serif" font-size="10.00">mc::utils::createPSOAnimation</text>
<text text-anchor="middle" x="484.5" y="-7" font-family="Helvetica,sans-Serif" font-size="10.00">Script3D</text>
</a>
</g>
</g>
<!-- Node17&#45;&gt;Node18 -->
<g id="edge28_Node000017_Node000018" class="edge">
<title>Node17&#45;&gt;Node18</title>
<g id="a_edge28_Node000017_Node000018"><a xlink:title=" ">
<path fill="none" stroke="#63b8ff" d="M291.22,-220.33C300.56,-188.99 334.31,-89.36 399,-39 400.81,-37.59 402.7,-36.27 404.65,-35.02"/>
<polygon fill="#63b8ff" stroke="#63b8ff" points="406.54,-37.97 413.56,-30.03 403.12,-31.86 406.54,-37.97"/>
</a>
</g>
</g>
<!-- Node19 -->
<g id="Node000019" class="node">
<title>Node19</title>
<g id="a_Node000019"><a xlink:href="classmc_1_1optim_1_1PSO.html#a2c1d42c2445660bcc7a423405221ea33" target="_top" xlink:title="Access the current swarm state (particles).">
<polygon fill="white" stroke="#666666" points="562,-104.5 407,-104.5 407,-85.5 562,-85.5 562,-104.5"/>
<text text-anchor="middle" x="484.5" y="-92.5" font-family="Helvetica,sans-Serif" font-size="10.00">mc::optim::PSO::getParticles</text>
</a>
</g>
</g>
<!-- Node17&#45;&gt;Node19 -->
<g id="edge29_Node000017_Node000019" class="edge">
<title>Node17&#45;&gt;Node19</title>
<g id="a_edge29_Node000017_Node000019"><a xlink:title=" ">
<path fill="none" stroke="#63b8ff" d="M294.61,-220.27C309.44,-197.51 349.8,-140.65 399,-113 402.1,-111.26 405.35,-109.68 408.7,-108.26"/>
<polygon fill="#63b8ff" stroke="#63b8ff" points="410.21,-111.43 418.35,-104.64 407.76,-104.88 410.21,-111.43"/>
</a>
</g>
</g>
<!-- Node20 -->
<g id="Node000020" class="node">
<title>Node20</title>
<g id="a_Node000020"><a xlink:href="namespacemc_1_1utils.html#afcb6a4dfd509c3402d30bb17cc5b0ddf" target="_top" xlink:title=" ">
<polygon fill="white" stroke="#666666" points="570,-67.5 399,-67.5 399,-48.5 570,-48.5 570,-67.5"/>
<text text-anchor="middle" x="484.5" y="-55.5" font-family="Helvetica,sans-Serif" font-size="10.00">mc::utils::saveFunctionSlices3D</text>
</a>
</g>
</g>
<!-- Node17&#45;&gt;Node20 -->
<g id="edge31_Node000017_Node000020" class="edge">
<title>Node17&#45;&gt;Node20</title>
<g id="a_edge31_Node000017_Node000020"><a xlink:title=" ">
<path fill="none" stroke="#63b8ff" d="M292.49,-220.14C304.21,-192.47 341.44,-113.64 399,-76 401.33,-74.47 403.77,-73.08 406.29,-71.79"/>
<polygon fill="#63b8ff" stroke="#63b8ff" points="407.96,-74.88 415.7,-67.64 405.14,-68.48 407.96,-74.88"/>
</a>
</g>
</g>
<!-- Node21 -->
<g id="Node000021" class="node">
<title>Node21</title>
<g id="a_Node000021"><a xlink:href="namespacemc_1_1utils.html#af95b980269dd473eecdbd0bf55dbcae2" target="_top" xlink:title=" ">
<polygon fill="white" stroke="#666666" points="560.5,-141.5 408.5,-141.5 408.5,-122.5 560.5,-122.5 560.5,-141.5"/>
<text text-anchor="middle" x="484.5" y="-129.5" font-family="Helvetica,sans-Serif" font-size="10.00">mc::utils::saveSwarmFrame</text>
</a>
</g>
</g>
<!-- Node17&#45;&gt;Node21 -->
<g id="edge32_Node000017_Node000021" class="edge">
<title>Node17&#45;&gt;Node21</title>
<g id="a_edge32_Node000017_Node000021"><a xlink:title=" ">
<path fill="none" stroke="#63b8ff" d="M298.89,-220.34C317.48,-203.59 358.32,-169.21 399,-151 404.67,-148.46 410.72,-146.24 416.87,-144.32"/>
<polygon fill="#63b8ff" stroke="#63b8ff" points="417.94,-147.65 426.58,-141.51 416,-140.92 417.94,-147.65"/>
</a>
</g>
</g>
<!-- Node22&#45;&gt;Node3 -->
<g id="edge40_Node000022_Node000003" class="edge">
<title>Node22&#45;&gt;Node3</title>
<g id="a_edge40_Node000022_Node000003"><a xlink:title=" ">
<path fill="none" stroke="#63b8ff" d="M356.15,-262.84C371.58,-261.89 388.12,-260.87 403.99,-259.89"/>
<polygon fill="#63b8ff" stroke="#63b8ff" points="404.55,-263.37 414.31,-259.26 404.12,-256.38 404.55,-263.37"/>
</a>
</g>
</g>
<!-- Node22&#45;&gt;Node10 -->
<g id="edge43_Node000022_Node000010" class="edge">
<title>Node22&#45;&gt;Node10</title>
<g id="a_edge43_Node000022_Node000010"><a xlink:title=" ">
<path fill="none" stroke="#63b8ff" d="M349.07,-276.59C354.16,-279.08 358.91,-282.16 363,-286 400.83,-321.48 360.48,-362.28 399,-397 400.15,-398.04 401.34,-399.02 402.58,-399.95"/>
<polygon fill="#63b8ff" stroke="#63b8ff" points="400.89,-403.02 411.22,-405.36 404.6,-397.09 400.89,-403.02"/>
</a>
</g>
</g>
<!-- Node22&#45;&gt;Node11 -->
<g id="edge44_Node000022_Node000011" class="edge">
<title>Node22&#45;&gt;Node11</title>
<g id="a_edge44_Node000022_Node000011"><a xlink:title=" ">
<path fill="none" stroke="#63b8ff" d="M347.04,-276.55C352.79,-279.02 358.24,-282.12 363,-286 391.35,-309.11 370.2,-337.46 399,-360 400.59,-361.25 402.26,-362.41 403.97,-363.5"/>
<polygon fill="#63b8ff" stroke="#63b8ff" points="402.5,-366.69 412.97,-368.34 405.82,-360.52 402.5,-366.69"/>
</a>
</g>
</g>
<!-- Node22&#45;&gt;Node12 -->
<g id="edge45_Node000022_Node000012" class="edge">
<title>Node22&#45;&gt;Node12</title>
<g id="a_edge45_Node000022_Node000012"><a xlink:title=" ">
<path fill="none" stroke="#63b8ff" d="M340.79,-276.52C348.51,-278.99 356.16,-282.1 363,-286 382.66,-297.2 379.18,-311.09 399,-322 403.22,-324.33 407.71,-326.37 412.34,-328.16"/>
<polygon fill="#63b8ff" stroke="#63b8ff" points="411.38,-331.53 421.98,-331.49 413.67,-324.92 411.38,-331.53"/>
</a>
</g>
</g>
<!-- Node22&#45;&gt;Node14 -->
<g id="edge46_Node000022_Node000014" class="edge">
<title>Node22&#45;&gt;Node14</title>
<g id="a_edge46_Node000022_Node000014"><a xlink:title=" ">
<path fill="none" stroke="#63b8ff" d="M348.33,-276.51C362.93,-278.83 378.87,-281.37 394.51,-283.85"/>
<polygon fill="#63b8ff" stroke="#63b8ff" points="394.3,-287.36 404.73,-285.48 395.4,-280.45 394.3,-287.36"/>
</a>
</g>
</g>
<!-- Node22&#45;&gt;Node19 -->
<g id="edge39_Node000022_Node000019" class="edge">
<title>Node22&#45;&gt;Node19</title>
<g id="a_edge39_Node000022_Node000019"><a xlink:title=" ">
<path fill="none" stroke="#63b8ff" d="M351.41,-257.39C355.64,-255.11 359.58,-252.35 363,-249 407.69,-205.27 353.72,-156.12 399,-113 399.98,-112.07 400.99,-111.18 402.04,-110.33"/>
<polygon fill="#63b8ff" stroke="#63b8ff" points="404.23,-113.08 410.61,-104.62 400.35,-107.25 404.23,-113.08"/>
</a>
</g>
</g>
<!-- Node22&#45;&gt;Node21 -->
<g id="edge42_Node000022_Node000021" class="edge">
<title>Node22&#45;&gt;Node21</title>
<g id="a_edge42_Node000022_Node000021"><a xlink:title=" ">
<path fill="none" stroke="#63b8ff" d="M350.35,-257.39C354.93,-255.13 359.23,-252.36 363,-249 397.64,-218.13 364.11,-181.6 399,-151 400.75,-149.47 402.59,-148.05 404.51,-146.75"/>
<polygon fill="#63b8ff" stroke="#63b8ff" points="406.44,-149.68 413.38,-141.67 402.96,-143.6 406.44,-149.68"/>
</a>
</g>
</g>
<!-- Node23 -->
<g id="Node000023" class="node">
<title>Node23</title>
<g id="a_Node000023"><a xlink:href="namespacemc_1_1utils.html#a98bdac1483004ccb1bcc2c6a5cf89dc4" target="_top" xlink:title=" ">
<polygon fill="white" stroke="#666666" points="567,-190 402,-190 402,-160 567,-160 567,-190"/>
<text text-anchor="start" x="410" y="-178" font-family="Helvetica,sans-Serif" font-size="10.00">mc::utils::createPSOAnimation</text>
<text text-anchor="middle" x="484.5" y="-167" font-family="Helvetica,sans-Serif" font-size="10.00">Script</text>
</a>
</g>
</g>
<!-- Node22&#45;&gt;Node23 -->
<g id="edge38_Node000022_Node000023" class="edge">
<title>Node22&#45;&gt;Node23</title>
<g id="a_edge38_Node000022_Node000023"><a xlink:title=" ">
<path fill="none" stroke="#63b8ff" d="M346.39,-257.43C352.26,-255.18 357.92,-252.42 363,-249 385.72,-233.72 376.58,-214.73 399,-199 401.13,-197.51 403.35,-196.1 405.64,-194.79"/>
<polygon fill="#63b8ff" stroke="#63b8ff" points="407.46,-197.79 414.78,-190.14 404.28,-191.55 407.46,-197.79"/>
</a>
</g>
</g>
<!-- Node24 -->
<g id="Node000024" class="node">
<title>Node24</title>
<g id="a_Node000024"><a xlink:href="namespacemc_1_1utils.html#a3ceed4391bc5e0e913e571767f101d92" target="_top" xlink:title=" ">
<polygon fill="white" stroke="#666666" points="559,-227.5 410,-227.5 410,-208.5 559,-208.5 559,-227.5"/>
<text text-anchor="middle" x="484.5" y="-215.5" font-family="Helvetica,sans-Serif" font-size="10.00">mc::utils::saveFunctionGrid</text>
</a>
</g>
</g>
<!-- Node22&#45;&gt;Node24 -->
<g id="edge41_Node000022_Node000024" class="edge">
<title>Node22&#45;&gt;Node24</title>
<g id="a_edge41_Node000022_Node000024"><a xlink:title=" ">
<path fill="none" stroke="#63b8ff" d="M330.82,-257.43C341.38,-254.87 352.64,-251.97 363,-249 379.21,-244.35 382.75,-241.52 399,-237 408.14,-234.46 417.9,-232.01 427.43,-229.77"/>
<polygon fill="#63b8ff" stroke="#63b8ff" points="428.28,-233.17 437.24,-227.52 426.71,-226.35 428.28,-233.17"/>
</a>
</g>
</g>
</g>
</svg>

<g id="navigator" transform="translate(0 0)" fill="#404254">
  <rect fill="#f2f5e9" fill-opacity="0.5" stroke="#606060" stroke-width=".5" x="0" y="0" width="60" height="60"/>
  <use id="zoomplus" xlink:href="#zoomPlus" x="17" y="9" onmousedown="handleZoom(evt,'in')"/>
  <use id="zoomminus" xlink:href="#zoomMin" x="42" y="9" onmousedown="handleZoom(evt,'out')"/>
  <use id="reset" xlink:href="#resetDef" x="30" y="36" onmousedown="handleReset()"/>
   <use id="arrowup" xlink:href="#arrowUp" x="0" y="0" onmousedown="handlePan(0,-1)"/>
  <use id="arrowright" xlink:href="#arrowRight" x="0" y="0" onmousedown="handlePan(1,0)"/>
  <use id="arrowdown" xlink:href="#arrowDown" x="0" y="0" onmousedown="handlePan(0,1)"/>
  <use id="arrowleft" xlink:href="#arrowLeft" x="0" y="0" onmousedown="handlePan(-1,0)"/>
</g>
<svg viewBox="0 0 15 15" width="100%" height="30px" preserveAspectRatio="xMaxYMin meet">
 <g id="arrow_out" transform="scale(0.3 0.3)">
  <a xlink:href="pso__benchmarks_8cpp_af9e32412c4fe2b234b47239c8b761074_cgraph_org.svg" target="_base">
   <rect id="button" ry="5" rx="5" y="6" x="6" height="38" width="38"
        fill="#f2f5e9" fill-opacity="0.5" stroke="#606060" stroke-width="1.0"/>
   <path id="arrow"
     d="M 11.500037,31.436501 C 11.940474,20.09759 22.043105,11.32322 32.158766,21.979434 L 37.068811,17.246167 C 37.068811,17.246167 37.088388,32 37.088388,32 L 22.160133,31.978069 C 22.160133,31.978069 26.997745,27.140456 26.997745,27.140456 C 18.528582,18.264221 13.291696,25.230495 11.500037,31.436501 z"
     style="fill:#404040;"/>
  </a>
 </g>
</svg>

<style type='text/css'>
<![CDATA[
[data-mouse-over-selected='false'] { opacity: 0.7; }
[data-mouse-over-selected='true']  { opacity: 1.0; }
]]>
</style>
<script type="application/ecmascript"><![CDATA[
document.addEventListener('DOMContentLoaded', (event) => {
  highlightEdges();
  highlightAdjacentNodes();
});
]]></script>
</svg>
