<?xml version="1.0" encoding="UTF-8" standalone="no"?>
<!DOCTYPE svg PUBLIC "-//W3C//DTD SVG 1.1//EN"
 "http://www.w3.org/Graphics/SVG/1.1/DTD/svg11.dtd">
<!-- Generated by graphviz version 2.43.0 (0)
 -->
<!-- Title: runVisualPSOBenchmark Pages: 1 -->
<!--zoomable 346 -->

<svg id="main" version="1.1" xmlns="http://www.w3.org/2000/svg" xmlns:xlink="http://www.w3.org/1999/xlink" xml:space="preserve" onload="init(evt)">
<style type="text/css"><![CDATA[
.node, .edge {opacity: 0.7;}
.node.selected, .edge.selected {opacity: 1;}
.edge:hover path { stroke: red; }
.edge:hover polygon { stroke: red; fill: red; }
]]></style>

<defs>
  <circle id="rim" cx="0" cy="0" r="7"/>
  <circle id="rim2" cx="0" cy="0" r="3.5"/>
  <g id="zoomPlus">
    <use xlink:href="#rim" fill="#404040"><set attributeName="fill" to="#808080" begin="zoomplus.mouseover" end="zoomplus.mouseout"/></use>
    <path d="M-4,0h8M0,-4v8" fill="none" stroke="white" stroke-width="1.5" pointer-events="none"/>
  </g>
  <g id="zoomMin">
    <use xlink:href="#rim" fill="#404040"><set attributeName="fill" to="#808080" begin="zoomminus.mouseover" end="zoomminus.mouseout"/></use>
    <path d="M-4,0h8" fill="none" stroke="white" stroke-width="1.5" pointer-events="none"/>
  </g>
  <g id="arrowUp" transform="translate(30 24)">
    <use xlink:href="#rim"/>
    <path pointer-events="none" fill="none" stroke="white" stroke-width="1.5" d="M0,-3.0v7 M-2.5,-0.5L0,-3.0L2.5,-0.5"/>
  </g>
  <g id="arrowRight" transform="rotate(90) translate(36 -43)">
    <use xlink:href="#rim"/>
    <path pointer-events="none" fill="none" stroke="white" stroke-width="1.5" d="M0,-3.0v7 M-2.5,-0.5L0,-3.0L2.5,-0.5"/>
  </g>
  <g id="arrowDown" transform="rotate(180) translate(-30 -48)">
    <use xlink:href="#rim"/>
    <path pointer-events="none" fill="none" stroke="white" stroke-width="1.5" d="M0,-3.0v7 M-2.5,-0.5L0,-3.0L2.5,-0.5"/>
  </g>
  <g id="arrowLeft" transform="rotate(270) translate(-36 17)">
    <use xlink:href="#rim"/>
    <path pointer-events="none" fill="none" stroke="white" stroke-width="1.5" d="M0,-3.0v7 M-2.5,-0.5L0,-3.0L2.5,-0.5"/>
  </g>
  <g id="resetDef">
    <use xlink:href="#rim2" fill="#404040"><set attributeName="fill" to="#808080" begin="reset.mouseover" end="reset.mouseout"/></use>
  </g>
</defs>
<script type="application/ecmascript">
var viewWidth = 1042;
var viewHeight = 346;
var sectionId = 'dynsection-6';
</script>
<script type="application/ecmascript" xlink:href="svg.min.js"/>
<svg id="graph" class="graph">
<g id="viewport">
<title>runVisualPSOBenchmark</title>
<!-- Node1 -->
<g id="Node000001" class="node">
<title>Node1</title>
<g id="a_Node000001"><a xlink:title=" ">
<polygon fill="#999999" stroke="#666666" points="137,-178.5 0,-178.5 0,-159.5 137,-159.5 137,-178.5"/>
<text text-anchor="middle" x="68.5" y="-166.5" font-family="Helvetica,sans-Serif" font-size="10.00">runVisualPSOBenchmark</text>
</a>
</g>
</g>
<!-- Node2 -->
<g id="Node000002" class="node">
<title>Node2</title>
<g id="a_Node000002"><a xlink:href="namespacemc_1_1utils.html#a98bdac1483004ccb1bcc2c6a5cf89dc4" target="_top" xlink:title=" ">
<polygon fill="white" stroke="#666666" points="338,-338 173,-338 173,-308 338,-308 338,-338"/>
<text text-anchor="start" x="181" y="-326" font-family="Helvetica,sans-Serif" font-size="10.00">mc::utils::createPSOAnimation</text>
<text text-anchor="middle" x="255.5" y="-315" font-family="Helvetica,sans-Serif" font-size="10.00">Script</text>
</a>
</g>
</g>
<!-- Node1&#45;&gt;Node2 -->
<g id="edge1_Node000001_Node000002" class="edge">
<title>Node1&#45;&gt;Node2</title>
<g id="a_edge1_Node000001_Node000002"><a xlink:title=" ">
<path fill="none" stroke="#63b8ff" d="M74.53,-178.84C87.44,-203.1 124.18,-266.14 173,-299 175.41,-300.62 177.93,-302.14 180.53,-303.55"/>
<polygon fill="#63b8ff" stroke="#63b8ff" points="179.11,-306.75 189.64,-307.98 182.17,-300.46 179.11,-306.75"/>
</a>
</g>
</g>
<!-- Node3 -->
<g id="Node000003" class="node">
<title>Node3</title>
<g id="a_Node000003"><a xlink:href="classmc_1_1optim_1_1PSO.html#a2c1d42c2445660bcc7a423405221ea33" target="_top" xlink:title="Access the current swarm state (particles).">
<polygon fill="white" stroke="#666666" points="333,-289.5 178,-289.5 178,-270.5 333,-270.5 333,-289.5"/>
<text text-anchor="middle" x="255.5" y="-277.5" font-family="Helvetica,sans-Serif" font-size="10.00">mc::optim::PSO::getParticles</text>
</a>
</g>
</g>
<!-- Node1&#45;&gt;Node3 -->
<g id="edge2_Node000001_Node000003" class="edge">
<title>Node1&#45;&gt;Node3</title>
<g id="a_edge2_Node000001_Node000003"><a xlink:title=" ">
<path fill="none" stroke="#63b8ff" d="M77.19,-178.66C92.98,-197.78 131.1,-240.47 173,-262 176.77,-263.94 180.74,-265.67 184.82,-267.21"/>
<polygon fill="#63b8ff" stroke="#63b8ff" points="183.89,-270.59 194.49,-270.49 186.14,-263.96 183.89,-270.59"/>
</a>
</g>
</g>
<!-- Node4 -->
<g id="Node000004" class="node">
<title>Node4</title>
<g id="a_Node000004"><a xlink:href="classmc_1_1optim_1_1PSO.html#a19b3b1fbd4b9386fbac33a9c80a0c0b9" target="_top" xlink:title="Execute the optimization loop for max_iterations.">
<polygon fill="white" stroke="#666666" points="325.5,-252.5 185.5,-252.5 185.5,-233.5 325.5,-233.5 325.5,-252.5"/>
<text text-anchor="middle" x="255.5" y="-240.5" font-family="Helvetica,sans-Serif" font-size="10.00">mc::optim::PSO::optimize</text>
</a>
</g>
</g>
<!-- Node1&#45;&gt;Node4 -->
<g id="edge3_Node000001_Node000004" class="edge">
<title>Node1&#45;&gt;Node4</title>
<g id="a_edge3_Node000001_Node000004"><a xlink:title=" ">
<path fill="none" stroke="#63b8ff" d="M83.97,-178.52C103.43,-190.93 139.5,-212.52 173,-225 178.88,-227.19 185.11,-229.16 191.39,-230.91"/>
<polygon fill="#63b8ff" stroke="#63b8ff" points="190.71,-234.35 201.27,-233.49 192.48,-227.58 190.71,-234.35"/>
</a>
</g>
</g>
<!-- Node11 -->
<g id="Node000011" class="node">
<title>Node11</title>
<g id="a_Node000011"><a xlink:href="namespacemc_1_1utils.html#a3ceed4391bc5e0e913e571767f101d92" target="_top" xlink:title=" ">
<polygon fill="white" stroke="#666666" points="330,-215.5 181,-215.5 181,-196.5 330,-196.5 330,-215.5"/>
<text text-anchor="middle" x="255.5" y="-203.5" font-family="Helvetica,sans-Serif" font-size="10.00">mc::utils::saveFunctionGrid</text>
</a>
</g>
</g>
<!-- Node1&#45;&gt;Node11 -->
<g id="edge11_Node000001_Node000011" class="edge">
<title>Node1&#45;&gt;Node11</title>
<g id="a_edge11_Node000001_Node000011"><a xlink:title=" ">
<path fill="none" stroke="#63b8ff" d="M117.14,-178.53C141.43,-183.39 171.17,-189.33 196.75,-194.45"/>
<polygon fill="#63b8ff" stroke="#63b8ff" points="196.21,-197.91 206.7,-196.44 197.58,-191.05 196.21,-197.91"/>
</a>
</g>
</g>
<!-- Node12 -->
<g id="Node000012" class="node">
<title>Node12</title>
<g id="a_Node000012"><a xlink:href="namespacemc_1_1utils.html#af95b980269dd473eecdbd0bf55dbcae2" target="_top" xlink:title=" ">
<polygon fill="white" stroke="#666666" points="331.5,-178.5 179.5,-178.5 179.5,-159.5 331.5,-159.5 331.5,-178.5"/>
<text text-anchor="middle" x="255.5" y="-166.5" font-family="Helvetica,sans-Serif" font-size="10.00">mc::utils::saveSwarmFrame</text>
</a>
</g>
</g>
<!-- Node1&#45;&gt;Node12 -->
<g id="edge12_Node000001_Node000012" class="edge">
<title>Node1&#45;&gt;Node12</title>
<g id="a_edge12_Node000001_Node000012"><a xlink:title=" ">
<path fill="none" stroke="#63b8ff" d="M137.07,-169C147.48,-169 158.34,-169 169.07,-169"/>
<polygon fill="#63b8ff" stroke="#63b8ff" points="169.3,-172.5 179.3,-169 169.3,-165.5 169.3,-172.5"/>
</a>
</g>
</g>
<!-- Node13 -->
<g id="Node000013" class="node">
<title>Node13</title>
<g id="a_Node000013"><a xlink:href="classmc_1_1optim_1_1PSO.html#a35977dbdfdc2785234ec21cc2d0805d2" target="_top" xlink:title="Set lower/upper bounds of the search hyper&#45;rectangle.">
<polygon fill="white" stroke="#666666" points="330,-141.5 181,-141.5 181,-122.5 330,-122.5 330,-141.5"/>
<text text-anchor="middle" x="255.5" y="-129.5" font-family="Helvetica,sans-Serif" font-size="10.00">mc::optim::PSO::setBounds</text>
</a>
</g>
</g>
<!-- Node1&#45;&gt;Node13 -->
<g id="edge13_Node000001_Node000013" class="edge">
<title>Node1&#45;&gt;Node13</title>
<g id="a_edge13_Node000001_Node000013"><a xlink:title=" ">
<path fill="none" stroke="#63b8ff" d="M117.14,-159.47C141.43,-154.61 171.17,-148.67 196.75,-143.55"/>
<polygon fill="#63b8ff" stroke="#63b8ff" points="197.58,-146.95 206.7,-141.56 196.21,-140.09 197.58,-146.95"/>
</a>
</g>
</g>
<!-- Node14 -->
<g id="Node000014" class="node">
<title>Node14</title>
<g id="a_Node000014"><a xlink:href="classmc_1_1optim_1_1PSO.html#a4f32542124c5a7ed481ef72a50a3a3ea" target="_top" xlink:title="Register a callback invoked after each step().">
<polygon fill="white" stroke="#666666" points="333,-104.5 178,-104.5 178,-85.5 333,-85.5 333,-104.5"/>
<text text-anchor="middle" x="255.5" y="-92.5" font-family="Helvetica,sans-Serif" font-size="10.00">mc::optim::PSO::setCallback</text>
</a>
</g>
</g>
<!-- Node1&#45;&gt;Node14 -->
<g id="edge14_Node000001_Node000014" class="edge">
<title>Node1&#45;&gt;Node14</title>
<g id="a_edge14_Node000001_Node000014"><a xlink:title=" ">
<path fill="none" stroke="#63b8ff" d="M83.97,-159.48C103.43,-147.07 139.5,-125.48 173,-113 178.88,-110.81 185.11,-108.84 191.39,-107.09"/>
<polygon fill="#63b8ff" stroke="#63b8ff" points="192.48,-110.42 201.27,-104.51 190.71,-103.65 192.48,-110.42"/>
</a>
</g>
</g>
<!-- Node15 -->
<g id="Node000015" class="node">
<title>Node15</title>
<g id="a_Node000015"><a xlink:href="classmc_1_1optim_1_1PSO.html#acca4147bc9775630078d327d180b1a8e" target="_top" xlink:title="Set optimization mode (minimize or maximize).">
<polygon fill="white" stroke="#666666" points="325.5,-67.5 185.5,-67.5 185.5,-48.5 325.5,-48.5 325.5,-67.5"/>
<text text-anchor="middle" x="255.5" y="-55.5" font-family="Helvetica,sans-Serif" font-size="10.00">mc::optim::PSO::setMode</text>
</a>
</g>
</g>
<!-- Node1&#45;&gt;Node15 -->
<g id="edge15_Node000001_Node000015" class="edge">
<title>Node1&#45;&gt;Node15</title>
<g id="a_edge15_Node000001_Node000015"><a xlink:title=" ">
<path fill="none" stroke="#63b8ff" d="M77.19,-159.34C92.98,-140.22 131.1,-97.53 173,-76 176.77,-74.06 180.74,-72.33 184.82,-70.79"/>
<polygon fill="#63b8ff" stroke="#63b8ff" points="186.14,-74.04 194.49,-67.51 183.89,-67.41 186.14,-74.04"/>
</a>
</g>
</g>
<!-- Node17 -->
<g id="Node000017" class="node">
<title>Node17</title>
<g id="a_Node000017"><a xlink:href="classmc_1_1optim_1_1PSO.html#a7b30ff4c321f120046b5552a85505378" target="_top" xlink:title="Set the objective function to optimize.">
<polygon fill="white" stroke="#666666" points="335,-30 176,-30 176,0 335,0 335,-30"/>
<text text-anchor="start" x="184" y="-18" font-family="Helvetica,sans-Serif" font-size="10.00">mc::optim::PSO::setObjective</text>
<text text-anchor="middle" x="255.5" y="-7" font-family="Helvetica,sans-Serif" font-size="10.00">Function</text>
</a>
</g>
</g>
<!-- Node1&#45;&gt;Node17 -->
<g id="edge17_Node000001_Node000017" class="edge">
<title>Node1&#45;&gt;Node17</title>
<g id="a_edge17_Node000001_Node000017"><a xlink:title=" ">
<path fill="none" stroke="#63b8ff" d="M74.53,-159.16C87.44,-134.9 124.18,-71.86 173,-39 175.41,-37.38 177.93,-35.86 180.53,-34.45"/>
<polygon fill="#63b8ff" stroke="#63b8ff" points="182.17,-37.54 189.64,-30.02 179.11,-31.25 182.17,-37.54"/>
</a>
</g>
</g>
<!-- Node5 -->
<g id="Node000005" class="node">
<title>Node5</title>
<g id="a_Node000005"><a xlink:href="classmc_1_1optim_1_1PSO.html#ab0e385c2603febae1bf503d8f6e36803" target="_top" xlink:title="Perform one PSO iteration: update velocity/position, evaluate, update personal and global bests.">
<polygon fill="white" stroke="#666666" points="493,-252.5 374,-252.5 374,-233.5 493,-233.5 493,-252.5"/>
<text text-anchor="middle" x="433.5" y="-240.5" font-family="Helvetica,sans-Serif" font-size="10.00">mc::optim::PSO::step</text>
</a>
</g>
</g>
<!-- Node4&#45;&gt;Node5 -->
<g id="edge4_Node000004_Node000005" class="edge">
<title>Node4&#45;&gt;Node5</title>
<g id="a_edge4_Node000004_Node000005"><a xlink:title=" ">
<path fill="none" stroke="#63b8ff" d="M325.55,-243C338.04,-243 351.07,-243 363.55,-243"/>
<polygon fill="#63b8ff" stroke="#63b8ff" points="363.89,-246.5 373.89,-243 363.89,-239.5 363.89,-246.5"/>
</a>
</g>
</g>
<!-- Node6 -->
<g id="Node000006" class="node">
<title>Node6</title>
<g id="a_Node000006"><a xlink:href="namespacemc_1_1rng.html#acc040fd4a9536fb66cae8144bc232ddd" target="_top" xlink:title="Create a deterministic RNG engine for a specific stream.">
<polygon fill="white" stroke="#666666" points="654,-252.5 529,-252.5 529,-233.5 654,-233.5 654,-252.5"/>
<text text-anchor="middle" x="591.5" y="-240.5" font-family="Helvetica,sans-Serif" font-size="10.00">mc::rng::make_engine</text>
</a>
</g>
</g>
<!-- Node5&#45;&gt;Node6 -->
<g id="edge5_Node000005_Node000006" class="edge">
<title>Node5&#45;&gt;Node6</title>
<g id="a_edge5_Node000005_Node000006"><a xlink:title=" ">
<path fill="none" stroke="#63b8ff" d="M493.03,-243C501.42,-243 510.13,-243 518.74,-243"/>
<polygon fill="#63b8ff" stroke="#63b8ff" points="518.77,-246.5 528.77,-243 518.77,-239.5 518.77,-246.5"/>
</a>
</g>
</g>
<!-- Node7 -->
<g id="Node000007" class="node">
<title>Node7</title>
<g id="a_Node000007"><a xlink:href="namespacemc_1_1rng_1_1detail.html#a38d2bbfd85016beeafdb31e4c1715477" target="_top" xlink:title=" ">
<polygon fill="white" stroke="#666666" points="827,-306 692,-306 692,-276 827,-276 827,-306"/>
<text text-anchor="start" x="700" y="-294" font-family="Helvetica,sans-Serif" font-size="10.00">mc::rng::detail::combine</text>
<text text-anchor="middle" x="759.5" y="-283" font-family="Helvetica,sans-Serif" font-size="10.00">_seeds</text>
</a>
</g>
</g>
<!-- Node6&#45;&gt;Node7 -->
<g id="edge6_Node000006_Node000007" class="edge">
<title>Node6&#45;&gt;Node7</title>
<g id="a_edge6_Node000006_Node000007"><a xlink:title=" ">
<path fill="none" stroke="#63b8ff" d="M625.69,-252.6C645.98,-258.47 672.58,-266.15 696.63,-273.11"/>
<polygon fill="#63b8ff" stroke="#63b8ff" points="695.83,-276.52 706.41,-275.94 697.77,-269.8 695.83,-276.52"/>
</a>
</g>
</g>
<!-- Node9 -->
<g id="Node000009" class="node">
<title>Node9</title>
<g id="a_Node000009"><a xlink:href="namespacemc_1_1rng_1_1detail.html#ab57e549b90087ff17a6516ced8a196ae" target="_top" xlink:title="Create mt19937 from a 64&#45;bit seed.">
<polygon fill="white" stroke="#666666" points="821.5,-258 697.5,-258 697.5,-228 821.5,-228 821.5,-258"/>
<text text-anchor="start" x="705.5" y="-246" font-family="Helvetica,sans-Serif" font-size="10.00">mc::rng::detail::create</text>
<text text-anchor="middle" x="759.5" y="-235" font-family="Helvetica,sans-Serif" font-size="10.00">_mt19937</text>
</a>
</g>
</g>
<!-- Node6&#45;&gt;Node9 -->
<g id="edge8_Node000006_Node000009" class="edge">
<title>Node6&#45;&gt;Node9</title>
<g id="a_edge8_Node000006_Node000009"><a xlink:title=" ">
<path fill="none" stroke="#63b8ff" d="M654.31,-243C665.11,-243 676.42,-243 687.44,-243"/>
<polygon fill="#63b8ff" stroke="#63b8ff" points="687.46,-246.5 697.46,-243 687.46,-239.5 687.46,-246.5"/>
</a>
</g>
</g>
<!-- Node10 -->
<g id="Node000010" class="node">
<title>Node10</title>
<g id="a_Node000010"><a xlink:href="namespacemc_1_1rng.html#ae8ce618a80ac94df709f1fd752932c0c" target="_top" xlink:title="Get the current global seed.">
<polygon fill="white" stroke="#666666" points="829,-209.5 690,-209.5 690,-190.5 829,-190.5 829,-209.5"/>
<text text-anchor="middle" x="759.5" y="-197.5" font-family="Helvetica,sans-Serif" font-size="10.00">mc::rng::get_global_seed</text>
</a>
</g>
</g>
<!-- Node6&#45;&gt;Node10 -->
<g id="edge10_Node000006_Node000010" class="edge">
<title>Node6&#45;&gt;Node10</title>
<g id="a_edge10_Node000006_Node000010"><a xlink:title=" ">
<path fill="none" stroke="#63b8ff" d="M629.34,-233.46C653.73,-227.14 685.93,-218.8 712.07,-212.03"/>
<polygon fill="#63b8ff" stroke="#63b8ff" points="712.96,-215.41 721.76,-209.52 711.2,-208.64 712.96,-215.41"/>
</a>
</g>
</g>
<!-- Node8 -->
<g id="Node000008" class="node">
<title>Node8</title>
<g id="a_Node000008"><a xlink:href="namespacemc_1_1rng_1_1detail.html#afd7cf835af1e7345389b5497652dd399" target="_top" xlink:title=" ">
<polygon fill="white" stroke="#666666" points="1034,-276.5 865,-276.5 865,-257.5 1034,-257.5 1034,-276.5"/>
<text text-anchor="middle" x="949.5" y="-264.5" font-family="Helvetica,sans-Serif" font-size="10.00">mc::rng::detail::splitmix64_mix</text>
</a>
</g>
</g>
<!-- Node7&#45;&gt;Node8 -->
<g id="edge7_Node000007_Node000008" class="edge">
<title>Node7&#45;&gt;Node8</title>
<g id="a_edge7_Node000007_Node000008"><a xlink:title=" ">
<path fill="none" stroke="#63b8ff" d="M827.05,-282.5C838.93,-280.99 851.45,-279.39 863.77,-277.82"/>
<polygon fill="#63b8ff" stroke="#63b8ff" points="864.56,-281.24 874.04,-276.51 863.67,-274.3 864.56,-281.24"/>
</a>
</g>
</g>
<!-- Node9&#45;&gt;Node8 -->
<g id="edge9_Node000009_Node000008" class="edge">
<title>Node9&#45;&gt;Node8</title>
<g id="a_edge9_Node000009_Node000008"><a xlink:title=" ">
<path fill="none" stroke="#63b8ff" d="M821.54,-250.79C835,-252.51 849.49,-254.36 863.7,-256.17"/>
<polygon fill="#63b8ff" stroke="#63b8ff" points="863.61,-259.69 873.97,-257.49 864.5,-252.75 863.61,-259.69"/>
</a>
</g>
</g>
<!-- Node16 -->
<g id="Node000016" class="node">
<title>Node16</title>
<g id="a_Node000016"><a xlink:href="structmc_1_1optim_1_1Solution.html#a611a6651c3a8910e5b1d9c53d03dade6" target="_top" xlink:title="Helper to create a worst&#45;case solution for initialization.">
<polygon fill="white" stroke="#666666" points="489.5,-73 377.5,-73 377.5,-43 489.5,-43 489.5,-73"/>
<text text-anchor="start" x="385.5" y="-61" font-family="Helvetica,sans-Serif" font-size="10.00">mc::optim::Solution</text>
<text text-anchor="middle" x="433.5" y="-50" font-family="Helvetica,sans-Serif" font-size="10.00">::make_worst</text>
</a>
</g>
</g>
<!-- Node15&#45;&gt;Node16 -->
<g id="edge16_Node000015_Node000016" class="edge">
<title>Node15&#45;&gt;Node16</title>
<g id="a_edge16_Node000015_Node000016"><a xlink:title=" ">
<path fill="none" stroke="#63b8ff" d="M325.55,-58C339.21,-58 353.51,-58 367.05,-58"/>
<polygon fill="#63b8ff" stroke="#63b8ff" points="367.23,-61.5 377.23,-58 367.23,-54.5 367.23,-61.5"/>
</a>
</g>
</g>
</g>
</svg>

<g id="navigator" transform="translate(0 0)" fill="#404254">
  <rect fill="#f2f5e9" fill-opacity="0.5" stroke="#606060" stroke-width=".5" x="0" y="0" width="60" height="60"/>
  <use id="zoomplus" xlink:href="#zoomPlus" x="17" y="9" onmousedown="handleZoom(evt,'in')"/>
  <use id="zoomminus" xlink:href="#zoomMin" x="42" y="9" onmousedown="handleZoom(evt,'out')"/>
  <use id="reset" xlink:href="#resetDef" x="30" y="36" onmousedown="handleReset()"/>
   <use id="arrowup" xlink:href="#arrowUp" x="0" y="0" onmousedown="handlePan(0,-1)"/>
  <use id="arrowright" xlink:href="#arrowRight" x="0" y="0" onmousedown="handlePan(1,0)"/>
  <use id="arrowdown" xlink:href="#arrowDown" x="0" y="0" onmousedown="handlePan(0,1)"/>
  <use id="arrowleft" xlink:href="#arrowLeft" x="0" y="0" onmousedown="handlePan(-1,0)"/>
</g>
<svg viewBox="0 0 15 15" width="100%" height="30px" preserveAspectRatio="xMaxYMin meet">
 <g id="arrow_out" transform="scale(0.3 0.3)">
  <a xlink:href="pso__benchmarks_8cpp_a4cbfe89ef2dc302f29f2843950537c7b_cgraph_org.svg" target="_base">
   <rect id="button" ry="5" rx="5" y="6" x="6" height="38" width="38"
        fill="#f2f5e9" fill-opacity="0.5" stroke="#606060" stroke-width="1.0"/>
   <path id="arrow"
     d="M 11.500037,31.436501 C 11.940474,20.09759 22.043105,11.32322 32.158766,21.979434 L 37.068811,17.246167 C 37.068811,17.246167 37.088388,32 37.088388,32 L 22.160133,31.978069 C 22.160133,31.978069 26.997745,27.140456 26.997745,27.140456 C 18.528582,18.264221 13.291696,25.230495 11.500037,31.436501 z"
     style="fill:#404040;"/>
  </a>
 </g>
</svg>

<style type='text/css'>
<![CDATA[
[data-mouse-over-selected='false'] { opacity: 0.7; }
[data-mouse-over-selected='true']  { opacity: 1.0; }
]]>
</style>
<script type="application/ecmascript"><![CDATA[
document.addEventListener('DOMContentLoaded', (event) => {
  highlightEdges();
  highlightAdjacentNodes();
});
]]></script>
</svg>
