<?xml version="1.0" encoding="UTF-8" standalone="no"?>
<!DOCTYPE svg PUBLIC "-//W3C//DTD SVG 1.1//EN"
 "http://www.w3.org/Graphics/SVG/1.1/DTD/svg11.dtd">
<!-- Generated by graphviz version 2.43.0 (0)
 -->
<!-- Title: runRastriginTest Pages: 1 -->
<svg width="994pt" height="240pt"
 viewBox="0.00 0.00 994.00 240.00" xmlns="http://www.w3.org/2000/svg" xmlns:xlink="http://www.w3.org/1999/xlink">
<g id="graph0" class="graph" transform="scale(1 1) rotate(0) translate(4 236)">
<title>runRastriginTest</title>
<!-- Node1 -->
<g id="Node000001" class="node">
<title>Node1</title>
<g id="a_Node000001"><a xlink:title="Test 3: High&#45;Dimensional Rastrigin Function Objective: Minimize f(x) = 10n + sum(x_i^2 &#45; 10cos(2*pi*x...">
<polygon fill="#999999" stroke="#666666" points="95,-104.5 0,-104.5 0,-85.5 95,-85.5 95,-104.5"/>
<text text-anchor="middle" x="47.5" y="-92.5" font-family="Helvetica,sans-Serif" font-size="10.00">runRastriginTest</text>
</a>
</g>
</g>
<!-- Node2 -->
<g id="Node000002" class="node">
<title>Node2</title>
<g id="a_Node000002"><a xlink:href="classmc_1_1optim_1_1PSO.html#a19b3b1fbd4b9386fbac33a9c80a0c0b9" target="_top" xlink:title="Execute the optimization loop for max_iterations.">
<polygon fill="white" stroke="#666666" points="280.5,-178.5 140.5,-178.5 140.5,-159.5 280.5,-159.5 280.5,-178.5"/>
<text text-anchor="middle" x="210.5" y="-166.5" font-family="Helvetica,sans-Serif" font-size="10.00">mc::optim::PSO::optimize</text>
</a>
</g>
</g>
<!-- Node1&#45;&gt;Node2 -->
<g id="edge1_Node000001_Node000002" class="edge">
<title>Node1&#45;&gt;Node2</title>
<g id="a_edge1_Node000001_Node000002"><a xlink:title=" ">
<path fill="none" stroke="#63b8ff" d="M59.71,-104.64C74.87,-117.17 103.23,-138.9 131,-151 135.69,-153.04 140.64,-154.87 145.68,-156.5"/>
<polygon fill="#63b8ff" stroke="#63b8ff" points="144.86,-159.91 155.44,-159.4 146.85,-153.19 144.86,-159.91"/>
</a>
</g>
</g>
<!-- Node9 -->
<g id="Node000009" class="node">
<title>Node9</title>
<g id="a_Node000009"><a xlink:href="classmc_1_1optim_1_1PSO.html#a35977dbdfdc2785234ec21cc2d0805d2" target="_top" xlink:title="Set lower/upper bounds of the search hyper&#45;rectangle.">
<polygon fill="white" stroke="#666666" points="285,-141.5 136,-141.5 136,-122.5 285,-122.5 285,-141.5"/>
<text text-anchor="middle" x="210.5" y="-129.5" font-family="Helvetica,sans-Serif" font-size="10.00">mc::optim::PSO::setBounds</text>
</a>
</g>
</g>
<!-- Node1&#45;&gt;Node9 -->
<g id="edge9_Node000001_Node000009" class="edge">
<title>Node1&#45;&gt;Node9</title>
<g id="a_edge9_Node000001_Node000009"><a xlink:title=" ">
<path fill="none" stroke="#63b8ff" d="M89.96,-104.53C110.73,-109.3 136.06,-115.12 158.06,-120.18"/>
<polygon fill="#63b8ff" stroke="#63b8ff" points="157.37,-123.61 167.9,-122.44 158.94,-116.79 157.37,-123.61"/>
</a>
</g>
</g>
<!-- Node10 -->
<g id="Node000010" class="node">
<title>Node10</title>
<g id="a_Node000010"><a xlink:href="classmc_1_1optim_1_1PSO.html#a4f32542124c5a7ed481ef72a50a3a3ea" target="_top" xlink:title="Register a callback invoked after each step().">
<polygon fill="white" stroke="#666666" points="288,-104.5 133,-104.5 133,-85.5 288,-85.5 288,-104.5"/>
<text text-anchor="middle" x="210.5" y="-92.5" font-family="Helvetica,sans-Serif" font-size="10.00">mc::optim::PSO::setCallback</text>
</a>
</g>
</g>
<!-- Node1&#45;&gt;Node10 -->
<g id="edge10_Node000001_Node000010" class="edge">
<title>Node1&#45;&gt;Node10</title>
<g id="a_edge10_Node000001_Node000010"><a xlink:title=" ">
<path fill="none" stroke="#63b8ff" d="M95.07,-95C103.73,-95 113.03,-95 122.46,-95"/>
<polygon fill="#63b8ff" stroke="#63b8ff" points="122.7,-98.5 132.7,-95 122.7,-91.5 122.7,-98.5"/>
</a>
</g>
</g>
<!-- Node11 -->
<g id="Node000011" class="node">
<title>Node11</title>
<g id="a_Node000011"><a xlink:href="classmc_1_1optim_1_1PSO.html#acca4147bc9775630078d327d180b1a8e" target="_top" xlink:title="Set optimization mode (minimize or maximize).">
<polygon fill="white" stroke="#666666" points="280.5,-67.5 140.5,-67.5 140.5,-48.5 280.5,-48.5 280.5,-67.5"/>
<text text-anchor="middle" x="210.5" y="-55.5" font-family="Helvetica,sans-Serif" font-size="10.00">mc::optim::PSO::setMode</text>
</a>
</g>
</g>
<!-- Node1&#45;&gt;Node11 -->
<g id="edge11_Node000001_Node000011" class="edge">
<title>Node1&#45;&gt;Node11</title>
<g id="a_edge11_Node000001_Node000011"><a xlink:title=" ">
<path fill="none" stroke="#63b8ff" d="M90.04,-85.42C103.15,-82.41 117.68,-79.06 131,-76 139.71,-74 148.97,-71.87 157.96,-69.81"/>
<polygon fill="#63b8ff" stroke="#63b8ff" points="158.98,-73.17 167.94,-67.52 157.41,-66.35 158.98,-73.17"/>
</a>
</g>
</g>
<!-- Node13 -->
<g id="Node000013" class="node">
<title>Node13</title>
<g id="a_Node000013"><a xlink:href="classmc_1_1optim_1_1PSO.html#a7b30ff4c321f120046b5552a85505378" target="_top" xlink:title="Set the objective function to optimize.">
<polygon fill="white" stroke="#666666" points="290,-30 131,-30 131,0 290,0 290,-30"/>
<text text-anchor="start" x="139" y="-18" font-family="Helvetica,sans-Serif" font-size="10.00">mc::optim::PSO::setObjective</text>
<text text-anchor="middle" x="210.5" y="-7" font-family="Helvetica,sans-Serif" font-size="10.00">Function</text>
</a>
</g>
</g>
<!-- Node1&#45;&gt;Node13 -->
<g id="edge13_Node000001_Node000013" class="edge">
<title>Node1&#45;&gt;Node13</title>
<g id="a_edge13_Node000001_Node000013"><a xlink:title=" ">
<path fill="none" stroke="#63b8ff" d="M60.11,-85.45C75.48,-73.2 103.83,-52.01 131,-39 135.01,-37.08 139.21,-35.27 143.5,-33.57"/>
<polygon fill="#63b8ff" stroke="#63b8ff" points="144.82,-36.81 152.97,-30.04 142.38,-30.26 144.82,-36.81"/>
</a>
</g>
</g>
<!-- Node3 -->
<g id="Node000003" class="node">
<title>Node3</title>
<g id="a_Node000003"><a xlink:href="classmc_1_1optim_1_1PSO.html#ab0e385c2603febae1bf503d8f6e36803" target="_top" xlink:title="Perform one PSO iteration: update velocity/position, evaluate, update personal and global bests.">
<polygon fill="white" stroke="#666666" points="445,-178.5 326,-178.5 326,-159.5 445,-159.5 445,-178.5"/>
<text text-anchor="middle" x="385.5" y="-166.5" font-family="Helvetica,sans-Serif" font-size="10.00">mc::optim::PSO::step</text>
</a>
</g>
</g>
<!-- Node2&#45;&gt;Node3 -->
<g id="edge2_Node000002_Node000003" class="edge">
<title>Node2&#45;&gt;Node3</title>
<g id="a_edge2_Node000002_Node000003"><a xlink:title=" ">
<path fill="none" stroke="#63b8ff" d="M280.87,-169C292.43,-169 304.41,-169 315.95,-169"/>
<polygon fill="#63b8ff" stroke="#63b8ff" points="315.96,-172.5 325.96,-169 315.96,-165.5 315.96,-172.5"/>
</a>
</g>
</g>
<!-- Node4 -->
<g id="Node000004" class="node">
<title>Node4</title>
<g id="a_Node000004"><a xlink:href="namespacemc_1_1rng.html#acc040fd4a9536fb66cae8144bc232ddd" target="_top" xlink:title="Create a deterministic RNG engine for a specific stream.">
<polygon fill="white" stroke="#666666" points="606,-178.5 481,-178.5 481,-159.5 606,-159.5 606,-178.5"/>
<text text-anchor="middle" x="543.5" y="-166.5" font-family="Helvetica,sans-Serif" font-size="10.00">mc::rng::make_engine</text>
</a>
</g>
</g>
<!-- Node3&#45;&gt;Node4 -->
<g id="edge3_Node000003_Node000004" class="edge">
<title>Node3&#45;&gt;Node4</title>
<g id="a_edge3_Node000003_Node000004"><a xlink:title=" ">
<path fill="none" stroke="#63b8ff" d="M445.03,-169C453.42,-169 462.13,-169 470.74,-169"/>
<polygon fill="#63b8ff" stroke="#63b8ff" points="470.77,-172.5 480.77,-169 470.77,-165.5 470.77,-172.5"/>
</a>
</g>
</g>
<!-- Node5 -->
<g id="Node000005" class="node">
<title>Node5</title>
<g id="a_Node000005"><a xlink:href="namespacemc_1_1rng_1_1detail.html#a38d2bbfd85016beeafdb31e4c1715477" target="_top" xlink:title=" ">
<polygon fill="white" stroke="#666666" points="779,-232 644,-232 644,-202 779,-202 779,-232"/>
<text text-anchor="start" x="652" y="-220" font-family="Helvetica,sans-Serif" font-size="10.00">mc::rng::detail::combine</text>
<text text-anchor="middle" x="711.5" y="-209" font-family="Helvetica,sans-Serif" font-size="10.00">_seeds</text>
</a>
</g>
</g>
<!-- Node4&#45;&gt;Node5 -->
<g id="edge4_Node000004_Node000005" class="edge">
<title>Node4&#45;&gt;Node5</title>
<g id="a_edge4_Node000004_Node000005"><a xlink:title=" ">
<path fill="none" stroke="#63b8ff" d="M577.69,-178.6C597.98,-184.47 624.58,-192.15 648.63,-199.11"/>
<polygon fill="#63b8ff" stroke="#63b8ff" points="647.83,-202.52 658.41,-201.94 649.77,-195.8 647.83,-202.52"/>
</a>
</g>
</g>
<!-- Node7 -->
<g id="Node000007" class="node">
<title>Node7</title>
<g id="a_Node000007"><a xlink:href="namespacemc_1_1rng_1_1detail.html#ab57e549b90087ff17a6516ced8a196ae" target="_top" xlink:title="Create mt19937 from a 64&#45;bit seed.">
<polygon fill="white" stroke="#666666" points="773.5,-184 649.5,-184 649.5,-154 773.5,-154 773.5,-184"/>
<text text-anchor="start" x="657.5" y="-172" font-family="Helvetica,sans-Serif" font-size="10.00">mc::rng::detail::create</text>
<text text-anchor="middle" x="711.5" y="-161" font-family="Helvetica,sans-Serif" font-size="10.00">_mt19937</text>
</a>
</g>
</g>
<!-- Node4&#45;&gt;Node7 -->
<g id="edge6_Node000004_Node000007" class="edge">
<title>Node4&#45;&gt;Node7</title>
<g id="a_edge6_Node000004_Node000007"><a xlink:title=" ">
<path fill="none" stroke="#63b8ff" d="M606.31,-169C617.11,-169 628.42,-169 639.44,-169"/>
<polygon fill="#63b8ff" stroke="#63b8ff" points="639.46,-172.5 649.46,-169 639.46,-165.5 639.46,-172.5"/>
</a>
</g>
</g>
<!-- Node8 -->
<g id="Node000008" class="node">
<title>Node8</title>
<g id="a_Node000008"><a xlink:href="namespacemc_1_1rng.html#ae8ce618a80ac94df709f1fd752932c0c" target="_top" xlink:title="Get the current global seed.">
<polygon fill="white" stroke="#666666" points="781,-135.5 642,-135.5 642,-116.5 781,-116.5 781,-135.5"/>
<text text-anchor="middle" x="711.5" y="-123.5" font-family="Helvetica,sans-Serif" font-size="10.00">mc::rng::get_global_seed</text>
</a>
</g>
</g>
<!-- Node4&#45;&gt;Node8 -->
<g id="edge8_Node000004_Node000008" class="edge">
<title>Node4&#45;&gt;Node8</title>
<g id="a_edge8_Node000004_Node000008"><a xlink:title=" ">
<path fill="none" stroke="#63b8ff" d="M581.34,-159.46C605.73,-153.14 637.93,-144.8 664.07,-138.03"/>
<polygon fill="#63b8ff" stroke="#63b8ff" points="664.96,-141.41 673.76,-135.52 663.2,-134.64 664.96,-141.41"/>
</a>
</g>
</g>
<!-- Node6 -->
<g id="Node000006" class="node">
<title>Node6</title>
<g id="a_Node000006"><a xlink:href="namespacemc_1_1rng_1_1detail.html#afd7cf835af1e7345389b5497652dd399" target="_top" xlink:title=" ">
<polygon fill="white" stroke="#666666" points="986,-202.5 817,-202.5 817,-183.5 986,-183.5 986,-202.5"/>
<text text-anchor="middle" x="901.5" y="-190.5" font-family="Helvetica,sans-Serif" font-size="10.00">mc::rng::detail::splitmix64_mix</text>
</a>
</g>
</g>
<!-- Node5&#45;&gt;Node6 -->
<g id="edge5_Node000005_Node000006" class="edge">
<title>Node5&#45;&gt;Node6</title>
<g id="a_edge5_Node000005_Node000006"><a xlink:title=" ">
<path fill="none" stroke="#63b8ff" d="M779.05,-208.5C790.93,-206.99 803.45,-205.39 815.77,-203.82"/>
<polygon fill="#63b8ff" stroke="#63b8ff" points="816.56,-207.24 826.04,-202.51 815.67,-200.3 816.56,-207.24"/>
</a>
</g>
</g>
<!-- Node7&#45;&gt;Node6 -->
<g id="edge7_Node000007_Node000006" class="edge">
<title>Node7&#45;&gt;Node6</title>
<g id="a_edge7_Node000007_Node000006"><a xlink:title=" ">
<path fill="none" stroke="#63b8ff" d="M773.54,-176.79C787,-178.51 801.49,-180.36 815.7,-182.17"/>
<polygon fill="#63b8ff" stroke="#63b8ff" points="815.61,-185.69 825.97,-183.49 816.5,-178.75 815.61,-185.69"/>
</a>
</g>
</g>
<!-- Node12 -->
<g id="Node000012" class="node">
<title>Node12</title>
<g id="a_Node000012"><a xlink:href="structmc_1_1optim_1_1Solution.html#a611a6651c3a8910e5b1d9c53d03dade6" target="_top" xlink:title="Helper to create a worst&#45;case solution for initialization.">
<polygon fill="white" stroke="#666666" points="441.5,-73 329.5,-73 329.5,-43 441.5,-43 441.5,-73"/>
<text text-anchor="start" x="337.5" y="-61" font-family="Helvetica,sans-Serif" font-size="10.00">mc::optim::Solution</text>
<text text-anchor="middle" x="385.5" y="-50" font-family="Helvetica,sans-Serif" font-size="10.00">::make_worst</text>
</a>
</g>
</g>
<!-- Node11&#45;&gt;Node12 -->
<g id="edge12_Node000011_Node000012" class="edge">
<title>Node11&#45;&gt;Node12</title>
<g id="a_edge12_Node000011_Node000012"><a xlink:title=" ">
<path fill="none" stroke="#63b8ff" d="M280.87,-58C293.5,-58 306.64,-58 319.15,-58"/>
<polygon fill="#63b8ff" stroke="#63b8ff" points="319.49,-61.5 329.49,-58 319.49,-54.5 319.49,-61.5"/>
</a>
</g>
</g>
</g>
</svg>
