<?xml version="1.0" encoding="UTF-8" standalone="no"?>
<!DOCTYPE svg PUBLIC "-//W3C//DTD SVG 1.1//EN"
 "http://www.w3.org/Graphics/SVG/1.1/DTD/svg11.dtd">
<!-- Generated by graphviz version 2.43.0 (0)
 -->
<!-- Title: runBoundaryTest Pages: 1 -->
<svg width="997pt" height="240pt"
 viewBox="0.00 0.00 997.00 240.00" xmlns="http://www.w3.org/2000/svg" xmlns:xlink="http://www.w3.org/1999/xlink">
<g id="graph0" class="graph" transform="scale(1 1) rotate(0) translate(4 236)">
<title>runBoundaryTest</title>
<!-- Node1 -->
<g id="Node000001" class="node">
<title>Node1</title>
<g id="a_Node000001"><a xlink:title="Test 2: Boundary Constraint Test Objective: Minimize f(x, y) = x + y This function is a constant incl...">
<polygon fill="#999999" stroke="#666666" points="98,-104.5 0,-104.5 0,-85.5 98,-85.5 98,-104.5"/>
<text text-anchor="middle" x="49" y="-92.5" font-family="Helvetica,sans-Serif" font-size="10.00">runBoundaryTest</text>
</a>
</g>
</g>
<!-- Node2 -->
<g id="Node000002" class="node">
<title>Node2</title>
<g id="a_Node000002"><a xlink:href="classmc_1_1optim_1_1PSO.html#a19b3b1fbd4b9386fbac33a9c80a0c0b9" target="_top" xlink:title="Execute the optimization loop for max_iterations.">
<polygon fill="white" stroke="#666666" points="283.5,-178.5 143.5,-178.5 143.5,-159.5 283.5,-159.5 283.5,-178.5"/>
<text text-anchor="middle" x="213.5" y="-166.5" font-family="Helvetica,sans-Serif" font-size="10.00">mc::optim::PSO::optimize</text>
</a>
</g>
</g>
<!-- Node1&#45;&gt;Node2 -->
<g id="edge1_Node000001_Node000002" class="edge">
<title>Node1&#45;&gt;Node2</title>
<g id="a_edge1_Node000001_Node000002"><a xlink:title=" ">
<path fill="none" stroke="#63b8ff" d="M61.45,-104.63C76.92,-117.15 105.83,-138.87 134,-151 138.77,-153.06 143.82,-154.89 148.95,-156.54"/>
<polygon fill="#63b8ff" stroke="#63b8ff" points="148.3,-159.99 158.88,-159.45 150.27,-153.28 148.3,-159.99"/>
</a>
</g>
</g>
<!-- Node9 -->
<g id="Node000009" class="node">
<title>Node9</title>
<g id="a_Node000009"><a xlink:href="classmc_1_1optim_1_1PSO.html#a35977dbdfdc2785234ec21cc2d0805d2" target="_top" xlink:title="Set lower/upper bounds of the search hyper&#45;rectangle.">
<polygon fill="white" stroke="#666666" points="288,-141.5 139,-141.5 139,-122.5 288,-122.5 288,-141.5"/>
<text text-anchor="middle" x="213.5" y="-129.5" font-family="Helvetica,sans-Serif" font-size="10.00">mc::optim::PSO::setBounds</text>
</a>
</g>
</g>
<!-- Node1&#45;&gt;Node9 -->
<g id="edge9_Node000001_Node000009" class="edge">
<title>Node1&#45;&gt;Node9</title>
<g id="a_edge9_Node000001_Node000009"><a xlink:title=" ">
<path fill="none" stroke="#63b8ff" d="M91.85,-104.53C112.81,-109.3 138.38,-115.12 160.58,-120.18"/>
<polygon fill="#63b8ff" stroke="#63b8ff" points="159.98,-123.63 170.51,-122.44 161.54,-116.81 159.98,-123.63"/>
</a>
</g>
</g>
<!-- Node10 -->
<g id="Node000010" class="node">
<title>Node10</title>
<g id="a_Node000010"><a xlink:href="classmc_1_1optim_1_1PSO.html#a4f32542124c5a7ed481ef72a50a3a3ea" target="_top" xlink:title="Register a callback invoked after each step().">
<polygon fill="white" stroke="#666666" points="291,-104.5 136,-104.5 136,-85.5 291,-85.5 291,-104.5"/>
<text text-anchor="middle" x="213.5" y="-92.5" font-family="Helvetica,sans-Serif" font-size="10.00">mc::optim::PSO::setCallback</text>
</a>
</g>
</g>
<!-- Node1&#45;&gt;Node10 -->
<g id="edge10_Node000001_Node000010" class="edge">
<title>Node1&#45;&gt;Node10</title>
<g id="a_edge10_Node000001_Node000010"><a xlink:title=" ">
<path fill="none" stroke="#63b8ff" d="M98.32,-95C106.97,-95 116.23,-95 125.59,-95"/>
<polygon fill="#63b8ff" stroke="#63b8ff" points="125.76,-98.5 135.76,-95 125.76,-91.5 125.76,-98.5"/>
</a>
</g>
</g>
<!-- Node11 -->
<g id="Node000011" class="node">
<title>Node11</title>
<g id="a_Node000011"><a xlink:href="classmc_1_1optim_1_1PSO.html#acca4147bc9775630078d327d180b1a8e" target="_top" xlink:title="Set optimization mode (minimize or maximize).">
<polygon fill="white" stroke="#666666" points="283.5,-67.5 143.5,-67.5 143.5,-48.5 283.5,-48.5 283.5,-67.5"/>
<text text-anchor="middle" x="213.5" y="-55.5" font-family="Helvetica,sans-Serif" font-size="10.00">mc::optim::PSO::setMode</text>
</a>
</g>
</g>
<!-- Node1&#45;&gt;Node11 -->
<g id="edge11_Node000001_Node000011" class="edge">
<title>Node1&#45;&gt;Node11</title>
<g id="a_edge11_Node000001_Node000011"><a xlink:title=" ">
<path fill="none" stroke="#63b8ff" d="M91.85,-85.47C112.81,-80.7 138.38,-74.88 160.58,-69.82"/>
<polygon fill="#63b8ff" stroke="#63b8ff" points="161.54,-73.19 170.51,-67.56 159.98,-66.37 161.54,-73.19"/>
</a>
</g>
</g>
<!-- Node13 -->
<g id="Node000013" class="node">
<title>Node13</title>
<g id="a_Node000013"><a xlink:href="classmc_1_1optim_1_1PSO.html#a7b30ff4c321f120046b5552a85505378" target="_top" xlink:title="Set the objective function to optimize.">
<polygon fill="white" stroke="#666666" points="293,-30 134,-30 134,0 293,0 293,-30"/>
<text text-anchor="start" x="142" y="-18" font-family="Helvetica,sans-Serif" font-size="10.00">mc::optim::PSO::setObjective</text>
<text text-anchor="middle" x="213.5" y="-7" font-family="Helvetica,sans-Serif" font-size="10.00">Function</text>
</a>
</g>
</g>
<!-- Node1&#45;&gt;Node13 -->
<g id="edge13_Node000001_Node000013" class="edge">
<title>Node1&#45;&gt;Node13</title>
<g id="a_edge13_Node000001_Node000013"><a xlink:title=" ">
<path fill="none" stroke="#63b8ff" d="M61.85,-85.46C77.54,-73.23 106.44,-52.05 134,-39 138.02,-37.1 142.23,-35.3 146.52,-33.61"/>
<polygon fill="#63b8ff" stroke="#63b8ff" points="147.84,-36.85 156,-30.09 145.4,-30.29 147.84,-36.85"/>
</a>
</g>
</g>
<!-- Node3 -->
<g id="Node000003" class="node">
<title>Node3</title>
<g id="a_Node000003"><a xlink:href="classmc_1_1optim_1_1PSO.html#ab0e385c2603febae1bf503d8f6e36803" target="_top" xlink:title="Perform one PSO iteration: update velocity/position, evaluate, update personal and global bests.">
<polygon fill="white" stroke="#666666" points="448,-178.5 329,-178.5 329,-159.5 448,-159.5 448,-178.5"/>
<text text-anchor="middle" x="388.5" y="-166.5" font-family="Helvetica,sans-Serif" font-size="10.00">mc::optim::PSO::step</text>
</a>
</g>
</g>
<!-- Node2&#45;&gt;Node3 -->
<g id="edge2_Node000002_Node000003" class="edge">
<title>Node2&#45;&gt;Node3</title>
<g id="a_edge2_Node000002_Node000003"><a xlink:title=" ">
<path fill="none" stroke="#63b8ff" d="M283.87,-169C295.43,-169 307.41,-169 318.95,-169"/>
<polygon fill="#63b8ff" stroke="#63b8ff" points="318.96,-172.5 328.96,-169 318.96,-165.5 318.96,-172.5"/>
</a>
</g>
</g>
<!-- Node4 -->
<g id="Node000004" class="node">
<title>Node4</title>
<g id="a_Node000004"><a xlink:href="namespacemc_1_1rng.html#acc040fd4a9536fb66cae8144bc232ddd" target="_top" xlink:title="Create a deterministic RNG engine for a specific stream.">
<polygon fill="white" stroke="#666666" points="609,-178.5 484,-178.5 484,-159.5 609,-159.5 609,-178.5"/>
<text text-anchor="middle" x="546.5" y="-166.5" font-family="Helvetica,sans-Serif" font-size="10.00">mc::rng::make_engine</text>
</a>
</g>
</g>
<!-- Node3&#45;&gt;Node4 -->
<g id="edge3_Node000003_Node000004" class="edge">
<title>Node3&#45;&gt;Node4</title>
<g id="a_edge3_Node000003_Node000004"><a xlink:title=" ">
<path fill="none" stroke="#63b8ff" d="M448.03,-169C456.42,-169 465.13,-169 473.74,-169"/>
<polygon fill="#63b8ff" stroke="#63b8ff" points="473.77,-172.5 483.77,-169 473.77,-165.5 473.77,-172.5"/>
</a>
</g>
</g>
<!-- Node5 -->
<g id="Node000005" class="node">
<title>Node5</title>
<g id="a_Node000005"><a xlink:href="namespacemc_1_1rng_1_1detail.html#a38d2bbfd85016beeafdb31e4c1715477" target="_top" xlink:title=" ">
<polygon fill="white" stroke="#666666" points="782,-232 647,-232 647,-202 782,-202 782,-232"/>
<text text-anchor="start" x="655" y="-220" font-family="Helvetica,sans-Serif" font-size="10.00">mc::rng::detail::combine</text>
<text text-anchor="middle" x="714.5" y="-209" font-family="Helvetica,sans-Serif" font-size="10.00">_seeds</text>
</a>
</g>
</g>
<!-- Node4&#45;&gt;Node5 -->
<g id="edge4_Node000004_Node000005" class="edge">
<title>Node4&#45;&gt;Node5</title>
<g id="a_edge4_Node000004_Node000005"><a xlink:title=" ">
<path fill="none" stroke="#63b8ff" d="M580.69,-178.6C600.98,-184.47 627.58,-192.15 651.63,-199.11"/>
<polygon fill="#63b8ff" stroke="#63b8ff" points="650.83,-202.52 661.41,-201.94 652.77,-195.8 650.83,-202.52"/>
</a>
</g>
</g>
<!-- Node7 -->
<g id="Node000007" class="node">
<title>Node7</title>
<g id="a_Node000007"><a xlink:href="namespacemc_1_1rng_1_1detail.html#ab57e549b90087ff17a6516ced8a196ae" target="_top" xlink:title="Create mt19937 from a 64&#45;bit seed.">
<polygon fill="white" stroke="#666666" points="776.5,-184 652.5,-184 652.5,-154 776.5,-154 776.5,-184"/>
<text text-anchor="start" x="660.5" y="-172" font-family="Helvetica,sans-Serif" font-size="10.00">mc::rng::detail::create</text>
<text text-anchor="middle" x="714.5" y="-161" font-family="Helvetica,sans-Serif" font-size="10.00">_mt19937</text>
</a>
</g>
</g>
<!-- Node4&#45;&gt;Node7 -->
<g id="edge6_Node000004_Node000007" class="edge">
<title>Node4&#45;&gt;Node7</title>
<g id="a_edge6_Node000004_Node000007"><a xlink:title=" ">
<path fill="none" stroke="#63b8ff" d="M609.31,-169C620.11,-169 631.42,-169 642.44,-169"/>
<polygon fill="#63b8ff" stroke="#63b8ff" points="642.46,-172.5 652.46,-169 642.46,-165.5 642.46,-172.5"/>
</a>
</g>
</g>
<!-- Node8 -->
<g id="Node000008" class="node">
<title>Node8</title>
<g id="a_Node000008"><a xlink:href="namespacemc_1_1rng.html#ae8ce618a80ac94df709f1fd752932c0c" target="_top" xlink:title="Get the current global seed.">
<polygon fill="white" stroke="#666666" points="784,-135.5 645,-135.5 645,-116.5 784,-116.5 784,-135.5"/>
<text text-anchor="middle" x="714.5" y="-123.5" font-family="Helvetica,sans-Serif" font-size="10.00">mc::rng::get_global_seed</text>
</a>
</g>
</g>
<!-- Node4&#45;&gt;Node8 -->
<g id="edge8_Node000004_Node000008" class="edge">
<title>Node4&#45;&gt;Node8</title>
<g id="a_edge8_Node000004_Node000008"><a xlink:title=" ">
<path fill="none" stroke="#63b8ff" d="M584.34,-159.46C608.73,-153.14 640.93,-144.8 667.07,-138.03"/>
<polygon fill="#63b8ff" stroke="#63b8ff" points="667.96,-141.41 676.76,-135.52 666.2,-134.64 667.96,-141.41"/>
</a>
</g>
</g>
<!-- Node6 -->
<g id="Node000006" class="node">
<title>Node6</title>
<g id="a_Node000006"><a xlink:href="namespacemc_1_1rng_1_1detail.html#afd7cf835af1e7345389b5497652dd399" target="_top" xlink:title=" ">
<polygon fill="white" stroke="#666666" points="989,-202.5 820,-202.5 820,-183.5 989,-183.5 989,-202.5"/>
<text text-anchor="middle" x="904.5" y="-190.5" font-family="Helvetica,sans-Serif" font-size="10.00">mc::rng::detail::splitmix64_mix</text>
</a>
</g>
</g>
<!-- Node5&#45;&gt;Node6 -->
<g id="edge5_Node000005_Node000006" class="edge">
<title>Node5&#45;&gt;Node6</title>
<g id="a_edge5_Node000005_Node000006"><a xlink:title=" ">
<path fill="none" stroke="#63b8ff" d="M782.05,-208.5C793.93,-206.99 806.45,-205.39 818.77,-203.82"/>
<polygon fill="#63b8ff" stroke="#63b8ff" points="819.56,-207.24 829.04,-202.51 818.67,-200.3 819.56,-207.24"/>
</a>
</g>
</g>
<!-- Node7&#45;&gt;Node6 -->
<g id="edge7_Node000007_Node000006" class="edge">
<title>Node7&#45;&gt;Node6</title>
<g id="a_edge7_Node000007_Node000006"><a xlink:title=" ">
<path fill="none" stroke="#63b8ff" d="M776.54,-176.79C790,-178.51 804.49,-180.36 818.7,-182.17"/>
<polygon fill="#63b8ff" stroke="#63b8ff" points="818.61,-185.69 828.97,-183.49 819.5,-178.75 818.61,-185.69"/>
</a>
</g>
</g>
<!-- Node12 -->
<g id="Node000012" class="node">
<title>Node12</title>
<g id="a_Node000012"><a xlink:href="structmc_1_1optim_1_1Solution.html#a611a6651c3a8910e5b1d9c53d03dade6" target="_top" xlink:title="Helper to create a worst&#45;case solution for initialization.">
<polygon fill="white" stroke="#666666" points="444.5,-73 332.5,-73 332.5,-43 444.5,-43 444.5,-73"/>
<text text-anchor="start" x="340.5" y="-61" font-family="Helvetica,sans-Serif" font-size="10.00">mc::optim::Solution</text>
<text text-anchor="middle" x="388.5" y="-50" font-family="Helvetica,sans-Serif" font-size="10.00">::make_worst</text>
</a>
</g>
</g>
<!-- Node11&#45;&gt;Node12 -->
<g id="edge12_Node000011_Node000012" class="edge">
<title>Node11&#45;&gt;Node12</title>
<g id="a_edge12_Node000011_Node000012"><a xlink:title=" ">
<path fill="none" stroke="#63b8ff" d="M283.87,-58C296.5,-58 309.64,-58 322.15,-58"/>
<polygon fill="#63b8ff" stroke="#63b8ff" points="322.49,-61.5 332.49,-58 322.49,-54.5 322.49,-61.5"/>
</a>
</g>
</g>
</g>
</svg>
