<?xml version="1.0" encoding="UTF-8" standalone="no"?>
<!DOCTYPE svg PUBLIC "-//W3C//DTD SVG 1.1//EN"
 "http://www.w3.org/Graphics/SVG/1.1/DTD/svg11.dtd">
<!-- Generated by graphviz version 2.43.0 (0)
 -->
<!-- Title: src/montecarlo/rng/rng_factory.hpp Pages: 1 -->
<svg width="976pt" height="104pt"
 viewBox="0.00 0.00 975.50 104.00" xmlns="http://www.w3.org/2000/svg" xmlns:xlink="http://www.w3.org/1999/xlink">
<g id="graph0" class="graph" transform="scale(1 1) rotate(0) translate(4 100)">
<title>src/montecarlo/rng/rng_factory.hpp</title>
<!-- Node1 -->
<g id="Node000001" class="node">
<title>Node1</title>
<g id="a_Node000001"><a xlink:title="Factory for creating deterministic, independent RNG engines.">
<polygon fill="#999999" stroke="#666666" points="588.5,-96 480.5,-96 480.5,-66 588.5,-66 588.5,-96"/>
<text text-anchor="start" x="488.5" y="-84" font-family="Helvetica,sans-Serif" font-size="10.00">src/montecarlo/rng</text>
<text text-anchor="middle" x="534.5" y="-73" font-family="Helvetica,sans-Serif" font-size="10.00">/rng_factory.hpp</text>
</a>
</g>
</g>
<!-- Node2 -->
<g id="Node000002" class="node">
<title>Node2</title>
<g id="a_Node000002"><a xlink:href="drone__optimization_8cpp.html" target="_top" xlink:title="Drone arm center of mass optimization using PSO with high&#45;precision verification.">
<polygon fill="white" stroke="#666666" points="175,-24.5 0,-24.5 0,-5.5 175,-5.5 175,-24.5"/>
<text text-anchor="middle" x="87.5" y="-12.5" font-family="Helvetica,sans-Serif" font-size="10.00">src/apps/drone_optimization.cpp</text>
</a>
</g>
</g>
<!-- Node1&#45;&gt;Node2 -->
<g id="edge1_Node000001_Node000002" class="edge">
<title>Node1&#45;&gt;Node2</title>
<g id="a_edge1_Node000001_Node000002"><a xlink:title=" ">
<path fill="none" stroke="#63b8ff" d="M470.21,-70.84C400.01,-60.84 284.25,-44.32 184.5,-30 172.21,-28.23 159.03,-26.34 146.49,-24.53"/>
<polygon fill="#63b8ff" stroke="#63b8ff" points="469.84,-74.33 480.23,-72.27 470.83,-67.4 469.84,-74.33"/>
</a>
</g>
</g>
<!-- Node3 -->
<g id="Node000003" class="node">
<title>Node3</title>
<g id="a_Node000003"><a xlink:href="test__rng__reproducibility_8cpp.html" target="_top" xlink:title="Test suite for RNG reproducibility and optimizer determinism.">
<polygon fill="white" stroke="#666666" points="387.5,-24.5 193.5,-24.5 193.5,-5.5 387.5,-5.5 387.5,-24.5"/>
<text text-anchor="middle" x="290.5" y="-12.5" font-family="Helvetica,sans-Serif" font-size="10.00">src/apps/test_rng_reproducibility.cpp</text>
</a>
</g>
</g>
<!-- Node1&#45;&gt;Node3 -->
<g id="edge2_Node000001_Node000003" class="edge">
<title>Node1&#45;&gt;Node3</title>
<g id="a_edge2_Node000001_Node000003"><a xlink:title=" ">
<path fill="none" stroke="#63b8ff" d="M471.07,-63.36C423.61,-50.91 360.63,-34.4 322.97,-24.52"/>
<polygon fill="#63b8ff" stroke="#63b8ff" points="470.39,-66.8 480.95,-65.95 472.17,-60.03 470.39,-66.8"/>
</a>
</g>
</g>
<!-- Node4 -->
<g id="Node000004" class="node">
<title>Node4</title>
<g id="a_Node000004"><a xlink:href="wind__farm__simulator_8cpp.html" target="_top" xlink:title="Wind Farm Layout Optimization using Hybrid MH&#45;Monte Carlo + PSO/GA.">
<polygon fill="white" stroke="#666666" points="517.5,-30 405.5,-30 405.5,0 517.5,0 517.5,-30"/>
<text text-anchor="start" x="413.5" y="-18" font-family="Helvetica,sans-Serif" font-size="10.00">src/apps/wind_farm</text>
<text text-anchor="middle" x="461.5" y="-7" font-family="Helvetica,sans-Serif" font-size="10.00">_simulator.cpp</text>
</a>
</g>
</g>
<!-- Node1&#45;&gt;Node4 -->
<g id="edge3_Node000001_Node000004" class="edge">
<title>Node1&#45;&gt;Node4</title>
<g id="a_edge3_Node000001_Node000004"><a xlink:title=" ">
<path fill="none" stroke="#63b8ff" d="M510.78,-59.2C499.94,-49.7 487.38,-38.69 477.66,-30.16"/>
<polygon fill="#63b8ff" stroke="#63b8ff" points="508.47,-61.84 518.3,-65.8 513.09,-56.57 508.47,-61.84"/>
</a>
</g>
</g>
<!-- Node5 -->
<g id="Node000005" class="node">
<title>Node5</title>
<g id="a_Node000005"><a xlink:href="GA_8cpp.html" target="_top" xlink:title="Genetic Algorithm implementation.">
<polygon fill="white" stroke="#666666" points="679.5,-30 535.5,-30 535.5,0 679.5,0 679.5,-30"/>
<text text-anchor="start" x="543.5" y="-18" font-family="Helvetica,sans-Serif" font-size="10.00">src/montecarlo/optimizers</text>
<text text-anchor="middle" x="607.5" y="-7" font-family="Helvetica,sans-Serif" font-size="10.00">/GA.cpp</text>
</a>
</g>
</g>
<!-- Node1&#45;&gt;Node5 -->
<g id="edge4_Node000001_Node000005" class="edge">
<title>Node1&#45;&gt;Node5</title>
<g id="a_edge4_Node000001_Node000005"><a xlink:title=" ">
<path fill="none" stroke="#63b8ff" d="M558.22,-59.2C569.06,-49.7 581.62,-38.69 591.34,-30.16"/>
<polygon fill="#63b8ff" stroke="#63b8ff" points="555.91,-56.57 550.7,-65.8 560.53,-61.84 555.91,-56.57"/>
</a>
</g>
</g>
<!-- Node6 -->
<g id="Node000006" class="node">
<title>Node6</title>
<g id="a_Node000006"><a xlink:href="PSO_8cpp.html" target="_top" xlink:title="Particle Swarm Optimization implementation.">
<polygon fill="white" stroke="#666666" points="841.5,-30 697.5,-30 697.5,0 841.5,0 841.5,-30"/>
<text text-anchor="start" x="705.5" y="-18" font-family="Helvetica,sans-Serif" font-size="10.00">src/montecarlo/optimizers</text>
<text text-anchor="middle" x="769.5" y="-7" font-family="Helvetica,sans-Serif" font-size="10.00">/PSO.cpp</text>
</a>
</g>
</g>
<!-- Node1&#45;&gt;Node6 -->
<g id="edge5_Node000001_Node000006" class="edge">
<title>Node1&#45;&gt;Node6</title>
<g id="a_edge5_Node000001_Node000006"><a xlink:title=" ">
<path fill="none" stroke="#63b8ff" d="M595.99,-63.25C633.96,-52.91 682.11,-39.8 718.05,-30.01"/>
<polygon fill="#63b8ff" stroke="#63b8ff" points="594.8,-59.95 586.07,-65.95 596.64,-66.7 594.8,-59.95"/>
</a>
</g>
</g>
<!-- Node7 -->
<g id="Node000007" class="node">
<title>Node7</title>
<g id="a_Node000007"><a xlink:href="rng__factory_8cpp.html" target="_top" xlink:title="Implementation of RNG factory functions.">
<polygon fill="white" stroke="#666666" points="967.5,-30 859.5,-30 859.5,0 967.5,0 967.5,-30"/>
<text text-anchor="start" x="867.5" y="-18" font-family="Helvetica,sans-Serif" font-size="10.00">src/montecarlo/rng</text>
<text text-anchor="middle" x="913.5" y="-7" font-family="Helvetica,sans-Serif" font-size="10.00">/rng_factory.cpp</text>
</a>
</g>
</g>
<!-- Node1&#45;&gt;Node7 -->
<g id="edge6_Node000001_Node000007" class="edge">
<title>Node1&#45;&gt;Node7</title>
<g id="a_edge6_Node000001_Node000007"><a xlink:title=" ">
<path fill="none" stroke="#63b8ff" d="M598.58,-71.05C662.56,-61.83 763.61,-46.51 850.5,-30 853.36,-29.46 856.29,-28.88 859.25,-28.28"/>
<polygon fill="#63b8ff" stroke="#63b8ff" points="598.03,-67.59 588.63,-72.47 599.03,-74.52 598.03,-67.59"/>
</a>
</g>
</g>
</g>
</svg>
