<?xml version="1.0" encoding="UTF-8" standalone="no"?>
<!DOCTYPE svg PUBLIC "-//W3C//DTD SVG 1.1//EN"
 "http://www.w3.org/Graphics/SVG/1.1/DTD/svg11.dtd">
<!-- Generated by graphviz version 2.43.0 (0)
 -->
<!-- Title: src/montecarlo/rng/rng_factory.cpp Pages: 1 -->
<svg width="323pt" height="148pt"
 viewBox="0.00 0.00 322.50 148.00" xmlns="http://www.w3.org/2000/svg" xmlns:xlink="http://www.w3.org/1999/xlink">

<svg id="main" version="1.1" xmlns="http://www.w3.org/2000/svg" xmlns:xlink="http://www.w3.org/1999/xlink" xml:space="preserve" onload="init(evt)">
<style type="text/css"><![CDATA[
.node, .edge {opacity: 0.7;}
.node.selected, .edge.selected {opacity: 1;}
.edge:hover path { stroke: red; }
.edge:hover polygon { stroke: red; fill: red; }
]]></style>
<script type="application/ecmascript" xlink:href="svg.min.js"/>
<svg id="graph" class="graph">
<g id="graph0" class="graph" transform="scale(1 1) rotate(0) translate(4 144)">
<title>src/montecarlo/rng/rng_factory.cpp</title>
<!-- Node1 -->
<g id="Node000001" class="node">
<title>Node1</title>
<g id="a_Node000001"><a xlink:title="Implementation of RNG factory functions.">
<polygon fill="#999999" stroke="#666666" points="253,-140 145,-140 145,-110 253,-110 253,-140"/>
<text text-anchor="start" x="153" y="-128" font-family="Helvetica,sans-Serif" font-size="10.00">src/montecarlo/rng</text>
<text text-anchor="middle" x="199" y="-117" font-family="Helvetica,sans-Serif" font-size="10.00">/rng_factory.cpp</text>
</a>
</g>
</g>
<!-- Node2 -->
<g id="Node000002" class="node">
<title>Node2</title>
<g id="a_Node000002"><a xlink:href="rng__factory_8hpp.html" target="_top" xlink:title="Factory for creating deterministic, independent RNG engines.">
<polygon fill="white" stroke="#666666" points="136,-74 44,-74 44,-55 136,-55 136,-74"/>
<text text-anchor="middle" x="90" y="-62" font-family="Helvetica,sans-Serif" font-size="10.00">rng_factory.hpp</text>
</a>
</g>
</g>
<!-- Node1&#45;&gt;Node2 -->
<g id="edge1_Node000001_Node000002" class="edge">
<title>Node1&#45;&gt;Node2</title>
<g id="a_edge1_Node000001_Node000002"><a xlink:title=" ">
<path fill="none" stroke="#63b8ff" d="M172.89,-109.99C155.36,-100.58 132.38,-88.24 115.06,-78.95"/>
<polygon fill="#63b8ff" stroke="#63b8ff" points="116.56,-75.78 106.1,-74.14 113.25,-81.95 116.56,-75.78"/>
</a>
</g>
</g>
<!-- Node6 -->
<g id="Node000006" class="node">
<title>Node6</title>
<g id="a_Node000006"><a xlink:href="rng__global_8hpp.html" target="_top" xlink:title=" ">
<polygon fill="white" stroke="#666666" points="243.5,-74 154.5,-74 154.5,-55 243.5,-55 243.5,-74"/>
<text text-anchor="middle" x="199" y="-62" font-family="Helvetica,sans-Serif" font-size="10.00">rng_global.hpp</text>
</a>
</g>
</g>
<!-- Node1&#45;&gt;Node6 -->
<g id="edge5_Node000001_Node000006" class="edge">
<title>Node1&#45;&gt;Node6</title>
<g id="a_edge5_Node000001_Node000006"><a xlink:title=" ">
<path fill="none" stroke="#63b8ff" d="M199,-109.84C199,-102.21 199,-92.7 199,-84.45"/>
<polygon fill="#63b8ff" stroke="#63b8ff" points="202.5,-84.27 199,-74.27 195.5,-84.27 202.5,-84.27"/>
</a>
</g>
</g>
<!-- Node7 -->
<g id="Node000007" class="node">
<title>Node7</title>
<g id="a_Node000007"><a xlink:title=" ">
<polygon fill="#e0e0e0" stroke="#999999" points="314.5,-74 261.5,-74 261.5,-55 314.5,-55 314.5,-74"/>
<text text-anchor="middle" x="288" y="-62" font-family="Helvetica,sans-Serif" font-size="10.00">iterator</text>
</a>
</g>
</g>
<!-- Node1&#45;&gt;Node7 -->
<g id="edge7_Node000001_Node000007" class="edge">
<title>Node1&#45;&gt;Node7</title>
<g id="a_edge7_Node000001_Node000007"><a xlink:title=" ">
<path fill="none" stroke="#63b8ff" d="M220.54,-109.84C234.47,-100.68 252.53,-88.82 266.45,-79.66"/>
<polygon fill="#63b8ff" stroke="#63b8ff" points="268.49,-82.51 274.92,-74.09 264.65,-76.66 268.49,-82.51"/>
</a>
</g>
</g>
<!-- Node3 -->
<g id="Node000003" class="node">
<title>Node3</title>
<g id="a_Node000003"><a xlink:title=" ">
<polygon fill="#e0e0e0" stroke="#999999" points="54,-19 0,-19 0,0 54,0 54,-19"/>
<text text-anchor="middle" x="27" y="-7" font-family="Helvetica,sans-Serif" font-size="10.00">random</text>
</a>
</g>
</g>
<!-- Node2&#45;&gt;Node3 -->
<g id="edge2_Node000002_Node000003" class="edge">
<title>Node2&#45;&gt;Node3</title>
<g id="a_edge2_Node000002_Node000003"><a xlink:title=" ">
<path fill="none" stroke="#63b8ff" d="M79.88,-54.98C70.56,-47.15 56.53,-35.34 45.26,-25.86"/>
<polygon fill="#63b8ff" stroke="#63b8ff" points="47.21,-22.93 37.31,-19.17 42.71,-28.29 47.21,-22.93"/>
</a>
</g>
</g>
<!-- Node4 -->
<g id="Node000004" class="node">
<title>Node4</title>
<g id="a_Node000004"><a xlink:title=" ">
<polygon fill="#e0e0e0" stroke="#999999" points="215,-19 165,-19 165,0 215,0 215,-19"/>
<text text-anchor="middle" x="190" y="-7" font-family="Helvetica,sans-Serif" font-size="10.00">cstdint</text>
</a>
</g>
</g>
<!-- Node2&#45;&gt;Node4 -->
<g id="edge3_Node000002_Node000004" class="edge">
<title>Node2&#45;&gt;Node4</title>
<g id="a_edge3_Node000002_Node000004"><a xlink:title=" ">
<path fill="none" stroke="#63b8ff" d="M106.07,-54.98C121.86,-46.61 146.22,-33.7 164.63,-23.95"/>
<polygon fill="#63b8ff" stroke="#63b8ff" points="166.44,-26.95 173.64,-19.17 163.17,-20.76 166.44,-26.95"/>
</a>
</g>
</g>
<!-- Node5 -->
<g id="Node000005" class="node">
<title>Node5</title>
<g id="a_Node000005"><a xlink:title=" ">
<polygon fill="#e0e0e0" stroke="#999999" points="128,-19 72,-19 72,0 128,0 128,-19"/>
<text text-anchor="middle" x="100" y="-7" font-family="Helvetica,sans-Serif" font-size="10.00">optional</text>
</a>
</g>
</g>
<!-- Node2&#45;&gt;Node5 -->
<g id="edge4_Node000002_Node000005" class="edge">
<title>Node2&#45;&gt;Node5</title>
<g id="a_edge4_Node000002_Node000005"><a xlink:title=" ">
<path fill="none" stroke="#63b8ff" d="M91.65,-54.75C92.96,-47.8 94.84,-37.85 96.48,-29.13"/>
<polygon fill="#63b8ff" stroke="#63b8ff" points="99.96,-29.56 98.38,-19.09 93.09,-28.27 99.96,-29.56"/>
</a>
</g>
</g>
<!-- Node6&#45;&gt;Node4 -->
<g id="edge6_Node000006_Node000004" class="edge">
<title>Node6&#45;&gt;Node4</title>
<g id="a_edge6_Node000006_Node000004"><a xlink:title=" ">
<path fill="none" stroke="#63b8ff" d="M197.51,-54.75C196.33,-47.8 194.64,-37.85 193.16,-29.13"/>
<polygon fill="#63b8ff" stroke="#63b8ff" points="196.58,-28.36 191.46,-19.09 189.68,-29.53 196.58,-28.36"/>
</a>
</g>
</g>
</g>
</svg>
</svg>

<style type='text/css'>
<![CDATA[
[data-mouse-over-selected='false'] { opacity: 0.7; }
[data-mouse-over-selected='true']  { opacity: 1.0; }
]]>
</style>
<script type="application/ecmascript"><![CDATA[
document.addEventListener('DOMContentLoaded', (event) => {
  highlightEdges();
  highlightAdjacentNodes();
});
]]></script>
</svg>
