<?xml version="1.0" encoding="UTF-8" standalone="no"?>
<!DOCTYPE svg PUBLIC "-//W3C//DTD SVG 1.1//EN"
 "http://www.w3.org/Graphics/SVG/1.1/DTD/svg11.dtd">
<!-- Generated by graphviz version 2.43.0 (0)
 -->
<!-- Title: mc::estimators::VolumeEstimate&lt; dim &gt; Pages: 1 -->
<svg width="178pt" height="113pt"
 viewBox="0.00 0.00 178.00 113.00" xmlns="http://www.w3.org/2000/svg" xmlns:xlink="http://www.w3.org/1999/xlink">
<g id="graph0" class="graph" transform="scale(1 1) rotate(0) translate(4 109)">
<title>mc::estimators::VolumeEstimate&lt; dim &gt;</title>
<!-- Node1 -->
<g id="Node000001" class="node">
<title>Node1</title>
<g id="a_Node000001"><a xlink:title="Result of Monte Carlo volume estimation.">
<polygon fill="#999999" stroke="transparent" points="170,-105 0,-105 0,0 170,0 170,-105"/>
<text text-anchor="start" x="5" y="-92.5" font-family="Helvetica,sans-Serif" font-size="10.00">mc::estimators::VolumeEstimate</text>
<text text-anchor="start" x="64" y="-81.5" font-family="Helvetica,sans-Serif" font-size="10.00">&lt; dim &gt;</text>
<text text-anchor="start" x="26.5" y="-66.5" font-family="Helvetica,sans-Serif" font-size="10.00">+</text>
<text text-anchor="start" x="62" y="-66.5" font-family="Helvetica,sans-Serif" font-size="10.00">volume</text>
<text text-anchor="start" x="26.5" y="-51.5" font-family="Helvetica,sans-Serif" font-size="10.00">+</text>
<text text-anchor="start" x="62" y="-51.5" font-family="Helvetica,sans-Serif" font-size="10.00">stderr</text>
<text text-anchor="start" x="26.5" y="-36.5" font-family="Helvetica,sans-Serif" font-size="10.00">+</text>
<text text-anchor="start" x="62" y="-36.5" font-family="Helvetica,sans-Serif" font-size="10.00">inside_ratio</text>
<text text-anchor="start" x="26.5" y="-21.5" font-family="Helvetica,sans-Serif" font-size="10.00">+</text>
<text text-anchor="start" x="62" y="-21.5" font-family="Helvetica,sans-Serif" font-size="10.00">n_samples</text>
<text text-anchor="start" x="83" y="-6.5" font-family="Helvetica,sans-Serif" font-size="10.00"> </text>
<polygon fill="#666666" stroke="#666666" points="0,-76.5 0,-76.5 170,-76.5 170,-76.5 0,-76.5"/>
<polygon fill="#666666" stroke="#666666" points="0,-16.5 0,-16.5 60,-16.5 60,-16.5 0,-16.5"/>
<polygon fill="#666666" stroke="#666666" points="60,-16.5 60,-16.5 170,-16.5 170,-16.5 60,-16.5"/>
<polygon fill="none" stroke="#666666" points="0,0 0,-105 170,-105 170,0 0,0"/>
</a>
</g>
</g>
</g>
</svg>
