<?xml version="1.0" encoding="UTF-8" standalone="no"?>
<!DOCTYPE svg PUBLIC "-//W3C//DTD SVG 1.1//EN"
 "http://www.w3.org/Graphics/SVG/1.1/DTD/svg11.dtd">
<!-- Generated by graphviz version 2.43.0 (0)
 -->
<!-- Title: src/montecarlo/optimizers/types.hpp Pages: 1 -->
<!--zoomable 302 -->

<svg id="main" version="1.1" xmlns="http://www.w3.org/2000/svg" xmlns:xlink="http://www.w3.org/1999/xlink" xml:space="preserve" onload="init(evt)">
<style type="text/css"><![CDATA[
.node, .edge {opacity: 0.7;}
.node.selected, .edge.selected {opacity: 1;}
.edge:hover path { stroke: red; }
.edge:hover polygon { stroke: red; fill: red; }
]]></style>

<defs>
  <circle id="rim" cx="0" cy="0" r="7"/>
  <circle id="rim2" cx="0" cy="0" r="3.5"/>
  <g id="zoomPlus">
    <use xlink:href="#rim" fill="#404040"><set attributeName="fill" to="#808080" begin="zoomplus.mouseover" end="zoomplus.mouseout"/></use>
    <path d="M-4,0h8M0,-4v8" fill="none" stroke="white" stroke-width="1.5" pointer-events="none"/>
  </g>
  <g id="zoomMin">
    <use xlink:href="#rim" fill="#404040"><set attributeName="fill" to="#808080" begin="zoomminus.mouseover" end="zoomminus.mouseout"/></use>
    <path d="M-4,0h8" fill="none" stroke="white" stroke-width="1.5" pointer-events="none"/>
  </g>
  <g id="arrowUp" transform="translate(30 24)">
    <use xlink:href="#rim"/>
    <path pointer-events="none" fill="none" stroke="white" stroke-width="1.5" d="M0,-3.0v7 M-2.5,-0.5L0,-3.0L2.5,-0.5"/>
  </g>
  <g id="arrowRight" transform="rotate(90) translate(36 -43)">
    <use xlink:href="#rim"/>
    <path pointer-events="none" fill="none" stroke="white" stroke-width="1.5" d="M0,-3.0v7 M-2.5,-0.5L0,-3.0L2.5,-0.5"/>
  </g>
  <g id="arrowDown" transform="rotate(180) translate(-30 -48)">
    <use xlink:href="#rim"/>
    <path pointer-events="none" fill="none" stroke="white" stroke-width="1.5" d="M0,-3.0v7 M-2.5,-0.5L0,-3.0L2.5,-0.5"/>
  </g>
  <g id="arrowLeft" transform="rotate(270) translate(-36 17)">
    <use xlink:href="#rim"/>
    <path pointer-events="none" fill="none" stroke="white" stroke-width="1.5" d="M0,-3.0v7 M-2.5,-0.5L0,-3.0L2.5,-0.5"/>
  </g>
  <g id="resetDef">
    <use xlink:href="#rim2" fill="#404040"><set attributeName="fill" to="#808080" begin="reset.mouseover" end="reset.mouseout"/></use>
  </g>
</defs>
<script type="application/ecmascript">
var viewWidth = 1009;
var viewHeight = 302;
var sectionId = 'dynsection-1';
</script>
<script type="application/ecmascript" xlink:href="svg.min.js"/>
<svg id="graph" class="graph">
<g id="viewport">
<title>src/montecarlo/optimizers/types.hpp</title>
<!-- Node1 -->
<g id="Node000001" class="node">
<title>Node1</title>
<g id="a_Node000001"><a xlink:title="Core optimizer type definitions for the Monte Carlo toolkit.">
<polygon fill="#999999" stroke="#666666" points="213,-294 69,-294 69,-264 213,-264 213,-294"/>
<text text-anchor="start" x="77" y="-282" font-family="Helvetica,sans-Serif" font-size="10.00">src/montecarlo/optimizers</text>
<text text-anchor="middle" x="141" y="-271" font-family="Helvetica,sans-Serif" font-size="10.00">/types.hpp</text>
</a>
</g>
</g>
<!-- Node2 -->
<g id="Node000002" class="node">
<title>Node2</title>
<g id="a_Node000002"><a xlink:href="wind__farm__simulator_8cpp.html" target="_top" xlink:title="Wind Farm Layout Optimization using Hybrid MH&#45;Monte Carlo + PSO/GA.">
<polygon fill="white" stroke="#666666" points="112,-96 0,-96 0,-66 112,-66 112,-96"/>
<text text-anchor="start" x="8" y="-84" font-family="Helvetica,sans-Serif" font-size="10.00">src/apps/wind_farm</text>
<text text-anchor="middle" x="56" y="-73" font-family="Helvetica,sans-Serif" font-size="10.00">_simulator.cpp</text>
</a>
</g>
</g>
<!-- Node1&#45;&gt;Node2 -->
<g id="edge1_Node000001_Node000002" class="edge">
<title>Node1&#45;&gt;Node2</title>
<g id="a_edge1_Node000001_Node000002"><a xlink:title=" ">
<path fill="none" stroke="#63b8ff" d="M130.89,-254.68C113.09,-213.64 76.68,-129.7 62.17,-96.23"/>
<polygon fill="#63b8ff" stroke="#63b8ff" points="127.7,-256.12 134.89,-263.9 134.12,-253.34 127.7,-256.12"/>
</a>
</g>
</g>
<!-- Node3 -->
<g id="Node000003" class="node">
<title>Node3</title>
<g id="a_Node000003"><a xlink:href="optimizer_8hpp.html" target="_top" xlink:title="Abstract optimizer interface for PSO, GA, and future algorithms.">
<polygon fill="white" stroke="#666666" points="286,-228 142,-228 142,-198 286,-198 286,-228"/>
<text text-anchor="start" x="150" y="-216" font-family="Helvetica,sans-Serif" font-size="10.00">src/montecarlo/optimizers</text>
<text text-anchor="middle" x="214" y="-205" font-family="Helvetica,sans-Serif" font-size="10.00">/optimizer.hpp</text>
</a>
</g>
</g>
<!-- Node1&#45;&gt;Node3 -->
<g id="edge2_Node000001_Node000003" class="edge">
<title>Node1&#45;&gt;Node3</title>
<g id="a_edge2_Node000001_Node000003"><a xlink:title=" ">
<path fill="none" stroke="#63b8ff" d="M164.72,-257.2C175.56,-247.7 188.12,-236.69 197.84,-228.16"/>
<polygon fill="#63b8ff" stroke="#63b8ff" points="162.41,-254.57 157.2,-263.8 167.03,-259.84 162.41,-254.57"/>
</a>
</g>
</g>
<!-- Node4 -->
<g id="Node000004" class="node">
<title>Node4</title>
<g id="a_Node000004"><a xlink:href="GA_8hpp.html" target="_top" xlink:title="Genetic Algorithm (GA) interface and data structures.">
<polygon fill="white" stroke="#666666" points="286,-162 142,-162 142,-132 286,-132 286,-162"/>
<text text-anchor="start" x="150" y="-150" font-family="Helvetica,sans-Serif" font-size="10.00">src/montecarlo/optimizers</text>
<text text-anchor="middle" x="214" y="-139" font-family="Helvetica,sans-Serif" font-size="10.00">/GA.hpp</text>
</a>
</g>
</g>
<!-- Node3&#45;&gt;Node4 -->
<g id="edge3_Node000003_Node000004" class="edge">
<title>Node3&#45;&gt;Node4</title>
<g id="a_edge3_Node000003_Node000004"><a xlink:title=" ">
<path fill="none" stroke="#63b8ff" d="M214,-187.54C214,-178.96 214,-169.61 214,-162.16"/>
<polygon fill="#63b8ff" stroke="#63b8ff" points="210.5,-187.8 214,-197.8 217.5,-187.8 210.5,-187.8"/>
</a>
</g>
</g>
<!-- Node13 -->
<g id="Node000013" class="node">
<title>Node13</title>
<g id="a_Node000013"><a xlink:href="PSO_8hpp.html" target="_top" xlink:title="Particle Swarm Optimization (PSO) interface and data structures.">
<polygon fill="white" stroke="#666666" points="554,-162 410,-162 410,-132 554,-132 554,-162"/>
<text text-anchor="start" x="418" y="-150" font-family="Helvetica,sans-Serif" font-size="10.00">src/montecarlo/optimizers</text>
<text text-anchor="middle" x="482" y="-139" font-family="Helvetica,sans-Serif" font-size="10.00">/PSO.hpp</text>
</a>
</g>
</g>
<!-- Node3&#45;&gt;Node13 -->
<g id="edge13_Node000003_Node000013" class="edge">
<title>Node3&#45;&gt;Node13</title>
<g id="a_edge13_Node000003_Node000013"><a xlink:title=" ">
<path fill="none" stroke="#63b8ff" d="M282.75,-195.58C326.25,-185.19 381.9,-171.9 423.32,-162.01"/>
<polygon fill="#63b8ff" stroke="#63b8ff" points="281.73,-192.23 272.81,-197.95 283.35,-199.04 281.73,-192.23"/>
</a>
</g>
</g>
<!-- Node4&#45;&gt;Node2 -->
<g id="edge11_Node000004_Node000002" class="edge">
<title>Node4&#45;&gt;Node2</title>
<g id="a_edge11_Node000004_Node000002"><a xlink:title=" ">
<path fill="none" stroke="#63b8ff" d="M170.03,-128.19C144.94,-118.02 113.93,-105.47 90.59,-96.01"/>
<polygon fill="#63b8ff" stroke="#63b8ff" points="168.74,-131.44 179.33,-131.95 171.37,-124.96 168.74,-131.44"/>
</a>
</g>
</g>
<!-- Node5 -->
<g id="Node000005" class="node">
<title>Node5</title>
<g id="a_Node000005"><a xlink:href="benchmarks_8hpp.html" target="_top" xlink:title="Benchmarking framework for Monte Carlo integration algorithms.">
<polygon fill="white" stroke="#666666" points="645.5,-90.5 504.5,-90.5 504.5,-71.5 645.5,-71.5 645.5,-90.5"/>
<text text-anchor="middle" x="575" y="-78.5" font-family="Helvetica,sans-Serif" font-size="10.00">src/apps/benchmarks.hpp</text>
</a>
</g>
</g>
<!-- Node4&#45;&gt;Node5 -->
<g id="edge4_Node000004_Node000005" class="edge">
<title>Node4&#45;&gt;Node5</title>
<g id="a_edge4_Node000004_Node000005"><a xlink:title=" ">
<path fill="none" stroke="#63b8ff" d="M296.47,-131.38C367.66,-118.76 468.06,-100.96 526.86,-90.53"/>
<polygon fill="#63b8ff" stroke="#63b8ff" points="295.42,-128.01 286.19,-133.2 296.64,-134.9 295.42,-128.01"/>
</a>
</g>
</g>
<!-- Node11 -->
<g id="Node000011" class="node">
<title>Node11</title>
<g id="a_Node000011"><a xlink:href="test__rng__reproducibility_8cpp.html" target="_top" xlink:title="Test suite for RNG reproducibility and optimizer determinism.">
<polygon fill="white" stroke="#666666" points="486,-90.5 292,-90.5 292,-71.5 486,-71.5 486,-90.5"/>
<text text-anchor="middle" x="389" y="-78.5" font-family="Helvetica,sans-Serif" font-size="10.00">src/apps/test_rng_reproducibility.cpp</text>
</a>
</g>
</g>
<!-- Node4&#45;&gt;Node11 -->
<g id="edge10_Node000004_Node000011" class="edge">
<title>Node4&#45;&gt;Node11</title>
<g id="a_edge10_Node000004_Node000011"><a xlink:title=" ">
<path fill="none" stroke="#63b8ff" d="M262.07,-128.42C295.79,-116.09 339.38,-100.15 365.71,-90.52"/>
<polygon fill="#63b8ff" stroke="#63b8ff" points="260.59,-125.23 252.4,-131.95 263,-131.81 260.59,-125.23"/>
</a>
</g>
</g>
<!-- Node12 -->
<g id="Node000012" class="node">
<title>Node12</title>
<g id="a_Node000012"><a xlink:href="GA_8cpp.html" target="_top" xlink:title="Genetic Algorithm implementation.">
<polygon fill="white" stroke="#666666" points="274,-96 130,-96 130,-66 274,-66 274,-96"/>
<text text-anchor="start" x="138" y="-84" font-family="Helvetica,sans-Serif" font-size="10.00">src/montecarlo/optimizers</text>
<text text-anchor="middle" x="202" y="-73" font-family="Helvetica,sans-Serif" font-size="10.00">/GA.cpp</text>
</a>
</g>
</g>
<!-- Node4&#45;&gt;Node12 -->
<g id="edge12_Node000004_Node000012" class="edge">
<title>Node4&#45;&gt;Node12</title>
<g id="a_edge12_Node000004_Node000012"><a xlink:title=" ">
<path fill="none" stroke="#63b8ff" d="M209.47,-121.83C207.84,-113.17 206.07,-103.7 204.66,-96.16"/>
<polygon fill="#63b8ff" stroke="#63b8ff" points="206.05,-122.61 211.34,-131.8 212.93,-121.32 206.05,-122.61"/>
</a>
</g>
</g>
<!-- Node6 -->
<g id="Node000006" class="node">
<title>Node6</title>
<g id="a_Node000006"><a xlink:href="benchmarks_8cpp.html" target="_top" xlink:title="Implementation of shared benchmark utilities and global configuration.">
<polygon fill="white" stroke="#666666" points="340,-24.5 200,-24.5 200,-5.5 340,-5.5 340,-24.5"/>
<text text-anchor="middle" x="270" y="-12.5" font-family="Helvetica,sans-Serif" font-size="10.00">src/apps/benchmarks.cpp</text>
</a>
</g>
</g>
<!-- Node5&#45;&gt;Node6 -->
<g id="edge5_Node000005_Node000006" class="edge">
<title>Node5&#45;&gt;Node6</title>
<g id="a_edge5_Node000005_Node000006"><a xlink:title=" ">
<path fill="none" stroke="#63b8ff" d="M524.18,-69.34C464.2,-56.75 365.69,-36.08 310.58,-24.51"/>
<polygon fill="#63b8ff" stroke="#63b8ff" points="523.68,-72.81 534.18,-71.44 525.11,-65.96 523.68,-72.81"/>
</a>
</g>
</g>
<!-- Node7 -->
<g id="Node000007" class="node">
<title>Node7</title>
<g id="a_Node000007"><a xlink:href="ga__benchmarks_8cpp.html" target="_top" xlink:title="Genetic Algorithm benchmark suite with visualization.">
<polygon fill="white" stroke="#666666" points="478,-30 358,-30 358,0 478,0 478,-30"/>
<text text-anchor="start" x="366" y="-18" font-family="Helvetica,sans-Serif" font-size="10.00">src/apps/benchmarks</text>
<text text-anchor="middle" x="418" y="-7" font-family="Helvetica,sans-Serif" font-size="10.00">/ga_benchmarks.cpp</text>
</a>
</g>
</g>
<!-- Node5&#45;&gt;Node7 -->
<g id="edge6_Node000005_Node000007" class="edge">
<title>Node5&#45;&gt;Node7</title>
<g id="a_edge6_Node000005_Node000007"><a xlink:title=" ">
<path fill="none" stroke="#63b8ff" d="M544.35,-67.5C518.01,-56.77 480.06,-41.3 452.63,-30.12"/>
<polygon fill="#63b8ff" stroke="#63b8ff" points="543.24,-70.83 553.83,-71.37 545.89,-64.35 543.24,-70.83"/>
</a>
</g>
</g>
<!-- Node8 -->
<g id="Node000008" class="node">
<title>Node8</title>
<g id="a_Node000008"><a xlink:href="integration__benchmarks_8cpp.html" target="_top" xlink:title="Benchmark suite for Monte Carlo integration algorithms.">
<polygon fill="white" stroke="#666666" points="654,-30 496,-30 496,0 654,0 654,-30"/>
<text text-anchor="start" x="504" y="-18" font-family="Helvetica,sans-Serif" font-size="10.00">src/apps/benchmarks</text>
<text text-anchor="middle" x="575" y="-7" font-family="Helvetica,sans-Serif" font-size="10.00">/integration_benchmarks.cpp</text>
</a>
</g>
</g>
<!-- Node5&#45;&gt;Node8 -->
<g id="edge7_Node000005_Node000008" class="edge">
<title>Node5&#45;&gt;Node8</title>
<g id="a_edge7_Node000005_Node000008"><a xlink:title=" ">
<path fill="none" stroke="#63b8ff" d="M575,-61.35C575,-51.47 575,-39.51 575,-30.36"/>
<polygon fill="#63b8ff" stroke="#63b8ff" points="571.5,-61.37 575,-71.37 578.5,-61.37 571.5,-61.37"/>
</a>
</g>
</g>
<!-- Node9 -->
<g id="Node000009" class="node">
<title>Node9</title>
<g id="a_Node000009"><a xlink:href="pso__benchmarks_8cpp.html" target="_top" xlink:title="Particle Swarm Optimization benchmark suite.">
<polygon fill="white" stroke="#666666" points="794,-30 672,-30 672,0 794,0 794,-30"/>
<text text-anchor="start" x="680" y="-18" font-family="Helvetica,sans-Serif" font-size="10.00">src/apps/benchmarks</text>
<text text-anchor="middle" x="733" y="-7" font-family="Helvetica,sans-Serif" font-size="10.00">/pso_benchmarks.cpp</text>
</a>
</g>
</g>
<!-- Node5&#45;&gt;Node9 -->
<g id="edge8_Node000005_Node000009" class="edge">
<title>Node5&#45;&gt;Node9</title>
<g id="a_edge8_Node000005_Node000009"><a xlink:title=" ">
<path fill="none" stroke="#63b8ff" d="M605.85,-67.5C632.35,-56.77 670.55,-41.3 698.15,-30.12"/>
<polygon fill="#63b8ff" stroke="#63b8ff" points="604.26,-64.37 596.31,-71.37 606.89,-70.86 604.26,-64.37"/>
</a>
</g>
</g>
<!-- Node10 -->
<g id="Node000010" class="node">
<title>Node10</title>
<g id="a_Node000010"><a xlink:href="main_8cpp.html" target="_top" xlink:title="Command&#45;line interface for Monte Carlo integration and benchmarking.">
<polygon fill="white" stroke="#666666" points="917.5,-24.5 812.5,-24.5 812.5,-5.5 917.5,-5.5 917.5,-24.5"/>
<text text-anchor="middle" x="865" y="-12.5" font-family="Helvetica,sans-Serif" font-size="10.00">src/apps/main.cpp</text>
</a>
</g>
</g>
<!-- Node5&#45;&gt;Node10 -->
<g id="edge9_Node000005_Node000010" class="edge">
<title>Node5&#45;&gt;Node10</title>
<g id="a_edge9_Node000005_Node000010"><a xlink:title=" ">
<path fill="none" stroke="#63b8ff" d="M624.19,-69.31C670.38,-59.24 741.4,-43.71 803,-30 810.86,-28.25 819.28,-26.36 827.3,-24.55"/>
<polygon fill="#63b8ff" stroke="#63b8ff" points="623.18,-65.94 614.15,-71.49 624.67,-72.78 623.18,-65.94"/>
</a>
</g>
</g>
<!-- Node13&#45;&gt;Node2 -->
<g id="edge17_Node000013_Node000002" class="edge">
<title>Node13&#45;&gt;Node2</title>
<g id="a_edge17_Node000013_Node000002"><a xlink:title=" ">
<path fill="none" stroke="#63b8ff" d="M399.73,-136.38C326.39,-127.38 216.21,-112.82 121,-96 118.16,-95.5 115.25,-94.96 112.32,-94.4"/>
<polygon fill="#63b8ff" stroke="#63b8ff" points="399.48,-139.87 409.83,-137.61 400.33,-132.92 399.48,-139.87"/>
</a>
</g>
</g>
<!-- Node13&#45;&gt;Node5 -->
<g id="edge14_Node000013_Node000005" class="edge">
<title>Node13&#45;&gt;Node5</title>
<g id="a_edge14_Node000013_Node000005"><a xlink:title=" ">
<path fill="none" stroke="#63b8ff" d="M511.25,-125.87C528.46,-114.03 549.36,-99.65 562.42,-90.66"/>
<polygon fill="#63b8ff" stroke="#63b8ff" points="508.89,-123.24 502.64,-131.8 512.86,-129.01 508.89,-123.24"/>
</a>
</g>
</g>
<!-- Node13&#45;&gt;Node11 -->
<g id="edge16_Node000013_Node000011" class="edge">
<title>Node13&#45;&gt;Node11</title>
<g id="a_edge16_Node000013_Node000011"><a xlink:title=" ">
<path fill="none" stroke="#63b8ff" d="M452.75,-125.87C435.54,-114.03 414.64,-99.65 401.58,-90.66"/>
<polygon fill="#63b8ff" stroke="#63b8ff" points="451.14,-129.01 461.36,-131.8 455.11,-123.24 451.14,-129.01"/>
</a>
</g>
</g>
<!-- Node14 -->
<g id="Node000014" class="node">
<title>Node14</title>
<g id="a_Node000014"><a xlink:href="drone__optimization_8cpp.html" target="_top" xlink:title="Drone arm center of mass optimization using PSO with high&#45;precision verification.">
<polygon fill="white" stroke="#666666" points="838.5,-90.5 663.5,-90.5 663.5,-71.5 838.5,-71.5 838.5,-90.5"/>
<text text-anchor="middle" x="751" y="-78.5" font-family="Helvetica,sans-Serif" font-size="10.00">src/apps/drone_optimization.cpp</text>
</a>
</g>
</g>
<!-- Node13&#45;&gt;Node14 -->
<g id="edge15_Node000013_Node000014" class="edge">
<title>Node13&#45;&gt;Node14</title>
<g id="a_edge15_Node000013_Node000014"><a xlink:title=" ">
<path fill="none" stroke="#63b8ff" d="M550.94,-129.6C603.38,-117.12 673.42,-100.46 715.2,-90.52"/>
<polygon fill="#63b8ff" stroke="#63b8ff" points="549.95,-126.24 541.03,-131.95 551.57,-133.05 549.95,-126.24"/>
</a>
</g>
</g>
<!-- Node15 -->
<g id="Node000015" class="node">
<title>Node15</title>
<g id="a_Node000015"><a xlink:href="PSO_8cpp.html" target="_top" xlink:title="Particle Swarm Optimization implementation.">
<polygon fill="white" stroke="#666666" points="1001,-96 857,-96 857,-66 1001,-66 1001,-96"/>
<text text-anchor="start" x="865" y="-84" font-family="Helvetica,sans-Serif" font-size="10.00">src/montecarlo/optimizers</text>
<text text-anchor="middle" x="929" y="-73" font-family="Helvetica,sans-Serif" font-size="10.00">/PSO.cpp</text>
</a>
</g>
</g>
<!-- Node13&#45;&gt;Node15 -->
<g id="edge18_Node000013_Node000015" class="edge">
<title>Node13&#45;&gt;Node15</title>
<g id="a_edge18_Node000013_Node000015"><a xlink:title=" ">
<path fill="none" stroke="#63b8ff" d="M564.55,-135.57C638.81,-125.99 750.85,-111.03 848,-96 850.82,-95.56 853.69,-95.11 856.6,-94.64"/>
<polygon fill="#63b8ff" stroke="#63b8ff" points="563.8,-132.14 554.33,-136.89 564.7,-139.08 563.8,-132.14"/>
</a>
</g>
</g>
</g>
</svg>

<g id="navigator" transform="translate(0 0)" fill="#404254">
  <rect fill="#f2f5e9" fill-opacity="0.5" stroke="#606060" stroke-width=".5" x="0" y="0" width="60" height="60"/>
  <use id="zoomplus" xlink:href="#zoomPlus" x="17" y="9" onmousedown="handleZoom(evt,'in')"/>
  <use id="zoomminus" xlink:href="#zoomMin" x="42" y="9" onmousedown="handleZoom(evt,'out')"/>
  <use id="reset" xlink:href="#resetDef" x="30" y="36" onmousedown="handleReset()"/>
   <use id="arrowup" xlink:href="#arrowUp" x="0" y="0" onmousedown="handlePan(0,-1)"/>
  <use id="arrowright" xlink:href="#arrowRight" x="0" y="0" onmousedown="handlePan(1,0)"/>
  <use id="arrowdown" xlink:href="#arrowDown" x="0" y="0" onmousedown="handlePan(0,1)"/>
  <use id="arrowleft" xlink:href="#arrowLeft" x="0" y="0" onmousedown="handlePan(-1,0)"/>
</g>
<svg viewBox="0 0 15 15" width="100%" height="30px" preserveAspectRatio="xMaxYMin meet">
 <g id="arrow_out" transform="scale(0.3 0.3)">
  <a xlink:href="types_8hpp__dep__incl_org.svg" target="_base">
   <rect id="button" ry="5" rx="5" y="6" x="6" height="38" width="38"
        fill="#f2f5e9" fill-opacity="0.5" stroke="#606060" stroke-width="1.0"/>
   <path id="arrow"
     d="M 11.500037,31.436501 C 11.940474,20.09759 22.043105,11.32322 32.158766,21.979434 L 37.068811,17.246167 C 37.068811,17.246167 37.088388,32 37.088388,32 L 22.160133,31.978069 C 22.160133,31.978069 26.997745,27.140456 26.997745,27.140456 C 18.528582,18.264221 13.291696,25.230495 11.500037,31.436501 z"
     style="fill:#404040;"/>
  </a>
 </g>
</svg>

<style type='text/css'>
<![CDATA[
[data-mouse-over-selected='false'] { opacity: 0.7; }
[data-mouse-over-selected='true']  { opacity: 1.0; }
]]>
</style>
<script type="application/ecmascript"><![CDATA[
document.addEventListener('DOMContentLoaded', (event) => {
  highlightEdges();
  highlightAdjacentNodes();
});
]]></script>
</svg>
