<?xml version="1.0" encoding="UTF-8" standalone="no"?>
<!DOCTYPE svg PUBLIC "-//W3C//DTD SVG 1.1//EN"
 "http://www.w3.org/Graphics/SVG/1.1/DTD/svg11.dtd">
<!-- Generated by graphviz version 2.43.0 (0)
 -->
<!-- Title: src/montecarlo/estimators/VolumeEstimatorMC.hpp Pages: 1 -->
<svg width="827pt" height="236pt"
 viewBox="0.00 0.00 827.00 236.00" xmlns="http://www.w3.org/2000/svg" xmlns:xlink="http://www.w3.org/1999/xlink">
<g id="graph0" class="graph" transform="scale(1 1) rotate(0) translate(4 232)">
<title>src/montecarlo/estimators/VolumeEstimatorMC.hpp</title>
<!-- Node1 -->
<g id="Node000001" class="node">
<title>Node1</title>
<g id="a_Node000001"><a xlink:title="Hit&#45;or&#45;Miss Monte Carlo volume estimation.">
<polygon fill="#999999" stroke="#666666" points="557.5,-228 412.5,-228 412.5,-198 557.5,-198 557.5,-228"/>
<text text-anchor="start" x="420.5" y="-216" font-family="Helvetica,sans-Serif" font-size="10.00">src/montecarlo/estimators</text>
<text text-anchor="middle" x="485" y="-205" font-family="Helvetica,sans-Serif" font-size="10.00">/VolumeEstimatorMC.hpp</text>
</a>
</g>
</g>
<!-- Node2 -->
<g id="Node000002" class="node">
<title>Node2</title>
<g id="a_Node000002"><a xlink:href="ISintegrator_8hpp.html" target="_top" xlink:title="Importance sampling Monte Carlo integration engine.">
<polygon fill="white" stroke="#666666" points="394,-162 248,-162 248,-132 394,-132 394,-162"/>
<text text-anchor="start" x="256" y="-150" font-family="Helvetica,sans-Serif" font-size="10.00">src/montecarlo/integrators</text>
<text text-anchor="middle" x="321" y="-139" font-family="Helvetica,sans-Serif" font-size="10.00">/ISintegrator.hpp</text>
</a>
</g>
</g>
<!-- Node1&#45;&gt;Node2 -->
<g id="edge1_Node000001_Node000002" class="edge">
<title>Node1&#45;&gt;Node2</title>
<g id="a_edge1_Node000001_Node000002"><a xlink:title=" ">
<path fill="none" stroke="#63b8ff" d="M439.36,-194.19C413.31,-184.02 381.13,-171.47 356.91,-162.01"/>
<polygon fill="#63b8ff" stroke="#63b8ff" points="438.42,-197.58 449.01,-197.95 440.97,-191.06 438.42,-197.58"/>
</a>
</g>
</g>
<!-- Node9 -->
<g id="Node000009" class="node">
<title>Node9</title>
<g id="a_Node000009"><a xlink:href="MCintegrator_8hpp.html" target="_top" xlink:title="Classic Monte Carlo integration engine.">
<polygon fill="white" stroke="#666666" points="558,-162 412,-162 412,-132 558,-132 558,-162"/>
<text text-anchor="start" x="420" y="-150" font-family="Helvetica,sans-Serif" font-size="10.00">src/montecarlo/integrators</text>
<text text-anchor="middle" x="485" y="-139" font-family="Helvetica,sans-Serif" font-size="10.00">/MCintegrator.hpp</text>
</a>
</g>
</g>
<!-- Node1&#45;&gt;Node9 -->
<g id="edge9_Node000001_Node000009" class="edge">
<title>Node1&#45;&gt;Node9</title>
<g id="a_edge9_Node000001_Node000009"><a xlink:title=" ">
<path fill="none" stroke="#63b8ff" d="M485,-187.54C485,-178.96 485,-169.61 485,-162.16"/>
<polygon fill="#63b8ff" stroke="#63b8ff" points="481.5,-187.8 485,-197.8 488.5,-187.8 481.5,-187.8"/>
</a>
</g>
</g>
<!-- Node11 -->
<g id="Node000011" class="node">
<title>Node11</title>
<g id="a_Node000011"><a xlink:href="MHintegrator_8hpp.html" target="_top" xlink:title="Metropolis&#45;Hastings MCMC Monte Carlo integration engine.">
<polygon fill="white" stroke="#666666" points="722,-162 576,-162 576,-132 722,-132 722,-162"/>
<text text-anchor="start" x="584" y="-150" font-family="Helvetica,sans-Serif" font-size="10.00">src/montecarlo/integrators</text>
<text text-anchor="middle" x="649" y="-139" font-family="Helvetica,sans-Serif" font-size="10.00">/MHintegrator.hpp</text>
</a>
</g>
</g>
<!-- Node1&#45;&gt;Node11 -->
<g id="edge13_Node000001_Node000011" class="edge">
<title>Node1&#45;&gt;Node11</title>
<g id="a_edge13_Node000001_Node000011"><a xlink:title=" ">
<path fill="none" stroke="#63b8ff" d="M530.64,-194.19C556.69,-184.02 588.87,-171.47 613.09,-162.01"/>
<polygon fill="#63b8ff" stroke="#63b8ff" points="529.03,-191.06 520.99,-197.95 531.58,-197.58 529.03,-191.06"/>
</a>
</g>
</g>
<!-- Node3 -->
<g id="Node000003" class="node">
<title>Node3</title>
<g id="a_Node000003"><a xlink:href="benchmarks_8hpp.html" target="_top" xlink:title="Benchmarking framework for Monte Carlo integration algorithms.">
<polygon fill="white" stroke="#666666" points="456.5,-90.5 315.5,-90.5 315.5,-71.5 456.5,-71.5 456.5,-90.5"/>
<text text-anchor="middle" x="386" y="-78.5" font-family="Helvetica,sans-Serif" font-size="10.00">src/apps/benchmarks.hpp</text>
</a>
</g>
</g>
<!-- Node2&#45;&gt;Node3 -->
<g id="edge2_Node000002_Node000003" class="edge">
<title>Node2&#45;&gt;Node3</title>
<g id="a_edge2_Node000002_Node000003"><a xlink:title=" ">
<path fill="none" stroke="#63b8ff" d="M342.73,-124.6C354.42,-113.1 368.2,-99.52 377.02,-90.84"/>
<polygon fill="#63b8ff" stroke="#63b8ff" points="340.1,-122.29 335.43,-131.8 345.01,-127.27 340.1,-122.29"/>
</a>
</g>
</g>
<!-- Node6 -->
<g id="Node000006" class="node">
<title>Node6</title>
<g id="a_Node000006"><a xlink:href="integration__benchmarks_8cpp.html" target="_top" xlink:title="Benchmark suite for Monte Carlo integration algorithms.">
<polygon fill="white" stroke="#666666" points="158,-30 0,-30 0,0 158,0 158,-30"/>
<text text-anchor="start" x="8" y="-18" font-family="Helvetica,sans-Serif" font-size="10.00">src/apps/benchmarks</text>
<text text-anchor="middle" x="79" y="-7" font-family="Helvetica,sans-Serif" font-size="10.00">/integration_benchmarks.cpp</text>
</a>
</g>
</g>
<!-- Node2&#45;&gt;Node6 -->
<g id="edge8_Node000002_Node000006" class="edge">
<title>Node2&#45;&gt;Node6</title>
<g id="a_edge8_Node000002_Node000006"><a xlink:title=" ">
<path fill="none" stroke="#63b8ff" d="M285.66,-127.02C236.62,-100.67 149.04,-53.62 105.33,-30.14"/>
<polygon fill="#63b8ff" stroke="#63b8ff" points="284.18,-130.19 294.64,-131.84 287.49,-124.02 284.18,-130.19"/>
</a>
</g>
</g>
<!-- Node4 -->
<g id="Node000004" class="node">
<title>Node4</title>
<g id="a_Node000004"><a xlink:href="benchmarks_8cpp.html" target="_top" xlink:title="Implementation of shared benchmark utilities and global configuration.">
<polygon fill="white" stroke="#666666" points="456,-24.5 316,-24.5 316,-5.5 456,-5.5 456,-24.5"/>
<text text-anchor="middle" x="386" y="-12.5" font-family="Helvetica,sans-Serif" font-size="10.00">src/apps/benchmarks.cpp</text>
</a>
</g>
</g>
<!-- Node3&#45;&gt;Node4 -->
<g id="edge3_Node000003_Node000004" class="edge">
<title>Node3&#45;&gt;Node4</title>
<g id="a_edge3_Node000003_Node000004"><a xlink:title=" ">
<path fill="none" stroke="#63b8ff" d="M386,-61.08C386,-49.13 386,-34.22 386,-24.91"/>
<polygon fill="#63b8ff" stroke="#63b8ff" points="382.5,-61.37 386,-71.37 389.5,-61.37 382.5,-61.37"/>
</a>
</g>
</g>
<!-- Node5 -->
<g id="Node000005" class="node">
<title>Node5</title>
<g id="a_Node000005"><a xlink:href="ga__benchmarks_8cpp.html" target="_top" xlink:title="Genetic Algorithm benchmark suite with visualization.">
<polygon fill="white" stroke="#666666" points="594,-30 474,-30 474,0 594,0 594,-30"/>
<text text-anchor="start" x="482" y="-18" font-family="Helvetica,sans-Serif" font-size="10.00">src/apps/benchmarks</text>
<text text-anchor="middle" x="534" y="-7" font-family="Helvetica,sans-Serif" font-size="10.00">/ga_benchmarks.cpp</text>
</a>
</g>
</g>
<!-- Node3&#45;&gt;Node5 -->
<g id="edge4_Node000003_Node000005" class="edge">
<title>Node3&#45;&gt;Node5</title>
<g id="a_edge4_Node000003_Node000005"><a xlink:title=" ">
<path fill="none" stroke="#63b8ff" d="M415.22,-67.36C440.04,-56.63 475.62,-41.25 501.36,-30.12"/>
<polygon fill="#63b8ff" stroke="#63b8ff" points="413.75,-64.19 405.96,-71.37 416.53,-70.61 413.75,-64.19"/>
</a>
</g>
</g>
<!-- Node3&#45;&gt;Node6 -->
<g id="edge5_Node000003_Node000006" class="edge">
<title>Node3&#45;&gt;Node6</title>
<g id="a_edge5_Node000003_Node000006"><a xlink:title=" ">
<path fill="none" stroke="#63b8ff" d="M334.98,-69.36C283.31,-58.59 203.12,-41.87 146.28,-30.02"/>
<polygon fill="#63b8ff" stroke="#63b8ff" points="334.41,-72.82 344.92,-71.44 335.84,-65.97 334.41,-72.82"/>
</a>
</g>
</g>
<!-- Node7 -->
<g id="Node000007" class="node">
<title>Node7</title>
<g id="a_Node000007"><a xlink:href="pso__benchmarks_8cpp.html" target="_top" xlink:title="Particle Swarm Optimization benchmark suite.">
<polygon fill="white" stroke="#666666" points="298,-30 176,-30 176,0 298,0 298,-30"/>
<text text-anchor="start" x="184" y="-18" font-family="Helvetica,sans-Serif" font-size="10.00">src/apps/benchmarks</text>
<text text-anchor="middle" x="237" y="-7" font-family="Helvetica,sans-Serif" font-size="10.00">/pso_benchmarks.cpp</text>
</a>
</g>
</g>
<!-- Node3&#45;&gt;Node7 -->
<g id="edge6_Node000003_Node000007" class="edge">
<title>Node3&#45;&gt;Node7</title>
<g id="a_edge6_Node000003_Node000007"><a xlink:title=" ">
<path fill="none" stroke="#63b8ff" d="M356.58,-67.36C331.6,-56.63 295.78,-41.25 269.86,-30.12"/>
<polygon fill="#63b8ff" stroke="#63b8ff" points="355.34,-70.64 365.91,-71.37 358.1,-64.21 355.34,-70.64"/>
</a>
</g>
</g>
<!-- Node8 -->
<g id="Node000008" class="node">
<title>Node8</title>
<g id="a_Node000008"><a xlink:href="main_8cpp.html" target="_top" xlink:title="Command&#45;line interface for Monte Carlo integration and benchmarking.">
<polygon fill="white" stroke="#666666" points="717.5,-24.5 612.5,-24.5 612.5,-5.5 717.5,-5.5 717.5,-24.5"/>
<text text-anchor="middle" x="665" y="-12.5" font-family="Helvetica,sans-Serif" font-size="10.00">src/apps/main.cpp</text>
</a>
</g>
</g>
<!-- Node3&#45;&gt;Node8 -->
<g id="edge7_Node000003_Node000008" class="edge">
<title>Node3&#45;&gt;Node8</title>
<g id="a_edge7_Node000003_Node000008"><a xlink:title=" ">
<path fill="none" stroke="#63b8ff" d="M433.17,-69.18C488.1,-56.58 577.68,-36.03 627.88,-24.51"/>
<polygon fill="#63b8ff" stroke="#63b8ff" points="432.3,-65.79 423.34,-71.44 433.87,-72.61 432.3,-65.79"/>
</a>
</g>
</g>
<!-- Node9&#45;&gt;Node3 -->
<g id="edge10_Node000009_Node000003" class="edge">
<title>Node9&#45;&gt;Node3</title>
<g id="a_edge10_Node000009_Node000003"><a xlink:title=" ">
<path fill="none" stroke="#63b8ff" d="M454.62,-126.36C436.15,-114.42 413.49,-99.77 399.39,-90.66"/>
<polygon fill="#63b8ff" stroke="#63b8ff" points="452.73,-129.31 463.03,-131.8 456.53,-123.43 452.73,-129.31"/>
</a>
</g>
</g>
<!-- Node9&#45;&gt;Node8 -->
<g id="edge12_Node000009_Node000008" class="edge">
<title>Node9&#45;&gt;Node8</title>
<g id="a_edge12_Node000009_Node000008"><a xlink:title=" ">
<path fill="none" stroke="#63b8ff" d="M485.03,-121.8C486.34,-104.19 490.92,-80.92 505,-66 513.86,-56.61 587.36,-36.2 631.59,-24.57"/>
<polygon fill="#63b8ff" stroke="#63b8ff" points="481.53,-121.76 484.58,-131.91 488.52,-122.07 481.53,-121.76"/>
</a>
</g>
</g>
<!-- Node10 -->
<g id="Node000010" class="node">
<title>Node10</title>
<g id="a_Node000010"><a xlink:href="drone__optimization_8cpp.html" target="_top" xlink:title="Drone arm center of mass optimization using PSO with high&#45;precision verification.">
<polygon fill="white" stroke="#666666" points="688.5,-90.5 513.5,-90.5 513.5,-71.5 688.5,-71.5 688.5,-90.5"/>
<text text-anchor="middle" x="601" y="-78.5" font-family="Helvetica,sans-Serif" font-size="10.00">src/apps/drone_optimization.cpp</text>
</a>
</g>
</g>
<!-- Node9&#45;&gt;Node10 -->
<g id="edge11_Node000009_Node000010" class="edge">
<title>Node9&#45;&gt;Node10</title>
<g id="a_edge11_Node000009_Node000010"><a xlink:title=" ">
<path fill="none" stroke="#63b8ff" d="M519.48,-126.97C541.43,-114.87 568.78,-99.78 585.56,-90.52"/>
<polygon fill="#63b8ff" stroke="#63b8ff" points="517.52,-124.06 510.46,-131.95 520.9,-130.19 517.52,-124.06"/>
</a>
</g>
</g>
<!-- Node11&#45;&gt;Node3 -->
<g id="edge14_Node000011_Node000003" class="edge">
<title>Node11&#45;&gt;Node3</title>
<g id="a_edge14_Node000011_Node000003"><a xlink:title=" ">
<path fill="none" stroke="#63b8ff" d="M581.28,-129.52C530.04,-117.05 461.76,-100.44 421,-90.52"/>
<polygon fill="#63b8ff" stroke="#63b8ff" points="580.74,-132.99 591.28,-131.95 582.39,-126.19 580.74,-132.99"/>
</a>
</g>
</g>
<!-- Node12 -->
<g id="Node000012" class="node">
<title>Node12</title>
<g id="a_Node000012"><a xlink:href="wind__farm__simulator_8cpp.html" target="_top" xlink:title="Wind Farm Layout Optimization using Hybrid MH&#45;Monte Carlo + PSO/GA.">
<polygon fill="white" stroke="#666666" points="819,-96 707,-96 707,-66 819,-66 819,-96"/>
<text text-anchor="start" x="715" y="-84" font-family="Helvetica,sans-Serif" font-size="10.00">src/apps/wind_farm</text>
<text text-anchor="middle" x="763" y="-73" font-family="Helvetica,sans-Serif" font-size="10.00">_simulator.cpp</text>
</a>
</g>
</g>
<!-- Node11&#45;&gt;Node12 -->
<g id="edge15_Node000011_Node000012" class="edge">
<title>Node11&#45;&gt;Node12</title>
<g id="a_edge15_Node000011_Node000012"><a xlink:title=" ">
<path fill="none" stroke="#63b8ff" d="M682.9,-126.97C700.6,-117.03 721.87,-105.09 738.04,-96.01"/>
<polygon fill="#63b8ff" stroke="#63b8ff" points="681.02,-124.01 674.02,-131.95 684.45,-130.11 681.02,-124.01"/>
</a>
</g>
</g>
</g>
</svg>
