<?xml version="1.0" encoding="UTF-8" standalone="no"?>
<!DOCTYPE svg PUBLIC "-//W3C//DTD SVG 1.1//EN"
 "http://www.w3.org/Graphics/SVG/1.1/DTD/svg11.dtd">
<!-- Generated by graphviz version 2.43.0 (0)
 -->
<!-- Title: src/montecarlo/estimators/VolumeEstimatorMC.hpp Pages: 1 -->
<svg width="558pt" height="214pt"
 viewBox="0.00 0.00 558.41 214.00" xmlns="http://www.w3.org/2000/svg" xmlns:xlink="http://www.w3.org/1999/xlink">
<g id="graph0" class="graph" transform="scale(1 1) rotate(0) translate(4 210)">
<title>src/montecarlo/estimators/VolumeEstimatorMC.hpp</title>
<!-- Node1 -->
<g id="Node000001" class="node">
<title>Node1</title>
<g id="a_Node000001"><a xlink:title="Hit&#45;or&#45;Miss Monte Carlo volume estimation.">
<polygon fill="#999999" stroke="#666666" points="256.41,-206 111.41,-206 111.41,-176 256.41,-176 256.41,-206"/>
<text text-anchor="start" x="119.41" y="-194" font-family="Helvetica,sans-Serif" font-size="10.00">src/montecarlo/estimators</text>
<text text-anchor="middle" x="183.91" y="-183" font-family="Helvetica,sans-Serif" font-size="10.00">/VolumeEstimatorMC.hpp</text>
</a>
</g>
</g>
<!-- Node2 -->
<g id="Node000002" class="node">
<title>Node2</title>
<g id="a_Node000002"><a xlink:title=" ">
<polygon fill="#e0e0e0" stroke="#999999" points="156.41,-19 103.41,-19 103.41,0 156.41,0 156.41,-19"/>
<text text-anchor="middle" x="129.91" y="-7" font-family="Helvetica,sans-Serif" font-size="10.00">cstddef</text>
</a>
</g>
</g>
<!-- Node1&#45;&gt;Node2 -->
<g id="edge1_Node000001_Node000002" class="edge">
<title>Node1&#45;&gt;Node2</title>
<g id="a_edge1_Node000001_Node000002"><a xlink:title=" ">
<path fill="none" stroke="#63b8ff" d="M111.25,-178.27C69.01,-169.81 21.66,-156.9 8.91,-140 -25.86,-93.9 55.36,-45.8 101.21,-23.41"/>
<polygon fill="#63b8ff" stroke="#63b8ff" points="102.88,-26.49 110.4,-19.03 99.87,-20.17 102.88,-26.49"/>
</a>
</g>
</g>
<!-- Node3 -->
<g id="Node000003" class="node">
<title>Node3</title>
<g id="a_Node000003"><a xlink:title=" ">
<polygon fill="#e0e0e0" stroke="#999999" points="67.91,-134.5 17.91,-134.5 17.91,-115.5 67.91,-115.5 67.91,-134.5"/>
<text text-anchor="middle" x="42.91" y="-122.5" font-family="Helvetica,sans-Serif" font-size="10.00">cstdint</text>
</a>
</g>
</g>
<!-- Node1&#45;&gt;Node3 -->
<g id="edge2_Node000001_Node000003" class="edge">
<title>Node1&#45;&gt;Node3</title>
<g id="a_edge2_Node000001_Node000003"><a xlink:title=" ">
<path fill="none" stroke="#63b8ff" d="M152.97,-175.95C128.46,-164.83 94.52,-149.42 70.83,-138.67"/>
<polygon fill="#63b8ff" stroke="#63b8ff" points="72.23,-135.46 61.68,-134.52 69.34,-141.84 72.23,-135.46"/>
</a>
</g>
</g>
<!-- Node4 -->
<g id="Node000004" class="node">
<title>Node4</title>
<g id="a_Node000004"><a xlink:title=" ">
<polygon fill="#e0e0e0" stroke="#999999" points="133.41,-134.5 86.41,-134.5 86.41,-115.5 133.41,-115.5 133.41,-134.5"/>
<text text-anchor="middle" x="109.91" y="-122.5" font-family="Helvetica,sans-Serif" font-size="10.00">cmath</text>
</a>
</g>
</g>
<!-- Node1&#45;&gt;Node4 -->
<g id="edge3_Node000001_Node000004" class="edge">
<title>Node1&#45;&gt;Node4</title>
<g id="a_edge3_Node000001_Node000004"><a xlink:title=" ">
<path fill="none" stroke="#63b8ff" d="M167.49,-175.8C155.73,-165.62 139.9,-151.93 127.81,-141.48"/>
<polygon fill="#63b8ff" stroke="#63b8ff" points="129.99,-138.74 120.14,-134.84 125.42,-144.03 129.99,-138.74"/>
</a>
</g>
</g>
<!-- Node5 -->
<g id="Node000005" class="node">
<title>Node5</title>
<g id="a_Node000005"><a xlink:title=" ">
<polygon fill="#e0e0e0" stroke="#999999" points="216.41,-134.5 151.41,-134.5 151.41,-115.5 216.41,-115.5 216.41,-134.5"/>
<text text-anchor="middle" x="183.91" y="-122.5" font-family="Helvetica,sans-Serif" font-size="10.00">stdexcept</text>
</a>
</g>
</g>
<!-- Node1&#45;&gt;Node5 -->
<g id="edge4_Node000001_Node000005" class="edge">
<title>Node1&#45;&gt;Node5</title>
<g id="a_edge4_Node000001_Node000005"><a xlink:title=" ">
<path fill="none" stroke="#63b8ff" d="M183.91,-175.8C183.91,-166.7 183.91,-154.79 183.91,-144.9"/>
<polygon fill="#63b8ff" stroke="#63b8ff" points="187.41,-144.84 183.91,-134.84 180.41,-144.84 187.41,-144.84"/>
</a>
</g>
</g>
<!-- Node6 -->
<g id="Node000006" class="node">
<title>Node6</title>
<g id="a_Node000006"><a xlink:href="integration__domain_8hpp.html" target="_top" xlink:title="Abstract interface for N&#45;dimensional integration domains.">
<polygon fill="white" stroke="#666666" points="396.91,-140 272.91,-140 272.91,-110 396.91,-110 396.91,-140"/>
<text text-anchor="start" x="280.91" y="-128" font-family="Helvetica,sans-Serif" font-size="10.00">../domains/integration</text>
<text text-anchor="middle" x="334.91" y="-117" font-family="Helvetica,sans-Serif" font-size="10.00">_domain.hpp</text>
</a>
</g>
</g>
<!-- Node1&#45;&gt;Node6 -->
<g id="edge5_Node000001_Node000006" class="edge">
<title>Node1&#45;&gt;Node6</title>
<g id="a_edge5_Node000001_Node000006"><a xlink:title=" ">
<path fill="none" stroke="#63b8ff" d="M217.05,-175.95C239.18,-166.58 268.49,-154.16 292.34,-144.05"/>
<polygon fill="#63b8ff" stroke="#63b8ff" points="294.01,-147.14 301.85,-140.01 291.28,-140.69 294.01,-147.14"/>
</a>
</g>
</g>
<!-- Node8 -->
<g id="Node000008" class="node">
<title>Node8</title>
<g id="a_Node000008"><a xlink:href="geometry_8hpp.html" target="_top" xlink:title="Core geometric types for Monte Carlo integration.">
<polygon fill="white" stroke="#666666" points="294.91,-74 202.91,-74 202.91,-55 294.91,-55 294.91,-74"/>
<text text-anchor="middle" x="248.91" y="-62" font-family="Helvetica,sans-Serif" font-size="10.00">../geometry.hpp</text>
</a>
</g>
</g>
<!-- Node1&#45;&gt;Node8 -->
<g id="edge10_Node000001_Node000008" class="edge">
<title>Node1&#45;&gt;Node8</title>
<g id="a_edge10_Node000001_Node000008"><a xlink:title=" ">
<path fill="none" stroke="#63b8ff" d="M198.07,-175.75C206.82,-166.29 217.71,-153.21 224.91,-140 234.65,-122.14 241.21,-99.7 244.97,-84.14"/>
<polygon fill="#63b8ff" stroke="#63b8ff" points="248.43,-84.71 247.23,-74.19 241.6,-83.17 248.43,-84.71"/>
</a>
</g>
</g>
<!-- Node9 -->
<g id="Node000009" class="node">
<title>Node9</title>
<g id="a_Node000009"><a xlink:href="VolumeEstimatorMC_8tpp.html" target="_top" xlink:title=" ">
<polygon fill="white" stroke="#666666" points="550.41,-134.5 415.41,-134.5 415.41,-115.5 550.41,-115.5 550.41,-134.5"/>
<text text-anchor="middle" x="482.91" y="-122.5" font-family="Helvetica,sans-Serif" font-size="10.00">VolumeEstimatorMC.tpp</text>
</a>
</g>
</g>
<!-- Node1&#45;&gt;Node9 -->
<g id="edge11_Node000001_Node000009" class="edge">
<title>Node1&#45;&gt;Node9</title>
<g id="a_edge11_Node000001_Node000009"><a xlink:title=" ">
<path fill="none" stroke="#63b8ff" d="M249.53,-175.95C304.86,-164.11 382.84,-147.42 433.14,-136.65"/>
<polygon fill="#63b8ff" stroke="#63b8ff" points="434.08,-140.03 443.12,-134.52 432.61,-133.19 434.08,-140.03"/>
</a>
</g>
</g>
<!-- Node7 -->
<g id="Node000007" class="node">
<title>Node7</title>
<g id="a_Node000007"><a xlink:title=" ">
<polygon fill="#e0e0e0" stroke="#999999" points="310.91,-19 268.91,-19 268.91,0 310.91,0 310.91,-19"/>
<text text-anchor="middle" x="289.91" y="-7" font-family="Helvetica,sans-Serif" font-size="10.00">array</text>
</a>
</g>
</g>
<!-- Node6&#45;&gt;Node7 -->
<g id="edge6_Node000006_Node000007" class="edge">
<title>Node6&#45;&gt;Node7</title>
<g id="a_edge6_Node000006_Node000007"><a xlink:title=" ">
<path fill="none" stroke="#63b8ff" d="M329.22,-109.63C321.05,-89.03 306.02,-51.12 297.1,-28.63"/>
<polygon fill="#63b8ff" stroke="#63b8ff" points="300.32,-27.24 293.38,-19.23 293.81,-29.82 300.32,-27.24"/>
</a>
</g>
</g>
<!-- Node6&#45;&gt;Node8 -->
<g id="edge7_Node000006_Node000008" class="edge">
<title>Node6&#45;&gt;Node8</title>
<g id="a_edge7_Node000006_Node000008"><a xlink:title=" ">
<path fill="none" stroke="#63b8ff" d="M314.1,-109.84C300.77,-100.77 283.52,-89.04 270.12,-79.92"/>
<polygon fill="#63b8ff" stroke="#63b8ff" points="271.79,-76.83 261.55,-74.09 267.85,-82.61 271.79,-76.83"/>
</a>
</g>
</g>
<!-- Node8&#45;&gt;Node2 -->
<g id="edge9_Node000008_Node000002" class="edge">
<title>Node8&#45;&gt;Node2</title>
<g id="a_edge9_Node000008_Node000002"><a xlink:title=" ">
<path fill="none" stroke="#63b8ff" d="M229.8,-54.98C210.57,-46.42 180.68,-33.11 158.61,-23.28"/>
<polygon fill="#63b8ff" stroke="#63b8ff" points="159.94,-20.04 149.38,-19.17 157.09,-26.44 159.94,-20.04"/>
</a>
</g>
</g>
<!-- Node8&#45;&gt;Node7 -->
<g id="edge8_Node000008_Node000007" class="edge">
<title>Node8&#45;&gt;Node7</title>
<g id="a_edge8_Node000008_Node000007"><a xlink:title=" ">
<path fill="none" stroke="#63b8ff" d="M255.69,-54.75C261.48,-47.26 269.97,-36.28 277.05,-27.13"/>
<polygon fill="#63b8ff" stroke="#63b8ff" points="279.92,-29.14 283.27,-19.09 274.38,-24.86 279.92,-29.14"/>
</a>
</g>
</g>
</g>
</svg>
