<?xml version="1.0" encoding="UTF-8" standalone="no"?>
<!DOCTYPE svg PUBLIC "-//W3C//DTD SVG 1.1//EN"
 "http://www.w3.org/Graphics/SVG/1.1/DTD/svg11.dtd">
<!-- Generated by graphviz version 2.43.0 (0)
 -->
<!-- Title: estimateAveragePowerMH Pages: 1 -->
<svg width="461pt" height="138pt"
 viewBox="0.00 0.00 461.00 138.00" xmlns="http://www.w3.org/2000/svg" xmlns:xlink="http://www.w3.org/1999/xlink">
<g id="graph0" class="graph" transform="scale(1 1) rotate(0) translate(4 134)">
<title>estimateAveragePowerMH</title>
<!-- Node1 -->
<g id="Node000001" class="node">
<title>Node1</title>
<g id="a_Node000001"><a xlink:title=" ">
<polygon fill="#999999" stroke="#666666" points="146,-74 0,-74 0,-55 146,-55 146,-74"/>
<text text-anchor="middle" x="73" y="-62" font-family="Helvetica,sans-Serif" font-size="10.00">estimateAveragePowerMH</text>
</a>
</g>
</g>
<!-- Node2 -->
<g id="Node000002" class="node">
<title>Node2</title>
<g id="a_Node000002"><a xlink:href="wind__farm__simulator_8cpp.html#ab37a2b0187762edf9119b6c5a9ff2564" target="_top" xlink:title=" ">
<polygon fill="white" stroke="#666666" points="319,-130 182,-130 182,-111 319,-111 319,-130"/>
<text text-anchor="middle" x="250.5" y="-118" font-family="Helvetica,sans-Serif" font-size="10.00">buildWindDomainOwned</text>
</a>
</g>
</g>
<!-- Node1&#45;&gt;Node2 -->
<g id="edge1_Node000001_Node000002" class="edge">
<title>Node1&#45;&gt;Node2</title>
<g id="a_edge1_Node000001_Node000002"><a xlink:title=" ">
<path fill="none" stroke="#63b8ff" d="M99.56,-74.13C121.33,-82.17 153.51,-93.7 182,-102.5 188.38,-104.47 195.15,-106.43 201.83,-108.28"/>
<polygon fill="#63b8ff" stroke="#63b8ff" points="200.94,-111.67 211.51,-110.92 202.78,-104.92 200.94,-111.67"/>
</a>
</g>
</g>
<!-- Node3 -->
<g id="Node000003" class="node">
<title>Node3</title>
<g id="a_Node000003"><a xlink:href="wind__farm__simulator_8cpp.html#afd0350ab65084c7a147a43073fdea9aa" target="_top" xlink:title=" ">
<polygon fill="white" stroke="#666666" points="312,-93 189,-93 189,-74 312,-74 312,-93"/>
<text text-anchor="middle" x="250.5" y="-81" font-family="Helvetica,sans-Serif" font-size="10.00">farmPowerGivenWind</text>
</a>
</g>
</g>
<!-- Node1&#45;&gt;Node3 -->
<g id="edge2_Node000001_Node000003" class="edge">
<title>Node1&#45;&gt;Node3</title>
<g id="a_edge2_Node000001_Node000003"><a xlink:title=" ">
<path fill="none" stroke="#63b8ff" d="M146.14,-72.31C156.89,-73.47 167.96,-74.67 178.68,-75.83"/>
<polygon fill="#63b8ff" stroke="#63b8ff" points="178.51,-79.33 188.83,-76.93 179.26,-72.38 178.51,-79.33"/>
</a>
</g>
</g>
<!-- Node6 -->
<g id="Node000006" class="node">
<title>Node6</title>
<g id="a_Node000006"><a xlink:href="wind__farm__simulator_8cpp.html#abd5dd8f30987bbea1b86869ba00d49b0" target="_top" xlink:title=" ">
<polygon fill="white" stroke="#666666" points="307.5,-56 193.5,-56 193.5,-37 307.5,-37 307.5,-56"/>
<text text-anchor="middle" x="250.5" y="-44" font-family="Helvetica,sans-Serif" font-size="10.00">mapToPhysicalWind</text>
</a>
</g>
</g>
<!-- Node1&#45;&gt;Node6 -->
<g id="edge5_Node000001_Node000006" class="edge">
<title>Node1&#45;&gt;Node6</title>
<g id="a_edge5_Node000001_Node000006"><a xlink:title=" ">
<path fill="none" stroke="#63b8ff" d="M146.14,-57.1C158.48,-55.84 171.24,-54.53 183.4,-53.28"/>
<polygon fill="#63b8ff" stroke="#63b8ff" points="183.87,-56.75 193.46,-52.25 183.16,-49.79 183.87,-56.75"/>
</a>
</g>
</g>
<!-- Node7 -->
<g id="Node000007" class="node">
<title>Node7</title>
<g id="a_Node000007"><a xlink:href="wind__farm__simulator_8cpp.html#a5e22ce925643bbc74d4de1e66f796dea" target="_top" xlink:title=" ">
<polygon fill="white" stroke="#666666" points="287,-19 214,-19 214,0 287,0 287,-19"/>
<text text-anchor="middle" x="250.5" y="-7" font-family="Helvetica,sans-Serif" font-size="10.00">weibull_pdf</text>
</a>
</g>
</g>
<!-- Node1&#45;&gt;Node7 -->
<g id="edge6_Node000001_Node000007" class="edge">
<title>Node1&#45;&gt;Node7</title>
<g id="a_edge6_Node000001_Node000007"><a xlink:title=" ">
<path fill="none" stroke="#63b8ff" d="M101.41,-54.97C123.17,-47.49 154.42,-36.97 182,-28.5 189.28,-26.26 197.04,-23.98 204.6,-21.82"/>
<polygon fill="#63b8ff" stroke="#63b8ff" points="205.71,-25.14 214.37,-19.05 203.8,-18.41 205.71,-25.14"/>
</a>
</g>
</g>
<!-- Node4 -->
<g id="Node000004" class="node">
<title>Node4</title>
<g id="a_Node000004"><a xlink:href="wind__farm__simulator_8cpp.html#af758d8893b8c7e8d9f5b9492e23af0b9" target="_top" xlink:title=" ">
<polygon fill="white" stroke="#666666" points="453,-111 355,-111 355,-92 453,-92 453,-111"/>
<text text-anchor="middle" x="404" y="-99" font-family="Helvetica,sans-Serif" font-size="10.00">applyWakeEffect</text>
</a>
</g>
</g>
<!-- Node3&#45;&gt;Node4 -->
<g id="edge3_Node000003_Node000004" class="edge">
<title>Node3&#45;&gt;Node4</title>
<g id="a_edge3_Node000003_Node000004"><a xlink:title=" ">
<path fill="none" stroke="#63b8ff" d="M312.25,-90.72C322.98,-91.99 334.13,-93.32 344.78,-94.58"/>
<polygon fill="#63b8ff" stroke="#63b8ff" points="344.48,-98.07 354.82,-95.78 345.31,-91.12 344.48,-98.07"/>
</a>
</g>
</g>
<!-- Node5 -->
<g id="Node000005" class="node">
<title>Node5</title>
<g id="a_Node000005"><a xlink:href="wind__farm__simulator_8cpp.html#a50caf0a5cbc9348e481e310e8605a943" target="_top" xlink:title=" ">
<polygon fill="white" stroke="#666666" points="439,-74 369,-74 369,-55 439,-55 439,-74"/>
<text text-anchor="middle" x="404" y="-62" font-family="Helvetica,sans-Serif" font-size="10.00">windPower</text>
</a>
</g>
</g>
<!-- Node3&#45;&gt;Node5 -->
<g id="edge4_Node000003_Node000005" class="edge">
<title>Node3&#45;&gt;Node5</title>
<g id="a_edge4_Node000003_Node000005"><a xlink:title=" ">
<path fill="none" stroke="#63b8ff" d="M312.25,-75.88C327.75,-73.94 344.12,-71.88 358.63,-70.06"/>
<polygon fill="#63b8ff" stroke="#63b8ff" points="359.34,-73.5 368.83,-68.79 358.47,-66.56 359.34,-73.5"/>
</a>
</g>
</g>
</g>
</svg>
