<?xml version="1.0" encoding="UTF-8" standalone="no"?>
<!DOCTYPE svg PUBLIC "-//W3C//DTD SVG 1.1//EN"
 "http://www.w3.org/Graphics/SVG/1.1/DTD/svg11.dtd">
<!-- Generated by graphviz version 2.43.0 (0)
 -->
<!-- Title: runOptimizer Pages: 1 -->
<!--zoomable 213 -->

<svg id="main" version="1.1" xmlns="http://www.w3.org/2000/svg" xmlns:xlink="http://www.w3.org/1999/xlink" xml:space="preserve" onload="init(evt)">
<style type="text/css"><![CDATA[
.node, .edge {opacity: 0.7;}
.node.selected, .edge.selected {opacity: 1;}
.edge:hover path { stroke: red; }
.edge:hover polygon { stroke: red; fill: red; }
]]></style>

<defs>
  <circle id="rim" cx="0" cy="0" r="7"/>
  <circle id="rim2" cx="0" cy="0" r="3.5"/>
  <g id="zoomPlus">
    <use xlink:href="#rim" fill="#404040"><set attributeName="fill" to="#808080" begin="zoomplus.mouseover" end="zoomplus.mouseout"/></use>
    <path d="M-4,0h8M0,-4v8" fill="none" stroke="white" stroke-width="1.5" pointer-events="none"/>
  </g>
  <g id="zoomMin">
    <use xlink:href="#rim" fill="#404040"><set attributeName="fill" to="#808080" begin="zoomminus.mouseover" end="zoomminus.mouseout"/></use>
    <path d="M-4,0h8" fill="none" stroke="white" stroke-width="1.5" pointer-events="none"/>
  </g>
  <g id="arrowUp" transform="translate(30 24)">
    <use xlink:href="#rim"/>
    <path pointer-events="none" fill="none" stroke="white" stroke-width="1.5" d="M0,-3.0v7 M-2.5,-0.5L0,-3.0L2.5,-0.5"/>
  </g>
  <g id="arrowRight" transform="rotate(90) translate(36 -43)">
    <use xlink:href="#rim"/>
    <path pointer-events="none" fill="none" stroke="white" stroke-width="1.5" d="M0,-3.0v7 M-2.5,-0.5L0,-3.0L2.5,-0.5"/>
  </g>
  <g id="arrowDown" transform="rotate(180) translate(-30 -48)">
    <use xlink:href="#rim"/>
    <path pointer-events="none" fill="none" stroke="white" stroke-width="1.5" d="M0,-3.0v7 M-2.5,-0.5L0,-3.0L2.5,-0.5"/>
  </g>
  <g id="arrowLeft" transform="rotate(270) translate(-36 17)">
    <use xlink:href="#rim"/>
    <path pointer-events="none" fill="none" stroke="white" stroke-width="1.5" d="M0,-3.0v7 M-2.5,-0.5L0,-3.0L2.5,-0.5"/>
  </g>
  <g id="resetDef">
    <use xlink:href="#rim2" fill="#404040"><set attributeName="fill" to="#808080" begin="reset.mouseover" end="reset.mouseout"/></use>
  </g>
</defs>
<script type="application/ecmascript">
var viewWidth = 726;
var viewHeight = 213;
var sectionId = 'dynsection-6';
</script>
<script type="application/ecmascript" xlink:href="svg.min.js"/>
<svg id="graph" class="graph">
<g id="viewport">
<title>runOptimizer</title>
<!-- Node1 -->
<g id="Node000001" class="node">
<title>Node1</title>
<g id="a_Node000001"><a xlink:title=" ">
<polygon fill="#999999" stroke="#666666" points="80,-111 0,-111 0,-92 80,-92 80,-111"/>
<text text-anchor="middle" x="40" y="-99" font-family="Helvetica,sans-Serif" font-size="10.00">runOptimizer</text>
</a>
</g>
</g>
<!-- Node2 -->
<g id="Node000002" class="node">
<title>Node2</title>
<g id="a_Node000002"><a xlink:href="wind__farm__simulator_8cpp.html#a7ba31cc104f6332569fc77076087fe19" target="_top" xlink:title=" ">
<polygon fill="white" stroke="#666666" points="398,-205 278,-205 278,-186 398,-186 398,-205"/>
<text text-anchor="middle" x="338" y="-193" font-family="Helvetica,sans-Serif" font-size="10.00">computeMinDistance</text>
</a>
</g>
</g>
<!-- Node1&#45;&gt;Node2 -->
<g id="edge1_Node000001_Node000002" class="edge">
<title>Node1&#45;&gt;Node2</title>
<g id="a_edge1_Node000001_Node000002"><a xlink:title=" ">
<path fill="none" stroke="#63b8ff" d="M49.64,-111.03C62.6,-124.67 88.52,-149.43 116,-161.5 163.98,-182.56 222.81,-190.87 267.7,-194.01"/>
<polygon fill="#63b8ff" stroke="#63b8ff" points="267.73,-197.52 277.93,-194.66 268.17,-190.53 267.73,-197.52"/>
</a>
</g>
</g>
<!-- Node4 -->
<g id="Node000004" class="node">
<title>Node4</title>
<g id="a_Node000004"><a xlink:href="wind__farm__simulator_8cpp.html#a262532b597035affbd890f6bdf9e7aab" target="_top" xlink:title=" ">
<polygon fill="white" stroke="#666666" points="403.5,-167 272.5,-167 272.5,-148 403.5,-148 403.5,-167"/>
<text text-anchor="middle" x="338" y="-155" font-family="Helvetica,sans-Serif" font-size="10.00">extractTurbinePositions</text>
</a>
</g>
</g>
<!-- Node1&#45;&gt;Node4 -->
<g id="edge3_Node000001_Node000004" class="edge">
<title>Node1&#45;&gt;Node4</title>
<g id="a_edge3_Node000001_Node000004"><a xlink:title=" ">
<path fill="none" stroke="#63b8ff" d="M55.52,-111.02C70.14,-120.06 93.66,-133.2 116,-139.5 163.5,-152.91 218.86,-157.4 262.29,-158.55"/>
<polygon fill="#63b8ff" stroke="#63b8ff" points="262.42,-162.05 272.49,-158.76 262.57,-155.05 262.42,-162.05"/>
</a>
</g>
</g>
<!-- Node5 -->
<g id="Node000005" class="node">
<title>Node5</title>
<g id="a_Node000005"><a xlink:href="wind__farm__simulator_8cpp.html#a956440d752816f3e240964a811a61812" target="_top" xlink:title=" ">
<polygon fill="white" stroke="#666666" points="229,-130 116,-130 116,-111 229,-111 229,-130"/>
<text text-anchor="middle" x="172.5" y="-118" font-family="Helvetica,sans-Serif" font-size="10.00">hashCoordsForSeed</text>
</a>
</g>
</g>
<!-- Node1&#45;&gt;Node5 -->
<g id="edge4_Node000001_Node000005" class="edge">
<title>Node1&#45;&gt;Node5</title>
<g id="a_edge4_Node000001_Node000005"><a xlink:title=" ">
<path fill="none" stroke="#63b8ff" d="M80.15,-107.2C88.34,-108.39 97.17,-109.68 106.02,-110.97"/>
<polygon fill="#63b8ff" stroke="#63b8ff" points="105.57,-114.44 115.97,-112.42 106.58,-107.51 105.57,-114.44"/>
</a>
</g>
</g>
<!-- Node6 -->
<g id="Node000006" class="node">
<title>Node6</title>
<g id="a_Node000006"><a xlink:href="wind__farm__simulator_8cpp.html#acd23a07d214d96166f1bbcb4c3f08b54" target="_top" xlink:title=" ">
<polygon fill="white" stroke="#666666" points="227.5,-93 117.5,-93 117.5,-74 227.5,-74 227.5,-93"/>
<text text-anchor="middle" x="172.5" y="-81" font-family="Helvetica,sans-Serif" font-size="10.00">windFarmObjective</text>
</a>
</g>
</g>
<!-- Node1&#45;&gt;Node6 -->
<g id="edge5_Node000001_Node000006" class="edge">
<title>Node1&#45;&gt;Node6</title>
<g id="a_edge5_Node000001_Node000006"><a xlink:title=" ">
<path fill="none" stroke="#63b8ff" d="M80.15,-96.1C88.76,-94.91 98.08,-93.63 107.38,-92.34"/>
<polygon fill="#63b8ff" stroke="#63b8ff" points="107.99,-95.79 117.41,-90.96 107.03,-88.86 107.99,-95.79"/>
</a>
</g>
</g>
<!-- Node15 -->
<g id="Node000015" class="node">
<title>Node15</title>
<g id="a_Node000015"><a xlink:href="wind__farm__simulator_8cpp.html#aa82ec693a2c1c91e0d272460e9b3f39c" target="_top" xlink:title=" ">
<polygon fill="white" stroke="#666666" points="216.5,-56 128.5,-56 128.5,-37 216.5,-37 216.5,-56"/>
<text text-anchor="middle" x="172.5" y="-44" font-family="Helvetica,sans-Serif" font-size="10.00">writePlotScript</text>
</a>
</g>
</g>
<!-- Node1&#45;&gt;Node15 -->
<g id="edge16_Node000001_Node000015" class="edge">
<title>Node1&#45;&gt;Node15</title>
<g id="a_edge16_Node000001_Node000015"><a xlink:title=" ">
<path fill="none" stroke="#63b8ff" d="M58.55,-91.94C73.54,-83.99 95.82,-72.7 116,-64.5 120.4,-62.71 125.05,-60.97 129.72,-59.33"/>
<polygon fill="#63b8ff" stroke="#63b8ff" points="130.89,-62.63 139.23,-56.1 128.63,-56 130.89,-62.63"/>
</a>
</g>
</g>
<!-- Node16 -->
<g id="Node000016" class="node">
<title>Node16</title>
<g id="a_Node000016"><a xlink:href="wind__farm__simulator_8cpp.html#a67b67a7be61bdcd6a74330e1e76780ab" target="_top" xlink:title=" ">
<polygon fill="white" stroke="#666666" points="220,-19 125,-19 125,0 220,0 220,-19"/>
<text text-anchor="middle" x="172.5" y="-7" font-family="Helvetica,sans-Serif" font-size="10.00">writeResultsFile</text>
</a>
</g>
</g>
<!-- Node1&#45;&gt;Node16 -->
<g id="edge17_Node000001_Node000016" class="edge">
<title>Node1&#45;&gt;Node16</title>
<g id="a_edge17_Node000001_Node000016"><a xlink:title=" ">
<path fill="none" stroke="#63b8ff" d="M48.23,-91.89C60.51,-76.23 86.93,-45.17 116,-27.5 118.77,-25.82 121.71,-24.27 124.75,-22.86"/>
<polygon fill="#63b8ff" stroke="#63b8ff" points="126.13,-26.08 134.02,-19.01 123.44,-19.61 126.13,-26.08"/>
</a>
</g>
</g>
<!-- Node3 -->
<g id="Node000003" class="node">
<title>Node3</title>
<g id="a_Node000003"><a xlink:href="wind__farm__simulator_8cpp.html#a8dd4de4f898746b92930ac82a3177573" target="_top" xlink:title=" ">
<polygon fill="white" stroke="#666666" points="562.5,-196 468.5,-196 468.5,-177 562.5,-177 562.5,-196"/>
<text text-anchor="middle" x="515.5" y="-184" font-family="Helvetica,sans-Serif" font-size="10.00">turbineDistance</text>
</a>
</g>
</g>
<!-- Node2&#45;&gt;Node3 -->
<g id="edge2_Node000002_Node000003" class="edge">
<title>Node2&#45;&gt;Node3</title>
<g id="a_edge2_Node000002_Node000003"><a xlink:title=" ">
<path fill="none" stroke="#63b8ff" d="M398.42,-192.45C417.8,-191.46 439.26,-190.36 458.39,-189.38"/>
<polygon fill="#63b8ff" stroke="#63b8ff" points="458.65,-192.87 468.46,-188.86 458.29,-185.88 458.65,-192.87"/>
</a>
</g>
</g>
<!-- Node6&#45;&gt;Node4 -->
<g id="edge15_Node000006_Node000004" class="edge">
<title>Node6&#45;&gt;Node4</title>
<g id="a_edge15_Node000006_Node000004"><a xlink:title=" ">
<path fill="none" stroke="#63b8ff" d="M211.66,-93.07C217.7,-95.36 223.69,-98.15 229,-101.5 248.67,-113.92 244.91,-127.77 265,-139.5 268.04,-141.28 271.25,-142.88 274.56,-144.32"/>
<polygon fill="#63b8ff" stroke="#63b8ff" points="273.51,-147.67 284.1,-147.99 276.03,-141.14 273.51,-147.67"/>
</a>
</g>
</g>
<!-- Node7 -->
<g id="Node000007" class="node">
<title>Node7</title>
<g id="a_Node000007"><a xlink:href="wind__farm__simulator_8cpp.html#a539eab1269470757cef93621bf98bb57" target="_top" xlink:title=" ">
<polygon fill="white" stroke="#666666" points="409.5,-130 266.5,-130 266.5,-111 409.5,-111 409.5,-130"/>
<text text-anchor="middle" x="338" y="-118" font-family="Helvetica,sans-Serif" font-size="10.00">computeProximityPenalty</text>
</a>
</g>
</g>
<!-- Node6&#45;&gt;Node7 -->
<g id="edge6_Node000006_Node000007" class="edge">
<title>Node6&#45;&gt;Node7</title>
<g id="a_edge6_Node000006_Node000007"><a xlink:title=" ">
<path fill="none" stroke="#63b8ff" d="M215.61,-93.03C236.69,-97.8 262.42,-103.62 284.76,-108.68"/>
<polygon fill="#63b8ff" stroke="#63b8ff" points="284.23,-112.15 294.75,-110.94 285.77,-105.32 284.23,-112.15"/>
</a>
</g>
</g>
<!-- Node8 -->
<g id="Node000008" class="node">
<title>Node8</title>
<g id="a_Node000008"><a xlink:href="wind__farm__simulator_8cpp.html#a4393000f7e8fa3f288d65d5c2a949be9" target="_top" xlink:title=" ">
<polygon fill="white" stroke="#666666" points="411,-93 265,-93 265,-74 411,-74 411,-93"/>
<text text-anchor="middle" x="338" y="-81" font-family="Helvetica,sans-Serif" font-size="10.00">estimateAveragePowerMH</text>
</a>
</g>
</g>
<!-- Node6&#45;&gt;Node8 -->
<g id="edge8_Node000006_Node000008" class="edge">
<title>Node6&#45;&gt;Node8</title>
<g id="a_edge8_Node000006_Node000008"><a xlink:title=" ">
<path fill="none" stroke="#63b8ff" d="M227.94,-83.5C236.51,-83.5 245.54,-83.5 254.57,-83.5"/>
<polygon fill="#63b8ff" stroke="#63b8ff" points="254.76,-87 264.76,-83.5 254.76,-80 254.76,-87"/>
</a>
</g>
</g>
<!-- Node7&#45;&gt;Node3 -->
<g id="edge7_Node000007_Node000003" class="edge">
<title>Node7&#45;&gt;Node3</title>
<g id="a_edge7_Node000007_Node000003"><a xlink:title=" ">
<path fill="none" stroke="#63b8ff" d="M381.77,-130.07C391.52,-132.72 401.73,-135.88 411,-139.5 427.86,-146.07 430.63,-150.8 447,-158.5 457.72,-163.54 469.61,-168.63 480.38,-173.06"/>
<polygon fill="#63b8ff" stroke="#63b8ff" points="479.31,-176.41 489.89,-176.93 481.95,-169.92 479.31,-176.41"/>
</a>
</g>
</g>
<!-- Node9 -->
<g id="Node000009" class="node">
<title>Node9</title>
<g id="a_Node000009"><a xlink:href="wind__farm__simulator_8cpp.html#ab37a2b0187762edf9119b6c5a9ff2564" target="_top" xlink:title=" ">
<polygon fill="white" stroke="#666666" points="584,-149 447,-149 447,-130 584,-130 584,-149"/>
<text text-anchor="middle" x="515.5" y="-137" font-family="Helvetica,sans-Serif" font-size="10.00">buildWindDomainOwned</text>
</a>
</g>
</g>
<!-- Node8&#45;&gt;Node9 -->
<g id="edge9_Node000008_Node000009" class="edge">
<title>Node8&#45;&gt;Node9</title>
<g id="a_edge9_Node000008_Node000009"><a xlink:title=" ">
<path fill="none" stroke="#63b8ff" d="M384.89,-93.06C393.69,-95.42 402.73,-98.24 411,-101.5 428.02,-108.22 430.03,-114.65 447,-121.5 451.99,-123.52 457.28,-125.37 462.61,-127.07"/>
<polygon fill="#63b8ff" stroke="#63b8ff" points="461.62,-130.42 472.21,-129.94 463.63,-123.72 461.62,-130.42"/>
</a>
</g>
</g>
<!-- Node10 -->
<g id="Node000010" class="node">
<title>Node10</title>
<g id="a_Node000010"><a xlink:href="wind__farm__simulator_8cpp.html#afd0350ab65084c7a147a43073fdea9aa" target="_top" xlink:title=" ">
<polygon fill="white" stroke="#666666" points="577,-112 454,-112 454,-93 577,-93 577,-112"/>
<text text-anchor="middle" x="515.5" y="-100" font-family="Helvetica,sans-Serif" font-size="10.00">farmPowerGivenWind</text>
</a>
</g>
</g>
<!-- Node8&#45;&gt;Node10 -->
<g id="edge10_Node000008_Node000010" class="edge">
<title>Node8&#45;&gt;Node10</title>
<g id="a_edge10_Node000008_Node000010"><a xlink:title=" ">
<path fill="none" stroke="#63b8ff" d="M411.14,-91.31C421.89,-92.47 432.96,-93.67 443.68,-94.83"/>
<polygon fill="#63b8ff" stroke="#63b8ff" points="443.51,-98.33 453.83,-95.93 444.26,-91.38 443.51,-98.33"/>
</a>
</g>
</g>
<!-- Node13 -->
<g id="Node000013" class="node">
<title>Node13</title>
<g id="a_Node000013"><a xlink:href="wind__farm__simulator_8cpp.html#abd5dd8f30987bbea1b86869ba00d49b0" target="_top" xlink:title=" ">
<polygon fill="white" stroke="#666666" points="572.5,-75 458.5,-75 458.5,-56 572.5,-56 572.5,-75"/>
<text text-anchor="middle" x="515.5" y="-63" font-family="Helvetica,sans-Serif" font-size="10.00">mapToPhysicalWind</text>
</a>
</g>
</g>
<!-- Node8&#45;&gt;Node13 -->
<g id="edge13_Node000008_Node000013" class="edge">
<title>Node8&#45;&gt;Node13</title>
<g id="a_edge13_Node000008_Node000013"><a xlink:title=" ">
<path fill="none" stroke="#63b8ff" d="M411.14,-76.1C423.48,-74.84 436.24,-73.53 448.4,-72.28"/>
<polygon fill="#63b8ff" stroke="#63b8ff" points="448.87,-75.75 458.46,-71.25 448.16,-68.79 448.87,-75.75"/>
</a>
</g>
</g>
<!-- Node14 -->
<g id="Node000014" class="node">
<title>Node14</title>
<g id="a_Node000014"><a xlink:href="wind__farm__simulator_8cpp.html#a5e22ce925643bbc74d4de1e66f796dea" target="_top" xlink:title=" ">
<polygon fill="white" stroke="#666666" points="552,-38 479,-38 479,-19 552,-19 552,-38"/>
<text text-anchor="middle" x="515.5" y="-26" font-family="Helvetica,sans-Serif" font-size="10.00">weibull_pdf</text>
</a>
</g>
</g>
<!-- Node8&#45;&gt;Node14 -->
<g id="edge14_Node000008_Node000014" class="edge">
<title>Node8&#45;&gt;Node14</title>
<g id="a_edge14_Node000008_Node000014"><a xlink:title=" ">
<path fill="none" stroke="#63b8ff" d="M365.46,-73.86C387.22,-66.07 418.94,-55.04 447,-46.5 454.18,-44.32 461.83,-42.14 469.31,-40.09"/>
<polygon fill="#63b8ff" stroke="#63b8ff" points="470.24,-43.46 478.99,-37.48 468.42,-36.7 470.24,-43.46"/>
</a>
</g>
</g>
<!-- Node11 -->
<g id="Node000011" class="node">
<title>Node11</title>
<g id="a_Node000011"><a xlink:href="wind__farm__simulator_8cpp.html#af758d8893b8c7e8d9f5b9492e23af0b9" target="_top" xlink:title=" ">
<polygon fill="white" stroke="#666666" points="718,-130 620,-130 620,-111 718,-111 718,-130"/>
<text text-anchor="middle" x="669" y="-118" font-family="Helvetica,sans-Serif" font-size="10.00">applyWakeEffect</text>
</a>
</g>
</g>
<!-- Node10&#45;&gt;Node11 -->
<g id="edge11_Node000010_Node000011" class="edge">
<title>Node10&#45;&gt;Node11</title>
<g id="a_edge11_Node000010_Node000011"><a xlink:title=" ">
<path fill="none" stroke="#63b8ff" d="M577.25,-109.72C587.98,-110.99 599.13,-112.32 609.78,-113.58"/>
<polygon fill="#63b8ff" stroke="#63b8ff" points="609.48,-117.07 619.82,-114.78 610.31,-110.12 609.48,-117.07"/>
</a>
</g>
</g>
<!-- Node12 -->
<g id="Node000012" class="node">
<title>Node12</title>
<g id="a_Node000012"><a xlink:href="wind__farm__simulator_8cpp.html#a50caf0a5cbc9348e481e310e8605a943" target="_top" xlink:title=" ">
<polygon fill="white" stroke="#666666" points="704,-93 634,-93 634,-74 704,-74 704,-93"/>
<text text-anchor="middle" x="669" y="-81" font-family="Helvetica,sans-Serif" font-size="10.00">windPower</text>
</a>
</g>
</g>
<!-- Node10&#45;&gt;Node12 -->
<g id="edge12_Node000010_Node000012" class="edge">
<title>Node10&#45;&gt;Node12</title>
<g id="a_edge12_Node000010_Node000012"><a xlink:title=" ">
<path fill="none" stroke="#63b8ff" d="M577.25,-94.88C592.75,-92.94 609.12,-90.88 623.63,-89.06"/>
<polygon fill="#63b8ff" stroke="#63b8ff" points="624.34,-92.5 633.83,-87.79 623.47,-85.56 624.34,-92.5"/>
</a>
</g>
</g>
</g>
</svg>

<g id="navigator" transform="translate(0 0)" fill="#404254">
  <rect fill="#f2f5e9" fill-opacity="0.5" stroke="#606060" stroke-width=".5" x="0" y="0" width="60" height="60"/>
  <use id="zoomplus" xlink:href="#zoomPlus" x="17" y="9" onmousedown="handleZoom(evt,'in')"/>
  <use id="zoomminus" xlink:href="#zoomMin" x="42" y="9" onmousedown="handleZoom(evt,'out')"/>
  <use id="reset" xlink:href="#resetDef" x="30" y="36" onmousedown="handleReset()"/>
   <use id="arrowup" xlink:href="#arrowUp" x="0" y="0" onmousedown="handlePan(0,-1)"/>
  <use id="arrowright" xlink:href="#arrowRight" x="0" y="0" onmousedown="handlePan(1,0)"/>
  <use id="arrowdown" xlink:href="#arrowDown" x="0" y="0" onmousedown="handlePan(0,1)"/>
  <use id="arrowleft" xlink:href="#arrowLeft" x="0" y="0" onmousedown="handlePan(-1,0)"/>
</g>
<svg viewBox="0 0 15 15" width="100%" height="30px" preserveAspectRatio="xMaxYMin meet">
 <g id="arrow_out" transform="scale(0.3 0.3)">
  <a xlink:href="wind__farm__simulator_8cpp_a087352157aa0ca7bf7fe70cd2e453a6b_cgraph_org.svg" target="_base">
   <rect id="button" ry="5" rx="5" y="6" x="6" height="38" width="38"
        fill="#f2f5e9" fill-opacity="0.5" stroke="#606060" stroke-width="1.0"/>
   <path id="arrow"
     d="M 11.500037,31.436501 C 11.940474,20.09759 22.043105,11.32322 32.158766,21.979434 L 37.068811,17.246167 C 37.068811,17.246167 37.088388,32 37.088388,32 L 22.160133,31.978069 C 22.160133,31.978069 26.997745,27.140456 26.997745,27.140456 C 18.528582,18.264221 13.291696,25.230495 11.500037,31.436501 z"
     style="fill:#404040;"/>
  </a>
 </g>
</svg>

<style type='text/css'>
<![CDATA[
[data-mouse-over-selected='false'] { opacity: 0.7; }
[data-mouse-over-selected='true']  { opacity: 1.0; }
]]>
</style>
<script type="application/ecmascript"><![CDATA[
document.addEventListener('DOMContentLoaded', (event) => {
  highlightEdges();
  highlightAdjacentNodes();
});
]]></script>
</svg>
