<?xml version="1.0" encoding="UTF-8" standalone="no"?>
<!DOCTYPE svg PUBLIC "-//W3C//DTD SVG 1.1//EN"
 "http://www.w3.org/Graphics/SVG/1.1/DTD/svg11.dtd">
<!-- Generated by graphviz version 2.43.0 (0)
 -->
<!-- Title: windFarmObjective Pages: 1 -->
<svg width="607pt" height="175pt"
 viewBox="0.00 0.00 607.00 175.00" xmlns="http://www.w3.org/2000/svg" xmlns:xlink="http://www.w3.org/1999/xlink">
<g id="graph0" class="graph" transform="scale(1 1) rotate(0) translate(4 171)">
<title>windFarmObjective</title>
<!-- Node1 -->
<g id="Node000001" class="node">
<title>Node1</title>
<g id="a_Node000001"><a xlink:title=" ">
<polygon fill="#999999" stroke="#666666" points="110,-93 0,-93 0,-74 110,-74 110,-93"/>
<text text-anchor="middle" x="55" y="-81" font-family="Helvetica,sans-Serif" font-size="10.00">windFarmObjective</text>
</a>
</g>
</g>
<!-- Node2 -->
<g id="Node000002" class="node">
<title>Node2</title>
<g id="a_Node000002"><a xlink:href="wind__farm__simulator_8cpp.html#a539eab1269470757cef93621bf98bb57" target="_top" xlink:title=" ">
<polygon fill="white" stroke="#666666" points="290.5,-148 147.5,-148 147.5,-129 290.5,-129 290.5,-148"/>
<text text-anchor="middle" x="219" y="-136" font-family="Helvetica,sans-Serif" font-size="10.00">computeProximityPenalty</text>
</a>
</g>
</g>
<!-- Node1&#45;&gt;Node2 -->
<g id="edge1_Node000001_Node000002" class="edge">
<title>Node1&#45;&gt;Node2</title>
<g id="a_edge1_Node000001_Node000002"><a xlink:title=" ">
<path fill="none" stroke="#63b8ff" d="M84.22,-93.08C110.85,-102.12 150.97,-115.74 180.33,-125.71"/>
<polygon fill="#63b8ff" stroke="#63b8ff" points="179.24,-129.04 189.83,-128.94 181.49,-122.41 179.24,-129.04"/>
</a>
</g>
</g>
<!-- Node4 -->
<g id="Node000004" class="node">
<title>Node4</title>
<g id="a_Node000004"><a xlink:href="wind__farm__simulator_8cpp.html#a4393000f7e8fa3f288d65d5c2a949be9" target="_top" xlink:title=" ">
<polygon fill="white" stroke="#666666" points="292,-93 146,-93 146,-74 292,-74 292,-93"/>
<text text-anchor="middle" x="219" y="-81" font-family="Helvetica,sans-Serif" font-size="10.00">estimateAveragePowerMH</text>
</a>
</g>
</g>
<!-- Node1&#45;&gt;Node4 -->
<g id="edge3_Node000001_Node000004" class="edge">
<title>Node1&#45;&gt;Node4</title>
<g id="a_edge3_Node000001_Node000004"><a xlink:title=" ">
<path fill="none" stroke="#63b8ff" d="M110.39,-83.5C118.59,-83.5 127.19,-83.5 135.81,-83.5"/>
<polygon fill="#63b8ff" stroke="#63b8ff" points="135.91,-87 145.91,-83.5 135.91,-80 135.91,-87"/>
</a>
</g>
</g>
<!-- Node11 -->
<g id="Node000011" class="node">
<title>Node11</title>
<g id="a_Node000011"><a xlink:href="wind__farm__simulator_8cpp.html#a262532b597035affbd890f6bdf9e7aab" target="_top" xlink:title=" ">
<polygon fill="white" stroke="#666666" points="284.5,-56 153.5,-56 153.5,-37 284.5,-37 284.5,-56"/>
<text text-anchor="middle" x="219" y="-44" font-family="Helvetica,sans-Serif" font-size="10.00">extractTurbinePositions</text>
</a>
</g>
</g>
<!-- Node1&#45;&gt;Node11 -->
<g id="edge10_Node000001_Node000011" class="edge">
<title>Node1&#45;&gt;Node11</title>
<g id="a_edge10_Node000001_Node000011"><a xlink:title=" ">
<path fill="none" stroke="#63b8ff" d="M97.72,-73.97C118.61,-69.2 144.11,-63.38 166.24,-58.32"/>
<polygon fill="#63b8ff" stroke="#63b8ff" points="167.17,-61.7 176.14,-56.06 165.61,-54.87 167.17,-61.7"/>
</a>
</g>
</g>
<!-- Node3 -->
<g id="Node000003" class="node">
<title>Node3</title>
<g id="a_Node000003"><a xlink:href="wind__farm__simulator_8cpp.html#a8dd4de4f898746b92930ac82a3177573" target="_top" xlink:title=" ">
<polygon fill="white" stroke="#666666" points="443.5,-167 349.5,-167 349.5,-148 443.5,-148 443.5,-167"/>
<text text-anchor="middle" x="396.5" y="-155" font-family="Helvetica,sans-Serif" font-size="10.00">turbineDistance</text>
</a>
</g>
</g>
<!-- Node2&#45;&gt;Node3 -->
<g id="edge2_Node000002_Node000003" class="edge">
<title>Node2&#45;&gt;Node3</title>
<g id="a_edge2_Node000002_Node000003"><a xlink:title=" ">
<path fill="none" stroke="#63b8ff" d="M290.62,-146.15C306.88,-147.91 323.94,-149.75 339.48,-151.43"/>
<polygon fill="#63b8ff" stroke="#63b8ff" points="339.12,-154.92 349.44,-152.51 339.87,-147.96 339.12,-154.92"/>
</a>
</g>
</g>
<!-- Node5 -->
<g id="Node000005" class="node">
<title>Node5</title>
<g id="a_Node000005"><a xlink:href="wind__farm__simulator_8cpp.html#ab37a2b0187762edf9119b6c5a9ff2564" target="_top" xlink:title=" ">
<polygon fill="white" stroke="#666666" points="465,-130 328,-130 328,-111 465,-111 465,-130"/>
<text text-anchor="middle" x="396.5" y="-118" font-family="Helvetica,sans-Serif" font-size="10.00">buildWindDomainOwned</text>
</a>
</g>
</g>
<!-- Node4&#45;&gt;Node5 -->
<g id="edge4_Node000004_Node000005" class="edge">
<title>Node4&#45;&gt;Node5</title>
<g id="a_edge4_Node000004_Node000005"><a xlink:title=" ">
<path fill="none" stroke="#63b8ff" d="M265.2,-93.03C288.03,-97.84 315.95,-103.73 340.07,-108.81"/>
<polygon fill="#63b8ff" stroke="#63b8ff" points="339.65,-112.3 350.15,-110.94 341.09,-105.45 339.65,-112.3"/>
</a>
</g>
</g>
<!-- Node6 -->
<g id="Node000006" class="node">
<title>Node6</title>
<g id="a_Node000006"><a xlink:href="wind__farm__simulator_8cpp.html#afd0350ab65084c7a147a43073fdea9aa" target="_top" xlink:title=" ">
<polygon fill="white" stroke="#666666" points="458,-93 335,-93 335,-74 458,-74 458,-93"/>
<text text-anchor="middle" x="396.5" y="-81" font-family="Helvetica,sans-Serif" font-size="10.00">farmPowerGivenWind</text>
</a>
</g>
</g>
<!-- Node4&#45;&gt;Node6 -->
<g id="edge5_Node000004_Node000006" class="edge">
<title>Node4&#45;&gt;Node6</title>
<g id="a_edge5_Node000004_Node000006"><a xlink:title=" ">
<path fill="none" stroke="#63b8ff" d="M292.14,-83.5C302.89,-83.5 313.96,-83.5 324.68,-83.5"/>
<polygon fill="#63b8ff" stroke="#63b8ff" points="324.83,-87 334.83,-83.5 324.83,-80 324.83,-87"/>
</a>
</g>
</g>
<!-- Node9 -->
<g id="Node000009" class="node">
<title>Node9</title>
<g id="a_Node000009"><a xlink:href="wind__farm__simulator_8cpp.html#abd5dd8f30987bbea1b86869ba00d49b0" target="_top" xlink:title=" ">
<polygon fill="white" stroke="#666666" points="453.5,-56 339.5,-56 339.5,-37 453.5,-37 453.5,-56"/>
<text text-anchor="middle" x="396.5" y="-44" font-family="Helvetica,sans-Serif" font-size="10.00">mapToPhysicalWind</text>
</a>
</g>
</g>
<!-- Node4&#45;&gt;Node9 -->
<g id="edge8_Node000004_Node000009" class="edge">
<title>Node4&#45;&gt;Node9</title>
<g id="a_edge8_Node000004_Node000009"><a xlink:title=" ">
<path fill="none" stroke="#63b8ff" d="M265.2,-73.97C288.03,-69.16 315.95,-63.27 340.07,-58.19"/>
<polygon fill="#63b8ff" stroke="#63b8ff" points="341.09,-61.55 350.15,-56.06 339.65,-54.7 341.09,-61.55"/>
</a>
</g>
</g>
<!-- Node10 -->
<g id="Node000010" class="node">
<title>Node10</title>
<g id="a_Node000010"><a xlink:href="wind__farm__simulator_8cpp.html#a5e22ce925643bbc74d4de1e66f796dea" target="_top" xlink:title=" ">
<polygon fill="white" stroke="#666666" points="433,-19 360,-19 360,0 433,0 433,-19"/>
<text text-anchor="middle" x="396.5" y="-7" font-family="Helvetica,sans-Serif" font-size="10.00">weibull_pdf</text>
</a>
</g>
</g>
<!-- Node4&#45;&gt;Node10 -->
<g id="edge9_Node000004_Node000010" class="edge">
<title>Node4&#45;&gt;Node10</title>
<g id="a_edge9_Node000004_Node000010"><a xlink:title=" ">
<path fill="none" stroke="#63b8ff" d="M272.85,-73.92C279.53,-71.67 286.08,-68.91 292,-65.5 311.89,-54.06 308.28,-40.23 328,-28.5 334.77,-24.47 342.43,-21.27 350.09,-18.73"/>
<polygon fill="#63b8ff" stroke="#63b8ff" points="351.15,-22.06 359.74,-15.85 349.15,-15.35 351.15,-22.06"/>
</a>
</g>
</g>
<!-- Node7 -->
<g id="Node000007" class="node">
<title>Node7</title>
<g id="a_Node000007"><a xlink:href="wind__farm__simulator_8cpp.html#af758d8893b8c7e8d9f5b9492e23af0b9" target="_top" xlink:title=" ">
<polygon fill="white" stroke="#666666" points="599,-111 501,-111 501,-92 599,-92 599,-111"/>
<text text-anchor="middle" x="550" y="-99" font-family="Helvetica,sans-Serif" font-size="10.00">applyWakeEffect</text>
</a>
</g>
</g>
<!-- Node6&#45;&gt;Node7 -->
<g id="edge6_Node000006_Node000007" class="edge">
<title>Node6&#45;&gt;Node7</title>
<g id="a_edge6_Node000006_Node000007"><a xlink:title=" ">
<path fill="none" stroke="#63b8ff" d="M458.25,-90.72C468.98,-91.99 480.13,-93.32 490.78,-94.58"/>
<polygon fill="#63b8ff" stroke="#63b8ff" points="490.48,-98.07 500.82,-95.78 491.31,-91.12 490.48,-98.07"/>
</a>
</g>
</g>
<!-- Node8 -->
<g id="Node000008" class="node">
<title>Node8</title>
<g id="a_Node000008"><a xlink:href="wind__farm__simulator_8cpp.html#a50caf0a5cbc9348e481e310e8605a943" target="_top" xlink:title=" ">
<polygon fill="white" stroke="#666666" points="585,-74 515,-74 515,-55 585,-55 585,-74"/>
<text text-anchor="middle" x="550" y="-62" font-family="Helvetica,sans-Serif" font-size="10.00">windPower</text>
</a>
</g>
</g>
<!-- Node6&#45;&gt;Node8 -->
<g id="edge7_Node000006_Node000008" class="edge">
<title>Node6&#45;&gt;Node8</title>
<g id="a_edge7_Node000006_Node000008"><a xlink:title=" ">
<path fill="none" stroke="#63b8ff" d="M458.25,-75.88C473.75,-73.94 490.12,-71.88 504.63,-70.06"/>
<polygon fill="#63b8ff" stroke="#63b8ff" points="505.34,-73.5 514.83,-68.79 504.47,-66.56 505.34,-73.5"/>
</a>
</g>
</g>
</g>
</svg>
