<?xml version="1.0" encoding="UTF-8" standalone="no"?>
<!DOCTYPE svg PUBLIC "-//W3C//DTD SVG 1.1//EN"
 "http://www.w3.org/Graphics/SVG/1.1/DTD/svg11.dtd">
<!-- Generated by graphviz version 2.43.0 (0)
 -->
<!-- Title: main Pages: 1 -->
<svg width="869pt" height="213pt"
 viewBox="0.00 0.00 869.00 213.00" xmlns="http://www.w3.org/2000/svg" xmlns:xlink="http://www.w3.org/1999/xlink">
<g id="graph0" class="graph" transform="scale(1 1) rotate(0) translate(4 209)">
<title>main</title>
<!-- Node1 -->
<g id="Node000001" class="node">
<title>Node1</title>
<g id="a_Node000001"><a xlink:title=" ">
<polygon fill="#999999" stroke="#666666" points="41,-111 0,-111 0,-92 41,-92 41,-111"/>
<text text-anchor="middle" x="20.5" y="-99" font-family="Helvetica,sans-Serif" font-size="10.00">main</text>
</a>
</g>
</g>
<!-- Node2 -->
<g id="Node000002" class="node">
<title>Node2</title>
<g id="a_Node000002"><a xlink:href="wind__farm__simulator_8cpp.html#a0ae28efa93161259742cebecdac947bd" target="_top" xlink:title=" ">
<polygon fill="white" stroke="#666666" points="223,-148 77,-148 77,-129 223,-129 223,-148"/>
<text text-anchor="middle" x="150" y="-136" font-family="Helvetica,sans-Serif" font-size="10.00">printFinalComparisonTable</text>
</a>
</g>
</g>
<!-- Node1&#45;&gt;Node2 -->
<g id="edge1_Node000001_Node000002" class="edge">
<title>Node1&#45;&gt;Node2</title>
<g id="a_edge1_Node000001_Node000002"><a xlink:title=" ">
<path fill="none" stroke="#63b8ff" d="M41.15,-108.68C51.71,-112.42 64.99,-116.95 77,-120.5 83.88,-122.53 91.18,-124.53 98.38,-126.42"/>
<polygon fill="#63b8ff" stroke="#63b8ff" points="97.54,-129.82 108.09,-128.91 99.28,-123.04 97.54,-129.82"/>
</a>
</g>
</g>
<!-- Node3 -->
<g id="Node000003" class="node">
<title>Node3</title>
<g id="a_Node000003"><a xlink:href="wind__farm__simulator_8cpp.html#a087352157aa0ca7bf7fe70cd2e453a6b" target="_top" xlink:title=" ">
<polygon fill="white" stroke="#666666" points="190,-111 110,-111 110,-92 190,-92 190,-111"/>
<text text-anchor="middle" x="150" y="-99" font-family="Helvetica,sans-Serif" font-size="10.00">runOptimizer</text>
</a>
</g>
</g>
<!-- Node1&#45;&gt;Node3 -->
<g id="edge2_Node000001_Node000003" class="edge">
<title>Node1&#45;&gt;Node3</title>
<g id="a_edge2_Node000001_Node000003"><a xlink:title=" ">
<path fill="none" stroke="#63b8ff" d="M41.14,-101.5C56.74,-101.5 79.24,-101.5 99.67,-101.5"/>
<polygon fill="#63b8ff" stroke="#63b8ff" points="99.8,-105 109.8,-101.5 99.8,-98 99.8,-105"/>
</a>
</g>
</g>
<!-- Node19 -->
<g id="Node000019" class="node">
<title>Node19</title>
<g id="a_Node000019"><a xlink:href="namespacemc_1_1rng.html#aa2dfac002fcae2fb6e633c4ebc1e00e0" target="_top" xlink:title="Set the global seed used by all library RNG components.">
<polygon fill="white" stroke="#666666" points="219,-74 81,-74 81,-55 219,-55 219,-74"/>
<text text-anchor="middle" x="150" y="-62" font-family="Helvetica,sans-Serif" font-size="10.00">mc::rng::set_global_seed</text>
</a>
</g>
</g>
<!-- Node1&#45;&gt;Node19 -->
<g id="edge20_Node000001_Node000019" class="edge">
<title>Node1&#45;&gt;Node19</title>
<g id="a_edge20_Node000001_Node000019"><a xlink:title=" ">
<path fill="none" stroke="#63b8ff" d="M41.15,-94.32C51.71,-90.58 64.99,-86.05 77,-82.5 83.88,-80.47 91.18,-78.47 98.38,-76.58"/>
<polygon fill="#63b8ff" stroke="#63b8ff" points="99.28,-79.96 108.09,-74.09 97.54,-73.18 99.28,-79.96"/>
</a>
</g>
</g>
<!-- Node4 -->
<g id="Node000004" class="node">
<title>Node4</title>
<g id="a_Node000004"><a xlink:href="wind__farm__simulator_8cpp.html#a7ba31cc104f6332569fc77076087fe19" target="_top" xlink:title=" ">
<polygon fill="white" stroke="#666666" points="541,-205 421,-205 421,-186 541,-186 541,-205"/>
<text text-anchor="middle" x="481" y="-193" font-family="Helvetica,sans-Serif" font-size="10.00">computeMinDistance</text>
</a>
</g>
</g>
<!-- Node3&#45;&gt;Node4 -->
<g id="edge3_Node000003_Node000004" class="edge">
<title>Node3&#45;&gt;Node4</title>
<g id="a_edge3_Node000003_Node000004"><a xlink:title=" ">
<path fill="none" stroke="#63b8ff" d="M190.08,-107.38C201.27,-110.21 213.11,-114.38 223,-120.5 243.62,-133.26 237.74,-149.84 259,-161.5 305.36,-186.92 364.95,-194.91 410.56,-196.83"/>
<polygon fill="#63b8ff" stroke="#63b8ff" points="410.55,-200.33 420.66,-197.16 410.78,-193.33 410.55,-200.33"/>
</a>
</g>
</g>
<!-- Node6 -->
<g id="Node000006" class="node">
<title>Node6</title>
<g id="a_Node000006"><a xlink:href="wind__farm__simulator_8cpp.html#a262532b597035affbd890f6bdf9e7aab" target="_top" xlink:title=" ">
<polygon fill="white" stroke="#666666" points="546.5,-167 415.5,-167 415.5,-148 546.5,-148 546.5,-167"/>
<text text-anchor="middle" x="481" y="-155" font-family="Helvetica,sans-Serif" font-size="10.00">extractTurbinePositions</text>
</a>
</g>
</g>
<!-- Node3&#45;&gt;Node6 -->
<g id="edge5_Node000003_Node000006" class="edge">
<title>Node3&#45;&gt;Node6</title>
<g id="a_edge5_Node000003_Node000006"><a xlink:title=" ">
<path fill="none" stroke="#63b8ff" d="M190.01,-110.07C200.85,-112.91 212.52,-116.41 223,-120.5 239.86,-127.07 241.63,-134.44 259,-139.5 306.39,-153.3 361.75,-157.8 405.21,-158.84"/>
<polygon fill="#63b8ff" stroke="#63b8ff" points="405.35,-162.34 415.42,-159.03 405.48,-155.34 405.35,-162.34"/>
</a>
</g>
</g>
<!-- Node7 -->
<g id="Node000007" class="node">
<title>Node7</title>
<g id="a_Node000007"><a xlink:href="wind__farm__simulator_8cpp.html#a956440d752816f3e240964a811a61812" target="_top" xlink:title=" ">
<polygon fill="white" stroke="#666666" points="372,-130 259,-130 259,-111 372,-111 372,-130"/>
<text text-anchor="middle" x="315.5" y="-118" font-family="Helvetica,sans-Serif" font-size="10.00">hashCoordsForSeed</text>
</a>
</g>
</g>
<!-- Node3&#45;&gt;Node7 -->
<g id="edge6_Node000003_Node000007" class="edge">
<title>Node3&#45;&gt;Node7</title>
<g id="a_edge6_Node000003_Node000007"><a xlink:title=" ">
<path fill="none" stroke="#63b8ff" d="M190.16,-106.05C207.78,-108.1 229.06,-110.57 249,-112.89"/>
<polygon fill="#63b8ff" stroke="#63b8ff" points="248.63,-116.37 258.96,-114.05 249.43,-109.42 248.63,-116.37"/>
</a>
</g>
</g>
<!-- Node8 -->
<g id="Node000008" class="node">
<title>Node8</title>
<g id="a_Node000008"><a xlink:href="wind__farm__simulator_8cpp.html#acd23a07d214d96166f1bbcb4c3f08b54" target="_top" xlink:title=" ">
<polygon fill="white" stroke="#666666" points="370.5,-93 260.5,-93 260.5,-74 370.5,-74 370.5,-93"/>
<text text-anchor="middle" x="315.5" y="-81" font-family="Helvetica,sans-Serif" font-size="10.00">windFarmObjective</text>
</a>
</g>
</g>
<!-- Node3&#45;&gt;Node8 -->
<g id="edge7_Node000003_Node000008" class="edge">
<title>Node3&#45;&gt;Node8</title>
<g id="a_edge7_Node000003_Node000008"><a xlink:title=" ">
<path fill="none" stroke="#63b8ff" d="M190.16,-97.19C208.1,-95.21 229.84,-92.82 250.09,-90.59"/>
<polygon fill="#63b8ff" stroke="#63b8ff" points="250.65,-94.05 260.2,-89.48 249.88,-87.09 250.65,-94.05"/>
</a>
</g>
</g>
<!-- Node17 -->
<g id="Node000017" class="node">
<title>Node17</title>
<g id="a_Node000017"><a xlink:href="wind__farm__simulator_8cpp.html#aa82ec693a2c1c91e0d272460e9b3f39c" target="_top" xlink:title=" ">
<polygon fill="white" stroke="#666666" points="359.5,-56 271.5,-56 271.5,-37 359.5,-37 359.5,-56"/>
<text text-anchor="middle" x="315.5" y="-44" font-family="Helvetica,sans-Serif" font-size="10.00">writePlotScript</text>
</a>
</g>
</g>
<!-- Node3&#45;&gt;Node17 -->
<g id="edge18_Node000003_Node000017" class="edge">
<title>Node3&#45;&gt;Node17</title>
<g id="a_edge18_Node000003_Node000017"><a xlink:title=" ">
<path fill="none" stroke="#63b8ff" d="M190.32,-92.68C201.06,-89.86 212.6,-86.43 223,-82.5 239.74,-76.18 242.45,-71.28 259,-64.5 263.4,-62.7 268.05,-60.95 272.71,-59.31"/>
<polygon fill="#63b8ff" stroke="#63b8ff" points="273.88,-62.6 282.21,-56.07 271.62,-55.98 273.88,-62.6"/>
</a>
</g>
</g>
<!-- Node18 -->
<g id="Node000018" class="node">
<title>Node18</title>
<g id="a_Node000018"><a xlink:href="wind__farm__simulator_8cpp.html#a67b67a7be61bdcd6a74330e1e76780ab" target="_top" xlink:title=" ">
<polygon fill="white" stroke="#666666" points="363,-19 268,-19 268,0 363,0 363,-19"/>
<text text-anchor="middle" x="315.5" y="-7" font-family="Helvetica,sans-Serif" font-size="10.00">writeResultsFile</text>
</a>
</g>
</g>
<!-- Node3&#45;&gt;Node18 -->
<g id="edge19_Node000003_Node000018" class="edge">
<title>Node3&#45;&gt;Node18</title>
<g id="a_edge19_Node000003_Node000018"><a xlink:title=" ">
<path fill="none" stroke="#63b8ff" d="M190.28,-96.57C201.6,-93.77 213.46,-89.38 223,-82.5 246.7,-65.42 235.79,-45.24 259,-27.5 260.8,-26.13 262.71,-24.85 264.69,-23.68"/>
<polygon fill="#63b8ff" stroke="#63b8ff" points="266.41,-26.73 273.77,-19.11 263.27,-20.48 266.41,-26.73"/>
</a>
</g>
</g>
<!-- Node5 -->
<g id="Node000005" class="node">
<title>Node5</title>
<g id="a_Node000005"><a xlink:href="wind__farm__simulator_8cpp.html#a8dd4de4f898746b92930ac82a3177573" target="_top" xlink:title=" ">
<polygon fill="white" stroke="#666666" points="705.5,-196 611.5,-196 611.5,-177 705.5,-177 705.5,-196"/>
<text text-anchor="middle" x="658.5" y="-184" font-family="Helvetica,sans-Serif" font-size="10.00">turbineDistance</text>
</a>
</g>
</g>
<!-- Node4&#45;&gt;Node5 -->
<g id="edge4_Node000004_Node000005" class="edge">
<title>Node4&#45;&gt;Node5</title>
<g id="a_edge4_Node000004_Node000005"><a xlink:title=" ">
<path fill="none" stroke="#63b8ff" d="M541.42,-192.45C560.8,-191.46 582.26,-190.36 601.39,-189.38"/>
<polygon fill="#63b8ff" stroke="#63b8ff" points="601.65,-192.87 611.46,-188.86 601.29,-185.88 601.65,-192.87"/>
</a>
</g>
</g>
<!-- Node8&#45;&gt;Node6 -->
<g id="edge17_Node000008_Node000006" class="edge">
<title>Node8&#45;&gt;Node6</title>
<g id="a_edge17_Node000008_Node000006"><a xlink:title=" ">
<path fill="none" stroke="#63b8ff" d="M354.66,-93.07C360.7,-95.36 366.69,-98.15 372,-101.5 391.67,-113.92 387.91,-127.77 408,-139.5 411.04,-141.28 414.25,-142.88 417.56,-144.32"/>
<polygon fill="#63b8ff" stroke="#63b8ff" points="416.51,-147.67 427.1,-147.99 419.03,-141.14 416.51,-147.67"/>
</a>
</g>
</g>
<!-- Node9 -->
<g id="Node000009" class="node">
<title>Node9</title>
<g id="a_Node000009"><a xlink:href="wind__farm__simulator_8cpp.html#a539eab1269470757cef93621bf98bb57" target="_top" xlink:title=" ">
<polygon fill="white" stroke="#666666" points="552.5,-130 409.5,-130 409.5,-111 552.5,-111 552.5,-130"/>
<text text-anchor="middle" x="481" y="-118" font-family="Helvetica,sans-Serif" font-size="10.00">computeProximityPenalty</text>
</a>
</g>
</g>
<!-- Node8&#45;&gt;Node9 -->
<g id="edge8_Node000008_Node000009" class="edge">
<title>Node8&#45;&gt;Node9</title>
<g id="a_edge8_Node000008_Node000009"><a xlink:title=" ">
<path fill="none" stroke="#63b8ff" d="M358.61,-93.03C379.69,-97.8 405.42,-103.62 427.76,-108.68"/>
<polygon fill="#63b8ff" stroke="#63b8ff" points="427.23,-112.15 437.75,-110.94 428.77,-105.32 427.23,-112.15"/>
</a>
</g>
</g>
<!-- Node10 -->
<g id="Node000010" class="node">
<title>Node10</title>
<g id="a_Node000010"><a xlink:href="wind__farm__simulator_8cpp.html#a4393000f7e8fa3f288d65d5c2a949be9" target="_top" xlink:title=" ">
<polygon fill="white" stroke="#666666" points="554,-93 408,-93 408,-74 554,-74 554,-93"/>
<text text-anchor="middle" x="481" y="-81" font-family="Helvetica,sans-Serif" font-size="10.00">estimateAveragePowerMH</text>
</a>
</g>
</g>
<!-- Node8&#45;&gt;Node10 -->
<g id="edge10_Node000008_Node000010" class="edge">
<title>Node8&#45;&gt;Node10</title>
<g id="a_edge10_Node000008_Node000010"><a xlink:title=" ">
<path fill="none" stroke="#63b8ff" d="M370.94,-83.5C379.51,-83.5 388.54,-83.5 397.57,-83.5"/>
<polygon fill="#63b8ff" stroke="#63b8ff" points="397.76,-87 407.76,-83.5 397.76,-80 397.76,-87"/>
</a>
</g>
</g>
<!-- Node9&#45;&gt;Node5 -->
<g id="edge9_Node000009_Node000005" class="edge">
<title>Node9&#45;&gt;Node5</title>
<g id="a_edge9_Node000009_Node000005"><a xlink:title=" ">
<path fill="none" stroke="#63b8ff" d="M524.77,-130.07C534.52,-132.72 544.73,-135.88 554,-139.5 570.86,-146.07 573.63,-150.8 590,-158.5 600.72,-163.54 612.61,-168.63 623.38,-173.06"/>
<polygon fill="#63b8ff" stroke="#63b8ff" points="622.31,-176.41 632.89,-176.93 624.95,-169.92 622.31,-176.41"/>
</a>
</g>
</g>
<!-- Node11 -->
<g id="Node000011" class="node">
<title>Node11</title>
<g id="a_Node000011"><a xlink:href="wind__farm__simulator_8cpp.html#ab37a2b0187762edf9119b6c5a9ff2564" target="_top" xlink:title=" ">
<polygon fill="white" stroke="#666666" points="727,-149 590,-149 590,-130 727,-130 727,-149"/>
<text text-anchor="middle" x="658.5" y="-137" font-family="Helvetica,sans-Serif" font-size="10.00">buildWindDomainOwned</text>
</a>
</g>
</g>
<!-- Node10&#45;&gt;Node11 -->
<g id="edge11_Node000010_Node000011" class="edge">
<title>Node10&#45;&gt;Node11</title>
<g id="a_edge11_Node000010_Node000011"><a xlink:title=" ">
<path fill="none" stroke="#63b8ff" d="M527.89,-93.06C536.69,-95.42 545.73,-98.24 554,-101.5 571.02,-108.22 573.03,-114.65 590,-121.5 594.99,-123.52 600.28,-125.37 605.61,-127.07"/>
<polygon fill="#63b8ff" stroke="#63b8ff" points="604.62,-130.42 615.21,-129.94 606.63,-123.72 604.62,-130.42"/>
</a>
</g>
</g>
<!-- Node12 -->
<g id="Node000012" class="node">
<title>Node12</title>
<g id="a_Node000012"><a xlink:href="wind__farm__simulator_8cpp.html#afd0350ab65084c7a147a43073fdea9aa" target="_top" xlink:title=" ">
<polygon fill="white" stroke="#666666" points="720,-112 597,-112 597,-93 720,-93 720,-112"/>
<text text-anchor="middle" x="658.5" y="-100" font-family="Helvetica,sans-Serif" font-size="10.00">farmPowerGivenWind</text>
</a>
</g>
</g>
<!-- Node10&#45;&gt;Node12 -->
<g id="edge12_Node000010_Node000012" class="edge">
<title>Node10&#45;&gt;Node12</title>
<g id="a_edge12_Node000010_Node000012"><a xlink:title=" ">
<path fill="none" stroke="#63b8ff" d="M554.14,-91.31C564.89,-92.47 575.96,-93.67 586.68,-94.83"/>
<polygon fill="#63b8ff" stroke="#63b8ff" points="586.51,-98.33 596.83,-95.93 587.26,-91.38 586.51,-98.33"/>
</a>
</g>
</g>
<!-- Node15 -->
<g id="Node000015" class="node">
<title>Node15</title>
<g id="a_Node000015"><a xlink:href="wind__farm__simulator_8cpp.html#abd5dd8f30987bbea1b86869ba00d49b0" target="_top" xlink:title=" ">
<polygon fill="white" stroke="#666666" points="715.5,-75 601.5,-75 601.5,-56 715.5,-56 715.5,-75"/>
<text text-anchor="middle" x="658.5" y="-63" font-family="Helvetica,sans-Serif" font-size="10.00">mapToPhysicalWind</text>
</a>
</g>
</g>
<!-- Node10&#45;&gt;Node15 -->
<g id="edge15_Node000010_Node000015" class="edge">
<title>Node10&#45;&gt;Node15</title>
<g id="a_edge15_Node000010_Node000015"><a xlink:title=" ">
<path fill="none" stroke="#63b8ff" d="M554.14,-76.1C566.48,-74.84 579.24,-73.53 591.4,-72.28"/>
<polygon fill="#63b8ff" stroke="#63b8ff" points="591.87,-75.75 601.46,-71.25 591.16,-68.79 591.87,-75.75"/>
</a>
</g>
</g>
<!-- Node16 -->
<g id="Node000016" class="node">
<title>Node16</title>
<g id="a_Node000016"><a xlink:href="wind__farm__simulator_8cpp.html#a5e22ce925643bbc74d4de1e66f796dea" target="_top" xlink:title=" ">
<polygon fill="white" stroke="#666666" points="695,-38 622,-38 622,-19 695,-19 695,-38"/>
<text text-anchor="middle" x="658.5" y="-26" font-family="Helvetica,sans-Serif" font-size="10.00">weibull_pdf</text>
</a>
</g>
</g>
<!-- Node10&#45;&gt;Node16 -->
<g id="edge16_Node000010_Node000016" class="edge">
<title>Node10&#45;&gt;Node16</title>
<g id="a_edge16_Node000010_Node000016"><a xlink:title=" ">
<path fill="none" stroke="#63b8ff" d="M508.46,-73.86C530.22,-66.07 561.94,-55.04 590,-46.5 597.18,-44.32 604.83,-42.14 612.31,-40.09"/>
<polygon fill="#63b8ff" stroke="#63b8ff" points="613.24,-43.46 621.99,-37.48 611.42,-36.7 613.24,-43.46"/>
</a>
</g>
</g>
<!-- Node13 -->
<g id="Node000013" class="node">
<title>Node13</title>
<g id="a_Node000013"><a xlink:href="wind__farm__simulator_8cpp.html#af758d8893b8c7e8d9f5b9492e23af0b9" target="_top" xlink:title=" ">
<polygon fill="white" stroke="#666666" points="861,-130 763,-130 763,-111 861,-111 861,-130"/>
<text text-anchor="middle" x="812" y="-118" font-family="Helvetica,sans-Serif" font-size="10.00">applyWakeEffect</text>
</a>
</g>
</g>
<!-- Node12&#45;&gt;Node13 -->
<g id="edge13_Node000012_Node000013" class="edge">
<title>Node12&#45;&gt;Node13</title>
<g id="a_edge13_Node000012_Node000013"><a xlink:title=" ">
<path fill="none" stroke="#63b8ff" d="M720.25,-109.72C730.98,-110.99 742.13,-112.32 752.78,-113.58"/>
<polygon fill="#63b8ff" stroke="#63b8ff" points="752.48,-117.07 762.82,-114.78 753.31,-110.12 752.48,-117.07"/>
</a>
</g>
</g>
<!-- Node14 -->
<g id="Node000014" class="node">
<title>Node14</title>
<g id="a_Node000014"><a xlink:href="wind__farm__simulator_8cpp.html#a50caf0a5cbc9348e481e310e8605a943" target="_top" xlink:title=" ">
<polygon fill="white" stroke="#666666" points="847,-93 777,-93 777,-74 847,-74 847,-93"/>
<text text-anchor="middle" x="812" y="-81" font-family="Helvetica,sans-Serif" font-size="10.00">windPower</text>
</a>
</g>
</g>
<!-- Node12&#45;&gt;Node14 -->
<g id="edge14_Node000012_Node000014" class="edge">
<title>Node12&#45;&gt;Node14</title>
<g id="a_edge14_Node000012_Node000014"><a xlink:title=" ">
<path fill="none" stroke="#63b8ff" d="M720.25,-94.88C735.75,-92.94 752.12,-90.88 766.63,-89.06"/>
<polygon fill="#63b8ff" stroke="#63b8ff" points="767.34,-92.5 776.83,-87.79 766.47,-85.56 767.34,-92.5"/>
</a>
</g>
</g>
</g>
</svg>
